<svg width="500" height="500" viewBox="0 0 500 500" fill="none" xmlns="http://www.w3.org/2000/svg">
<rect width="500" height="500" fill="#F0F0F0"/>
<path d="M334 151C342.284 151 349 144.284 349 136C349 127.716 342.284 121 334 121C325.716 121 319 127.716 319 136C319 144.284 325.716 151 334 151Z" fill="#FBCE0F"/>
<path d="M252 163C258.627 163 264 157.627 264 151C264 144.373 258.627 139 252 139C245.373 139 240 144.373 240 151C240 157.627 245.373 163 252 163Z" fill="#FBCE0F"/>
<path d="M268.187 208.81C267.991 213.287 269.539 217.776 272.323 221.156C275.451 224.953 279.538 226.845 284.583 226.833C289.224 226.82 294.01 226.839 298.941 226.887C301.184 226.907 303.099 226.627 304.686 226.045C309.788 224.167 313.459 220.023 315.025 214.959C315.527 213.347 315.759 211.163 315.722 208.404C315.539 194.81 315.518 182.233 315.661 170.675C315.728 165.289 318.959 160.091 324.385 158.619C325.996 158.187 327.986 157.981 330.356 158.001C344.203 158.114 357.78 158.116 371.088 158.007C373.813 157.987 375.952 158.121 377.506 158.407C383.605 159.54 386.927 165.531 386.958 171.408C387.023 186.557 387.013 200.161 386.927 212.221C386.907 215.056 386.691 217.107 386.279 218.376C385.116 221.98 382.222 225.118 378.558 226.33C377.461 226.693 375.838 226.885 373.688 226.905C362.68 226.99 348.108 226.99 329.971 226.905C328.802 226.899 327.53 227.263 326.441 227.711C319.797 230.431 315.612 236.75 315.698 244.056C315.771 250.243 315.779 255.737 315.722 260.539C315.673 264.574 314.048 267.898 310.846 270.511C308.002 272.831 304.808 272.964 301.278 272.983C290.144 273.027 282.733 272.987 279.046 272.861C272.519 272.643 268.089 266.573 267.961 260.243C267.851 254.584 267.867 249.209 268.01 244.116C268.063 242.222 267.902 240.572 267.526 239.167C265.765 232.491 259.861 226.499 252.593 226.596C241.251 226.75 230.583 226.776 220.591 226.675C218.327 226.655 216.166 225.871 214.106 224.325C210.105 221.326 209.059 216.982 209.034 211.736C208.973 199.584 208.994 189.792 209.096 182.361C209.193 175.539 213.8 169.645 221.044 169.59C233.051 169.497 244.931 169.504 256.686 169.609C263.342 169.669 268.175 175.491 268.273 181.864C268.383 189.158 268.387 197.013 268.285 205.43C268.269 206.504 268.236 207.631 268.187 208.81Z" fill="#FBCE0F"/>
<path d="M146.194 191.566L128.297 191.597C123.064 191.606 118.83 195.835 118.839 201.043L118.869 217.907C118.878 223.115 123.127 227.329 128.359 227.32L146.257 227.289C151.489 227.28 155.724 223.051 155.715 217.843L155.685 200.979C155.676 195.771 151.427 191.557 146.194 191.566Z" fill="#FBCE0F"/>
<path d="M292 219C297.523 219 302 214.299 302 208.5C302 202.701 297.523 198 292 198C286.477 198 282 202.701 282 208.5C282 214.299 286.477 219 292 219Z" fill="#FBCE0F"/>
<path d="M191.611 235H172.389C166.651 235 162 239.672 162 245.434V263.566C162 269.328 166.651 274 172.389 274H191.611C197.349 274 202 269.328 202 263.566V245.434C202 239.672 197.349 235 191.611 235Z" fill="#FBCE0F"/>
<path d="M135.969 343.208C132.634 337.225 132.551 331.536 135.719 326.142C142.985 313.768 161.104 316.062 166.015 329.205C167.735 333.806 166.911 339.224 164.075 343.165C163.993 343.278 163.957 343.418 163.974 343.557C163.991 343.696 164.059 343.824 164.166 343.916C169.287 348.317 171.53 353.723 170.895 360.134C168.577 383.674 132.162 383.979 129.179 360.891C128.301 354.118 130.674 348.126 135.829 343.928C135.933 343.845 136.004 343.727 136.03 343.595C136.055 343.463 136.034 343.326 135.969 343.208ZM154.234 334.867C154.234 333.788 153.806 332.753 153.043 331.99C152.279 331.226 151.244 330.798 150.165 330.798C149.086 330.798 148.051 331.226 147.288 331.99C146.525 332.753 146.096 333.788 146.096 334.867C146.096 335.402 146.201 335.931 146.406 336.425C146.61 336.919 146.91 337.367 147.288 337.745C147.666 338.123 148.114 338.423 148.608 338.627C149.102 338.832 149.631 338.937 150.165 338.937C150.7 338.937 151.229 338.832 151.722 338.627C152.216 338.423 152.665 338.123 153.043 337.745C153.42 337.367 153.72 336.919 153.925 336.425C154.129 335.931 154.234 335.402 154.234 334.867ZM150.194 364.665C151.919 364.616 153.554 363.842 154.738 362.51C155.922 361.179 156.559 359.401 156.507 357.566C156.456 355.732 155.721 353.992 154.465 352.729C153.208 351.466 151.533 350.784 149.807 350.832C148.082 350.88 146.447 351.655 145.263 352.986C144.079 354.317 143.443 356.096 143.494 357.93C143.545 359.764 144.28 361.504 145.536 362.767C146.793 364.03 148.468 364.713 150.194 364.665Z" fill="#595A5C"/>
<path d="M195.443 358.335C187.463 356.939 182.06 352.575 179.233 345.241C177.204 339.967 177.694 333.284 180.596 328.362C183.944 322.675 188.727 319.324 194.946 318.307C209.684 315.904 221.509 327.948 218.541 342.962C218.141 344.992 216.97 347.747 215.027 351.226C210.322 359.655 205.686 368.046 201.119 376.401C200.568 377.42 199.78 377.982 198.599 377.988C194.597 378.009 190.565 378.003 186.502 377.97C186.325 377.968 186.155 377.898 186.028 377.774C185.901 377.65 185.825 377.481 185.817 377.303C185.789 376.64 185.937 376.03 186.26 375.474C189.519 369.846 192.64 364.258 195.625 358.712C195.738 358.498 195.677 358.372 195.443 358.335ZM198.514 345.569C200.244 345.569 201.904 344.791 203.127 343.405C204.351 342.02 205.038 340.141 205.038 338.182C205.038 336.223 204.351 334.344 203.127 332.959C201.904 331.573 200.244 330.795 198.514 330.795C196.784 330.795 195.124 331.573 193.901 332.959C192.677 334.344 191.99 336.223 191.99 338.182C191.99 340.141 192.677 342.02 193.901 343.405C195.124 344.791 196.784 345.569 198.514 345.569Z" fill="#595A5C"/>
<path d="M105.751 333.232C105.75 333.182 105.736 333.133 105.711 333.089C105.686 333.046 105.65 333.009 105.607 332.983C105.564 332.957 105.515 332.941 105.464 332.939C105.414 332.936 105.364 332.946 105.318 332.967L100.134 335.526C99.91 335.637 99.661 335.689 99.4109 335.677C99.1608 335.665 98.9177 335.589 98.7047 335.457C98.4917 335.326 98.3158 335.142 98.1935 334.924C98.0713 334.705 98.0068 334.46 98.0062 334.21L98 325.132C98.0001 324.651 98.1321 324.179 98.3817 323.768C98.6313 323.356 98.9891 323.02 99.4166 322.795C101.491 321.712 103.592 320.659 105.72 319.634C106.59 319.215 107.551 319.008 108.603 319.012C111.746 319.029 115.154 319.025 118.829 319C120.276 318.992 121 319.707 121 321.147L120.988 376.272C120.988 377.432 120.402 378.008 119.231 378L106.716 377.926C106.56 377.924 106.409 377.872 106.287 377.778C106.165 377.683 106.079 377.551 106.042 377.403C105.865 376.694 105.78 375.907 105.788 375.042C105.957 359.83 105.945 345.893 105.751 333.232Z" fill="#595A5C"/>
<path d="M240.404 334.276H227.457C226.762 334.272 226.375 333.932 226.297 333.256C225.935 330.009 225.904 326.385 226.204 322.386C226.229 322.048 226.34 321.734 226.538 321.445C226.727 321.159 226.994 321.016 227.34 321.016C241.238 321 255.479 320.996 270.064 321.004C270.523 321.006 270.965 321.179 271.299 321.487C271.632 321.796 271.833 322.216 271.859 322.664C272.04 325.862 272.047 329.19 271.878 332.646C271.856 333.086 271.662 333.5 271.337 333.804C271.012 334.107 270.58 334.276 270.131 334.276H257.196C257.036 334.276 256.882 334.338 256.769 334.449C256.655 334.56 256.592 334.71 256.592 334.867L256.586 375.889C256.581 377.285 255.868 377.985 254.444 377.989C250.807 378.005 247.24 378.003 243.743 377.983C241.151 377.965 241.324 375.841 241.324 374.139C241.303 361.436 241.299 348.444 241.312 335.163C241.312 334.571 241.009 334.276 240.404 334.276Z" fill="#FBCE0F"/>
<path d="M283.036 369.28L280.106 376.739C279.959 377.112 279.699 377.432 279.361 377.657C279.023 377.883 278.624 378.002 278.215 378L265.806 377.928C265.69 377.927 265.575 377.902 265.47 377.855C265.365 377.807 265.271 377.737 265.196 377.651C265.12 377.565 265.064 377.463 265.032 377.354C265 377.244 264.992 377.129 265.009 377.016C265.083 376.518 265.213 376.033 265.398 375.562C272.398 357.709 279.42 339.968 286.466 322.34C286.623 321.945 286.898 321.606 287.255 321.367C287.613 321.127 288.035 321 288.468 321H298.226C298.76 321 299.281 321.158 299.722 321.452C300.163 321.745 300.503 322.162 300.698 322.647C307.62 339.841 314.453 357.061 321.198 374.307C321.519 375.132 321.778 375.978 321.976 376.847C322.008 376.982 322.008 377.121 321.977 377.256C321.945 377.39 321.884 377.516 321.796 377.624C321.708 377.732 321.596 377.819 321.469 377.879C321.342 377.938 321.203 377.97 321.062 377.97L308.93 377.952C308.481 377.951 308.044 377.818 307.675 377.57C307.306 377.323 307.024 376.972 306.866 376.564L304.196 369.733C304.085 369.45 303.889 369.207 303.633 369.034C303.377 368.862 303.074 368.769 302.762 368.767L283.845 368.737C283.671 368.737 283.5 368.789 283.355 368.886C283.211 368.983 283.099 369.12 283.036 369.28ZM287.733 356.108C287.719 356.148 287.715 356.192 287.722 356.234C287.729 356.277 287.746 356.317 287.772 356.352C287.798 356.387 287.832 356.415 287.871 356.434C287.911 356.454 287.954 356.464 287.998 356.464L299.085 356.445C299.129 356.445 299.172 356.434 299.21 356.414C299.249 356.394 299.282 356.366 299.307 356.331C299.332 356.297 299.349 356.257 299.356 356.215C299.362 356.173 299.358 356.13 299.345 356.089L293.777 339.96C293.759 339.904 293.724 339.856 293.676 339.821C293.628 339.787 293.57 339.768 293.511 339.768C293.451 339.768 293.394 339.787 293.346 339.821C293.298 339.856 293.263 339.904 293.245 339.96L287.733 356.108Z" fill="#FBCE0F"/>
<path d="M350.927 335.934C351.065 336.05 351.187 336.036 351.292 335.892C354.323 331.627 357.33 327.177 360.312 322.542C360.957 321.533 361.874 321.026 363.063 321.022C367.603 320.998 372.159 320.994 376.732 321.01C376.847 321.01 376.96 321.041 377.059 321.099C377.158 321.157 377.24 321.239 377.296 321.338C377.352 321.437 377.38 321.549 377.377 321.662C377.374 321.775 377.341 321.886 377.28 321.981C376.505 323.224 375.766 324.367 375.065 325.409C369.981 333.009 364.834 340.615 359.624 348.227C359.528 348.366 359.473 348.529 359.467 348.698C359.46 348.867 359.502 349.034 359.588 349.18C360.152 350.146 360.724 351.053 361.304 351.902C366.915 360.113 372.383 368.222 377.706 376.228C377.953 376.603 378.045 376.981 377.98 377.363C377.952 377.535 377.863 377.692 377.729 377.806C377.594 377.919 377.422 377.983 377.243 377.984C373.036 378.009 368.638 378.005 364.049 377.972C362.945 377.964 362.073 377.496 361.432 376.566C358.048 371.682 354.729 366.806 351.475 361.938C351.42 361.857 351.347 361.791 351.261 361.745C351.175 361.699 351.078 361.675 350.981 361.674C350.884 361.673 350.788 361.697 350.702 361.742C350.616 361.786 350.543 361.852 350.489 361.932C347.203 366.784 343.983 371.59 340.831 376.349C340.129 377.411 339.191 377.946 338.019 377.954C333.475 377.986 328.999 377.989 324.593 377.96C324.22 377.956 324.023 377.771 324.003 377.405C323.974 376.866 324.171 376.279 324.593 375.643C330.46 366.913 336.372 358.126 342.328 349.283C342.427 349.138 342.48 348.967 342.48 348.792C342.48 348.617 342.427 348.445 342.328 348.299C336.554 339.762 330.795 331.192 325.05 322.591C324.891 322.353 324.763 322.104 324.666 321.842C324.632 321.749 324.621 321.649 324.634 321.551C324.647 321.453 324.683 321.359 324.741 321.278C324.798 321.197 324.874 321.131 324.963 321.085C325.052 321.039 325.15 321.016 325.25 321.016L339.583 321.01C339.916 321.009 340.244 321.091 340.537 321.247C340.83 321.403 341.079 321.628 341.263 321.903C343.876 325.833 346.625 329.979 349.509 334.341C349.919 334.964 350.392 335.495 350.927 335.934Z" fill="#FBCE0F"/>
<path d="M399.456 321H387.544C386.691 321 386 321.687 386 322.534V376.466C386 377.313 386.691 378 387.544 378H399.456C400.309 378 401 377.313 401 376.466V322.534C401 321.687 400.309 321 399.456 321Z" fill="#FBCE0F"/>
</svg>
