<svg width="500" height="500" viewBox="0 0 500 500" fill="none" xmlns="http://www.w3.org/2000/svg">
<rect width="500" height="500" fill="#F0F0F0"/>
<g clip-path="url(#clip0_9148_487)">
<mask id="mask0_9148_487" style="mask-type:luminance" maskUnits="userSpaceOnUse" x="75" y="212" width="350" height="75">
<path d="M425 212H75V287H425V212Z" fill="white"/>
</mask>
<g mask="url(#mask0_9148_487)">
<path d="M100.898 239.614L93.2875 255.736H116.649L108.827 239.288C108.14 237.817 107.452 236.401 106.818 235.039C106.184 233.678 105.55 232.207 104.862 230.627C104.228 232.261 103.541 233.786 102.907 235.257C102.273 236.673 101.586 238.144 100.898 239.614ZM75 276.325L100.476 222.566H109.884L135.254 276.325H126.374L120.402 263.743H89.482L83.5095 276.325H75Z" fill="#B78E5D"/>
<path d="M181.713 230.573H163.742V268.372H181.713C186.681 268.372 190.698 267.501 193.816 265.813C196.882 264.07 199.154 261.782 200.634 258.95C202.114 256.063 202.854 252.904 202.854 249.473C202.854 246.096 202.114 242.991 200.634 240.104C199.154 237.218 196.882 234.93 193.816 233.187C190.698 231.444 186.681 230.573 181.713 230.573ZM155.656 276.325V222.566H182.03C186.786 222.566 191.015 223.274 194.662 224.691C198.309 226.107 201.374 228.067 203.858 230.573C206.343 233.078 208.192 235.911 209.461 239.124C210.677 242.338 211.311 245.769 211.311 249.418C211.311 254.32 210.201 258.841 207.981 262.926C205.761 267.011 202.484 270.224 198.15 272.675C193.816 275.126 188.425 276.325 182.03 276.325H155.656Z" fill="#B78E5D"/>
<path d="M321.407 248.547H341.595C343.5 248.547 345.243 248.111 346.882 247.24C348.52 246.368 349.789 245.224 350.741 243.808C351.691 242.392 352.166 240.812 352.166 239.124C352.166 237.545 351.691 236.074 350.741 234.821C349.789 233.569 348.468 232.534 346.882 231.771C345.243 231.009 343.5 230.627 341.595 230.627H321.407V248.547ZM313.373 276.325V222.566H343.868C346.934 222.566 349.789 223.274 352.325 224.745C354.864 226.216 356.925 228.176 358.457 230.682C359.989 233.187 360.782 235.965 360.782 239.07C360.782 241.63 360.254 243.972 359.198 246.15C358.139 248.329 356.659 250.235 354.809 251.815C352.959 253.449 350.898 254.647 348.573 255.464L363.848 276.379L353.805 276.325L339.323 256.499H321.407V276.325H313.373Z" fill="#B78E5D"/>
<path d="M381.659 276.325V222.566H425V230.573H389.745V244.789H420.877V252.741H389.745V268.372H425V276.325H381.659Z" fill="#B78E5D"/>
<path d="M286.734 250.78H265.063L271.142 257.044H286.734H286.786C289.958 257.044 292.495 259.658 292.495 262.926C292.495 265.704 290.645 268.046 288.108 268.645V274.963C293.922 274.201 298.362 269.081 298.362 262.926C298.362 256.227 293.182 250.835 286.734 250.78ZM270.507 230.246H279.81V223.983H270.507V230.246ZM292.495 236.128C292.495 239.397 289.958 242.011 286.786 242.011H286.734H271.142L265.063 248.274H286.734C293.182 248.22 298.362 242.773 298.362 236.128C298.362 229.974 293.869 224.854 288.108 224.091V230.41C290.592 231.009 292.495 233.351 292.495 236.128ZM244.503 275.017H253.806V268.754H244.503V275.017ZM231.818 262.872C231.818 259.603 234.355 256.989 237.526 256.989H237.579H253.171L259.25 250.726H237.579C231.131 250.78 225.951 256.227 225.951 262.872C225.951 269.026 230.444 274.146 236.205 274.909V268.59C233.721 267.991 231.818 265.649 231.818 262.872ZM237.579 248.274H259.25L253.171 242.011H237.579H237.526C234.355 242.011 231.818 239.397 231.818 236.128C231.818 233.351 233.668 231.009 236.205 230.41V224.091C230.391 224.854 225.951 229.974 225.951 236.128C225.951 242.773 231.131 248.165 237.579 248.274ZM260.941 223.983C260.888 217.338 255.603 212 249.154 212C242.706 212 237.474 217.338 237.368 223.983V240.813H243.446V223.983V223.928C243.446 223.057 243.658 222.24 243.975 221.532C244.873 219.516 246.882 218.1 249.154 218.1C252.326 218.1 254.863 220.715 254.863 223.983V224.037V240.268L260.941 246.532V223.983ZM244.609 230.246H253.753V223.983H244.609V230.246ZM263.372 223.983C263.425 217.338 268.711 212 275.159 212C281.607 212 286.839 217.338 286.945 223.983V240.813H280.867V223.983V223.928C280.867 223.057 280.656 222.24 280.338 221.532C279.44 219.516 277.431 218.1 275.159 218.1C271.987 218.1 269.45 220.715 269.45 223.983V224.037V240.268L263.372 246.532V223.983ZM260.941 275.017C260.888 281.662 255.603 287 249.154 287C242.706 287 237.474 281.662 237.368 275.017V258.187H243.446V275.017V275.072C243.446 275.943 243.658 276.76 243.975 277.468C244.873 279.484 246.882 280.9 249.154 280.9C252.326 280.9 254.863 278.285 254.863 275.017V274.963V258.841L260.941 252.577V275.017ZM263.372 275.017C263.425 281.662 268.711 287 275.159 287C281.607 287 286.839 281.662 286.945 275.017V258.187H280.867V275.017V275.072C280.867 275.943 280.656 276.76 280.338 277.468C279.44 279.484 277.431 280.9 275.159 280.9C271.987 280.9 269.45 278.285 269.45 275.017V274.963V258.841L263.372 252.577V275.017ZM270.507 275.017H279.81V268.754H270.507V275.017Z" fill="#BE9157"/>
</g>
</g>
<defs>
<clipPath id="clip0_9148_487">
<rect width="350" height="75" fill="white" transform="translate(75 212)"/>
</clipPath>
</defs>
</svg>
