<svg width="500" height="500" viewBox="0 0 500 500" fill="none" xmlns="http://www.w3.org/2000/svg">
<rect width="500" height="500" fill="#F0F0F0"/>
<path fill-rule="evenodd" clip-rule="evenodd" d="M90.65 297.317L149.087 214.87C149.087 214.87 155.205 205.902 159.686 204.271C164.633 202.461 170.054 202.415 175.031 204.142C180.196 206.039 182.368 209.711 185.896 213.78C189.424 217.849 226.514 271.778 226.514 271.778H277.578C268.848 288.854 266.554 297.512 245.899 297.36L209.105 297.043L170.01 238.641C170.01 238.641 168.242 234.428 164.959 238.367C163.235 240.445 151.894 256.8 141.57 271.778H177.643C169.245 288.277 166.258 297.317 145.899 297.317H90.65Z" fill="black"/>
<path fill-rule="evenodd" clip-rule="evenodd" d="M189.142 202.28L232.321 264.491L282.029 264.217L299.416 233.519L329.573 288.667C336.196 299.799 349.773 301.364 357.074 289.251L410 201.811L379.814 201.674L341.058 261.028L313.347 208.362C313.347 208.362 309.956 202.93 301.941 202.114C293.926 201.299 289.85 203.204 286.589 207.28C283.328 211.356 257.796 260.249 257.796 260.249L217.885 201.559L189.142 202.28Z" fill="#B3A958"/>
</svg>
