<svg width="500" height="500" viewBox="0 0 500 500" fill="none" xmlns="http://www.w3.org/2000/svg">
<rect width="500" height="500" fill="#E5E5E5"/>
<path fill-rule="evenodd" clip-rule="evenodd" d="M0 0H500V500H0V0Z" fill="#FCB900"/>
<path fill-rule="evenodd" clip-rule="evenodd" d="M232.364 121.748L241.107 136.891L242.119 138.643L243.818 139.213V139.491L242.119 140.06L241.108 141.811L228.365 163.882L228.156 164.243L232.417 166.703L232.627 166.342L245.448 144.133L248.737 143.031V141.811V136.891V135.672L245.448 134.57L238.045 121.748L232.627 112.361L232.417 112L228.156 114.46L228.365 114.821L232.364 121.748ZM267.374 166.342L267.583 166.703L271.844 164.243L271.635 163.882L258.892 141.812L257.881 140.06L256.182 139.491V139.212L257.881 138.643L258.892 136.891L267.636 121.748L271.635 114.821L271.844 114.46L267.583 112L267.374 112.361L261.955 121.748L254.552 134.57L251.262 135.672V136.891V141.812V143.031L254.552 144.133L267.374 166.342ZM344.772 308.165L350.879 249.817L296.242 197.963L353.849 236.111C359.662 239.961 363.327 246.155 363.902 253.104L369.401 319.524L344.772 308.165ZM331.69 302.132C326.727 299.842 322.761 295.836 320.524 290.85L318.519 286.377L332.411 255.809L292.259 200.963L345.734 251.716L340.053 305.989L331.69 302.132ZM280.867 244.988L249.689 268.038L219.025 245.37C221.913 235.251 224.287 225.085 226.174 214.766L249.769 232.209L273.772 214.464C275.645 224.758 278 234.897 280.867 244.988ZM293.521 281.462C276.438 293.244 261.507 314.928 252.46 340.749V287.85C254.333 286.937 255.627 285.019 255.627 282.795C255.627 279.687 253.108 277.168 250 277.168C246.893 277.168 244.373 279.687 244.373 282.795C244.373 285.019 245.667 286.937 247.54 287.85V340.749C238.493 314.928 223.562 293.243 206.479 281.462C210.734 271.06 214.415 260.743 217.548 250.396L249.689 274.156L282.337 250.02C285.495 260.494 289.214 270.935 293.521 281.462V281.462ZM298.968 294.14C279.471 308.011 262.53 333.211 252.46 363.034V357.67L254.185 351.581C262.244 323.149 277.597 298.845 295.458 286.108C296.591 288.779 297.759 291.454 298.968 294.14V294.14ZM247.54 363.034C237.47 333.212 220.528 308.011 201.031 294.14C202.242 291.454 203.409 288.779 204.542 286.108C222.403 298.845 237.756 323.149 245.815 351.581L247.54 357.67V363.034ZM179.475 290.85C177.238 295.836 173.273 299.842 168.31 302.132L159.946 305.989L154.266 251.716L207.743 200.963L167.59 255.809L181.481 286.377L179.475 290.85ZM130.599 319.524L136.097 253.104C136.673 246.155 140.338 239.961 146.151 236.111L203.758 197.963L149.121 249.817L155.228 308.165L130.599 319.524ZM356.565 232.008L280.504 181.639L279.987 182.535L279.448 183.466L278.039 185.908L277.457 186.916L276.761 188.123L326.741 256.393L315.834 280.393L275.457 190.381L275.279 190.688L272.422 195.636L271.694 196.897H271.065C271.584 200.976 272.171 205.023 272.832 209.042L249.769 226.091L227.117 209.345C227.798 205.227 228.403 201.079 228.935 196.897H228.306L227.579 195.636L224.721 190.688L224.543 190.381L184.166 280.393L173.26 256.393L223.239 188.123L222.543 186.916L221.961 185.908L220.553 183.467L220.014 182.535L219.497 181.639L143.435 232.008C136.356 236.696 131.896 244.237 131.195 252.698L125 327.524L170.371 306.599C176.413 303.813 181.24 298.935 183.963 292.862L222.53 206.892C217.779 236.532 209.073 264.701 195.705 293.972L194.838 295.872L196.57 297.035C217.761 311.279 236.074 339.756 245.555 373.209L250.001 388.894L254.445 373.209C263.927 339.756 282.238 311.279 303.43 297.035L305.162 295.872L304.295 293.972C290.928 264.702 282.221 236.533 277.472 206.892L316.037 292.862C318.76 298.935 323.587 303.813 329.629 306.599L375 327.524L368.806 252.698C368.105 244.237 363.644 236.696 356.565 232.008V232.008ZM222.836 179.856L222.994 180.131L225.121 183.815L225.366 184.238L225.37 184.245L225.682 184.787L226.454 186.123L229.488 191.378L229.577 191.53L232.675 196.897L232.677 196.901H267.323L267.326 196.897L270.424 191.53L270.512 191.378L273.547 186.123L274.318 184.786L274.631 184.245L274.635 184.238L274.88 183.815L277.006 180.13L277.165 179.856L277.344 179.546L284.648 166.897L267.324 136.891H261.173L259.752 139.351L261.173 141.812H264.484L278.966 166.897L273.612 176.169L271.063 180.586L269.589 183.14L268.029 185.841L264.484 191.982H235.518L231.972 185.841L230.413 183.14L228.939 180.586L226.39 176.171L221.035 166.897L235.518 141.812H238.828L240.248 139.351L238.828 136.891H232.678L215.354 166.897L222.658 179.546L222.836 179.856Z" fill="#00357A"/>
</svg>
