<svg width="500" height="500" viewBox="0 0 500 500" fill="none" xmlns="http://www.w3.org/2000/svg">
<rect width="500" height="500" fill="#F0F0F0"/>
<path fill-rule="evenodd" clip-rule="evenodd" d="M0 0H500V500H0V0Z" fill="#F0F0F0"/>
<path fill-rule="evenodd" clip-rule="evenodd" d="M117.193 267.994H114.806L110.557 280.646H112.936L117.193 267.994ZM125.204 267.994H121.709L117.46 280.646H120.955L125.204 267.994ZM134 267.994H129.461L125.212 280.646H129.751L134 267.994ZM142.796 267.994H137.636L133.388 280.646H138.547L142.796 267.994ZM151.592 267.994H145.82L141.571 280.646H147.344L151.592 267.994ZM167.166 267.994H153.996L149.747 280.646H163.656L167.166 267.994Z" fill="#EE2426"/>
<path d="M124.418 291.406V309.634H121.159V298.018L117.955 300.469L115.3 302.527L112.646 300.469L109.441 298.018V309.634H106.19V291.406L109.441 293.903L115.3 298.411L121.159 293.903L124.418 291.406Z" fill="#162A35"/>
<path d="M179.261 300.524C179.261 305.55 175.169 309.642 170.143 309.642C165.117 309.642 161.025 305.55 161.025 300.524C161.025 295.497 165.117 291.406 170.143 291.406C175.169 291.406 179.261 295.497 179.261 300.524ZM176.002 300.524C176.002 297.296 173.371 294.665 170.143 294.665C166.915 294.665 164.284 297.296 164.284 300.524C164.284 303.752 166.915 306.383 170.143 306.383C173.371 306.383 176.002 303.752 176.002 300.524Z" fill="#162A35"/>
<path d="M232.352 291.429V294.681H224.875V309.658H221.616V294.681H214.139V291.429H232.352Z" fill="#162A35"/>
<path d="M285.498 300.524C285.498 305.55 281.407 309.642 276.38 309.642C271.354 309.642 267.262 305.55 267.262 300.524C267.262 295.497 271.354 291.406 276.38 291.406C281.414 291.406 285.498 295.497 285.498 300.524ZM282.247 300.524C282.247 297.296 279.616 294.665 276.388 294.665C273.16 294.665 270.529 297.296 270.529 300.524C270.529 303.752 273.16 306.383 276.388 306.383C279.616 306.383 282.247 303.752 282.247 300.524Z" fill="#162A35"/>
<path d="M336.822 306.438L338.487 309.689H334.843L333.178 306.438L331.434 303.029L331.356 302.872C330.783 301.938 329.769 301.309 328.591 301.309H325.34V309.697H322.081V291.469H333.594C334.945 291.469 336.17 292.018 337.058 292.898C337.945 293.785 338.487 295.011 338.487 296.361C338.487 298.341 337.317 300.06 335.621 300.838C335.181 301.05 334.709 301.176 334.215 301.231L336.822 306.438ZM333.594 298.05C333.83 298.05 334.065 297.995 334.27 297.893C334.867 297.634 335.259 297.037 335.259 296.385C335.259 295.788 334.945 295.372 334.764 295.183C334.552 294.971 334.168 294.712 333.594 294.712H325.34V298.073L333.594 298.05Z" fill="#162A35"/>
<path d="M389.733 296.456V296.353C389.733 295.442 388.979 294.688 388.068 294.688H380.67C379.759 294.688 379.005 295.442 379.005 296.353V296.456C379.005 297.367 379.759 298.121 380.67 298.121H387.236C388.924 298.121 390.44 298.851 391.477 299.998C391.555 300.076 391.61 300.155 391.689 300.233C392.498 301.223 392.992 302.503 392.992 303.877C392.992 307.058 390.416 309.634 387.236 309.634H381.534C378.353 309.634 375.777 307.058 375.777 303.877H379.036C379.036 305.26 380.159 306.375 381.534 306.375H387.236C388.618 306.375 389.764 305.252 389.764 303.877C389.764 302.503 388.618 301.38 387.236 301.38H380.67C379.343 301.38 378.141 300.862 377.261 299.998C377.026 299.762 376.822 299.503 376.633 299.22C376.083 298.435 375.777 297.477 375.777 296.432V296.33C375.777 293.62 377.968 291.406 380.678 291.406H388.076C390.785 291.406 393 293.62 393 296.33V296.432L389.733 296.456Z" fill="#162A35"/>
<path d="M262.039 214.714V214.196C262.039 209.633 258.262 205.855 253.699 205.855H216.692C212.129 205.855 208.351 209.633 208.351 214.196V214.714C208.351 219.277 212.129 223.055 216.692 223.055H249.528C258.002 223.055 265.558 226.707 270.773 232.44C271.165 232.833 271.424 233.225 271.817 233.61C275.854 238.558 278.336 244.951 278.336 251.854C278.336 267.75 265.432 280.654 249.536 280.654H220.996C205.1 280.654 192.196 267.75 192.196 251.854H208.485C208.485 258.758 214.084 264.365 220.996 264.365H249.536C256.439 264.365 262.181 258.758 262.181 251.854C262.181 244.951 256.447 239.343 249.536 239.343H216.7C210.055 239.343 204.063 236.736 199.626 232.44C198.455 231.27 197.411 229.966 196.5 228.529C193.767 224.618 192.196 219.795 192.196 214.588V214.07C192.196 200.515 203.144 189.441 216.692 189.441H253.699C267.254 189.441 278.328 200.515 278.328 214.07V214.588L262.039 214.714Z" fill="#162A35"/>
<path d="M283.535 280.646V189.433H299.823V280.646H283.535Z" fill="#162A35"/>
<path d="M190.892 264.365L152.715 189.433L120.24 253.166H138.484L152.715 225.27L172.648 264.365L180.989 280.646H199.233L190.892 264.365Z" fill="#162A35"/>
<path d="M346.467 189.433L308.29 264.365L299.949 280.646H318.193L326.534 264.365L346.467 225.27L360.698 253.166H378.942L346.467 189.433Z" fill="#162A35"/>
<path d="M374.748 280.646H392.992L386.529 267.994H368.277L374.748 280.646Z" fill="#EE2426"/>
</svg>
