<svg width="500" height="500" viewBox="0 0 500 500" fill="none" xmlns="http://www.w3.org/2000/svg">
<rect width="500" height="500" fill="#22253B"/>
<path d="M195.342 268.268L181.805 268.121V266.055C181.807 265.225 181.63 264.403 181.282 263.638C180.934 262.873 180.424 262.179 179.78 261.599C179.141 261.014 178.381 260.552 177.545 260.242C176.709 259.932 175.814 259.78 174.912 259.794C173.151 259.813 171.468 260.464 170.219 261.608C168.97 262.752 168.255 264.299 168.225 265.921V265.991C168.204 266.817 168.362 267.639 168.69 268.408C169.018 269.178 169.509 269.879 170.135 270.471C170.757 271.067 171.503 271.542 172.327 271.869C173.151 272.196 174.038 272.368 174.935 272.375L177.092 272.399V284.556C177.09 285.378 177.264 286.192 177.606 286.951C177.947 287.71 178.448 288.399 179.081 288.979L186.562 295.87L189.896 292.798L182.421 285.921C182.229 285.744 182.077 285.533 181.973 285.3C181.87 285.068 181.817 284.82 181.818 284.569V272.462L195.3 272.61C195.842 272.613 196.361 272.812 196.744 273.165L200.787 276.889L193.755 283.366L197.088 286.436L207.454 276.889L200.077 270.095C198.826 268.937 197.13 268.279 195.356 268.264M177.104 266.056V268.065L174.994 268.042C174.72 268.039 174.449 267.987 174.197 267.887C173.945 267.787 173.717 267.642 173.527 267.46C173.335 267.278 173.185 267.063 173.085 266.827C172.985 266.592 172.937 266.34 172.944 266.087V266.016C172.952 265.522 173.168 265.051 173.547 264.702C173.929 264.351 174.446 264.152 174.986 264.147C175.262 264.143 175.536 264.19 175.792 264.285C176.047 264.381 176.279 264.522 176.474 264.702C176.671 264.88 176.827 265.091 176.934 265.325C177.04 265.559 177.095 265.811 177.094 266.064" fill="#D3B47A"/>
<path d="M198.348 238.064L188.662 246.777L187.081 245.321C186.446 244.732 185.69 244.267 184.857 243.952C184.024 243.637 183.13 243.479 182.23 243.488C181.329 243.492 180.438 243.662 179.609 243.988C178.781 244.314 178.031 244.79 177.406 245.387C176.175 246.548 175.484 248.105 175.48 249.727C175.475 251.349 176.157 252.909 177.382 254.075L177.436 254.125C178.055 254.723 178.797 255.202 179.62 255.532C180.442 255.863 181.328 256.039 182.225 256.05C183.122 256.066 184.014 255.917 184.847 255.611C185.681 255.306 186.44 254.85 187.079 254.271L188.623 252.882L197.958 261.48C198.587 262.062 199.335 262.524 200.159 262.838C200.984 263.153 201.867 263.314 202.759 263.311H213.337V258.974H202.759C202.487 258.975 202.217 258.926 201.965 258.831C201.713 258.736 201.484 258.595 201.291 258.418L191.997 249.857L201.645 241.18C202.033 240.83 202.554 240.635 203.097 240.636H208.813V249.8H213.527V236.297H203.097C201.323 236.293 199.618 236.932 198.351 238.077M183.751 248.403L185.286 249.81L183.778 251.162C183.583 251.339 183.351 251.479 183.096 251.572C182.841 251.666 182.569 251.711 182.295 251.706C182.02 251.703 181.748 251.649 181.496 251.548C181.244 251.447 181.016 251.3 180.826 251.116L180.774 251.065C180.401 250.71 180.193 250.235 180.193 249.742C180.193 249.244 180.405 248.765 180.783 248.409C180.974 248.226 181.203 248.081 181.456 247.981C181.709 247.882 181.982 247.83 182.257 247.828C182.532 247.825 182.805 247.873 183.059 247.968C183.314 248.064 183.546 248.205 183.74 248.384" fill="#D3B47A"/>
<path d="M177.295 214.751L177.136 227.22H174.898C173.998 227.217 173.106 227.381 172.275 227.701C171.445 228.022 170.692 228.492 170.062 229.085C169.427 229.673 168.926 230.373 168.589 231.143C168.253 231.914 168.087 232.738 168.103 233.568C168.123 235.19 168.83 236.741 170.072 237.891C171.314 239.041 172.994 239.7 174.755 239.727H174.831C175.728 239.747 176.62 239.601 177.455 239.299C178.291 238.997 179.052 238.545 179.695 237.968C180.342 237.395 180.858 236.709 181.213 235.95C181.568 235.191 181.755 234.375 181.764 233.549L181.788 231.56H194.988C195.88 231.562 196.763 231.402 197.587 231.087C198.412 230.773 199.16 230.311 199.789 229.729L207.271 222.839L203.936 219.768L196.456 226.658C196.263 226.835 196.034 226.975 195.782 227.07C195.53 227.166 195.26 227.214 194.988 227.213H181.844L182.003 214.796C182.007 214.296 182.223 213.819 182.606 213.465L186.65 209.741L193.682 216.219L197.017 213.149L186.65 203.602L179.273 210.395C178.018 211.552 177.308 213.116 177.295 214.751ZM174.898 231.562H177.08L177.056 233.499C177.053 233.751 176.995 234.001 176.887 234.233C176.778 234.465 176.62 234.674 176.423 234.85C176.225 235.026 175.992 235.165 175.736 235.257C175.48 235.349 175.206 235.393 174.932 235.387H174.855C174.319 235.379 173.808 235.18 173.429 234.832C173.047 234.479 172.831 234.003 172.826 233.506C172.821 233.252 172.872 232.999 172.976 232.764C173.08 232.529 173.234 232.315 173.429 232.135C173.621 231.954 173.851 231.81 174.105 231.712C174.359 231.614 174.632 231.564 174.907 231.564" fill="#D3B47A"/>
<path d="M144.496 211.981L153.954 220.902L152.375 222.358C151.735 222.943 151.23 223.64 150.888 224.408C150.546 225.175 150.375 225.998 150.385 226.828C150.389 227.658 150.573 228.478 150.927 229.242C151.281 230.005 151.797 230.695 152.445 231.271C153.706 232.405 155.396 233.041 157.158 233.045C158.919 233.05 160.613 232.421 161.879 231.293L161.934 231.245C162.585 230.675 163.105 229.99 163.465 229.232C163.825 228.474 164.017 227.658 164.029 226.831C164.047 226.004 163.885 225.183 163.553 224.416C163.221 223.648 162.726 222.949 162.097 222.36L160.589 220.938L169.922 212.34C170.555 211.761 171.057 211.072 171.398 210.313C171.74 209.554 171.914 208.74 171.912 207.918V198.175H167.195V207.918C167.196 208.169 167.144 208.418 167.04 208.65C166.937 208.882 166.784 209.093 166.592 209.27L157.298 217.83L147.878 208.944C147.498 208.588 147.285 208.108 147.287 207.608V202.34H157.236V198H142.576V207.608C142.572 209.242 143.266 210.812 144.508 211.978M155.72 225.426L157.26 224.005L158.73 225.394C158.923 225.574 159.074 225.788 159.176 226.023C159.277 226.257 159.327 226.509 159.321 226.761C159.318 227.015 159.259 227.265 159.149 227.497C159.038 227.729 158.879 227.938 158.679 228.112L158.625 228.161C158.239 228.504 157.724 228.695 157.188 228.695C156.647 228.696 156.128 228.501 155.741 228.153C155.543 227.976 155.385 227.765 155.277 227.532C155.169 227.299 155.112 227.048 155.111 226.795C155.108 226.541 155.159 226.29 155.263 226.056C155.366 225.821 155.52 225.608 155.714 225.428" fill="#D3B47A"/>
<path d="M119.182 231.381L132.72 231.529V233.589C132.717 234.419 132.895 235.24 133.243 236.006C133.591 236.771 134.101 237.464 134.745 238.045C135.384 238.628 136.144 239.088 136.979 239.397C137.814 239.705 138.708 239.857 139.608 239.843C141.369 239.824 143.053 239.174 144.302 238.03C145.551 236.885 146.266 235.338 146.295 233.715V233.646C146.317 232.82 146.159 231.998 145.831 231.228C145.503 230.459 145.011 229.757 144.385 229.165C143.763 228.57 143.018 228.095 142.194 227.768C141.37 227.441 140.484 227.269 139.587 227.262L137.428 227.238V215.08C137.431 214.259 137.258 213.445 136.918 212.686C136.578 211.926 136.077 211.237 135.446 210.657L127.965 203.766L124.631 206.837L132.112 213.727C132.305 213.904 132.457 214.115 132.56 214.347C132.664 214.58 132.717 214.828 132.715 215.079V227.185L119.234 227.038C118.692 227.035 118.173 226.836 117.789 226.483L113.746 222.759L120.78 216.282L117.446 213.212L107.08 222.759L114.456 229.553C115.708 230.711 117.404 231.369 119.178 231.384M137.429 233.592V231.583L139.54 231.606C139.814 231.608 140.085 231.661 140.337 231.761C140.589 231.861 140.817 232.006 141.007 232.188C141.198 232.37 141.349 232.585 141.449 232.821C141.549 233.056 141.597 233.308 141.59 233.561V233.632C141.582 234.125 141.366 234.597 140.987 234.946C140.605 235.297 140.088 235.497 139.547 235.501C139.272 235.505 138.998 235.458 138.742 235.363C138.487 235.267 138.255 235.125 138.06 234.946C137.863 234.768 137.706 234.556 137.6 234.322C137.493 234.088 137.439 233.837 137.44 233.584" fill="#D3B47A"/>
<path d="M116.176 261.583L125.862 252.87L127.443 254.327C128.078 254.915 128.835 255.38 129.668 255.695C130.502 256.01 131.395 256.168 132.296 256.16C133.197 256.156 134.088 255.986 134.917 255.659C135.745 255.333 136.495 254.857 137.12 254.26C138.351 253.1 139.042 251.543 139.046 249.921C139.051 248.298 138.368 246.738 137.144 245.572L137.091 245.521C136.472 244.923 135.73 244.445 134.907 244.115C134.085 243.784 133.199 243.609 132.302 243.598C131.405 243.582 130.513 243.731 129.679 244.036C128.846 244.341 128.086 244.797 127.446 245.376L125.903 246.765L116.568 238.167C115.939 237.585 115.191 237.123 114.367 236.808C113.543 236.494 112.659 236.333 111.767 236.336H101.188V240.678H111.767C112.039 240.676 112.309 240.725 112.561 240.82C112.813 240.915 113.042 241.056 113.235 241.233L122.529 249.795L112.881 258.471C112.494 258.822 111.972 259.017 111.429 259.016H105.712V249.852H101V263.355H111.431C113.205 263.358 114.909 262.719 116.176 261.575M130.776 251.248L129.234 249.828L130.742 248.474C130.938 248.297 131.17 248.158 131.425 248.065C131.68 247.972 131.952 247.926 132.227 247.931C132.502 247.935 132.773 247.989 133.025 248.09C133.277 248.191 133.504 248.338 133.694 248.521L133.746 248.573C134.119 248.928 134.328 249.402 134.328 249.896C134.328 250.394 134.116 250.872 133.737 251.228C133.546 251.411 133.317 251.556 133.064 251.656C132.811 251.756 132.538 251.807 132.263 251.808C131.988 251.811 131.715 251.764 131.46 251.669C131.205 251.573 130.974 251.432 130.779 251.253" fill="#D3B47A"/>
<path d="M137.237 284.896L137.397 272.427H139.633C140.534 272.43 141.426 272.266 142.256 271.946C143.087 271.625 143.84 271.155 144.47 270.563C145.104 269.973 145.604 269.273 145.939 268.503C146.274 267.733 146.439 266.909 146.423 266.079C146.403 264.457 145.696 262.906 144.454 261.755C143.212 260.605 141.531 259.947 139.77 259.92H139.695C138.798 259.9 137.905 260.046 137.07 260.348C136.234 260.65 135.473 261.102 134.83 261.679C134.183 262.252 133.667 262.938 133.312 263.697C132.958 264.457 132.771 265.273 132.763 266.1L132.737 268.087H119.538C118.646 268.085 117.762 268.245 116.938 268.56C116.114 268.874 115.365 269.336 114.736 269.918L107.254 276.808L110.589 279.879L118.069 272.99C118.262 272.812 118.491 272.672 118.743 272.577C118.995 272.482 119.265 272.433 119.538 272.434H132.682L132.531 284.852C132.527 285.35 132.31 285.828 131.928 286.182L127.885 289.906L120.852 283.428L117.519 286.498L127.885 296.047L135.261 289.252C136.518 288.099 137.233 286.537 137.251 284.903M139.646 268.092H137.451L137.477 266.148C137.479 265.896 137.536 265.646 137.645 265.414C137.753 265.182 137.911 264.973 138.109 264.797C138.306 264.621 138.539 264.483 138.795 264.39C139.051 264.298 139.325 264.254 139.6 264.26H139.677C140.213 264.268 140.724 264.467 141.104 264.816C141.485 265.168 141.702 265.644 141.707 266.142C141.712 266.396 141.66 266.648 141.557 266.883C141.453 267.119 141.299 267.332 141.104 267.512C140.912 267.693 140.682 267.837 140.428 267.935C140.174 268.033 139.901 268.083 139.625 268.083" fill="#D3B47A"/>
<path d="M170.029 287.669L160.57 278.748L162.151 277.291C162.79 276.706 163.295 276.01 163.637 275.242C163.979 274.475 164.15 273.652 164.141 272.823C164.137 271.993 163.952 271.172 163.598 270.409C163.243 269.646 162.727 268.956 162.079 268.38C160.819 267.246 159.129 266.61 157.367 266.605C155.606 266.601 153.912 267.23 152.646 268.357L152.592 268.406C151.942 268.976 151.423 269.661 151.064 270.418C150.705 271.176 150.514 271.992 150.502 272.819C150.485 273.645 150.647 274.466 150.979 275.233C151.31 276.001 151.805 276.7 152.434 277.29L153.941 278.711L144.606 287.309C143.975 287.889 143.475 288.578 143.134 289.337C142.794 290.096 142.62 290.91 142.623 291.731V301.476H147.337V291.731C147.335 291.48 147.387 291.232 147.491 290.999C147.594 290.767 147.747 290.556 147.94 290.379L157.233 281.819L166.654 290.705C167.034 291.062 167.246 291.542 167.245 292.042V297.308H157.295V301.649H171.956V292.042C171.96 290.408 171.266 288.838 170.023 287.671M158.812 274.224L157.276 275.639L155.806 274.25C155.614 274.07 155.463 273.857 155.361 273.622C155.26 273.387 155.211 273.136 155.216 272.884C155.22 272.631 155.278 272.38 155.388 272.148C155.498 271.916 155.658 271.706 155.857 271.532L155.913 271.483C156.298 271.14 156.813 270.948 157.35 270.948C157.89 270.948 158.409 271.143 158.795 271.491C158.994 271.667 159.152 271.878 159.26 272.111C159.368 272.345 159.425 272.596 159.425 272.849C159.429 273.103 159.378 273.354 159.274 273.589C159.171 273.823 159.017 274.036 158.822 274.215" fill="#D3B47A"/>
<path d="M244.431 247.217V247.759H238.161V247.217C238.741 247.228 239.314 247.104 239.827 246.856C240.199 246.712 240.509 246.458 240.709 246.134L251.365 222.32H252.541L262.729 244.696C262.82 244.937 262.991 245.146 263.219 245.292C263.4 245.396 263.609 245.452 263.822 245.454C264.264 245.439 264.692 245.308 265.055 245.075C265.43 244.864 265.778 244.615 266.094 244.335C266.098 244.849 265.95 245.355 265.664 245.797C265.371 246.247 264.977 246.634 264.508 246.933C264 247.257 263.441 247.507 262.85 247.673C262.203 247.858 261.529 247.952 260.851 247.951C260.199 247.96 259.549 247.866 258.932 247.673C258.415 247.51 257.937 247.259 257.522 246.933C257.137 246.629 256.8 246.276 256.521 245.886C256.251 245.511 256.022 245.112 255.837 244.696L253.838 240.365H244.47L241.883 246.139C241.841 246.243 241.815 246.352 241.806 246.463C241.806 246.801 242.079 247.012 242.629 247.095C243.225 247.183 243.828 247.225 244.431 247.222M244.862 239.463H253.443L249.133 229.971L244.862 239.463Z" fill="white"/>
<path d="M293.332 224.122C293.4 223.973 293.44 223.814 293.449 223.653C293.449 223.34 293.214 223.159 292.744 223.111C292.273 223.063 291.49 223.039 290.393 223.039V222.499H297.642V223.039C296.935 223.019 296.23 223.092 295.546 223.256C295.311 223.314 295.094 223.423 294.913 223.573C294.732 223.724 294.593 223.912 294.507 224.122L284.908 247.942H283.726L272.95 225.566C272.849 225.351 272.678 225.169 272.46 225.046C272.243 224.924 271.989 224.866 271.735 224.88C270.895 224.953 270.12 225.329 269.581 225.927C269.565 225.353 269.735 224.787 270.071 224.303C270.394 223.849 270.822 223.467 271.325 223.184C271.853 222.888 272.428 222.669 273.028 222.534C273.643 222.391 274.275 222.318 274.91 222.317C275.562 222.307 276.212 222.401 276.83 222.595C277.351 222.76 277.835 223.011 278.259 223.333C278.655 223.638 279.004 223.99 279.298 224.38C279.578 224.753 279.815 225.153 280.004 225.572L286.938 240.115L293.332 224.122Z" fill="white"/>
<path d="M306.926 247.218V247.759H300.658V247.218C301.235 247.228 301.806 247.104 302.316 246.857C302.689 246.713 302.999 246.459 303.198 246.135L313.857 222.316H315.032L325.22 244.692C325.31 244.933 325.481 245.142 325.709 245.288C325.89 245.392 326.098 245.448 326.312 245.45C326.754 245.435 327.183 245.304 327.546 245.071C327.92 244.859 328.268 244.611 328.585 244.331C328.589 244.845 328.44 245.351 328.154 245.793C327.861 246.243 327.466 246.63 326.998 246.929C326.49 247.253 325.93 247.503 325.339 247.669C324.692 247.855 324.018 247.948 323.34 247.947C322.688 247.956 322.039 247.862 321.421 247.669C320.904 247.507 320.426 247.255 320.01 246.929C319.625 246.625 319.289 246.272 319.011 245.882C318.741 245.507 318.511 245.108 318.325 244.692L316.326 240.361H306.966L304.379 246.135C304.335 246.239 304.309 246.348 304.3 246.46C304.3 246.797 304.575 247.008 305.123 247.091C305.719 247.179 306.322 247.221 306.925 247.218M307.356 239.459H315.937L311.627 229.967L307.356 239.459Z" fill="white"/>
<path d="M339.411 247.213C340.019 247.221 340.627 247.197 341.232 247.141C341.586 247.127 341.922 246.992 342.174 246.762C342.392 246.498 342.509 246.174 342.506 245.842C342.531 245.433 342.544 244.868 342.545 244.146V227.037C342.196 226.666 341.809 226.327 341.389 226.026C341.087 225.789 340.709 225.649 340.312 225.629C340.219 225.631 340.127 225.643 340.038 225.665C339.917 225.698 339.809 225.761 339.724 225.846C339.701 225.378 339.78 224.91 339.955 224.471C340.129 224.031 340.398 223.628 340.743 223.284C341.127 222.946 341.583 222.685 342.082 222.518C342.581 222.351 343.112 222.28 343.642 222.312C344.312 222.306 344.977 222.416 345.602 222.637C346.172 222.838 346.712 223.105 347.209 223.431C347.658 223.726 348.072 224.065 348.444 224.441C348.796 224.802 349.077 225.115 349.286 225.379L360.141 238.552V226.101C360.141 225.379 360.127 224.814 360.101 224.405C360.104 224.072 359.986 223.749 359.767 223.485C359.515 223.257 359.181 223.122 358.827 223.106C358.222 223.05 357.613 223.026 357.005 223.034V222.493H364.451V223.034C363.846 223.026 363.242 223.05 362.641 223.106C362.294 223.125 361.967 223.259 361.72 223.485C361.5 223.75 361.376 224.071 361.368 224.405C361.328 224.815 361.309 225.38 361.309 226.101V248.296H360.135L343.956 228.628C343.908 228.586 343.868 228.537 343.838 228.483C343.807 228.431 343.767 228.384 343.721 228.344V244.152C343.721 244.874 343.74 245.439 343.779 245.847C343.788 246.181 343.912 246.503 344.132 246.768C344.378 246.995 344.706 247.13 345.053 247.147C345.652 247.203 346.253 247.227 346.855 247.219V247.76H339.411V247.213Z" fill="white"/>
<path d="M376.086 222.492H399V228.267H397.824C397.824 227.689 397.811 227.106 397.785 226.516C397.769 225.984 397.677 225.456 397.511 224.946C397.371 224.518 397.107 224.134 396.746 223.835C396.333 223.527 395.809 223.372 395.278 223.402H390.772V244.153C390.772 244.682 390.784 245.145 390.811 245.541C390.819 245.873 390.906 246.2 391.066 246.498C391.224 246.75 391.474 246.941 391.772 247.038C392.208 247.175 392.668 247.236 393.128 247.219V247.76H381.961V247.219C382.427 247.238 382.893 247.177 383.334 247.038C383.624 246.937 383.866 246.746 384.019 246.498C384.178 246.2 384.265 245.873 384.273 245.541C384.298 245.144 384.311 244.681 384.312 244.153V223.402H379.807C379.276 223.372 378.752 223.527 378.338 223.835C377.978 224.134 377.713 224.518 377.574 224.946C377.408 225.456 377.315 225.984 377.3 226.516C377.272 227.107 377.259 227.69 377.26 228.267H376.084L376.086 222.492Z" fill="white"/>
<path d="M252.707 266.218C252.415 266.748 251.998 267.212 251.487 267.576C250.953 267.952 250.345 268.23 249.696 268.395C248.991 268.582 248.26 268.676 247.526 268.673H244.045V273.331H242.427V260.129H247.792C248.538 260.122 249.281 260.221 249.993 260.422C250.613 260.596 251.19 260.879 251.692 261.255C252.161 261.611 252.533 262.063 252.778 262.574C253.037 263.131 253.166 263.732 253.156 264.338C253.171 264.991 253.016 265.638 252.704 266.225M250.479 262.236C249.656 261.719 248.672 261.464 247.676 261.509H244.045V267.318H247.597C248.142 267.324 248.685 267.254 249.208 267.111C249.663 266.988 250.088 266.786 250.461 266.516C250.802 266.269 251.076 265.953 251.261 265.592C251.45 265.217 251.545 264.808 251.539 264.395C251.568 263.983 251.487 263.571 251.303 263.194C251.119 262.818 250.838 262.489 250.483 262.236" fill="white"/>
<path d="M280.309 273.327H278.568L276.89 269.838H269.088L267.388 273.327H265.729L272.262 260.031H273.777L280.309 273.327ZM272.999 261.785L269.723 268.518H276.255L272.999 261.785Z" fill="white"/>
<path d="M305.283 273.328L301.127 268.19H297.036V273.328H295.418V260.126H301.582C302.307 260.115 303.028 260.209 303.721 260.404C304.315 260.572 304.868 260.844 305.349 261.205C305.794 261.545 306.151 261.972 306.394 262.454C306.645 262.961 306.77 263.512 306.762 264.068C306.772 264.574 306.674 265.077 306.476 265.549C306.292 265.973 306.017 266.358 305.668 266.681C305.306 267.01 304.887 267.282 304.428 267.483C303.936 267.702 303.412 267.854 302.873 267.936L307.275 273.326L305.283 273.328ZM304.175 262.193C303.38 261.689 302.425 261.444 301.462 261.499H297.036V266.875H301.45C301.949 266.88 302.447 266.815 302.927 266.685C303.35 266.573 303.747 266.391 304.098 266.146C304.422 265.917 304.686 265.622 304.869 265.286C305.057 264.926 305.152 264.53 305.144 264.13C305.165 263.759 305.088 263.388 304.92 263.05C304.752 262.711 304.498 262.415 304.18 262.186" fill="white"/>
<path d="M334.713 273.327H332.686L327.179 266.94L324.127 269.782V273.327H322.51V260.125H324.127V268.009L332.358 260.125H334.448L328.305 265.896L334.713 273.327Z" fill="white"/>
</svg>
