<svg width="500" height="500" viewBox="0 0 500 500" fill="none" xmlns="http://www.w3.org/2000/svg">
<rect width="500" height="500" fill="#F0F0F0"/>
<path d="M63.7936 198.592C84.0769 182.807 111.452 197.367 111.924 221.165C112.103 230.265 111.966 239.408 111.515 248.594C111.504 248.855 111.36 248.987 111.082 248.992C103.626 248.998 96.1745 249 88.7286 249C83.2452 249 79.0631 248.652 76.1824 247.955C52.6956 242.295 44.4154 213.678 63.7936 198.592Z" fill="#A6C654"/>
<path d="M124.024 200.257C143.659 181.473 176.095 197.181 173.893 222.863C172.871 234.748 163.396 244.701 151.593 247.815C148.778 248.562 144.18 248.949 137.801 248.974C130.514 249.009 123.23 249.009 115.948 248.974C115.702 248.974 115.576 248.853 115.571 248.613C115.437 240.541 115.437 232.469 115.044 224.405C114.604 215.543 117.458 206.539 124.024 200.257Z" fill="#A6C654"/>
<path d="M200.119 200L213.094 200.166C213.229 200.166 213.36 200.21 213.464 200.291C213.569 200.372 213.642 200.484 213.671 200.61L223.986 246.315C224.005 246.397 224.005 246.482 223.984 246.564C223.964 246.646 223.925 246.723 223.87 246.789C223.815 246.854 223.745 246.907 223.665 246.944C223.586 246.981 223.498 247 223.41 247H213.102C212.962 247 212.826 246.952 212.719 246.865C212.612 246.778 212.541 246.658 212.518 246.526L211.145 238.437C211.122 238.305 211.051 238.185 210.944 238.098C210.837 238.011 210.701 237.963 210.561 237.963H202.242C202.098 237.962 201.958 238.011 201.849 238.101C201.74 238.191 201.669 238.316 201.65 238.452L200.537 246.51C200.518 246.647 200.447 246.772 200.338 246.862C200.229 246.952 200.089 247.001 199.945 247H189.59C189.502 247 189.414 246.981 189.335 246.944C189.255 246.907 189.185 246.854 189.13 246.789C189.075 246.723 189.036 246.646 189.016 246.564C188.995 246.482 188.995 246.397 189.014 246.315L199.535 200.444C199.564 200.318 199.638 200.204 199.744 200.123C199.85 200.042 199.983 199.999 200.119 200ZM207.435 214.324C207.406 214.114 207.298 213.921 207.131 213.781C206.964 213.642 206.75 213.565 206.528 213.565C206.306 213.565 206.091 213.642 205.924 213.781C205.757 213.921 205.649 214.114 205.62 214.324L203.284 228.768C203.264 228.894 203.274 229.023 203.312 229.145C203.35 229.268 203.416 229.38 203.504 229.476C203.593 229.571 203.703 229.647 203.826 229.698C203.948 229.749 204.081 229.773 204.215 229.769L208.84 229.656C208.97 229.653 209.098 229.622 209.214 229.568C209.331 229.514 209.434 229.436 209.517 229.341C209.6 229.245 209.66 229.134 209.695 229.014C209.729 228.895 209.737 228.77 209.716 228.647L207.435 214.324Z" fill="#C73734"/>
<path d="M266.251 229.043V246.449C266.251 246.731 266.104 246.874 265.809 246.879L255.719 247C255.625 247.001 255.531 246.984 255.444 246.95C255.357 246.917 255.278 246.867 255.211 246.804C255.144 246.741 255.091 246.666 255.055 246.583C255.019 246.5 255 246.411 255 246.321V200.392C255 200.131 255.137 200 255.411 200C261.285 199.995 267.13 200.103 272.947 200.324C278.671 200.543 283.345 202.564 285.075 208.107C287.672 216.426 285.004 226.984 274.487 227.987C271.913 228.229 269.325 228.42 266.725 228.561C266.597 228.568 266.476 228.622 266.388 228.712C266.3 228.802 266.251 228.92 266.251 229.043ZM266.259 208.326L266.243 219.925C266.243 219.981 266.267 220.035 266.308 220.075C266.35 220.114 266.406 220.136 266.465 220.136L269.023 220.144C270.429 220.145 271.778 219.777 272.773 219.119C273.768 218.461 274.327 217.569 274.329 216.637L274.344 211.645C274.345 211.183 274.208 210.725 273.942 210.298C273.675 209.871 273.285 209.483 272.792 209.156C272.299 208.829 271.714 208.569 271.07 208.392C270.426 208.215 269.736 208.123 269.039 208.123L266.48 208.115C266.422 208.115 266.365 208.137 266.324 208.177C266.283 208.216 266.259 208.27 266.259 208.326Z" fill="#A6C654"/>
<path d="M411.575 200.302L401.726 200.286C401.609 200.285 401.513 200.376 401.513 200.487L401.499 207.955C401.499 208.067 401.594 208.157 401.712 208.157L411.561 208.174C411.678 208.174 411.774 208.084 411.774 207.972L411.788 200.504C411.788 200.393 411.693 200.302 411.575 200.302Z" fill="#A6C654"/>
<path d="M347.535 218.513L344.5 218.736C344.45 218.74 344.401 218.735 344.354 218.72C344.308 218.706 344.265 218.682 344.228 218.652C344.191 218.621 344.162 218.584 344.142 218.542C344.121 218.5 344.11 218.454 344.109 218.408L344 212.371C343.995 212.157 344.104 212.051 344.328 212.051H347.394C347.785 212.051 347.98 211.864 347.98 211.492V202.372C347.98 202.124 348.11 202 348.37 202H357.741C358.006 202 358.139 202.127 358.139 202.38L358.092 211.574C358.092 211.892 358.259 212.051 358.591 212.051H362.61C362.713 212.051 362.813 212.09 362.886 212.16C362.959 212.229 363 212.324 363 212.423V218.371C363 218.418 362.99 218.463 362.971 218.506C362.951 218.548 362.923 218.587 362.887 218.619C362.852 218.651 362.809 218.676 362.763 218.692C362.717 218.708 362.667 218.716 362.618 218.714L358.552 218.513C358.266 218.498 358.123 218.627 358.123 218.9V238.524C358.122 238.774 358.22 239.015 358.398 239.2C358.576 239.385 358.82 239.5 359.083 239.522L362.547 239.82C362.849 239.845 363 240.001 363 240.289V245.88C362.999 246.015 362.95 246.145 362.861 246.25C362.771 246.354 362.647 246.426 362.508 246.453C354.339 248.069 347.917 246.423 347.972 237.177C348.013 231.097 348.021 225.012 347.995 218.922C347.995 218.629 347.842 218.493 347.535 218.513Z" fill="#A6C654"/>
<path d="M300.532 246.202C300.53 246.338 300.472 246.467 300.371 246.564C300.27 246.66 300.133 246.716 299.989 246.72L291.564 246.998C290.537 247.033 290.024 246.568 290.024 245.601L290 212.691C290 212.375 290.168 212.217 290.503 212.217H299.239C299.58 212.217 299.753 212.375 299.758 212.691L299.79 213.825C299.795 214.003 299.858 214.175 299.97 214.318C300.082 214.461 300.238 214.569 300.417 214.626C300.596 214.683 300.79 214.688 300.971 214.638C301.153 214.589 301.314 214.488 301.434 214.35C302.992 212.563 304.984 211.449 307.41 211.008C307.474 210.996 307.54 210.997 307.604 211.012C307.667 211.027 307.727 211.054 307.778 211.093C307.829 211.132 307.87 211.181 307.899 211.236C307.928 211.291 307.943 211.352 307.944 211.414L308 221.425C308 221.686 307.864 221.811 307.593 221.801C304.777 221.733 300.524 221.365 300.564 225.21C300.644 232.23 300.633 239.227 300.532 246.202Z" fill="#A6C654"/>
<path d="M339.916 237.118C339.899 240.019 338.655 242.796 336.456 244.836C334.257 246.877 331.284 248.015 328.191 248L323.603 247.977C320.509 247.962 317.549 246.795 315.373 244.733C313.197 242.671 311.984 239.882 312 236.981L312.084 221.882C312.101 218.981 313.345 216.204 315.544 214.164C317.743 212.123 320.716 210.985 323.809 211L328.397 211.023C331.491 211.038 334.451 212.205 336.627 214.267C338.803 216.329 340.016 219.118 340 222.019L339.916 237.118ZM329.469 220.777C329.468 220.407 329.389 220.041 329.237 219.7C329.085 219.359 328.862 219.049 328.583 218.788C328.303 218.528 327.971 218.321 327.606 218.181C327.241 218.041 326.851 217.969 326.456 217.97L325.587 217.973C324.791 217.976 324.028 218.275 323.467 218.805C322.906 219.335 322.592 220.052 322.595 220.799L322.659 238.087C322.661 238.457 322.74 238.823 322.892 239.164C323.044 239.505 323.266 239.815 323.546 240.076C323.826 240.336 324.158 240.543 324.523 240.683C324.887 240.823 325.278 240.895 325.672 240.894L326.542 240.891C327.338 240.888 328.101 240.589 328.662 240.059C329.223 239.529 329.536 238.812 329.534 238.065L329.469 220.777Z" fill="#A6C654"/>
<path d="M367.453 237.93C367.251 231.63 365.113 216.544 372.28 213.13C377.157 210.809 382.122 210.385 387.174 211.857C396.953 214.698 394.699 222.987 394.924 230.515C394.925 230.576 394.914 230.638 394.89 230.695C394.867 230.752 394.832 230.804 394.788 230.847C394.744 230.891 394.691 230.925 394.633 230.948C394.575 230.972 394.513 230.983 394.45 230.982L377.714 230.801C377.635 230.8 377.556 230.815 377.483 230.845C377.41 230.876 377.344 230.921 377.29 230.979C377.236 231.036 377.194 231.105 377.168 231.179C377.142 231.254 377.132 231.333 377.139 231.411C377.325 233.514 376.719 239.459 378.553 240.612C380.502 241.838 382.223 241.71 383.715 240.228C383.897 240.052 384.014 239.825 384.049 239.58L384.632 235.639C384.679 235.317 384.871 235.157 385.208 235.157H393.929C394.199 235.157 394.341 235.287 394.357 235.548C394.831 243.287 389.988 247.522 382.386 247.952C375.265 248.359 367.733 246.286 367.453 237.93ZM377.994 224.75L384.446 224.72C384.562 224.718 384.673 224.672 384.754 224.591C384.835 224.511 384.881 224.403 384.881 224.29L384.866 221.804C384.863 221.231 384.776 220.664 384.611 220.135C384.445 219.606 384.205 219.126 383.902 218.723C383.6 218.319 383.241 217.999 382.848 217.782C382.454 217.564 382.033 217.454 381.608 217.456H380.738C379.882 217.463 379.064 217.928 378.463 218.748C377.863 219.569 377.529 220.679 377.535 221.834L377.543 224.321C377.543 224.378 377.555 224.434 377.577 224.487C377.6 224.539 377.633 224.587 377.675 224.627C377.717 224.667 377.767 224.698 377.822 224.72C377.876 224.741 377.935 224.751 377.994 224.75Z" fill="#A6C654"/>
<path d="M428.477 213.818C428.481 213.946 428.525 214.071 428.603 214.175C428.68 214.28 428.788 214.361 428.913 214.408C429.038 214.454 429.174 214.465 429.306 214.438C429.437 214.411 429.557 214.348 429.651 214.256C433.631 210.352 437.98 209.959 442.696 213.077C444.405 214.211 444.98 216.115 444.988 218.208C445.004 227.649 445.004 237.088 444.988 246.524C444.988 246.646 444.937 246.763 444.845 246.85C444.754 246.936 444.629 246.985 444.5 246.985L435.417 246.909C435.065 246.909 434.886 246.74 434.881 246.403C434.718 238.267 434.682 230.173 434.771 222.123C434.795 219.621 434.495 218.624 431.62 218.866C429.588 219.039 429.265 219.523 429.257 221.503C429.225 229.695 429.698 238.226 428.965 246.372C428.952 246.506 428.888 246.63 428.786 246.721C428.684 246.811 428.552 246.862 428.414 246.864L419.819 247C419.273 247.01 419 246.753 419 246.229V212.389C419 212.138 419.131 212.012 419.394 212.012H427.917C428.051 212.012 428.178 212.061 428.274 212.15C428.37 212.239 428.425 212.36 428.429 212.488L428.477 213.818Z" fill="#A6C654"/>
<path d="M237.498 220.694C237.905 219.916 237.655 219.527 236.746 219.527H227.609C227.274 219.527 227.102 219.364 227.091 219.038L226.888 212.602C226.872 212.201 227.073 212 227.491 212H249.284C249.408 211.999 249.528 212.043 249.62 212.123C249.711 212.202 249.767 212.312 249.777 212.429C250.083 215.613 250.357 218.842 248.555 221.717C245.049 227.297 241.675 232.9 238.43 238.525C238.388 238.595 238.366 238.675 238.367 238.756C238.367 238.837 238.39 238.917 238.432 238.987C238.475 239.058 238.536 239.117 238.61 239.159C238.684 239.2 238.768 239.223 238.854 239.225L249.276 239.428C249.389 239.43 249.496 239.474 249.575 239.552C249.655 239.629 249.699 239.733 249.699 239.842L249.777 246.541C249.778 246.601 249.767 246.66 249.744 246.716C249.722 246.772 249.688 246.822 249.645 246.865C249.602 246.908 249.55 246.942 249.494 246.965C249.437 246.988 249.376 247 249.315 247H226.974C226.723 247 226.569 246.885 226.512 246.654C225.665 243.412 225.869 240.778 227.123 238.751C230.895 232.654 234.353 226.635 237.498 220.694Z" fill="#C73734"/>
<path d="M411.611 212H401.389C401.174 212 401 212.156 401 212.348V246.652C401 246.844 401.174 247 401.389 247H411.611C411.826 247 412 246.844 412 246.652V212.348C412 212.156 411.826 212 411.611 212Z" fill="#A6C654"/>
<path d="M163.617 258.348C186.048 276.767 169.353 312.174 140.043 307.595C129.26 305.909 121.638 299.935 117.179 289.674C117.08 289.451 116.915 289.26 116.703 289.127C116.491 288.994 116.244 288.923 115.991 288.925C115.738 288.926 115.492 289 115.284 289.136C115.076 289.272 114.916 289.464 114.823 289.689C104.155 315.156 66.5967 313.695 59.0015 287.091C58.3135 284.681 57.9799 281.302 58.0009 276.955C58.0535 268.471 58.1191 259.982 58.1979 251.488C58.2032 251.242 58.3345 251.116 58.5918 251.111C72.7948 250.991 81.7241 250.968 85.3799 251.043C97.8547 251.299 107.312 256.626 113.752 267.023C113.843 267.173 113.984 267.29 114.153 267.356C114.321 267.422 114.507 267.434 114.684 267.388C114.861 267.343 115.017 267.244 115.131 267.106C115.244 266.968 115.307 266.799 115.312 266.623L115.532 251.397C115.537 251.171 115.656 251.059 115.887 251.059C121.481 251.048 130.478 251.056 142.88 251.081C150.832 251.096 157.744 253.518 163.617 258.348Z" fill="#A6C654"/>
<path d="M445.598 260H189.402C189.18 260 189 260.213 189 260.475V262.525C189 262.787 189.18 263 189.402 263H445.598C445.82 263 446 262.787 446 262.525V260.475C446 260.213 445.82 260 445.598 260Z" fill="#C73734"/>
<path d="M289.959 275.969C287.766 275.71 284.29 270.431 283.098 268.459C282.915 268.159 282.989 268.008 283.32 268.008L288.339 268C288.451 268 288.561 268.034 288.655 268.098C288.75 268.161 288.825 268.252 288.874 268.359L291.968 275.376C291.99 275.425 292.001 275.478 292 275.532C291.999 275.586 291.987 275.639 291.964 275.688C291.941 275.736 291.908 275.779 291.868 275.812C291.827 275.845 291.781 275.867 291.731 275.877C291.11 276 290.519 276.031 289.959 275.969Z" fill="#C73734"/>
<path d="M230.977 293.111C230.976 294.017 230.784 294.914 230.412 295.751C230.041 296.588 229.498 297.348 228.814 297.987C228.129 298.627 227.317 299.134 226.424 299.479C225.531 299.825 224.574 300.002 223.608 300L221.344 299.996C219.393 299.993 217.523 299.263 216.146 297.967C214.768 296.67 213.997 294.914 214 293.083L214.023 280.889C214.024 279.983 214.216 279.086 214.588 278.249C214.959 277.412 215.502 276.652 216.186 276.013C216.871 275.373 217.683 274.866 218.576 274.521C219.469 274.175 220.426 273.998 221.392 274L223.656 274.004C225.607 274.007 227.477 274.737 228.854 276.034C230.232 277.33 231.003 279.086 231 280.917L230.977 293.111ZM224.835 280.555C224.837 280.272 224.78 279.991 224.667 279.729C224.553 279.467 224.386 279.229 224.174 279.027C223.962 278.826 223.711 278.666 223.433 278.555C223.155 278.445 222.857 278.388 222.555 278.386L222.41 278.385C221.801 278.381 221.215 278.604 220.782 279.005C220.348 279.406 220.102 279.952 220.098 280.523L220.003 293.279C220.001 293.561 220.058 293.842 220.172 294.104C220.285 294.366 220.452 294.605 220.664 294.806C220.876 295.007 221.128 295.168 221.406 295.278C221.683 295.388 221.981 295.445 222.283 295.447L222.428 295.448C223.037 295.452 223.623 295.229 224.057 294.828C224.49 294.427 224.736 293.881 224.74 293.31L224.835 280.555Z" fill="#C73734"/>
<path d="M256 293.307C256.002 294.184 255.827 295.053 255.486 295.863C255.146 296.674 254.646 297.411 254.014 298.032C253.383 298.653 252.634 299.146 251.808 299.483C250.983 299.82 250.098 299.994 249.204 299.996L246.842 300C245.037 300.003 243.304 299.303 242.025 298.053C240.746 296.803 240.026 295.106 240.023 293.335L240 280.693C239.998 279.816 240.173 278.947 240.514 278.137C240.854 277.326 241.354 276.589 241.986 275.968C242.617 275.347 243.366 274.854 244.192 274.517C245.017 274.18 245.902 274.006 246.796 274.004L249.158 274C250.963 273.997 252.696 274.697 253.975 275.947C255.254 277.197 255.974 278.894 255.977 280.665L256 293.307ZM250.399 280.566C250.402 280.282 250.346 280 250.237 279.736C250.128 279.473 249.967 279.233 249.764 279.031C249.56 278.828 249.318 278.667 249.051 278.556C248.784 278.446 248.497 278.388 248.207 278.386L248.069 278.385C247.779 278.383 247.491 278.437 247.223 278.544C246.954 278.651 246.71 278.809 246.503 279.008C246.297 279.208 246.132 279.445 246.02 279.707C245.907 279.969 245.848 280.25 245.846 280.535L245.755 293.283C245.753 293.567 245.808 293.849 245.917 294.112C246.026 294.376 246.187 294.616 246.391 294.818C246.594 295.02 246.836 295.182 247.103 295.292C247.37 295.403 247.657 295.461 247.947 295.463L248.086 295.464C248.376 295.466 248.663 295.412 248.932 295.305C249.2 295.198 249.445 295.04 249.651 294.84C249.858 294.641 250.022 294.403 250.135 294.141C250.248 293.879 250.307 293.598 250.309 293.314L250.399 280.566Z" fill="#C73734"/>
<path d="M301.86 279.07C300.004 283.078 307.685 285.029 309.646 288.073C311.423 290.831 311.451 293.757 309.729 296.851C306.607 302.464 294.044 300.497 296.261 291.562C296.33 291.29 296.503 291.157 296.777 291.162L300.835 291.17C300.887 291.17 300.938 291.182 300.985 291.204C301.032 291.227 301.074 291.259 301.108 291.299C301.141 291.339 301.165 291.386 301.179 291.437C301.193 291.487 301.195 291.54 301.187 291.592C299.959 298.38 309.01 295.08 304.421 290.808C301.104 287.719 295.871 286.612 296.231 280.562C296.792 271.31 311.181 272.055 310.71 281.451C310.7 281.647 310.597 281.745 310.403 281.745H306.12C305.791 281.745 305.616 281.579 305.596 281.247C305.491 279.477 304.271 277.849 302.392 278.573C302.276 278.616 302.169 278.682 302.078 278.767C301.986 278.852 301.913 278.955 301.86 279.07Z" fill="#C73734"/>
<path d="M335.012 298.626C321.873 304.675 324.111 289.197 324.194 282.27C324.269 276.024 327.539 273.265 333.769 274.167C338.116 274.796 340.369 277.813 339.864 282.361C339.829 282.694 339.643 282.861 339.307 282.861L334.613 282.891C334.493 282.891 334.378 282.842 334.294 282.756C334.209 282.669 334.161 282.551 334.161 282.429V280.117C334.161 279.883 334.115 279.652 334.025 279.437C333.936 279.222 333.804 279.026 333.639 278.863C333.473 278.699 333.277 278.57 333.061 278.484C332.846 278.397 332.615 278.355 332.383 278.359C330.68 278.394 329.819 279.331 329.799 281.171C329.759 285.157 329.764 289.149 329.814 293.146C329.852 295.928 333.204 296.777 334.176 294.306C335.03 292.148 334.505 290.759 332.602 290.137C332.371 290.061 332.258 289.902 332.263 289.66L332.315 286.666C332.32 286.317 332.494 286.143 332.835 286.143H339.435C339.812 286.143 340 286.332 340 286.711V298.854C340 299.101 339.882 299.268 339.646 299.354C338.209 299.864 336.919 299.655 335.773 298.725C335.669 298.64 335.543 298.586 335.409 298.569C335.275 298.551 335.138 298.571 335.012 298.626Z" fill="#C73734"/>
<path d="M392 293.115C392.002 294.017 391.813 294.91 391.444 295.744C391.075 296.578 390.534 297.337 389.851 297.976C389.168 298.615 388.357 299.122 387.463 299.469C386.57 299.816 385.612 299.995 384.644 299.996L382.404 300C381.437 300.002 380.478 299.825 379.584 299.482C378.689 299.138 377.876 298.633 377.19 297.996C376.505 297.36 375.961 296.603 375.589 295.77C375.217 294.937 375.025 294.044 375.023 293.142L375 280.885C374.998 279.983 375.187 279.09 375.556 278.256C375.925 277.422 376.466 276.663 377.149 276.024C377.832 275.385 378.644 274.878 379.537 274.531C380.43 274.184 381.388 274.005 382.356 274.004L384.596 274C385.563 273.998 386.522 274.175 387.416 274.518C388.311 274.862 389.124 275.367 389.81 276.004C390.495 276.64 391.039 277.397 391.411 278.23C391.783 279.063 391.975 279.956 391.977 280.858L392 293.115ZM385.776 280.55C385.777 280.265 385.717 279.983 385.6 279.719C385.484 279.455 385.313 279.216 385.097 279.014C384.881 278.812 384.624 278.651 384.342 278.542C384.06 278.432 383.757 278.376 383.451 278.375L383.305 278.375C382.687 278.374 382.094 278.602 381.657 279.008C381.219 279.415 380.973 279.967 380.972 280.542L380.948 293.283C380.947 293.568 381.007 293.851 381.124 294.115C381.24 294.378 381.411 294.618 381.627 294.82C381.843 295.022 382.1 295.182 382.382 295.292C382.664 295.401 382.967 295.458 383.273 295.459L383.419 295.459C384.037 295.46 384.63 295.232 385.067 294.825C385.505 294.419 385.751 293.867 385.752 293.291L385.776 280.55Z" fill="#C73734"/>
<path d="M197.306 284.155H203.773C203.833 284.155 203.893 284.166 203.949 284.188C204.005 284.21 204.055 284.243 204.098 284.283C204.141 284.324 204.175 284.373 204.198 284.426C204.221 284.479 204.233 284.536 204.233 284.594V288.329C204.233 288.387 204.221 288.444 204.198 288.497C204.175 288.551 204.141 288.599 204.098 288.64C204.055 288.681 204.005 288.713 203.949 288.735C203.893 288.757 203.833 288.769 203.773 288.769H197.405C197.283 288.769 197.166 288.815 197.08 288.897C196.994 288.98 196.945 289.092 196.945 289.208V298.561C196.945 298.677 196.897 298.789 196.81 298.871C196.724 298.954 196.607 299 196.485 299L191.46 298.956C191.338 298.956 191.221 298.91 191.135 298.827C191.049 298.745 191 298.633 191 298.517V275.439C191 275.382 191.012 275.325 191.035 275.271C191.058 275.218 191.092 275.17 191.135 275.129C191.178 275.088 191.228 275.056 191.284 275.033C191.34 275.011 191.4 275 191.46 275H204.54C204.6 275 204.66 275.011 204.716 275.033C204.772 275.056 204.822 275.088 204.865 275.129C204.908 275.17 204.942 275.218 204.965 275.271C204.988 275.325 205 275.382 205 275.439V279.109C205 279.224 204.953 279.335 204.868 279.417C204.783 279.499 204.668 279.546 204.547 279.548L197.444 279.643C197.326 279.645 197.213 279.69 197.129 279.769C197.044 279.848 196.995 279.955 196.991 280.068L196.845 283.701C196.843 283.76 196.854 283.818 196.876 283.873C196.898 283.928 196.932 283.979 196.975 284.021C197.018 284.063 197.069 284.097 197.126 284.12C197.183 284.143 197.244 284.155 197.306 284.155Z" fill="#C73734"/>
<path d="M266.077 275.57C266.078 275.495 266.095 275.42 266.127 275.35C266.158 275.28 266.204 275.217 266.262 275.164C266.319 275.111 266.387 275.069 266.461 275.041C266.536 275.013 266.616 274.999 266.696 275L275.237 275.029C277.036 275.035 278.76 275.696 280.028 276.866C281.297 278.035 282.006 279.619 282 281.267L281.954 292.806C281.951 293.623 281.772 294.43 281.428 295.183C281.085 295.936 280.582 296.62 279.95 297.195C279.317 297.77 278.568 298.226 277.743 298.535C276.918 298.845 276.035 299.003 275.144 299L266.603 298.971C266.523 298.97 266.444 298.954 266.37 298.924C266.296 298.894 266.229 298.851 266.173 298.796C266.117 298.742 266.073 298.678 266.044 298.607C266.014 298.537 265.999 298.462 266 298.386L266.077 275.57ZM275.799 280.273C275.799 280.162 275.775 280.052 275.73 279.949C275.684 279.846 275.618 279.753 275.534 279.674C275.451 279.596 275.352 279.534 275.243 279.491C275.134 279.449 275.017 279.428 274.899 279.428L272.689 279.435C272.451 279.436 272.223 279.526 272.056 279.686C271.888 279.845 271.795 280.061 271.795 280.286L271.845 293.829C271.846 293.941 271.869 294.051 271.915 294.154C271.96 294.256 272.027 294.35 272.11 294.428C272.194 294.507 272.293 294.569 272.402 294.611C272.511 294.653 272.627 294.675 272.745 294.674L274.956 294.667C275.193 294.666 275.421 294.576 275.589 294.417C275.756 294.257 275.85 294.041 275.849 293.816L275.799 280.273Z" fill="#C73734"/>
<path d="M363.933 287.517L365.817 289.042C365.93 289.131 366.022 289.24 366.089 289.362C366.156 289.484 366.195 289.617 366.205 289.753L366.997 298.586C367.023 298.867 366.883 299.005 366.577 299L361.226 298.906C361.063 298.904 360.908 298.845 360.791 298.741C360.675 298.637 360.606 298.496 360.6 298.347C360.466 295.828 361.748 288.207 356.413 289.818C356.196 289.886 356.088 290.024 356.088 290.232V298.456C356.088 298.517 356.075 298.579 356.049 298.636C356.023 298.693 355.985 298.745 355.937 298.789C355.889 298.833 355.833 298.868 355.77 298.891C355.708 298.915 355.641 298.927 355.573 298.927L350.776 298.935C350.391 298.939 350.198 298.768 350.198 298.419L350 275.657C349.995 275.396 350.135 275.258 350.42 275.244C354.79 275.048 362.643 274.198 365.073 277.486C367.554 280.845 367.168 284.009 363.917 286.98C363.712 287.164 363.717 287.343 363.933 287.517ZM356.048 280.31L356.08 284.418C356.081 284.541 356.108 284.663 356.161 284.776C356.213 284.889 356.289 284.992 356.385 285.078C356.48 285.164 356.593 285.232 356.718 285.279C356.842 285.325 356.975 285.348 357.109 285.347L357.909 285.34C358.638 285.334 359.335 285.051 359.847 284.551C360.359 284.052 360.644 283.378 360.64 282.676V281.994C360.638 281.645 360.564 281.301 360.423 280.979C360.282 280.658 360.077 280.367 359.819 280.122C359.561 279.878 359.255 279.684 358.919 279.553C358.583 279.422 358.224 279.356 357.861 279.359L357.062 279.366C356.928 279.367 356.795 279.392 356.671 279.44C356.548 279.488 356.436 279.558 356.342 279.646C356.248 279.733 356.173 279.837 356.123 279.951C356.073 280.065 356.047 280.187 356.048 280.31Z" fill="#C73734"/>
<path d="M403.887 298.634C401.613 297.356 401.057 295.372 401.074 292.869C401.106 287.083 401.082 281.281 401 275.461C400.995 275.149 401.161 274.995 401.499 275L406.716 275.008C406.807 275.008 406.894 275.041 406.959 275.101C407.023 275.161 407.059 275.242 407.059 275.327C406.988 281.776 407.032 287.782 407.19 293.344C407.244 295.211 408.275 295.944 410.281 295.543C410.684 295.464 411.045 295.261 411.304 294.969C411.563 294.677 411.704 294.313 411.704 293.938V275.372C411.704 275.124 411.84 275 412.112 275H417.427C417.504 275 417.58 275.014 417.65 275.041C417.721 275.068 417.785 275.108 417.838 275.158C417.891 275.208 417.933 275.267 417.961 275.331C417.989 275.396 418.002 275.466 418 275.535C417.869 281.192 417.806 286.818 417.812 292.415C417.812 294.511 417.482 296.041 416.822 297.007C414.312 300.685 407.468 300.655 403.887 298.634Z" fill="#C73734"/>
<path d="M433.349 290.221V298.504C433.349 298.786 433.188 298.93 432.867 298.934L427.548 299C427.199 299 427.025 298.847 427.025 298.541L427 275.593C427 275.292 427.169 275.136 427.507 275.127C435.253 274.922 446.154 273.829 443.629 284.774C442.591 289.258 438.538 289.455 433.937 289.666C433.778 289.674 433.629 289.736 433.519 289.839C433.41 289.942 433.349 290.079 433.349 290.221ZM433.357 279.604L433.341 285.189C433.341 285.212 433.346 285.235 433.356 285.256C433.366 285.278 433.38 285.297 433.398 285.313C433.417 285.329 433.438 285.342 433.462 285.351C433.486 285.36 433.511 285.364 433.537 285.364H435.057C435.397 285.365 435.734 285.316 436.048 285.218C436.362 285.121 436.648 284.978 436.889 284.797C437.129 284.616 437.32 284.401 437.45 284.164C437.581 283.927 437.647 283.674 437.647 283.417V281.376C437.647 280.861 437.376 280.366 436.893 280.002C436.411 279.637 435.756 279.431 435.073 279.429H433.553C433.501 279.429 433.452 279.447 433.415 279.48C433.378 279.513 433.357 279.557 433.357 279.604Z" fill="#C73734"/>
</svg>
