<svg width="500" height="500" viewBox="0 0 500 500" fill="none" xmlns="http://www.w3.org/2000/svg">
<g clip-path="url(#clip0_4779_17)">
<rect width="500" height="500" fill="#F0F0F0"/>
<path d="M147.473 197.381L136.105 208.247C135.32 208.997 135.32 210.214 136.105 210.964L147.473 221.83C148.258 222.58 149.53 222.58 150.315 221.83L161.682 210.964C162.467 210.214 162.467 208.997 161.682 208.247L150.315 197.381C149.53 196.631 148.258 196.631 147.473 197.381Z" fill="#00B8FF"/>
<path d="M127.579 178.358L116.211 189.224C115.426 189.974 115.426 191.19 116.211 191.94L127.579 202.806C128.364 203.556 129.636 203.556 130.421 202.806L141.788 191.94C142.573 191.19 142.573 189.974 141.788 189.224L130.421 178.358C129.636 177.608 128.364 177.608 127.579 178.358Z" fill="#3EEDFF"/>
<path d="M87.7886 178.37L76.421 189.236C75.6362 189.986 75.6362 191.202 76.421 191.952L87.7886 202.818C88.5734 203.568 89.8458 203.568 90.6305 202.818L101.998 191.952C102.783 191.202 102.783 189.986 101.998 189.236L90.6305 178.37C89.8458 177.619 88.5734 177.619 87.7886 178.37Z" fill="#3EEDFF"/>
<path d="M157.121 242.325L109.874 197.562C109.494 197.202 108.98 197 108.443 197C107.907 197 107.392 197.202 107.013 197.562L95.5584 208.383C95.1793 208.743 94.9664 209.231 94.9664 209.74C94.9664 210.249 95.1793 210.737 95.5584 211.097L142.806 255.903C146.6 259.505 148.731 264.389 148.731 269.481C148.731 274.574 146.6 279.457 142.806 283.06L128.49 296.638L114.175 283.06C112.294 281.277 110.802 279.16 109.783 276.831C108.765 274.501 108.241 272.003 108.241 269.481C108.241 266.959 108.765 264.462 109.783 262.132C110.802 259.802 112.294 257.686 114.175 255.903L121.373 249.118C121.752 248.758 121.965 248.27 121.965 247.761C121.965 247.252 121.752 246.764 121.373 246.404L109.874 235.54C109.494 235.18 108.98 234.978 108.443 234.978C107.907 234.978 107.392 235.18 107.013 235.54L99.8594 242.325C96.0995 245.891 93.117 250.125 91.0822 254.784C89.0473 259.444 88 264.438 88 269.481C88 274.525 89.0473 279.519 91.0822 284.179C93.117 288.838 96.0995 293.072 99.8594 296.638L127.05 322.438C127.432 322.798 127.948 323 128.486 323C129.024 323 129.54 322.798 129.921 322.438L157.121 296.638C162.165 291.881 165.791 285.942 167.63 279.424C169.457 272.912 169.457 266.06 167.63 259.547C165.79 253.028 162.164 247.086 157.121 242.325Z" fill="url(#paint0_linear_4779_17)"/>
<path d="M167.363 178.373L155.995 189.239C155.21 189.99 155.21 191.206 155.995 191.956L167.363 202.822C168.147 203.572 169.42 203.572 170.205 202.822L181.572 191.956C182.357 191.206 182.357 189.99 181.572 189.239L170.205 178.373C169.42 177.623 168.147 177.623 167.363 178.373Z" fill="#3EEDFF"/>
<path d="M205.695 262.988C199.898 262.988 197 260.396 197 255.211C197 252.528 197.972 250.568 199.916 249.332C201.492 248.357 204.155 247.862 207.905 247.862C209.381 247.851 210.856 247.914 212.325 248.05V246.964C212.357 246.303 212.256 245.642 212.026 245.016C211.652 244.104 210.227 243.646 207.751 243.64C205.966 243.63 204.183 243.747 202.416 243.99C201.818 244.103 201.213 244.18 200.605 244.221C200.321 244.227 200.045 244.134 199.831 243.958C199.617 243.783 199.479 243.538 199.445 243.273C199.192 242.311 199.074 241.323 199.092 240.333C199.066 240.016 199.164 239.7 199.367 239.447C199.571 239.193 199.866 239.019 200.197 238.957C202.967 238.263 205.828 237.943 208.693 238.008C213.119 238.008 215.984 238.641 217.288 239.905C218.429 240.982 219 242.959 219 245.836V260.826C219 261.963 218.448 262.535 217.343 262.535H214.372C213.934 262.562 213.496 262.489 213.095 262.322C212.953 262.225 212.839 262.096 212.765 261.946C212.69 261.797 212.657 261.632 212.669 261.467L212.56 260.613C211.645 261.425 210.565 262.054 209.385 262.462C208.205 262.871 206.95 263.049 205.695 262.988ZM208.811 252.178C206.664 252.178 205.188 252.46 204.336 253.032C204.01 253.28 203.752 253.6 203.587 253.963C203.421 254.327 203.352 254.723 203.385 255.117C203.353 255.525 203.418 255.935 203.574 256.316C203.731 256.698 203.976 257.041 204.291 257.322C205.228 257.901 206.347 258.161 207.461 258.057C208.844 258.15 210.225 257.853 211.428 257.203C211.741 257.048 211.99 256.798 212.135 256.493C212.284 256.049 212.351 255.583 212.334 255.117V252.323C211.319 252.229 210.151 252.178 208.811 252.178Z" fill="#07203A"/>
<path d="M224.421 262C223.504 262 223 261.527 223 260.571V258.944C223.03 258.141 223.372 257.375 223.963 256.792L235.976 243.563H224.834C224.082 243.563 223.715 243.227 223.715 242.556V239.113C223.715 238.381 224.082 238.011 224.834 238.011H243.863C244.05 237.987 244.24 238.003 244.419 238.06C244.598 238.116 244.76 238.21 244.893 238.335C245.026 238.46 245.127 238.613 245.187 238.781C245.247 238.948 245.265 239.127 245.239 239.302V241.118C245.255 241.583 245.167 242.046 244.982 242.478C244.701 243.007 244.343 243.497 243.918 243.933C237.273 251.33 233.439 255.501 232.418 256.448H244.835C245.615 256.448 246 256.767 246 257.404V261.088C246 261.69 245.597 261.948 244.78 261.948L224.421 262Z" fill="#07203A"/>
<path d="M264.691 244.428C263.778 243.741 262.308 243.395 260.281 243.389C257.968 243.342 255.661 243.629 253.442 244.241C253.029 244.411 252.579 244.493 252.127 244.479C251.89 244.485 251.657 244.412 251.472 244.273C251.286 244.135 251.159 243.939 251.114 243.721C250.74 242.778 250.501 241.794 250.402 240.793C250.392 240.53 250.47 240.27 250.626 240.051C250.781 239.831 251.006 239.662 251.269 239.567C253.4 238.517 256.608 237.994 260.893 238C265.422 238 268.572 238.971 270.343 240.912C272.114 242.853 273 246.009 273 250.379C273 254.857 272.02 258.078 270.06 260.042C268.1 262.006 265.011 262.99 260.792 262.996C259.137 263.032 257.485 262.825 255.898 262.383C254.739 262.066 253.667 261.517 252.757 260.774C251.93 260.013 251.321 259.07 250.986 258.033C250.579 256.93 250.306 255.787 250.173 254.627C250.055 253.512 250 252.073 250 250.37C250 249.519 250.183 249.017 250.557 248.77C250.918 248.555 251.344 248.454 251.771 248.48H266.106C266.052 246.477 265.58 245.126 264.691 244.428ZM256.474 253.12C256.446 253.389 256.446 253.66 256.474 253.929C256.368 255.127 256.689 256.324 257.387 257.334C257.971 258.033 259.167 258.373 260.957 258.373C262.746 258.373 264.116 257.964 264.856 257.147C265.595 256.33 266.006 254.993 266.07 253.129L256.474 253.12Z" fill="#07203A"/>
<path d="M282.529 262H278.283C277.425 262 277 261.564 277 260.691V240.013C277 239.023 277.508 238.527 278.532 238.527H282.298C282.656 238.498 283.014 238.572 283.323 238.737C283.439 238.834 283.531 238.952 283.593 239.084C283.655 239.216 283.685 239.358 283.683 239.501L283.784 240.197C284.434 239.499 285.275 238.97 286.221 238.662C287.391 238.221 288.647 237.998 289.913 238.007C290.637 237.977 291.361 238.042 292.064 238.2C292.362 238.27 292.62 238.437 292.791 238.669C292.961 238.901 293.031 239.183 292.987 239.459C293.027 240.587 292.906 241.716 292.627 242.816C292.526 243.311 292.101 243.563 291.344 243.563C291.077 243.563 290.615 243.563 289.96 243.495C289.304 243.428 288.87 243.42 288.63 243.42C287.337 243.385 286.049 243.591 284.846 244.024C284.494 244.167 284.191 244.393 283.969 244.679C283.85 244.962 283.8 245.266 283.821 245.568V260.674C283.868 261.564 283.415 262 282.529 262Z" fill="#07203A"/>
<path d="M318.343 264.984C318.946 265.194 319.453 265.58 319.78 266.081C320.051 266.522 320.245 266.997 320.353 267.491C320.45 268.05 320.494 268.614 320.485 269.179C320.485 272.393 318.033 273.999 313.128 273.999C312.254 274.008 311.382 273.932 310.526 273.771C310.217 273.727 309.935 273.584 309.733 273.368C309.532 273.153 309.423 272.88 309.427 272.598C309.413 272.091 309.482 271.584 309.633 271.096C309.678 270.817 309.827 270.561 310.056 270.37C310.308 270.244 310.596 270.188 310.883 270.209C311.285 270.222 311.687 270.253 312.086 270.302C312.566 270.377 313.054 270.408 313.542 270.395C314.021 270.433 314.502 270.351 314.932 270.159C315.082 270.042 315.197 269.894 315.266 269.727C315.335 269.56 315.356 269.381 315.327 269.205C315.359 269.024 315.344 268.839 315.283 268.665C315.222 268.49 315.117 268.331 314.976 268.199C314.834 268.068 314.661 267.967 314.469 267.906C314.278 267.844 314.073 267.824 313.871 267.846H313.194H312.565C311.804 267.846 311.419 267.533 311.419 266.909C311.419 266.85 311.503 266.343 311.682 265.406L312.255 262.646C310.1 262.63 307.964 262.282 305.941 261.616C305.657 261.535 305.412 261.371 305.242 261.152C305.072 260.932 304.987 260.668 305.002 260.401C305.086 259.317 305.313 258.246 305.678 257.21C305.75 256.942 305.926 256.706 306.174 256.544C306.421 256.382 306.725 256.304 307.031 256.324C307.529 256.345 308.021 256.424 308.497 256.56C310.735 257.122 313.049 257.406 315.374 257.404C316.416 257.495 317.466 257.317 318.399 256.889C318.661 256.721 318.87 256.495 319.006 256.234C319.143 255.972 319.202 255.683 319.179 255.395C319.199 255.158 319.158 254.921 319.059 254.701C318.959 254.481 318.804 254.285 318.606 254.129C317.84 253.707 316.992 253.421 316.107 253.285L312.349 252.533C310.441 252.262 308.673 251.469 307.285 250.263C306.176 249.182 305.622 247.567 305.622 245.418C305.622 240.477 309.182 238.009 316.304 238.015C318.883 237.936 321.462 238.172 323.971 238.715C324.273 238.781 324.541 238.937 324.73 239.158C324.92 239.379 325.02 239.652 325.014 239.931C324.949 241.043 324.741 242.145 324.393 243.214C324.346 243.443 324.209 243.649 324.008 243.795C323.806 243.94 323.553 244.016 323.294 244.008C322.84 243.993 322.388 243.948 321.941 243.873C320.084 243.546 318.197 243.374 316.304 243.358C315.28 243.282 314.251 243.433 313.307 243.797C313.043 243.938 312.828 244.142 312.685 244.387C312.543 244.631 312.478 244.906 312.499 245.181C312.48 245.432 312.521 245.683 312.62 245.917C312.719 246.152 312.873 246.364 313.072 246.54C313.843 246.998 314.715 247.3 315.628 247.427L319.17 248.228C321.706 248.757 323.479 249.537 324.487 250.567C325.496 251.597 326 253.189 326 255.344C326 260.032 322.749 262.486 316.248 262.705L315.938 264.528C316.762 264.556 317.576 264.71 318.343 264.984Z" fill="#07203A"/>
<path d="M344.069 244.453C343.197 243.767 341.794 243.421 339.86 243.416C337.652 243.368 335.45 243.655 333.332 244.266C332.937 244.437 332.508 244.518 332.077 244.504C331.85 244.51 331.628 244.437 331.451 244.299C331.274 244.16 331.153 243.965 331.109 243.747C330.753 242.806 330.524 241.822 330.43 240.823C330.418 240.561 330.491 240.302 330.638 240.083C330.785 239.863 330.999 239.694 331.249 239.598C333.259 238.533 336.324 238 340.443 238C344.755 238 347.761 238.969 349.464 240.908C351.166 242.846 352.012 245.998 352 250.362C352 254.834 351.064 258.051 349.194 260.012C347.323 261.973 344.38 262.968 340.365 262.996C338.788 263.031 337.214 262.825 335.702 262.384C334.595 262.067 333.572 261.519 332.704 260.777C331.915 260.017 331.334 259.076 331.014 258.039C330.621 256.939 330.36 255.798 330.238 254.639C330.125 253.525 330.064 252.088 330.064 250.388C329.989 250.143 329.98 249.884 330.037 249.635C330.095 249.386 330.217 249.156 330.392 248.967C330.567 248.777 330.789 248.635 331.037 248.553C331.285 248.471 331.55 248.453 331.807 248.5H345.49C345.385 246.502 344.941 245.15 344.069 244.453ZM336.225 253.134C336.18 253.401 336.162 253.671 336.173 253.941C336.077 255.137 336.383 256.331 337.045 257.342C337.611 258.039 338.788 258.38 340.461 258.38C342.134 258.38 343.468 257.971 344.182 257.155C345.007 255.977 345.414 254.567 345.341 253.142L336.225 253.134Z" fill="#07203A"/>
<path d="M362.463 262H358.266C357.428 262 357 261.56 357 260.68V228.363C357 227.449 357.428 227 358.266 227H362.563C363.373 227 363.774 227.432 363.774 228.312V246.256H365.795C366.234 246.29 366.676 246.216 367.075 246.042C367.474 245.869 367.818 245.601 368.071 245.266L372.369 239.341C372.546 239.052 372.803 238.812 373.114 238.647C373.425 238.482 373.777 238.397 374.135 238.401H378.351C379.088 238.401 379.461 238.715 379.461 239.341C379.404 239.752 379.228 240.141 378.951 240.467C377.203 242.904 375.115 245.627 372.687 248.635C374.035 250.356 376.572 254.038 380.299 259.681C380.666 260.081 380.908 260.567 381 261.086C381 261.678 380.599 261.983 379.789 261.983H375.146C374.782 261.984 374.425 261.893 374.113 261.718C373.802 261.543 373.548 261.292 373.379 260.993L367.616 252.444C367.392 252.147 367.086 251.912 366.73 251.763C366.375 251.614 365.982 251.557 365.595 251.597H363.774V260.663C363.78 261.554 363.343 262 362.463 262Z" fill="#07203A"/>
<path d="M398.052 244.428C397.179 243.738 395.782 243.389 393.834 243.389C391.622 243.342 389.415 243.629 387.293 244.241C386.897 244.411 386.467 244.493 386.035 244.479C385.808 244.483 385.586 244.41 385.409 244.271C385.232 244.133 385.11 243.938 385.065 243.721C384.708 242.778 384.479 241.794 384.384 240.793C384.375 240.53 384.45 240.27 384.599 240.051C384.747 239.831 384.962 239.662 385.214 239.567C387.252 238.517 390.32 237.994 394.419 238C398.751 238 401.764 238.971 403.458 240.912C405.153 242.853 406 246.009 406 250.379C406 254.857 405.065 258.078 403.196 260.042C401.327 262.006 398.37 262.991 394.323 262.996C392.739 263.031 391.16 262.824 389.642 262.383C388.533 262.064 387.509 261.515 386.638 260.774C385.847 260.013 385.264 259.07 384.943 258.033C384.553 256.93 384.293 255.787 384.166 254.627C384.052 253.512 384 252.073 384 250.37C384 249.519 384.175 249.017 384.533 248.77C384.879 248.557 385.286 248.455 385.694 248.48H399.415C399.38 246.477 398.926 245.126 398.052 244.428ZM390.192 253.12C390.156 253.388 390.141 253.659 390.148 253.929C390.048 255.127 390.355 256.324 391.022 257.335C391.589 258.033 392.769 258.373 394.437 258.373C396.105 258.373 397.458 257.965 398.166 257.147C398.873 256.33 399.266 254.993 399.336 253.129L390.192 253.12Z" fill="#07203A"/>
<path d="M416.175 262H412.201C411.397 262 411 261.564 411 260.691V240.013C411 239.023 411.484 238.527 412.443 238.527H415.985C416.319 238.498 416.654 238.572 416.943 238.737C417.052 238.834 417.138 238.952 417.196 239.084C417.254 239.216 417.283 239.358 417.28 239.501L417.375 240.197C417.983 239.499 418.77 238.97 419.656 238.662C420.751 238.222 421.926 237.999 423.111 238.007C423.788 237.977 424.466 238.042 425.124 238.2C425.403 238.27 425.645 238.437 425.804 238.669C425.964 238.901 426.029 239.183 425.988 239.459C426.025 240.587 425.912 241.716 425.651 242.816C425.556 243.311 425.159 243.563 424.45 243.563C424.2 243.563 423.768 243.563 423.163 243.495C422.559 243.428 422.135 243.42 421.911 243.42C420.7 243.386 419.495 243.592 418.369 244.024C418.025 244.163 417.727 244.389 417.505 244.679C417.394 244.962 417.347 245.266 417.367 245.568V260.674C417.427 261.564 417.013 262 416.175 262Z" fill="#07203A"/>
</g>
<defs>
<linearGradient id="paint0_linear_4779_17" x1="128.49" y1="196.956" x2="128.49" y2="323.001" gradientUnits="userSpaceOnUse">
<stop stop-color="#00B8FF" stop-opacity="0.99"/>
<stop offset="1" stop-color="#0079FF"/>
</linearGradient>
<clipPath id="clip0_4779_17">
<rect width="500" height="500" fill="white"/>
</clipPath>
</defs>
</svg>
