<svg width="500" height="500" viewBox="0 0 500 500" fill="none" xmlns="http://www.w3.org/2000/svg">
<rect width="500" height="500" fill="#F0F0F0"/>
<path d="M69.6577 277.365L72.9102 276.872C73.0487 277.503 73.3282 277.979 73.7539 278.307C74.1736 278.637 74.7658 278.801 75.5271 278.801C76.3666 278.801 76.9953 278.645 77.4176 278.334C77.7048 278.122 77.8475 277.832 77.8475 277.473C77.8475 277.226 77.7677 277.019 77.6147 276.858C77.4516 276.707 77.0913 276.564 76.5306 276.434C73.9179 275.86 72.2619 275.332 71.5609 274.856C70.5923 274.195 70.1072 273.273 70.1072 272.097C70.1072 271.037 70.5252 270.145 71.3638 269.423C72.2016 268.701 73.5007 268.337 75.2612 268.337C76.9375 268.337 78.1857 268.61 79.0005 269.155C79.8136 269.704 80.3735 270.509 80.6811 271.581L77.6249 272.144C77.4975 271.668 77.2485 271.3 76.8806 271.049C76.5153 270.794 75.9961 270.669 75.3198 270.669C74.4659 270.669 73.855 270.786 73.4854 271.024C73.2415 271.196 73.1183 271.417 73.1183 271.681C73.1183 271.914 73.2262 272.109 73.4429 272.269C73.7318 272.486 74.7403 272.789 76.4685 273.182C78.1916 273.571 79.3981 274.052 80.0821 274.622C80.7584 275.202 81.0983 276.006 81.0983 277.032C81.0983 278.157 80.6293 279.12 79.6887 279.93C78.7524 280.739 77.3658 281.141 75.5271 281.141C73.8601 281.141 72.5406 280.799 71.5652 280.124C70.5923 279.45 69.9585 278.528 69.6577 277.365Z" fill="#8C9897"/>
<path d="M92.5195 263.966H95.7593V266.962H92.5195V263.966ZM92.5195 268.628H95.7593V280.873H92.5195V268.628Z" fill="#8C9897"/>
<path d="M106.363 280.875V278.345L110.952 273.08C111.705 272.22 112.263 271.606 112.622 271.247C112.248 271.268 111.753 271.282 111.139 271.29L106.813 271.311V268.63H116.937V270.922L112.257 276.321L110.607 278.107C111.504 278.051 112.062 278.025 112.28 278.025H117.293V280.875H106.363Z" fill="#8C9897"/>
<path d="M130.53 272.507L127.298 271.97C127.716 270.786 128.369 269.886 129.266 269.268C130.159 268.645 131.282 268.337 132.63 268.337C134.758 268.337 136.332 269.03 137.355 270.422C138.164 271.538 138.568 272.944 138.568 274.644C138.568 276.672 138.036 278.264 136.974 279.415C135.915 280.565 134.574 281.141 132.952 281.141C131.129 281.141 129.693 280.535 128.637 279.333C127.584 278.125 127.082 276.283 127.125 273.8H135.246C135.222 272.84 134.963 272.092 134.464 271.56C133.964 271.024 133.337 270.76 132.593 270.76C132.085 270.76 131.661 270.898 131.315 271.171C130.969 271.452 130.702 271.897 130.53 272.507ZM130.345 275.785C130.37 276.724 130.607 277.439 131.068 277.927C131.531 278.416 132.093 278.658 132.752 278.658C133.462 278.658 134.044 278.399 134.504 277.883C134.967 277.369 135.194 276.668 135.187 275.785H130.345Z" fill="#8C9897"/>
<path d="M154.921 268.63H156.718V267.704C156.718 266.675 156.828 265.905 157.051 265.394C157.269 264.889 157.671 264.473 158.257 264.157C158.848 263.837 159.592 263.682 160.489 263.682C161.415 263.682 162.317 263.816 163.201 264.093L162.765 266.359C162.25 266.229 161.753 266.173 161.276 266.173C160.805 266.173 160.47 266.276 160.264 266.497C160.061 266.718 159.962 267.138 159.962 267.761V268.63H162.384V271.174H159.962V280.875H156.718V271.174H154.921V268.63Z" fill="#8C9897"/>
<path d="M175.211 272.351L172.27 271.819C172.601 270.634 173.169 269.759 173.974 269.189C174.785 268.623 175.981 268.336 177.572 268.336C179.022 268.336 180.097 268.51 180.804 268.852C181.509 269.194 182.008 269.626 182.296 270.154C182.584 270.681 182.729 271.646 182.729 273.056L182.694 276.841C182.694 277.914 182.746 278.709 182.852 279.22C182.953 279.726 183.15 280.279 183.434 280.864H180.226C180.142 280.648 180.036 280.328 179.915 279.904C179.863 279.713 179.824 279.587 179.8 279.522C179.244 280.063 178.654 280.466 178.025 280.738C177.396 281.002 176.723 281.141 176.005 281.141C174.746 281.141 173.751 280.795 173.027 280.115C172.298 279.428 171.935 278.563 171.935 277.515C171.935 276.828 172.101 276.209 172.432 275.664C172.762 275.124 173.228 274.708 173.82 274.422C174.415 274.134 175.278 273.882 176.398 273.666C177.912 273.385 178.963 273.116 179.545 272.87V272.55C179.545 271.923 179.389 271.482 179.085 271.213C178.777 270.95 178.198 270.815 177.344 270.815C176.766 270.815 176.317 270.932 175.994 271.157C175.672 271.381 175.412 271.78 175.211 272.351ZM179.545 274.981C179.13 275.119 178.475 275.284 177.572 275.479C176.675 275.668 176.089 275.859 175.808 276.041C175.388 276.343 175.176 276.72 175.176 277.183C175.176 277.637 175.343 278.026 175.683 278.359C176.02 278.688 176.45 278.852 176.973 278.852C177.56 278.852 178.115 278.662 178.647 278.281C179.039 277.988 179.296 277.632 179.418 277.204C179.504 276.932 179.545 276.405 179.545 275.626V274.981Z" fill="#8C9897"/>
<path d="M192.973 268.628H196.423L199.351 277.322L202.213 268.628H205.567L201.243 280.41L200.467 282.548C200.186 283.257 199.913 283.806 199.659 284.183C199.399 284.559 199.105 284.862 198.767 285.099C198.434 285.333 198.025 285.519 197.537 285.644C197.048 285.779 196.496 285.844 195.88 285.844C195.257 285.844 194.647 285.779 194.044 285.644L193.759 283.11C194.265 283.209 194.721 283.257 195.132 283.257C195.883 283.257 196.443 283.036 196.805 282.595C197.163 282.154 197.443 281.592 197.634 280.908L192.973 268.628Z" fill="#8C9897"/>
<path d="M227.46 280.864H224.451V279.065C223.952 279.765 223.362 280.284 222.681 280.627C221.999 280.967 221.316 281.141 220.621 281.141C219.211 281.141 218.009 280.57 217.005 279.436C216.004 278.303 215.5 276.72 215.5 274.691C215.5 272.615 215.989 271.037 216.964 269.959C217.942 268.882 219.177 268.337 220.669 268.337C222.033 268.337 223.219 268.909 224.218 270.046V263.956H227.46V280.864ZM218.811 274.475C218.811 275.782 218.993 276.724 219.354 277.312C219.873 278.156 220.607 278.58 221.545 278.58C222.291 278.58 222.924 278.26 223.448 277.628C223.967 276.993 224.231 276.045 224.231 274.783C224.231 273.381 223.975 272.365 223.472 271.746C222.964 271.127 222.314 270.816 221.519 270.816C220.751 270.816 220.111 271.123 219.59 271.733C219.07 272.343 218.811 273.256 218.811 274.475Z" fill="#8C9897"/>
<path d="M241.66 272.351L238.721 271.819C239.05 270.634 239.617 269.759 240.426 269.189C241.234 268.623 242.432 268.336 244.022 268.336C245.471 268.336 246.546 268.51 247.255 268.852C247.958 269.194 248.457 269.626 248.745 270.154C249.033 270.681 249.18 271.646 249.18 273.056L249.144 276.841C249.144 277.914 249.195 278.709 249.301 279.22C249.405 279.726 249.6 280.279 249.883 280.864H246.676C246.593 280.648 246.485 280.328 246.364 279.904C246.315 279.713 246.274 279.587 246.249 279.522C245.696 280.063 245.106 280.466 244.474 280.738C243.847 281.002 243.172 281.141 242.456 281.141C241.195 281.141 240.2 280.795 239.477 280.115C238.749 279.428 238.386 278.563 238.386 277.515C238.386 276.828 238.55 276.209 238.881 275.664C239.212 275.124 239.677 274.708 240.272 274.422C240.864 274.134 241.727 273.882 242.85 273.666C244.362 273.385 245.413 273.116 245.994 272.87V272.55C245.994 271.923 245.84 271.482 245.534 271.213C245.226 270.95 244.648 270.815 243.795 270.815C243.215 270.815 242.768 270.932 242.444 271.157C242.123 271.381 241.862 271.78 241.66 272.351ZM245.994 274.981C245.581 275.119 244.924 275.284 244.022 275.479C243.125 275.668 242.539 275.859 242.259 276.041C241.838 276.343 241.625 276.72 241.625 277.183C241.625 277.637 241.794 278.026 242.134 278.359C242.472 278.688 242.9 278.852 243.423 278.852C244.011 278.852 244.565 278.662 245.097 278.281C245.49 277.988 245.746 277.632 245.869 277.204C245.956 276.932 245.994 276.405 245.994 275.626V274.981Z" fill="#8C9897"/>
<path d="M260.958 263.966H264.202V280.873H260.958V263.966Z" fill="#8C9897"/>
<path d="M276.107 268.628H279.346V280.873H276.107V268.628Z" fill="#8C9897"/>
<path d="M69 246.096V214.313H84.4544C86.8555 214.313 88.7893 214.737 90.2508 215.584C91.7105 216.428 92.7445 217.47 93.3376 218.699C93.9366 219.932 94.2348 221.19 94.2348 222.462C94.2348 224.438 93.8609 225.888 93.1141 226.787C92.3656 227.683 91.4335 228.418 90.3417 228.971C93.6137 230.191 95.251 232.769 95.251 236.679C95.251 237.93 95.0114 239.128 94.5288 240.261C94.047 241.394 93.3673 242.389 92.5049 243.229C91.7903 243.907 91.0766 244.448 90.3765 244.838C89.6738 245.231 88.6916 245.547 87.4477 245.763C86.2004 245.984 84.5351 246.096 82.4526 246.096H69ZM75.3775 232.113V240.607H83.5232C86.9133 240.607 88.616 239.054 88.616 235.957C88.616 234.664 88.1513 233.7 87.2319 233.068C86.3109 232.432 85.1707 232.113 83.8274 232.113H75.3775ZM75.3775 219.806V226.753H83.1655C84.5632 226.753 85.6957 226.459 86.5573 225.879C87.4197 225.295 87.8564 224.404 87.8564 223.21C87.8564 221.973 87.4477 221.095 86.6389 220.58C85.8215 220.066 84.6022 219.806 82.993 219.806H75.3775ZM120.209 228.743V241.489C120.209 242.774 120.33 243.67 120.56 244.167C120.791 244.664 121.134 245.006 121.578 245.166V246.096H114.899C114.614 245.213 114.418 244.275 114.327 243.302C113.325 244.331 112.267 245.162 111.158 245.78C110.042 246.403 108.557 246.715 106.704 246.715C105.464 246.715 104.291 246.468 103.204 245.984C102.111 245.495 101.225 244.729 100.559 243.704C99.8859 242.675 99.546 241.39 99.546 239.859C99.546 238.38 99.8383 237.103 100.419 236.04C101 234.976 101.806 234.141 102.819 233.544C103.831 232.947 105.031 232.536 106.406 232.337L111.984 231.497C113.423 231.299 114.146 230.68 114.146 229.637C114.146 228.501 113.756 227.752 112.986 227.415C112.208 227.068 111.238 226.896 110.081 226.896C108.714 226.896 107.765 227.207 107.246 227.826C106.722 228.448 106.396 229.231 106.268 230.174H100.286C100.507 227.925 101.134 226.19 102.146 224.979C103.158 223.768 104.386 222.951 105.82 222.549C107.258 222.138 108.926 221.934 110.816 221.934C112.215 221.934 113.626 222.115 115.027 222.483C116.43 222.851 117.65 223.547 118.673 224.56C119.698 225.572 120.209 226.969 120.209 228.743ZM114.146 237.64V234.629C113.487 235.153 112.084 235.585 109.944 235.918C109.058 236.07 108.309 236.26 107.713 236.489C107.113 236.718 106.636 237.069 106.279 237.536C105.924 237.999 105.74 238.644 105.74 239.457C105.74 240.421 106.039 241.139 106.631 241.594C107.229 242.052 107.89 242.281 108.608 242.281C109.541 242.281 110.431 242.091 111.279 241.71C112.129 241.33 112.818 240.785 113.349 240.084C113.876 239.379 114.146 238.566 114.146 237.644V237.64ZM147.699 229.811V246.096H141.507V231.801C141.507 230.988 141.432 230.252 141.282 229.603C141.132 228.954 140.759 228.379 140.162 227.891C139.563 227.402 138.665 227.156 137.47 227.156C136.55 227.156 135.716 227.363 134.98 227.773C134.243 228.189 133.663 228.816 133.241 229.637C132.818 230.46 132.605 231.455 132.605 232.605V246.096H126.411V222.549H132.335V226H132.42C134.031 223.292 136.399 221.934 139.511 221.934C141.075 221.934 142.48 222.237 143.715 222.843C144.957 223.443 145.935 224.343 146.637 225.52C147.343 226.705 147.699 228.137 147.699 229.811ZM160.505 238.661V246.096H154.311V214.313H160.505V231.489L168.29 222.549H175.899L167.577 231.675L176.124 246.096H168.693L163.074 236.005L160.505 238.661ZM192.948 246.096V214.313H209.017C211.575 214.313 213.606 214.832 215.1 215.853C216.596 216.878 217.626 218.085 218.182 219.46C218.74 220.836 219.023 222.125 219.023 223.305C219.023 225.083 218.586 226.666 217.724 228.033C216.855 229.404 215.64 230.356 214.098 230.875C215.093 231.299 215.872 231.766 216.417 232.254C216.971 232.744 217.395 233.505 217.689 234.517C217.981 235.529 218.133 237.008 218.133 238.924C218.133 240.728 218.154 241.996 218.195 242.735C218.24 243.471 218.362 244.042 218.552 244.418C218.74 244.803 219.08 245.084 219.551 245.257V246.096H212.202C211.735 244.517 211.502 242.372 211.502 239.681C211.502 238.047 211.397 236.826 211.203 236.026C211.006 235.226 210.541 234.629 209.816 234.244C209.092 233.855 207.918 233.661 206.313 233.661L199.453 233.661V246.096H192.948ZM199.453 228.301L207.241 228.301C208.999 228.301 210.299 227.959 211.127 227.293C211.954 226.619 212.375 225.512 212.375 223.968C212.375 222.864 212.035 221.895 211.359 221.056C210.679 220.226 209.464 219.806 207.728 219.806H199.453V228.301ZM238.929 239.184H245.3C244.552 241.801 243.209 243.717 241.286 244.915C239.359 246.109 237.245 246.715 234.949 246.715C233.248 246.715 231.678 246.49 230.256 246.04C228.836 245.59 227.594 244.859 226.541 243.86C225.49 242.856 224.666 241.507 224.09 239.837C223.517 238.164 223.224 236.156 223.224 233.829C223.224 232.847 223.355 231.714 223.609 230.451C223.868 229.18 224.378 227.886 225.14 226.584C225.898 225.278 227.054 224.175 228.595 223.279C230.137 222.38 232.114 221.934 234.506 221.934C235.806 221.934 237.099 222.125 238.365 222.5C239.636 222.882 240.822 223.544 241.903 224.482C242.99 225.416 243.875 226.757 244.552 228.483C245.231 230.208 245.57 232.355 245.57 234.906V236.005H229.422C229.503 236.961 229.677 237.839 229.917 238.626C230.159 239.418 230.687 240.136 231.487 240.776C232.292 241.425 233.448 241.749 234.949 241.749C235.847 241.749 236.686 241.52 237.445 241.066C238.205 240.607 238.704 239.979 238.923 239.184H238.929ZM229.594 231.973H239.196C239.039 230.243 238.492 228.985 237.573 228.202C236.646 227.419 235.587 227.03 234.409 227.03C231.58 227.03 229.975 228.678 229.594 231.973ZM269.739 229.711L263.683 229.72C263.523 228.756 263.16 227.994 262.61 227.449C262.057 226.9 261.027 226.627 259.522 226.627C256.983 226.627 255.712 227.398 255.712 228.933C255.712 229.72 256.551 230.33 258.22 230.754C259.894 231.182 261.685 231.61 263.588 232.043C265.483 232.48 267.109 233.193 268.445 234.184C269.778 235.17 270.454 236.654 270.454 238.622C270.454 240.715 269.886 242.372 268.765 243.579C267.637 244.786 266.296 245.616 264.739 246.053C263.181 246.49 261.642 246.715 260.128 246.715C257.022 246.715 254.38 246.083 252.2 244.816C250.019 243.548 248.886 241.464 248.806 238.574H255.179C255.179 240.871 256.893 242.022 260.319 242.022C261.733 242.022 262.749 241.762 263.35 241.256C263.951 240.75 264.259 240.192 264.259 239.595C264.259 238.743 263.385 238.094 261.642 237.657C259.899 237.211 258.117 236.775 256.299 236.356C254.481 235.936 252.917 235.235 251.613 234.262C250.307 233.284 249.651 231.801 249.651 229.811C249.651 228.535 249.95 227.293 250.547 226.095C251.146 224.901 252.165 223.907 253.586 223.12C255.011 222.332 256.867 221.934 259.159 221.934C265.829 221.934 269.358 224.529 269.739 229.72V229.711ZM281.427 234.859C281.427 236.784 281.867 238.392 282.768 239.681C283.662 240.97 285.034 241.619 286.859 241.619C288.087 241.619 289.082 241.243 289.844 240.494C290.601 239.747 291.145 238.834 291.47 237.753C291.79 236.671 291.954 235.585 291.954 234.503C291.954 232.432 291.53 230.715 290.691 229.343C289.853 227.976 288.512 227.293 286.686 227.293C283.174 227.293 281.423 229.815 281.423 234.859H281.427ZM281.427 222.549L281.423 225.965H281.508C282.274 224.746 283.182 223.768 284.216 223.037C285.259 222.302 286.703 221.934 288.546 221.934C289.861 221.934 291.11 222.185 292.283 222.692C293.46 223.197 294.506 223.963 295.416 224.975C296.323 225.987 297.042 227.263 297.552 228.782C298.071 230.299 298.33 232.064 298.33 234.062C298.33 236.303 297.97 238.397 297.27 240.33C296.565 242.264 295.458 243.808 293.969 244.971C292.482 246.131 290.623 246.715 288.416 246.715C285.402 246.715 283.182 245.499 281.781 243.077H281.686V255.266H275.491V222.549H281.427ZM324.586 222.549V246.096H318.651V242.778H318.565C317.863 244.046 316.895 245.023 315.675 245.693C314.456 246.373 313.024 246.715 311.402 246.715C309.819 246.715 308.426 246.403 307.223 245.789C306.012 245.166 305.069 244.206 304.403 242.912C303.729 241.619 303.39 239.989 303.39 238.047V222.549H309.584V237.159C309.584 240.049 310.935 241.489 313.608 241.489C314.862 241.489 315.978 241.07 316.942 240.244C317.907 239.418 318.392 238.042 318.392 236.131V222.549H324.586ZM347.381 234.503C347.381 232.432 346.965 230.715 346.126 229.343C345.287 227.976 343.946 227.293 342.112 227.293C338.582 227.293 336.813 229.815 336.813 234.859C336.813 236.775 337.267 238.384 338.176 239.673C339.085 240.97 340.464 241.619 342.302 241.619C343.522 241.619 344.513 241.243 345.274 240.494C346.031 239.747 346.576 238.834 346.901 237.753C347.22 236.671 347.381 235.585 347.381 234.503ZM337.078 214.313V225.619H337.163C338.751 223.162 341.031 221.934 343.981 221.934C345.296 221.934 346.541 222.185 347.718 222.692C348.89 223.197 349.936 223.963 350.845 224.975C351.753 225.987 352.472 227.263 352.986 228.782C353.501 230.299 353.761 232.064 353.761 234.062C353.761 236.303 353.402 238.397 352.7 240.33C351.995 242.264 350.892 243.808 349.401 244.971C347.913 246.131 346.061 246.715 343.85 246.715C340.659 246.715 338.384 245.517 337.034 243.138H336.947V246.096H330.884V214.313H337.078ZM365.149 246.096H358.955V214.313H365.149V246.096ZM371.927 222.549H378.121V246.096H371.927V222.549ZM378.121 219.759H371.927V214.001H378.121V219.759ZM391.093 238.661V246.096H384.9V214.313L391.093 214.313V231.489L398.879 222.549H406.483L398.165 231.675L406.709 246.096H399.278L393.662 236.005L391.093 238.661ZM429.054 228.743V241.489C429.054 242.774 429.174 243.67 429.404 244.167C429.632 244.664 429.979 245.006 430.42 245.166V246.096H423.747C423.456 245.213 423.266 244.275 423.171 243.302C422.172 244.331 421.112 245.162 420.004 245.78C418.888 246.403 417.401 246.715 415.549 246.715C414.312 246.715 413.135 246.468 412.05 245.984C410.955 245.495 410.073 244.729 409.407 243.704C408.733 242.675 408.39 241.39 408.39 239.859C408.39 238.38 408.685 237.103 409.27 236.04C409.848 234.976 410.653 234.141 411.666 233.544C412.677 232.947 413.879 232.536 415.254 232.337L420.831 231.497C422.271 231.299 422.993 230.68 422.993 229.637C422.993 228.501 422.6 227.752 421.83 227.415C421.056 227.068 420.082 226.896 418.928 226.896C417.556 226.896 416.609 227.207 416.095 227.826C415.567 228.448 415.243 229.231 415.117 230.174H409.13C409.35 227.925 409.977 226.19 410.99 224.979C412.002 223.768 413.231 222.951 414.667 222.549C416.102 222.138 417.772 221.934 419.663 221.934C421.059 221.934 422.471 222.115 423.871 222.483C425.277 222.851 426.493 223.547 427.522 224.56C428.542 225.572 429.054 226.969 429.054 228.743ZM422.993 237.64V234.629C422.332 235.153 420.93 235.585 418.789 235.918C417.903 236.07 417.159 236.26 416.558 236.489C415.961 236.718 415.481 237.069 415.125 237.536C414.77 237.999 414.589 238.644 414.589 239.457C414.589 240.421 414.883 241.139 415.481 241.594C416.077 242.052 416.735 242.281 417.452 242.281C418.386 242.281 419.278 242.091 420.126 241.71C420.974 241.33 421.665 240.785 422.193 240.084C422.721 239.379 422.993 238.566 422.993 237.644V237.64Z" fill="#485DC6"/>
</svg>
