<svg width="500" height="500" viewBox="0 0 500 500" fill="none" xmlns="http://www.w3.org/2000/svg">
<rect width="500" height="500" fill="#F0F0F0"/>
<path d="M202.888 227.293C203.019 226.787 203.161 226.281 203.313 225.775C203.424 225.392 203.535 225.018 203.666 224.633C203.697 224.522 203.737 224.401 203.778 224.289C203.787 224.268 203.787 224.248 203.798 224.228C203.878 224.006 203.949 223.774 204.03 223.551C204.101 223.318 204.182 223.095 204.273 222.873C204.404 222.499 204.545 222.124 204.697 221.761C204.859 221.336 205.03 220.921 205.212 220.506C205.303 220.294 205.394 220.091 205.475 219.889C205.565 219.686 205.657 219.484 205.758 219.282C205.889 218.979 206.03 218.674 206.183 218.382C206.273 218.18 206.364 217.967 206.475 217.765C206.637 217.451 206.789 217.137 206.96 216.835C207.021 216.713 207.091 216.591 207.153 216.47C207.233 216.318 207.314 216.167 207.405 216.025C207.576 215.702 207.759 215.377 207.95 215.063C208.133 214.741 208.324 214.427 208.516 214.113C208.668 213.86 208.83 213.618 208.981 213.375C209.092 213.203 209.204 213.031 209.315 212.859C209.446 212.657 209.577 212.454 209.719 212.252C209.881 212.009 210.052 211.766 210.224 211.523C210.537 211.079 210.861 210.634 211.195 210.189C211.305 210.047 211.406 209.905 211.527 209.774C211.588 209.693 211.658 209.602 211.72 209.52C211.942 209.228 212.174 208.934 212.417 208.651C212.669 208.338 212.932 208.034 213.194 207.731C213.7 207.144 214.215 206.578 214.751 206.022C215.003 205.738 215.276 205.464 215.559 205.192C215.973 204.777 216.398 204.372 216.822 203.968C217.256 203.574 217.681 203.179 218.125 202.794C218.125 202.784 218.135 202.784 218.146 202.774C219.318 201.763 220.54 200.802 221.803 199.902L221.823 199.881C222.318 199.527 222.823 199.183 223.339 198.849C223.844 198.516 224.359 198.192 224.885 197.879C225.279 197.646 225.673 197.413 226.078 197.18C226.875 196.725 227.694 196.3 228.513 195.896C228.926 195.693 229.341 195.491 229.765 195.298C230.331 195.046 230.897 194.793 231.463 194.561C232.039 194.328 232.615 194.105 233.201 193.883C233.525 193.761 233.857 193.65 234.191 193.529C239.688 191.647 245.618 190.716 251.802 190.939C273.89 191.738 292.441 207.579 297.402 228.477C297.483 228.82 297.565 229.164 297.635 229.508C297.635 229.529 297.645 229.549 297.645 229.569C297.786 230.267 297.917 230.966 298.039 231.663C298.079 231.927 298.12 232.199 298.17 232.472C298.17 232.523 298.181 232.574 298.191 232.624C298.191 232.654 298.201 232.695 298.201 232.725C298.211 232.755 298.221 232.796 298.221 232.826C298.261 233.18 298.312 233.535 298.352 233.888C298.403 234.263 298.443 234.637 298.473 235.012C298.544 235.79 298.595 236.569 298.635 237.357C298.646 237.51 298.656 237.671 298.656 237.823C298.656 237.985 298.665 238.147 298.665 238.298C298.676 238.419 298.676 238.542 298.676 238.663C298.686 238.784 298.686 238.915 298.686 239.037C298.696 239.239 298.696 239.431 298.696 239.634V239.664C298.686 257.032 289.632 271.699 276.851 280.297C271.5 283.896 263.856 285.486 257.431 284.848L257.309 284.839L257.248 284.829C256.844 284.799 256.441 284.748 256.046 284.686C255.581 284.616 255.116 284.535 254.652 284.444C245.639 282.715 238.728 277.576 233.827 269.99C233.817 269.98 233.817 269.969 233.807 269.959C231.645 266.52 230.079 262.646 229.24 258.519C228.694 255.808 228.533 253.027 228.906 250.285C229.745 244.013 232.665 239.776 236.677 236.974C237.243 236.579 238.445 235.83 239.091 235.558C239.122 235.547 239.143 235.538 239.163 235.527C239.485 235.385 239.809 235.264 240.143 235.163C240.91 234.899 241.739 234.849 242.547 234.768C242.547 234.758 242.557 234.758 242.557 234.758C242.981 234.718 243.719 234.486 244.062 234.242C245.73 233.049 248.046 231.423 249.479 231.096C250.657 230.828 252.056 230.685 253.551 230.823C257.278 231.168 260.734 232.624 262.937 233.19C265.14 233.757 269.524 234.647 270.849 236.023C272.162 237.408 272.778 237.621 272.809 238.238L272.839 239.977L272.809 241.141C272.778 241.758 272.162 241.97 270.849 243.356C269.808 244.438 266.868 245.218 264.594 245.784C263.977 245.935 263.402 246.067 262.937 246.189C260.734 246.755 257.267 248.114 253.551 248.555C251.996 248.74 250.682 248.613 249.479 248.272C248.217 247.915 247.236 246.674 246.236 245.399C244.71 243.427 240.991 244.166 239.91 246.411C238.768 248.768 238.485 251.104 238.465 253.694C238.455 254.715 238.647 255.727 238.809 256.698C240.244 263.262 244.337 268.542 250.175 270.748C255.125 272.619 262.375 272.085 266.483 270.273C278.914 264.79 283.61 254.139 284.328 241.607V241.576C284.348 240.938 284.358 240.301 284.358 239.654C284.358 238.835 284.328 238.026 284.277 237.227C283.863 231.39 282.014 225.958 279.053 221.285H279.043C272.96 211.645 262.219 205.252 249.994 205.252C231.049 205.252 214.846 220.798 215.74 242.405V242.526C215.74 266.662 230.361 283.797 247.448 288.309C221.753 286.973 201.312 265.69 201.312 239.634V239.098C201.302 239.078 201.302 239.067 201.312 239.058C201.322 238.794 201.322 238.522 201.332 238.258C201.332 237.985 201.342 237.712 201.363 237.438C201.372 237.075 201.393 236.721 201.423 236.356C201.473 235.578 201.545 234.798 201.636 234.03C201.656 233.787 201.686 233.545 201.726 233.302V233.281C201.767 232.866 201.827 232.463 201.898 232.058C201.949 231.703 202.009 231.359 202.07 231.006C202.141 230.611 202.221 230.206 202.302 229.812C202.323 229.68 202.353 229.549 202.383 229.418C202.413 229.265 202.444 229.114 202.484 228.963C202.606 228.426 202.747 227.83 202.888 227.293Z" fill="#FFB000"/>
<path d="M138.696 274.389C119.486 274.389 103.913 258.817 103.913 239.607C103.913 220.397 119.486 204.824 138.696 204.824C157.906 204.824 173.478 220.397 173.478 239.607C173.478 258.817 157.906 274.389 138.696 274.389ZM138.696 190.911C125.066 190.911 112.752 196.517 103.913 205.541V176.999H90V239.607C90 266.501 111.802 288.303 138.696 288.303C165.59 288.303 187.392 266.501 187.392 239.607C187.392 212.713 165.59 190.911 138.696 190.911Z" fill="#202020"/>
<path d="M361.304 274.39C342.094 274.39 326.522 258.818 326.522 239.608C326.522 220.398 342.094 204.825 361.304 204.825C380.514 204.825 396.087 220.398 396.087 239.608C396.087 258.818 380.514 274.39 361.304 274.39ZM361.304 190.912C334.41 190.912 312.608 212.714 312.608 239.608C312.608 266.502 334.41 288.304 361.304 288.304C374.934 288.304 387.248 282.698 396.087 273.674V288.309H410V239.608C410 212.714 388.198 190.912 361.304 190.912Z" fill="#202020"/>
<path d="M266.268 236.35L266.248 236.281C266.088 235.494 265.303 234.875 264.358 234.781C264.265 234.772 264.173 234.762 264.079 234.775C263.243 234.78 262.497 235.212 262.205 235.878L262.172 235.941L262.266 235.939C262.6 235.907 262.948 235.886 263.291 235.898C263.437 235.891 263.582 235.894 263.728 235.898C263.9 235.904 264.071 235.921 264.241 235.938C264.582 235.972 264.923 236.017 265.246 236.093C265.558 236.157 265.87 236.232 266.177 236.33L266.268 236.35Z" fill="#202020"/>
<path d="M266.177 242.886C265.869 242.984 265.558 243.059 265.247 243.123C264.923 243.199 264.582 243.244 264.241 243.278C264.07 243.295 263.9 243.312 263.729 243.318C263.582 243.322 263.437 243.325 263.291 243.318C262.947 243.33 262.6 243.31 262.266 243.277L262.172 243.275L262.206 243.338C262.497 244.004 263.244 244.436 264.079 244.441C264.173 244.453 264.266 244.444 264.358 244.435C265.303 244.341 266.088 243.722 266.249 242.935L266.269 242.866L266.177 242.886Z" fill="#202020"/>
<path d="M169.304 317.786H173.174L171.248 313.087L169.304 317.786ZM170.286 310.085H172.324L177.911 323.334H175.439L174.061 319.956H168.417L167.039 323.334H164.699L170.286 310.085Z" fill="#202020"/>
<path d="M203.818 316.22H209.178V321.692C208.009 322.863 205.876 323.543 204.233 323.543C199.911 323.543 197.345 320.844 197.345 316.73C197.345 312.935 199.892 309.915 203.932 309.915C205.819 309.915 207.102 310.405 208.178 311.255L207.197 313.105C206.536 312.482 205.366 312.086 204.214 312.086C201.666 312.086 199.798 313.784 199.798 316.73C199.798 319.541 201.59 321.373 204.271 321.373C205.29 321.373 206.517 320.938 207.008 320.466V318.39H203.818V316.22Z" fill="#202020"/>
<path d="M230.934 310.122H238.578V312.292H233.255V315.577H238.012V317.747H233.255V321.164H238.766V323.334H230.934V310.122Z" fill="#202020"/>
<path d="M270.109 323.334L262.842 314.181V323.334H260.671V310.122H262.521L269.788 319.314V310.122H271.959V323.334H270.109Z" fill="#202020"/>
<path d="M304.566 322.053C303.737 322.94 302.056 323.543 300.339 323.543C296.3 323.543 293.525 320.845 293.525 316.731C293.525 312.935 295.922 309.916 300.283 309.916C302 309.916 303.434 310.463 304.303 311.256L303.265 312.973C302.472 312.445 301.604 312.087 300.283 312.087C297.829 312.087 295.979 313.86 295.979 316.731C295.979 319.485 297.847 321.373 300.546 321.373C301.661 321.373 302.774 321.014 303.68 320.316L304.566 322.053Z" fill="#202020"/>
<path d="M330.626 317.824V323.334H328.304V317.824L323.641 310.122H326.284L329.567 315.653L332.816 310.122H335.325L330.626 317.824Z" fill="#202020"/>
</svg>
