<svg width="500" height="500" viewBox="0 0 500 500" fill="none" xmlns="http://www.w3.org/2000/svg">
<rect width="500" height="500" fill="#F0F0F0"/>
<path d="M217.094 235.483C217.094 232.191 217.886 228.622 219.471 224.775C221.065 220.926 223.412 217.278 226.526 213.824C229.643 210.371 233.449 207.579 237.948 205.452C242.453 203.327 247.538 202.262 253.211 202.262C256.233 202.262 259.491 202.728 262.995 203.661C266.493 204.595 269.788 205.926 272.889 207.66C275.986 209.395 278.734 211.514 281.122 214.019C283.511 216.527 285.247 219.324 286.322 222.413H271.654C266.315 216.906 260.222 214.152 253.374 214.152C249.273 214.152 245.41 215.201 241.786 217.295C238.156 219.392 235.265 222.166 233.108 225.617C230.946 229.065 229.866 232.698 229.866 236.51C229.866 239.8 230.498 242.843 231.761 245.636C233.027 248.434 234.788 250.865 237.039 252.931C239.29 254.999 241.844 256.586 244.698 257.691C247.553 258.798 250.442 259.367 253.374 259.395C256.71 259.306 259.862 258.606 262.84 257.295C265.815 255.983 268.478 254.119 270.823 251.701H285.955C284.35 255.177 282.195 258.212 279.482 260.814C276.768 263.413 273.862 265.464 270.763 266.967C267.663 268.473 264.464 269.582 261.166 270.298C257.867 271.011 254.771 271.371 251.868 271.371C245.55 270.934 239.79 269.243 234.596 266.301C229.401 263.358 225.254 259.257 222.156 253.997C219.056 248.735 217.372 242.564 217.094 235.483Z" fill="#9F1A40"/>
<path d="M293.383 269.754V203.484H311.011L329.874 254.19L348.876 203.484H366.735V269.754H353.732V219.878L335.467 269.754H324.467L306.387 219.878V269.754H293.383Z" fill="#9F1A40"/>
<path d="M373.79 215.462V203.484H426.971V215.462H406.722V269.753H393.809L393.621 215.462H373.79Z" fill="#9F1A40"/>
<path fill-rule="evenodd" clip-rule="evenodd" d="M135.754 187L199.219 250.467L135.754 313.921V187Z" fill="#134059"/>
<path fill-rule="evenodd" clip-rule="evenodd" d="M129.052 250.832L73 251.173L129.052 307.215V250.832Z" fill="#D1C7C7"/>
<path fill-rule="evenodd" clip-rule="evenodd" d="M129.051 193.125L78.3291 243.852H129.051V193.125Z" fill="#9F1A40"/>
<path fill-rule="evenodd" clip-rule="evenodd" d="M227.085 283.808C227.075 283.939 227.065 284.065 227.059 284.19C227.055 284.316 227.044 284.441 227.034 284.572C226.999 285.175 226.914 285.739 226.783 286.266C226.652 286.794 226.446 287.247 226.165 287.628C225.878 288.015 225.511 288.317 225.054 288.533C224.596 288.755 224.023 288.865 223.324 288.865C222.309 288.865 221.51 288.709 220.932 288.403C220.354 288.096 219.916 287.669 219.63 287.121C219.339 286.578 219.158 285.93 219.087 285.18C219.017 284.432 218.981 283.612 218.981 282.727V280.827C219.007 279.978 219.057 279.189 219.142 278.47C219.223 277.751 219.409 277.128 219.7 276.6C219.987 276.072 220.419 275.665 220.987 275.368C221.555 275.072 222.334 274.926 223.324 274.926C225.572 274.961 226.788 276.107 226.964 278.364C226.989 278.53 227.004 278.696 227.019 278.867C227.03 279.043 227.03 279.209 227.014 279.375H224.566C224.541 279.163 224.521 278.917 224.506 278.63C224.491 278.344 224.446 278.078 224.375 277.831C224.3 277.585 224.184 277.369 224.028 277.193C223.868 277.017 223.631 276.927 223.324 276.927C222.842 276.927 222.475 277.052 222.229 277.308C221.982 277.565 221.807 277.867 221.706 278.223C221.606 278.58 221.55 278.942 221.545 279.319C221.54 279.696 221.535 280.018 221.535 280.279V283.969C221.535 284.24 221.55 284.542 221.58 284.879C221.61 285.216 221.681 285.532 221.796 285.819C221.907 286.111 222.083 286.357 222.324 286.558C222.566 286.759 222.897 286.859 223.324 286.859C223.671 286.859 223.923 286.739 224.089 286.502C224.255 286.266 224.37 285.985 224.446 285.653C224.516 285.321 224.556 284.985 224.561 284.643C224.566 284.301 224.571 284.024 224.586 283.808H227.085ZM226.961 288.543L230.133 275.243H233.485L236.501 288.543H233.842L233.184 285.175H230.273L229.62 288.543H226.961ZM230.665 283.225H232.792L232.118 279.445C232.063 279.138 232.017 278.832 231.982 278.525C231.947 278.219 231.907 277.907 231.872 277.6C231.857 277.444 231.847 277.294 231.837 277.148C231.822 277.002 231.807 276.856 231.781 276.715H231.746C231.721 276.856 231.706 277.002 231.696 277.148C231.681 277.294 231.671 277.444 231.661 277.6C231.625 277.907 231.59 278.219 231.555 278.525C231.52 278.832 231.47 279.138 231.409 279.445L230.665 283.225ZM241.872 279.284C241.872 278.988 241.862 278.701 241.846 278.414C241.826 278.133 241.766 277.882 241.665 277.66C241.565 277.444 241.419 277.263 241.223 277.128C241.027 276.992 240.761 276.927 240.419 276.927C240.002 276.927 239.67 277.022 239.424 277.208C239.177 277.399 239.051 277.721 239.051 278.168C239.051 278.414 239.092 278.63 239.167 278.816C239.243 279.003 239.343 279.163 239.469 279.304C239.595 279.445 239.745 279.576 239.921 279.691C240.097 279.812 240.283 279.937 240.469 280.068C240.67 280.199 240.911 280.35 241.188 280.526C241.464 280.702 241.746 280.893 242.032 281.094C242.314 281.295 242.58 281.496 242.837 281.697C243.093 281.898 243.31 282.084 243.485 282.25C243.913 282.662 244.204 283.084 244.365 283.517C244.521 283.949 244.601 284.452 244.601 285.03C244.601 285.658 244.501 286.211 244.3 286.688C244.099 287.166 243.817 287.568 243.46 287.885C243.098 288.207 242.666 288.453 242.163 288.619C241.661 288.785 241.108 288.865 240.504 288.865C239.761 288.865 239.132 288.765 238.619 288.563C238.102 288.362 237.684 288.086 237.368 287.729C237.051 287.372 236.82 286.95 236.679 286.452C236.533 285.954 236.463 285.412 236.463 284.819V283.843H238.946V284.623C238.921 285.271 239.022 285.809 239.248 286.226C239.474 286.648 239.891 286.859 240.504 286.859C241.535 286.859 242.048 286.337 242.048 285.296C242.048 284.909 241.962 284.572 241.791 284.296C241.62 284.019 241.374 283.768 241.057 283.542C240.736 283.296 240.399 283.054 240.047 282.823C239.69 282.592 239.338 282.356 238.991 282.119C238.644 281.883 238.308 281.637 237.991 281.37C237.669 281.104 237.383 280.807 237.136 280.475C236.709 279.847 236.498 279.168 236.498 278.435C236.498 277.288 236.82 276.419 237.458 275.821C238.096 275.222 239.077 274.926 240.399 274.926C241.062 274.926 241.615 275.001 242.058 275.152C242.5 275.308 242.867 275.509 243.159 275.765C243.445 276.022 243.666 276.303 243.812 276.615C243.958 276.932 244.068 277.248 244.134 277.575C244.199 277.902 244.234 278.208 244.249 278.505C244.259 278.802 244.265 279.058 244.265 279.284H241.872ZM245.593 288.543V275.243H250.665C251.253 275.243 251.751 275.353 252.153 275.569C252.555 275.791 252.877 276.077 253.113 276.429C253.349 276.786 253.515 277.188 253.616 277.646C253.716 278.103 253.767 278.56 253.767 279.023C253.767 279.304 253.747 279.591 253.706 279.887C253.666 280.184 253.601 280.47 253.505 280.747C253.41 281.023 253.279 281.285 253.123 281.526C252.962 281.772 252.761 281.989 252.525 282.179C252.138 282.486 251.696 282.697 251.208 282.813C250.715 282.933 250.228 282.989 249.74 282.974H248.076V288.543H245.593ZM248.076 281.023H249.403C249.951 281.023 250.389 280.877 250.72 280.586C251.047 280.3 251.213 279.751 251.213 278.947C251.213 278.57 251.173 278.269 251.098 278.037C251.022 277.806 250.901 277.63 250.736 277.505C250.57 277.379 250.364 277.299 250.117 277.253C249.866 277.213 249.564 277.193 249.212 277.193H248.076V281.023ZM254.402 288.543V275.243H256.885V288.543H254.402ZM261.267 284.019V281.983H265.489V284.019H261.267ZM272.299 288.543H269.816V275.243H273.772L275.104 281.416C275.21 281.923 275.295 282.431 275.37 282.938C275.441 283.446 275.506 283.964 275.562 284.482H275.597C275.657 283.823 275.713 283.255 275.768 282.778C275.823 282.305 275.894 281.853 275.989 281.416L277.321 275.243H281.257V288.543H278.774V284.356C278.774 283.034 278.789 281.712 278.819 280.395C278.849 279.078 278.904 277.756 278.985 276.434H278.95L276.29 288.543H274.782L272.179 276.434H272.088C272.174 277.756 272.229 279.078 272.259 280.395C272.284 281.712 272.299 283.034 272.299 284.356V288.543ZM281.525 288.543L284.697 275.243H288.05L291.066 288.543H288.407L287.748 285.175H284.838L284.184 288.543H281.525ZM285.23 283.225H287.357L286.683 279.445C286.627 279.138 286.582 278.832 286.547 278.525C286.512 278.219 286.472 277.907 286.437 277.6C286.421 277.444 286.411 277.294 286.401 277.148C286.386 277.002 286.371 276.856 286.346 276.715H286.311C286.286 276.856 286.271 277.002 286.26 277.148C286.245 277.294 286.235 277.444 286.225 277.6C286.19 277.907 286.155 278.219 286.12 278.525C286.085 278.832 286.034 279.138 285.974 279.445L285.23 283.225ZM293.812 282.818V288.543H291.329V275.243H296.029C296.557 275.243 297.055 275.293 297.517 275.393C297.98 275.494 298.382 275.67 298.718 275.916C299.055 276.162 299.317 276.494 299.513 276.901C299.709 277.308 299.804 277.821 299.804 278.435C299.804 278.802 299.779 279.163 299.724 279.515C299.669 279.872 299.568 280.194 299.417 280.49C299.261 280.787 299.055 281.038 298.789 281.244C298.522 281.451 298.181 281.586 297.763 281.647V281.682C298.497 281.777 299 282.039 299.271 282.476C299.543 282.913 299.679 283.456 299.679 284.095C299.679 284.19 299.679 284.346 299.679 284.572C299.679 284.798 299.684 285.055 299.689 285.341C299.694 285.633 299.709 285.94 299.729 286.256C299.744 286.573 299.774 286.874 299.809 287.151C299.844 287.427 299.895 287.669 299.965 287.875C300.036 288.081 300.116 288.222 300.211 288.297V288.543H297.482C297.412 288.327 297.361 288.076 297.326 287.779C297.291 287.483 297.261 287.181 297.246 286.865C297.226 286.553 297.215 286.251 297.215 285.954C297.215 285.658 297.215 285.401 297.215 285.175C297.215 284.974 297.21 284.758 297.2 284.527C297.185 284.296 297.155 284.075 297.1 283.869C297.045 283.663 296.964 283.481 296.854 283.32C296.738 283.16 296.577 283.049 296.366 282.994C296.019 282.898 295.672 282.848 295.32 282.833C294.964 282.823 294.612 282.818 294.255 282.818H293.812ZM293.812 280.863H295.763C296.175 280.837 296.522 280.682 296.798 280.385C297.075 280.088 297.215 279.611 297.215 278.947C297.215 278.57 297.175 278.274 297.1 278.048C297.025 277.821 296.919 277.646 296.783 277.52C296.647 277.394 296.481 277.308 296.295 277.263C296.105 277.218 295.893 277.193 295.657 277.193H293.812V280.863ZM301.148 288.543V275.243H303.632V288.543H301.148ZM310.942 275.243H313.425V288.543H310.836L308.901 283.808C308.569 283.019 308.263 282.199 307.986 281.36C307.71 280.521 307.424 279.576 307.127 278.525H307.092C307.137 279.083 307.187 279.686 307.238 280.335C307.283 280.983 307.323 281.647 307.358 282.32C307.393 282.994 307.424 283.647 307.448 284.286C307.474 284.924 307.484 285.512 307.484 286.045V288.543H305V275.243H307.569L309.505 280.083C309.821 280.852 310.123 281.657 310.409 282.486C310.696 283.321 310.982 284.281 311.279 285.372H311.314C311.269 284.768 311.223 284.145 311.183 283.506C311.138 282.868 311.098 282.23 311.063 281.591C311.028 280.953 311.002 280.324 310.977 279.696C310.952 279.068 310.942 278.455 310.942 277.852V275.243ZM314.699 288.543V275.243H321.686V277.193H317.182V280.546H321.33V282.496H317.182V286.593H321.686V288.543H314.699ZM325.038 275.243H333.317V277.193H330.426V288.543H327.948V277.193H325.038V275.243ZM333.675 288.543V275.243H340.663V277.193H336.159V280.546H340.306V282.496H336.159V286.593H340.663V288.543H333.675ZM349.421 283.808C349.411 283.939 349.401 284.065 349.396 284.19C349.391 284.316 349.38 284.441 349.371 284.572C349.335 285.175 349.25 285.739 349.119 286.266C348.988 286.794 348.783 287.247 348.501 287.628C348.214 288.015 347.847 288.317 347.39 288.533C346.932 288.755 346.359 288.865 345.661 288.865C344.645 288.865 343.846 288.709 343.268 288.403C342.69 288.096 342.253 287.669 341.966 287.121C341.675 286.578 341.494 285.93 341.423 285.18C341.353 284.432 341.318 283.612 341.318 282.727V280.827C341.343 279.978 341.393 279.189 341.479 278.47C341.559 277.751 341.745 277.128 342.036 276.6C342.323 276.072 342.755 275.665 343.323 275.368C343.891 275.072 344.67 274.926 345.661 274.926C347.908 274.961 349.124 276.107 349.3 278.364C349.325 278.53 349.34 278.696 349.355 278.867C349.366 279.043 349.366 279.209 349.351 279.375H346.903C346.877 279.163 346.857 278.917 346.842 278.63C346.827 278.344 346.782 278.078 346.711 277.831C346.636 277.585 346.52 277.369 346.364 277.193C346.204 277.017 345.968 276.927 345.661 276.927C345.178 276.927 344.811 277.052 344.565 277.308C344.319 277.565 344.143 277.867 344.042 278.223C343.942 278.58 343.887 278.942 343.881 279.319C343.876 279.696 343.871 280.018 343.871 280.279V283.969C343.871 284.24 343.887 284.542 343.916 284.879C343.947 285.216 344.017 285.532 344.133 285.819C344.243 286.111 344.419 286.357 344.661 286.558C344.902 286.759 345.234 286.859 345.661 286.859C346.008 286.859 346.259 286.739 346.425 286.502C346.591 286.266 346.706 285.985 346.782 285.653C346.852 285.321 346.892 284.985 346.897 284.643C346.903 284.301 346.907 284.024 346.923 283.808H349.421ZM350.342 288.543V275.243H352.825V280.511H356.299V275.243H358.782V288.543H356.299V282.461H352.825V288.543H350.342ZM366.053 275.243H368.536V288.543H365.947L364.012 283.808C363.68 283.019 363.374 282.199 363.097 281.36C362.821 280.521 362.534 279.576 362.238 278.525H362.202C362.248 279.083 362.298 279.686 362.348 280.335C362.393 280.983 362.434 281.647 362.469 282.32C362.504 282.994 362.534 283.647 362.559 284.286C362.585 284.924 362.594 285.512 362.594 286.045V288.543H360.111V275.243H362.68L364.615 280.083C364.932 280.852 365.234 281.657 365.52 282.486C365.807 283.321 366.093 284.281 366.39 285.372H366.425C366.38 284.768 366.334 284.145 366.294 283.506C366.249 282.868 366.209 282.23 366.174 281.591C366.138 280.953 366.113 280.324 366.088 279.696C366.063 279.068 366.053 278.455 366.053 277.852V275.243ZM369.755 280.827C369.78 279.978 369.83 279.189 369.915 278.47C370.001 277.751 370.187 277.128 370.479 276.6C370.765 276.072 371.192 275.665 371.76 275.368C372.328 275.072 373.108 274.926 374.103 274.926C375.093 274.926 375.877 275.072 376.445 275.368C377.013 275.665 377.44 276.072 377.727 276.6C378.013 277.128 378.2 277.751 378.285 278.47C378.371 279.189 378.421 279.978 378.446 280.827V282.727C378.446 283.612 378.411 284.432 378.34 285.18C378.265 285.93 378.084 286.578 377.798 287.121C377.511 287.669 377.073 288.096 376.496 288.403C375.917 288.709 375.118 288.865 374.103 288.865C373.082 288.865 372.283 288.709 371.705 288.403C371.127 288.096 370.689 287.669 370.403 287.121C370.116 286.578 369.935 285.93 369.865 285.18C369.79 284.432 369.755 283.612 369.755 282.727V280.827ZM372.308 283.969C372.308 284.24 372.323 284.542 372.354 284.879C372.383 285.216 372.454 285.532 372.57 285.819C372.68 286.111 372.856 286.357 373.102 286.558C373.344 286.759 373.676 286.859 374.103 286.859C374.55 286.859 374.897 286.759 375.133 286.558C375.37 286.357 375.545 286.1 375.661 285.784C375.777 285.472 375.847 285.135 375.867 284.773C375.882 284.417 375.892 284.075 375.892 283.753V280.35C375.892 280.078 375.887 279.751 375.877 279.364C375.862 278.982 375.802 278.606 375.691 278.239C375.576 277.872 375.399 277.565 375.158 277.308C374.912 277.052 374.56 276.927 374.103 276.927C373.615 276.927 373.248 277.052 373.002 277.308C372.756 277.565 372.58 277.867 372.479 278.223C372.378 278.58 372.323 278.942 372.318 279.319C372.313 279.696 372.308 280.018 372.308 280.279V283.969ZM379.649 288.543V275.243H382.132V286.593H386.742V288.543H379.649ZM387.327 280.827C387.352 279.978 387.402 279.189 387.488 278.47C387.573 277.751 387.759 277.128 388.051 276.6C388.337 276.072 388.764 275.665 389.332 275.368C389.9 275.072 390.68 274.926 391.675 274.926C392.665 274.926 393.449 275.072 394.017 275.368C394.585 275.665 395.013 276.072 395.299 276.6C395.586 277.128 395.772 277.751 395.857 278.47C395.943 279.189 395.993 279.978 396.018 280.827V282.727C396.018 283.612 395.983 284.432 395.912 285.18C395.837 285.93 395.656 286.578 395.37 287.121C395.083 287.669 394.646 288.096 394.068 288.403C393.489 288.709 392.69 288.865 391.675 288.865C390.654 288.865 389.855 288.709 389.277 288.403C388.699 288.096 388.262 287.669 387.975 287.121C387.689 286.578 387.508 285.93 387.437 285.18C387.362 284.432 387.327 283.612 387.327 282.727V280.827ZM389.88 283.969C389.88 284.24 389.895 284.542 389.926 284.879C389.956 285.216 390.026 285.532 390.142 285.819C390.252 286.111 390.428 286.357 390.674 286.558C390.916 286.759 391.248 286.859 391.675 286.859C392.122 286.859 392.469 286.759 392.706 286.558C392.942 286.357 393.117 286.1 393.233 285.784C393.349 285.472 393.419 285.135 393.439 284.773C393.454 284.417 393.464 284.075 393.464 283.753V280.35C393.464 280.078 393.46 279.751 393.449 279.364C393.434 278.982 393.374 278.606 393.263 278.239C393.148 277.872 392.972 277.565 392.73 277.308C392.484 277.052 392.132 276.927 391.675 276.927C391.187 276.927 390.82 277.052 390.574 277.308C390.328 277.565 390.152 277.867 390.051 278.223C389.951 278.58 389.895 278.942 389.891 279.319C389.885 279.696 389.88 280.018 389.88 280.279V283.969ZM396.99 280.827C397.015 279.978 397.066 279.189 397.151 278.47C397.232 277.751 397.417 277.128 397.709 276.6C397.995 276.072 398.428 275.665 398.996 275.368C399.564 275.072 400.343 274.926 401.333 274.926C401.866 274.926 402.359 274.971 402.806 275.057C403.253 275.147 403.656 275.298 404.003 275.509C404.349 275.725 404.651 276.012 404.907 276.379C405.164 276.746 405.36 277.218 405.5 277.796C405.561 278.068 405.596 278.334 405.601 278.601C405.606 278.867 405.616 279.138 405.626 279.41H403.143C403.133 279.068 403.113 278.751 403.083 278.46C403.052 278.173 402.977 277.917 402.861 277.691C402.741 277.464 402.565 277.283 402.329 277.148C402.092 277.012 401.761 276.942 401.333 276.927C400.851 276.927 400.484 277.052 400.237 277.308C399.991 277.565 399.815 277.867 399.715 278.223C399.614 278.58 399.559 278.942 399.554 279.319C399.549 279.696 399.544 280.018 399.544 280.279V283.969C399.544 284.24 399.559 284.542 399.589 284.879C399.619 285.216 399.689 285.532 399.805 285.819C399.916 286.111 400.092 286.357 400.333 286.558C400.574 286.759 400.906 286.859 401.333 286.859C401.69 286.859 401.987 286.769 402.233 286.593C402.474 286.417 402.665 286.171 402.806 285.854C402.947 285.542 403.042 285.171 403.098 284.738C403.153 284.311 403.173 283.843 403.163 283.346H401.444V281.395H405.571V288.543H403.711V287.02H403.676C403.56 287.362 403.409 287.649 403.233 287.875C403.057 288.106 402.861 288.292 402.655 288.433C402.449 288.579 402.233 288.684 402.007 288.749C401.781 288.815 401.559 288.85 401.333 288.865C400.318 288.865 399.518 288.709 398.941 288.403C398.362 288.096 397.925 287.669 397.639 287.121C397.347 286.578 397.166 285.93 397.096 285.18C397.025 284.432 396.99 283.612 396.99 282.727V280.827ZM407.005 288.543V275.243H409.489V288.543H407.005ZM410.787 288.543V275.243H417.774V277.193H413.27V280.546H417.418V282.496H413.27V286.593H417.774V288.543H410.787ZM423.733 279.284C423.733 278.988 423.723 278.701 423.707 278.414C423.687 278.133 423.627 277.882 423.526 277.66C423.426 277.444 423.28 277.263 423.084 277.128C422.888 276.992 422.622 276.927 422.28 276.927C421.863 276.927 421.531 277.022 421.285 277.208C421.038 277.399 420.913 277.721 420.913 278.168C420.913 278.414 420.953 278.63 421.028 278.816C421.104 279.003 421.204 279.163 421.33 279.304C421.456 279.445 421.606 279.576 421.782 279.691C421.958 279.812 422.144 279.937 422.33 280.068C422.531 280.199 422.772 280.35 423.049 280.526C423.325 280.702 423.607 280.893 423.893 281.094C424.175 281.295 424.441 281.496 424.698 281.697C424.954 281.898 425.171 282.084 425.346 282.25C425.774 282.662 426.065 283.084 426.226 283.517C426.382 283.949 426.462 284.452 426.462 285.03C426.462 285.658 426.362 286.211 426.161 286.688C425.96 287.166 425.678 287.568 425.321 287.885C424.959 288.207 424.527 288.453 424.024 288.619C423.522 288.785 422.969 288.865 422.365 288.865C421.622 288.865 420.993 288.765 420.481 288.563C419.963 288.362 419.545 288.086 419.229 287.729C418.912 287.372 418.681 286.95 418.54 286.452C418.394 285.954 418.324 285.412 418.324 284.819V283.843H420.807V284.623C420.782 285.271 420.883 285.809 421.109 286.226C421.335 286.648 421.752 286.859 422.365 286.859C423.396 286.859 423.909 286.337 423.909 285.296C423.909 284.909 423.823 284.572 423.652 284.296C423.481 284.019 423.235 283.768 422.918 283.542C422.597 283.296 422.26 283.054 421.908 282.823C421.551 282.592 421.199 282.356 420.852 282.119C420.505 281.883 420.169 281.637 419.852 281.37C419.53 281.104 419.244 280.807 418.997 280.475C418.57 279.847 418.359 279.168 418.359 278.435C418.359 277.288 418.681 276.419 419.319 275.821C419.957 275.222 420.938 274.926 422.26 274.926C422.923 274.926 423.476 275.001 423.919 275.152C424.361 275.308 424.728 275.509 425.02 275.765C425.306 276.022 425.527 276.303 425.673 276.615C425.819 276.932 425.929 277.248 425.995 277.575C426.06 277.902 426.095 278.208 426.11 278.505C426.12 278.802 426.126 279.058 426.126 279.284H423.733Z" fill="#134059"/>
</svg>
