<svg width="500" height="500" viewBox="0 0 500 500" fill="none" xmlns="http://www.w3.org/2000/svg">
<rect width="500" height="500" fill="#F0F0F0"/>
<path d="M179.4 397C179.598 397 179.796 397 180 397C179.652 398.09 179.238 399.031 178.6 400C178.402 400 178.204 400 178 400C178.286 399.314 178.598 398.643 178.925 397.973C179.014 397.79 179.103 397.607 179.195 397.418C179.297 397.211 179.297 397.211 179.4 397Z" fill="#D9D9D9"/>
<path d="M178.874 398C179.049 398.75 179.049 398.75 178.83 399.422C178.729 399.613 178.628 399.803 178.524 400C178.351 400 178.178 400 178 400C178.207 399.156 178.398 398.588 178.874 398Z" fill="#E8E8E8"/>
<path fill-rule="evenodd" clip-rule="evenodd" d="M381.894 124V375.961H262.066C265.323 375.961 268.576 375.961 272.263 374.643C275.945 373.326 280.061 370.691 285.374 367.208C290.683 363.729 297.193 359.41 304.129 353.032C311.069 346.654 318.441 338.226 324.468 328.551C330.498 318.876 335.188 307.961 338.587 297.695C341.986 287.425 344.089 277.807 345.188 268.025C346.291 258.244 346.385 248.301 345.428 238.737C344.471 229.172 342.462 219.985 339.591 210.42C336.72 200.856 332.987 190.91 325.952 179.508C318.918 168.106 308.583 155.244 300.447 147.192C292.313 139.141 286.378 135.897 281.065 132.835C275.756 129.772 271.065 126.884 266.375 124H381.894Z" fill="#F47216"/>
<path fill-rule="evenodd" clip-rule="evenodd" d="M119 375.961V124H156.298V158.587C192.923 155.596 225.737 154.774 248.96 166.956C295.386 191.316 310.617 252.03 281.513 304.849C256.637 349.998 192.558 338.076 156.298 343.368V375.961H119Z" fill="#F47216"/>
</svg>
