<svg width="500" height="500" viewBox="0 0 500 500" fill="none" xmlns="http://www.w3.org/2000/svg">
<rect width="500" height="500" fill="#F0F0F0"/>
<path fill-rule="evenodd" clip-rule="evenodd" d="M157.655 128.732L157 129.463L176.407 149.557C187.093 160.635 196.394 170.355 197.099 171.191L198.36 172.681L195.915 175.346C186.64 185.458 178.902 198.862 174.29 212.789C171.946 219.87 170.434 226.768 169.4 234.999C168.695 240.695 168.77 254.36 169.526 260.213C170.988 271.397 173.71 281.326 178.02 291.098C179.532 294.573 183.01 301.367 183.388 301.602C183.514 301.68 183.943 301.471 184.397 301.184L185.203 300.661L184.296 299.067C182.506 295.854 178.65 287.44 177.289 283.73C169.148 261.52 168.72 236.384 176.155 213.834C183.547 191.373 198.122 172.206 217.464 159.512C230.933 150.698 246.233 145.333 262.097 143.861C277.962 142.389 293.937 144.852 308.702 151.046C338.241 163.457 360.773 190.396 368.284 222.326C370.351 231.106 371.056 237.429 371.056 247.018C371.056 257 370.25 263.845 368.007 272.886C363.873 289.556 355.027 306.279 344.214 317.828L342.727 319.396L368.057 345.656C381.995 360.105 393.488 371.942 393.589 371.994C393.689 372.046 394.067 371.759 394.395 371.393L395 370.714L374.761 349.732C360.042 334.472 354.573 328.646 354.724 328.384C354.825 328.175 356.463 325.771 358.354 323.054C365.99 312.001 370.149 304.973 374.358 295.932C379.878 284.043 382.927 273.304 384.364 260.605C384.767 256.921 384.767 244.902 384.364 240.617C383.23 229.015 380.785 216.473 378.013 207.929C375.282 199.633 371.53 191.738 366.847 184.439C360.824 175.085 351.07 163.536 344.113 157.552C330.982 146.238 320.195 139.889 305.804 135.055C295.697 131.658 287.228 130.247 274.803 129.907C261.394 129.542 247.936 131.789 233.721 136.727C219.329 141.744 209.197 147.806 195.083 159.851C193.394 161.315 191.907 162.49 191.781 162.49C191.655 162.49 184.119 154.73 175.046 145.245C165.973 135.76 158.487 128 158.437 128C158.153 128.216 157.892 128.462 157.655 128.732ZM278.835 132.965C289.522 133.618 296.327 134.898 305.526 138.06C319.162 142.737 329.898 149.06 342.097 159.642C350.692 167.115 360.95 179.71 366.999 190.187C369.242 194.107 372.417 200.77 373.854 204.558C378.643 217.257 381.869 235.835 381.869 250.676C381.894 266.981 378.542 280.829 370.703 296.925C368.085 302.396 365.113 307.678 361.807 312.733C358.228 318.298 352.708 326.294 352.431 326.32C352.279 326.32 350.717 324.805 348.927 322.949L345.651 319.553L346.835 318.168C361.428 301.079 369.947 281.535 372.644 258.907C373.325 253.106 373.274 240.198 372.518 234.319C370.93 221.725 367.805 210.96 362.638 200.169C357.497 189.456 351.675 181.121 343.13 172.289C333.402 162.203 323.446 155.227 311.096 149.739C294.21 142.267 275.03 139.68 256.53 142.371C236.165 145.35 216.229 155.148 201.812 169.206C200.88 170.12 200.048 170.852 199.922 170.852C199.796 170.852 198.385 169.519 196.822 167.873C194.302 165.26 193.974 164.816 194.276 164.45C194.705 163.901 201.258 158.44 204.484 155.932C216.481 146.578 228.957 140.516 244.457 136.518C257.009 133.278 267.015 132.259 278.835 132.965Z" fill="#008249"/>
<path fill-rule="evenodd" clip-rule="evenodd" d="M259.731 151.304C260.03 151.621 260.386 151.871 260.779 152.041C261.203 152.225 261.527 152.568 261.527 152.805C261.527 153.042 260.928 155.517 260.205 158.334C259.057 162.679 258.782 163.495 258.308 163.68C257.51 163.969 256.911 165.707 257.011 167.393C257.036 167.682 257.385 168.024 257.909 168.235C259.032 168.762 259.88 168.419 260.255 167.287C260.629 166.155 260.604 165.576 260.13 164.549C259.756 163.706 259.805 163.495 261.053 158.44C261.752 155.569 262.375 153.173 262.425 153.121C262.575 152.936 264.372 153.858 265.12 154.49C265.819 155.069 265.819 155.096 266.043 159.783C266.168 162.389 266.318 164.549 266.343 164.601C266.368 164.654 267.191 164.338 268.114 163.89C271.732 162.152 276.049 161.863 279.417 163.1C282.387 164.206 285.481 166.708 287.202 169.446L288.2 171L290.446 167.261C291.694 165.181 292.866 163.285 293.066 163.021C293.34 162.626 293.864 162.574 296.859 162.574C300.028 162.547 300.277 162.521 299.828 162.152C299.553 161.915 295.337 159.651 290.471 157.07C280.416 151.751 282.337 152.331 272.755 151.672C269.811 151.462 265.594 151.198 263.399 151.093C259.83 150.935 259.431 150.961 259.731 151.304Z" fill="#008249"/>
<path fill-rule="evenodd" clip-rule="evenodd" d="M233.657 166.287C233.783 166.47 234.69 167.907 235.698 169.501C239.024 174.674 241.417 180.397 242.602 186.093C243.08 188.418 243.156 189.62 243.156 193.931C243.156 198.817 243.131 199.209 242.224 203.599C241.72 206.107 240.687 210.105 239.931 212.483C236.328 223.875 235.143 228.447 234.135 234.692C232.17 246.816 232.75 257.555 235.924 267.458C239.855 279.817 246.835 289.432 256.535 295.886C260.448 298.5 264.784 300.359 269.335 301.373C273.09 302.209 280.371 302.209 284.075 301.373C290.249 299.988 296.422 296.617 300.277 292.541L301.638 291.078L298.866 292.515C296.195 293.9 292.743 295.311 292.088 295.311C291.156 295.311 290.299 290.712 290.501 286.819C290.904 278.85 294.154 272.736 299.924 269.104C303.678 266.752 307.231 266.517 311.414 268.372C312.069 268.66 312.598 268.843 312.598 268.79C312.598 268.529 309.121 266.857 307.66 266.413C305.795 265.812 301.234 265.812 299.445 266.386L298.261 266.778L298.715 265.812C299.42 264.375 299.823 261.997 299.823 259.123C299.823 256.144 299.345 253.897 298.211 251.545C297.808 250.683 297.53 250.213 297.631 250.5C298.387 253.139 298.538 254.315 298.412 256.248C298.261 258.835 297.153 262.415 295.515 265.629C292.894 270.776 291.483 269.835 291.458 262.885C291.382 251.545 293.953 244.804 299.773 241.172C301.537 240.075 301.31 239.944 299.017 240.676C295.414 241.825 291.735 245.327 289.745 249.481L288.586 251.885L287.527 249.638C285.89 246.137 283.395 243.106 279.086 239.395L277.726 238.22L279.212 240.31C282.639 245.118 283.672 246.711 284.856 249.063C287.301 253.975 288.056 257.947 287.83 264.793C287.628 270.672 286.847 273.703 285.436 274.068C283.546 274.539 280.901 269.339 280.397 264.218C280.044 260.56 280.472 257.921 282.211 253.113C282.564 252.146 279.868 255.438 279.112 256.902C277.675 259.671 277.171 263.8 277.827 267.353C277.978 268.111 278.028 268.79 277.978 268.843C277.927 268.895 277.6 268.79 277.272 268.555C276.012 267.693 273.568 267.353 268.655 267.353C266.009 267.353 263.968 267.458 264.12 267.562C264.271 267.667 265.379 268.006 266.614 268.268C272.384 269.47 277.549 271.847 280.397 274.617C283.395 277.543 284.176 280.026 284.201 286.689C284.201 290.19 283.949 292.202 283.168 295.154L282.765 296.696L280.346 296.513C268.353 295.651 257.165 287.943 251.748 276.786C245.751 264.427 247.263 248.122 255.729 233.595C258.904 228.134 266.312 220.478 272.535 216.245C278.305 212.326 288.182 208.041 296.598 205.846C301.915 204.461 310.23 203.05 316.63 202.423C318.897 202.214 320.863 201.927 320.989 201.796C321.266 201.509 316.428 199.889 312.85 199.053C307.76 197.903 303.124 197.38 291.433 196.675C281.556 196.074 278.079 195.708 273.039 194.663C264.498 192.938 261.02 190.665 252.756 181.416C246.91 174.883 241.039 169.919 235.597 166.94C233.632 165.895 233.354 165.791 233.657 166.287Z" fill="#008249"/>
<path fill-rule="evenodd" clip-rule="evenodd" d="M271.456 167.456C268.495 168.524 266.015 170.82 264.8 173.596C263.94 175.599 263.737 178.989 264.37 181.285C264.791 182.804 265.512 184.212 266.484 185.417C267.457 186.622 268.659 187.597 270.013 188.279C271.329 188.92 271.734 189 274.492 189C277.251 189 277.656 188.947 278.972 188.279C280.789 187.336 282.335 185.898 283.451 184.115C285.728 180.297 285.475 174.771 282.818 171.087C280.439 167.83 275.125 166.121 271.456 167.456Z" fill="#008249"/>
<path fill-rule="evenodd" clip-rule="evenodd" d="M289.629 221.361C289.074 221.859 288.465 222.307 287.811 222.697C286.411 223.579 285.755 224.862 286.083 226.171L286.292 227L287.335 226.091C287.901 225.61 288.497 224.969 288.616 224.675C288.854 224.167 288.884 224.167 288.884 224.755C288.861 225.24 288.719 225.715 288.467 226.145C287.841 227.241 288.348 227.16 289.51 225.984C290.672 224.808 291 224.033 291 222.563C291 221.093 290.434 220.586 289.629 221.361Z" fill="#008249"/>
<path fill-rule="evenodd" clip-rule="evenodd" d="M294.112 223.47C294.334 224.059 294.486 224.672 294.566 225.295C294.708 226.262 294.992 226.787 295.616 227.285C297.177 228.557 297.688 228.087 296.723 226.235C296.212 225.267 296.212 225.239 296.723 225.516C297.074 225.719 297.366 226.004 297.575 226.345C298.029 227.174 298.143 226.843 297.802 225.709C297.461 224.41 295.815 223 294.68 223C293.97 223 293.885 223.083 294.112 223.47Z" fill="#008249"/>
<path fill-rule="evenodd" clip-rule="evenodd" d="M303.011 224.348C302.481 224.858 301.89 225.283 301.255 225.611C300.201 226.2 299.699 226.677 299.398 227.379C298.996 228.39 298.846 230.382 299.197 230.382C299.297 230.382 299.925 229.821 300.602 229.147C301.706 227.997 301.782 227.969 301.631 228.642C301.478 229.193 301.249 229.714 300.954 230.186L300.427 231L301.205 230.551C302.259 229.933 303.739 227.941 303.915 226.874C304.116 225.667 303.94 224.123 303.614 224.011C303.463 223.955 303.187 224.123 303.011 224.348Z" fill="#008249"/>
<path fill-rule="evenodd" clip-rule="evenodd" d="M281.068 225.481C281.136 225.766 281.315 226.466 281.428 227.078C281.523 227.628 281.69 228.165 281.922 228.675C282.169 229.2 283.742 230.119 284.101 229.987C284.214 229.944 284.079 229.375 283.787 228.675C283.18 227.253 283.54 227.144 284.461 228.478L285 229.265L284.865 228.5C284.734 227.642 284.316 226.85 283.674 226.247C282.978 225.503 282.057 225 281.383 225C280.978 225 280.934 225.087 281.068 225.481Z" fill="#008249"/>
<path fill-rule="evenodd" clip-rule="evenodd" d="M291.262 226.417C291.262 226.636 290.882 227.348 290.4 228.033C289.985 228.599 289.604 229.193 289.26 229.812C288.855 230.633 288.931 232.056 289.437 233.097L289.893 234L290.552 232.412C290.932 231.536 291.287 230.633 291.363 230.414C291.439 230.195 291.49 230.825 291.439 231.837L291.363 233.644L291.946 232.796C292.479 232.052 292.824 231.172 292.948 230.241C293.073 229.311 292.972 228.361 292.655 227.485C292.148 226.171 291.262 225.514 291.262 226.417Z" fill="#008249"/>
<path fill-rule="evenodd" clip-rule="evenodd" d="M275.34 228.8C275.331 229.845 275.253 230.888 275.108 231.925C274.904 233.025 274.962 233.375 275.514 234.375C276.125 235.45 278.072 237 278.798 237C279.176 237 278.827 233.125 278.391 232.45C278.217 232.175 278.159 231.9 278.246 231.825C278.537 231.575 280.193 234.125 280.368 235.125C280.542 236.025 280.571 236.075 280.774 235.5C281.152 234.375 281.036 232.125 280.571 230.95C279.815 229.025 277.432 227 275.892 227C275.427 227 275.369 227.25 275.34 228.8Z" fill="#008249"/>
<path fill-rule="evenodd" clip-rule="evenodd" d="M268.554 228.395L268 228.798L268.699 229.277C269.06 229.555 269.735 230.034 270.193 230.387C271.108 231.093 272.072 231.194 272.747 230.664C273.181 230.337 273.133 230.286 272 229.656L270.819 228.975L271.855 229.101C273.036 229.227 272.988 228.874 271.759 228.344C270.675 227.865 269.253 227.89 268.554 228.395Z" fill="#008249"/>
<path fill-rule="evenodd" clip-rule="evenodd" d="M305.601 230.446C304.795 230.933 303.932 231.331 303.028 231.632C302.169 231.905 301.356 232.287 300.611 232.77C299.702 233.544 299 235.07 299 236.304V237.345L300.065 236.788C300.862 236.351 301.603 235.831 302.274 235.239C302.898 234.706 303.418 234.343 303.418 234.464C303.418 234.948 302.534 236.28 301.625 237.176C300.767 238.023 300.741 238.096 301.339 237.926C303.461 237.31 305.242 235.946 306.302 234.125C306.978 232.867 307.238 230.809 306.744 230.252C306.432 229.889 306.354 229.889 305.601 230.446Z" fill="#008249"/>
<path fill-rule="evenodd" clip-rule="evenodd" d="M293.834 233.263C293.726 234.108 293.535 234.943 293.262 235.761C292.691 237.481 293.04 238.743 294.438 239.979L295.613 241L295.867 239.388C296.026 238.421 295.994 237.481 295.803 236.997C295.549 236.352 295.549 236.299 295.962 236.567C296.216 236.728 296.566 237.319 296.756 237.857C297.423 239.71 297.423 239.71 297.709 239.119C298.122 238.313 298.09 236.352 297.646 235.143C297.201 233.934 295.232 232 294.469 232C294.088 232 293.929 232.349 293.834 233.263Z" fill="#008249"/>
<path fill-rule="evenodd" clip-rule="evenodd" d="M284.801 232.541C284.713 232.909 284.038 233.984 283.274 234.889C281.982 236.502 281.923 236.615 282.041 238.114C282.1 238.991 282.364 239.982 282.628 240.349L283.098 241L283.744 239.784C284.141 239.069 284.494 238.332 284.801 237.577C285.212 236.587 285.212 236.615 285.124 238.624C285.066 240.434 285.095 240.632 285.447 240.18C287.092 238.143 287.503 234.691 286.328 233.022C285.477 231.834 285.036 231.693 284.801 232.541Z" fill="#008249"/>
<path fill-rule="evenodd" clip-rule="evenodd" d="M266.177 233.233C265.882 233.419 265.935 233.633 266.498 234.353C266.98 235.031 267.393 235.754 267.732 236.513C268.027 237.206 268.564 237.953 268.939 238.193C269.851 238.806 271.622 239.179 272.319 238.913C272.829 238.726 272.775 238.593 271.434 237.153C270.146 235.793 270.066 235.633 270.683 235.793C271.188 235.942 271.667 236.167 272.104 236.459C273.07 237.179 273.204 237.126 272.748 236.246C272.062 235.049 271.023 234.09 269.771 233.499C268.644 232.966 266.793 232.833 266.177 233.233Z" fill="#008249"/>
<path fill-rule="evenodd" clip-rule="evenodd" d="M312.634 234.362C312.017 234.556 311.374 234.66 310.725 234.672C309.453 234.696 308.425 235.174 307.764 236.083C307.324 236.705 306.834 238.043 307.055 238.043C307.544 238.043 309.918 237.207 310.26 236.896C310.48 236.705 310.676 236.633 310.676 236.752C310.676 237.039 309.281 238.354 308.596 238.713C308.156 238.952 308.156 238.976 308.547 239C310.603 239.024 313.392 237.135 313.857 235.39C314.102 234.505 314.029 233.955 313.662 234.003C313.312 234.103 312.969 234.223 312.634 234.362Z" fill="#008249"/>
<path fill-rule="evenodd" clip-rule="evenodd" d="M291.154 236.279C290.854 237.719 290.969 238.253 291.708 238.879C292.031 239.135 292.077 239.042 292.1 238.044C292.123 236.976 292.146 236.953 292.377 237.533C292.723 238.415 293 238.345 293 237.394C293 236.651 292.215 235.165 291.708 235.003C291.569 234.956 291.338 235.49 291.154 236.279Z" fill="#008249"/>
<path fill-rule="evenodd" clip-rule="evenodd" d="M261.735 237.136L261 237.452L261.562 238.4C261.89 239.019 262.18 239.689 262.426 240.402C262.944 242.088 263.549 242.79 264.738 242.966C265.321 243.036 265.818 243.001 265.818 242.826C265.796 242.369 264.954 240.859 264.306 240.121C263.571 239.313 264.198 239.348 265.235 240.191C266.164 240.964 266.207 240.894 265.58 239.489C264.781 237.663 263.031 236.609 261.735 237.136Z" fill="#008249"/>
<path fill-rule="evenodd" clip-rule="evenodd" d="M314.105 239.32C313.669 239.709 313.184 240.043 312.663 240.313C311.335 240.965 310.902 241.674 311.018 243.007L311.104 244L312.201 242.951C313.269 241.901 313.673 242.157 312.807 243.348C312.316 244.057 312.576 244.17 313.442 243.546C314.279 242.979 315 241.419 315 240.2C315 239.037 314.654 238.668 314.105 239.32Z" fill="#008249"/>
<path fill-rule="evenodd" clip-rule="evenodd" d="M307.7 240.344C307.503 240.643 306.517 241.376 305.559 241.973C304.348 242.706 303.643 243.33 303.39 243.928C302.967 244.878 302.854 246.941 303.221 247.267C303.474 247.511 305.221 245.964 306.01 244.796C306.461 244.145 306.517 244.091 306.404 244.579C305.982 246.127 305.841 246.48 305.306 247.213L304.714 248L305.644 247.484C307.729 246.317 309.335 243.33 308.94 241.321C308.687 240.045 308.151 239.638 307.7 240.344Z" fill="#008249"/>
<path fill-rule="evenodd" clip-rule="evenodd" d="M286.894 240.749C285.717 241.779 285.687 243.042 286.894 244.175C287.558 244.82 288.011 245 288.855 245C290.153 245 291.451 244.253 291.843 243.248C292.809 240.774 289.097 238.893 286.894 240.749Z" fill="#008249"/>
<path fill-rule="evenodd" clip-rule="evenodd" d="M272.003 241.128C270.457 241.371 269.305 241.931 268.574 242.711C267.703 243.661 267.815 244.026 268.967 244.026C269.787 244.084 270.593 244.248 271.356 244.513C272.057 244.764 272.795 244.928 273.549 245C274.898 245 277.483 243.417 276.921 242.93C276.837 242.833 275.853 242.759 274.757 242.735C274.09 242.735 273.424 242.702 272.762 242.638C272.762 242.443 274.56 241.834 275.151 241.834C276.05 241.834 276.078 241.396 275.151 241.225C273.605 240.957 273.127 240.933 272.003 241.128Z" fill="#008249"/>
<path fill-rule="evenodd" clip-rule="evenodd" d="M300.486 242.732C300.122 243.435 299.668 244.104 299.133 244.73C297.78 246.366 297.633 247.714 298.722 249.182L299.339 250L300.045 248.701C300.427 247.979 300.751 247.04 300.751 246.655C300.78 246.029 300.81 245.981 301.075 246.366C301.251 246.607 301.339 247.377 301.28 248.099C301.192 249.519 301.369 249.567 302.192 248.267C303.369 246.39 303.251 243.984 301.898 242.588C301.104 241.77 300.869 241.794 300.486 242.732Z" fill="#008249"/>
<path fill-rule="evenodd" clip-rule="evenodd" d="M318.623 242.622C318.272 242.973 317.298 243.551 316.487 243.928C314.703 244.756 314 245.786 314 247.569V248.774L315.298 247.87C316.001 247.368 316.731 246.69 316.92 246.338C317.109 245.987 317.298 245.736 317.38 245.736C317.596 245.736 316.974 247.318 316.46 248.146C316.163 248.623 315.974 249 316.055 249C316.509 248.792 316.943 248.549 317.353 248.272C319.299 247.016 320.516 244.103 319.786 242.371C319.57 241.818 319.38 241.868 318.623 242.622Z" fill="#008249"/>
<path fill-rule="evenodd" clip-rule="evenodd" d="M259.387 245.827C259.306 246.864 259.171 248.2 259.063 248.827C258.982 249.188 258.979 249.562 259.053 249.925C259.128 250.287 259.278 250.629 259.495 250.927C260.088 251.909 261.356 253 261.896 253C262.273 253 262.3 250.3 261.923 249.264L261.653 248.5L262.327 249.291C262.73 249.735 263.025 250.267 263.19 250.845C263.433 252.073 263.73 252.018 263.919 250.709C264.134 249.236 263.946 248.364 263.055 246.645C262.408 245.418 260.682 244 259.845 244C259.684 244 259.495 244.818 259.387 245.827Z" fill="#008249"/>
<path fill-rule="evenodd" clip-rule="evenodd" d="M279.1 244.46C278.989 244.745 278.318 245.626 277.564 246.403C276.083 247.983 275.748 248.968 276.167 250.393C276.474 251.403 276.921 252.154 277.089 251.973C277.62 251.403 278.681 249.356 278.681 248.89C278.681 248.527 278.793 248.372 278.989 248.501C279.296 248.683 279.212 250.496 278.821 251.584C278.653 252.025 278.737 251.999 279.212 251.455C280.338 250.314 280.974 248.83 281 247.284C281 245.185 279.575 243.035 279.1 244.46Z" fill="#008249"/>
<path fill-rule="evenodd" clip-rule="evenodd" d="M266.249 246.256C265.815 246.586 265.866 246.688 267.066 247.806C268.139 248.797 268.522 249 269.313 249C270.156 249 271.407 248.568 270.871 248.466C270.386 248.365 270.232 248.314 269.415 247.806L268.547 247.247L269.543 247.171L270.513 247.094L269.773 246.612C268.803 245.976 266.862 245.799 266.249 246.256Z" fill="#008249"/>
<path fill-rule="evenodd" clip-rule="evenodd" d="M309.666 249.483C308.094 251.062 307.713 252.05 308.195 253.284L308.474 254L309.108 253.284C309.493 252.822 309.832 252.326 310.123 251.803L310.503 251.062L310.377 252.099C310.314 252.602 310.204 253.098 310.047 253.58C309.895 254 309.92 253.975 310.478 253.531C311.264 252.864 312 251.26 312 250.149C312 249.162 311.62 247.952 311.315 248.001C311.188 248.026 310.453 248.668 309.666 249.483Z" fill="#008249"/>
<path fill-rule="evenodd" clip-rule="evenodd" d="M293.342 249.614C293.314 249.998 293.2 250.812 293.086 251.484C292.915 252.514 292.972 252.778 293.514 253.329C293.856 253.712 294.255 254 294.398 254C294.54 254 294.655 253.425 294.683 252.73L294.712 251.484L295.225 252.442C295.738 253.377 295.767 253.377 295.938 252.754C296.195 251.867 295.624 250.333 294.769 249.59C293.799 248.799 293.371 248.799 293.342 249.614Z" fill="#008249"/>
<path fill-rule="evenodd" clip-rule="evenodd" d="M304.03 250.733C303.378 251.235 302.33 251.963 301.707 252.339C301.061 252.736 300.562 253.294 300.275 253.942C299.987 254.589 299.924 255.298 300.092 255.979L300.262 256.807L301.423 256.004C302.028 255.574 302.545 255.056 302.953 254.473C303.077 254.222 303.249 253.992 303.463 253.795C303.718 253.795 303.095 255.602 302.642 256.204C302.387 256.556 302.245 256.907 302.302 256.982C302.585 257.208 304.823 255.201 305.39 254.197C306.098 252.967 306.211 250.708 305.616 250.181C305.248 249.855 305.05 249.93 304.03 250.733Z" fill="#008249"/>
<path fill-rule="evenodd" clip-rule="evenodd" d="M317.321 250.845C317.024 251.303 316.614 251.697 316.12 252C315.179 252.451 314.692 254.028 315.212 255.099L315.633 256L316.542 254.648L317.45 253.268L317.321 254.479C317.126 255.915 317.548 255.803 318.424 254.141C319.17 252.676 319.203 251.38 318.456 250.62L317.905 250L317.321 250.845Z" fill="#008249"/>
<path fill-rule="evenodd" clip-rule="evenodd" d="M265 251.188C265 251.282 265.085 251.946 265.191 252.672C265.298 253.399 265.447 254.41 265.532 254.884C265.638 255.642 266.681 257 267.191 257C267.404 257 267.149 255.421 266.787 254.536C266.319 253.462 266.809 253.715 267.447 254.852L268 255.894L267.851 254.947C267.638 253.494 266.936 251.977 266.277 251.472C265.66 250.998 265 250.84 265 251.188Z" fill="#008249"/>
<path fill-rule="evenodd" clip-rule="evenodd" d="M270.042 251.1C269.947 251.201 270.018 251.527 270.208 251.828C270.398 252.13 270.706 253.059 270.896 253.937C271.086 254.816 271.371 255.669 271.513 255.87C271.941 256.423 273.317 257 274.195 257H275.026L274.67 255.996C274.432 255.397 274.112 254.839 273.721 254.339L273.175 253.711L273.697 253.862C274.29 254.063 274.955 254.565 275.62 255.368C276.047 255.87 276.07 255.87 275.904 255.117C275.43 252.757 273.792 251.201 271.585 251.025C270.825 250.975 270.137 251 270.042 251.1Z" fill="#008249"/>
<path fill-rule="evenodd" clip-rule="evenodd" d="M253.221 254.228C252.888 254.42 252.915 254.517 253.415 254.999C253.749 255.312 254.304 256.253 254.666 257.121C255.138 258.278 255.527 258.808 256.221 259.218C257.166 259.773 259.361 260.182 259.861 259.917C260.222 259.724 258.694 257.506 257.861 257C257.388 256.711 257.36 256.638 257.722 256.638C257.972 256.638 258.805 257 259.583 257.458L261 258.278L260.555 257.41C259.889 255.988 258.972 255.168 257.249 254.469C256.082 253.962 253.915 253.842 253.221 254.228Z" fill="#008249"/>
<path fill-rule="evenodd" clip-rule="evenodd" d="M322.167 255.34C321.779 255.635 321.359 255.871 320.917 256.044C318.917 256.772 318 257.9 318 259.638V260.46L318.792 259.967C319.267 259.637 319.719 259.268 320.146 258.863C321.062 257.9 320.708 259.074 319.687 260.342L319.146 261L319.667 260.836C321.437 260.272 323 258.111 323 256.232C323 254.893 322.854 254.729 322.167 255.34Z" fill="#008249"/>
<path fill-rule="evenodd" clip-rule="evenodd" d="M305.948 256.234C304.912 257.608 304.752 258.461 305.337 259.408L305.709 260L306.134 259.242C306.37 258.846 306.515 258.411 306.559 257.963C306.586 257.466 306.586 257.442 306.851 257.845C307.022 258.22 307.068 258.631 306.984 259.029L306.825 259.787L307.33 259.076C307.631 258.596 307.847 258.077 307.967 257.537C308.127 256.661 307.675 255.145 307.223 255.003C307.064 254.955 306.506 255.524 305.948 256.234Z" fill="#008249"/>
<path fill-rule="evenodd" clip-rule="evenodd" d="M284.129 255.363C284.035 255.542 283.447 256.077 282.835 256.511C281.329 257.608 281 258.194 281 259.725V261L282.176 259.674C283.424 258.296 283.635 258.373 282.906 259.929C282.388 261.026 282.435 261.051 283.353 260.362C284.2 259.725 285 257.939 285 256.74C285 255.21 284.576 254.521 284.129 255.363Z" fill="#008249"/>
<path fill-rule="evenodd" clip-rule="evenodd" d="M312.7 257.266C312.7 257.419 311.894 258.287 310.899 259.206L309.097 260.839L309.017 262.422C308.963 263.29 309.044 264.183 309.178 264.387C309.42 264.719 309.581 264.643 310.146 264.005C310.626 263.459 311.032 262.859 311.356 262.218L311.894 261.197V261.988C311.846 262.64 311.71 263.283 311.49 263.902L311.06 265L311.921 264.26C313.83 262.55 314.582 259.487 313.507 257.802C312.969 256.96 312.7 256.781 312.7 257.266Z" fill="#008249"/>
<path fill-rule="evenodd" clip-rule="evenodd" d="M293.049 257.478C293.209 258.049 293.345 258.631 293.456 259.223C293.701 260.49 294.413 261.784 294.881 261.784C295.089 261.805 295.294 261.862 295.491 261.953C295.776 262.122 295.735 261.869 295.288 260.658C294.779 259.251 294.86 259.111 295.654 260.039C295.959 260.433 296 260.405 296 259.955C296 259.673 295.593 258.914 295.105 258.238C294.433 257.281 294.067 257 293.558 257C293.009 257 292.927 257.084 293.049 257.478Z" fill="#008249"/>
<path fill-rule="evenodd" clip-rule="evenodd" d="M264 260.019C264 262.702 264.065 263.121 264.516 263.932C264.881 264.546 265.343 265.051 265.871 265.413L266.753 266L266.645 264.155C266.581 263.149 266.409 262.115 266.258 261.891C266.108 261.668 266.043 261.388 266.108 261.304C266.258 261.109 267.226 262.814 267.656 263.988L268 264.966L267.935 262.814C267.871 260.941 267.785 260.522 267.204 259.46C266.43 258.034 265.333 257 264.559 257H264V260.019Z" fill="#008249"/>
<path fill-rule="evenodd" clip-rule="evenodd" d="M301.566 260.698C301.026 261.238 300.918 261.536 301.053 262.238C301.377 263.914 302.943 264.535 304.293 263.481C304.529 263.316 304.718 263.092 304.841 262.831C304.964 262.571 305.017 262.283 304.995 261.995C304.995 260.103 302.943 259.32 301.566 260.698Z" fill="#008249"/>
<path fill-rule="evenodd" clip-rule="evenodd" d="M271.487 262.386C270.776 262.995 270.861 264.277 271.629 264.69C273.649 265.777 276.153 263.756 274.417 262.43C273.678 261.864 272.113 261.864 271.487 262.386Z" fill="#008249"/>
<path fill-rule="evenodd" clip-rule="evenodd" d="M254.208 262.592C252.878 263.247 252.652 263.675 253.501 263.901C253.84 264.002 254.858 264.682 255.764 265.412C257.602 266.948 258.762 267.275 260.459 266.797C262.382 266.243 262.439 266.041 260.798 265.11C259.978 264.657 258.96 264.279 258.564 264.279C257.913 264.254 257.913 264.229 258.394 264.002C258.875 263.725 260.629 263.826 261.817 264.153C262.184 264.254 261.986 264.002 261.336 263.448C259.469 261.938 256.273 261.535 254.208 262.592Z" fill="#008249"/>
<path fill-rule="evenodd" clip-rule="evenodd" d="M207.421 263.701C206.656 264.429 206.546 265.481 207.148 266.101C207.859 266.775 208.406 266.343 208.214 265.292C208.077 264.591 208.159 264.348 208.488 264.213C208.952 264.025 209.745 264.51 209.745 264.968C209.745 265.13 208.87 266.128 207.804 267.233C205.316 269.74 205.371 270.091 208.159 269.983C209.8 269.929 210.155 269.821 210.237 269.417C210.319 269.012 210.128 268.959 209.226 268.959C208.597 268.959 208.105 268.878 208.105 268.77C208.105 268.662 208.706 267.961 209.445 267.206C211.112 265.561 211.358 264.753 210.565 263.755C209.773 262.757 208.351 262.757 207.421 263.701Z" fill="#008249"/>
<path fill-rule="evenodd" clip-rule="evenodd" d="M213.107 263.403C212.144 263.968 211.054 266.284 211.004 267.9C210.953 269.515 211.434 270 212.879 270C214.425 270 215.895 267.846 215.997 265.449C216.073 263.322 214.831 262.406 213.107 263.403ZM214.856 264.991C214.958 265.934 214.299 267.9 213.64 268.519C212.981 269.138 212.271 268.95 212.169 268.142C212.068 267.334 212.803 265.234 213.437 264.561C214.121 263.834 214.755 264.049 214.856 264.991Z" fill="#008249"/>
<path fill-rule="evenodd" clip-rule="evenodd" d="M218.904 263.188C218.829 263.254 218.776 263.345 218.751 263.449C218.726 263.552 218.731 263.662 218.766 263.761C218.8 263.861 218.863 263.945 218.943 264.002C219.023 264.058 219.117 264.084 219.212 264.074C219.472 264.074 219.685 264.128 219.685 264.209C219.685 264.289 219.259 265.526 218.738 266.95C217.814 269.449 217.766 270.255 218.548 269.932C218.927 269.744 221.178 263.618 220.989 263.241C220.823 262.973 219.14 262.892 218.904 263.188Z" fill="#008249"/>
<path fill-rule="evenodd" clip-rule="evenodd" d="M223.441 263.188C222.988 263.646 223.315 264.077 224.147 264.077C225.155 264.077 225.256 264.319 224.525 265.019C224.288 265.22 224.112 265.492 224.021 265.8C224.021 265.962 224.248 266.258 224.525 266.446C225.483 267.092 224.928 268.923 223.744 268.923C223.366 268.923 223.265 268.735 223.265 267.981C223.265 267.227 223.164 267.038 222.786 267.038C221.929 267.038 221.703 268.815 222.459 269.542C222.736 269.812 223.341 270 223.945 270C224.802 270 225.105 269.838 225.634 269.165C226.39 268.223 226.491 266.931 225.861 266.177C225.457 265.719 225.483 265.638 226.289 264.75C227.473 263.431 227.221 263 225.205 263C224.323 263 223.517 263.081 223.441 263.188Z" fill="#008249"/>
<path fill-rule="evenodd" clip-rule="evenodd" d="M315.538 263.234C314.749 263.503 313 264.893 313 265.235C313 265.357 314.015 265.406 315.256 265.357C317.4 265.284 317.484 265.308 316.892 265.674C316.356 265.995 315.766 266.241 315.143 266.406L313.987 266.699L315.369 266.918C317.794 267.309 320.643 266.259 321.602 264.674C322.222 263.649 322.138 263.454 321.207 263.6C320.407 263.646 319.603 263.564 318.838 263.356C317.089 262.917 316.554 262.893 315.538 263.234Z" fill="#008249"/>
<path fill-rule="evenodd" clip-rule="evenodd" d="M283.577 264.29C283.577 264.462 283.191 265.102 282.724 265.717C281.844 266.873 281.761 268.029 282.504 268.817C282.779 269.136 282.889 269.063 283.219 268.398C283.409 267.999 283.53 267.576 283.577 267.144C283.577 266.873 283.687 266.75 283.879 266.848C284.072 266.947 284.127 267.439 284.072 267.956C284.022 268.273 284.013 268.595 284.044 268.915C284.246 268.677 284.421 268.421 284.567 268.152C285.144 267.119 285.144 265.421 284.567 264.634C284.072 263.945 283.577 263.798 283.577 264.29Z" fill="#008249"/>
<path fill-rule="evenodd" clip-rule="evenodd" d="M188.142 264.122C187.89 264.345 187.995 264.885 188.29 264.978C188.69 265.108 189.132 264.643 188.963 264.271C188.93 264.205 188.88 264.146 188.816 264.101C188.752 264.055 188.677 264.024 188.596 264.009C188.516 263.995 188.433 263.997 188.354 264.017C188.275 264.037 188.202 264.073 188.142 264.122Z" fill="#008249"/>
<path fill-rule="evenodd" clip-rule="evenodd" d="M183.31 265.282C183.061 265.63 182.36 267.451 182.36 267.746C182.36 268.04 183.174 267.88 183.445 267.558C183.649 267.317 183.739 267.371 183.852 267.692C184.101 268.469 183.784 268.924 182.88 269.004C181.84 269.112 181.659 269.835 182.677 269.969C183.649 270.103 184.35 269.808 184.757 269.085C185.096 268.496 185.073 268.362 184.734 267.558C184.502 267.03 184.32 266.473 184.191 265.898C184.033 264.987 183.671 264.746 183.31 265.282Z" fill="#008249"/>
<path fill-rule="evenodd" clip-rule="evenodd" d="M186.766 266.524C186.376 267.393 186.018 268.487 186.018 269.035C185.953 269.968 185.986 270 187.416 270C188.554 270 188.879 269.871 188.976 269.421C189.074 269.035 188.879 268.874 188.261 268.874H187.416L188.066 267.232C188.424 266.331 188.651 265.462 188.554 265.302C188.099 264.626 187.416 265.108 186.766 266.524Z" fill="#008249"/>
<path fill-rule="evenodd" clip-rule="evenodd" d="M190.081 265.703C189.982 266.052 189.66 267.066 189.388 267.954C189.116 268.841 188.943 269.697 189.017 269.792C189.438 270.331 189.908 269.824 190.452 268.271C191.095 266.432 191.392 266.02 191.937 266.306C192.233 266.432 192.209 266.654 191.887 267.732C191.343 269.538 191.565 270.045 192.852 269.919C193.619 269.855 193.94 269.665 193.99 269.253C194.039 268.841 193.916 268.714 193.421 268.714C192.877 268.714 192.778 268.619 192.926 268.144C193.817 265.323 193.668 264.943 191.64 265.006C190.502 265.038 190.254 265.165 190.081 265.703Z" fill="#008249"/>
<path fill-rule="evenodd" clip-rule="evenodd" d="M195.696 265.993C194.86 267.146 194.753 268.737 195.507 269.516C196.208 270.264 198.849 270.109 198.983 269.298C199.064 268.861 198.876 268.768 197.878 268.768C196.396 268.768 195.857 268.175 196.289 267.053C196.666 266.086 197.69 265.993 197.69 266.928C197.69 267.864 198.606 267.583 198.714 266.648C198.956 264.839 196.854 264.371 195.696 265.993Z" fill="#008249"/>
<path fill-rule="evenodd" clip-rule="evenodd" d="M199.708 265.805C199.334 266.213 199.014 266.873 199.014 267.281C198.907 269.605 199.388 270.108 201.443 269.982C202.591 269.919 202.938 269.762 202.991 269.323C203.045 268.883 202.884 268.789 201.737 268.789C201.016 268.789 200.322 268.632 200.242 268.475C200.162 268.318 200.375 268.161 200.749 268.161C202.484 268.161 203.365 267.061 202.644 265.773C202.057 264.737 200.589 264.737 199.708 265.805ZM201.71 266.59C201.71 266.747 201.39 266.904 201.016 266.904C200.642 266.904 200.402 266.779 200.509 266.59C200.615 266.402 200.909 266.276 201.203 266.276C201.496 266.276 201.71 266.402 201.71 266.59Z" fill="#008249"/>
<path fill-rule="evenodd" clip-rule="evenodd" d="M308.436 269.224C308.185 269.381 308.461 269.826 309.467 270.926C310.624 272.21 310.725 272.42 310.197 272.262C309.718 272.117 309.267 271.886 308.864 271.581C307.933 270.9 307.807 270.953 308.235 271.843C308.788 272.917 310.473 274.358 311.63 274.698C312.812 275.091 313.441 275.091 314.321 274.751L315 274.463L314.321 273.729C313.791 273.07 313.335 272.349 312.963 271.581C312.435 270.481 312.032 270.036 311.152 269.564C309.995 268.962 309.015 268.831 308.436 269.224Z" fill="#008249"/>
<path fill-rule="evenodd" clip-rule="evenodd" d="M260.326 270.485C259.065 271.072 257.582 272.756 257.26 274.007C256.741 275.921 256.963 276.329 258.249 275.768C258.958 275.531 259.686 275.36 260.425 275.257C261.983 275.053 262.799 274.543 263.343 273.471C263.862 272.45 264.183 271.021 263.887 271.021C263.392 271.021 261.093 272.042 260.623 272.476L260.104 272.935L260.549 272.169C260.894 271.628 261.301 271.131 261.76 270.689C262.527 270 262.527 270 261.933 270C261.375 270.069 260.832 270.233 260.326 270.485Z" fill="#008249"/>
<path fill-rule="evenodd" clip-rule="evenodd" d="M268.036 270.858C267.722 271.598 267.455 272.357 267.237 273.13L266.891 274.333L266.705 273.317C266.593 272.61 266.575 271.891 266.651 271.179C266.784 270.137 266.784 270.083 266.385 270.591C265.755 271.401 265.324 272.347 265.125 273.354C264.926 274.362 264.965 275.402 265.24 276.391C265.746 278.182 267.637 279.866 267.637 278.503C267.637 278.236 268.169 277.193 268.835 276.177C270.379 273.825 270.379 272.302 268.888 270.324C268.515 269.816 268.462 269.843 268.036 270.858Z" fill="#008249"/>
<path fill-rule="evenodd" clip-rule="evenodd" d="M304.125 271.506C304.225 272.795 304.2 272.972 303.95 272.593C303.715 272.198 303.513 271.784 303.348 271.355L303.097 270.597L303.022 271.355C302.897 273.25 303.298 274.513 304.351 275.524C305.103 276.206 305.554 276.155 305.554 275.372C305.591 274.783 305.683 274.2 305.83 273.629C306.181 272.239 306.005 271.506 305.153 270.647C304.15 269.612 303.975 269.763 304.125 271.506Z" fill="#008249"/>
<path fill-rule="evenodd" clip-rule="evenodd" d="M297.982 271.558C297.047 272.65 296.736 274.223 297.239 275.391L297.503 276L298.558 274.909C299.047 274.412 299.481 273.859 299.852 273.259C300.14 272.726 299.972 271 299.66 271C299.564 271 299.181 271.482 298.821 272.066C298.294 272.954 298.174 273.03 298.174 272.548C298.194 272.181 298.275 271.82 298.414 271.482C298.749 270.848 298.605 270.873 297.982 271.558Z" fill="#008249"/>
<path fill-rule="evenodd" clip-rule="evenodd" d="M273.513 273.14C273.176 274.062 273.064 274.183 273.008 273.698C272.972 273.335 272.962 272.971 272.98 272.606C273.064 271.66 272.223 272.946 272.026 274.086C271.858 275.154 272.531 276.876 273.176 276.997C273.569 277.094 275 274.426 275 273.625C275 272.873 274.551 272 274.186 272C274.074 272 273.766 272.509 273.513 273.14Z" fill="#008249"/>
<path fill-rule="evenodd" clip-rule="evenodd" d="M340.125 292.732C339.039 293.279 338.547 293.774 337.901 294.868C336.09 297.864 337.099 301.668 340.125 303.257C343.048 304.794 346.462 303.882 348.118 301.121C349.902 298.125 348.894 294.321 345.867 292.732C344.997 292.224 344.002 291.971 342.996 292.003C341.99 291.971 340.996 292.224 340.125 292.732ZM345.764 294.243C347.031 295.259 347.652 296.509 347.652 297.994C347.652 299.479 347.005 300.73 345.764 301.746C344.859 302.475 344.574 302.553 342.996 302.553C341.418 302.553 341.134 302.475 340.229 301.746C337.357 299.427 337.745 295.493 341.056 293.696C342.324 293.019 344.574 293.279 345.764 294.243Z" fill="#008249"/>
<path fill-rule="evenodd" clip-rule="evenodd" d="M341 298.5V302H341.833C342.611 302 342.667 301.905 342.667 300.886C342.667 300.186 342.806 299.773 343.028 299.773C343.25 299.773 343.556 300.282 343.75 300.886C344.056 301.873 344.194 302 345.056 302H346L345.583 300.855C345.222 299.836 345.222 299.645 345.583 299.041C346.167 298.055 346.111 296.4 345.444 295.636C345 295.127 344.528 295 342.944 295H341V298.5ZM344 297.45C343.965 297.613 343.883 297.759 343.767 297.862C343.651 297.966 343.508 298.023 343.361 298.023C343.214 298.023 343.071 297.966 342.955 297.862C342.84 297.759 342.758 297.613 342.722 297.45C342.639 297.036 342.806 296.909 343.361 296.909C343.917 296.909 344.083 297.036 344 297.45Z" fill="#008249"/>
<path fill-rule="evenodd" clip-rule="evenodd" d="M192.168 304.12C186.511 304.99 181.901 309.777 181.141 315.57C180.512 320.22 182.005 324.463 185.253 327.482C188.816 330.773 193.504 331.806 198.376 330.365L200 329.875V321.961L199.293 322.695C197.407 324.545 193.976 325.143 191.592 324.055C190.102 323.34 188.899 322.11 188.187 320.574C187.637 319.323 187.532 316.549 187.977 314.972C188.685 312.551 191.094 310.674 193.818 310.457C195.757 310.294 196.883 310.62 198.69 311.871L200 312.796V305.235L198.245 304.691C196.045 304.038 194.002 303.848 192.168 304.12Z" fill="#008249"/>
<path fill-rule="evenodd" clip-rule="evenodd" d="M104 317.5V330H111H118V327.368V324.737H114.17H110.34V322.5V320.263H114.038H117.736V317.632V315H114.038H110.34V312.632V310.263H114.17H118V307.632V305H111H104V317.5Z" fill="#008249"/>
<path fill-rule="evenodd" clip-rule="evenodd" d="M121 317.5V330H126.817C131.783 330 132.872 329.921 134.253 329.5C140.043 327.711 143.788 321.737 142.859 315.763C142.009 310.421 137.573 306.026 132.261 305.263C131.252 305.132 128.304 305 125.728 305H121V317.5ZM132.288 311.026C134.811 312.132 136.245 314.5 136.245 317.632C136.272 320.026 135.608 321.553 133.908 323.105C132.553 324.342 131.358 324.737 129.048 324.737H127.374V317.684C127.374 313.789 127.454 310.526 127.587 310.421C127.879 310.105 131.119 310.526 132.288 311.026Z" fill="#008249"/>
<path fill-rule="evenodd" clip-rule="evenodd" d="M147.166 305.186C146.913 305.425 146.964 318.411 147.217 321.598C147.495 324.945 148.127 326.591 149.796 328.238C151.92 330.336 154.777 331.239 158.342 330.946C161.805 330.654 164.359 329.273 166.23 326.671C167.798 324.52 167.798 324.36 167.899 314.215L168 305H161.932L161.856 313.551C161.78 321.094 161.73 322.236 161.35 322.979C159.732 326.06 155.333 326.113 153.791 323.059C153.361 322.209 153.31 321.412 153.31 313.578V305H150.327C148.683 305 147.242 305.08 147.166 305.186Z" fill="#008249"/>
<path fill-rule="evenodd" clip-rule="evenodd" d="M209.609 312.518C207.871 313.138 206.366 314.443 205.345 316.214C204.167 318.271 203.908 319.438 204.026 322.106C204.167 324.858 204.827 326.581 206.499 328.415C208.266 330.389 209.868 331 213.048 331C215.145 331 215.899 330.861 216.982 330.361C218.857 329.446 220.399 327.784 221.34 325.664C221.929 324.274 222 323.774 222 321.439C222 319.105 221.929 318.632 221.364 317.381C220.398 315.241 218.419 313.24 216.535 312.545C214.556 311.823 211.47 311.823 209.609 312.518ZM214.815 317.882C217.147 319.772 217.289 323.023 215.168 324.941C214.462 325.58 214.038 325.719 213.025 325.719C211.069 325.719 209.68 324.219 209.468 321.912C209.138 318.521 212.483 316.02 214.815 317.882Z" fill="#008249"/>
<path fill-rule="evenodd" clip-rule="evenodd" d="M266.654 312.311C265.907 312.617 265.205 313.04 264.573 313.569L263.583 314.416V312.475H258V339H263.583V333.804C263.583 330.933 263.685 328.609 263.812 328.609C264.02 328.663 264.201 328.8 264.319 328.992C264.725 329.511 266.781 330.413 268.075 330.66C269.522 330.906 272.009 330.167 273.456 329.074C277.897 325.628 278.227 318.053 274.09 314.143C272.136 312.283 268.989 311.518 266.654 312.311ZM269.471 317.971C271.629 319.639 271.502 323.413 269.218 324.835C268.202 325.491 266.197 325.464 265.258 324.808C264.432 324.189 263.852 323.256 263.635 322.196C263.419 321.137 263.582 320.028 264.091 319.092C265.157 317.233 267.771 316.686 269.471 317.971Z" fill="#008249"/>
<path fill-rule="evenodd" clip-rule="evenodd" d="M285.519 312.332C283.25 313.169 281.198 315.401 280.45 317.885C279.774 320.173 279.87 323.661 280.667 325.642C281.995 328.991 284.699 331.028 287.74 331C289.599 330.972 290.758 330.525 291.796 329.409C292.03 329.125 292.299 328.881 292.593 328.684C292.641 328.684 292.689 329.046 292.689 329.521V330.358H298V312.499H292.689V313.336C292.689 314.341 292.593 314.369 291.675 313.476C290.275 312.108 287.571 311.606 285.519 312.332ZM290.758 317.857C291.372 318.181 291.889 318.711 292.242 319.377C292.594 320.043 292.767 320.816 292.737 321.596C292.713 324.163 291.072 325.809 288.827 325.558C287.692 325.419 287.402 325.251 286.606 324.275C285.785 323.242 285.688 322.963 285.688 321.652C285.688 319.754 286.34 318.498 287.692 317.801C288.996 317.103 289.454 317.103 290.758 317.857Z" fill="#008249"/>
<path fill-rule="evenodd" clip-rule="evenodd" d="M234.918 313.372C234.175 313.636 233.48 314.026 232.86 314.525C232.327 314.943 231.844 315.232 231.742 315.153C231.622 314.818 231.57 314.462 231.59 314.106V313.241H226V330H231.59L231.615 325.732C231.615 320.39 231.819 319.081 232.708 318.295C233.673 317.431 235.35 317.457 236.163 318.321C236.976 319.238 237.154 320.573 237.18 325.601V330H242.77L242.795 325.208C242.795 322.223 242.922 320.102 243.1 319.552C243.76 317.614 245.971 316.96 247.292 318.295L247.978 319.002L248.054 324.501L248.131 330H254L253.898 323.375C253.822 316.776 253.822 316.776 253.136 315.598C252.145 313.818 250.748 313.111 248.359 313.111C246.174 313.111 244.853 313.687 243.608 315.153L242.846 316.069L241.753 314.917C240.076 313.137 237.485 312.534 234.918 313.372Z" fill="#008249"/>
<path fill-rule="evenodd" clip-rule="evenodd" d="M311.251 313.344C310.604 313.638 310 314.026 309.456 314.496L308.484 315.361V313.239H303V330H308.484V325.155C308.484 319.682 308.658 318.844 310.029 317.953C310.556 317.604 311.178 317.451 311.797 317.517C312.416 317.584 312.996 317.866 313.444 318.32L314.092 319.001L314.167 324.5L314.242 330H320L319.925 323.767L319.826 317.534L319.078 315.989C318.455 314.68 318.106 314.339 316.984 313.711C315.862 313.082 315.364 312.977 313.868 313.004C312.985 312.992 312.104 313.107 311.251 313.344Z" fill="#008249"/>
<path fill-rule="evenodd" clip-rule="evenodd" d="M322.02 313.403C322.097 313.617 323.847 316.946 325.906 320.784C327.965 324.622 329.638 327.87 329.638 328.031C329.638 328.192 328.429 330.688 326.936 333.587C325.443 336.486 324.233 338.902 324.233 338.956C324.233 339.009 325.675 339.009 327.451 338.982L330.693 338.902L337.334 325.938L344 313H337.36L335.249 317.429C334.065 319.871 333.061 321.858 332.984 321.858C332.907 321.858 331.877 319.871 330.668 317.429L328.48 313H325.16C322.329 313 321.891 313.054 322.02 313.403Z" fill="#008249"/>
<path fill-rule="evenodd" clip-rule="evenodd" d="M138.642 344.15C138.642 344.25 138.81 344.45 139.001 344.6C139.192 344.75 139.408 345.35 139.503 345.924L139.671 346.999H138.379C136.848 346.999 135.652 347.649 135.269 348.699C134.647 350.373 135.173 353.447 136.13 353.847C136.92 354.147 138.235 353.997 138.905 353.472L139.599 352.972V353.472C139.599 353.922 139.742 353.997 140.795 353.997C141.943 353.997 142.374 353.697 141.632 353.397C141.321 353.297 141.273 352.523 141.273 348.624V344H139.958C139.24 344 138.642 344.075 138.642 344.15ZM139.001 347.849C139.384 348.124 139.455 348.524 139.455 350.248C139.479 352.098 139.431 352.323 138.905 352.772C138.211 353.372 138.044 353.372 137.446 352.747C137.063 352.348 136.968 351.923 136.968 350.373C136.968 348.824 137.063 348.399 137.446 347.999C138.02 347.399 138.379 347.374 139.001 347.849Z" fill="#008249"/>
<path fill-rule="evenodd" clip-rule="evenodd" d="M253 344.225C253 344.35 253.156 344.5 253.334 344.6C253.847 344.825 253.825 352.9 253.29 353.55C252.955 353.975 253 354 254.561 354C256.122 354 256.166 353.975 255.832 353.55C255.498 353.125 255.453 352.425 255.453 348.55V344H254.226C253.557 344 253 344.1 253 344.225Z" fill="#008249"/>
<path d="M174 346C174.552 346 175 345.552 175 345C175 344.448 174.552 344 174 344C173.448 344 173 344.448 173 345C173 345.552 173.448 346 174 346Z" fill="#008249"/>
<path fill-rule="evenodd" clip-rule="evenodd" d="M200.163 344.272C198.568 344.996 198.138 346.469 199.049 347.968L199.53 348.796L198.669 349.338C197.201 350.269 196.695 351.484 197.176 352.828C197.606 353.914 200.821 354.405 202.365 353.603C203.048 353.242 203.175 353.242 203.656 353.603C204.39 354.095 205.858 354.095 206.592 353.578C207.25 353.112 207.073 352.595 206.339 352.854C206.01 352.957 205.63 352.802 205.225 352.414C204.618 351.846 204.618 351.82 205.099 351.303C205.732 350.553 206.137 349.726 206.137 349.106C206.137 348.641 205.985 348.563 205.099 348.563C204.162 348.563 204.112 348.589 204.466 348.977C204.661 349.135 204.803 349.352 204.871 349.597C204.871 349.985 204.289 351.148 204.086 351.148C203.985 351.148 203.428 350.553 202.821 349.83C201.808 348.589 201.758 348.485 202.238 348.227C203.96 347.245 204.618 345.487 203.605 344.556C202.973 343.962 201.15 343.807 200.163 344.272ZM202.542 344.996C203.023 345.487 202.897 346.133 202.188 346.986C201.403 347.968 201.226 347.968 200.872 347.141C200.264 345.771 200.644 344.686 201.707 344.686C202.013 344.685 202.309 344.795 202.542 344.996ZM201.277 351.044C201.884 351.82 202.289 352.57 202.213 352.699C202.137 352.828 201.555 352.957 200.948 352.957C199.758 352.957 199.049 352.337 199.049 351.277C199.049 350.734 199.707 349.597 200.011 349.623C200.112 349.623 200.669 350.269 201.277 351.044Z" fill="#008249"/>
<path fill-rule="evenodd" clip-rule="evenodd" d="M214.085 344.219C212.037 344.837 211 346.484 211 349.187C211 352.687 212.193 354 215.356 354C217.793 354 218 353.897 218 352.687C218 351.478 217.352 351.297 216.963 352.327C216.419 353.768 214.63 353.743 213.67 352.275C213.022 351.297 213.022 347.282 213.67 346.072C214.5 344.554 216.315 344.296 216.911 345.635C217.378 346.664 218 346.458 218 345.274C218 344.322 217.948 344.271 217.041 344.116C215.796 343.936 214.941 343.962 214.085 344.219Z" fill="#008249"/>
<path d="M264.5 346C264.776 346 265 345.552 265 345C265 344.448 264.776 344 264.5 344C264.224 344 264 344.448 264 345C264 345.552 264.224 346 264.5 346Z" fill="#008249"/>
<path fill-rule="evenodd" clip-rule="evenodd" d="M290.635 344.219C288.863 344.836 288 346.482 288 349.259C288 351.445 288.553 353.014 289.528 353.58C290.192 353.991 292.915 354.146 293.623 353.837C294.111 353.631 294.133 351.677 293.646 351.677C293.446 351.677 293.203 351.96 293.092 352.32C292.627 353.76 291.1 353.734 290.28 352.268C289.749 351.343 289.705 347.305 290.214 346.148C290.9 344.605 292.516 344.296 293.048 345.633C293.446 346.662 293.978 346.456 293.978 345.273C293.978 344.322 293.933 344.27 293.159 344.116C292.096 343.936 291.365 343.962 290.635 344.219Z" fill="#008249"/>
<path fill-rule="evenodd" clip-rule="evenodd" d="M126.371 344.476C126.967 345.163 126.992 353.172 126.42 353.41C125.328 353.859 126.371 354.044 129.474 353.991L132.876 353.912L132.95 352.643C133.025 351.586 132.95 351.401 132.578 351.401C132.33 351.401 131.982 351.771 131.759 352.273C131.411 353.04 131.287 353.119 130.07 353.198L128.754 353.278L128.829 351.216C128.903 349.313 128.953 349.154 129.45 349.075C129.67 349.068 129.888 349.118 130.087 349.219C130.285 349.32 130.458 349.47 130.592 349.656C130.939 350.026 131.262 350.344 131.361 350.344C131.461 350.344 131.51 349.683 131.51 348.89C131.51 347.33 131.163 346.987 130.567 347.991C130.466 348.167 130.317 348.306 130.138 348.386C129.96 348.467 129.763 348.486 129.574 348.441C128.928 348.361 128.903 348.335 128.903 346.511C128.903 344.449 129.027 344.317 130.666 344.661C131.262 344.767 131.634 345.031 131.808 345.48C131.871 345.645 131.972 345.79 132.103 345.901C132.233 346.012 132.388 346.086 132.553 346.115C132.901 346.115 133 345.903 133 345.057V344H129.474C126.098 344 125.974 344.026 126.371 344.476Z" fill="#008249"/>
<path fill-rule="evenodd" clip-rule="evenodd" d="M168.17 345.746C168.167 345.998 168.105 346.246 167.99 346.47C167.875 346.693 167.709 346.886 167.506 347.033C166.868 347.548 166.842 347.574 167.378 347.574C167.915 347.574 167.915 347.677 167.915 350.277C167.915 352.645 167.991 353.057 168.425 353.494C169.293 354.369 172 354.035 172 353.057C172 352.902 171.566 352.799 171.055 352.825L170.085 352.851L170.008 350.2L169.932 347.574H170.979C171.719 347.574 172 347.471 172 347.188C172 346.905 171.719 346.802 170.979 346.802C169.983 346.802 169.957 346.776 169.957 345.901C169.957 345.026 169.906 345 169.064 345C168.221 345 168.17 345.051 168.17 345.746Z" fill="#008249"/>
<path fill-rule="evenodd" clip-rule="evenodd" d="M258.17 345.746C258.167 345.998 258.105 346.246 257.99 346.47C257.875 346.693 257.709 346.886 257.506 347.033C256.868 347.548 256.842 347.574 257.378 347.574C257.915 347.574 257.915 347.677 257.915 350.277C257.915 352.645 257.991 353.057 258.425 353.494C259.293 354.369 262 354.035 262 353.057C262 352.902 261.566 352.799 261.055 352.825L260.085 352.851L260.008 350.2L259.932 347.574H260.979C261.719 347.574 262 347.471 262 347.188C262 346.905 261.719 346.802 260.979 346.802C259.983 346.802 259.957 346.776 259.957 345.901C259.957 345.026 259.906 345 259.064 345C258.221 345 258.17 345.051 258.17 345.746Z" fill="#008249"/>
<path fill-rule="evenodd" clip-rule="evenodd" d="M313.106 345.643C313.047 346.133 312.818 346.588 312.457 346.929C311.885 347.52 311.859 347.571 312.327 347.571C312.794 347.571 312.846 347.751 312.846 350.22C312.846 353.409 313.132 354 314.663 354C315.832 354 317.052 353.537 316.922 353.126C316.87 352.997 316.429 352.869 315.961 352.869C315.157 352.843 315.053 352.766 314.871 351.814C314.733 350.964 314.68 350.103 314.715 349.243L314.793 347.7L315.91 347.623C316.637 347.571 317 347.417 317 347.16C317 346.903 316.688 346.8 315.832 346.8C314.663 346.8 314.663 346.8 314.663 345.9C314.663 345.077 314.611 345 313.884 345C313.235 345 313.106 345.103 313.106 345.643Z" fill="#008249"/>
<path fill-rule="evenodd" clip-rule="evenodd" d="M143 346.229C143.027 346.413 143.1 346.583 143.21 346.714C143.326 346.886 143.466 348.314 143.513 349.914C143.583 352.257 143.676 352.943 144.025 353.4C144.608 354.171 145.89 354.171 146.915 353.429C147.661 352.857 147.661 352.857 147.661 353.429C147.661 353.914 147.824 354 148.826 354C149.945 354 150.364 353.657 149.642 353.314C149.362 353.2 149.292 352.486 149.292 349.571V346H148.127C147.032 346 146.659 346.314 147.195 346.714C147.335 346.8 147.428 348.086 147.428 349.571C147.428 352.029 147.381 352.286 146.915 352.686C146.263 353.257 146.146 353.257 145.703 352.686C145.4 352.343 145.33 351.571 145.33 349.114V346H144.165C143.536 346 143 346.114 143 346.229Z" fill="#008249"/>
<path fill-rule="evenodd" clip-rule="evenodd" d="M153.787 346.521C151.812 347.577 151.365 351.431 152.997 353.201C153.629 353.886 153.945 354 155.183 354C156.236 354 156.789 353.857 157.315 353.401C158.237 352.601 157.842 352.116 156.762 352.715C155.551 353.372 154.682 352.915 154.314 351.374C153.813 349.375 154.498 346.578 155.499 346.578C155.709 346.578 156.078 346.892 156.315 347.292C156.427 347.491 156.58 347.66 156.763 347.784C156.946 347.908 157.153 347.984 157.368 348.005C157.895 348.005 158 347.862 158 347.177C158 346.692 157.842 346.292 157.579 346.178C156.762 345.836 154.682 346.007 153.787 346.521Z" fill="#008249"/>
<path fill-rule="evenodd" clip-rule="evenodd" d="M160.812 346.327C159.673 346.67 159.259 347.042 159.259 347.73C159.259 348.589 160.502 348.445 160.864 347.558C161.382 346.298 162.754 346.298 163.039 347.558C163.375 349.104 163.117 349.505 161.485 349.848C159.777 350.221 159 350.994 159 352.282C159.012 352.742 159.178 353.181 159.466 353.513C160.139 354.2 161.874 354.143 162.728 353.399L163.401 352.826V353.399C163.401 353.914 163.557 354 164.696 354C165.939 354 166.405 353.656 165.602 353.313C165.291 353.198 165.214 352.568 165.214 350.278C165.214 347.586 165.162 347.329 164.566 346.699C163.867 345.926 162.521 345.783 160.812 346.327ZM163.142 351.251C163.142 352.797 161.951 353.714 161.123 352.797C160.372 351.967 161.278 350.278 162.495 350.278C163.065 350.278 163.142 350.392 163.142 351.251Z" fill="#008249"/>
<path fill-rule="evenodd" clip-rule="evenodd" d="M172 346.171C172.107 346.391 172.265 346.586 172.461 346.743C173.169 347.4 173.108 352.743 172.4 353.486C171.938 353.971 172 354 173.938 354C175.107 354 175.999 353.886 175.999 353.714C176.002 353.676 175.996 353.638 175.981 353.602C175.967 353.566 175.944 353.534 175.915 353.507C175.886 353.48 175.851 353.459 175.813 353.445C175.774 353.432 175.733 353.426 175.692 353.429C175.507 353.429 175.384 352 175.384 349.714V346H173.692C172.769 346 172 346.086 172 346.171Z" fill="#008249"/>
<path fill-rule="evenodd" clip-rule="evenodd" d="M178.378 346.457C177.373 347.114 176.905 348.543 177.016 350.657C177.105 352.143 177.217 352.486 177.82 353.171C178.423 353.857 178.735 354 179.785 354C181.995 354 183 352.714 183 349.857C183 347.371 181.951 346 180.053 346C179.478 346.024 178.911 346.179 178.378 346.457ZM180.678 347.171C180.99 347.6 181.102 348.286 181.169 349.8C181.258 352.343 180.924 353.286 179.986 353.286C179.048 353.286 178.735 352.343 178.802 349.629C178.869 347.8 178.959 347.314 179.316 346.971C179.896 346.429 180.187 346.457 180.678 347.171Z" fill="#008249"/>
<path fill-rule="evenodd" clip-rule="evenodd" d="M185 346.257C185.07 346.498 185.209 346.708 185.398 346.857C185.69 347.143 185.796 347.886 185.796 350.029C185.796 352.114 185.69 352.914 185.398 353.257C185.228 353.414 185.092 353.609 185 353.829C185 353.914 185.769 354 186.724 354C187.679 354 188.448 353.914 188.448 353.829C188.356 353.609 188.22 353.414 188.05 353.257C187.493 352.629 187.493 348.657 188.077 347.771C188.581 347 189.668 346.943 190.04 347.686C190.464 348.6 190.384 352.629 189.88 353.371L189.483 354H191.207C192.772 354 193.488 353.657 192.639 353.371C192.4 353.286 192.268 352.2 192.161 350.029C192.055 347.286 191.949 346.743 191.525 346.4C190.782 345.829 189.43 345.914 188.634 346.571C188.387 346.804 188.11 346.997 187.812 347.143C187.732 347.143 187.652 346.886 187.652 346.571C187.652 346.086 187.467 346 186.326 346C185.61 346 185 346.114 185 346.257Z" fill="#008249"/>
<path fill-rule="evenodd" clip-rule="evenodd" d="M221.636 346.402C220.545 346.918 220 348.152 220 350.131C220 351.967 220.519 353.201 221.48 353.689C222.363 354.148 224.571 354.09 225.428 353.574C227.583 352.34 227.505 347.377 225.298 346.373C224.119 345.866 222.809 345.876 221.636 346.402ZM224.285 347.119C224.934 347.922 225.116 350.963 224.597 352.369C224.285 353.201 224.025 353.431 223.532 353.431C222.493 353.431 222.078 352.455 222.078 349.931C222.078 348.066 222.156 347.607 222.597 347.119C223.246 346.402 223.688 346.402 224.285 347.119Z" fill="#008249"/>
<path fill-rule="evenodd" clip-rule="evenodd" d="M228 346.257C228 346.4 228.158 346.571 228.339 346.686C228.61 346.8 228.677 347.457 228.677 350.143C228.677 352.143 228.587 353.429 228.452 353.429C228.392 353.429 228.334 353.459 228.292 353.512C228.25 353.566 228.226 353.639 228.226 353.714C228.226 353.886 228.881 354 229.739 354C231.161 354 231.206 353.971 230.868 353.486C230.281 352.657 230.326 348.286 230.913 347.6C231.613 346.8 232.335 347.114 232.584 348.286C232.855 349.629 232.697 353.2 232.335 353.371C231.613 353.657 232.223 354 233.532 354C234.345 354 235 353.914 235 353.829C234.921 353.609 234.806 353.414 234.661 353.257C234.413 352.914 234.323 352.114 234.323 349.971C234.323 347.514 234.255 347.057 233.871 346.571C233.284 345.829 232.2 345.829 231.252 346.6L230.484 347.2V346.6C230.484 346.057 230.348 346 229.242 346C228.565 346 228 346.114 228 346.257Z" fill="#008249"/>
<path fill-rule="evenodd" clip-rule="evenodd" d="M238.165 346.322C237.776 346.594 237.459 346.996 237.254 347.478C236.799 348.606 237.278 349.617 238.74 350.542C240.154 351.438 240.562 352.074 240.178 352.797C239.747 353.635 238.74 353.606 238.069 352.768C237.302 351.727 236.919 351.814 237.014 352.941L237.086 353.895L238.908 353.982C240.442 354.04 240.802 353.982 241.353 353.462C241.856 352.97 242 352.595 242 351.727C242 350.513 241.784 350.224 240.106 349.126C238.956 348.375 238.644 347.652 239.124 346.958C239.555 346.322 240.274 346.438 240.897 347.247C241.664 348.259 242.048 348.172 241.952 347.016L241.88 346.091L240.322 346.004C239.411 345.975 238.525 346.091 238.165 346.322Z" fill="#008249"/>
<path fill-rule="evenodd" clip-rule="evenodd" d="M244 346.257C244 346.4 244.161 346.571 244.344 346.686C244.619 346.8 244.688 347.429 244.688 349.629C244.688 353.2 244.917 353.829 246.27 353.943C246.843 354 247.463 353.857 247.738 353.629C248.357 353.143 248.724 353.143 248.632 353.629C248.586 353.886 248.93 354 249.87 354C251.132 354 251.155 353.971 250.811 353.486C250.49 353.057 250.421 352.314 250.421 349.486V346H249.16C247.944 346 247.508 346.314 248.242 346.686C248.517 346.8 248.586 347.4 248.586 349.543C248.586 352.114 248.563 352.286 248.036 352.714C247.6 353.086 247.371 353.114 247.004 352.857C246.568 352.571 246.522 352.286 246.522 349.286V346H245.261C244.573 346 244 346.114 244 346.257Z" fill="#008249"/>
<path fill-rule="evenodd" clip-rule="evenodd" d="M263 346.171C263.054 346.391 263.132 346.586 263.231 346.743C263.585 347.4 263.554 352.743 263.2 353.486C262.969 353.971 263 354 263.969 354C264.554 354 265 353.886 265 353.714C265.001 353.676 264.998 353.638 264.991 353.602C264.983 353.566 264.972 353.534 264.958 353.507C264.943 353.48 264.926 353.459 264.906 353.445C264.887 353.432 264.866 353.426 264.846 353.429C264.754 353.429 264.692 352 264.692 349.714V346H263.846C263.385 346 263 346.086 263 346.171Z" fill="#008249"/>
<path fill-rule="evenodd" clip-rule="evenodd" d="M267 346.257C267 346.4 267.18 346.571 267.386 346.686C267.695 346.8 267.772 347.457 267.772 349.971C267.772 351.743 267.669 353.171 267.515 353.286C266.871 353.743 267.412 354 268.982 354C270.604 354 270.656 353.971 270.269 353.486C269.6 352.686 269.652 348.286 270.295 347.629C270.887 347.029 271.788 347 271.994 347.6C272.252 348.371 272.174 353.429 271.891 353.429C271.823 353.429 271.758 353.459 271.709 353.512C271.661 353.566 271.634 353.639 271.634 353.714C271.634 353.886 272.355 354 273.307 354C274.878 354 275.47 353.686 274.594 353.314C274.285 353.2 274.208 352.6 274.208 350.429C274.208 347.829 273.977 346.686 273.333 346.229C272.818 345.829 271.505 346 270.681 346.571C269.858 347.143 269.832 347.143 269.832 346.571C269.832 346.057 269.652 346 268.416 346C267.644 346 267 346.114 267 346.257Z" fill="#008249"/>
<path fill-rule="evenodd" clip-rule="evenodd" d="M277.644 346.271C276.33 346.89 275.908 349.131 276.801 350.488L277.322 351.255L276.801 351.874C276.255 352.523 276.156 353.643 276.603 354.174C276.826 354.44 276.801 354.617 276.454 354.912C275.958 355.354 275.834 356.74 276.255 357.241C276.875 357.979 279.33 358.244 280.843 357.743C282.182 357.3 282.752 356.534 282.752 355.148C282.752 353.584 282.306 353.26 279.925 353.054C278.066 352.906 277.917 352.847 277.842 352.228C277.768 351.609 277.867 351.579 278.909 351.579C281.339 351.579 282.628 350.046 282.058 347.863C281.81 346.919 281.835 346.861 282.405 346.861C282.777 346.861 283 346.684 283 346.418C283 346.064 282.578 345.976 280.595 346.005C279.256 346.005 277.917 346.123 277.644 346.271ZM279.975 346.919C280.421 347.45 280.347 349.957 279.876 350.517C279.724 350.745 279.516 350.91 279.281 350.989C278.313 350.989 277.842 347.509 278.735 346.89C279.305 346.477 279.628 346.507 279.975 346.919ZM280.967 355.177C281.735 356.091 280.917 357.182 279.405 357.182C278.913 357.192 278.422 357.133 277.942 357.005C277.545 356.829 277.396 355.413 277.718 355.03C277.991 354.676 280.644 354.794 280.967 355.177Z" fill="#008249"/>
<path fill-rule="evenodd" clip-rule="evenodd" d="M296.817 346.439C294.581 347.467 294.335 352.433 296.49 353.575C297.608 354.203 299.709 354.118 300.773 353.433C302.245 352.491 301.891 351.805 300.336 352.605C299.923 352.862 299.471 353.046 299 353.147C298.372 353.147 297.281 351.863 297.118 350.921L296.954 350.007H302L301.836 348.78C301.536 346.41 299.218 345.326 296.817 346.439ZM299.3 347.038C299.584 347.4 299.739 347.855 299.736 348.323C299.736 349.122 299.709 349.151 298.372 349.151C297.036 349.151 297.008 349.151 297.172 348.352C297.39 347.438 298.045 346.582 298.536 346.582C298.833 346.637 299.103 346.799 299.3 347.038Z" fill="#008249"/>
<path fill-rule="evenodd" clip-rule="evenodd" d="M303 346.257C303 346.4 303.184 346.571 303.394 346.686C303.998 346.914 303.971 352.743 303.341 353.486C302.947 353.971 303 354 304.838 354C306.675 354 306.728 353.971 306.334 353.486C305.704 352.743 305.704 348.257 306.308 347.6C306.405 347.472 306.525 347.366 306.661 347.291C306.797 347.215 306.946 347.17 307.099 347.159C307.251 347.149 307.404 347.172 307.548 347.228C307.692 347.284 307.824 347.372 307.935 347.486C308.329 347.914 308.382 353.029 307.988 353.286C307.332 353.743 307.883 354 309.484 354C311.138 354 311.191 353.971 310.797 353.486C310.456 353.057 310.351 352.371 310.351 350.229C310.351 347.914 310.272 347.4 309.799 346.743C309.143 345.829 307.962 345.743 306.728 346.571C305.678 347.286 305.651 347.286 305.809 346.571C305.94 346.057 305.809 346 304.47 346C303.656 346 303 346.114 303 346.257Z" fill="#008249"/>
<path fill-rule="evenodd" clip-rule="evenodd" d="M318 346.171C318.076 346.391 318.187 346.586 318.326 346.743C318.565 347.086 318.652 347.886 318.652 350C318.652 352.114 318.565 352.914 318.326 353.257C318.187 353.414 318.076 353.609 318 353.829C318 353.914 318.63 354 319.413 354C320.674 354 321.261 353.657 320.565 353.371C320.196 353.2 320.087 348.886 320.435 348C320.783 347.114 321.304 346.971 321.761 347.571C321.981 347.818 322.255 347.968 322.543 348C322.913 348 323 347.829 323 347C323 346.057 322.957 346 322.261 346C321.801 346.028 321.356 346.226 320.978 346.571C320.776 346.804 320.549 346.997 320.304 347.143C320.239 347.143 320.174 346.886 320.174 346.571C320.174 346.086 320.022 346 319.087 346C318.5 346 318 346.086 318 346.171Z" fill="#008249"/>
<path fill-rule="evenodd" clip-rule="evenodd" d="M325.746 346.429C323.748 347.543 323.365 351.742 325.117 353.314C326.074 354.199 328.537 354.228 329.851 353.399C330.371 353.085 330.726 352.685 330.672 352.514C330.562 352.142 330.453 352.171 329.194 352.714C327.552 353.428 326.074 352.371 326.074 350.542C326.074 350.028 326.266 349.971 328.537 349.971C331 349.971 331 349.971 331 349.257C330.966 348.708 330.822 348.172 330.577 347.684C330.332 347.197 329.991 346.769 329.577 346.429C328.811 345.857 326.731 345.857 325.746 346.429ZM328.373 347.171C328.626 347.552 328.777 347.995 328.811 348.457C328.811 349.057 328.674 349.114 327.415 349.114C326.02 349.114 326.02 349.114 326.211 348.314C326.43 347.4 327.114 346.543 327.607 346.543C327.798 346.543 328.154 346.828 328.373 347.171Z" fill="#008249"/>
</svg>
