<svg width="500" height="500" viewBox="0 0 500 500" fill="none" xmlns="http://www.w3.org/2000/svg">
<rect width="500" height="500" fill="#FF1E37"/>
<path d="M249.783 120.014C229.03 120.344 209.385 128.816 194.487 143.844L142 196.368L182.804 237.658L235.17 185.27C239.448 180.941 244.957 178.493 250.688 178.421C253.398 178.382 256.089 178.896 258.599 179.933C261.109 180.97 263.387 182.509 265.296 184.457L314.376 234.1C318.47 238.239 320.722 243.508 320.722 248.926C320.722 254.343 318.47 259.625 314.339 263.806L258.888 320.714L299.692 362L354.306 304.995C385.282 273.536 386.211 224.218 355.177 192.81L306.097 143.149C298.744 135.641 289.962 129.719 280.283 125.742C270.604 121.765 260.228 119.817 249.783 120.014Z" fill="#B4B4B5"/>
<path d="M185.932 234.121L199.099 221.34L238.345 181.534L232.603 175.72C227.99 171.032 222.504 167.316 216.463 164.79C210.422 162.263 203.946 160.975 197.41 161H197.213C190.754 160.989 184.358 162.28 178.398 164.798C172.438 167.316 167.032 171.01 162.497 175.665L145.31 192.701C130.427 207.735 122.044 228.133 122 249.418C121.956 270.703 130.255 291.137 145.076 306.233L193.754 355.508C208.659 370.559 228.853 379.008 249.905 379C270.956 378.992 291.144 370.528 306.038 355.466L318.327 342.338L357 301.664L351.747 296.337C347.188 291.696 341.765 288.017 335.792 285.512C329.82 283.007 323.416 281.726 316.951 281.744H316.758C310.263 281.749 303.835 283.065 297.848 285.615C291.861 288.165 286.437 291.898 281.891 296.595L265.161 313.78C256.553 322.423 242.813 322.617 234.523 314.228L230.804 310.464L246.28 294.795L286.589 253.363L280.863 247.596C276.306 242.953 270.884 239.273 264.912 236.768C258.939 234.263 252.535 232.983 246.071 233.003H245.879C239.39 233.007 232.967 234.32 226.985 236.864C221.003 239.409 215.581 243.135 211.037 247.824L190.015 269.167L185.832 264.932C177.504 256.488 177.588 242.628 185.932 234.121Z" fill="white"/>
</svg>
