<svg width="500" height="500" viewBox="0 0 500 500" fill="none" xmlns="http://www.w3.org/2000/svg">
<rect width="500" height="500" fill="#F0F0F0"/>
<path fill-rule="evenodd" clip-rule="evenodd" d="M277.336 254.239C268.51 254.239 265.989 257.186 265.989 262.096C265.989 265.67 267.877 267.852 272.292 267.863C276.39 267.863 280.278 266.39 284.058 263.444V254.239H277.336ZM254.534 220.984C258.949 218.884 264.34 217 274.005 217C290.816 217 298.875 227.597 298.977 244.418V280.51H285.425V274.509C281.117 278.928 275.653 282 268.091 282C256.636 282 250.962 274.263 250.962 263.215C250.962 250.174 258.422 243.082 273.13 243.082H284.268C283.849 236.452 280.8 232.033 271.555 232.033C264.725 232.033 259.475 233.779 255.797 235.961C255.507 232.92 255.28 230.064 255.065 227.353V227.35L255.065 227.346C254.889 225.137 254.722 223.024 254.534 220.984ZM368.767 218.844L355.976 243.232H351.676V218.844H336.996V243.232H332.798L319.9 218.844H304.698L321.892 249.24L305.219 280.617H321.682L333.217 256.594H336.996V280.617H351.676V256.594H355.45L366.985 280.617H383.448L366.882 249.24L383.973 218.844H368.767ZM199.066 233.552V218.844H246.263V233.552H230.006V280.617H215.323V233.552H199.066ZM405.634 257.085L427.179 218.844H442V280.617H427.179V242.987L405.741 280.617H390.92V218.844H405.634V257.085ZM166.819 217.231C158.138 217.231 151.755 218.577 147.257 221.047C147.41 222.854 147.564 224.778 147.718 226.702V226.704C147.982 230.003 148.246 233.303 148.51 236.013C151.862 233.93 156.866 232.087 163.263 232.087C171.949 232.087 177.19 236.138 179.047 242.991H157.929V256.359H179.168C177.385 263.109 172.785 267.034 165.041 267.034C158.138 267.034 153.115 264.21 149.559 260.53C148.699 262.442 147.837 264.263 146.968 266.101C145.829 268.507 144.676 270.944 143.491 273.658C147.99 278.075 154.791 282 166.401 282C184.506 282 195.184 270.224 195.184 249.615C195.068 230.261 184.604 217.231 166.819 217.231ZM93.1563 266.946L93.2465 273.838L121.444 276.77L121.091 272.457L93.1563 266.946ZM120.295 263.413L92.8935 252.786L92.9798 259.706L120.648 267.823L120.295 263.413ZM119.498 254.19L92.6268 238.654L92.7876 245.568L119.851 258.703L119.498 254.19ZM118.702 244.668L92.4503 224.517L92.5405 231.436L119.055 249.378L118.702 244.668ZM56.6515 238.351L92.2856 217L122.326 242.664L125.511 280.156H54L56.6515 238.351Z" fill="#FC403A"/>
</svg>
