<svg width="500" height="500" viewBox="0 0 500 500" fill="none" xmlns="http://www.w3.org/2000/svg">
<rect width="500" height="500" fill="#F0F0F0"/>
<path d="M200.619 336.676C190.538 336.676 182.365 344.679 182.365 354.55C182.365 364.417 190.538 372.42 200.619 372.42C210.699 372.42 218.872 364.417 218.872 354.55C218.872 344.679 210.699 336.676 200.619 336.676ZM200.619 365.055C194.694 365.055 189.887 360.352 189.887 354.55C189.887 348.744 194.694 344.041 200.619 344.041C206.543 344.041 211.35 348.744 211.35 354.55C211.35 360.352 206.543 365.055 200.619 365.055ZM157.266 354.761V364.461C157.266 365.53 156.82 366.55 156.044 367.296C154.281 368.992 152.168 370.341 149.819 371.228C147.786 371.998 145.573 372.42 143.254 372.42C133.229 372.42 125.086 364.5 125.001 354.707C124.916 345.066 132.823 336.99 142.663 336.686C147.977 336.519 152.799 338.578 156.229 341.982C157.802 343.546 157.632 346.101 155.874 347.459C155.193 347.984 154.382 348.239 153.575 348.239C152.584 348.239 151.592 347.857 150.841 347.121C148.828 345.15 146.023 343.958 142.934 344.046C137.445 344.203 132.883 348.514 132.542 353.883C132.157 359.989 137.1 365.055 143.254 365.055C145.723 365.055 148.002 364.236 149.819 362.858V358.317H146.755C144.716 358.317 142.939 356.777 142.874 354.781C142.813 352.716 144.501 351.02 146.599 351.02H149.819V351.015H153.445C155.558 351.02 157.266 352.697 157.266 354.761ZM247.742 343.909C244.527 339.662 239.434 336.867 233.665 336.686H230.265V336.676H228.913L226.639 336.681H226.619C226.594 336.681 226.569 336.676 226.544 336.676C224.486 336.676 222.818 338.309 222.818 340.324V368.777C222.818 368.982 222.833 369.179 222.873 369.375C223.159 371.101 224.696 372.42 226.544 372.42C226.569 372.42 226.594 372.42 226.619 372.415C226.629 372.415 226.634 372.42 226.639 372.42H230.265V372.415H233.545C239.364 372.268 244.502 369.463 247.742 365.187C249.996 362.215 251.328 358.537 251.328 354.55C251.328 350.564 249.996 346.881 247.742 343.909ZM233.074 365.118H230.265V343.978H233.074C238.999 343.978 243.806 348.71 243.806 354.55C243.806 360.386 238.999 365.118 233.074 365.118ZM182.616 368.654C182.681 370.718 180.988 372.415 178.895 372.415H168.729V372.42H165.103C162.99 372.415 161.282 370.738 161.282 368.674V340.324C161.282 339.314 161.698 338.402 162.374 337.745C163.045 337.083 163.977 336.676 165.003 336.676C167.061 336.676 168.729 338.309 168.729 340.324V365.118H178.74C180.778 365.118 182.556 366.658 182.616 368.654ZM283.558 368.654C283.623 370.718 281.931 372.415 279.837 372.415H262.946V372.42H259.32C259.315 372.42 259.31 372.415 259.3 372.415C259.275 372.42 259.25 372.42 259.225 372.42C257.167 372.42 255.499 370.787 255.499 368.777V340.324C255.499 338.309 257.167 336.676 259.225 336.676C259.25 336.676 259.275 336.681 259.3 336.681H259.32L261.594 336.676H262.946V336.686H279.837C281.931 336.686 283.623 338.377 283.558 340.442C283.498 342.438 281.72 343.978 279.682 343.978H262.946V351.422H268.675C270.718 351.422 272.496 352.962 272.556 354.957C272.621 357.022 270.928 358.714 268.835 358.714H262.946V365.118H279.682C281.72 365.118 283.498 366.658 283.558 368.654ZM336.14 340.324V368.767C336.14 370.782 334.473 372.415 332.414 372.415C331.383 372.415 330.451 372.008 329.78 371.346C329.104 370.689 328.689 369.777 328.689 368.767V340.324C328.689 339.314 329.104 338.402 329.78 337.745C330.451 337.083 331.383 336.676 332.414 336.676C334.473 336.676 336.14 338.309 336.14 340.324ZM325.238 340.324V368.767C325.238 369.777 324.823 370.689 324.147 371.346C323.42 372.062 322.384 372.484 321.247 372.405C319.274 372.273 317.787 370.576 317.787 368.639V350.255L309.308 359.95C307.866 361.597 305.262 361.597 303.82 359.945L295.347 350.255V368.639C295.347 370.576 293.859 372.273 291.886 372.405C290.749 372.484 289.713 372.062 288.987 371.346C288.311 370.689 287.895 369.777 287.895 368.767V340.324C287.895 339.314 288.311 338.402 288.987 337.745C289.658 337.083 290.589 336.676 291.621 336.676C292.637 336.676 293.554 337.068 294.22 337.715L294.23 337.725L294.635 338.186L294.65 338.211L306.564 351.839L318.483 338.211L318.498 338.186L318.903 337.725L318.913 337.715C319.579 337.068 320.496 336.676 321.512 336.676C322.544 336.676 323.476 337.083 324.147 337.745C324.823 338.402 325.238 339.314 325.238 340.324ZM374.625 367.016L360.904 338.794C360.473 337.916 359.727 337.289 358.871 336.975C358.846 336.965 358.826 336.955 358.801 336.945C358.791 336.945 358.786 336.941 358.776 336.936C358.695 336.911 358.62 336.892 358.54 336.867C358.51 336.862 358.48 336.847 358.45 336.842C358.36 336.818 358.27 336.803 358.175 336.789C358.15 336.784 358.12 336.774 358.09 336.769C358.009 336.759 357.924 336.754 357.834 336.744C357.799 336.744 357.764 336.74 357.729 336.735H357.368C357.328 336.74 357.293 336.744 357.258 336.744C357.173 336.754 357.088 336.759 357.003 336.769C356.978 336.774 356.948 336.784 356.918 336.789C356.828 336.803 356.737 336.818 356.647 336.842C356.617 336.847 356.587 336.862 356.557 336.867C356.477 336.892 356.397 336.911 356.322 336.936C356.312 336.941 356.302 336.945 356.292 336.945C356.272 336.955 356.247 336.965 356.227 336.975C355.365 337.289 354.624 337.916 354.193 338.794L340.472 367.016C340.021 367.923 339.991 368.924 340.307 369.801C340.617 370.684 341.273 371.449 342.205 371.891C344.053 372.768 346.281 372.008 347.178 370.194L350.508 363.348H364.59L367.915 370.194C368.811 372.008 371.04 372.768 372.893 371.891C373.824 371.449 374.48 370.684 374.791 369.801C375.106 368.924 375.076 367.923 374.625 367.016ZM354.068 356.017L357.549 348.867L361.024 356.017H354.068Z" fill="#414042"/>
<path d="M339.591 210.37C344.136 214.839 344.136 222.087 339.596 226.556L327.609 238.366L289.371 276.039L270.252 294.875L258.3 306.646C253.76 311.115 246.398 311.12 241.858 306.65L229.876 294.865L172.424 238.356L160.408 226.536C155.867 222.067 155.862 214.82 160.403 210.35L172.354 198.58L239.805 132.129C245.389 126.628 254.449 126.623 260.038 132.12C265.627 137.617 265.632 146.536 260.043 152.038L200.818 210.39C196.278 214.859 196.283 222.111 200.823 226.576L241.823 266.908C246.368 271.377 253.73 271.373 258.265 266.903L269.163 256.165L298.341 227.422C303.34 222.495 303.34 214.51 298.336 209.583C293.331 204.657 285.215 204.662 280.216 209.588L261.157 228.366C255.568 233.872 246.503 233.877 240.909 228.375C235.315 222.874 235.315 213.95 240.899 208.448L269.018 180.742L281.005 168.932C285.545 164.457 292.907 164.457 297.447 168.927L309.469 180.756L339.591 210.37Z" fill="url(#paint0_linear_1353_83)"/>
<path d="M326 196.092C311.233 188.999 290.194 201.878 282.737 207.023C282.732 207.028 282.721 207.033 282.716 207.038C281.74 207.558 280.829 208.214 280 209C280.605 208.349 302.748 184.857 320.659 191.034L326 196.092Z" fill="url(#paint1_linear_1353_83)"/>
<path d="M286 278.888L281.169 283.785C263.708 290.676 242 266 242 266C242 266 242.005 266.005 242.015 266.01C242.912 266.919 243.92 267.646 244.996 268.191C244.996 268.191 244.996 268.191 245.001 268.191C252.445 273.371 272.164 285.436 286 278.888Z" fill="url(#paint2_linear_1353_83)"/>
<path d="M201 210C201 210 200.995 210.005 200.99 210.015C200.233 210.752 199.602 211.569 199.098 212.434C194.182 219.048 181.799 237.898 187.748 253L183.146 248.52C176.49 231.048 201 210 201 210Z" fill="url(#paint3_linear_1353_83)"/>
<defs>
<linearGradient id="paint0_linear_1353_83" x1="201.866" y1="264.151" x2="294.852" y2="173.128" gradientUnits="userSpaceOnUse">
<stop stop-color="#0085B2"/>
<stop offset="0.9788" stop-color="#00B1D9"/>
</linearGradient>
<linearGradient id="paint1_linear_1353_83" x1="294.874" y1="207.865" x2="329.611" y2="179.189" gradientUnits="userSpaceOnUse">
<stop stop-color="#00566A"/>
<stop offset="1" stop-color="#00B3DA"/>
</linearGradient>
<linearGradient id="paint2_linear_1353_83" x1="254.051" y1="267.721" x2="291.564" y2="291.044" gradientUnits="userSpaceOnUse">
<stop stop-color="#00566A"/>
<stop offset="1" stop-color="#0080A6"/>
</linearGradient>
<linearGradient id="paint3_linear_1353_83" x1="182.4" y1="249.096" x2="190.806" y2="232.487" gradientUnits="userSpaceOnUse">
<stop stop-color="#006D92"/>
<stop offset="1" stop-color="#00566A"/>
</linearGradient>
</defs>
</svg>
