<svg width="500" height="500" viewBox="0 0 500 500" fill="none" xmlns="http://www.w3.org/2000/svg">
<rect width="500" height="500" fill="#E5E5E5"/>
<path fill-rule="evenodd" clip-rule="evenodd" d="M0 0H500V500H0V0Z" fill="#F0F0F0"/>
<path d="M187.276 303.051V314.222L163.411 323.227V312.065L187.276 303.051Z" fill="#1A4684"/>
<path d="M187.276 289.143V300.313L163.411 309.319V298.148L187.276 289.143Z" fill="#1A4684"/>
<path d="M187.276 275.232V286.403L163.411 295.408V284.238L187.276 275.232Z" fill="#1A4684"/>
<path d="M313.198 354.662V220.846L296.345 210.078V231.557L272.007 222.365V167.485L255.154 157.191V243.323L231.753 257.368V231.684L187.276 258.774V272.495L163.411 281.5V243.797L231.753 202.189V116L296.809 155.316V181.999L337.063 207.275V329.925L360 354.662H313.198Z" fill="#1A4684"/>
<path d="M255.614 292.943V354.741H140L163.411 330.867V325.973L186.929 317.094L187.276 316.967V330.388H231.275V306.514L208.811 293.416L209.275 264.395L255.614 292.943Z" fill="#1A4684"/>
<path d="M187.276 316.887V316.966L186.929 317.093L187.276 316.887Z" fill="#1A4684"/>
<path d="M296.345 345.573V354.742H272.007V336.395L296.345 345.573Z" fill="#1A4684"/>
<path d="M296.345 331.665V342.84L272.007 333.648V322.486L296.345 331.665Z" fill="#1A4684"/>
<path d="M296.345 317.757V328.932L272.007 319.74V308.578L296.345 317.757Z" fill="#1A4684"/>
<path d="M296.345 303.846V315.022L272.007 305.829V294.658L296.345 303.846Z" fill="#1A4684"/>
<path d="M296.345 289.939V301.114L272.007 291.922V280.746L296.345 289.939Z" fill="#1A4684"/>
<path d="M296.345 276.031V287.206L272.007 278.013V266.838L296.345 276.031Z" fill="#1A4684"/>
<path d="M296.345 262.111V273.282L272.007 264.103V252.928L296.345 262.111Z" fill="#1A4684"/>
<path d="M296.345 248.203V259.374L272.007 250.181V239.02L296.345 248.203Z" fill="#1A4684"/>
<path d="M296.345 234.294V245.465L272.007 236.272V225.102L296.345 234.294Z" fill="#1A4684"/>
<path d="M187.276 316.889V316.968L186.929 317.095L187.276 316.889Z" fill="#1A4684"/>
<path d="M149.39 384.945H144.069C141.463 384.945 140.038 383.52 140.038 380.914V369.635C140.038 367.029 141.463 365.604 144.069 365.604H149.39C151.996 365.604 153.421 367.029 153.421 369.635V371.744H149.282V369.879C149.282 369.415 149.061 369.194 148.597 369.194H144.922C144.458 369.194 144.238 369.415 144.238 369.879V380.67C144.238 381.134 144.458 381.354 144.922 381.354H148.597C149.061 381.354 149.282 381.134 149.282 380.67V378.223H146.778V374.895H153.421V380.909C153.421 383.52 151.996 384.945 149.39 384.945Z" fill="#1A4684"/>
<path d="M160.514 373.564V384.842H156.585V365.707H160.678L164.906 374.412L169.055 365.707H173.147V384.842H169.195V373.451L166.284 379.33H163.457L160.514 373.564Z" fill="#1A4684"/>
<path d="M190.965 378.339V380.921C190.965 383.528 189.54 384.953 186.934 384.953H181.876C179.269 384.953 177.844 383.528 177.844 380.921V369.643C177.844 367.036 179.269 365.611 181.876 365.611H186.929C189.535 365.611 190.96 367.036 190.96 369.643V371.626H187.449V369.737C187.449 369.019 187.088 368.672 186.385 368.672H182.49C181.772 368.672 181.426 369.033 181.426 369.737V380.856C181.426 381.573 181.786 381.92 182.49 381.92H186.385C187.102 381.92 187.449 381.559 187.449 380.856V378.362H190.96V378.339H190.965Z" fill="#1A4684"/>
<path d="M197.861 384.945C195.254 384.945 193.829 383.52 193.829 380.914V369.635C193.829 367.029 195.254 365.604 197.861 365.604H203.275C205.881 365.604 207.306 367.029 207.306 369.635V380.914C207.306 383.52 205.881 384.945 203.275 384.945H197.861ZM197.383 380.811C197.383 381.528 197.767 381.912 198.447 381.912H202.642C203.359 381.912 203.706 381.528 203.706 380.848V369.733C203.706 369.016 203.345 368.669 202.642 368.669H198.447C197.729 368.669 197.383 369.03 197.383 369.733V380.811Z" fill="#1A4684"/>
<path d="M214.273 372.489V384.846H210.921V365.711H214.212L221.051 378.03V365.711H224.403V384.846H221.135L214.273 372.489Z" fill="#1A4684"/>
<path d="M227.834 369.499C227.834 366.972 229.259 365.604 231.866 365.604H236.886C239.413 365.604 240.838 366.972 240.838 369.499V371.444H237.327V369.555C237.327 368.927 236.966 368.594 236.263 368.594H232.414C231.697 368.594 231.35 368.918 231.35 369.555V371.721C231.35 372.349 231.491 372.602 232.114 372.766L238.372 374.388C240.135 374.852 241.039 376.01 241.039 377.623V381.054C241.039 383.581 239.614 384.95 237.008 384.95H231.631C229.081 384.95 227.679 383.581 227.679 381.054V379.268H231.19V380.993C231.19 381.631 231.551 381.954 232.255 381.954H236.427C237.191 381.954 237.491 381.593 237.491 380.993V378.326C237.491 377.745 237.27 377.501 236.689 377.365L230.29 375.696C229.006 375.373 227.82 374.412 227.82 372.265V369.494H227.834V369.499Z" fill="#1A4684"/>
<path d="M251.282 368.815V384.842H247.71V368.815H242.994V365.707H255.975V368.815H251.282Z" fill="#1A4684"/>
<path d="M265.444 377.459H262.069V384.842H258.497V365.707H267.525C270.131 365.707 271.557 367.132 271.557 369.738V373.414C271.557 375.443 270.675 376.765 269.063 377.262L271.613 384.842H267.802L265.444 377.459ZM262.073 368.731V374.445H266.963C267.68 374.445 268.008 374.084 268.008 373.381V369.809C268.008 369.124 267.684 368.745 266.963 368.745H262.073V368.731Z" fill="#1A4684"/>
<path d="M288.287 365.707V380.914C288.287 383.52 286.862 384.945 284.256 384.945H278.841C276.235 384.945 274.81 383.52 274.81 380.914V365.707H278.382V380.773C278.382 381.491 278.743 381.838 279.446 381.838H283.642C284.359 381.838 284.706 381.477 284.706 380.773V365.707H288.287V365.707Z" fill="#1A4684"/>
<path d="M304.957 378.339V380.921C304.957 383.528 303.532 384.953 300.925 384.953H295.872C293.265 384.953 291.84 383.528 291.84 380.921V369.643C291.84 367.036 293.265 365.611 295.872 365.611H300.925C303.532 365.611 304.957 367.036 304.957 369.643V371.626H301.446V369.737C301.446 369.019 301.085 368.672 300.381 368.672H296.486C295.769 368.672 295.422 369.033 295.422 369.737V380.856C295.422 381.573 295.783 381.92 296.486 381.92H300.381C301.099 381.92 301.446 381.559 301.446 380.856V378.362H304.957V378.339Z" fill="#1A4684"/>
<path d="M315.007 368.815V384.842H311.435V368.815H306.719V365.707H319.7V368.815H315.007Z" fill="#1A4684"/>
<path d="M322.226 365.707H325.798V384.842H322.226V365.707Z" fill="#1A4684"/>
<path d="M333.458 384.945C330.852 384.945 329.427 383.52 329.427 380.914V369.635C329.427 367.029 330.852 365.604 333.458 365.604H338.872C341.479 365.604 342.904 367.029 342.904 369.635V380.914C342.904 383.52 341.479 384.945 338.872 384.945H333.458ZM332.994 380.811C332.994 381.528 333.378 381.912 334.058 381.912H338.254C338.971 381.912 339.318 381.528 339.318 380.848V369.733C339.318 369.016 338.957 368.669 338.254 368.669H334.058C333.341 368.669 332.994 369.03 332.994 369.733V380.811Z" fill="#1A4684"/>
<path d="M349.87 372.489V384.846H346.518V365.711H349.809L356.648 378.03V365.711H360V384.846H356.733L349.87 372.489Z" fill="#1A4684"/>
</svg>
