<svg width="500" height="500" viewBox="0 0 500 500" fill="none" xmlns="http://www.w3.org/2000/svg">
<rect width="500" height="500" fill="#E5E5E5"/>
<path fill-rule="evenodd" clip-rule="evenodd" d="M0 0H500V500H0V0Z" fill="#F0F0F0"/>
<path d="M378.188 318.208C378.188 319.258 377.838 319.959 377.838 320.659C377.838 321.36 377.838 321.71 377.488 322.411C377.138 324.162 376.437 325.563 375.737 326.964C374.686 328.014 373.285 329.065 371.884 329.415C371.184 329.766 370.483 329.766 369.783 329.766C368.732 329.766 368.031 329.766 366.981 329.766C365.93 329.766 365.229 329.766 364.179 329.766H349.118L348.418 337.121H363.478C365.58 337.121 367.681 337.121 369.783 337.121C371.884 337.121 373.986 336.771 375.737 336.07C377.488 335.72 378.889 334.669 379.94 333.618C381.341 332.568 382.391 331.167 383.442 329.766C384.493 328.365 385.193 326.263 385.543 324.162C385.894 323.111 385.894 321.71 386.244 319.959C386.244 318.208 386.594 316.106 386.944 314.005C387.295 311.553 387.295 309.101 387.645 306.3L391.848 256.915H383.792L381.341 286.686C381.341 288.437 380.99 290.188 380.99 291.94C380.99 293.691 380.64 295.092 380.64 296.843C380.64 298.244 380.29 299.645 380.29 300.696C380.29 301.746 379.94 302.447 379.94 303.147C379.589 304.899 379.239 306.3 378.188 307.7C377.138 308.751 375.737 309.802 373.986 310.152C372.935 310.502 371.884 310.502 370.483 310.502C369.082 310.502 367.331 310.502 365.58 310.502C363.829 310.502 362.077 310.502 360.676 310.502C359.275 310.502 357.874 310.152 357.174 310.152C355.423 309.802 354.372 308.751 353.671 307.7C352.971 306.65 352.621 305.249 352.621 303.147C352.621 302.447 352.621 301.396 352.971 299.995C352.971 298.594 353.321 296.843 353.321 294.742C353.672 292.64 353.671 290.539 354.022 288.087L356.824 256.915H348.768L346.316 286.686C345.966 290.889 345.616 294.391 345.266 297.193C344.915 299.995 344.915 302.797 344.915 304.899C344.915 307 345.266 308.751 345.966 310.502C346.667 311.903 347.717 313.304 348.768 314.355C349.819 315.406 351.22 316.106 352.971 316.807C354.722 317.507 356.473 317.857 358.575 317.857C360.676 317.857 363.128 317.857 365.58 317.857H378.188V318.208ZM299.734 257.266L299.034 264.621H314.094C315.845 264.621 317.597 264.621 319.348 264.621C320.749 264.621 322.15 264.971 322.85 264.971C323.901 265.321 324.601 265.671 325.302 266.372C326.002 267.072 326.353 267.773 326.703 268.473C327.053 269.174 327.053 269.874 327.053 270.575C327.053 271.626 327.053 272.326 327.053 273.027C327.053 273.727 327.053 274.428 326.703 275.128C326.703 276.529 326.353 277.58 325.652 278.28C324.952 278.981 324.251 279.331 323.551 279.681C322.85 280.031 321.8 280.031 320.749 280.031H312.343C309.541 280.031 307.089 280.031 304.988 280.031C302.886 280.031 300.785 280.382 299.034 281.082C297.283 281.432 295.882 282.483 294.831 283.534C293.43 284.585 292.379 285.985 291.329 287.386C290.278 288.787 289.577 290.889 289.227 292.99C288.877 294.391 288.877 295.442 288.877 296.142C288.877 297.193 288.877 297.894 288.527 298.594C288.527 299.295 288.527 299.995 288.176 301.046C288.176 302.097 288.176 303.147 288.176 304.548C288.176 306.65 288.527 308.401 289.227 310.152C289.928 311.903 290.978 312.954 292.029 314.005C293.08 315.056 294.481 315.756 295.882 316.457C297.633 317.157 299.384 317.507 301.486 317.507C303.587 317.507 305.688 317.507 308.49 317.507C311.292 317.507 313.744 317.507 315.845 317.507C317.947 317.507 320.048 317.157 321.8 316.457C324.251 315.756 326.353 314.355 328.104 312.604C329.855 310.853 330.906 308.051 331.606 304.899C331.957 303.848 331.957 302.447 332.307 301.396C332.307 299.995 332.657 298.594 332.657 296.493L334.058 278.28C334.058 276.529 334.408 274.778 334.408 273.377C334.408 271.976 334.408 270.575 334.408 269.524C334.408 266.372 333.708 263.92 332.307 262.169C330.906 260.418 329.155 259.017 326.703 257.966C325.302 257.616 323.901 257.266 322.5 257.266C321.099 256.915 319.348 256.915 317.947 256.915C316.196 256.915 314.795 256.915 313.394 256.915H299.734V257.266ZM325.652 287.737L324.952 295.442C324.952 296.843 324.601 297.894 324.601 298.944C324.601 299.995 324.251 300.696 324.251 301.396C324.251 302.097 323.901 302.797 323.901 303.848C323.551 305.249 322.85 306.65 322.15 307.7C321.099 308.751 320.048 309.802 318.297 310.152C317.246 310.502 316.196 310.502 314.444 310.502C313.043 310.502 311.292 310.502 309.191 310.502C307.79 310.502 306.739 310.502 305.688 310.502C304.638 310.502 303.237 310.502 302.186 310.152C300.435 309.802 298.684 309.101 297.983 307.7C296.932 306.3 296.582 304.899 296.582 302.797C296.582 302.097 296.582 301.396 296.582 300.696C296.582 299.995 296.582 299.295 296.582 298.594C296.582 297.894 296.582 297.193 296.932 296.493C296.932 295.792 296.932 295.092 297.283 294.742C297.633 292.99 298.333 291.589 299.384 290.188C300.435 289.138 301.836 288.087 303.237 287.737C304.287 287.386 305.338 287.386 306.739 287.386C308.14 287.386 309.891 287.386 311.643 287.386H325.652V287.737ZM257.355 310.853C255.604 310.853 253.853 310.853 252.452 310.853C251.051 310.853 249.65 310.502 248.949 310.502C247.198 310.152 246.147 309.101 245.447 308.051C244.746 307 244.396 305.249 244.396 303.498C244.396 303.147 244.396 302.097 244.396 301.046C244.396 299.995 244.396 298.944 244.746 297.543C244.746 296.143 245.097 294.742 245.097 292.99C245.097 291.239 245.447 289.838 245.447 288.087C245.447 286.336 245.797 284.585 245.797 283.184C245.797 281.432 246.147 280.031 246.147 278.63C246.147 277.229 246.498 275.828 246.498 274.778C246.498 273.727 246.848 273.027 246.848 272.326C247.198 270.575 247.899 269.174 248.599 267.773C249.65 266.722 251.051 265.671 252.452 265.321C253.502 264.971 254.553 264.971 255.954 264.971C257.355 264.971 259.106 264.971 260.857 264.971C262.609 264.971 264.36 264.971 265.761 264.971C267.162 264.971 268.213 265.321 269.263 265.321C271.014 265.671 272.065 266.722 272.766 267.773C273.466 268.824 273.816 270.575 273.816 272.326C273.816 274.077 273.816 276.179 273.466 278.981C273.116 281.432 273.116 284.585 272.766 287.737C272.415 289.838 272.415 292.29 272.065 294.391C271.715 296.493 271.715 298.244 271.715 299.995C271.715 301.396 271.365 302.797 271.365 303.498C271.014 305.249 270.314 306.65 269.614 308.051C268.563 309.101 267.162 310.152 265.411 310.502C264.36 310.853 263.309 310.853 261.908 310.853C260.857 310.853 259.106 310.853 257.355 310.853ZM232.838 337.121H240.894L242.645 318.208H256.655C259.457 318.208 261.558 318.208 264.01 318.208C266.111 318.208 268.213 317.857 269.964 317.157C271.715 316.807 273.116 315.756 274.167 314.705C275.568 313.655 276.618 312.254 277.669 310.853C278.72 309.452 279.42 307.35 279.771 305.249C280.121 303.848 280.121 301.746 280.471 298.944C280.821 296.142 281.172 292.29 281.522 287.737C281.872 284.935 281.872 282.483 282.222 280.382C282.572 278.28 282.572 276.179 282.572 274.778C282.572 273.027 282.572 271.626 282.572 270.225C282.572 268.123 282.222 266.372 281.522 264.621C280.821 263.22 279.771 261.819 278.72 260.768C277.669 259.717 276.268 259.017 274.867 258.316C273.116 257.616 271.365 257.266 269.263 257.266C267.162 257.266 264.71 257.266 262.258 257.266C259.457 257.266 257.355 257.266 254.903 257.266C252.802 257.266 250.7 257.616 248.949 258.316C246.498 259.017 244.396 260.418 242.645 262.169C240.894 263.92 239.843 266.722 239.143 269.874C238.792 271.275 238.442 273.377 238.442 276.179C238.092 278.981 237.742 282.483 237.391 286.686L232.838 337.121ZM391.147 240.804L393.599 211.034C393.949 206.831 394.3 203.328 394.65 200.527C395 197.374 395 194.923 395 192.821C395 190.72 394.65 188.969 393.949 187.217C393.249 185.816 392.198 184.415 391.147 183.365C390.097 182.314 388.696 181.614 386.944 180.913C385.193 180.213 383.442 179.862 381.341 179.862C379.239 179.862 376.787 179.862 374.336 179.862C371.534 179.862 369.432 179.862 366.981 179.862C364.879 179.862 362.778 180.213 361.027 180.913C359.626 181.263 357.874 182.314 356.824 183.365C355.423 184.415 354.372 185.816 353.321 187.217C352.271 188.618 351.57 190.72 351.22 192.821C350.87 193.872 350.87 195.273 350.519 197.024C350.169 198.775 350.169 200.877 349.819 203.328C349.469 205.78 349.469 208.232 349.118 211.034L346.667 240.804H355.072L357.524 211.034C357.524 209.283 357.874 207.531 357.874 205.78C357.874 204.029 358.225 202.628 358.225 200.877C358.225 199.476 358.575 198.075 358.575 197.024C358.575 195.973 358.925 195.273 358.925 194.572C359.275 192.821 359.626 191.42 360.676 190.019C361.727 188.969 363.128 187.918 364.879 187.568C365.93 187.217 366.981 187.217 368.382 187.217C369.783 187.217 371.534 187.217 373.285 187.217C375.036 187.217 376.787 187.217 378.188 187.217C379.589 187.217 380.99 187.568 381.691 187.568C383.442 187.918 384.493 188.969 385.193 190.019C385.894 191.07 386.244 192.471 386.244 194.572C386.244 195.273 386.244 196.324 385.894 197.725C385.894 199.126 385.543 200.877 385.543 202.978C385.193 205.08 385.193 207.181 384.843 209.633L383.092 240.804H391.147ZM329.855 240.804L330.556 233.449H316.196C314.444 233.449 312.693 233.449 310.942 233.449C309.541 233.449 308.14 233.099 307.44 233.099C306.389 232.749 305.338 232.399 304.988 231.698C304.287 230.998 303.937 230.297 303.587 229.597C303.237 228.896 303.237 228.196 303.237 227.145C303.237 226.444 303.237 225.744 303.237 224.693C303.237 223.993 303.237 222.942 303.587 222.242L303.937 217.688H317.947C320.749 217.688 323.2 217.688 325.302 217.688C327.403 217.688 329.505 217.338 331.256 216.638C333.007 216.287 334.408 215.237 335.809 214.186C337.21 213.135 338.261 211.734 339.312 210.333C340.362 208.932 340.713 206.831 341.063 204.729C341.063 204.029 341.413 203.329 341.413 202.628C341.413 201.928 341.413 201.227 341.763 200.527C341.763 199.826 341.763 199.126 342.114 198.425C342.114 197.725 342.114 197.024 342.114 195.973C342.114 194.923 342.114 193.872 342.114 192.821C342.114 190.72 341.763 188.969 341.063 187.568C340.362 186.167 339.312 184.766 338.261 183.715C337.21 182.664 335.809 181.964 334.408 181.263C332.657 180.563 330.906 180.213 328.804 180.213C326.703 180.213 324.601 180.213 321.8 180.213C318.998 180.213 316.546 180.213 314.444 180.213C312.343 180.213 310.242 180.563 308.49 181.263C306.039 181.964 303.937 183.365 302.186 185.116C300.435 186.867 299.384 189.669 298.684 192.821C298.333 193.872 298.333 195.273 297.983 196.324C297.983 197.725 297.633 199.126 297.633 201.227L296.232 219.44C296.232 221.191 295.882 222.942 295.882 224.343C295.882 225.744 295.882 227.145 295.882 228.196C295.882 231.348 296.582 233.8 297.983 235.551C299.384 237.652 301.135 238.703 303.587 239.754C304.988 240.104 306.389 240.454 307.79 240.454C309.191 240.804 310.942 240.804 312.343 240.804C314.094 240.804 315.495 240.804 316.896 240.804H329.855V240.804ZM304.287 210.333L304.988 202.628C304.988 201.227 305.338 200.176 305.338 199.126C305.338 198.075 305.688 197.374 305.688 196.674C305.688 195.973 306.039 195.273 306.039 194.222C306.039 192.471 306.739 191.07 307.79 190.019C308.841 188.969 309.891 188.268 311.643 187.568C312.693 187.217 313.744 187.217 315.495 187.217C316.896 187.217 318.647 187.217 320.749 187.217C322.15 187.217 323.2 187.217 324.251 187.217C325.302 187.217 326.703 187.217 327.754 187.568C329.505 187.918 330.906 188.618 331.957 189.669C333.007 190.72 333.358 192.471 333.358 194.222C333.358 194.923 333.358 195.623 333.358 196.324C333.358 197.024 333.358 197.725 333.358 198.425C333.358 199.126 333.357 199.826 333.007 200.527C333.007 201.227 333.007 201.928 332.657 202.628C332.307 204.379 331.606 205.78 330.906 207.181C329.855 208.232 328.454 209.283 326.703 209.633C325.652 209.983 324.601 209.983 323.2 209.983C321.8 209.983 320.048 209.983 318.297 209.983H304.287V210.333ZM264.36 187.217C266.111 187.217 267.862 187.217 269.263 187.217C270.664 187.217 272.065 187.568 272.766 187.568C274.517 187.918 275.568 188.969 276.268 190.019C276.969 191.07 277.319 192.821 277.319 194.572C277.319 194.923 277.319 195.973 277.319 197.024C277.319 198.075 277.319 199.126 276.969 200.527C276.969 201.928 276.618 203.328 276.618 205.08C276.618 206.831 276.268 208.232 276.268 209.983C276.268 211.734 275.918 213.486 275.918 214.886C275.918 216.638 275.568 218.039 275.568 219.44C275.568 220.841 275.217 222.242 275.217 223.292C275.217 224.343 274.867 225.043 274.867 225.744C274.517 227.495 273.816 228.896 273.116 230.297C272.065 231.348 270.664 232.399 269.263 232.749C268.213 233.099 267.162 233.099 265.761 233.099C264.36 233.099 262.609 233.099 260.857 233.099C259.106 233.099 257.355 233.099 255.954 233.099C254.553 233.099 253.502 232.749 252.452 232.749C250.7 232.399 249.65 231.348 248.949 230.297C248.249 229.246 247.899 227.495 247.899 225.744C247.899 225.043 247.899 223.993 247.899 222.242C247.899 220.49 248.249 218.739 248.249 216.638C248.249 214.536 248.599 212.435 248.949 209.983C248.949 208.232 249.3 206.481 249.3 205.08C249.3 203.328 249.65 201.928 249.65 200.527C249.65 199.126 250 198.075 250 197.024C250 195.973 250.35 195.273 250.35 194.572C250.7 192.821 251.051 191.42 252.101 190.019C253.152 188.969 254.553 187.918 256.304 187.568C257.355 187.217 258.406 187.217 259.807 187.217C260.857 187.217 262.609 187.217 264.36 187.217ZM288.527 162H280.471L279.07 179.862H265.06C262.258 179.862 260.157 179.862 257.705 179.862C255.604 179.862 253.502 180.213 251.751 180.913C250 181.263 248.599 182.314 247.548 183.365C246.147 184.415 245.097 185.816 244.046 187.217C242.995 188.618 242.295 190.72 241.944 192.821C241.594 194.222 241.594 196.324 241.244 199.476C240.894 202.278 240.543 206.13 240.193 210.333C239.843 214.536 239.493 218.039 239.143 220.841C238.792 223.993 238.792 226.094 238.792 228.196C238.792 230.297 239.143 232.048 239.843 233.8C240.543 235.2 241.594 236.601 242.645 237.652C243.696 238.703 245.097 239.403 246.498 240.104C248.249 240.804 250 241.155 252.101 241.155C254.203 241.155 256.655 241.155 259.106 241.155C261.908 241.155 264.01 241.155 266.461 241.155C268.563 241.155 270.664 240.804 272.415 240.104C274.867 239.403 276.969 238.002 278.72 236.251C280.471 234.5 281.522 231.698 282.222 228.546C282.572 227.145 282.923 225.043 282.923 222.242C283.273 219.44 283.623 215.937 283.973 211.734L288.527 162ZM228.285 162C228.285 162 227.935 162 227.585 162C226.884 162 226.534 162 225.483 162C224.783 162 223.732 162 223.031 162C222.331 162 221.63 162 220.93 162C220.229 162 220.229 162 220.229 162L216.027 211.034C215.676 213.836 215.676 215.937 215.326 218.039C214.976 220.14 214.976 221.891 214.976 223.292C214.976 225.043 214.976 226.444 214.976 227.845C214.976 229.947 215.326 231.698 216.027 233.449C216.727 234.85 217.778 236.251 218.829 237.302C219.879 238.353 221.28 239.053 222.681 239.754C224.082 240.104 225.483 240.454 226.884 240.804C228.285 240.804 230.036 241.155 231.787 241.155H232.488L233.188 233.8H232.488C231.437 233.8 230.737 233.8 229.686 233.8C228.986 233.8 228.285 233.449 227.585 233.449C225.833 233.099 224.783 232.048 224.082 230.998C223.382 229.947 223.031 228.196 223.031 226.444C223.031 225.744 223.031 224.693 223.031 222.942C223.031 221.541 223.382 219.79 223.382 217.688C223.382 215.587 223.732 213.486 224.082 211.384L228.285 162ZM185.556 187.217C187.307 187.217 189.058 187.217 190.459 187.217C191.86 187.217 193.261 187.568 193.961 187.568C195.713 187.918 196.763 188.969 197.464 190.019C198.164 191.07 198.514 192.821 198.514 194.572C198.514 194.923 198.514 195.973 198.514 197.024C198.514 198.075 198.514 199.126 198.164 200.527C198.164 201.928 197.814 203.328 197.814 205.08C197.814 206.831 197.464 208.232 197.464 209.983C197.464 211.734 197.114 213.486 197.114 214.886C197.114 216.638 196.763 218.039 196.763 219.44C196.763 220.841 196.413 222.242 196.413 223.292C196.413 224.343 196.063 225.043 196.063 225.744C195.713 227.495 195.012 228.896 194.312 230.297C193.261 231.348 191.86 232.399 190.459 232.749C189.408 233.099 188.357 233.099 186.957 233.099C185.556 233.099 183.804 233.099 182.053 233.099C180.302 233.099 178.551 233.099 177.15 233.099C175.749 233.099 174.698 232.749 173.647 232.749C171.896 232.399 170.845 231.348 170.145 230.297C169.444 229.246 169.094 227.495 169.094 225.744C169.094 225.043 169.094 223.993 169.094 222.242C169.094 220.49 169.444 218.739 169.444 216.638C169.444 214.536 169.795 212.435 170.145 209.983C170.145 208.232 170.495 206.481 170.495 205.08C170.495 203.328 170.845 201.928 170.845 200.527C170.845 199.126 171.196 197.725 171.196 196.674C171.196 195.623 171.546 194.923 171.546 194.222C171.896 192.471 172.246 191.07 173.297 189.669C174.348 188.618 175.749 187.568 177.5 187.217C178.551 186.867 179.601 186.867 181.002 186.867C182.053 187.217 183.454 187.217 185.556 187.217ZM180.652 240.804C183.454 240.804 185.556 240.804 188.007 240.804C190.109 240.804 192.21 240.454 193.961 239.754C196.413 239.053 198.514 237.652 200.266 235.901C202.017 234.15 203.068 231.348 203.768 228.196C204.118 227.145 204.118 225.744 204.469 223.993C204.819 222.242 204.819 220.14 205.169 218.039C205.519 215.587 205.519 213.135 205.87 210.333C206.22 206.13 206.57 202.628 206.92 199.476C207.271 196.324 207.271 194.222 207.271 192.471C207.271 190.37 206.92 188.618 206.22 186.867C205.519 185.466 204.819 184.065 203.418 183.014C202.367 181.964 200.966 181.263 199.565 180.563C197.814 179.862 196.063 179.512 193.961 179.512C191.86 179.512 189.408 179.512 186.957 179.512C184.155 179.512 182.053 179.512 179.601 179.512C177.5 179.512 175.399 179.862 173.647 180.563C171.896 180.913 170.495 181.964 169.444 183.014C168.043 184.065 166.993 185.466 165.942 186.867C164.891 188.268 164.191 190.37 163.841 192.471C163.49 193.872 163.14 196.324 163.14 199.126C162.79 202.278 162.44 205.78 162.089 209.983C161.739 212.785 161.739 215.237 161.389 217.688C161.039 220.14 161.039 221.891 161.039 223.643C161.039 225.394 161.039 226.795 161.039 227.845C161.039 229.947 161.389 231.698 162.089 233.449C162.79 234.85 163.841 236.251 164.891 237.302C165.942 238.353 167.343 239.053 168.744 239.754C170.495 240.454 172.246 240.804 174.348 240.804C175.749 240.804 178.2 240.804 180.652 240.804ZM139.674 240.804C139.674 241.855 139.324 242.556 139.324 243.256C139.324 243.957 139.324 244.307 138.973 245.007C138.623 246.758 137.923 248.159 137.222 249.56C136.171 250.611 134.771 251.662 133.37 252.012C132.669 252.362 131.969 252.362 131.268 252.362C130.217 252.362 129.517 252.362 128.466 252.362C127.415 252.362 126.715 252.362 125.664 252.362H110.954L110.254 259.717H125.314C127.415 259.717 129.517 259.717 131.618 259.717C133.72 259.717 135.821 259.367 137.572 258.667C139.324 258.316 140.725 257.266 141.775 256.215C143.176 255.164 144.227 253.763 145.278 252.362C146.329 250.961 147.029 248.86 147.379 246.758C147.729 245.708 147.729 244.307 148.08 242.556C148.43 240.804 148.43 238.703 148.78 236.251C149.13 233.8 149.13 231.348 149.481 228.896L151.232 206.831C151.582 203.679 151.582 201.227 151.932 199.476C151.932 197.725 152.283 195.973 152.283 194.923C152.283 193.872 152.283 192.821 152.283 192.471C152.283 190.37 151.932 188.618 151.232 186.867C150.531 185.466 149.831 184.065 148.43 183.014C147.379 181.964 145.978 181.263 144.577 180.563C142.826 179.862 141.075 179.512 138.623 179.512C136.522 179.512 134.07 179.512 131.268 179.512C128.466 179.512 126.014 179.512 123.913 179.512C121.812 179.512 119.71 179.862 117.959 180.563C116.208 181.614 114.457 182.314 113.406 183.365C112.005 184.415 110.954 185.816 109.903 187.217C108.853 188.618 108.152 190.72 107.802 192.821C107.452 194.222 107.452 196.674 107.101 199.476C106.751 202.628 106.401 206.13 106.051 210.333C105.7 213.135 105.7 215.587 105.35 218.039C105 220.49 105 222.242 105 223.993C105 225.744 105 227.145 105 228.196C105 230.297 105.35 232.048 106.051 233.8C106.751 235.2 107.802 236.601 108.853 237.652C109.903 238.353 111.304 239.053 112.705 239.403C114.457 240.104 116.208 240.454 118.309 240.454C120.411 240.454 122.862 240.454 125.314 240.454H139.674V240.804ZM130.217 187.217C131.969 187.217 133.72 187.217 135.121 187.217C136.522 187.217 137.923 187.568 138.623 187.568C140.374 187.918 141.425 188.969 142.126 190.019C142.826 191.07 143.176 192.821 143.176 194.572C143.176 194.923 143.176 195.973 143.176 197.024C143.176 198.075 143.176 199.126 142.826 200.527C142.826 201.928 142.476 203.328 142.476 205.08C142.476 206.831 142.126 208.232 142.126 209.983C142.126 211.734 141.775 213.135 141.775 214.886C141.775 216.638 141.425 218.039 141.425 219.44C141.425 220.841 141.075 222.242 141.075 223.292C141.075 224.343 140.725 225.043 140.725 225.744C140.374 227.495 139.674 228.896 138.973 230.297C137.923 231.348 136.522 232.399 135.121 232.749C134.07 233.099 133.019 233.099 131.618 233.099C130.217 233.099 128.466 233.099 126.715 233.099C124.964 233.099 123.213 233.099 121.812 233.099C120.411 233.099 119.01 232.749 118.309 232.749C116.558 232.399 115.507 231.348 114.807 230.297C114.106 229.246 113.756 227.495 113.756 225.744C113.756 225.043 113.756 223.993 113.756 222.242C113.756 220.841 114.106 218.739 114.106 216.638C114.106 214.536 114.457 212.435 114.807 210.333C114.807 208.582 115.157 206.831 115.157 205.43C115.157 203.679 115.507 202.278 115.507 200.877C115.507 199.476 115.857 198.075 115.857 197.024C115.857 195.973 116.208 195.273 116.208 194.572C116.558 192.821 116.908 191.42 117.959 190.019C119.01 188.969 120.411 187.918 122.162 187.568C123.213 187.217 124.263 187.217 125.664 187.217C126.715 187.217 128.466 187.217 130.217 187.217Z" fill="#1A171B"/>
<path fill-rule="evenodd" clip-rule="evenodd" d="M219.878 289.136L218.127 308.4C217.777 313.653 212.874 318.206 207.62 318.206H197.113L199.564 289.487H219.878V289.136ZM202.717 256.914H213.224C218.478 256.914 222.68 261.117 221.98 266.721L220.229 285.984H200.265L202.717 256.914ZM173.296 317.856H162.789C157.535 317.856 153.333 313.653 154.033 308.049L155.784 288.786H175.748L173.296 317.856ZM168.043 256.914H178.55L176.098 285.634H156.135L157.886 266.371C157.886 261.467 162.789 256.914 168.043 256.914Z" fill="#EEA518"/>
<path fill-rule="evenodd" clip-rule="evenodd" d="M181.702 256.914H199.214L193.961 318.206H176.449L181.702 256.914Z" fill="#F2BC00"/>
</svg>
