<svg width="500" height="500" viewBox="0 0 500 500" fill="none" xmlns="http://www.w3.org/2000/svg">
<rect width="500" height="500" fill="#F0F0F0"/>
<path d="M251.785 216.024C243.269 216.027 235.101 219.555 229.079 225.832C223.057 232.11 219.674 240.623 219.671 249.5C219.673 251.368 219.824 253.233 220.121 255.075C221.386 262.875 225.259 269.956 231.056 275.064C236.852 280.171 244.196 282.974 251.785 282.976C257.911 282.975 263.823 285.32 268.398 289.566C272.974 293.811 275.893 299.661 276.601 306.002C277.309 312.344 275.756 318.736 272.239 323.963C268.721 329.19 263.483 332.887 257.521 334.352C256.591 333.038 255.27 332.08 253.765 331.627C252.259 331.173 250.652 331.249 249.192 331.843C247.732 332.437 246.501 333.516 245.688 334.912C244.875 336.309 244.526 337.946 244.695 339.57C244.864 341.193 245.542 342.714 246.623 343.896C247.704 345.079 249.129 345.857 250.678 346.11C252.226 346.364 253.811 346.079 255.188 345.299C256.565 344.52 257.658 343.289 258.297 341.797C266.068 340.101 272.962 335.465 277.647 328.783C282.332 322.101 284.476 313.847 283.667 305.614C282.857 297.381 279.151 289.752 273.262 284.2C267.374 278.648 259.722 275.565 251.782 275.548C245.464 275.554 239.38 273.061 234.757 268.574C230.134 264.087 227.316 257.939 226.873 251.37C226.834 250.756 226.803 250.138 226.803 249.512C226.803 242.607 229.434 235.985 234.119 231.102C238.803 226.22 245.157 223.477 251.782 223.477C259.883 223.47 267.94 224.714 275.691 227.169C309.359 237.838 333.861 270.445 333.861 309.024C333.861 356.288 297.112 394.571 251.782 394.571C206.451 394.571 169.71 356.259 169.71 309.012V189.988C169.71 183.083 172.342 176.461 177.026 171.578C181.711 166.696 188.064 163.953 194.689 163.953C200.762 163.953 206.711 162.158 211.845 158.776C216.979 155.395 221.088 150.565 223.695 144.848C226.302 139.131 227.301 132.761 226.575 126.476C225.85 120.192 223.429 114.25 219.595 109.341C215.761 104.432 210.67 100.757 204.913 98.7418C199.156 96.7266 192.968 96.454 187.068 97.9556C181.169 99.4572 175.798 102.672 171.58 107.226C167.362 111.78 164.469 117.487 163.238 123.686C161.803 124.352 160.619 125.491 159.868 126.929C159.118 128.367 158.843 130.022 159.086 131.639C159.329 133.256 160.077 134.745 161.213 135.875C162.349 137.004 163.811 137.712 165.372 137.889C166.933 138.065 168.507 137.701 169.849 136.851C171.192 136.002 172.228 134.715 172.798 133.19C173.369 131.665 173.441 129.987 173.004 128.415C172.566 126.843 171.645 125.465 170.38 124.494C171.458 119.731 173.801 115.382 177.141 111.943C180.481 108.505 184.684 106.118 189.266 105.055C193.848 103.992 198.625 104.296 203.049 105.933C207.473 107.57 211.365 110.473 214.279 114.31C217.192 118.147 219.009 122.761 219.522 127.625C220.035 132.489 219.222 137.405 217.177 141.809C215.132 146.214 211.938 149.928 207.96 152.527C203.983 155.126 199.383 156.504 194.689 156.504C186.172 156.508 178.006 160.036 171.984 166.314C165.962 172.591 162.578 181.103 162.575 189.98V309.012C162.575 360.368 202.518 402 251.785 402C301.053 402 341 360.368 341 309.012C341 257.656 301.057 216.024 251.785 216.024Z" fill="#DC2427"/>
<path d="M251.81 364.572C237.486 364.572 223.749 358.684 213.621 348.204C203.493 337.723 197.803 323.509 197.803 308.687V195.91C199.176 195.09 200.25 193.823 200.857 192.307C201.464 190.792 201.571 189.111 201.161 187.526C200.751 185.94 199.846 184.54 198.588 183.541C197.33 182.542 195.789 182 194.203 182C192.617 182 191.076 182.542 189.818 183.541C188.56 184.54 187.655 185.94 187.245 187.526C186.835 189.111 186.942 190.792 187.549 192.307C188.156 193.823 189.23 195.09 190.603 195.91V308.687C190.606 320.928 194.037 332.906 200.481 343.171C206.925 353.436 216.107 361.549 226.914 366.527C237.721 371.505 249.691 373.135 261.374 371.22C273.058 369.306 283.956 363.928 292.747 355.738C301.539 347.548 307.849 336.897 310.912 325.074C313.976 313.251 313.662 300.762 310.009 289.119C306.356 277.476 299.521 267.179 290.33 259.472C281.139 251.766 269.987 246.981 258.223 245.697C257.505 244.237 256.341 243.063 254.913 242.357C253.485 241.65 251.871 241.451 250.322 241.79C248.774 242.128 247.376 242.986 246.346 244.23C245.316 245.474 244.712 247.035 244.626 248.671C244.54 250.306 244.978 251.925 245.872 253.278C246.765 254.63 248.065 255.639 249.569 256.149C251.073 256.659 252.698 256.642 254.192 256.1C255.686 255.558 256.965 254.521 257.832 253.15C271.548 254.742 284.155 261.707 293.064 272.615C301.973 283.524 306.507 297.548 305.737 311.808C304.966 326.068 298.948 339.481 288.92 349.294C278.891 359.106 265.612 364.573 251.81 364.572Z" fill="#DC2427"/>
<path d="M194 138C197.866 138 201 134.866 201 131C201 127.134 197.866 124 194 124C190.134 124 187 127.134 187 131C187 134.866 190.134 138 194 138Z" fill="#EB1C2F"/>
</svg>
