<svg width="500" height="500" viewBox="0 0 500 500" fill="none" xmlns="http://www.w3.org/2000/svg">
<rect width="500" height="500" fill="black"/>
<path d="M329.842 206.474L326.353 204.324C326.278 204.279 326.231 204.297 326.212 204.378L309.804 270.02C309.707 270.41 309.439 270.605 309.001 270.605L306.502 270.601C306.075 270.601 305.957 270.428 306.149 270.081C306.348 269.722 306.549 269.203 306.752 268.524C313.184 247.038 319.592 225.548 326.041 204.066C326.072 203.957 326.047 203.86 325.967 203.774C324.946 202.708 324.271 201.481 323.942 200.094C323.842 199.674 323.723 199.669 323.584 200.079L299.941 270.366C299.888 270.523 299.77 270.601 299.587 270.601H295.192C295.026 270.601 294.967 270.529 295.017 270.385C303.597 246.089 312.177 221.795 320.756 197.504C321.193 196.262 321.65 193.745 322.898 192.533C328.116 187.471 334.77 187.676 341.813 188.352C347.169 188.869 352.824 190.604 358.172 191.967C358.746 192.116 359.465 192.123 360.097 192.29C373.723 195.879 384.522 198.461 396.701 201.609C398.118 201.974 399.18 202.413 399.887 202.927C401.238 203.907 401.953 204.886 402.606 206.462C411.324 227.515 420.098 248.486 428.927 269.375C429.028 269.614 429.024 269.879 428.914 270.115C428.805 270.351 428.599 270.539 428.341 270.639C427.984 270.778 427.566 270.848 427.09 270.848C405.786 270.919 384.542 270.97 363.357 271C363.244 271 363.134 270.965 363.044 270.901C362.955 270.837 362.891 270.748 362.862 270.647L343.918 202.741C343.912 202.718 343.898 202.697 343.879 202.681C343.86 202.664 343.836 202.654 343.81 202.65C343.784 202.647 343.757 202.65 343.732 202.66C343.708 202.67 343.687 202.686 343.672 202.707C342.777 203.995 341.607 205.023 340.163 205.79C340.041 205.853 339.996 205.948 340.03 206.075L357.719 270.514C357.735 270.572 357.71 270.601 357.644 270.601L353.893 270.605C353.863 270.605 353.833 270.596 353.81 270.578C353.786 270.56 353.77 270.534 353.764 270.506L339.639 206.257C339.635 206.242 339.628 206.228 339.618 206.216C339.607 206.203 339.595 206.193 339.58 206.185C339.566 206.178 339.55 206.173 339.533 206.172C339.517 206.17 339.5 206.172 339.485 206.178L337.136 206.918C337.072 206.938 337.045 206.978 337.057 207.036L348.745 270.43C348.767 270.542 348.716 270.597 348.591 270.597L343.024 270.605C342.947 270.605 342.873 270.579 342.816 270.531C342.759 270.483 342.723 270.418 342.716 270.347L336.437 207.184C336.429 207.121 336.39 207.09 336.321 207.093L334.167 207.199C334.111 207.202 334.083 207.228 334.083 207.279L334.537 270.427C334.539 270.543 334.476 270.601 334.345 270.601L328.42 270.605C328.391 270.605 328.363 270.6 328.336 270.589C328.31 270.579 328.286 270.563 328.267 270.544C328.247 270.525 328.232 270.502 328.223 270.477C328.213 270.453 328.21 270.426 328.212 270.4L333.243 207.305C333.249 207.237 333.214 207.195 333.14 207.18L330.927 206.728C330.855 206.715 330.815 206.742 330.807 206.808L321.621 270.389C321.613 270.447 321.582 270.501 321.533 270.54C321.484 270.579 321.421 270.601 321.355 270.601L315.642 270.605C315.603 270.605 315.564 270.598 315.529 270.582C315.493 270.567 315.462 270.544 315.437 270.516C315.413 270.488 315.395 270.455 315.386 270.42C315.377 270.385 315.376 270.348 315.384 270.313L329.917 206.648C329.934 206.575 329.909 206.517 329.842 206.474ZM324.64 198.302C329.493 193.999 336.395 194.375 341.917 197.633C341.949 197.651 341.985 197.661 342.022 197.661C342.059 197.662 342.095 197.652 342.126 197.634C342.158 197.616 342.183 197.591 342.199 197.56C342.215 197.53 342.221 197.496 342.217 197.462C341.996 196.004 341.622 192.507 340.412 191.576C339.295 190.721 337.745 190.205 335.763 190.031C331.602 189.659 328.24 190.928 325.676 193.84C325.218 194.361 324.93 195.135 324.811 196.16C324.728 196.893 324.478 197.386 324.183 198.013C323.806 198.81 323.958 198.907 324.64 198.302Z" fill="#FBE201"/>
<path d="M188.78 268.391C173.384 262.563 165.985 248.234 168.474 233.494C171.576 215.1 189.427 205.15 208.717 207.285C216.618 208.163 223.595 211.115 228.924 216.543C229.027 216.647 229.025 216.749 228.92 216.847L223.263 222.116C223.205 222.172 223.145 222.172 223.085 222.116C215.855 215.328 205.167 213.349 195.366 216.084C181.746 219.886 174.915 232.594 178.154 244.982C181.737 258.689 196.03 265.177 210.476 262.408C213.614 261.807 216.512 260.724 219.169 259.156C219.239 259.115 219.297 259.058 219.337 258.991C219.377 258.924 219.397 258.849 219.397 258.772V238.718C219.397 238.692 219.408 238.668 219.428 238.651C219.447 238.633 219.474 238.623 219.501 238.623L228.219 238.619C228.291 238.619 228.359 238.645 228.41 238.691C228.46 238.738 228.489 238.8 228.489 238.866L228.493 262.845C228.493 262.992 228.431 263.112 228.306 263.206C217.668 271.324 201.451 273.185 188.78 268.391Z" fill="#FBE201"/>
<path d="M81.8631 207H72.1369C72.0613 207 72 207.053 72 207.119V269.881C72 269.947 72.0613 270 72.1369 270H81.8631C81.9387 270 82 269.947 82 269.881V207.119C82 207.053 81.9387 207 81.8631 207Z" fill="#FBE201"/>
<path d="M146.592 253.619L146.571 207.123C146.571 207.09 146.585 207.059 146.61 207.036C146.635 207.013 146.669 207 146.704 207L155.859 207.004C155.894 207.004 155.928 207.017 155.953 207.04C155.978 207.063 155.992 207.094 155.992 207.126L156 269.874C156 269.906 155.986 269.937 155.961 269.96C155.936 269.983 155.902 269.996 155.867 269.996L148.336 270C148.315 270.001 148.295 269.997 148.276 269.989C148.257 269.981 148.241 269.969 148.228 269.954L108.67 223.339C108.652 223.319 108.629 223.305 108.602 223.298C108.576 223.291 108.548 223.291 108.522 223.3C108.496 223.308 108.473 223.324 108.457 223.345C108.441 223.365 108.433 223.39 108.433 223.416L108.437 269.874C108.437 269.906 108.423 269.937 108.398 269.96C108.373 269.983 108.339 269.996 108.304 269.996L99.1329 270C99.0976 270 99.0638 269.987 99.0389 269.964C99.014 269.941 99 269.91 99 269.877V207.126C99 207.094 99.014 207.063 99.0389 207.04C99.0638 207.017 99.0976 207.004 99.1329 207.004L106.673 207C106.693 206.999 106.714 207.003 106.732 207.011C106.751 207.019 106.768 207.031 106.78 207.046L146.355 253.695C146.373 253.715 146.396 253.73 146.423 253.737C146.449 253.744 146.477 253.743 146.503 253.735C146.529 253.726 146.552 253.711 146.568 253.69C146.584 253.669 146.592 253.644 146.592 253.619Z" fill="#FBE201"/>
<path d="M254.526 262.157L289.818 262.153C289.866 262.153 289.913 262.171 289.947 262.202C289.981 262.234 290 262.277 290 262.321L289.996 269.831C289.996 269.876 289.977 269.919 289.943 269.951C289.908 269.982 289.862 270 289.814 270L245.182 269.985C245.134 269.985 245.087 269.967 245.053 269.935C245.019 269.904 245 269.861 245 269.816V207.169C245 207.124 245.019 207.081 245.053 207.049C245.087 207.018 245.134 207 245.182 207L254.154 207.004C254.202 207.004 254.248 207.022 254.282 207.053C254.317 207.085 254.336 207.128 254.336 207.172L254.344 261.988C254.344 262.01 254.349 262.032 254.358 262.053C254.367 262.073 254.38 262.092 254.397 262.107C254.414 262.123 254.434 262.135 254.456 262.144C254.478 262.152 254.502 262.157 254.526 262.157Z" fill="#FBE201"/>
<path d="M73.9027 302.812C77.3249 304.643 81.2768 305.414 85.2857 305.173C89.3516 304.928 89.8445 301.901 85.6686 301.064C81.2768 300.182 78.0582 299.796 74.8357 298.048C71.0957 296.017 70.399 291.43 72.6968 288.37C77.1823 282.382 89.1112 283.516 95.3894 286.061C95.4849 286.1 95.5598 286.172 95.5979 286.26C95.636 286.349 95.6343 286.448 95.5931 286.535L93.2627 291.426C93.2408 291.472 93.2089 291.513 93.1689 291.547C93.1289 291.58 93.0818 291.606 93.0305 291.623C92.9792 291.639 92.9248 291.646 92.8708 291.642C92.8168 291.638 92.7644 291.624 92.7168 291.6C89.8364 290.196 84.4219 288.896 81.2849 290.27C79.696 290.971 79.1705 292.46 80.9182 293.446C81.2496 293.633 81.786 293.815 82.5275 293.99C88.4227 295.387 98.5997 296.01 96.7868 304.228C96.3929 306.014 95.2413 307.504 93.332 308.7C87.4897 312.357 77.5123 311.19 71.2953 308.418C71.1706 308.362 71.0751 308.263 71.0295 308.143C70.9838 308.023 70.9915 307.892 71.0508 307.777L73.6012 302.894C73.6691 302.768 73.7696 302.741 73.9027 302.812Z" fill="#FBE201"/>
<path d="M114.991 304.577C118.326 304.969 121.171 303.871 123.376 301.641C123.462 301.554 123.553 301.549 123.65 301.625L128.913 305.798C129.023 305.885 129.029 305.979 128.929 306.078C121.046 313.921 103.694 312.416 99.7649 301.384C98.0745 296.647 99.2001 291.311 103 287.683C109.65 281.338 122.496 281.407 128.875 288.094C128.901 288.121 128.92 288.152 128.932 288.186C128.944 288.22 128.949 288.255 128.946 288.291C128.943 288.326 128.932 288.361 128.914 288.392C128.896 288.424 128.872 288.452 128.842 288.474L123.729 292.328C123.619 292.41 123.508 292.411 123.397 292.332C123.02 292.066 122.652 291.786 122.292 291.491C120.373 289.925 118.113 289.225 115.51 289.392C105.393 290.033 104.986 303.407 114.991 304.577Z" fill="#FBE201"/>
<path d="M168.034 287.796C174.782 281.438 188.091 281.38 194.899 287.75C198.486 291.111 199.845 296.013 198.477 300.511C194.481 313.653 171.054 314.636 165.235 302.382C162.904 297.469 163.893 291.695 168.034 287.796ZM190.08 296.992C190.08 294.938 189.176 292.968 187.565 291.516C185.954 290.064 183.77 289.248 181.492 289.248C179.214 289.248 177.029 290.064 175.419 291.516C173.808 292.968 172.903 294.938 172.903 296.992C172.903 299.046 173.808 301.016 175.419 302.468C177.029 303.921 179.214 304.737 181.492 304.737C183.77 304.737 185.954 303.921 187.565 302.468C189.176 301.016 190.08 299.046 190.08 296.992Z" fill="#FBE201"/>
<path d="M209.576 309.674C201.358 306.785 197.865 299.01 201.332 292.067C206.794 281.125 228.699 281.385 233.833 292.413C236.453 298.038 234.591 304.227 228.963 307.951C223.651 311.463 215.634 311.805 209.576 309.674ZM226.084 297.503C226.084 295.518 225.179 293.614 223.568 292.21C221.958 290.806 219.773 290.018 217.495 290.018C215.217 290.018 213.033 290.806 211.422 292.21C209.812 293.614 208.907 295.518 208.907 297.503C208.907 299.488 209.812 301.392 211.422 302.796C213.033 304.199 215.217 304.988 217.495 304.988C219.773 304.988 221.958 304.199 223.568 302.796C225.179 301.392 226.084 299.488 226.084 297.503Z" fill="#FBE201"/>
<path d="M140.411 300.601L140.415 310.886C140.415 310.916 140.403 310.945 140.38 310.966C140.357 310.988 140.327 311 140.295 311L132.121 310.996C132.089 310.996 132.058 310.984 132.035 310.963C132.013 310.941 132 310.912 132 310.882V284.122C132 284.092 132.013 284.063 132.035 284.041C132.058 284.02 132.089 284.008 132.121 284.008L140.295 284C140.31 284 140.326 284.003 140.341 284.009C140.355 284.014 140.369 284.023 140.38 284.034C140.391 284.044 140.4 284.057 140.406 284.071C140.412 284.084 140.415 284.099 140.415 284.114L140.411 294.056C140.411 294.086 140.424 294.115 140.447 294.137C140.469 294.158 140.5 294.17 140.532 294.17H151.44C151.472 294.17 151.503 294.158 151.525 294.137C151.548 294.115 151.561 294.086 151.561 294.056L151.557 284.118C151.557 284.088 151.569 284.059 151.592 284.037C151.615 284.016 151.645 284.004 151.677 284.004L159.879 284C159.895 284 159.911 284.003 159.926 284.009C159.94 284.014 159.953 284.023 159.965 284.034C159.976 284.044 159.985 284.057 159.991 284.071C159.997 284.084 160 284.099 160 284.114V310.886C160 310.901 159.997 310.916 159.991 310.929C159.985 310.943 159.976 310.956 159.965 310.966C159.953 310.977 159.94 310.986 159.926 310.991C159.911 310.997 159.895 311 159.879 311H151.673C151.641 311 151.611 310.988 151.588 310.966C151.565 310.945 151.553 310.916 151.553 310.886L151.565 300.601C151.565 300.571 151.552 300.542 151.529 300.52C151.507 300.499 151.476 300.487 151.444 300.487H140.532C140.5 300.487 140.469 300.499 140.447 300.52C140.424 300.542 140.411 300.571 140.411 300.601Z" fill="#FBE201"/>
<path d="M246.278 304.973H261.838C261.877 304.973 261.913 304.986 261.94 305.01C261.967 305.033 261.983 305.065 261.983 305.099L262 310.87C262 310.904 261.985 310.936 261.958 310.959C261.931 310.983 261.894 310.996 261.856 310.996L237.144 311C237.106 311 237.069 310.987 237.042 310.963C237.015 310.94 237 310.908 237 310.874V284.133C237 284.1 237.015 284.068 237.042 284.044C237.069 284.021 237.106 284.008 237.144 284.008L245.998 284C246.017 284 246.036 284.003 246.054 284.01C246.071 284.016 246.087 284.025 246.1 284.037C246.114 284.049 246.124 284.062 246.132 284.078C246.139 284.093 246.143 284.109 246.143 284.126L246.134 304.847C246.134 304.881 246.149 304.913 246.176 304.936C246.203 304.96 246.24 304.973 246.278 304.973Z" fill="#FBE201"/>
<path d="M294.003 296.744C293.564 296.912 293.565 297.075 294.007 297.235C297.541 298.525 299.52 301.444 298.881 304.914C297.932 310.044 291.353 310.972 286.895 310.988C281.621 311.003 276.357 311.004 271.102 310.991C271.034 310.991 271 310.961 271 310.9V284.164C271 284.128 271.015 284.094 271.043 284.069C271.07 284.044 271.108 284.03 271.147 284.03C276.239 284.02 281.32 284.01 286.39 284C291.113 283.992 297.818 285.446 297.769 291.105C297.748 293.915 296.492 295.795 294.003 296.744ZM279.033 289.647V294.777C279.033 294.807 279.046 294.836 279.069 294.857C279.092 294.879 279.123 294.891 279.155 294.891H285.645C286.604 294.891 287.523 294.628 288.201 294.16C288.879 293.692 289.26 293.057 289.26 292.395V292.029C289.26 291.367 288.879 290.732 288.201 290.264C287.523 289.796 286.604 289.533 285.645 289.533H279.155C279.123 289.533 279.092 289.545 279.069 289.566C279.046 289.588 279.033 289.617 279.033 289.647ZM279.041 300.245L279.033 305.352C279.033 305.382 279.046 305.411 279.069 305.433C279.092 305.454 279.123 305.466 279.155 305.466L286.83 305.477C287.3 305.478 287.765 305.416 288.2 305.295C288.635 305.175 289.03 304.997 289.362 304.773C289.695 304.549 289.959 304.283 290.139 303.99C290.319 303.697 290.412 303.382 290.412 303.065V302.563C290.413 301.922 290.037 301.307 289.366 300.853C288.696 300.4 287.786 300.144 286.838 300.142L279.163 300.131C279.131 300.131 279.1 300.143 279.077 300.164C279.054 300.186 279.041 300.215 279.041 300.245Z" fill="#FBE201"/>
<path d="M310.996 305.832L308.7 310.92C308.689 310.944 308.671 310.964 308.648 310.979C308.624 310.993 308.597 311 308.569 311L300.139 310.996C300.116 310.996 300.093 310.991 300.073 310.98C300.052 310.97 300.035 310.955 300.022 310.937C300.01 310.919 300.002 310.898 300 310.876C299.999 310.855 300.003 310.833 300.012 310.813L313.205 284.084C313.216 284.061 313.234 284.042 313.257 284.028C313.279 284.015 313.305 284.008 313.332 284.008L321.623 284C321.65 284 321.676 284.007 321.698 284.021C321.721 284.034 321.739 284.054 321.75 284.076L334.988 310.813C334.997 310.833 335.001 310.855 335 310.876C334.998 310.898 334.99 310.919 334.978 310.937C334.965 310.955 334.948 310.97 334.927 310.98C334.907 310.991 334.884 310.996 334.861 310.996L326.263 311C326.235 311 326.208 310.993 326.185 310.979C326.161 310.964 326.143 310.944 326.132 310.92L323.833 305.828C323.822 305.804 323.804 305.783 323.78 305.769C323.757 305.755 323.73 305.747 323.702 305.748L311.127 305.752C311.099 305.751 311.071 305.759 311.048 305.773C311.024 305.787 311.006 305.808 310.996 305.832ZM317.101 292.175L313.57 300.023C313.564 300.035 313.562 300.047 313.563 300.06C313.564 300.072 313.568 300.084 313.576 300.095C313.583 300.105 313.593 300.114 313.605 300.12C313.616 300.126 313.63 300.13 313.643 300.13H321.074C321.402 300.13 321.455 300.017 321.234 299.791C321.081 299.633 320.933 299.393 320.788 299.07C319.727 296.669 318.668 294.277 317.613 291.893C317.601 291.867 317.583 291.843 317.561 291.822C317.538 291.802 317.511 291.786 317.482 291.775C317.22 291.684 317.104 291.746 317.134 291.962C317.142 292.036 317.131 292.107 317.101 292.175Z" fill="#FBE201"/>
<path d="M348.912 301.299L345.791 304.203C345.768 304.225 345.756 304.254 345.757 304.283V310.886C345.757 310.916 345.744 310.945 345.72 310.966C345.696 310.988 345.664 311 345.631 311H337.126C337.093 311 337.061 310.988 337.037 310.966C337.013 310.945 337 310.916 337 310.886V284.118C337 284.088 337.013 284.059 337.037 284.037C337.061 284.016 337.093 284.004 337.126 284.004H345.635C345.668 284.004 345.7 284.016 345.724 284.037C345.748 284.059 345.761 284.088 345.761 284.118L345.753 294.895C345.752 294.918 345.759 294.94 345.774 294.96C345.788 294.979 345.808 294.994 345.832 295.003C345.855 295.012 345.882 295.014 345.907 295.008C345.932 295.003 345.954 294.992 345.972 294.975L357.681 284.034C357.693 284.023 357.708 284.014 357.724 284.009C357.74 284.003 357.757 284 357.774 284H367.15C367.175 284 367.199 284.007 367.219 284.02C367.24 284.032 367.256 284.05 367.265 284.071C367.275 284.092 367.277 284.114 367.272 284.136C367.268 284.158 367.256 284.178 367.238 284.194L354.842 295.863C354.821 295.883 354.809 295.91 354.808 295.938C354.807 295.966 354.818 295.994 354.838 296.015L367.971 310.813C367.987 310.83 367.996 310.851 367.999 310.872C368.002 310.894 367.998 310.916 367.987 310.936C367.976 310.956 367.96 310.972 367.939 310.983C367.918 310.995 367.894 311.001 367.87 311L357.959 310.996C357.941 310.996 357.922 310.992 357.906 310.985C357.889 310.978 357.874 310.967 357.862 310.954L349.097 301.306C349.086 301.294 349.072 301.284 349.056 301.277C349.041 301.27 349.024 301.266 349.006 301.266C348.989 301.265 348.971 301.268 348.955 301.273C348.939 301.279 348.924 301.288 348.912 301.299Z" fill="#FBE201"/>
<path d="M381.237 304.724C385.854 305.304 388.212 303.012 388.25 298.992C388.294 294.084 388.313 289.162 388.307 284.226C388.307 284.085 388.385 284.015 388.539 284.015L395.783 284C395.924 284 395.994 284.065 395.994 284.196C396.002 290.246 396.002 296.289 395.994 302.327C395.99 307.566 389.534 310.536 384.743 310.908C377.598 311.462 370.787 309.591 368.668 303.061C368.23 301.711 368.009 299.357 368.003 295.999C367.998 292.067 367.999 288.135 368.007 284.203C368.007 284.073 368.079 284.008 368.222 284.008L376.47 284.011C376.6 284.014 376.664 284.074 376.664 284.192C376.651 289.266 376.653 294.324 376.673 299.368C376.685 301.882 378.18 304.34 381.237 304.724Z" fill="#FBE201"/>
</svg>
