<svg width="500" height="500" viewBox="0 0 500 500" fill="none" xmlns="http://www.w3.org/2000/svg">
<rect width="500" height="500" fill="#0A1414"/>
<path d="M209.956 168C196.388 168.016 183.204 173.01 172.44 182.21C161.676 191.41 153.933 204.304 150.407 218.897L126.285 319.184C125.952 320.575 125.91 322.032 126.163 323.444C126.415 324.855 126.956 326.183 127.743 327.325C128.529 328.467 129.541 329.392 130.7 330.03C131.858 330.667 133.133 330.999 134.425 331H288.167C302.705 330.999 316.829 325.608 328.313 315.677C339.797 305.746 347.987 291.84 351.592 276.152L373.74 179.708C374.056 178.323 374.084 176.875 373.822 175.475C373.56 174.075 373.014 172.76 372.227 171.631C371.439 170.502 370.431 169.588 369.278 168.958C368.125 168.329 366.859 168.001 365.575 168H209.956ZM322.693 270.115C319.509 284.012 304.015 296.952 291.141 296.947H167.85C167.266 296.948 166.689 296.801 166.164 296.516C165.639 296.231 165.179 295.816 164.82 295.303C164.461 294.79 164.212 294.192 164.093 293.555C163.973 292.918 163.986 292.259 164.13 291.629L178.592 228.537C181.91 214.828 197.193 201.821 209.941 201.799H332.708C333.288 201.799 333.86 201.945 334.381 202.227C334.902 202.509 335.359 202.919 335.717 203.426C336.076 203.934 336.326 204.525 336.449 205.156C336.572 205.787 336.565 206.44 336.428 207.068L322.693 270.115Z" fill="#8ECCC2"/>
</svg>
