<?xml version="1.0" encoding="utf-8"?>
<!-- Generator: Adobe Illustrator 25.0.0, SVG Export Plug-In . SVG Version: 6.00 Build 0)  -->
<svg version="1.1" id="Layer_1" xmlns="http://www.w3.org/2000/svg" xmlns:xlink="http://www.w3.org/1999/xlink" x="0px" y="0px"
	 viewBox="0 0 400 400" style="enable-background:new 0 0 400 400;" xml:space="preserve">
<style type="text/css">
	.st0{fill:#FF053F;}
	.st1{fill:#FFFFFF;}
</style>
<rect class="st0" width="400" height="400"/>
<path class="st1" d="M198.2,313.5c-43.4-0.3-85.7-19.4-115-51.9c-4.5-4.9-8.6-10.1-12.5-15.5c-2.8-3.9-5.4-8.1-5.9-12.8
	c-0.6-5.2,1.7-10.7,5.9-13.9c4.2-3.2,10.1-4,14.9-2c5.4,2.2,9.1,7.1,12.8,11.6c24.1,29.3,61.6,47,99.5,47.1
	c37.9,0.1,75.5-17.5,99.7-46.6c4.2-5.1,8.5-10.8,14.8-12.7c9.4-2.8,20.2,6.3,19.1,16c-0.5,4.2-2.7,7.9-5,11.5
	c-23.6,36.1-63.1,61.3-105.7,67.6C213.3,313,205.8,313.5,198.2,313.5z"/>
<path class="st1" d="M265.7,88.6c11.6-0.3,22.5,11.3,18.8,23.1c-1.8,5.6-5.3,9.2-9.7,12.3c-3.8,2.6-8,4.5-11.9,6.7
	c-3.8,2.2-7.5,4.4-11.3,6.6c-2.8,1.7-5.6,3.2-8.3,5.1c-3.7,2.6-2.8,6,0.4,8.6c2.5,2,5.7,3.2,8.5,4.8c5.5,3.2,11.4,6.5,17.1,9.7
	c5.2,2.8,10.9,6.2,13.5,11.8c3,6.3,2.2,14.2-1.8,19.9c-6.5,9.2-17.7,8.5-26.7,3.5c-11.3-6.4-22.7-12.7-33.8-19.4
	c-2.7-1.7-5.5-3.3-8-5.2c-4.1-3.2-7.5-6.8-10-11.5c-8.3-15.5-5.3-36.1,9.3-47.1c2.5-1.9,5.3-3.4,7.9-5c3.7-2.2,7.4-4.3,11.1-6.5
	c4.1-2.4,8.1-4.7,12.2-7.1c4.1-2.4,8.2-4.7,12.2-7.1C258.5,89.7,262.2,88.7,265.7,88.6z"/>
<path class="st1" d="M162.3,137.8c0,16.2,0,32.3,0,48.5c0,17.8-24.3,24.2-34,9.8c-2.9-4.2-3.7-8.8-3.7-13.8
	c0.1-30.5,0-60.9,0.1-91.4c0-7.4,3-13.2,9.3-17.2c13.4-8.6,28.3,3.4,28.3,17.6C162.3,106.8,162.3,122.3,162.3,137.8z"/>
</svg>
