<svg width="500" height="500" viewBox="0 0 500 500" fill="none" xmlns="http://www.w3.org/2000/svg">
<rect width="500" height="500" fill="#F0F0F0"/>
<path fill-rule="evenodd" clip-rule="evenodd" d="M213.779 245.337L252.999 245.306L252.69 238.974H220.626L220.573 208.969L213.798 208.926L213.779 245.337ZM246.185 185.032L278.335 185.088L278.276 215.148H285.031L285.077 178.804L246.376 178.767L246.185 185.032ZM213.785 195.186L220.613 195.136V185.069H231.241L231.511 178.7H213.752L213.785 195.186ZM267.851 245.263L285.063 245.19V228.95L278.328 229.171L278.368 238.955L267.713 239.011L267.851 245.263ZM256.86 205.001L274.119 205.118L274.296 198.84H263.595V188.982L256.867 188.933L256.86 205.001ZM224.717 225.178H235.379V234.914L242.035 235.147L242.081 218.932L224.842 218.895L224.717 225.178ZM289.174 205.056L295.324 205.191L295.212 218.852L256.761 218.803L256.814 254.606L242.403 254.735L242.054 249.133L235.477 249.059L235.444 260.859L263.556 261L263.654 225.221H301.849L302 198.938L289.372 198.877L289.174 205.056ZM235.398 198.914L197.092 198.852L197 225.037L209.839 225.172L209.892 219.03L203.669 218.895L203.709 205.105H241.962C242.147 197.206 242.179 174.83 242.462 169.351L256.61 169.4L256.781 175.119L263.575 175.027V163.135L235.431 163L235.398 198.914Z" fill="#0C195D"/>
<path fill-rule="evenodd" clip-rule="evenodd" d="M151.859 336.06H138.981V303.663C138.981 300.159 139.143 296.294 139.467 292.066H139.15C138.706 294.492 138.098 296.89 137.331 299.244L123.799 336.06H113.18L99.3958 299.62C98.6494 297.133 98.0424 294.612 97.5773 292.066H97.1955C97.5385 297.401 97.7197 302.093 97.7197 306.113V336.06H86V281.942H105.065L116.862 314.024C117.788 316.539 118.475 319.125 118.914 321.753H119.159C119.777 319.114 120.544 316.508 121.457 313.945L133.274 281.942H151.859V336.06ZM199.638 336.06H164.951V281.942H198.292V291.836H178.017V303.9H196.913V313.794H178.017V326.161H199.638V336.06ZM208.898 336.06V281.942H229.361C249.888 281.942 260.15 290.735 260.145 308.319C260.145 316.746 257.341 323.475 251.733 328.507C246.124 333.538 238.667 336.056 229.361 336.06H208.898ZM221.938 291.836V326.161H228.371C234.014 326.161 238.434 324.576 241.631 321.408C244.834 318.237 246.445 313.909 246.445 308.459C246.445 303.294 244.856 299.23 241.676 296.267C238.496 293.305 234.036 291.828 228.293 291.836H221.938ZM267.102 333.969V321.911C271.571 325.427 277.212 327.368 283.048 327.397C284.494 327.416 285.939 327.277 287.351 326.985C288.433 326.767 289.466 326.375 290.406 325.827C291.164 325.403 291.797 324.809 292.25 324.099C292.648 323.435 292.855 322.685 292.852 321.923C292.868 320.91 292.53 319.92 291.888 319.104C291.161 318.189 290.261 317.407 289.234 316.794C287.975 316.009 286.646 315.327 285.261 314.757C283.734 314.103 282.071 313.43 280.297 312.751C275.785 311.001 272.415 308.853 270.189 306.307C267.948 303.702 266.767 300.436 266.856 297.092C266.78 294.56 267.406 292.054 268.675 289.817C269.872 287.805 271.564 286.09 273.612 284.816C275.82 283.455 278.27 282.477 280.847 281.93C283.7 281.301 286.621 280.989 289.552 281.003C292.23 280.976 294.907 281.149 297.557 281.518C299.757 281.823 301.916 282.349 303.996 283.088V294.376C303 293.729 301.94 293.172 300.831 292.715C299.691 292.22 298.509 291.815 297.298 291.503C296.116 291.187 294.911 290.954 293.693 290.805C292.563 290.657 291.424 290.58 290.283 290.575C288.927 290.559 287.573 290.693 286.251 290.975C285.171 291.187 284.135 291.562 283.184 292.085C282.408 292.511 281.745 293.095 281.242 293.794C280.786 294.468 280.547 295.251 280.556 296.049C280.551 296.911 280.819 297.755 281.326 298.474C281.921 299.265 282.656 299.954 283.501 300.511C284.588 301.226 285.738 301.855 286.937 302.39C288.29 302.997 289.797 303.639 291.467 304.3C293.615 305.13 295.701 306.094 297.712 307.186C299.451 308.132 301.046 309.292 302.456 310.635C303.755 311.91 304.783 313.406 305.484 315.042C307.1 319.412 306.819 324.202 304.701 328.379C303.503 330.402 301.786 332.112 299.705 333.357C297.488 334.703 295.024 335.654 292.438 336.163C289.538 336.725 286.584 337.002 283.624 336.988C280.585 336.997 277.552 336.741 274.564 336.224C271.975 335.809 269.462 335.05 267.102 333.969ZM340.417 337C332.142 337 325.399 334.478 320.187 329.434C314.976 324.39 312.37 317.811 312.37 309.695C312.37 301.14 315.016 294.22 320.31 288.938C325.604 283.656 332.612 281.015 341.336 281.015C349.593 281.015 356.265 283.545 361.352 288.605C366.438 293.665 368.984 300.333 368.988 308.61C368.988 317.098 366.346 323.968 361.061 329.222C355.776 334.476 348.894 337.065 340.417 336.988V337ZM340.98 291.533C336.417 291.533 332.78 293.133 330.101 296.34C327.422 299.547 326.089 303.809 326.089 309.077C326.089 314.345 327.442 318.674 330.121 321.808C331.367 323.308 332.972 324.513 334.807 325.324C336.641 326.136 338.654 326.533 340.682 326.482C345.165 326.482 348.724 324.966 351.36 321.935C353.987 318.904 355.307 314.691 355.307 309.307C355.307 303.706 354.033 299.343 351.483 296.219C348.933 293.095 345.43 291.531 340.973 291.527L340.98 291.533ZM413 336.06H378.585V281.942H391.625V326.161H412.981L413 336.06Z" fill="#0C195D"/>
</svg>
