<svg width="500" height="500" viewBox="0 0 500 500" fill="none" xmlns="http://www.w3.org/2000/svg">
<g clip-path="url(#clip0_9284_114)">
<rect width="500" height="500" fill="#F0F0F0"/>
<path d="M76.71 170.791L36.8275 197.605L36.763 214.209C36.72 223.349 36.763 231.349 36.8275 231.977L36.9565 233.163L57.317 246.581L77.6775 260L77.742 242.512C77.7635 232.884 77.742 224.884 77.699 224.744C77.656 224.628 74.3665 222.372 70.389 219.744C66.4115 217.14 63.1865 214.907 63.2295 214.814C63.2725 214.674 110.616 183.326 116.077 179.837C116.636 179.488 117.109 179.791 156.217 205.558C177.975 219.884 195.949 231.698 196.121 231.767C196.444 231.907 196.465 230.326 196.422 214.744L196.358 197.581L156.798 171C135.04 156.372 117.087 144.302 116.915 144.209C116.679 144.047 105.692 151.326 76.71 170.791Z" fill="black"/>
<path d="M251.72 202.324V259.766H263.76C270.382 259.766 275.821 259.742 275.843 259.696C275.843 259.673 275.929 242.928 275.993 222.487L276.122 185.324L281.024 222.138C283.733 242.394 285.991 259.138 286.055 259.37C286.141 259.742 286.7 259.766 294.677 259.719L303.191 259.649L307.942 221.394L312.672 183.138L312.737 221.463L312.78 259.766H324.82H336.86V202.324V144.882H318.907C304.696 144.882 300.955 144.952 300.955 145.161C300.976 145.835 294.892 197.114 294.763 197.51C294.634 197.882 293.15 187.184 289.345 158.254C288.635 152.882 287.926 147.696 287.775 146.742L287.496 144.998L269.608 144.928L251.72 144.882V202.324Z" fill="black"/>
<path d="M348.04 202.324V259.766H361.8H375.56L375.603 235.626L375.668 211.51L384.225 211.44L392.76 211.394L392.717 200.51L392.653 189.649L384.117 189.58L375.56 189.533V178.719V167.905H385.235H394.91V156.394V144.882H371.475H348.04V202.324Z" fill="black"/>
<path d="M396.114 145.463C396.179 145.766 398.458 157.207 401.145 170.859L406.047 195.673L401.145 227.091C398.436 244.347 396.179 258.766 396.114 259.114L396.007 259.766H409.423H422.86L422.968 259.231C423.011 258.952 423.591 254.835 424.258 250.114C424.903 245.37 425.763 239.161 426.193 236.277C427.01 230.533 428.235 220.394 428.235 219.254C428.235 217.719 428.601 219.068 429.181 222.673C431.095 234.58 433.89 248.417 436.255 257.673L436.771 259.649L449.628 259.719C459.862 259.766 462.442 259.719 462.356 259.487C462.313 259.324 459.002 244.882 455.003 227.417L447.757 195.673L452.53 170.673C455.153 156.928 457.346 145.51 457.389 145.277C457.497 144.905 456.852 144.882 445.887 144.882C439.48 144.882 434.255 144.952 434.255 145.021C434.255 145.277 428.665 174.975 428.515 175.463C428.429 175.742 428.106 174.277 427.698 171.859C427.311 169.626 426.408 164.812 425.698 161.161C424.967 157.51 424.043 152.487 423.613 149.998C423.161 147.51 422.774 145.324 422.731 145.161C422.667 144.952 419.807 144.882 409.315 144.882H395.985L396.114 145.463Z" fill="black"/>
<path d="M223.125 249.537V320.234H223.77H224.415V249.537V178.839H223.77H223.125V249.537Z" fill="black"/>
<path d="M105.843 238.37L95.0925 249.998L105.843 261.626L116.593 273.254L127.343 261.626L138.093 249.998L127.343 238.37L116.593 226.742L105.843 238.37Z" fill="black"/>
<path d="M155.443 257.721L155.508 275.419L162.409 279.977C166.193 282.488 169.504 284.698 169.762 284.884C170.192 285.209 168.924 286.093 143.554 302.791C128.891 312.442 116.808 320.372 116.7 320.419C116.614 320.465 98.8336 308.837 77.2261 294.581C55.5971 280.349 37.6876 268.558 37.4081 268.395L36.9351 268.116V285.302V302.465L74.8181 327.907C95.6516 341.907 113.583 353.953 114.658 354.674L116.636 356L156.497 329.209L196.358 302.419V284.674V266.907L175.954 253.442C164.731 246.047 155.529 240 155.486 240C155.443 240 155.422 247.977 155.443 257.721Z" fill="black"/>
<path d="M443.393 269.072C439.05 269.816 435.223 272.607 433.524 276.211C432.299 278.839 432.213 280.258 432.213 296.862C432.213 313.63 432.234 313.839 433.653 316.979C434.642 319.165 436.878 321.537 439.05 322.653C443.565 325.002 448.23 324.42 451.133 321.165C451.778 320.42 452.315 319.676 452.315 319.537C452.315 318.886 452.702 319.653 453.175 321.258L453.691 323.025H457.733H461.775L461.732 308.769L461.668 294.537H454.25H446.833L446.768 298.537L446.725 302.56H448.037H449.348L449.262 307.839C449.198 312.351 449.133 313.258 448.811 313.886C448.144 315.211 446.768 315.537 445.758 314.583C444.833 313.746 444.747 311.886 444.833 294.955C444.898 281.025 444.941 279.583 445.263 278.932C445.672 278.118 446.016 277.909 446.962 277.909C448.66 277.909 448.875 278.676 448.875 284.816V289.537H455.368H461.84L461.711 285.839C461.517 281.258 461.087 278.49 460.227 276.444C458.916 273.351 455.325 270.49 451.455 269.444C449.778 268.979 445.199 268.769 443.393 269.072Z" fill="black"/>
<path d="M251.118 275.279L251.182 280.582L254.902 280.651L258.6 280.698V301.861V323.023H265.05H271.5V301.861V280.698H275.262H279.025V275.349V270H265.05H251.075L251.118 275.279Z" fill="black"/>
<path d="M281.82 296.489V323.023H288.27H294.72V311.023V299L295.795 299.14C297.214 299.326 297.687 299.628 298.117 300.651C298.44 301.396 298.483 302.884 298.547 312.256L298.633 323.023H304.546H310.458L310.372 312.372C310.265 300.721 310.286 300.884 308.932 298.744C308.115 297.465 306.739 296.442 305.105 295.884C304.481 295.675 303.965 295.442 303.965 295.349C303.965 295.279 304.567 295.093 305.277 294.954C306.846 294.628 308.394 293.651 309.061 292.582C309.921 291.209 310.308 288.675 310.286 284.419C310.265 278.279 309.426 275.396 306.975 272.954C304.503 270.465 303.127 270.233 291.022 270.07L281.82 269.954V296.489ZM297.515 279.721C298.354 280.419 298.633 281.954 298.526 285.605C298.397 289.93 298.117 290.465 295.752 290.791L294.72 290.93V284.954V279L295.838 279.14C296.462 279.233 297.214 279.489 297.515 279.721Z" fill="black"/>
<path d="M315.726 296.093C313.963 310.465 312.479 322.396 312.436 322.605C312.329 323 312.737 323.023 318.972 323.023H325.616L325.874 319.465C326.003 317.535 326.175 315.372 326.261 314.698L326.39 313.489H328.604C330.518 313.489 330.819 313.535 330.926 313.884C330.969 314.116 331.141 316.256 331.292 318.651L331.55 323.023H338.107H344.643L344.514 322.256C344.45 321.861 342.837 310.163 340.945 296.279C339.053 282.396 337.441 270.814 337.398 270.512L337.29 270H328.088H318.908L315.726 296.093ZM329.12 288.163C329.658 294.791 330.389 302.721 330.518 303.419C330.625 303.954 330.604 303.954 328.411 303.954H326.196L326.476 300.744C326.626 299 327.099 294.675 327.508 291.163C328.432 283.163 328.518 282.535 328.604 282.628C328.647 282.675 328.884 285.163 329.12 288.163Z" fill="black"/>
<path d="M346.75 296.535V323.07L357.457 322.954C366.1 322.884 368.422 322.791 369.561 322.489C373.539 321.489 375.474 319.163 375.99 314.791C376.248 312.652 376.248 281.768 375.99 279.628C375.689 277.14 375.044 275.535 373.732 274.001C370.873 270.652 367.691 270.001 354.124 270.001H346.75V296.535ZM362.402 279.559C363.434 280.256 363.412 280.07 363.412 296.14C363.412 312.605 363.412 312.721 362.251 313.373C361.929 313.535 361.155 313.768 360.553 313.861L359.435 314.024V296.512V279.001L360.682 279.14C361.37 279.187 362.144 279.396 362.402 279.559Z" fill="black"/>
<path d="M381.15 296.512V323.023H387.493H393.835V296.512V270H387.493H381.15V296.512Z" fill="black"/>
<path d="M398.995 296.512V323.023H404.263H409.53V311.116C409.53 304.582 409.573 299.279 409.616 299.326C409.659 299.372 411.035 304.233 412.648 310.116C414.26 316 415.722 321.303 415.894 321.907L416.238 323.023H421.807H427.375V296.512V270H422H416.625L416.582 281.628L416.518 293.233L413.056 281.675L409.616 270.116L404.306 270.047L398.995 270V296.512Z" fill="black"/>
<path d="M251.505 332.792V334.188H253.978H256.45V332.792V331.397H253.978H251.505V332.792Z" fill="black"/>
<path d="M306.717 334.349C306.653 335.535 306.588 335.698 306.18 335.768C305.728 335.838 305.685 335.977 305.685 337.093C305.685 338.21 305.728 338.349 306.18 338.419L306.653 338.489L306.76 344.791C306.846 349.768 306.932 351.187 307.169 351.489C307.814 352.326 308.631 352.559 310.845 352.559H312.995V351.163C312.995 349.768 312.995 349.768 312.372 349.768C311.791 349.768 311.727 349.675 311.598 348.791C311.533 348.233 311.49 345.698 311.533 343.14L311.598 338.489L312.307 338.419C312.995 338.349 312.995 338.326 312.995 337.093C312.995 335.861 312.995 335.838 312.307 335.768C311.598 335.698 311.598 335.675 311.533 334.349L311.469 333.024H309.125H306.782L306.717 334.349Z" fill="black"/>
<path d="M359.005 334.419C359.005 335.745 358.983 335.814 358.467 335.814C357.951 335.814 357.93 335.884 357.93 337.093C357.93 338.303 357.951 338.373 358.467 338.373H359.005V344.419C359.005 349.396 359.069 350.605 359.327 351.163C359.865 352.28 360.639 352.559 363.197 352.559H365.476L365.412 351.21C365.347 349.907 365.347 349.884 364.659 349.814L363.95 349.745V344.047V338.373H364.595C365.24 338.373 365.24 338.349 365.24 337.093C365.24 335.838 365.24 335.814 364.595 335.814H363.95V334.419V333.024H361.477H359.005V334.419Z" fill="black"/>
<path d="M265.308 335.117C264.9 335.21 264.255 335.652 263.846 336.07L263.115 336.838L263.244 336.093L263.395 335.349H260.879H258.385V343.954V352.559H260.75H263.115L263.137 346.093C263.18 338.675 263.223 338.256 263.975 338.256H264.513L264.577 345.396L264.62 352.559H267.114H269.587L269.522 344.931C269.458 336.605 269.415 336.326 268.168 335.559C267.351 335.047 266.211 334.861 265.308 335.117Z" fill="black"/>
<path d="M285.948 335.115C284.293 335.487 283.282 336.254 282.637 337.65C282.035 338.929 282.035 338.929 282.035 343.952C282.035 348.905 282.035 348.998 282.594 350.185C283.304 351.719 284.465 352.51 286.486 352.836C289.216 353.301 291.259 352.464 292.42 350.44C292.914 349.58 293.043 349.022 293.151 347.371L293.28 345.347H290.872H288.485V347.254C288.485 349.254 288.399 349.603 287.819 349.812C287.023 350.138 286.873 349.65 286.873 346.929V344.301L290.076 344.231L293.28 344.161L293.151 341.789C292.979 338.65 292.721 337.766 291.624 336.626C290.334 335.278 287.991 334.65 285.948 335.115ZM288.141 338.51C288.206 338.719 288.27 339.44 288.27 340.138V341.394H287.518H286.765V340.278C286.765 338.65 286.959 338.138 287.518 338.138C287.797 338.138 288.077 338.301 288.141 338.51Z" fill="black"/>
<path d="M297.924 335.116C295.365 335.604 294.505 336.813 294.484 339.93C294.462 342.767 294.957 343.441 298.698 345.79L300.418 346.86L300.482 348.185C300.547 349.348 300.482 349.534 300.074 349.767C299.364 350.185 298.956 349.581 298.848 347.906L298.762 346.511H296.591H294.441L294.548 348.116C294.699 350.464 295.193 351.371 296.763 352.209C297.902 352.813 298.246 352.906 299.988 352.906C303.621 352.906 305.04 351.488 305.04 347.86C305.04 344.86 304.546 344.116 301.428 342.371C299.515 341.302 298.805 340.511 298.805 339.511C298.805 338.464 299.02 338.139 299.687 338.139C300.267 338.139 300.289 338.185 300.353 339.464L300.418 340.813L302.439 340.883C303.557 340.906 304.567 340.836 304.675 340.72C304.804 340.581 304.825 339.883 304.718 338.953C304.589 337.581 304.481 337.302 303.772 336.534C302.611 335.278 300.16 334.674 297.924 335.116Z" fill="black"/>
<path d="M320.671 335.21C320.198 335.396 319.596 335.768 319.316 336.07L318.8 336.582V335.977V335.349H316.435H314.07V343.954V352.559H316.435H318.8L318.843 345.396L318.908 338.256L319.424 338.187C319.703 338.14 320.026 338.233 320.112 338.419C320.219 338.582 320.305 341.838 320.305 345.628V352.559H322.67H325.035V345.745C325.035 338.535 325.1 337.977 326.024 338.187C326.583 338.28 326.691 339.768 326.734 346.907L326.755 352.559H329.142H331.528L331.442 345.047C331.356 337.07 331.335 336.814 330.238 335.745C329.12 334.652 326.927 334.791 325.594 336.047L324.885 336.745L324.476 336.256C323.552 335.14 321.939 334.721 320.671 335.21Z" fill="black"/>
<path d="M336.882 335.116C335.484 335.441 334.237 336.325 333.635 337.488C333.119 338.441 333.098 338.65 333.033 343.395C332.947 348.976 333.076 349.813 334.194 351.162C335.205 352.371 336.538 352.883 338.58 352.906C342.235 352.906 343.891 351.232 344.127 347.278L344.235 345.348H341.827H339.44V347.302C339.44 348.79 339.354 349.348 339.096 349.627C338.666 350.092 338.494 350.092 338.129 349.604C337.914 349.348 337.828 348.511 337.828 346.767V344.302L341.031 344.232L344.235 344.162L344.127 341.674C343.998 338.743 343.59 337.488 342.386 336.348C341.225 335.232 338.795 334.697 336.882 335.116ZM339.182 339.813L339.247 341.395H338.473C337.763 341.395 337.72 341.348 337.72 340.627C337.72 340.232 337.785 339.488 337.871 338.999C337.978 338.209 338.064 338.116 338.559 338.185C339.096 338.255 339.118 338.325 339.182 339.813Z" fill="black"/>
<path d="M352.491 335.21C352.018 335.396 351.416 335.768 351.136 336.07L350.62 336.582V335.977V335.349H348.148H345.675V343.954V352.559H348.148H350.62V345.628C350.62 341.838 350.706 338.582 350.814 338.419C350.9 338.233 351.222 338.14 351.502 338.186L352.018 338.256L352.082 345.396L352.125 352.559H354.619H357.113L357.027 344.907C356.963 337.605 356.941 337.21 356.511 336.605C355.501 335.117 353.996 334.605 352.491 335.21Z" fill="black"/>
<path d="M374.55 335.116C372.529 335.581 371.002 336.93 370.68 338.558C370.4 339.977 370.486 348.349 370.787 349.488C371.153 350.814 372.142 351.977 373.367 352.488C374.808 353.093 377.517 353.046 378.678 352.395C380.462 351.395 381.344 349.628 381.365 347.139V345.581H379.215H377.065V347.139C377.065 349.721 376.635 350.465 375.775 349.535C375.367 349.093 375.345 348.744 375.345 343.977C375.345 341.163 375.41 338.721 375.474 338.511C375.539 338.302 375.818 338.139 376.098 338.139C376.678 338.139 376.85 338.651 376.85 340.511V341.86H379.108H381.365V340.744C381.365 337.372 379.688 335.349 376.592 335.023C375.969 334.977 375.044 335 374.55 335.116Z" fill="black"/>
<path d="M386.525 335.116C385.278 335.395 383.988 336.395 383.472 337.488C382.827 338.836 382.591 341.185 382.698 345.348C382.827 349.395 383.042 350.464 383.988 351.557C384.762 352.441 386.224 352.906 388.245 352.906C390.997 352.883 392.524 351.999 393.427 349.883C393.771 349.069 393.835 348.325 393.835 343.953C393.835 338.441 393.706 337.767 392.416 336.464C391.255 335.302 388.546 334.674 386.525 335.116ZM388.976 338.65C389.127 339.325 389.148 348.557 388.976 349.232C388.804 349.883 388.331 350.069 387.923 349.627C387.643 349.325 387.6 348.418 387.6 344.069C387.6 341.209 387.665 338.72 387.729 338.511C387.944 337.93 388.826 338.046 388.976 338.65Z" fill="black"/>
<path d="M402.349 335.117C402.005 335.233 401.403 335.675 400.995 336.093L400.285 336.838V336.093V335.349H397.92H395.555V343.954V352.559H397.92H400.285L400.328 345.559C400.393 339.396 400.436 338.512 400.737 338.303C400.93 338.163 401.253 338.14 401.446 338.21C401.747 338.349 401.79 339.093 401.79 345.466V352.559H404.155H406.52L406.542 346.326C406.542 339.373 406.649 338.303 407.251 338.187C408.176 337.977 408.24 338.559 408.24 345.745V352.559H410.627H412.992L412.927 344.931C412.863 336.628 412.82 336.419 411.594 335.605C410.089 334.605 408.477 334.791 407.23 336.093L406.52 336.838L405.811 336.093C404.779 335.024 403.661 334.698 402.349 335.117Z" fill="black"/>
<path d="M421.506 335.21C421.033 335.396 420.431 335.768 420.151 336.071L419.635 336.582V335.978V335.35H417.163H414.69V345.233V355.117H417.055H419.42V353.257C419.42 351.373 419.549 351.071 420.087 351.792C420.259 352.001 420.818 352.373 421.334 352.629C422.495 353.187 423.871 353.001 424.774 352.187C425.763 351.28 425.913 350.047 425.827 343.14C425.763 337.815 425.72 337.001 425.376 336.443C424.645 335.233 422.882 334.675 421.506 335.21ZM420.882 343.861C420.925 348.722 420.882 349.513 420.603 349.768C420.323 350.024 420.194 350.001 419.893 349.675C419.571 349.326 419.528 348.675 419.528 344.117C419.528 341.28 419.592 338.768 419.678 338.536C419.786 338.257 420.022 338.14 420.323 338.187L420.818 338.257L420.882 343.861Z" fill="black"/>
<path d="M431.353 335.116C430.02 335.418 429.418 335.72 428.579 336.511C427.676 337.371 427.375 338.371 427.375 340.511V342.092H429.633H431.869L431.933 340.162C431.998 338.278 431.998 338.255 432.578 338.185C433.288 338.092 433.46 338.581 433.352 340.488L433.288 341.744L432.127 342.325C429.009 343.883 427.891 344.558 427.655 345.116C427.483 345.465 427.375 346.674 427.375 348.092C427.375 350.883 427.676 351.86 428.73 352.395C430.428 353.278 431.697 353.162 432.858 352.046L433.61 351.348V351.953V352.558H435.997H438.383L438.297 345.511C438.233 339.79 438.147 338.325 437.867 337.674C437.459 336.674 436.749 335.953 435.76 335.488C434.793 335.069 432.449 334.86 431.353 335.116ZM433.395 346.976C433.395 349.255 433.352 349.534 432.987 349.767C432.664 349.953 432.471 349.906 432.213 349.604C431.912 349.302 431.869 348.883 431.933 347.534C431.998 346.046 432.084 345.744 432.643 345.116C432.987 344.744 433.288 344.418 433.331 344.418C433.374 344.418 433.395 345.558 433.395 346.976Z" fill="black"/>
<path d="M446.983 335.117C446.575 335.21 445.951 335.628 445.564 336.024L444.855 336.768L444.962 336.047L445.048 335.349H442.554H440.06V343.954V352.559H442.425H444.79L444.812 346.093C444.855 338.675 444.898 338.256 445.65 338.256H446.188L446.252 345.396L446.295 352.559H448.789H451.262L451.197 344.814C451.133 337.884 451.09 337 450.746 336.442C450.079 335.326 448.402 334.721 446.983 335.117Z" fill="black"/>
<path d="M251.505 343.954V352.559H253.978H256.45V343.954V335.349H253.978H251.505V343.954Z" fill="black"/>
<path d="M270.253 335.628C270.318 335.791 270.877 339.675 271.522 344.256L272.683 352.559L275.908 352.512L279.111 352.442L280.122 344.768C280.681 340.535 281.197 336.698 281.261 336.21L281.39 335.326L279.197 335.396L276.983 335.466L276.531 341.21C276.295 344.373 276.058 347.024 275.994 347.07C275.929 347.14 275.607 344.535 275.263 341.28L274.639 335.349H272.403C270.705 335.349 270.189 335.419 270.253 335.628Z" fill="black"/>
<path d="M453.476 343.629C455.089 352.583 455.089 352.327 453.777 352.327C453.197 352.327 453.175 352.35 453.175 353.745V355.164L455.927 355.071C459.926 354.955 460.808 354.304 461.345 351.141C461.582 349.722 463.065 336.536 463.065 335.815C463.065 335.373 462.915 335.35 460.937 335.35H458.83L458.701 336.443C458.636 337.071 458.443 339.536 458.292 341.955C458.163 344.373 457.97 346.141 457.884 345.908C457.798 345.652 457.475 343.536 457.153 341.164C456.852 338.792 456.529 336.513 456.465 336.094L456.357 335.35H454.164H451.971L453.476 343.629Z" fill="black"/>
</g>
<defs>
<clipPath id="clip0_9284_114">
<rect width="500" height="500" fill="white"/>
</clipPath>
</defs>
</svg>
