<svg width="500" height="500" viewBox="0 0 500 500" fill="none" xmlns="http://www.w3.org/2000/svg">
<rect width="500" height="500" fill="#F0F0F0"/>
<path d="M353.433 349.494H349.557C345.971 349.494 344.177 351.081 344.175 354.255H343.314V351.152C343.314 348.941 344.534 347.837 346.975 347.839H367V349.494H357.312V375.17H353.433V349.494ZM328.453 361.078C329.455 361.056 330.443 360.846 331.362 360.461C332.412 360.045 333.331 359.375 334.031 358.516C334.776 357.595 335.164 356.453 335.129 355.286C335.176 354.073 334.788 352.882 334.031 351.911C333.334 351.039 332.415 350.354 331.362 349.923C330.447 349.523 329.458 349.305 328.453 349.281C327.362 349.292 326.278 349.431 325.222 349.695V360.668C326.278 360.932 327.363 361.07 328.453 361.078ZM340.299 375.572C338.853 375.597 337.443 375.135 336.314 374.266C335.181 373.399 333.925 371.833 332.544 369.566L328.238 362.527H325.222V375.158H321.346V352.794C321.346 351.387 321.145 350.344 320.743 349.667C320.34 348.99 319.536 348.652 318.331 348.654H317.47V347.827H328.668C331.235 347.79 333.776 348.318 336.099 349.37C338.323 350.4 339.435 352.367 339.435 355.274C339.435 358.946 337.138 361.293 332.544 362.313L337.068 369.56C338.139 371.271 339.094 372.464 339.933 373.142C340.768 373.814 341.796 374.226 342.881 374.324V375.152C342.527 375.289 342.159 375.386 341.782 375.442C341.293 375.533 340.797 375.583 340.299 375.59V375.572ZM301.748 374.337C303.506 374.373 305.22 373.816 306.594 372.762C307.96 371.712 309.001 370.228 309.719 368.31C311.153 363.872 311.153 359.121 309.719 354.684C308.999 352.766 307.958 351.282 306.594 350.232C305.202 349.212 303.5 348.66 301.75 348.66C300 348.66 298.298 349.212 296.906 350.232C295.542 351.282 294.501 352.766 293.781 354.684C292.347 359.121 292.347 363.872 293.781 368.31C294.501 370.228 295.542 371.712 296.906 372.762C298.276 373.822 299.99 374.386 301.748 374.355V374.337ZM301.748 375.992C299.258 376.04 296.808 375.377 294.71 374.086C292.672 372.804 291.052 370.995 290.034 368.868C288.956 366.549 288.4 364.037 288.4 361.497C288.4 358.956 288.956 356.445 290.034 354.125C291.053 351.999 292.673 350.191 294.71 348.907C296.829 347.66 299.265 347 301.75 347C304.235 347 306.671 347.66 308.791 348.907C310.827 350.191 312.447 351.999 313.466 354.125C314.544 356.445 315.101 358.956 315.101 361.497C315.101 364.037 314.544 366.549 313.466 368.868C312.448 370.995 310.828 372.804 308.791 374.086C306.692 375.379 304.241 376.045 301.748 375.998V375.992ZM274.315 362.539C275.331 362.517 276.33 362.284 277.244 361.857C278.311 361.375 279.225 360.629 279.893 359.695C280.625 358.703 280.991 357.447 280.991 355.928C280.991 354.409 280.625 353.153 279.893 352.158C279.225 351.225 278.311 350.479 277.244 349.997C276.33 349.57 275.331 349.337 274.315 349.315C273.225 349.326 272.14 349.465 271.085 349.728V362.153C272.141 362.407 273.226 362.537 274.315 362.539ZM267.209 352.807C267.209 351.399 267.008 350.356 266.605 349.679C266.204 349.003 265.398 348.666 264.193 348.666H263.333V347.839H274.53C277.121 347.801 279.682 348.383 281.98 349.534C284.192 350.668 285.297 352.863 285.297 356.12C285.297 358.271 284.723 359.928 283.573 361.091C282.531 362.186 281.199 362.987 279.72 363.41C278.454 363.772 277.142 363.967 275.821 363.987H271.085V375.17H267.209V352.807ZM251.837 375.874C250.265 375.876 248.7 375.668 247.187 375.257C245.829 374.92 244.56 374.313 243.462 373.475C242.499 372.699 242.017 371.815 242.017 370.823V366.389H242.794C243.282 369.149 244.229 371.144 245.636 372.373C247.042 373.602 248.981 374.219 251.451 374.225C252.868 374.264 254.261 373.873 255.433 373.108C255.963 372.769 256.394 372.306 256.684 371.763C256.975 371.219 257.116 370.613 257.094 370.002C257.113 368.897 256.714 367.823 255.973 366.979C255.228 366.125 254.021 365.227 252.354 364.286L247.059 361.264C245.217 360.214 243.918 359.151 243.16 358.074C242.371 356.906 241.972 355.533 242.017 354.141C242.017 352.016 242.785 350.312 244.323 349.028C245.86 347.743 247.876 347.101 250.372 347.101C251.846 347.107 253.311 347.315 254.724 347.718C256.023 348.05 257.235 348.642 258.278 349.457C259.21 350.216 259.675 351.093 259.675 352.087V356.518H258.901C258.413 353.758 257.487 351.777 256.124 350.574C254.76 349.372 252.843 348.772 250.372 348.774C249.105 348.757 247.871 349.167 246.885 349.932C246.405 350.287 246.018 350.745 245.756 351.271C245.495 351.796 245.365 352.373 245.379 352.955C245.343 353.996 245.738 355.009 246.477 355.771C247.209 356.518 248.436 357.388 250.157 358.38L255.456 361.403C257.408 362.537 258.787 363.587 259.592 364.552C260.397 365.517 260.798 366.745 260.796 368.236C260.796 370.557 259.992 372.41 258.384 373.793C256.777 375.176 254.594 375.87 251.837 375.874ZM216.648 353.427V375.17H214.908V352.807C214.908 351.483 214.614 350.462 214.025 349.744C213.436 349.026 212.446 348.666 211.055 348.666H210.624V347.839H213.421C214.575 347.806 215.723 348.017 216.783 348.456C217.734 348.892 218.572 349.524 219.237 350.309L234.31 368.325V347.827H236.034V375.59H235.174L216.648 353.427ZM189.816 365.645H200.361L195.194 353.634L189.816 365.645ZM209.629 375.377C208.189 375.36 206.778 374.981 205.538 374.278C204.189 373.547 203.112 372.119 202.307 369.992L201.232 367.3H189.164L185.718 375.17H183.792L195.85 347.839H197.134L206.607 369.992C207.326 371.596 208.002 372.693 208.633 373.284C209.265 373.874 210.169 374.227 211.347 374.343V375.17C210.784 375.313 210.204 375.382 209.622 375.377H209.629ZM168.879 361.078C169.88 361.056 170.867 360.846 171.785 360.461C172.836 360.046 173.756 359.376 174.457 358.516C175.202 357.595 175.59 356.453 175.555 355.286C175.601 354.073 175.214 352.882 174.457 351.911C173.759 351.038 172.839 350.353 171.785 349.923C170.871 349.523 169.882 349.305 168.879 349.281C167.788 349.292 166.704 349.431 165.648 349.695V360.668C166.703 360.932 167.788 361.07 168.879 361.078ZM180.722 375.59C179.276 375.615 177.868 375.153 176.74 374.284C175.603 373.418 174.346 371.851 172.97 369.585L168.667 362.539H165.648V375.17H161.772V352.807C161.772 351.399 161.571 350.356 161.169 349.679C160.766 349.002 159.962 348.664 158.757 348.666H157.896V347.839H169.094C171.661 347.803 174.202 348.331 176.525 349.383C178.749 350.412 179.861 352.38 179.861 355.286C179.861 358.958 177.564 361.305 172.97 362.326L177.491 369.572C178.562 371.283 179.516 372.477 180.356 373.154C181.192 373.826 182.221 374.239 183.307 374.337V375.164C182.953 375.301 182.585 375.398 182.208 375.454C181.718 375.541 181.22 375.587 180.722 375.59ZM143.122 349.5H139.246C135.656 349.5 133.862 351.087 133.864 354.261H133V351.158C133 348.947 134.22 347.843 136.661 347.845H156.689V349.5H146.998V375.176H143.122V349.5Z" fill="#A68400"/>
<mask id="mask0_5976_190" style="mask-type:luminance" maskUnits="userSpaceOnUse" x="125" y="92" width="250" height="236">
<path d="M143.97 167.976C143.707 168.914 144.057 168.439 143.491 168.966C143.215 168.644 143.244 168.107 143.17 167.934C142.105 160.539 134.556 151.176 129.118 149.585C129.318 157.411 128.755 166.349 131.215 173.104C133.215 178.598 137.446 183.122 142.79 184.871L143.552 200.423C142.34 199.153 141.549 197.208 140.314 195.867C136.212 191.424 131.433 188.382 125.549 188.016C126.54 193.919 129.453 203.506 131.858 207.949C135.003 213.772 139.157 215.894 146.764 216.797C147.571 220.701 149.752 225.649 150.279 229.05C147.488 227.443 145.456 225.295 142.012 224.286C138.363 223.212 134.379 223.363 130.726 224.376C130.945 225.437 134.15 231.034 134.941 232.388C140.874 242.522 145.768 246.599 156.784 243.998C158.507 247.116 161.816 252.248 163.076 255.315C159.382 253.823 156.751 252.588 152.179 252.968C149.195 253.219 144.157 254.73 142.137 256.655C143.549 259.62 153.198 268.272 154.825 269.323C163.414 274.869 168.716 269.59 172.848 268.002C174.732 271.053 180.105 275.602 181.143 277.727C176.478 276.66 173.211 276.21 168.504 277.843C166.092 278.679 160.275 281.184 158.999 284.274C167.812 288.897 176.298 301.616 189.51 291.247C191.053 290.035 191.503 289.299 192.867 287.71L202.233 293.864C199.892 295.543 190.892 295.642 185.249 307.419C187.989 309.229 199.021 311.445 202.834 310.927C205.931 310.506 208.397 308.924 210.313 307.172C211.68 305.924 211.921 305.442 212.985 304.166L215.558 300.655L223.522 305.699C221.271 307.445 215.078 306.937 209.796 314.28C208.233 316.454 207.677 316.531 206.516 319.306C209.41 321.177 220.271 323.321 224.088 322.813C227.815 322.312 230.673 320.241 233.033 317.714L235.522 314.499C236.165 313.448 235.814 313.563 236.808 312.406L243.583 314.882C238.631 317.721 231.911 319.518 228.654 325.25C229.181 326.335 230.009 327.244 231.04 327.871C233.593 324.807 235.274 323.231 239.419 321.244C249.92 316.206 250.326 316.1 260.866 321.199C262.501 321.976 264.06 322.905 265.521 323.974C267.177 325.26 268.457 326.999 269.563 327.778C270.505 326.967 271.097 326.041 271.705 325.25C270.74 323.231 267.711 320.624 265.354 319.142C262.817 317.557 259.75 316.046 256.866 315.239C258.152 313.734 261.824 312.882 263.444 312.345C265.785 315.052 265.001 315.386 268.554 318.775C270.608 320.727 272.701 322.219 275.862 322.746C279.814 323.389 290.791 321.225 293.788 319.309C292.984 316.83 288.849 312.091 286.904 310.548C285.47 309.449 283.924 308.504 282.293 307.728C281.41 307.267 280.481 306.899 279.521 306.632C278.557 306.362 277.508 306.329 276.737 305.603L284.692 300.69C286.598 302.323 289.299 309.779 297.392 310.917C300.849 311.403 312.826 309.217 315.103 307.422C314.022 304.85 310.389 300.516 308.122 298.687C304.553 295.793 298.778 294.478 297.974 293.723C301.489 292.061 304.331 289.415 307.36 287.685C307.421 287.768 307.514 287.784 307.543 287.936C307.572 288.087 307.688 288.132 307.727 288.183C307.765 288.235 308.01 288.582 308.083 288.669C308.309 288.981 308.581 289.256 308.891 289.485C313.656 293.822 319.18 296.346 325.199 294.433C330.376 292.79 337.192 287.431 341.202 284.103C339.417 279.737 329.527 276.75 325.357 276.763L320.45 277.464C318.521 277.721 319.768 277.621 319.164 277.091C322.27 275.188 325.321 269.969 327.89 268.089C333.614 271.554 338.88 273.638 345.466 269.403C347.279 268.236 357.012 259.482 358.189 256.675C355.687 254.495 351.89 253.325 348.424 253.013C343.356 252.556 341.35 253.862 337.221 255.347C337.639 254.038 339.524 251.386 340.437 249.759C341.215 248.386 342.79 244.985 343.723 244.036C349.874 246.042 356.729 244.21 360.288 239.763C362.723 236.725 368.433 228.189 369.613 224.668C367.195 222.739 361.764 223.382 358.822 224.17C354.764 225.253 353.121 226.948 350.051 228.954L353.784 216.804C360.832 215.994 365.317 213.682 368.417 208.036C370.668 203.924 373.883 193.787 374.774 187.951C367.272 188.829 362.317 192.838 357.623 199.352L356.597 200.51L357.684 185.035C362.317 182.161 366.562 179.926 368.973 173.538C371.436 167.011 371.089 157.504 371.182 149.553C365.864 151.562 361.52 156.809 359.028 162.275C358.282 163.915 357.353 167.435 356.665 168.638L354.536 155.604C355.35 154.543 356.465 153.636 357.26 152.71C365.517 143.386 362.989 129.207 359.542 117.238C355.88 118.967 352.231 126.844 351.012 131.947C350.556 133.847 350.263 137.647 349.826 139.052L346.086 129.912C350.44 125.33 352.137 116.919 350.81 110.058C349.999 105.859 345.469 94.6447 343.707 92.2173C340.006 96.6156 338.096 106.422 338.704 113.1C338.733 113.421 338.903 114.595 338.909 114.775C338.996 117.003 338.961 115.688 338.514 116.501C337.871 114.746 336.852 114.157 336.462 112.228C335.974 109.823 335.964 108.965 335.003 106.763C333.672 103.728 331.572 100.721 329.89 99.072C324.533 93.8217 319.842 91.9987 312.624 92.0148C313.328 95.4228 318.18 106.026 319.771 108.27C323.038 112.884 326.475 116.27 333.987 116.009C335.225 117.234 336.073 118.626 336.945 120.466C331.273 118.536 326.36 117.469 320.363 120.466C318.881 121.205 316.698 122.218 315.913 123.764C318.302 124.909 323.656 130.838 327.578 133.117C334.511 137.165 337.199 134.937 343.421 132.246C344.35 135.516 347.083 140.059 347.536 143.499C340.948 138.676 336.405 136.033 328.35 138.011C327.929 138.113 327.385 138.223 326.926 138.383C326.813 138.425 326.466 138.547 326.36 138.602C325.373 139.104 325.922 138.875 325.591 139.155C326.279 140.837 325.803 139.653 326.784 140.991C328.791 143.73 330.401 146.92 332.549 149.672C333.514 150.894 334.286 151.533 335.263 152.63C339.662 157.568 344.485 158.038 351.266 156.604L353.543 169.815C351.179 168.413 346.276 157.674 333.665 158.758C334.72 163.317 338.585 172.991 340.488 176.168C345.575 184.665 349.996 183.103 354.144 184.878C354.494 188.414 354.256 198.23 353.064 200.86C351.044 197.24 349.871 192.758 347.051 189.774C344.425 186.923 341.255 184.627 337.726 183.022L336.871 182.881L336.958 183.846C337.064 190.038 338.244 199.262 340.025 204.188C343.015 212.515 348.195 213.151 350.453 215.524C349.543 220.328 347.559 225.041 346.327 229.349C344.72 226.43 346.546 215.814 336.443 206.007C336.321 205.892 335.971 205.573 335.8 205.432C335.571 205.222 335.323 205.033 335.061 204.866L333.241 215.026C331.662 226.835 333.421 234.339 340.707 241.596C340.196 243.525 334.717 253.235 333.34 254.022C333.983 248.074 334.234 243.483 332.672 237.799C331.614 233.941 328.893 227.353 326.63 225.874C325.575 231.439 322.164 237.162 320.926 244.621C319.225 254.868 322.945 259.411 325.466 264.912C324.54 266.426 322.17 268.818 320.868 270.207C320.382 270.728 320.26 271.056 319.784 271.554L315.897 275.126C317.591 266.475 318.749 259.932 315.842 250.9C315.485 249.791 315.199 248.971 314.714 247.785C314.228 246.599 313.887 245.403 313.106 244.599C310.042 249.161 306.354 256.241 304.617 261.449C303.402 265.066 302.569 268.715 302.99 273.159C303.511 278.625 304.797 280.232 305.711 284.312C301.875 285.704 297.932 290.058 293.942 291.501C295.871 287.601 297.891 284.798 299.087 279.075C300.283 273.352 300.096 267.95 298.974 262.301C296.322 263.947 292.257 268.551 289.852 271.053C288.854 272.126 287.969 273.298 287.209 274.551C282.772 282.306 282.438 285.103 283.807 296.353C282.331 297.809 275.01 302.433 272.701 303.384C274.56 299.43 276.881 295.723 277.846 290.983C279.013 285.196 278.881 279.907 277.73 274.181C276.074 275.233 273.271 278.145 271.602 279.872L267.386 284.576C266.595 285.441 266.608 285.293 265.968 286.431C261.271 294.79 261.438 296.52 262.554 308.477C259.637 309.159 252.383 312.734 250.104 312.724C247.824 312.715 240.654 309.123 237.721 308.458C238.715 300.703 239.062 292.835 234.442 286.633C232.155 283.563 224.927 274.956 222.545 274.249C221.165 282.042 221.413 290.392 224.528 297.423C225.554 299.738 226.811 301.436 227.59 303.349C224.937 302.211 218.943 298.558 216.635 296.462C216.905 288.263 218.612 282.496 213.236 274.708C211.088 271.599 203.664 263.285 201.339 262.346C200.307 267.812 200.108 273.599 201.233 278.997C202.284 284.048 204.542 287.376 206.378 291.511C202.053 289.643 198.201 285.939 194.59 284.235C196.423 276.216 199.413 272.304 195.908 261.973C194.815 258.739 189.664 247.344 187.124 244.596L184.552 250.656C183.776 253.085 183.23 255.581 182.921 258.112C182.069 265.208 183.111 268.989 184.41 275.062L174.854 264.902C176.603 260.401 181.066 256.43 179.491 245.29C178.848 240.744 175.275 229.343 173.446 225.999L172.973 226.34C172.764 226.555 172.584 226.797 172.439 227.06L170.188 231.053C166.626 238.422 166.099 245.39 166.973 254.09C165.735 253.106 160.163 243.551 159.693 241.596C162.144 238.583 162.182 239.451 164.61 235.41C166.168 232.759 167.14 229.806 167.462 226.748C168.066 221.713 166.69 209.242 165.378 204.782C162.761 206.171 159.575 211.017 157.954 214.164C155.822 218.305 154.642 223.511 154.391 229.375C152.652 227.259 150.292 218.183 149.874 215.55L151.404 214.528C151.977 214.206 152.78 213.743 153.112 213.515C154.184 212.74 155.191 211.88 156.124 210.943C162.555 204.416 162.632 192.893 163.565 182.83C157.115 184.534 151.549 190.343 148.53 197.642C148.26 198.285 148.208 198.552 147.967 199.217L147.16 200.889C146.401 198.426 145.719 187.408 146.25 184.717C155.346 184.225 159.947 177.946 163.491 168.185C164.375 165.744 166.214 161.005 166.668 158.719C162.182 158.755 158.128 159.796 154.706 162.044C153.356 162.928 151.208 164.699 150.385 165.709L146.973 170.027C146.932 167.027 148.382 159.719 149.073 156.703C156.858 157.989 159.51 158.07 164.986 152.72C167.536 150.228 169.211 147.756 171.275 144.701L174.713 139.203C171.497 135.808 161.398 137.634 157.52 140.02C156.697 140.528 155.912 141.075 155.176 141.602L152.761 143.389C153.668 139.589 155.822 135.811 156.899 132.355C162.88 134.088 164.758 137.776 172.687 133.236C175.121 131.844 183.375 125.269 184.388 123.028C180.976 121.527 179.356 119.614 174.787 118.803C169.484 117.864 167.681 119.356 163.382 120.52C163.677 119.53 165.378 116.877 166.063 116.119C173.301 115.871 177.182 113.743 180.349 108.653C182.716 104.85 186.407 97.4516 187.709 92.2205C178.127 90.658 169.147 97.5802 165.201 107.232C163.189 112.129 164.584 112.894 161.269 116.704C161.616 111.161 162.234 108.2 160.893 102.557C160.021 98.9241 158.359 94.1142 156.536 92.2848C154.073 96.1752 150.427 105.297 149.517 110.145C147.813 119.147 150.713 124.038 154.102 130.506C153.491 132.03 151.067 138.345 150.411 139.21C149.285 128.188 145.806 121.729 141.057 117.18C139.88 119.067 139.006 125.118 138.572 127.365C137.096 134.966 136.896 142.187 140.359 148.778L144.131 154.028C144.671 154.581 145.289 155.07 145.822 155.655C145.343 159.677 143.957 163.786 143.99 168.011M319.742 97.6541C321.501 98.0399 325.549 101.409 327.009 102.747C328.694 104.293 332.405 107.293 333.347 109.396L319.742 97.6541ZM166.963 109.418C167.607 107.544 171.713 104.129 173.028 102.988C174.635 101.593 177.989 98.654 180.102 97.9145C180.034 98.0206 179.95 98.1621 179.896 98.2361L178.375 99.7054C175.767 101.866 168.574 108.65 166.963 109.418ZM156.629 124.455C156.308 121.819 156.481 105.853 156.886 103.486C157.298 104.219 156.886 102.162 157.349 104.789C157.375 104.933 157.42 105.753 157.43 105.92C157.674 110.135 157.61 121.372 156.629 124.443V124.455ZM343.218 121.34C343.147 120.584 343.125 119.71 343.083 118.938C342.945 116.215 342.118 106.158 343.533 104.149L343.774 123.761L343.218 121.34ZM160.089 126.484C161.07 125.279 161.722 125.452 163.774 125.025C167.632 124.221 172.626 123.189 176.455 123.909C175.179 123.857 163.96 126.581 160.089 126.478V126.484ZM340.228 126.516C337.237 126.41 326.289 124.941 324.308 123.787C326.53 123.623 338.179 124.063 340.228 126.51V126.516ZM144.858 132.059C145.803 135.834 147.752 145.733 147.369 148.99C146.623 146.788 143.231 129.378 143.388 127.089C143.572 128.108 144.459 130.471 144.858 132.059ZM353.536 147.466L353.067 149.074C352.34 147.99 352.501 147.72 353.105 146.466C353.276 141.39 355.266 131.034 357.131 127.426L353.536 147.466ZM150.809 150.128C152.697 147.611 162.822 142.869 166.378 142.296C166.301 142.38 166.205 142.492 166.147 142.544C166.089 142.595 165.989 142.721 165.922 142.779C164.227 144.216 151.436 150.019 150.806 150.128H150.809ZM334.591 142.943C333.745 142.354 334.295 142.701 333.948 142.335C336.671 142.615 347.713 147.688 349.536 150.161L334.591 142.943ZM134.523 159.536C136.803 162.963 141.433 172.56 142.44 177.73C140.793 175.904 139.343 171.599 138.192 168.847C137.15 166.355 134.868 161.886 134.334 159.677C133.929 159.259 133.941 160.086 133.61 158.372C134.443 158.829 133.877 158.131 134.523 159.536ZM358.552 177.107C358.15 178.18 358.716 177.676 357.417 178.589C357.445 178.213 357.532 177.844 357.674 177.496L358.018 176.882C359.43 171.956 364.018 161.549 366.504 158.906L358.552 177.107ZM354.073 177.56C352.941 177.283 348.382 172.557 347.179 171.329C345.572 169.68 341.916 166.506 340.8 164.828C343.787 165.976 353.07 175.329 354.073 177.56ZM146.324 177.627C147.33 175.377 147.996 175.174 149.311 173.872C151.562 171.622 155.382 166.664 159.134 165.076C158.108 167.005 154.398 169.991 152.877 171.56C151.681 172.792 150.915 173.435 149.626 174.74L146.324 177.627ZM342.038 190.973C344.472 192.658 351.639 205.892 351.986 208.531C350.269 206.66 343.62 194.063 342.038 190.973ZM157.649 192.208L153.076 200.619C152.07 202.58 149.407 207.49 148.253 208.586C148.549 206.715 151.276 201.722 152.224 200.014C153.063 198.507 153.832 197.089 154.491 196.028L157.018 192.131C157.407 191.337 157.018 191.809 157.571 191.199C158.044 190.678 157.874 190.977 158.407 190.742C157.912 193.195 158.15 191.78 157.649 192.208ZM132.157 195.005C135.414 196.568 143.334 206.882 144.986 210.39C143.314 209.126 143.211 208.917 141.797 206.811C140.919 205.506 139.475 204.082 138.417 202.86C137.269 201.529 136.366 200.468 135.221 199.14C134.475 198.272 134.392 197.899 133.7 196.976C133.06 196.127 132.716 195.938 132.157 195.005ZM355.806 209.75C356.951 207.422 359.835 203.509 361.333 201.799C362.967 199.934 365.858 196.375 367.858 195.282L357.533 207.949C356.301 209.628 357.494 208.911 355.806 209.75ZM338.025 215.058C340.228 218.151 342.848 230.459 343.417 235.783C341.97 233.532 341.192 228.343 340.524 225.546C339.659 222.077 338.652 218.505 338.025 215.058ZM156.98 235.976C156.96 231.687 160.494 217.611 162.256 215.119C162.076 217.556 157.857 233.995 156.98 235.976ZM139.07 228.681C142.562 229.664 151.912 235.278 153.822 237.789C152.575 237.68 147.964 234.596 146.523 233.722L139.292 228.976C139.231 228.912 139.147 228.777 139.07 228.681ZM346.52 237.918C347.957 235.111 359.613 228.957 361.369 228.726C360.25 230.108 348.318 237.323 346.52 237.918ZM328.726 238.702C328.752 241.638 329.369 245.2 329.501 248.463C329.633 251.727 329.537 255.292 329.749 258.456C329.71 260.835 329.678 259.421 329.308 259.851L329.032 258.067L328.192 240.384C327.91 239.545 327.633 238.744 327.842 237.509C328.138 235.792 327.91 237.165 328.228 236.635L328.726 238.702ZM170.925 259.684C169.758 256.504 171.327 240.522 172.195 236.747C172.516 239.471 171.639 258.025 170.925 259.684ZM150.543 258.244C154.321 257.996 166.221 260.681 168.388 263.066C164.594 262.996 154.317 259.523 150.543 258.244ZM331.913 263.018C334.064 261.06 344.832 258.453 348.311 258.273C346.681 260.038 333.154 263.054 331.913 263.018ZM187.648 255.945L189.577 278.165C189.4 280.782 189.654 278.747 189.114 279.772C188.201 272.336 186.539 263.536 187.648 255.961V255.945ZM310.948 279.631L312.749 256C313.743 259.694 312.341 276.667 310.948 279.647V279.631ZM204.442 272.725C205.612 274.975 211.117 290.672 211.587 293.421C211.273 293.134 211.018 292.789 210.837 292.405C210.63 292.025 210.457 291.628 210.32 291.218C210.03 290.459 209.767 289.691 209.374 288.73C207.702 284.643 204.635 277.017 204.442 272.725ZM289.364 292.681C289.042 293.826 289.659 293.324 288.328 294.257C288.389 293.745 288.328 293.613 288.505 293.186C288.807 292.482 288.698 292.797 289.068 292.35C289.444 289.877 291.341 285.299 292.209 282.705C293.245 279.621 294.408 275.342 295.868 273.017C295.151 279.306 291.331 287.678 289.364 292.681ZM168.465 283.357C171.59 282.778 182.844 282.663 186.536 283.933L187.603 284.505C184.6 284.643 170.227 284.396 168.455 283.357H168.465ZM312.656 284.502C313.942 283.573 315.212 283.637 316.836 283.454C318.524 283.264 320.051 283.074 321.739 282.981C325.189 282.791 328.649 282.688 332.064 283.415C329.758 284.376 316.013 284.688 312.646 284.502H312.656ZM225.689 284.643C226.889 286.878 232.313 302.487 232.837 305.297L232.425 304.805C232.39 304.747 232.29 304.616 232.249 304.545L230.583 300.687C229.072 296.308 225.821 289.218 225.689 284.643ZM268.084 305.034L267.48 306.236C267.036 305.654 267.319 305.526 267.48 305.172C268.277 301.748 269.692 298.42 270.859 294.912C271.872 291.868 273.18 286.939 274.627 284.91C274.029 291.006 268.148 303.413 268.084 305.034ZM193.642 303.722C195.513 301.719 206.577 297.52 209.744 297.819C208.796 298.909 195.593 303.551 193.632 303.722H193.642ZM290.618 297.648C294.553 298.124 304.405 301.108 306.694 303.757L292.772 299.021C292.659 298.983 291.691 298.668 291.64 298.636C289.968 297.665 291.402 298.69 290.608 297.648H290.618ZM215.056 315.653C216.406 313.888 220.586 312.583 222.371 311.904C225.152 310.838 228.023 310.025 230.95 309.474C229.59 311.329 225.069 312.216 223.114 312.914C220.554 313.821 217.558 315.049 215.03 315.656L215.056 315.653ZM269.37 309.509C273.406 310.004 282.955 312.933 285.447 315.595C284.393 315.483 270.714 311.281 269.37 309.509Z" fill="white"/>
</mask>
<g mask="url(#mask0_5976_190)">
<path d="M374.774 90.6172H125.565V327.881H374.774V90.6172Z" fill="url(#paint0_linear_5976_190)"/>
</g>
<path fill-rule="evenodd" clip-rule="evenodd" d="M250 270C227.622 256.395 207.259 237.636 198.557 210.721C190.999 187.344 190.709 171.613 190 148.574C212.094 145.209 232.393 140.989 250 130C267.611 140.989 287.909 145.209 310 148.574C309.294 171.629 309.004 187.36 301.446 210.721C292.744 237.636 272.381 256.395 250 270Z" fill="#8C94DB"/>
<path fill-rule="evenodd" clip-rule="evenodd" d="M249.982 263C270.251 249.841 287.426 232.565 294.961 208.911C298.327 198.513 300.586 187.786 301.698 176.91C302.479 169.207 302.767 161.437 303 153.689C284.545 150.637 266.314 146.423 249.998 137C233.689 146.41 215.461 150.624 197 153.689C197.233 161.437 197.521 169.21 198.298 176.91C199.404 187.785 201.655 198.512 205.014 208.911C212.548 232.565 229.721 249.854 249.989 263" fill="#303FBF"/>
<path d="M286 222C281.422 222 277.862 221.303 275.321 219.908C272.779 218.513 270.985 216.343 269.936 213.398C268.887 210.454 268.362 206.511 268.359 201.568V164.979L244.517 217.728H242.607L217.815 164.033V217.728H214V155H223.045L245.935 204.417L268.343 155H276.926V201.568C276.926 207.459 277.673 212.021 279.168 215.253C280.662 218.485 282.936 220.1 285.987 220.097L286 222Z" fill="#FFCB00"/>
<path d="M246.243 238C241.392 238 237.049 236.789 233.214 234.368C229.397 231.965 226.291 228.549 224.231 224.485C222.06 220.247 220.951 215.527 221.002 210.746C221.002 205.948 221.943 201.595 223.826 197.686C225.608 193.885 228.398 190.67 231.881 188.405C235.37 186.137 239.416 185.002 244.018 185C248.275 185 251.95 185.568 255.042 186.703C258.134 187.838 260.398 189.288 261.835 191.055C262.628 192.066 263.135 193.404 263.357 195.068C263.603 197.128 263.715 199.202 263.693 201.277H262.205C261.266 196.835 259.488 193.516 256.871 191.321C254.254 189.125 250.716 188.027 246.256 188.027C242.245 188.027 238.904 189.101 236.233 191.247C233.54 193.42 231.496 196.318 230.331 199.613C229.05 203.176 228.412 206.947 228.448 210.743C228.448 219.277 230.081 225.447 233.346 229.254C236.612 233.06 240.918 234.965 246.265 234.969C248.437 235.008 250.605 234.779 252.723 234.288C254.471 233.841 256.159 233.179 257.75 232.316V219.15C257.713 217.615 257.991 216.089 258.565 214.67C259.111 213.407 260.287 212.359 262.092 211.527C263.898 210.695 266.534 210.279 270 210.279V211.793C267.772 211.793 266.287 212.373 265.544 213.534C264.802 214.694 264.43 216.508 264.43 218.974V233.209C261.829 234.843 259.001 236.068 256.043 236.845C252.835 237.634 249.543 238.015 246.243 237.978" fill="#FFCB00"/>
<path d="M331.652 394.791C331.652 394.165 331.44 393.853 331.01 393.853C330.919 393.854 330.83 393.875 330.75 393.916C330.67 393.956 330.602 394.015 330.551 394.086C330.422 394.25 330.356 394.45 330.362 394.655V403.712C330.344 403.957 330.41 404.201 330.551 404.408C330.601 404.479 330.668 404.537 330.747 404.579C330.825 404.62 330.914 404.642 331.004 404.643C331.1 404.643 331.194 404.618 331.276 404.572C331.358 404.526 331.426 404.459 331.472 404.38C331.591 404.205 331.652 404.001 331.649 403.793L331.652 394.791ZM331.026 393.006C331.779 392.994 332.506 393.26 333.054 393.747C333.69 394.334 334.169 395.055 334.453 395.85C334.85 396.979 335.034 398.166 334.995 399.356C334.995 401.068 334.643 402.513 333.939 403.691C333.236 404.868 332.244 405.457 330.965 405.457C329.75 405.457 328.788 404.881 328.078 403.73C327.368 402.578 327.017 401.093 327.026 399.274C327.026 397.407 327.385 395.894 328.104 394.736C328.822 393.579 329.796 393.002 331.026 393.006ZM318.315 404.474H318.777C318.882 404.48 318.986 404.458 319.079 404.412C319.172 404.365 319.249 404.296 319.303 404.211C319.496 403.823 319.645 403.418 319.749 403.001C319.81 402.753 319.887 402.602 319.977 402.553C320.117 402.488 320.274 402.459 320.429 402.471C320.585 402.459 320.742 402.478 320.888 402.529C320.923 402.552 320.951 402.583 320.969 402.62C320.986 402.657 320.993 402.698 320.988 402.738C320.983 402.85 320.969 402.963 320.946 403.073L320.67 404.889C320.657 405.019 320.614 405.144 320.545 405.258C320.502 405.294 320.45 405.32 320.395 405.335C320.339 405.35 320.281 405.354 320.224 405.345H314.998C314.773 405.345 314.677 405.215 314.677 404.958C314.667 404.828 314.681 404.697 314.719 404.571C314.739 404.539 314.766 404.51 314.798 404.488C314.83 404.466 314.866 404.45 314.905 404.441C315.206 404.35 315.36 404.087 315.36 403.651V394.739C315.362 394.652 315.334 394.567 315.282 394.496C315.23 394.424 315.155 394.37 315.068 394.34C314.937 394.307 314.822 394.23 314.748 394.122C314.704 393.993 314.686 393.858 314.693 393.723C314.681 393.585 314.697 393.446 314.741 393.315C314.77 393.26 314.857 393.236 314.995 393.236H318.681C318.732 393.229 318.785 393.234 318.834 393.25C318.884 393.266 318.928 393.294 318.963 393.33C319.036 393.49 319.062 393.665 319.04 393.838C319.05 393.951 319.033 394.065 318.989 394.171C318.921 394.248 318.827 394.303 318.723 394.325C318.606 394.352 318.502 394.415 318.43 394.506C318.357 394.596 318.32 394.708 318.325 394.821L318.315 404.474ZM299.707 398.451V403.748C299.71 403.86 299.75 403.968 299.821 404.057C299.893 404.146 299.992 404.211 300.105 404.244C300.196 404.273 300.276 404.327 300.333 404.399C300.39 404.472 300.423 404.559 300.426 404.65C300.436 404.852 300.428 405.054 300.4 405.255C300.381 405.294 300.304 405.312 300.166 405.312H298.058C298.016 405.318 297.973 405.31 297.936 405.289C297.9 405.268 297.872 405.235 297.859 405.197C297.822 405.008 297.808 404.815 297.818 404.622C297.814 404.557 297.833 404.492 297.871 404.437C297.91 404.383 297.967 404.341 298.033 404.32C298.302 404.205 298.44 404.075 298.44 403.93V395.066C298.447 394.903 298.426 394.739 298.376 394.582C298.324 394.461 298.224 394.364 298.097 394.313C297.992 394.273 297.902 394.206 297.837 394.119C297.781 393.993 297.758 393.856 297.769 393.72C297.769 393.369 297.869 393.194 298.061 393.194H300.253L302.938 399.096V394.736C302.941 394.623 302.905 394.512 302.836 394.419C302.767 394.326 302.667 394.257 302.553 394.222C302.429 394.182 302.324 394.103 302.255 393.998C302.197 393.843 302.175 393.678 302.187 393.514C302.175 393.421 302.191 393.326 302.235 393.242C302.261 393.223 302.29 393.209 302.322 393.2C302.353 393.192 302.386 393.19 302.418 393.194H304.613C304.738 393.209 304.796 393.372 304.796 393.684C304.805 393.802 304.793 393.92 304.76 394.035C304.724 394.094 304.666 394.14 304.597 394.162C304.463 394.198 304.342 394.268 304.247 394.364C304.196 394.446 304.172 394.539 304.176 394.634V405.303H302.819L299.707 398.451ZM287.465 393.835V393.439C287.465 393.284 287.554 393.209 287.731 393.209H291.542C291.639 393.198 291.736 393.216 291.821 393.26C291.863 393.293 291.882 393.399 291.882 393.563C291.894 393.729 291.879 393.896 291.841 394.059C291.822 394.093 291.794 394.122 291.76 394.144C291.725 394.165 291.686 394.177 291.645 394.18C291.569 394.187 291.497 394.209 291.43 394.244C291.364 394.278 291.306 394.326 291.26 394.382C291.214 394.439 291.18 394.504 291.161 394.573C291.143 394.642 291.139 394.714 291.151 394.785V403.824C291.156 403.924 291.194 404.02 291.258 404.101C291.322 404.181 291.409 404.241 291.51 404.274C291.619 404.31 291.714 404.374 291.786 404.459C291.825 404.547 291.842 404.642 291.834 404.737V405.04C291.834 405.197 291.818 405.285 291.786 405.306C291.708 405.331 291.625 405.34 291.542 405.333H287.663C287.513 405.333 287.439 405.279 287.439 405.167C287.427 404.946 287.441 404.725 287.481 404.507C287.506 404.429 287.599 404.365 287.756 404.32C288.045 404.245 288.19 404.103 288.19 403.893V394.978C288.199 394.817 288.171 394.655 288.109 394.503C288.032 394.377 287.907 394.282 287.76 394.237C287.667 394.208 287.583 394.158 287.516 394.092C287.477 394.012 287.461 393.923 287.471 393.835H287.465ZM272.447 394.053H272.084C271.969 394.053 271.872 394.128 271.799 394.274C271.673 394.662 271.595 395.063 271.564 395.468C271.562 395.659 271.501 395.845 271.391 396.004C271.252 396.093 271.083 396.132 270.916 396.113C270.765 396.129 270.612 396.101 270.477 396.034C270.438 395.993 270.409 395.945 270.392 395.893C270.374 395.841 270.368 395.786 270.374 395.732C270.374 395.641 270.374 395.55 270.374 395.459L270.47 393.711C270.462 393.57 270.5 393.431 270.579 393.312C270.723 393.23 270.891 393.197 271.057 393.218H276.909C277.076 393.218 277.179 393.236 277.23 393.275C277.291 393.413 277.321 393.562 277.317 393.711L277.455 395.257C277.455 395.378 277.455 395.502 277.455 395.626C277.462 395.744 277.441 395.861 277.394 395.971C277.355 396.052 277.227 396.092 277.018 396.092C276.841 396.109 276.662 396.083 276.499 396.016C276.422 395.968 276.361 395.81 276.313 395.544C276.247 395.182 276.154 394.825 276.033 394.476C275.931 394.201 275.806 394.062 275.655 394.062H275.414V403.712C275.406 403.834 275.439 403.955 275.509 404.058C275.578 404.161 275.681 404.24 275.802 404.283C275.891 404.312 275.967 404.367 276.017 404.441C276.062 404.565 276.08 404.697 276.069 404.828C276.088 404.978 276.064 405.129 275.998 405.267C275.9 405.317 275.788 405.339 275.677 405.327H272.161C272.114 405.333 272.066 405.33 272.02 405.317C271.974 405.305 271.931 405.283 271.895 405.255C271.842 405.116 271.824 404.968 271.84 404.822C271.84 404.541 271.924 404.368 272.091 404.311C272.207 404.28 272.311 404.219 272.392 404.135C272.446 404.043 272.47 403.938 272.459 403.833L272.447 394.053ZM262.424 393.538C262.523 393.43 262.614 393.316 262.697 393.197C262.736 393.136 262.792 393.086 262.859 393.051C262.925 393.017 263 392.999 263.075 393C263.111 393 263.261 393.018 263.521 393.054C263.589 393.143 263.63 393.248 263.64 393.357L264.07 395.904C264.089 396.04 264.102 396.119 264.102 396.143C264.102 396.24 264.073 396.303 264.015 396.331C263.873 396.373 263.724 396.388 263.576 396.376C263.395 396.395 263.212 396.362 263.053 396.279C262.864 396.03 262.71 395.759 262.597 395.471C262.129 394.463 261.709 393.959 261.336 393.959C261.07 393.959 260.939 394.131 260.939 394.482C260.939 394.918 261.337 395.773 262.135 397.048C262.808 398.072 263.407 399.138 263.929 400.239C264.216 400.943 264.358 401.693 264.346 402.447C264.346 403.413 264.105 404.152 263.624 404.665C263.43 404.899 263.184 405.09 262.903 405.224C262.621 405.358 262.312 405.431 261.997 405.439C261.607 405.438 261.224 405.333 260.894 405.137C260.799 405.071 260.689 405.029 260.573 405.016C260.502 405.016 260.448 405.061 260.403 405.158C260.319 405.351 260.114 405.445 259.787 405.445C259.697 405.456 259.606 405.435 259.53 405.388C259.482 405.351 259.45 405.255 259.428 405.085L259.033 402.586C258.982 402.266 258.953 402.096 258.953 402.075C258.953 401.93 259.094 401.857 259.373 401.857C259.752 401.857 259.976 401.906 260.047 402.003C260.17 402.208 260.268 402.427 260.339 402.653C260.804 403.863 261.269 404.468 261.741 404.468C261.821 404.471 261.901 404.456 261.974 404.425C262.048 404.394 262.113 404.348 262.164 404.29C262.275 404.163 262.333 404.003 262.328 403.839C262.304 403.443 262.18 403.058 261.965 402.717C261.728 402.284 261.429 401.809 261.083 401.274C260.418 400.305 259.825 399.294 259.309 398.249C258.969 397.517 258.792 396.727 258.789 395.928C258.752 395.178 258.969 394.437 259.408 393.811C259.572 393.57 259.796 393.372 260.061 393.233C260.326 393.095 260.623 393.02 260.926 393.015C261.469 393.055 261.99 393.237 262.43 393.538H262.424ZM246.383 393.209H249.825C249.944 393.209 250.018 393.23 250.05 393.278C250.095 393.42 250.112 393.569 250.098 393.717C250.111 393.81 250.097 393.906 250.057 393.992C250.017 394.079 249.952 394.153 249.87 394.207C249.774 394.246 249.693 394.312 249.636 394.395C249.585 394.513 249.564 394.642 249.575 394.77V403.176C249.565 403.382 249.641 403.583 249.787 403.736C249.855 403.806 249.938 403.861 250.03 403.898C250.122 403.935 250.222 403.953 250.322 403.951C250.421 403.951 250.519 403.929 250.607 403.888C250.696 403.846 250.773 403.786 250.833 403.712C250.969 403.563 251.044 403.373 251.044 403.176V394.77C251.05 394.667 251.035 394.564 250.999 394.467C250.942 394.384 250.868 394.312 250.781 394.255C250.686 394.183 250.612 394.091 250.564 393.985C250.516 393.88 250.496 393.765 250.505 393.65C250.505 393.442 250.531 393.315 250.582 393.272C250.642 393.225 250.72 393.202 250.797 393.209H252.52C252.558 393.204 252.597 393.207 252.634 393.219C252.671 393.23 252.704 393.25 252.732 393.276C252.759 393.301 252.78 393.333 252.792 393.367C252.804 393.402 252.808 393.439 252.802 393.475V393.835C252.811 393.937 252.8 394.039 252.77 394.137C252.726 394.194 252.663 394.235 252.591 394.252C252.478 394.28 252.379 394.345 252.311 394.434C252.243 394.524 252.21 394.633 252.219 394.742V402.934C252.249 403.274 252.2 403.617 252.075 403.937C251.95 404.258 251.753 404.548 251.496 404.789C251.239 405.029 250.929 405.214 250.588 405.329C250.248 405.445 249.884 405.489 249.524 405.457C248.561 405.457 247.855 405.215 247.358 404.737C246.861 404.259 246.61 403.564 246.61 402.659V394.748C246.61 394.646 246.576 394.546 246.513 394.462C246.45 394.379 246.36 394.316 246.258 394.283C246.173 394.257 246.098 394.209 246.043 394.143C246.011 394.055 245.999 393.961 246.007 393.868C245.995 393.684 246.013 393.499 246.062 393.321C246.097 393.245 246.206 393.209 246.383 393.209ZM235.404 394.068V399.111H235.927C236.456 399.111 236.723 398.611 236.723 397.622V395.202C236.756 394.888 236.667 394.573 236.472 394.316C236.366 394.223 236.241 394.152 236.104 394.107C235.967 394.062 235.821 394.045 235.677 394.056L235.404 394.068ZM235.404 399.985V403.712C235.396 403.83 235.408 403.948 235.439 404.063C235.481 404.144 235.55 404.21 235.635 404.25C235.706 404.299 235.763 404.364 235.799 404.439C235.836 404.514 235.851 404.597 235.844 404.68C235.866 404.862 235.837 405.047 235.76 405.215C235.722 405.254 235.674 405.283 235.621 405.301C235.568 405.319 235.511 405.325 235.455 405.318H232.103C231.913 405.318 231.817 405.188 231.817 404.928C231.812 404.766 231.821 404.604 231.843 404.444C231.852 404.407 231.871 404.373 231.899 404.346C231.926 404.319 231.961 404.299 232 404.29C232.137 404.242 232.254 404.153 232.333 404.037C232.412 403.92 232.448 403.783 232.436 403.645V394.839C232.436 394.513 232.308 394.313 232.055 394.234C231.966 394.215 231.884 394.175 231.817 394.116C231.773 394.005 231.756 393.886 231.769 393.768C231.769 393.381 231.881 393.191 232.09 393.191H236.498C236.934 393.192 237.366 393.274 237.768 393.434C238.17 393.593 238.534 393.826 238.84 394.119C239.189 394.444 239.461 394.834 239.639 395.265C239.817 395.695 239.897 396.156 239.873 396.618C239.873 398.103 239.071 399.074 237.457 399.528C238.927 399.833 239.661 400.711 239.661 402.163V403.948C239.657 404.014 239.672 404.08 239.703 404.14C239.735 404.199 239.782 404.25 239.841 404.287C239.911 404.332 239.967 404.394 240.005 404.466C240.042 404.538 240.058 404.618 240.053 404.698C240.068 404.873 240.05 405.049 239.998 405.218C239.96 405.273 239.864 405.3 239.706 405.3H237.582C237.445 405.297 237.312 405.257 237.198 405.184C237.085 405.112 236.995 405.01 236.941 404.892C236.767 404.581 236.682 404.232 236.694 403.881V400.856C236.694 400.251 236.373 399.97 235.731 399.97L235.404 399.985ZM220.704 394.053H220.344C220.226 394.053 220.129 394.128 220.059 394.274C219.932 394.662 219.853 395.063 219.825 395.468C219.82 395.659 219.76 395.844 219.651 396.004C219.511 396.093 219.341 396.131 219.173 396.113C219.022 396.128 218.869 396.101 218.734 396.034C218.696 395.993 218.668 395.945 218.651 395.893C218.634 395.841 218.628 395.786 218.634 395.732C218.634 395.641 218.634 395.55 218.634 395.459L218.734 393.711C218.723 393.57 218.761 393.43 218.843 393.312C218.907 393.248 219.064 393.218 219.321 393.218H225.16C225.327 393.218 225.433 393.236 225.481 393.275C225.544 393.413 225.575 393.561 225.571 393.711L225.705 395.257C225.705 395.378 225.721 395.502 225.721 395.626C225.728 395.744 225.708 395.861 225.661 395.971C225.625 396.052 225.497 396.092 225.288 396.092C225.111 396.109 224.932 396.083 224.769 396.016C224.688 395.968 224.631 395.81 224.579 395.544C224.514 395.182 224.42 394.825 224.3 394.476C224.201 394.201 224.072 394.062 223.922 394.062H223.684V403.712C223.676 403.833 223.709 403.954 223.778 404.057C223.847 404.16 223.949 404.239 224.069 404.283C224.158 404.312 224.233 404.367 224.284 404.441C224.329 404.565 224.346 404.697 224.336 404.828C224.336 405.076 224.313 405.224 224.265 405.267C224.167 405.318 224.055 405.339 223.944 405.327H220.412C220.274 405.327 220.184 405.303 220.146 405.255C220.089 405.118 220.068 404.971 220.085 404.825C220.085 404.544 220.168 404.371 220.335 404.314C220.451 404.282 220.557 404.222 220.64 404.138C220.691 404.045 220.713 403.94 220.704 403.836V394.053ZM203.832 394.098V404.489H204.255C204.386 404.494 204.515 404.464 204.629 404.402C204.742 404.341 204.835 404.25 204.897 404.141C205.066 403.747 205.138 403.322 205.105 402.898V395.233C205.119 394.94 205.03 394.652 204.852 394.413C204.765 394.311 204.653 394.231 204.526 394.178C204.4 394.126 204.262 394.102 204.123 394.11L203.832 394.098ZM200.864 403.66V394.57C200.864 394.47 200.752 394.395 200.578 394.346C200.466 394.32 200.367 394.257 200.299 394.168C200.239 394.007 200.215 393.836 200.229 393.666C200.212 393.535 200.249 393.403 200.331 393.296C200.497 393.219 200.683 393.189 200.867 393.209H204.685C205.773 393.209 206.677 393.681 207.389 394.628C208.102 395.574 208.461 397.141 208.461 399.338C208.461 401.338 208.116 402.835 207.425 403.83C206.732 404.822 205.821 405.318 204.682 405.318H200.472C200.429 405.323 200.384 405.319 200.342 405.305C200.301 405.291 200.263 405.269 200.232 405.239C200.172 405.134 200.149 405.013 200.164 404.895C200.158 404.76 200.166 404.625 200.187 404.492C200.203 404.435 200.28 404.374 200.418 404.305C200.552 404.251 200.666 404.161 200.745 404.047C200.824 403.932 200.866 403.797 200.864 403.66ZM189.25 398.451V403.748C189.253 403.86 189.294 403.968 189.366 404.057C189.438 404.146 189.538 404.211 189.651 404.244C189.742 404.273 189.821 404.327 189.878 404.4C189.936 404.472 189.968 404.559 189.972 404.65C189.98 404.852 189.972 405.054 189.946 405.255C189.927 405.294 189.847 405.312 189.712 405.312H187.604C187.498 405.312 187.428 405.276 187.405 405.197C187.367 405.008 187.353 404.815 187.364 404.622C187.359 404.557 187.378 404.492 187.416 404.438C187.454 404.383 187.51 404.342 187.575 404.32C187.848 404.205 187.983 404.075 187.983 403.93V395.066C187.989 394.903 187.969 394.739 187.922 394.582C187.869 394.461 187.767 394.364 187.639 394.313C187.536 394.271 187.447 394.204 187.38 394.119C187.327 393.992 187.305 393.856 187.315 393.72C187.315 393.369 187.412 393.194 187.604 393.194H189.799L192.481 399.096V394.736C192.484 394.623 192.449 394.511 192.379 394.419C192.31 394.326 192.21 394.257 192.096 394.222C191.973 394.181 191.869 394.102 191.801 393.998C191.743 393.843 191.721 393.678 191.733 393.514C191.721 393.421 191.737 393.326 191.781 393.242C191.807 393.223 191.836 393.208 191.867 393.2C191.899 393.192 191.932 393.19 191.964 393.194H194.159C194.281 393.21 194.341 393.373 194.341 393.684C194.349 393.802 194.337 393.92 194.306 394.035C194.268 394.093 194.211 394.138 194.143 394.162C194.008 394.198 193.887 394.268 193.793 394.364C193.741 394.445 193.716 394.539 193.722 394.634V405.303H192.362L189.25 398.451ZM176.805 396.031L175.907 401.863H177.675L176.805 396.031ZM177.768 402.726H175.778L175.685 403.409C175.688 403.432 175.688 403.456 175.685 403.479C175.643 403.604 175.621 403.735 175.618 403.866C175.618 404.045 175.743 404.199 175.99 404.323C176.093 404.364 176.178 404.435 176.234 404.526C176.27 404.637 176.285 404.754 176.279 404.87C176.29 404.995 176.278 405.121 176.244 405.242C176.221 405.288 176.163 405.306 176.074 405.306H173.956C173.841 405.306 173.783 405.191 173.783 404.961C173.778 404.837 173.801 404.714 173.849 404.599C173.898 404.484 173.971 404.379 174.065 404.293C174.229 404.168 174.342 403.994 174.386 403.799L175.862 394.966C175.886 394.85 175.898 394.731 175.9 394.612C175.9 394.458 175.785 394.31 175.557 394.198C175.451 394.14 175.397 394.007 175.397 393.802C175.384 393.631 175.401 393.459 175.445 393.293C175.474 393.23 175.564 393.197 175.698 393.197H178.743C178.828 393.193 178.911 393.215 178.982 393.26C179.052 393.305 179.106 393.369 179.134 393.445C179.25 393.795 179.325 394.156 179.359 394.522C179.388 394.736 179.42 394.951 179.452 395.16L180.761 403.406C180.795 403.75 180.956 404.071 181.216 404.314C181.267 404.35 181.312 404.394 181.348 404.444C181.378 404.542 181.388 404.645 181.38 404.746C181.394 404.904 181.375 405.064 181.326 405.215C181.287 405.273 181.207 405.3 181.085 405.3H177.556C177.45 405.3 177.399 405.206 177.399 405.016C177.388 404.864 177.402 404.712 177.44 404.565C177.496 404.476 177.576 404.403 177.671 404.353C177.754 404.313 177.824 404.253 177.873 404.179C177.923 404.105 177.951 404.02 177.954 403.933C177.916 403.531 177.853 403.132 177.764 402.738L177.768 402.726ZM161.845 399.891V403.824C161.845 404.023 161.98 404.172 162.252 404.259C162.34 404.285 162.422 404.326 162.493 404.38C162.56 404.546 162.583 404.725 162.56 404.901C162.575 405.017 162.554 405.134 162.499 405.239C162.424 405.286 162.333 405.307 162.243 405.297H158.467C158.281 405.297 158.191 405.221 158.191 405.07V404.634C158.191 404.456 158.313 404.332 158.557 404.253C158.654 404.229 158.742 404.179 158.81 404.108C158.862 404.005 158.884 403.892 158.874 403.778V400.079L157.27 394.727C157.245 394.613 157.192 394.505 157.114 394.414C157.037 394.322 156.937 394.249 156.824 394.201C156.771 394.183 156.726 394.149 156.695 394.105C156.664 394.061 156.649 394.009 156.651 393.956V393.387C156.651 393.254 156.728 393.188 156.882 393.188H160.26C160.296 393.183 160.332 393.188 160.365 393.201C160.398 393.213 160.427 393.234 160.449 393.26C160.493 393.388 160.51 393.523 160.498 393.656C160.503 393.792 160.495 393.928 160.472 394.062C160.441 394.13 160.385 394.184 160.315 394.216C160.26 394.244 160.215 394.285 160.183 394.335C160.151 394.385 160.133 394.442 160.132 394.5C160.134 394.576 160.146 394.652 160.17 394.724L161.203 398.073L162.256 394.721C162.271 394.675 162.277 394.627 162.275 394.579C162.262 394.48 162.226 394.386 162.171 394.301C162.116 394.217 162.042 394.144 161.954 394.089C161.916 394.064 161.883 394.032 161.858 393.994C161.833 393.957 161.817 393.915 161.81 393.871V393.433C161.81 393.269 161.887 393.188 162.044 393.188H163.802C163.962 393.188 164.046 393.269 164.046 393.433V393.932C164.039 393.983 164.019 394.032 163.989 394.075C163.958 394.119 163.917 394.154 163.869 394.18C163.66 394.319 163.509 394.524 163.443 394.758L161.845 399.891ZM145.627 394.041H145.268C145.149 394.041 145.056 394.116 144.982 394.261C144.856 394.65 144.777 395.051 144.748 395.456C144.744 395.646 144.684 395.832 144.575 395.992C144.435 396.08 144.267 396.119 144.1 396.101C143.948 396.117 143.793 396.089 143.657 396.022C143.62 395.981 143.591 395.933 143.574 395.881C143.557 395.829 143.552 395.774 143.558 395.72C143.558 395.629 143.558 395.538 143.558 395.447L143.654 393.699C143.646 393.558 143.684 393.419 143.763 393.3C143.827 393.236 143.985 393.206 144.241 393.206H150.074C150.244 393.206 150.347 393.224 150.395 393.263C150.456 393.401 150.485 393.549 150.481 393.699L150.616 395.245C150.616 395.366 150.632 395.49 150.632 395.614C150.638 395.731 150.619 395.849 150.574 395.959C150.536 396.04 150.408 396.08 150.199 396.08C150.022 396.097 149.843 396.071 149.679 396.004C149.599 395.955 149.541 395.798 149.493 395.532C149.427 395.17 149.332 394.813 149.211 394.464C149.111 394.189 148.983 394.05 148.835 394.05H148.595V403.7C148.587 403.821 148.619 403.942 148.689 404.045C148.758 404.147 148.86 404.227 148.98 404.271C149.068 404.3 149.144 404.355 149.195 404.429C149.239 404.553 149.257 404.685 149.246 404.816C149.246 405.064 149.224 405.212 149.176 405.255C149.078 405.306 148.966 405.327 148.855 405.315H145.332C145.285 405.321 145.237 405.318 145.191 405.305C145.145 405.293 145.102 405.271 145.066 405.242C145.009 405.106 144.988 404.959 145.005 404.813C145.005 404.532 145.091 404.359 145.255 404.302C145.372 404.27 145.477 404.21 145.56 404.126C145.613 404.034 145.635 403.928 145.624 403.824L145.627 394.041ZM133.24 393.823V393.427C133.24 393.272 133.327 393.197 133.503 393.197H137.318C137.414 393.186 137.512 393.204 137.597 393.248C137.635 393.281 137.658 393.387 137.658 393.551C137.669 393.717 137.655 393.884 137.616 394.047C137.597 394.081 137.569 394.11 137.535 394.131C137.501 394.152 137.461 394.165 137.42 394.168C137.345 394.175 137.272 394.197 137.206 394.232C137.14 394.266 137.082 394.314 137.036 394.37C136.989 394.427 136.956 394.492 136.937 394.561C136.918 394.63 136.915 394.702 136.926 394.773V403.812C136.932 403.911 136.969 404.007 137.032 404.088C137.096 404.168 137.183 404.229 137.283 404.262C137.392 404.299 137.488 404.363 137.562 404.447C137.601 404.535 137.617 404.63 137.61 404.725V405.028C137.61 405.185 137.594 405.273 137.562 405.294C137.483 405.318 137.4 405.328 137.318 405.321H133.429C133.279 405.321 133.205 405.267 133.205 405.155C133.193 404.934 133.207 404.713 133.247 404.495C133.269 404.417 133.365 404.353 133.522 404.308C133.811 404.233 133.956 404.091 133.956 403.881V394.966C133.963 394.805 133.936 394.643 133.875 394.491C133.798 394.364 133.673 394.269 133.526 394.225C133.433 394.196 133.349 394.146 133.282 394.08C133.245 394.003 133.232 393.918 133.243 393.835L133.24 393.823ZM124.713 404.462H125.175C125.279 404.468 125.384 404.446 125.477 404.4C125.569 404.353 125.647 404.284 125.701 404.199C125.893 403.811 126.043 403.406 126.147 402.989C126.208 402.741 126.285 402.589 126.374 402.541C126.515 402.476 126.671 402.447 126.827 402.459C126.982 402.447 127.139 402.466 127.286 402.517C127.321 402.54 127.349 402.571 127.366 402.608C127.384 402.645 127.39 402.686 127.385 402.726C127.38 402.838 127.366 402.951 127.343 403.061L127.067 404.876C127.054 405.007 127.012 405.132 126.942 405.245C126.899 405.282 126.848 405.308 126.792 405.323C126.737 405.338 126.679 405.342 126.621 405.333H121.392C121.167 405.333 121.071 405.203 121.071 404.946C121.061 404.816 121.076 404.685 121.113 404.559C121.133 404.527 121.16 404.498 121.192 404.476C121.224 404.454 121.26 404.438 121.299 404.429C121.601 404.338 121.755 404.075 121.755 403.639V394.727C121.756 394.64 121.729 394.555 121.676 394.484C121.624 394.412 121.549 394.358 121.463 394.328C121.337 394.292 121.229 394.215 121.158 394.11C121.115 393.981 121.096 393.846 121.103 393.711C121.091 393.573 121.107 393.434 121.151 393.303C121.18 393.248 121.267 393.224 121.405 393.224H125.078C125.13 393.217 125.183 393.221 125.232 393.238C125.281 393.254 125.325 393.282 125.361 393.318C125.433 393.478 125.46 393.653 125.438 393.826C125.448 393.939 125.43 394.053 125.386 394.159C125.318 394.236 125.224 394.291 125.12 394.313C125.003 394.339 124.899 394.403 124.827 394.494C124.754 394.584 124.717 394.696 124.722 394.809L124.713 404.462ZM110.635 396.049L109.733 401.882H111.501L110.635 396.049ZM111.597 402.744H109.608L109.515 403.427C109.518 403.451 109.518 403.474 109.515 403.497C109.474 403.622 109.452 403.753 109.451 403.884C109.46 403.985 109.5 404.082 109.565 404.163C109.631 404.244 109.719 404.305 109.82 404.341C109.922 404.382 110.008 404.453 110.064 404.544C110.099 404.655 110.114 404.772 110.109 404.889C110.12 405.014 110.108 405.139 110.073 405.261C110.051 405.306 109.993 405.324 109.903 405.324H107.805C107.69 405.324 107.632 405.209 107.632 404.979C107.627 404.855 107.649 404.732 107.698 404.617C107.747 404.502 107.82 404.397 107.914 404.311C108.073 404.184 108.18 404.01 108.219 403.818L109.695 394.984C109.719 394.868 109.733 394.749 109.736 394.631C109.736 394.476 109.618 394.328 109.39 394.216C109.284 394.159 109.229 394.026 109.229 393.82C109.217 393.649 109.233 393.478 109.278 393.312C109.31 393.248 109.396 393.215 109.531 393.215H112.576C112.661 393.211 112.745 393.233 112.815 393.278C112.886 393.322 112.939 393.387 112.967 393.463C113.083 393.813 113.158 394.174 113.192 394.54C113.221 394.755 113.253 394.969 113.285 395.178L114.594 403.424C114.629 403.768 114.79 404.088 115.049 404.332C115.1 404.368 115.145 404.412 115.181 404.462C115.21 404.56 115.221 404.663 115.213 404.765C115.227 404.923 115.208 405.082 115.158 405.233C115.12 405.291 115.04 405.318 114.918 405.318H111.389C111.283 405.318 111.231 405.224 111.231 405.034C111.221 404.882 111.235 404.73 111.273 404.583C111.329 404.494 111.408 404.421 111.504 404.371C111.587 404.331 111.656 404.271 111.706 404.197C111.756 404.123 111.784 404.038 111.786 403.951C111.747 403.543 111.682 403.138 111.591 402.738L111.597 402.744ZM95.4661 393.215H98.9149C99.0336 393.215 99.1106 393.236 99.1395 393.284C99.1851 393.426 99.2014 393.575 99.1876 393.723C99.201 393.817 99.1868 393.912 99.1467 393.998C99.1065 394.085 99.0419 394.159 98.9599 394.213C98.8645 394.253 98.7833 394.318 98.7256 394.401C98.6758 394.52 98.656 394.648 98.6679 394.776V403.182C98.6578 403.388 98.7339 403.589 98.8796 403.742C98.9467 403.812 99.0291 403.867 99.121 403.904C99.2129 403.941 99.3123 403.959 99.4122 403.957C99.511 403.957 99.6085 403.935 99.6969 403.894C99.7854 403.852 99.8626 403.792 99.9223 403.718C100.059 403.569 100.134 403.379 100.134 403.182V394.776C100.154 394.674 100.14 394.569 100.093 394.476C100.045 394.383 99.9676 394.307 99.871 394.258C99.7762 394.186 99.7016 394.094 99.6535 393.988C99.6054 393.883 99.5854 393.768 99.5951 393.653C99.5951 393.445 99.6207 393.318 99.6721 393.275C99.733 393.228 99.8115 393.205 99.8902 393.212H101.61C101.648 393.206 101.688 393.209 101.725 393.221C101.762 393.232 101.796 393.251 101.824 393.277C101.851 393.303 101.872 393.335 101.885 393.37C101.897 393.404 101.901 393.442 101.895 393.478V393.838C101.903 393.94 101.891 394.042 101.86 394.14C101.816 394.197 101.753 394.238 101.68 394.255C101.568 394.284 101.469 394.348 101.401 394.438C101.334 394.527 101.301 394.636 101.308 394.745V402.937C101.339 403.278 101.29 403.62 101.165 403.94C101.04 404.261 100.842 404.551 100.585 404.792C100.329 405.033 100.019 405.217 99.6781 405.332C99.3373 405.448 98.9739 405.492 98.6134 405.46C97.6669 405.46 96.9451 405.218 96.4478 404.74C95.9505 404.262 95.7003 403.567 95.7003 402.662V394.748C95.7002 394.646 95.6661 394.546 95.6028 394.462C95.5396 394.379 95.4503 394.316 95.3473 394.283C95.2627 394.257 95.1879 394.209 95.1324 394.143C95.1004 394.055 95.0884 393.961 95.0971 393.868C95.083 393.684 95.1025 393.499 95.1549 393.321C95.1773 393.245 95.2832 393.209 95.4596 393.209L95.4661 393.215ZM85.6135 402.496V394.676C85.6193 394.472 85.5539 394.272 85.4274 394.107C85.3786 394.036 85.3117 393.977 85.2327 393.936C85.1536 393.896 85.0651 393.874 84.975 393.874C84.8806 393.871 84.787 393.892 84.704 393.934C84.621 393.977 84.5517 394.04 84.5034 394.116C84.3915 394.283 84.3345 394.478 84.3398 394.676V403.824C84.3349 404.027 84.4002 404.227 84.5259 404.392C84.5711 404.463 84.6344 404.523 84.71 404.565C84.7856 404.607 84.8712 404.631 84.959 404.634C85.0458 404.632 85.131 404.611 85.2078 404.573C85.2845 404.535 85.3509 404.48 85.4017 404.414C85.5123 404.298 85.5779 404.151 85.5878 403.996C85.5878 403.766 85.3697 403.497 84.9462 403.185C84.885 403.142 84.836 403.085 84.8036 403.02C84.7712 402.954 84.7562 402.882 84.7601 402.81V402.608C84.7601 402.406 84.8403 402.305 85.0007 402.305C85.2097 402.344 85.4132 402.406 85.6071 402.49L85.6135 402.496ZM86.4091 405.155C85.957 405.353 85.4643 405.457 84.9654 405.457C83.7623 405.457 82.7966 404.876 82.078 403.715C81.3593 402.553 81 401.083 81 399.295C81 397.444 81.3583 395.931 82.0748 394.758C82.7913 393.584 83.7751 392.998 85.0264 393C86.1878 393 87.1385 393.564 87.8785 394.691C88.6186 395.818 88.9875 397.386 88.9854 399.395C88.9854 401.144 88.6068 402.613 87.8496 403.803C88.1093 404.108 88.4535 404.339 88.8442 404.471C88.9886 404.513 89.072 404.568 89.0977 404.631C89.1364 404.972 89.1482 405.315 89.1329 405.657C89.1329 405.89 89.1329 406.038 89.1329 406.096C89.1329 406.153 89.1329 406.247 89.1329 406.313C89.1329 406.77 88.9116 407 88.4656 407C88.1645 406.977 87.8769 406.872 87.6379 406.697C87.3459 406.522 86.9289 406.002 86.4027 405.149L86.4091 405.155Z" fill="#0C1D67"/>
<path d="M417.058 393.561C417.158 393.448 417.25 393.329 417.334 393.205C417.374 393.141 417.431 393.089 417.499 393.053C417.566 393.017 417.642 392.999 417.719 393C417.754 393 417.903 393.019 418.166 393.057C418.236 393.149 418.278 393.258 418.286 393.372L418.721 396.027C418.74 396.169 418.753 396.251 418.753 396.276C418.753 396.377 418.724 396.443 418.669 396.471C418.524 396.515 418.372 396.531 418.221 396.519C418.039 396.538 417.855 396.503 417.693 396.418C417.502 396.159 417.349 395.875 417.236 395.576C416.759 394.525 416.333 394 415.959 394C415.694 394 415.558 394.179 415.558 394.545C415.558 394.999 415.962 395.89 416.77 397.219C417.447 398.287 418.052 399.398 418.578 400.545C418.868 401.279 419.012 402.06 418.999 402.847C418.999 403.854 418.756 404.624 418.27 405.158C418.075 405.402 417.826 405.602 417.542 405.741C417.258 405.881 416.945 405.957 416.627 405.965C416.233 405.964 415.848 405.855 415.515 405.65C415.42 405.582 415.308 405.539 415.191 405.524C415.12 405.524 415.065 405.571 415.02 405.672C414.935 405.874 414.728 405.971 414.397 405.971C414.306 405.982 414.214 405.961 414.138 405.911C414.089 405.874 414.057 405.773 414.034 405.596L413.636 402.992C413.584 402.658 413.555 402.481 413.555 402.459C413.555 402.308 413.697 402.232 413.979 402.232C414.362 402.232 414.589 402.282 414.66 402.383C414.784 402.598 414.883 402.825 414.955 403.061C415.425 404.322 415.898 404.953 416.371 404.953C416.452 404.956 416.533 404.94 416.607 404.908C416.681 404.876 416.747 404.828 416.799 404.767C416.911 404.635 416.97 404.468 416.964 404.297C416.941 403.884 416.815 403.483 416.598 403.127C416.358 402.677 416.061 402.176 415.707 401.623C415.036 400.613 414.438 399.56 413.914 398.47C413.572 397.707 413.394 396.885 413.389 396.052C413.352 395.27 413.571 394.497 414.015 393.845C414.18 393.595 414.407 393.388 414.674 393.243C414.942 393.099 415.242 393.02 415.548 393.016C416.096 393.061 416.621 393.253 417.064 393.571M406.389 393.016H406.804C406.847 393.013 406.89 393.022 406.928 393.041C406.966 393.059 406.998 393.088 407.021 393.123C407.094 393.304 407.13 393.496 407.128 393.691L407.31 396.213C407.313 396.262 407.313 396.312 407.31 396.361C407.323 396.495 407.289 396.63 407.213 396.743C407.159 396.786 407.097 396.818 407.03 396.837C406.963 396.856 406.893 396.861 406.824 396.853C406.733 396.863 406.641 396.852 406.555 396.821C406.469 396.79 406.393 396.739 406.331 396.673C406.19 396.406 406.1 396.117 406.065 395.819C405.849 394.682 405.542 394.113 405.145 394.113C404.814 394.113 404.649 394.523 404.649 395.343V404.146C404.649 404.732 404.824 405.022 405.174 405.022C405.615 405.022 405.864 404.537 405.916 403.562C405.909 403.354 405.969 403.149 406.088 402.976C406.17 402.911 406.265 402.862 406.367 402.834C406.469 402.806 406.576 402.798 406.681 402.812C406.848 402.797 407.016 402.839 407.154 402.932C407.258 403.067 407.305 403.237 407.284 403.405C407.307 404.086 407.061 404.751 406.597 405.262C406.382 405.499 406.117 405.688 405.82 405.815C405.523 405.942 405.201 406.005 404.876 406C404.233 406.004 403.611 405.779 403.126 405.369C402.625 404.949 402.193 404.238 401.83 403.238C401.427 401.985 401.242 400.675 401.282 399.363C401.242 398.159 401.397 396.957 401.742 395.8C401.975 395.038 402.377 394.336 402.918 393.741C403.13 393.513 403.387 393.329 403.675 393.204C403.963 393.078 404.275 393.011 404.591 393.009C404.951 393.006 405.303 393.116 405.592 393.325C405.662 393.381 405.746 393.419 405.835 393.432C405.897 393.432 405.988 393.359 406.104 393.214C406.221 393.069 406.295 393.006 406.383 393.006L406.389 393.016ZM390.681 393.88V393.467C390.681 393.306 390.769 393.227 390.947 393.227H394.797C394.895 393.215 394.993 393.234 395.079 393.281C395.121 393.315 395.144 393.426 395.144 393.596C395.157 393.77 395.141 393.944 395.098 394.113C395.08 394.149 395.052 394.18 395.017 394.202C394.982 394.224 394.942 394.237 394.901 394.239C394.825 394.247 394.751 394.27 394.685 394.307C394.618 394.343 394.56 394.392 394.513 394.451C394.467 394.51 394.433 394.577 394.413 394.649C394.394 394.721 394.39 394.796 394.402 394.87V404.291C394.407 404.395 394.445 404.496 394.51 404.579C394.574 404.663 394.663 404.726 394.765 404.761C394.874 404.798 394.971 404.865 395.043 404.953C395.084 405.044 395.102 405.144 395.095 405.243V405.558C395.095 405.722 395.076 405.814 395.043 405.836C394.964 405.862 394.88 405.871 394.797 405.864H390.872C390.723 405.864 390.649 405.807 390.649 405.691C390.639 405.461 390.652 405.231 390.688 405.003C390.714 404.921 390.811 404.855 390.97 404.808C391.261 404.729 391.404 404.581 391.404 404.363V395.072C391.412 394.903 391.386 394.735 391.326 394.577C391.248 394.444 391.122 394.345 390.973 394.299C390.879 394.269 390.793 394.217 390.723 394.148C390.678 394.062 390.658 393.966 390.665 393.87L390.681 393.88ZM379.536 394.107H379.173C379.053 394.107 378.959 394.186 378.885 394.337C378.757 394.742 378.677 395.16 378.648 395.582C378.644 395.78 378.583 395.974 378.473 396.14C378.332 396.232 378.162 396.273 377.994 396.254C377.839 396.27 377.684 396.242 377.546 396.172C377.508 396.129 377.48 396.079 377.462 396.024C377.445 395.97 377.439 395.913 377.446 395.857C377.446 395.762 377.446 395.667 377.446 395.573L377.543 393.75C377.532 393.604 377.57 393.457 377.653 393.334C377.718 393.268 377.877 393.237 378.136 393.237H384.028C384.2 393.237 384.303 393.255 384.352 393.296C384.414 393.44 384.444 393.595 384.44 393.75L384.576 395.362C384.576 395.488 384.576 395.617 384.576 395.746C384.582 395.869 384.562 395.991 384.517 396.106C384.478 396.191 384.349 396.232 384.138 396.232C383.959 396.25 383.778 396.222 383.613 396.153C383.532 396.103 383.474 395.939 383.425 395.661C383.358 395.284 383.263 394.912 383.14 394.548C383.039 394.261 382.91 394.116 382.761 394.116H382.518V404.174C382.509 404.301 382.542 404.427 382.612 404.534C382.682 404.641 382.785 404.724 382.907 404.77C382.996 404.799 383.072 404.857 383.124 404.934C383.169 405.064 383.186 405.201 383.176 405.338C383.176 405.596 383.153 405.751 383.104 405.795C383.006 405.848 382.892 405.871 382.78 405.858H379.215C379.168 405.864 379.119 405.861 379.073 405.847C379.026 405.834 378.983 405.812 378.946 405.782C378.889 405.64 378.868 405.486 378.885 405.334C378.885 405.041 378.969 404.861 379.138 404.802C379.261 404.772 379.374 404.708 379.462 404.619C379.515 404.522 379.538 404.412 379.526 404.303L379.536 394.107ZM369.415 393.571C369.514 393.458 369.605 393.339 369.687 393.214C369.728 393.151 369.785 393.099 369.853 393.063C369.92 393.027 369.996 393.008 370.073 393.009C370.109 393.009 370.261 393.028 370.524 393.066C370.592 393.158 370.633 393.268 370.64 393.382L371.075 396.036C371.097 396.178 371.107 396.26 371.107 396.285C371.107 396.386 371.081 396.452 371.023 396.481C370.879 396.524 370.728 396.54 370.579 396.528C370.395 396.548 370.21 396.513 370.047 396.427C369.858 396.167 369.704 395.884 369.59 395.585C369.113 394.534 368.687 394.009 368.313 394.009C368.048 394.009 367.915 394.189 367.915 394.554C367.915 395.008 368.318 395.9 369.124 397.228C369.802 398.297 370.407 399.408 370.935 400.554C371.224 401.289 371.367 402.07 371.356 402.856C371.356 403.862 371.11 404.631 370.624 405.167C370.429 405.411 370.181 405.61 369.897 405.75C369.614 405.89 369.302 405.966 368.984 405.974C368.589 405.974 368.203 405.865 367.869 405.659C367.774 405.591 367.663 405.547 367.545 405.533C367.474 405.533 367.419 405.58 367.377 405.681C367.292 405.883 367.082 405.981 366.755 405.981C366.663 405.991 366.57 405.97 366.492 405.921C366.426 405.828 366.391 405.718 366.392 405.606L365.99 403.001C365.938 402.667 365.912 402.49 365.912 402.468C365.912 402.317 366.055 402.241 366.336 402.241C366.719 402.241 366.946 402.292 367.014 402.393C367.139 402.607 367.239 402.834 367.312 403.071C367.779 404.332 368.252 404.962 368.728 404.962C368.809 404.965 368.89 404.95 368.964 404.918C369.038 404.885 369.104 404.837 369.156 404.776C369.267 404.644 369.325 404.477 369.318 404.307C369.294 403.894 369.17 403.493 368.955 403.137C368.713 402.687 368.416 402.186 368.064 401.633C367.392 400.623 366.793 399.57 366.272 398.48C365.928 397.717 365.749 396.894 365.747 396.062C365.707 395.28 365.927 394.506 366.372 393.854C366.537 393.604 366.763 393.398 367.03 393.253C367.297 393.108 367.596 393.03 367.902 393.025C368.445 393.067 368.966 393.252 369.409 393.561L369.415 393.571ZM355.285 393.886V393.473C355.285 393.312 355.373 393.233 355.551 393.233H359.401C359.499 393.221 359.598 393.24 359.683 393.287C359.725 393.322 359.748 393.432 359.748 393.602C359.761 393.776 359.745 393.95 359.703 394.119C359.684 394.156 359.656 394.186 359.621 394.209C359.587 394.231 359.546 394.243 359.505 394.245C359.429 394.254 359.355 394.276 359.289 394.313C359.222 394.349 359.164 394.398 359.117 394.457C359.071 394.516 359.037 394.584 359.018 394.656C358.998 394.728 358.994 394.803 359.006 394.876V404.297C359.011 404.402 359.049 404.502 359.114 404.586C359.178 404.669 359.267 404.732 359.369 404.767C359.478 404.804 359.575 404.871 359.647 404.959C359.69 405.05 359.708 405.15 359.699 405.249V405.565C359.699 405.728 359.699 405.82 359.647 405.842C359.568 405.868 359.484 405.878 359.401 405.87H355.47C355.321 405.87 355.246 405.814 355.246 405.697C355.236 405.467 355.249 405.237 355.285 405.01C355.311 404.928 355.409 404.861 355.567 404.814C355.859 404.735 356.002 404.587 356.002 404.37V395.078C356.01 394.909 355.983 394.741 355.924 394.583C355.846 394.451 355.72 394.352 355.571 394.305C355.476 394.275 355.391 394.223 355.321 394.154C355.28 394.065 355.265 393.967 355.279 393.87L355.285 393.886ZM346.555 405.092C346.353 405.372 346.086 405.6 345.774 405.758C345.463 405.916 345.117 405.999 344.766 406C343.662 406 342.759 405.369 342.056 404.108C341.324 402.721 340.962 401.177 341.003 399.618C341.003 397.657 341.4 396.068 342.193 394.851C342.986 393.634 343.924 393.024 345.009 393.022C345.5 393.015 345.982 393.152 346.393 393.413C346.478 393.477 346.58 393.517 346.688 393.53C346.788 393.53 346.869 393.441 346.937 393.268C346.957 393.199 346.999 393.138 347.058 393.093C347.116 393.049 347.187 393.024 347.261 393.022H347.362L347.618 393.041C347.704 393.056 347.783 393.099 347.841 393.162C347.9 393.225 347.935 393.306 347.942 393.391L348.454 395.882C348.495 396.053 348.521 396.227 348.532 396.402C348.532 396.585 348.392 396.676 348.107 396.676C347.918 396.698 347.728 396.657 347.566 396.56C347.378 396.3 347.216 396.024 347.083 395.734C346.866 395.255 346.581 394.808 346.237 394.406C346.14 394.295 346.02 394.204 345.885 394.14C345.75 394.076 345.603 394.04 345.453 394.034C344.718 394.034 344.35 394.602 344.348 395.737V404.133C344.348 404.764 344.552 405.054 344.954 405.054C345.356 405.054 345.602 404.738 345.602 404.133V400.034C345.617 399.93 345.597 399.823 345.546 399.731C345.495 399.638 345.414 399.563 345.317 399.517C345.213 399.478 345.126 399.408 345.067 399.316C345.009 399.225 344.982 399.117 344.993 399.01C344.971 398.839 344.999 398.667 345.074 398.511C345.174 398.443 345.298 398.413 345.42 398.429H348.859C348.974 398.417 349.09 398.448 349.183 398.515C349.255 398.632 349.285 398.77 349.267 398.906C349.278 399.051 349.26 399.198 349.215 399.337C349.159 399.427 349.068 399.492 348.963 399.517C348.872 399.547 348.794 399.606 348.741 399.685C348.689 399.763 348.665 399.856 348.674 399.949V405.268C348.69 405.471 348.669 405.675 348.613 405.87C348.567 405.949 348.457 405.99 348.289 405.99C348.167 405.996 348.046 405.985 347.929 405.955C347.814 405.903 347.712 405.829 347.627 405.738C347.33 405.433 346.959 405.206 346.548 405.076L346.555 405.092Z" fill="#0C1D67"/>
<defs>
<linearGradient id="paint0_linear_5976_190" x1="175.388" y1="115.326" x2="325.59" y2="304.004" gradientUnits="userSpaceOnUse">
<stop stop-color="#1E3B7F"/>
<stop offset="1" stop-color="#079ADE"/>
</linearGradient>
</defs>
</svg>
