<svg width="485" height="500" viewBox="0 0 485 500" fill="none" xmlns="http://www.w3.org/2000/svg">
<g clip-path="url(#clip0_9602_170)">
<path d="M485.496 0H1V500H485.496V0Z" fill="#F0F0F0"/>
<path d="M271.31 216.444C271.557 215.993 271.875 215.616 272.264 215.313C272.646 215.014 272.904 214.727 273.038 214.452C273.938 212.591 273.833 209.668 271.698 208.68C270.795 208.263 269.785 208.054 268.669 208.052C251.506 208.034 238.96 208.041 231.031 208.073C226.587 208.092 224.898 205.224 224.1 201.31C223.853 200.099 223.565 198.898 223.235 197.708C222.88 196.42 222.73 195.463 222.784 194.837C223.013 192.142 224.693 191.086 227.023 190.122C227.385 189.973 227.772 189.871 228.186 189.816C231.321 189.404 234.454 188.964 237.583 188.497C239.103 188.271 242.558 187.911 247.95 187.418C250.684 187.169 254.382 186.575 257.646 186.405C258.407 186.366 259.257 186.063 259.862 186.032C263.399 185.855 266.912 185.451 270.4 184.823C272.071 184.524 273.679 184.044 275.224 183.383C280.611 181.082 283.393 177.125 284.333 171.301C284.369 171.08 284.543 170.88 284.616 170.64C285.292 168.449 285.906 166.242 286.458 164.019C287.025 161.733 288.19 157.764 288.578 154.645C288.807 152.795 288.207 151.279 286.778 150.097C284.05 147.841 281.337 147.665 278.088 147.111C276.477 146.835 274.821 146.807 273.336 146.807C255.698 146.814 238.058 146.819 220.417 146.823C217.019 146.825 213.768 146.006 210.664 144.367C207.59 142.745 204.799 139.719 202.983 136.936C202.421 136.079 201.979 135.279 201.658 134.535C197.617 125.23 199.846 114.604 206.726 107.016C210.825 102.494 215.642 99.1835 221.176 97.0835C223.318 96.2709 225.706 95.5372 228.342 94.8824C229.015 94.7146 230.115 94.5236 231.642 94.3094C233.148 94.1002 234.557 93.6788 236.062 93.5878C238.233 93.4544 240.453 93.0694 242.509 93.0451C245.879 93.0057 249.308 92.9057 252.653 93.3635C254.505 93.6181 256.45 93.5454 258.332 94.0244C259.859 94.4125 261.28 94.3579 262.743 94.749C264.192 95.1371 265.667 95.3281 267.067 95.7798C269.033 96.4104 271.183 96.8894 272.996 97.5049C275.537 98.3659 277.302 99.0016 278.289 99.4118C288.202 103.523 297.364 109.038 305.166 116.493C309.198 120.346 313.16 124.509 316.445 129.011C322.309 137.045 326.752 145.826 329.775 155.354C330.302 157.022 330.775 159.277 331.326 161.242C331.587 162.171 331.782 162.961 331.91 163.61C333.419 171.253 333.756 178.32 333.533 186.139C333.301 194.394 331.76 202.647 329.026 210.302C328.594 211.513 328.257 212.553 328.014 213.425C327.841 214.053 327.596 214.677 327.279 215.295C326.632 216.562 326.183 218.087 325.653 219.218C323.901 222.959 322.523 225.605 321.519 227.155C319.24 230.678 317.117 234.059 314.377 237.521C313.241 238.956 311.911 240.468 310.387 242.057C307.161 245.416 304.61 247.936 302.733 249.618C299.028 252.941 294.677 255.931 289.68 258.589C288.659 259.134 287.167 259.97 285.206 261.096C282.228 262.803 279.205 264.034 276.016 265.271C273.86 266.108 271.593 266.726 269.368 267.414C266.856 268.187 264.466 268.721 261.958 269.273C259.434 269.828 256.821 269.991 254.243 270.322C246.803 271.28 239.814 270.825 232.509 269.812C223.868 268.612 215.208 265.562 207.34 261.93C205.497 261.077 203.711 260.152 201.98 259.156C192.899 253.917 185.088 247.494 178.548 239.886C176.423 237.414 173.99 234.074 171.25 229.866C168.632 225.842 166.37 221.624 164.463 217.214C164.453 217.192 164.313 216.769 164.044 215.944C163.839 215.322 163.457 214.898 163.255 214.322C161.071 208.133 159.404 201.919 158.254 195.68C158.025 194.441 157.881 193.052 157.82 191.514C157.715 188.816 157.293 185.82 157.284 183.431C157.264 178.33 157.919 173.31 159.248 168.372C160.077 165.284 161.126 162.792 162.397 160.896C163.334 159.495 164.204 157.919 165.152 156.7C170.346 150.036 177.898 146.153 186.353 146.792C188.065 146.922 189.708 147.305 191.282 147.941C197.395 150.413 201.664 154.879 204.091 161.339C205.693 165.595 206.705 169.882 207.843 173.933C207.899 174.133 208.016 174.698 208.192 175.627C208.346 176.431 208.692 177.189 208.873 177.853C211.79 188.767 214.6 199.712 217.569 210.614C217.96 212.045 218.893 214.24 220.086 215.15C220.64 215.571 221.098 216.092 221.712 216.362C222.483 216.702 223.13 216.87 223.654 216.866C234.015 216.805 244.382 216.732 254.743 216.826C259.067 216.867 263.91 216.843 269.271 216.756C269.986 216.744 270.583 216.699 271.063 216.62C271.115 216.611 271.164 216.59 271.206 216.56C271.249 216.529 271.284 216.49 271.31 216.444ZM237.128 226.04C237.128 225.385 237 224.737 236.752 224.132C236.503 223.528 236.138 222.978 235.679 222.515C235.219 222.053 234.673 221.685 234.073 221.435C233.472 221.184 232.828 221.055 232.178 221.055C231.528 221.055 230.884 221.184 230.284 221.435C229.683 221.685 229.138 222.053 228.678 222.515C228.218 222.978 227.854 223.528 227.605 224.132C227.356 224.737 227.228 225.385 227.228 226.04C227.228 227.362 227.75 228.629 228.678 229.564C229.606 230.499 230.865 231.024 232.178 231.024C233.491 231.024 234.75 230.499 235.679 229.564C236.607 228.629 237.128 227.362 237.128 226.04ZM263.767 225.461C263.611 224.164 262.943 222.983 261.909 222.178C260.875 221.373 259.56 221.011 258.253 221.17C257.606 221.249 256.981 221.453 256.413 221.772C255.845 222.091 255.345 222.517 254.942 223.027C254.539 223.537 254.241 224.12 254.065 224.744C253.889 225.367 253.838 226.019 253.915 226.661C254.071 227.958 254.739 229.139 255.773 229.944C256.807 230.748 258.122 231.111 259.429 230.952C260.076 230.873 260.701 230.668 261.269 230.35C261.837 230.031 262.337 229.605 262.74 229.095C263.143 228.585 263.441 228.002 263.617 227.378C263.794 226.754 263.845 226.103 263.767 225.461Z" fill="#35ABB7"/>
<path d="M274.646 156.138C275.561 156.501 276.288 157.063 276.826 157.823C277.238 158.403 277.466 159.154 277.513 160.076C277.645 162.75 276.739 165.524 276.293 168.043C276.076 169.282 275.808 170.206 275.489 170.814C274.05 173.555 271.379 174.647 268.5 175.456C266.444 176.035 264.062 176.226 261.81 176.596C259.75 176.932 257.396 177.002 255.044 177.345C249.043 178.224 241.919 178.97 234.765 179.834C232.064 180.161 229.387 180.216 226.686 180.568C222.504 181.107 219.237 179.622 217.623 175.592C216.412 172.573 215.819 169.587 214.807 166.582C214.709 166.291 214.605 165.779 214.494 165.045C214.389 164.342 214.049 163.605 213.907 163.002C213.409 160.91 212.885 158.907 212.335 156.993C212.293 156.846 212.286 156.691 212.313 156.541C212.341 156.391 212.402 156.25 212.494 156.128C212.585 156.006 212.703 155.907 212.838 155.838C212.974 155.77 213.123 155.735 213.275 155.734C232.501 155.751 251.694 155.776 270.852 155.81C272.135 155.813 273.424 155.649 274.646 156.138Z" fill="#35ABB7"/>
<path d="M243.563 328.506C243.898 328.662 244.209 328.651 244.496 328.473C247.426 326.66 249.32 325.293 252.108 324.786C255.155 324.235 258.919 324.226 261.867 325.159C263.901 325.804 265.886 326.764 267.823 328.04C272.803 331.32 275.844 336.222 277.013 342.122C277.543 344.792 277.818 347.243 277.838 349.474C277.892 355.332 277.918 361.189 277.916 367.046C277.916 369.603 277.852 371.171 277.723 371.752C276.946 375.268 273.02 378.706 269.365 376.208C267.173 374.708 266.796 372.619 266.607 369.635C266.336 365.409 266.917 358.096 266.576 351.139C266.369 346.897 265.992 343.077 263.472 339.718C260.407 335.627 256.189 334.196 250.82 335.425C249.182 335.799 247.726 336.692 246.454 338.105C243.439 341.449 243.12 345.781 243.102 350.005C243.078 356.169 243.072 362.334 243.084 368.498C243.09 371.182 242.343 375.093 239.841 376.615C238.936 377.162 237.964 377.364 236.927 377.221C233.377 376.73 231.82 372.215 231.817 369.184C231.791 348.161 231.768 327.14 231.748 306.12C231.745 302.427 232.223 299.78 235.12 297.355C236.363 296.316 237.68 296.159 239.073 296.885C243.129 298.998 243.078 303.419 243.078 307.363C243.072 313.719 243.079 320.076 243.099 326.433C243.101 327.067 243.191 327.683 243.367 328.279C243.399 328.384 243.465 328.46 243.563 328.506Z" fill="#355262"/>
<path d="M214.238 335.838C211.05 332.276 201.598 332.449 201.249 338.782C201.08 341.808 207.265 344.67 209.562 345.682C212.9 347.158 216.136 348.83 219.27 350.7C221.51 352.038 223.11 353.242 224.069 354.314C228.55 359.319 227.866 366.896 223.106 371.637C219.77 374.96 215.534 376.762 210.399 377.043C205.573 377.31 201.456 376.885 197.268 374.478C193.387 372.25 189.518 368.742 187.618 364.6C186.666 362.527 186.793 359.501 188.946 358.291C190.978 357.145 193.757 358.213 195.353 359.695C195.861 360.166 197.024 361.372 198.843 363.312C201.438 366.083 207.15 369.203 211.197 367.802C213.594 366.971 215.38 366.356 216.427 363.806C218.168 359.568 213.38 358.222 210.746 356.748C207.566 354.969 204.38 353.222 201.258 351.34C199.987 350.572 198.647 349.987 197.497 349.108C195.624 347.679 194.387 346.657 193.784 346.043C190.659 342.851 190.063 338.215 191.827 334.119C193.122 331.121 195.181 328.838 198.102 327.228C203.48 324.26 209.315 323.347 215 325.812C218.86 327.483 227.074 332.646 225.804 338C225.181 340.625 222.154 342.326 219.682 341.201C217.698 340.298 215.729 337.506 214.238 335.838Z" fill="#355262"/>
<path d="M72.5475 328.843C73.4719 328.994 75.8777 327.242 76.7419 326.56C77.9553 325.608 80.1715 324.759 81.686 324.571C87.407 323.864 91.493 326.156 95.5218 330.076C97.6807 332.177 99.8156 331.183 101.737 329.491C103.206 328.197 105.549 326.138 107.608 325.398C109.658 324.667 111.756 324.341 113.904 324.422C118.863 324.607 123.594 327.396 127.02 330.968C129.57 333.626 131.289 336.841 132.178 340.615C133.226 345.053 133.548 348.743 133.56 353.642C133.574 358.895 133.558 364.149 133.512 369.405C133.498 371.143 133.011 372.84 132.052 374.495C128.996 379.761 123.073 376.508 122.444 371.797C122.29 370.623 122.224 368.898 122.212 367.443C122.168 361.604 122.163 355.765 122.197 349.925C122.227 344.802 120.926 339.157 116.659 336.079C116.023 335.621 115.339 335.332 114.606 335.212C112.625 334.894 110.905 335.07 109.105 336.052C106.088 337.693 104.176 340.219 103.369 343.628C102.935 345.469 102.962 347.494 102.992 349.574C103.081 356.021 103.098 362.468 103.043 368.913C103.013 372.576 100.821 378.958 95.7326 376.726C94.1167 376.019 93.0457 374.919 92.5198 373.428C92.2428 372.646 92.1043 371.582 92.1043 370.238C92.1043 364.502 92.1063 358.765 92.1103 353.027C92.1133 351.241 91.8694 349.413 91.7128 347.609C91.2732 342.516 89.304 335.437 83.2006 334.915C82.0895 334.821 80.0661 335.115 79.0182 335.646C75.1842 337.584 73.1437 340.703 72.8968 345.002C72.7492 347.542 72.7794 350.823 72.4813 354.185C72.0296 359.285 72.4542 364.505 72.4361 369.629C72.4321 370.692 72.2765 371.729 71.9694 372.74C71.2829 374.989 69.0396 377.287 66.4953 377.111C64.0864 376.942 61.8553 374.116 61.3976 371.945C61.0503 370.304 60.9499 368.144 61.0965 365.466C61.2621 362.404 61.3946 359.427 61.3615 356.262C61.2531 345.944 61.2822 337.616 61.4488 331.28C61.523 328.41 62.7776 326.325 65.2126 325.026C67.3625 323.88 69.0426 325.059 70.4458 326.748C70.9035 327.296 71.8489 328.724 72.5475 328.843Z" fill="#35ABB7"/>
<path d="M410.92 334.803C407.927 332.984 404.166 332.86 401.318 335.146C399.969 336.229 399.325 337.594 399.385 339.242C399.469 341.676 404.489 344.071 406.72 345.153C410.648 347.055 414.527 349.057 418.357 351.159C422.57 353.473 425.804 358.472 425.126 363.508C424.687 366.776 423.169 370.184 420.652 372.409C419.851 373.116 418.659 373.881 417.075 374.704C414.35 376.12 411.727 377.005 408.584 377.099C405.759 377.184 402.959 376.937 400.183 376.356C394.45 375.162 389.349 370.529 386.299 365.572C385.763 364.699 385.422 363.932 385.275 363.271C384.152 358.181 389.623 356.244 393.001 359.278C394.322 360.463 395.787 361.918 397.395 363.644C399.918 366.352 403.344 367.631 406.919 368.207C407.424 368.288 407.94 368.247 408.466 368.086C412.116 366.967 415.277 365.733 414.774 361.058C414.627 359.679 412.061 358.263 410.727 357.644C409.427 357.04 408.479 356.566 407.885 356.222C404.31 354.149 400.731 352.084 397.148 350.029C390.695 346.327 386.744 340.827 390.511 333.233C391.658 330.92 393.23 329.121 395.23 327.836C400.714 324.311 406.591 323.544 412.862 325.535C414.69 326.114 417.27 327.948 418.764 329.061C420.863 330.622 423.898 333.624 424.172 336.449C424.258 337.324 424.048 338.175 423.542 339.002C422.787 340.236 421.525 341.518 419.962 341.47C418.68 341.429 417.516 341.062 416.473 340.366C415.626 339.805 414.904 338.699 414.136 337.765C413.034 336.425 411.962 335.438 410.92 334.803Z" fill="#355262"/>
<path d="M163.105 347.86C165.538 342.718 167.953 337.568 170.349 332.41C171.247 330.48 172.428 328.543 173.893 326.598C174.247 326.127 174.656 325.781 175.122 325.558C176.88 324.719 179.079 324.264 180.864 325.155C182.052 325.749 182.883 326.702 183.357 328.014C183.818 329.287 183.526 330.218 182.951 331.379C180.4 336.521 177.552 342.979 174.77 348.855C167.142 364.959 159.496 381.054 151.832 397.138C151.821 397.157 151.425 398.103 150.642 399.976C149.984 401.555 149.112 402.898 148.026 404.005C145.966 406.103 143.667 406.577 141.127 405.427C137.936 403.984 138.059 401.089 139.378 398.345C140.825 395.342 142.25 392.327 143.654 389.301C145.222 385.924 147.571 381.416 149.23 377.299C149.419 376.834 149.592 376.249 149.751 375.543C149.935 374.737 150.236 373.948 150.305 373.154C150.534 370.571 150.699 367.242 150.019 364.735C149.826 364.025 149.67 363.252 149.365 362.598C147.691 358.993 145.578 355.027 144.069 351.944C141.05 345.769 137.956 339.632 134.786 333.532C133.915 331.856 133.437 330.645 133.353 329.897C133.166 328.226 133.699 326.289 135.307 325.44C137.246 324.415 139.192 324.357 141.145 325.264C142.521 325.904 143.973 328.084 144.611 329.248C147.672 334.843 150.929 341.415 154.382 348.964C155.153 350.652 156.478 352.499 158.396 352.923C160.768 353.448 162.355 349.449 163.105 347.86Z" fill="#35ABB7"/>
<path d="M315.584 327.315C317.198 328.248 318.261 328.928 318.773 329.355C324.53 334.154 327.885 340.024 328.722 347.464C329.434 353.816 328.249 359.859 325.166 365.591C323.862 368.016 321.995 369.587 320.068 371.466C318.962 372.546 318.057 373.327 317.355 373.81C313.254 376.629 308.048 377.512 303.07 377.193C299.069 376.935 295.823 375.829 292.496 373.476C281.984 366.045 279.087 352.851 283.095 340.942C283.681 339.202 284.407 337.684 285.272 336.389C289.566 329.964 295.865 324.668 303.947 324.689C305.308 324.692 306.882 324.595 308.108 324.741C310.649 325.042 313.141 325.9 315.584 327.315ZM295.648 338.132C291.053 343.607 290.481 351.945 292.631 358.381C294.354 363.535 297.693 367.061 303.098 368.052C303.957 368.21 304.946 368.232 306.066 368.119C309.358 367.786 312.23 366.767 314.311 364.196C320.095 357.035 320.399 346.275 315.039 338.72C313.621 336.722 311.869 335.415 309.674 334.488C304.678 332.378 299.093 334.03 295.648 338.132Z" fill="#355262"/>
<path d="M347.119 329.257C347.254 329.328 347.405 329.363 347.557 329.36C347.71 329.357 347.859 329.315 347.992 329.239C348.765 328.792 349.57 328.257 350.407 327.635C353.268 325.516 355.984 324.806 359.675 324.67C363.045 324.545 365.905 324.758 368.883 326.371C381.644 333.274 383.604 348.33 380.737 361.3C379.217 368.17 374.583 374.536 367.85 376.798C363.602 378.226 358.094 378.465 354.114 376.752C351.579 375.661 346.119 370.264 346.135 377.771C346.147 384.356 346.18 390.941 346.234 397.526C346.244 398.804 345.893 400.344 345.18 402.147C344.347 404.253 342.87 405.505 340.748 405.903C340.168 406.012 339.602 405.951 339.05 405.721C335.105 404.066 334.515 399.985 334.515 396.162C334.527 375.809 334.534 355.455 334.536 335.102C334.536 331.767 334.738 325.252 339.351 324.703C341.868 324.406 343.885 324.809 345.373 327.038C345.827 327.723 346.378 328.866 347.119 329.257ZM351.154 336.481C347.97 338.001 346.182 340.537 345.788 344.088C345.361 347.942 345.529 351.743 345.638 356.521C345.704 359.377 346.409 362.127 348.48 364.165C350.937 366.584 353.861 367.697 357.299 367.963C360.052 368.179 362.65 368.012 365.053 366.666C372.063 362.743 372.933 352.971 371.479 345.916C370.935 343.279 369.773 340.868 367.995 338.686C365.42 335.523 362.581 334.696 358.682 334.914C355.905 335.069 353.542 335.342 351.154 336.481Z" fill="#355262"/>
</g>
<defs>
<clipPath id="clip0_9602_170">
<rect width="485" height="500" fill="white"/>
</clipPath>
</defs>
</svg>
