<svg width="500" height="500" viewBox="0 0 500 500" fill="none" xmlns="http://www.w3.org/2000/svg">
<rect width="500" height="500" fill="#F0F0F0"/>
<path d="M244.877 270.941H207.18V225.978C207.168 218.255 204.106 210.853 198.665 205.393C193.225 199.933 185.85 196.861 178.157 196.851C170.459 196.853 163.077 199.921 157.631 205.382C152.185 210.843 149.12 218.251 149.11 225.978V270.925H111.437V225.978C111.46 208.221 118.497 191.199 131.004 178.643C143.512 166.087 160.469 159.023 178.157 159C195.845 159.023 212.802 166.087 225.31 178.643C237.817 191.199 244.854 208.221 244.877 225.978V270.941Z" fill="url(#paint0_linear)"/>
<path d="M350.819 227.804V272.751C350.808 280.477 347.746 287.884 342.304 293.347C336.862 298.81 329.484 301.884 321.788 301.894C314.091 301.886 306.711 298.813 301.269 293.349C295.826 287.886 292.765 280.478 292.756 272.751V227.804H255.052V272.751C255.041 280.477 251.979 287.884 246.537 293.347C241.095 298.81 233.717 301.884 226.021 301.894C218.324 301.884 210.946 298.81 205.504 293.347C200.062 287.884 197 280.477 196.989 272.751V227.804H159.285V272.751C159.308 290.508 166.345 307.53 178.852 320.086C191.359 332.642 208.317 339.706 226.005 339.729C234.941 339.73 243.787 337.924 252.013 334.419C260.239 330.913 267.678 325.78 273.884 319.325C280.092 325.781 287.531 330.915 295.759 334.42C303.987 337.926 312.834 339.732 321.772 339.729C339.46 339.706 356.417 332.642 368.924 320.086C381.432 307.53 388.469 290.508 388.492 272.751V227.804H350.819Z" fill="url(#paint1_linear)"/>
<defs>
<linearGradient id="paint0_linear" x1="111.405" y1="214.974" x2="244.869" y2="214.974" gradientUnits="userSpaceOnUse">
<stop stop-color="#00A79D"/>
<stop offset="0.13" stop-color="#07A89D"/>
<stop offset="0.31" stop-color="#1CAC9E"/>
<stop offset="0.54" stop-color="#3DB19F"/>
<stop offset="0.79" stop-color="#6BB9A1"/>
<stop offset="1" stop-color="#96C0A2"/>
</linearGradient>
<linearGradient id="paint1_linear" x1="159.285" y1="283.77" x2="388.516" y2="283.77" gradientUnits="userSpaceOnUse">
<stop stop-color="#EF4123"/>
<stop offset="0.26" stop-color="#E23244"/>
<stop offset="0.56" stop-color="#D62362"/>
<stop offset="0.82" stop-color="#CF1A75"/>
<stop offset="1" stop-color="#CC177C"/>
</linearGradient>
</defs>
</svg>
