<svg width="500" height="500" viewBox="0 0 500 500" fill="none" xmlns="http://www.w3.org/2000/svg">
<rect width="500" height="500" fill="#F0F0F0"/>
<path d="M298.282 203.5V194.57C298.282 194.419 298.343 194.274 298.449 194.167C298.556 194.06 298.701 194 298.852 194H311.192C311.344 194 311.489 194.06 311.596 194.167C311.702 194.274 311.762 194.419 311.762 194.57L311.822 206.37C311.823 206.456 311.804 206.542 311.767 206.62C311.73 206.698 311.676 206.766 311.609 206.82C311.541 206.874 311.462 206.912 311.378 206.931C311.294 206.95 311.207 206.95 311.122 206.93L298.722 204.05C298.598 204.021 298.487 203.951 298.407 203.851C298.328 203.751 298.284 203.628 298.282 203.5Z" fill="#FF0000"/>
<path d="M405.782 237.072V238.522C404.896 240.802 403.396 241.715 401.282 241.262C357.762 231.922 314.239 222.618 270.712 213.352C257.819 210.605 245.206 210.385 232.872 212.692C188.039 221.078 143.222 229.545 98.4224 238.092C93.6424 239.002 91.8724 232.172 97.5324 231.002C142.786 221.602 188.052 212.265 233.332 202.992C247.682 200.052 262.222 201.932 277.962 205.542C319.762 215.102 361.539 224.738 403.292 234.452C404.379 234.698 405.209 235.572 405.782 237.072Z" fill="#FF0000"/>
<path d="M180.282 295.822C180.282 298.254 179.316 300.586 177.597 302.306C175.877 304.026 173.545 304.992 171.112 304.992H112.212C109.78 304.992 107.448 304.026 105.728 302.306C104.009 300.586 103.042 298.254 103.042 295.822V248.682C103.042 246.25 104.009 243.917 105.728 242.198C107.448 240.478 109.78 239.512 112.212 239.512H171.112C173.545 239.512 175.877 240.478 177.597 242.198C179.316 243.917 180.282 246.25 180.282 248.682V295.822ZM166.32 256.405C166.321 255.899 166.222 255.398 166.03 254.931C165.837 254.463 165.554 254.039 165.197 253.68C164.84 253.322 164.416 253.038 163.95 252.844C163.483 252.649 162.982 252.549 162.477 252.548L120.917 252.476C119.896 252.474 118.916 252.878 118.193 253.598C117.469 254.319 117.062 255.298 117.06 256.319L117.005 288.119C117.004 288.624 117.103 289.125 117.295 289.593C117.488 290.06 117.771 290.485 118.128 290.843C118.485 291.201 118.908 291.485 119.375 291.68C119.842 291.874 120.342 291.975 120.848 291.975L162.408 292.048C163.429 292.05 164.409 291.646 165.132 290.925C165.856 290.204 166.263 289.226 166.265 288.205L166.32 256.405Z" fill="#FF0000"/>
<path d="M238.362 241.788C238.416 241.863 238.486 241.924 238.566 241.967C238.647 242.011 238.737 242.035 238.829 242.039C238.921 242.043 239.014 242.026 239.099 241.989C239.184 241.953 239.261 241.898 239.322 241.828C240.676 240.282 242.496 239.508 244.782 239.508C255.196 239.502 265.612 239.495 276.032 239.488C284.572 239.488 288.042 245.008 288.042 252.848C288.029 269.862 288.026 286.935 288.032 304.068C288.032 304.292 287.944 304.507 287.787 304.666C287.63 304.825 287.416 304.916 287.192 304.918L275.512 305.018C275.319 305.02 275.126 304.983 274.947 304.909C274.767 304.836 274.604 304.728 274.467 304.591C274.329 304.455 274.22 304.292 274.145 304.113C274.071 303.934 274.032 303.742 274.032 303.548V256.008C274.032 255.151 273.691 254.328 273.084 253.721C272.477 253.113 271.653 252.771 270.792 252.768L249.292 252.738C248.865 252.737 248.441 252.82 248.046 252.983C247.65 253.146 247.291 253.385 246.988 253.687C246.685 253.989 246.445 254.347 246.281 254.742C246.117 255.137 246.032 255.561 246.032 255.988V303.828C246.032 304.113 245.919 304.386 245.717 304.588C245.514 304.791 245.24 304.906 244.952 304.908L233.292 305.008C233.127 305.01 232.964 304.978 232.811 304.916C232.658 304.854 232.519 304.762 232.402 304.646C232.285 304.53 232.192 304.391 232.129 304.239C232.065 304.087 232.032 303.923 232.032 303.758V256.408C232.032 255.438 231.647 254.507 230.96 253.82C230.274 253.134 229.343 252.748 228.372 252.748H207.192C206.288 252.748 205.421 253.108 204.781 253.747C204.142 254.387 203.782 255.254 203.782 256.158V303.518C203.782 303.908 203.629 304.282 203.355 304.558C203.081 304.833 202.71 304.988 202.322 304.988H191.532C191.068 304.988 190.623 304.804 190.295 304.476C189.967 304.148 189.782 303.702 189.782 303.238C189.782 287.412 189.782 271.425 189.782 255.278C189.782 244.128 192.692 239.548 203.982 239.508C213.036 239.475 222.089 239.485 231.142 239.538C234.452 239.558 236.652 239.418 238.362 241.788Z" fill="#FF0000"/>
<path d="M312.283 243.29V304.37C312.283 304.542 312.214 304.708 312.092 304.83C311.97 304.952 311.805 305.02 311.633 305.02L298.933 304.95C298.76 304.95 298.595 304.882 298.473 304.76C298.351 304.638 298.283 304.472 298.283 304.3V240.22C298.281 240.121 298.303 240.024 298.345 239.934C298.387 239.845 298.449 239.767 298.526 239.705C298.604 239.643 298.694 239.6 298.79 239.578C298.886 239.557 298.986 239.557 299.083 239.58L311.783 242.66C311.924 242.694 312.051 242.774 312.142 242.888C312.232 243.003 312.282 243.144 312.283 243.29Z" fill="#FF0000"/>
<path d="M321.972 241.799C321.971 241.503 322.028 241.21 322.14 240.937C322.252 240.664 322.416 240.415 322.624 240.205C322.832 239.995 323.08 239.828 323.352 239.714C323.625 239.6 323.917 239.54 324.212 239.539L366.892 239.469C371.146 239.461 375.36 240.267 379.292 241.842C383.225 243.416 386.8 245.728 389.814 248.646C392.827 251.564 395.219 255.03 396.854 258.846C398.489 262.663 399.335 266.755 399.342 270.889V273.349C399.358 281.698 395.961 289.711 389.898 295.626C383.835 301.54 375.603 304.873 367.012 304.889L324.332 304.959C324.037 304.96 323.744 304.903 323.471 304.791C323.197 304.68 322.948 304.515 322.739 304.307C322.529 304.099 322.362 303.852 322.248 303.579C322.133 303.307 322.074 303.014 322.072 302.719L321.972 241.799ZM336.532 253.439V291.079C336.532 291.336 336.635 291.583 336.817 291.765C336.998 291.947 337.245 292.049 337.502 292.049H364.652C370.254 292.049 375.626 289.965 379.587 286.255C383.547 282.546 385.772 277.515 385.772 272.269V272.249C385.772 267.003 383.547 261.972 379.587 258.262C375.626 254.553 370.254 252.469 364.652 252.469H337.502C337.245 252.469 336.998 252.571 336.817 252.753C336.635 252.935 336.532 253.182 336.532 253.439Z" fill="#FF0000"/>
</svg>
