<svg width="215" height="215" viewBox="0 0 215 215" fill="none" xmlns="http://www.w3.org/2000/svg">
<path d="M215 0H0V215H215V0Z" fill="#F0F0F0"/>
<path fill-rule="evenodd" clip-rule="evenodd" d="M128.639 64.8091H150.13V99.6097H115.228V91.7588L134.507 72.5406L135.454 71.6011L128.639 64.8091Z" fill="#099A71"/>
<path fill-rule="evenodd" clip-rule="evenodd" d="M106.996 47L131.681 71.6036L106.996 96.2098L101.436 90.6619V62.1481H91.7998L106.996 47Z" fill="#E24353"/>
<path fill-rule="evenodd" clip-rule="evenodd" d="M63.8675 64.8091V86.2389L69.7327 80.3939L70.6849 79.4545L90.8934 99.6122H98.7721V64.8091H63.8675Z" fill="#099A71"/>
<path fill-rule="evenodd" clip-rule="evenodd" d="M46 107.818L70.6849 83.2123L95.3571 107.818L89.7914 113.371H61.1964V122.974L46 107.818Z" fill="#E24353"/>
<path fill-rule="evenodd" clip-rule="evenodd" d="M63.8675 150.83V116.027H98.7721V123.878L79.4929 143.096L78.5459 144.036L79.4929 144.975L85.3607 150.83H63.8675Z" fill="#099A71"/>
<path fill-rule="evenodd" clip-rule="evenodd" d="M107.004 168.639L82.3189 144.036L107.004 119.427L112.557 124.97V153.489H122.2L107.004 168.639Z" fill="#E24353"/>
<path fill-rule="evenodd" clip-rule="evenodd" d="M150.13 150.83H115.223V116.027H123.102L142.373 135.253L143.32 136.185L144.26 135.246L150.13 129.398V150.83Z" fill="#099A71"/>
<path fill-rule="evenodd" clip-rule="evenodd" d="M143.323 132.43L118.648 107.818L124.209 102.271H152.804V92.6678L168 107.818L143.323 132.43Z" fill="#E24353"/>
</svg>
