<svg width="500" height="500" viewBox="0 0 500 500" fill="none" xmlns="http://www.w3.org/2000/svg">
<rect width="500" height="500" fill="#F0F0F0"/>
<path d="M258 233C255.522 231.339 252.704 230.268 249.759 229.869C246.813 229.469 243.816 229.752 240.994 230.695C238.173 229.752 235.179 229.47 232.235 229.869C229.291 230.268 226.475 231.339 224 233C225.71 229.963 228.183 227.438 231.169 225.682C234.155 223.925 237.547 223 241 223C244.453 223 247.845 223.925 250.831 225.682C253.817 227.438 256.29 229.963 258 233Z" fill="#FAD729"/>
<path d="M240.994 276C237.541 276.001 234.149 275.077 231.164 273.32C228.179 271.564 225.707 269.038 224 266C226.473 267.667 229.288 268.742 232.233 269.143C235.177 269.545 238.173 269.263 240.994 268.318C243.816 269.262 246.814 269.544 249.761 269.142C252.707 268.741 255.524 267.666 258 266C256.291 269.039 253.817 271.565 250.829 273.322C247.842 275.078 244.448 276.002 240.994 276Z" fill="#95BB3C"/>
<path d="M258 266C259.437 263.516 260.311 260.756 260.563 257.91C260.814 255.063 260.438 252.197 259.459 249.507C260.438 246.814 260.815 243.945 260.563 241.097C260.311 238.248 259.437 235.486 258 233C260.768 234.809 263.038 237.261 264.608 240.14C266.178 243.019 267 246.234 267 249.5C267 252.766 266.178 255.981 264.608 258.86C263.038 261.739 260.768 264.191 258 266Z" fill="#65C3E9"/>
<path d="M259.83 250C258.377 245.951 255.656 242.478 252.072 240.098C249.628 235.808 245.685 232.571 241 231.012C243.885 230.06 246.948 229.774 249.959 230.178C252.97 230.581 255.851 231.662 258.383 233.34C259.808 235.849 260.675 238.637 260.925 241.512C261.174 244.387 260.801 247.282 259.83 250Z" fill="#80AD4C"/>
<path d="M247.312 270C245.167 270.003 243.036 269.661 241 268.987C245.683 267.424 249.625 264.189 252.072 259.901C255.654 257.519 258.374 254.048 259.83 250C260.801 252.715 261.174 255.608 260.925 258.481C260.675 261.354 259.808 264.14 258.384 266.647C255.107 268.837 251.253 270.004 247.312 270Z" fill="#44A648"/>
<path d="M252 260C253.554 256.954 254.372 253.508 254.372 250C254.372 246.492 253.554 243.046 252 240C255.234 242.403 257.689 245.91 259 250C257.686 254.088 255.232 257.594 252 260Z" fill="#4B9A47"/>
<path d="M224 266C221.232 264.191 218.962 261.738 217.392 258.859C215.822 255.98 215 252.766 215 249.5C215 246.234 215.822 243.02 217.392 240.141C218.962 237.262 221.232 234.809 224 233C222.259 235.985 221.344 239.366 221.348 242.806C221.349 245.087 221.748 247.351 222.528 249.5C221.547 252.192 221.171 255.06 221.425 257.908C221.679 260.756 222.557 263.517 224 266Z" fill="#EC9BBC"/>
<path d="M222.17 250C221.397 247.83 221.001 245.544 221 243.241C220.997 239.767 221.903 236.354 223.63 233.339C226.16 231.662 229.038 230.581 232.047 230.178C235.056 229.774 238.117 230.06 241 231.012C236.319 232.579 232.378 235.813 229.928 240.098C226.347 242.481 223.627 245.953 222.17 250Z" fill="#EB8B31"/>
<path d="M234.702 270C230.76 270.007 226.905 268.839 223.63 266.647C221.903 263.633 220.997 260.219 221 256.746C221.001 254.447 221.397 252.165 222.17 250C223.632 254.045 226.351 257.515 229.928 259.901C232.382 264.183 236.322 267.416 241 268.987C238.968 269.66 236.842 270.002 234.702 270Z" fill="#968039"/>
<path d="M230 260C226.307 257.594 223.502 254.088 222 250C223.498 245.91 226.304 242.403 230 240C228.231 243.048 227.301 246.494 227.301 250C227.301 253.506 228.231 256.952 230 260Z" fill="#957939"/>
<path d="M252 240C248.742 237.835 244.915 236.68 241 236.68C237.085 236.68 233.258 237.835 230 240C232.434 235.755 236.349 232.552 241 231C245.655 232.544 249.573 235.75 252 240Z" fill="#857944"/>
<path d="M241 269C236.352 267.444 232.438 264.241 230 260C233.261 262.157 237.087 263.307 241 263.307C244.913 263.307 248.739 262.157 252 260C249.569 264.247 245.652 267.451 241 269Z" fill="#5E7541"/>
<path d="M240.494 263C236.61 263.009 232.811 261.824 229.58 259.596C227.889 256.521 227 253.044 227 249.506C227 245.969 227.889 242.492 229.58 239.416C232.812 237.189 236.61 236 240.494 236C244.379 236 248.176 237.189 251.408 239.416C253.107 242.489 254 245.967 254 249.506C254 253.045 253.107 256.523 251.408 259.596C248.178 261.826 244.378 263.011 240.494 263Z" fill="#5E6F40"/>
<path d="M255 249.5C255 252.368 254.15 255.171 252.556 257.556C250.963 259.94 248.698 261.799 246.049 262.896C243.399 263.994 240.484 264.281 237.671 263.721C234.858 263.162 232.275 261.781 230.247 259.753C228.219 257.725 226.838 255.142 226.279 252.329C225.719 249.516 226.006 246.601 227.104 243.951C228.201 241.302 230.06 239.037 232.444 237.444C234.829 235.85 237.632 235 240.5 235C244.346 235 248.034 236.528 250.753 239.247C253.472 241.966 255 245.654 255 249.5Z" fill="white"/>
<path d="M78.5023 255.702V266H72V231H88.2685C105.218 231 105.27 255.585 88.2685 255.767L78.5023 255.702ZM78.5023 249.654H88.2557C96.5827 249.654 96.5313 237.257 88.2557 237.257H78.4894L78.5023 249.654Z" fill="#404041"/>
<path d="M127.531 266V251.844H110.521V266H104V231H110.521V245.756H127.531V231H134V266H127.531Z" fill="#404041"/>
<path d="M173.999 248.652C173.894 257.826 168.345 267 156.019 267C143.693 267 138 258.024 138 248.705C138 237.495 146.004 230 156.176 230C168.136 230.093 174.103 239.425 173.999 248.652ZM155.993 260.866C164.258 260.866 167.366 254.587 167.47 248.758C167.575 242.928 164.206 236.239 156.149 236.081C148.694 236.081 144.28 241.752 144.476 248.797C144.633 254.627 147.741 260.866 155.993 260.866Z" fill="#404041"/>
<path d="M185.172 237.009H174V231H203V237.009H191.828V266H185.172V237.009Z" fill="#404041"/>
<path d="M185 203.053L185.04 197H203V203.053H191.72V218H185V203.053Z" fill="#404041"/>
<path d="M185 281H191.72V295.951H203V302H185.04L185 295.951V281Z" fill="#404041"/>
<path d="M296 218H289.666V203.053H279V197H295.962L296 203.053V218Z" fill="#404041"/>
<path d="M296 295.951L295.962 302H279V295.951H289.666V281H296V295.951Z" fill="#404041"/>
<path d="M319.412 240.607L308.021 255.793H306.732L295.601 240.555V266H289V231H296.59L307.526 246.056L318.462 231H326V266H319.412V240.607Z" fill="#404041"/>
<path d="M355.049 259.404H337.028L334.054 266H327L342.447 231H349.553L365 266H357.894L355.049 259.404ZM346.039 238.352L339.602 253.251H352.475L346.039 238.352Z" fill="#404041"/>
<path d="M398 266H390.692L380.873 254.281H374.386V266H368V231C373.364 231 378.74 231 384.117 231C392.093 231 396.309 236.547 396.309 242.589C396.309 247.38 394.176 252.224 387.739 253.578L398 265.505V266ZM374.386 237.185V248.37H384.117C388.181 248.37 389.923 245.57 389.923 242.784C389.942 242.009 389.802 241.239 389.512 240.525C389.222 239.81 388.788 239.167 388.239 238.638C387.691 238.109 387.04 237.706 386.329 237.456C385.619 237.205 384.865 237.113 384.117 237.185H374.386Z" fill="#404041"/>
<path d="M409.787 236.999H399V231H427V236.999H416.213V266H409.787V236.999Z" fill="#404041"/>
<path d="M241 217C234.672 217 228.486 218.905 223.224 222.475C217.963 226.045 213.861 231.12 211.438 237.057C209.016 242.994 208.38 249.527 209.613 255.831C210.846 262.134 213.891 267.925 218.364 272.472C222.836 277.018 228.536 280.115 234.741 281.372C240.947 282.629 247.38 281.989 253.228 279.534C259.076 277.078 264.075 272.916 267.595 267.575C271.114 262.234 272.995 255.953 273 249.526C273.002 245.258 272.175 241.031 270.568 237.087C268.96 233.143 266.603 229.56 263.631 226.541C260.659 223.523 257.131 221.129 253.248 219.497C249.365 217.864 245.203 217.024 241 217.026M241 273.757C236.282 273.755 231.67 272.331 227.748 269.667C223.827 267.003 220.771 263.218 218.967 258.79C217.163 254.362 216.692 249.49 217.614 244.791C218.536 240.091 220.81 235.775 224.147 232.387C227.484 229 231.735 226.693 236.363 225.759C240.991 224.826 245.787 225.306 250.146 227.141C254.505 228.975 258.23 232.081 260.851 236.065C263.472 240.05 264.871 244.734 264.871 249.526C264.871 252.709 264.254 255.861 263.054 258.802C261.854 261.743 260.096 264.415 257.879 266.665C255.662 268.915 253.03 270.7 250.134 271.917C247.238 273.134 244.134 273.759 241 273.757Z" fill="#404041"/>
<path d="M277.013 208C275.628 207.997 274.273 208.406 273.121 209.173C271.968 209.941 271.068 211.033 270.537 212.312C270.005 213.591 269.864 214.999 270.133 216.358C270.402 217.716 271.067 218.965 272.046 219.945C273.024 220.925 274.271 221.593 275.63 221.865C276.988 222.136 278.396 221.998 279.676 221.468C280.956 220.939 282.05 220.042 282.819 218.89C283.589 217.739 284 216.385 284 215C284 213.146 283.264 211.367 281.954 210.055C280.644 208.743 278.867 208.003 277.013 208ZM277.013 219.706C276.082 219.706 275.173 219.43 274.399 218.913C273.625 218.396 273.022 217.661 272.665 216.801C272.309 215.941 272.216 214.995 272.398 214.082C272.579 213.169 273.027 212.331 273.685 211.672C274.344 211.014 275.182 210.566 276.095 210.384C277.008 210.203 277.954 210.296 278.814 210.652C279.674 211.008 280.409 211.612 280.926 212.386C281.443 213.159 281.719 214.069 281.719 215C281.719 216.248 281.223 217.445 280.341 218.328C279.458 219.21 278.261 219.706 277.013 219.706Z" fill="#404041"/>
</svg>
