<svg width="500" height="500" viewBox="0 0 500 500" fill="none" xmlns="http://www.w3.org/2000/svg">
<rect width="500" height="500" fill="#F0F0F0"/>
<path d="M147.06 223.739C163.217 232.988 166.741 254.131 155.316 268.155C145.956 279.648 133.838 280.62 118.339 279.765C117.841 279.732 117.591 279.48 117.591 279.011V270.416C117.591 269.847 117.894 269.562 118.499 269.562C124.727 269.445 132.236 269.763 137.664 267.685C152.469 262.006 155.263 243.677 142.593 233.842C132.877 226.303 115.883 229.453 110.634 240.812C106.505 249.742 108.694 268.825 108.694 279.112C108.694 279.681 108.392 279.966 107.786 279.966H98.4976C98.2046 279.967 97.9227 279.861 97.7106 279.67C97.4985 279.48 97.3725 279.22 97.3588 278.944C96.7656 268.255 96.908 257.622 97.7858 247.044C99.7433 223.254 126.364 211.878 147.06 223.739Z" fill="#008B97"/>
<path d="M200.4 270.541L200.768 278.973C200.775 279.105 200.753 279.238 200.705 279.362C200.656 279.487 200.581 279.6 200.484 279.696C200.388 279.792 200.271 279.869 200.142 279.921C200.014 279.973 199.875 280 199.735 280H191.103C190.368 280 190 279.652 190 278.956V231.129C190 230.566 190.298 230.284 190.893 230.284C198.772 230.334 210.642 228.876 217.435 232.123C233.911 240.009 232.58 262.986 214.739 268.586C210.835 269.795 205.932 268.95 201.45 269.381C200.715 269.447 200.365 269.834 200.4 270.541ZM200.487 240.92L200.522 258.646C200.522 258.737 200.541 258.828 200.578 258.912C200.615 258.996 200.67 259.073 200.738 259.138C200.806 259.202 200.887 259.254 200.976 259.289C201.066 259.324 201.161 259.342 201.258 259.342L208.366 259.325C211.05 259.321 213.622 258.335 215.517 256.586C217.411 254.837 218.473 252.467 218.468 249.998V249.501C218.466 248.278 218.202 247.068 217.691 245.939C217.181 244.811 216.433 243.785 215.492 242.922C214.551 242.059 213.434 241.375 212.205 240.91C210.976 240.444 209.66 240.205 208.331 240.207L201.223 240.224C201.028 240.224 200.841 240.297 200.703 240.428C200.565 240.558 200.487 240.735 200.487 240.92Z" fill="#008B97"/>
<path d="M263.885 269.068L275.675 279.338C275.829 279.471 275.934 279.644 275.978 279.834C276.021 280.024 276 280.222 275.918 280.402C275.835 280.583 275.695 280.736 275.516 280.843C275.336 280.95 275.126 281.004 274.914 281L262.744 280.496C262.153 280.463 261.645 280.261 261.223 279.892C258.488 277.509 250.411 267.843 246.645 270.36C246.21 270.651 246.005 271.048 246.029 271.552L246.427 279.288C246.437 279.461 246.409 279.634 246.344 279.797C246.279 279.959 246.179 280.108 246.051 280.234C245.922 280.359 245.767 280.459 245.595 280.527C245.423 280.596 245.238 280.631 245.051 280.631H236.141C235.38 280.631 235 280.284 235 279.59V231.477C235 230.727 235.404 230.347 236.213 230.336C245.486 230.151 258.108 228.859 265.642 232.987C280.148 240.908 277.956 259.922 264.048 267.759C263.372 268.139 263.318 268.576 263.885 269.068ZM246.21 240.875L246.138 259.1C246.138 259.251 246.202 259.396 246.318 259.503C246.433 259.61 246.59 259.67 246.753 259.67L254.088 259.704C255.446 259.708 256.791 259.47 258.048 259.004C259.304 258.538 260.447 257.851 261.411 256.985C262.374 256.119 263.14 255.089 263.664 253.954C264.188 252.82 264.46 251.603 264.465 250.373V249.735C264.474 247.252 263.394 244.867 261.461 243.104C259.529 241.342 256.902 240.347 254.16 240.338L246.826 240.304C246.745 240.304 246.665 240.319 246.59 240.347C246.515 240.376 246.447 240.418 246.39 240.471C246.333 240.524 246.288 240.587 246.257 240.656C246.226 240.725 246.21 240.8 246.21 240.875Z" fill="#008B97"/>
<path d="M293.242 230H283.758C283.339 230 283 230.321 283 230.717V279.283C283 279.679 283.339 280 283.758 280H293.242C293.661 280 294 279.679 294 279.283V230.717C294 230.321 293.661 230 293.242 230Z" fill="#008B97"/>
<path d="M355 255C355 258.283 354.315 261.534 352.983 264.567C351.651 267.6 349.699 270.356 347.238 272.678C344.778 274.999 341.856 276.841 338.641 278.097C335.426 279.353 331.98 280 328.5 280C321.472 280 314.731 277.366 309.762 272.678C304.792 267.989 302 261.63 302 255C302 248.37 304.792 242.011 309.762 237.322C314.731 232.634 321.472 230 328.5 230C335.528 230 342.269 232.634 347.238 237.322C352.208 242.011 355 248.37 355 255ZM344.744 254.983C344.744 250.923 343.035 247.03 339.992 244.159C336.948 241.288 332.821 239.675 328.518 239.675C326.387 239.675 324.277 240.071 322.308 240.841C320.339 241.61 318.55 242.737 317.044 244.159C315.537 245.58 314.342 247.268 313.526 249.125C312.711 250.983 312.291 252.973 312.291 254.983C312.291 256.994 312.711 258.984 313.526 260.842C314.342 262.699 315.537 264.386 317.044 265.808C318.55 267.229 320.339 268.357 322.308 269.126C324.277 269.896 326.387 270.292 328.518 270.292C332.821 270.292 336.948 268.679 339.992 265.808C343.035 262.937 344.744 259.043 344.744 254.983Z" fill="#008B97"/>
<path d="M374.132 270.937V278.811C374.132 279.494 373.758 279.835 373.01 279.835H364.122C363.374 279.835 363 279.488 363 278.795V231.485C363 230.737 363.404 230.357 364.211 230.346C372.386 230.247 384.711 228.877 391.693 232.377C406.458 239.772 406.832 259.399 391.924 266.992C391.785 267.061 391.666 267.16 391.576 267.281C391.486 267.401 391.429 267.539 391.408 267.684C391.387 267.829 391.403 267.977 391.456 268.115C391.509 268.253 391.596 268.377 391.711 268.478L402.664 278.25C402.822 278.393 402.931 278.577 402.976 278.778C403.022 278.979 403.002 279.187 402.919 279.376C402.837 279.565 402.695 279.725 402.513 279.836C402.331 279.947 402.117 280.004 401.898 280L390.927 279.851C390.369 279.851 389.888 279.67 389.484 279.306L378.086 269.353C377.751 269.064 377.333 268.872 376.883 268.799C376.432 268.727 375.969 268.778 375.549 268.947C375.13 269.115 374.772 269.393 374.521 269.746C374.269 270.1 374.134 270.514 374.132 270.937ZM374.132 240.68V258.739C374.132 258.866 374.186 258.987 374.283 259.077C374.38 259.167 374.511 259.217 374.648 259.217H382.164C383.453 259.217 384.729 258.991 385.92 258.553C387.11 258.114 388.192 257.471 389.104 256.66C390.015 255.849 390.738 254.886 391.231 253.827C391.724 252.767 391.978 251.632 391.978 250.485V248.933C391.978 247.787 391.724 246.651 391.231 245.592C390.738 244.532 390.015 243.57 389.104 242.759C388.192 241.948 387.11 241.305 385.92 240.866C384.729 240.427 383.453 240.201 382.164 240.201H374.648C374.511 240.201 374.38 240.251 374.283 240.341C374.186 240.431 374.132 240.553 374.132 240.68Z" fill="#008B97"/>
<path d="M130 261C136.627 261 142 255.851 142 249.5C142 243.149 136.627 238 130 238C123.373 238 118 243.149 118 249.5C118 255.851 123.373 261 130 261Z" fill="#008B97"/>
</svg>
