<svg width="500" height="500" viewBox="0 0 500 500" fill="none" xmlns="http://www.w3.org/2000/svg">
<rect width="500" height="500" fill="#E5E5E5"/>
<path fill-rule="evenodd" clip-rule="evenodd" d="M0 0H500V500H0V0Z" fill="#F0F0F0"/>
<path d="M151.807 243.426C151.807 247.085 149.246 249.458 144.61 249.458H135.102V237.206H144.427C149.063 237.206 151.807 239.218 151.807 243.306V243.426ZM152.168 256.165C157.594 254.152 161.315 249.824 161.315 242.939V242.815C161.315 238.732 160.097 235.502 157.656 233.061C154.792 230.197 150.647 228.733 145.221 228.733H125.714V271.406H135.102V257.748H142.477L151.624 271.406H162.596L152.168 256.165Z" fill="black"/>
<path d="M203.43 250.189C203.43 257.507 198.187 263.481 190.629 263.481C183.07 263.481 177.708 257.381 177.708 250.068V249.948C177.708 242.63 182.95 236.656 190.509 236.656C198.067 236.656 203.43 242.755 203.43 250.068V250.189ZM190.629 228C177.462 228 167.892 237.936 167.892 250.068V250.189C167.892 262.321 177.342 272.137 190.509 272.137C203.675 272.137 213.246 262.2 213.246 250.068V249.948C213.246 237.816 203.796 228 190.629 228Z" fill="black"/>
<path d="M258.473 228.733L242.928 252.019L227.383 228.733H222.511V271.406H227.2V236.902L242.745 259.703H242.991L258.535 236.84V271.406H263.35V228.733H258.473Z" fill="black"/>
<path d="M305.47 228.731V253.544C305.47 262.869 300.468 267.626 292.606 267.626C284.374 267.626 279.56 262.503 279.56 253.236V228.731H274.745V253.544C274.745 265.613 281.938 272.074 292.481 272.074C303.15 272.074 310.284 265.671 310.284 253.178V228.731H305.47Z" fill="black"/>
<path d="M336.979 247.753C327.529 245.803 325.396 243.483 325.396 239.462V239.337C325.396 235.438 328.867 232.453 334.476 232.453C338.866 232.453 342.829 233.854 346.791 237.084L349.598 233.368C345.207 229.892 340.879 228.125 334.601 228.125C326.494 228.125 320.577 233.122 320.577 239.766V239.886C320.577 246.9 325.092 250.069 334.904 252.201C343.864 254.151 346.001 256.346 346.001 260.308V260.433C346.001 264.636 342.28 267.684 336.489 267.684C330.576 267.684 326.311 265.734 321.858 261.651L318.873 265.185C323.995 269.821 329.479 272.012 336.306 272.012C344.779 272.012 350.874 267.26 350.874 259.942V259.822C350.874 253.299 346.487 249.885 336.979 247.753Z" fill="black"/>
<path d="M361.114 271.404H365.929V228.731H361.114V271.404Z" fill="black"/>
<path d="M411.829 261.526C407.746 265.431 403.905 267.684 398.055 267.684C388.605 267.684 381.532 259.943 381.532 250.069V249.948C381.532 240.132 388.605 232.453 398.055 232.453C403.905 232.453 407.808 234.889 411.463 238.302L414.756 234.769C410.553 230.681 405.854 228 398.113 228C385.619 228 376.535 237.999 376.535 250.069V250.189C376.535 262.441 385.619 272.137 397.93 272.137C405.613 272.137 410.61 269.147 415.001 264.637L411.829 261.526Z" fill="black"/>
<path d="M118.773 243.484V243.609C118.773 253.545 111.089 258.605 101.518 258.605H94.3887V271.406H85.001V228.733H102.433C112.615 228.733 118.773 234.707 118.773 243.484Z" fill="black"/>
<path d="M107.916 247.838C106.779 248.695 105.154 248.418 104.36 247.236L102.334 244.224L97.2879 250.832L92.3888 243.796L92.0184 244.229C91.2153 245.175 90.0374 245.714 88.7973 245.714H85V240.673H88.5473L93.17 236.05L97.364 242.301L102.624 235.693L108.492 244.47C109.224 245.563 108.974 247.044 107.916 247.838Z" fill="#FCE500"/>
</svg>
