<svg width="500" height="500" viewBox="0 0 500 500" fill="none" xmlns="http://www.w3.org/2000/svg">
<rect width="500" height="500" fill="#F0F0F0"/>
<path d="M132.017 306.9C127.041 306.898 122.27 304.895 118.752 301.333C115.233 297.771 113.255 292.94 113.252 287.902H132.017V306.9Z" fill="black"/>
<path d="M132.017 193H57V287.904H113.252V268.949H75.765V211.998H132.017V287.904H150.738V193H132.017Z" fill="black"/>
<path d="M211.376 227.142C211.193 226.937 210.999 226.742 210.794 226.56C210.117 225.9 209.34 225.356 208.492 224.947C207.41 224.402 206.264 223.995 205.083 223.737C203.555 223.41 201.997 223.259 200.436 223.287C198.256 223.225 196.091 223.669 194.107 224.587C192.454 225.404 191.036 226.639 189.991 228.172C188.919 229.722 188.166 231.474 187.778 233.325C186.966 237.254 186.951 241.309 187.733 245.244C188.083 247.064 188.807 248.789 189.857 250.308C190.911 251.804 192.309 253.019 193.929 253.848C195.927 254.769 198.108 255.214 200.303 255.147C201.624 255.158 202.943 255.037 204.241 254.789C205.266 254.589 206.263 254.258 207.205 253.803C207.987 253.447 208.705 252.963 209.329 252.369L209.463 252.234V261.106C209.465 263.067 210.235 264.946 211.604 266.332C212.973 267.718 214.829 268.498 216.766 268.5H216.81V223.692H212.35L211.376 227.142ZM209.608 239.285C209.615 240.605 209.527 241.923 209.343 243.229C209.199 244.266 208.837 245.259 208.28 246.142C207.732 246.956 206.963 247.594 206.067 247.979C204.828 248.473 203.502 248.702 202.172 248.651C200.855 248.703 199.542 248.474 198.318 247.979C197.427 247.584 196.662 246.949 196.105 246.142C195.516 245.272 195.137 244.274 194.999 243.229C194.774 241.913 194.67 240.578 194.689 239.242C194.672 237.891 194.776 236.541 194.999 235.21C195.149 234.154 195.527 233.144 196.105 232.252C196.659 231.432 197.424 230.781 198.318 230.37C199.524 229.871 200.822 229.642 202.124 229.698C203.455 229.643 204.782 229.872 206.019 230.37C206.91 230.763 207.676 231.397 208.234 232.202C208.812 233.11 209.189 234.134 209.34 235.204C209.503 236.558 209.592 237.921 209.608 239.285Z" fill="black"/>
<path d="M246.517 227.143C245.33 225.795 243.799 224.805 242.093 224.279C239.692 223.582 237.199 223.265 234.702 223.338C232.485 223.282 230.274 223.586 228.152 224.239C226.597 224.725 225.173 225.568 223.992 226.703C222.967 227.734 222.22 229.015 221.823 230.422C221.419 231.879 221.226 233.389 221.248 234.902V235.575L228.511 235.485V234.812C228.493 234.024 228.598 233.237 228.821 232.482C228.988 231.885 229.309 231.344 229.75 230.914C230.289 230.439 230.923 230.087 231.609 229.883C232.647 229.602 233.722 229.481 234.796 229.524C235.963 229.483 237.129 229.635 238.248 229.974C239.008 230.195 239.706 230.594 240.284 231.139C240.781 231.655 241.145 232.285 241.347 232.976C241.544 233.66 241.663 234.365 241.701 235.077L233.07 235.927C229.717 236.076 226.445 237.011 223.51 238.66C222.445 239.393 221.587 240.394 221.02 241.565C220.454 242.735 220.198 244.035 220.279 245.336C220.229 246.86 220.564 248.371 221.253 249.727C221.876 250.949 222.789 251.995 223.909 252.774C225.076 253.56 226.361 254.151 227.715 254.522C229.205 254.903 230.736 255.098 232.273 255.104C233.731 255.121 235.186 254.97 236.61 254.654C237.806 254.367 238.976 253.978 240.107 253.489C241.046 253.061 241.925 252.505 242.718 251.839C243.028 251.57 243.293 251.301 243.559 251.033L244.621 254.706H249.092V237.185C249.1 235.307 248.937 233.432 248.606 231.585C248.287 229.95 247.569 228.423 246.517 227.143ZM241.692 241.123V241.301C241.753 242.333 241.604 243.367 241.253 244.338C240.903 245.309 240.359 246.197 239.656 246.947C238.861 247.655 237.936 248.198 236.933 248.544C235.931 248.89 234.871 249.032 233.814 248.963C232.229 249.07 230.647 248.712 229.257 247.933C228.821 247.661 228.464 247.277 228.223 246.821C227.982 246.364 227.865 245.851 227.884 245.333C227.855 244.908 227.954 244.484 228.167 244.116C228.38 243.748 228.698 243.454 229.079 243.272C230.683 242.536 232.41 242.111 234.169 242.017L241.692 241.123Z" fill="black"/>
<path d="M252.935 212.402H260.37V254.746H252.935V212.402Z" fill="black"/>
<path d="M290.066 227.143C288.878 225.795 287.347 224.804 285.64 224.279C283.239 223.582 280.746 223.265 278.25 223.338C276.033 223.282 273.821 223.586 271.7 224.239C270.144 224.725 268.72 225.568 267.539 226.703C266.514 227.734 265.767 229.015 265.371 230.422C264.967 231.879 264.773 233.389 264.795 234.902V235.575L272.058 235.485V234.812C272.04 234.024 272.145 233.237 272.368 232.482C272.536 231.885 272.856 231.344 273.298 230.914C273.836 230.439 274.471 230.087 275.156 229.883C276.195 229.602 277.269 229.481 278.343 229.524C279.51 229.483 280.676 229.635 281.795 229.974C282.555 230.195 283.253 230.594 283.832 231.139C284.328 231.655 284.693 232.285 284.894 232.976C285.091 233.66 285.21 234.365 285.249 235.077L276.618 235.927C273.265 236.076 269.992 237.011 267.057 238.66C265.992 239.393 265.134 240.394 264.568 241.565C264.001 242.735 263.745 244.035 263.826 245.336C263.776 246.86 264.111 248.371 264.8 249.727C265.424 250.949 266.336 251.995 267.456 252.774C268.624 253.56 269.909 254.15 271.262 254.52C272.753 254.901 274.283 255.097 275.82 255.103C277.278 255.12 278.733 254.969 280.157 254.652C281.353 254.366 282.523 253.976 283.654 253.488C284.594 253.059 285.472 252.504 286.266 251.837C286.575 251.569 286.841 251.3 287.106 251.031L288.169 254.705H292.639V237.185C292.647 235.307 292.484 233.432 292.153 231.585C291.854 229.944 291.134 228.412 290.066 227.143ZM285.286 241.123V241.301C285.346 242.333 285.197 243.367 284.847 244.338C284.496 245.309 283.953 246.197 283.249 246.947C282.454 247.655 281.529 248.198 280.527 248.544C279.524 248.89 278.465 249.032 277.408 248.963C275.822 249.07 274.24 248.712 272.85 247.933C272.402 247.671 272.034 247.291 271.784 246.833C271.534 246.375 271.413 245.856 271.433 245.333C271.404 244.908 271.503 244.484 271.716 244.116C271.929 243.748 272.247 243.454 272.628 243.272C274.232 242.536 275.959 242.111 277.718 242.017L285.286 241.123Z" fill="black"/>
<path d="M322.818 250.753C321.353 250.141 319.823 249.705 318.258 249.454C316.628 249.185 315.027 248.916 313.434 248.736C310.203 248.333 307.902 247.974 306.616 247.705C305.686 247.527 305.111 247.213 305.111 246.9C305.136 246.717 305.212 246.546 305.332 246.407C305.332 246.407 305.597 246.139 306.925 245.957C307.5 246.047 308.076 246.092 308.651 246.181C309.222 246.272 309.799 246.317 310.377 246.316C310.953 246.316 311.483 246.361 312.008 246.361C314.317 246.408 316.623 246.151 318.868 245.598C320.466 245.18 321.949 244.399 323.205 243.313C324.243 242.346 324.995 241.104 325.373 239.728C325.777 238.286 325.971 236.791 325.948 235.292C325.998 233.692 325.648 232.104 324.93 230.678C324.567 230 324.088 229.393 323.514 228.886L326.79 227.9V223.689H313.259C310.769 223.64 308.284 223.926 305.868 224.54C304.16 224.984 302.571 225.811 301.22 226.96C300.099 227.952 299.272 229.24 298.831 230.679C298.418 232.121 298.209 233.614 298.211 235.115C298.237 236.635 298.584 238.133 299.23 239.506C299.786 240.682 300.642 241.687 301.708 242.419C300.833 242.74 300.012 243.196 299.274 243.769C298.748 244.189 298.326 244.728 298.043 245.343C297.76 245.958 297.623 246.631 297.644 247.309C297.617 247.995 297.745 248.677 298.02 249.304C298.295 249.931 298.708 250.486 299.228 250.926C300.324 251.828 301.589 252.499 302.946 252.898C304.541 253.374 306.168 253.734 307.815 253.974C309.541 254.242 311.267 254.466 312.949 254.736C314.011 254.915 315.029 255.094 316.002 255.273C316.786 255.408 317.555 255.62 318.298 255.906C318.813 256.083 319.282 256.374 319.671 256.757C319.813 256.887 319.927 257.046 320.003 257.224C320.08 257.402 320.118 257.594 320.116 257.788C320.106 258.157 320.032 258.522 319.895 258.864C319.699 259.261 319.389 259.589 319.005 259.805C318.315 260.192 317.568 260.464 316.793 260.611C315.494 260.851 314.174 260.956 312.854 260.925C311.444 260.946 310.036 260.826 308.649 260.566C307.829 260.428 307.054 260.09 306.392 259.58C305.915 259.229 305.572 258.723 305.418 258.147C305.226 257.442 305.093 256.723 305.019 255.996L304.975 255.414H297.325V256.086C297.291 257.67 297.531 259.247 298.033 260.746C298.518 262.173 299.412 263.421 300.601 264.331C302.028 265.379 303.656 266.111 305.381 266.481C307.808 267.016 310.288 267.256 312.771 267.199C315.22 267.267 317.666 266.98 320.034 266.348C321.695 265.897 323.265 265.153 324.672 264.151C325.788 263.359 326.65 262.253 327.15 260.97C327.618 259.849 327.859 258.646 327.859 257.43C327.915 255.897 327.411 254.397 326.443 253.217C325.4 252.171 324.169 251.335 322.818 250.753ZM312.018 230.142C313.134 230.118 314.248 230.238 315.334 230.5C316.02 230.68 316.657 231.017 317.193 231.486C317.61 231.867 317.903 232.367 318.033 232.92C318.201 233.578 318.276 234.257 318.254 234.936C318.264 235.707 318.175 236.475 317.989 237.222C317.837 237.829 317.53 238.385 317.099 238.835C316.57 239.335 315.934 239.703 315.241 239.911C314.19 240.209 313.1 240.345 312.009 240.315C310.886 240.357 309.763 240.205 308.691 239.865C308.006 239.668 307.381 239.297 306.876 238.789C306.446 238.339 306.139 237.783 305.987 237.175C305.801 236.428 305.712 235.66 305.722 234.89C305.714 234.193 305.803 233.499 305.987 232.828C306.142 232.274 306.451 231.777 306.876 231.395C307.413 230.925 308.049 230.588 308.735 230.409C309.819 230.214 310.918 230.124 312.018 230.142Z" fill="black"/>
<path d="M346.276 223.29H344.645C342.258 223.205 339.891 223.761 337.785 224.903C337.037 225.329 336.349 225.857 335.741 226.471C335.595 226.624 335.462 226.788 335.343 226.963L334.192 223.692H329.855V254.7H337.29V237.583C337.281 236.517 337.37 235.452 337.556 234.402C337.696 233.559 338.03 232.761 338.529 232.071C339.03 231.405 339.705 230.893 340.477 230.593C341.599 230.195 342.785 230.013 343.974 230.056C344.211 230.049 344.448 230.064 344.682 230.101C344.991 230.138 345.301 230.154 345.612 230.146H346.276V223.29Z" fill="black"/>
<path d="M373.184 228.267C371.933 226.672 370.304 225.423 368.448 224.637C366.106 223.665 363.587 223.204 361.058 223.287C358.528 223.209 356.01 223.669 353.667 224.637C351.811 225.423 350.182 226.672 348.931 228.267C347.779 229.773 346.964 231.514 346.542 233.37C346.095 235.278 345.873 237.234 345.878 239.195C345.873 241.171 346.095 243.142 346.542 245.066C346.97 246.928 347.802 248.67 348.976 250.168C350.234 251.726 351.843 252.955 353.667 253.753C356.009 254.725 358.528 255.186 361.058 255.103C363.587 255.186 366.106 254.725 368.448 253.753C370.279 252.944 371.899 251.717 373.184 250.168C374.39 248.666 375.238 246.902 375.662 245.015C376.108 243.091 376.331 241.12 376.326 239.144C376.334 237.182 376.111 235.227 375.662 233.319C375.198 231.476 374.354 229.754 373.184 228.267ZM364.996 248.076C363.752 248.608 362.407 248.853 361.058 248.793C359.732 248.842 358.413 248.581 357.204 248.031C356.293 247.586 355.514 246.906 354.946 246.059C354.35 245.156 353.957 244.132 353.796 243.058C353.562 241.802 353.444 240.527 353.442 239.249C353.442 237.971 353.56 236.696 353.796 235.44C353.989 234.375 354.379 233.357 354.946 232.439C355.525 231.602 356.301 230.925 357.204 230.467C358.428 229.918 359.76 229.657 361.099 229.705C362.451 229.662 363.796 229.923 365.037 230.467C365.96 230.91 366.753 231.588 367.339 232.435C367.924 233.343 368.316 234.365 368.489 235.436C368.917 238.003 368.902 240.626 368.445 243.188C368.252 244.253 367.862 245.272 367.295 246.19C366.682 246.989 365.896 247.633 364.996 248.073V248.076Z" fill="black"/>
<path d="M400.181 240.853C400.202 242.011 400.098 243.169 399.871 244.304C399.724 245.167 399.375 245.982 398.853 246.68C398.34 247.334 397.647 247.818 396.861 248.069C395.718 248.443 394.519 248.61 393.319 248.562C392.106 248.597 390.895 248.431 389.734 248.069C388.997 247.815 388.34 247.367 387.831 246.77C387.352 246.111 387.045 245.34 386.941 244.529C386.751 243.389 386.662 242.234 386.676 241.078V223.691H379.379V240.674C379.372 242.627 379.535 244.576 379.865 246.5C380.122 248.156 380.742 249.732 381.68 251.114C382.641 252.461 383.961 253.502 385.486 254.115C387.45 254.862 389.54 255.213 391.637 255.146C393.125 255.175 394.611 255.024 396.063 254.696C397.2 254.453 398.301 254.062 399.339 253.532C400.191 253.115 400.969 252.557 401.641 251.881C401.817 251.702 401.995 251.477 402.171 251.299L403.19 254.704H407.705V223.691H400.225V240.853H400.181Z" fill="black"/>
<path d="M441.343 233.326C440.965 231.487 440.244 229.738 439.219 228.173C438.167 226.663 436.77 225.433 435.147 224.588C433.172 223.645 431 223.199 428.818 223.289C427.243 223.259 425.669 223.41 424.127 223.739C422.945 223.997 421.8 224.403 420.718 224.948C419.87 225.38 419.081 225.922 418.373 226.561C418.17 226.744 417.978 226.939 417.798 227.144L416.779 223.692H412.309V268.501C414.245 268.499 416.102 267.72 417.471 266.334C418.84 264.948 419.61 263.068 419.612 261.108V252.191C419.656 252.236 419.745 252.281 419.788 252.37C420.432 252.949 421.164 253.418 421.957 253.759C422.923 254.194 423.931 254.524 424.966 254.745C426.279 254.992 427.613 255.112 428.949 255.104C431.128 255.161 433.292 254.717 435.278 253.804C436.907 252.99 438.308 251.772 439.349 250.264C440.351 248.724 441.055 247.006 441.424 245.201C441.822 243.24 442.014 241.243 442 239.242C441.963 237.254 441.744 235.273 441.343 233.326ZM434.525 239.285C434.529 240.623 434.41 241.958 434.17 243.273C433.998 244.316 433.606 245.309 433.02 246.185C432.451 246.98 431.689 247.613 430.807 248.022C428.302 248.918 425.568 248.918 423.063 248.022C422.174 247.625 421.408 246.99 420.85 246.185C420.293 245.303 419.931 244.31 419.787 243.273C419.603 241.967 419.517 240.65 419.528 239.332C419.524 237.965 419.642 236.6 419.882 235.255C420.046 234.195 420.439 233.186 421.032 232.297C421.601 231.502 422.363 230.869 423.245 230.46C424.498 229.962 425.839 229.733 427.183 229.788C428.47 229.74 429.752 229.969 430.945 230.46C431.839 230.871 432.604 231.522 433.158 232.342C433.736 233.234 434.114 234.244 434.264 235.3C434.45 236.62 434.538 237.953 434.526 239.287L434.525 239.285Z" fill="black"/>
</svg>
