<svg width="500" height="500" viewBox="0 0 500 500" fill="none" xmlns="http://www.w3.org/2000/svg">
<rect width="500" height="500" fill="#C20E1A"/>
<path d="M68.5947 166.646L68.417 204.035C68.417 204.206 68.4825 204.37 68.5992 204.492C68.7158 204.613 68.8741 204.681 69.039 204.681L100.607 204.866C103.097 204.879 105.564 204.427 107.868 203.537C110.172 202.646 112.268 201.334 114.036 199.675C115.804 198.016 117.21 196.043 118.172 193.869C119.135 191.694 119.636 189.361 119.646 187.002V184.233C119.667 179.472 117.692 174.897 114.155 171.512C110.618 168.128 105.809 166.212 100.785 166.185L69.2168 166C69.0518 166 68.8936 166.068 68.7769 166.189C68.6603 166.31 68.5947 166.475 68.5947 166.646Z" stroke="#E1878D" stroke-width="2"/>
<path d="M157.901 277.953L201.888 167.241C202.169 166.534 201.947 166.18 201.222 166.18H150.17C149.326 166.18 149.022 166.595 149.259 167.426C156.887 194.321 149.163 213.892 126.089 226.14C125.259 226.57 125.074 227.209 125.533 228.055L152.592 278.276C152.862 278.779 153.264 279.193 153.751 279.47C154.238 279.748 154.79 279.877 155.344 279.843C155.898 279.809 156.432 279.614 156.884 279.28C157.336 278.945 157.689 278.485 157.901 277.953Z" stroke="#E1878D" stroke-width="2"/>
<path d="M305.724 277.953V167.334C305.724 166.564 305.353 166.18 304.613 166.18H258.56C257.82 166.18 257.59 166.534 257.871 167.241C272.548 204.168 287.337 241.041 302.236 277.86C302.695 278.983 303.487 279.46 304.613 279.291C304.921 279.242 305.202 279.08 305.406 278.835C305.609 278.589 305.722 278.277 305.724 277.953Z" stroke="#E1878D" stroke-width="2"/>
<path d="M407.737 167.172C407.782 167.063 407.799 166.943 407.788 166.825C407.777 166.707 407.737 166.594 407.673 166.495C407.609 166.397 407.523 166.316 407.422 166.261C407.32 166.206 407.207 166.178 407.093 166.18H361.951C361.837 166.178 361.724 166.206 361.623 166.261C361.521 166.316 361.435 166.397 361.371 166.495C361.307 166.594 361.268 166.707 361.256 166.825C361.245 166.943 361.263 167.063 361.307 167.172L383.878 225.863C383.927 225.999 384.015 226.116 384.131 226.198C384.246 226.281 384.382 226.325 384.522 226.325C384.662 226.325 384.799 226.281 384.914 226.198C385.029 226.116 385.117 225.999 385.166 225.863L407.737 167.172Z" stroke="#E1878D" stroke-width="2"/>
<path d="M213.374 222.893C213.329 223.003 213.312 223.122 213.323 223.24C213.334 223.359 213.374 223.472 213.438 223.57C213.502 223.669 213.588 223.749 213.689 223.804C213.791 223.859 213.904 223.887 214.018 223.886H245.831C245.945 223.887 246.058 223.859 246.159 223.804C246.26 223.749 246.347 223.669 246.411 223.57C246.475 223.472 246.514 223.359 246.525 223.24C246.536 223.122 246.519 223.003 246.475 222.893L230.569 180.935C230.519 180.799 230.431 180.682 230.316 180.6C230.201 180.517 230.064 180.473 229.924 180.473C229.784 180.473 229.648 180.517 229.533 180.6C229.418 180.682 229.329 180.799 229.28 180.935L213.374 222.893Z" stroke="#E1878D" stroke-width="2"/>
<path d="M370.748 278.884C370.844 278.884 370.937 278.86 371.021 278.813C371.105 278.767 371.176 278.699 371.229 278.617C371.282 278.535 371.314 278.44 371.323 278.342C371.333 278.244 371.318 278.145 371.282 278.053L338.536 192.752C338.5 192.683 338.443 192.627 338.374 192.594C338.305 192.56 338.228 192.55 338.153 192.566C338.079 192.581 338.011 192.621 337.96 192.68C337.909 192.738 337.877 192.812 337.869 192.891L337.936 277.5C337.936 278.238 338.291 278.615 339.002 278.63L370.748 278.884Z" stroke="#E1878D" stroke-width="2"/>
<path d="M429.997 278.834C430.327 278.834 430.644 278.698 430.877 278.456C431.11 278.213 431.242 277.885 431.242 277.542V193.256C431.253 193.142 431.223 193.028 431.158 192.935C431.093 192.843 430.997 192.779 430.889 192.756C430.781 192.732 430.668 192.752 430.573 192.81C430.478 192.869 430.408 192.962 430.375 193.072L398.14 277.196C397.785 278.149 398.096 278.626 399.073 278.626L429.997 278.834Z" stroke="#E1878D" stroke-width="2"/>
<path d="M69.2833 230.801C69.083 230.801 68.8908 230.884 68.7492 231.031C68.6075 231.178 68.528 231.377 68.528 231.586L68.5946 277.906C68.5946 278.114 68.6742 278.313 68.8158 278.461C68.9575 278.608 69.1496 278.69 69.3499 278.69H116.98C117.114 278.693 117.246 278.658 117.362 278.59C117.479 278.522 117.576 278.423 117.644 278.304C117.711 278.184 117.747 278.048 117.748 277.909C117.748 277.77 117.713 277.634 117.647 277.513L92.7651 231.193C92.6978 231.072 92.6005 230.972 92.4833 230.903C92.3661 230.834 92.2333 230.799 92.0987 230.801H69.2833Z" stroke="#E1878D" stroke-width="2"/>
<path d="M192.58 277.632C192.536 277.745 192.519 277.867 192.532 277.988C192.544 278.109 192.585 278.224 192.651 278.325C192.717 278.425 192.806 278.507 192.91 278.564C193.014 278.62 193.129 278.649 193.246 278.647L266.646 278.786C266.763 278.787 266.879 278.758 266.983 278.702C267.086 278.646 267.175 278.564 267.241 278.463C267.307 278.363 267.348 278.247 267.361 278.126C267.373 278.005 267.357 277.883 267.313 277.77L257.827 252.614C257.773 252.476 257.681 252.359 257.562 252.276C257.443 252.194 257.303 252.151 257.16 252.152H202.732C202.589 252.151 202.449 252.194 202.33 252.276C202.212 252.359 202.119 252.476 202.066 252.614L192.58 277.632Z" stroke="#E1878D" stroke-width="2"/>
<path d="M71.7493 311.627C70.8903 306.596 70.7718 302.726 71.3939 300.019C71.9566 297.588 71.4383 296.134 69.8388 295.657C69.6314 295.596 69.4134 295.585 69.2018 295.625C68.9902 295.665 68.7906 295.754 68.6186 295.886C68.4466 296.017 68.3069 296.188 68.2102 296.385C68.1136 296.581 68.0627 296.798 68.0615 297.018C67.9727 308.481 67.9801 319.836 68.0837 331.083C68.0837 331.468 68.1504 331.814 68.2837 332.122C68.5206 332.645 68.6984 332.937 68.8168 332.999C69.0623 333.144 69.3396 333.209 69.6218 333.189C69.9041 333.168 70.1817 333.062 70.4276 332.881C70.6736 332.7 70.8796 332.449 71.0255 332.155C71.1715 331.86 71.2524 331.531 71.2606 331.199L71.5494 317.882C71.579 316.866 72.0825 316.343 73.06 316.312L93.0318 315.943C93.6538 315.928 93.9723 316.236 93.9871 316.866C94.0907 322.036 94.4018 327.191 94.9201 332.33C95.0534 333.607 95.6532 333.907 96.7196 333.23C96.9436 333.089 97.1289 332.888 97.2573 332.645C97.3858 332.403 97.4531 332.127 97.4527 331.845V296.764C97.4183 296.406 97.2589 296.073 97.0045 295.827C96.7501 295.582 96.4183 295.443 96.0715 295.434C95.7247 295.425 95.3868 295.549 95.1216 295.781C94.8563 296.014 94.682 296.339 94.6313 296.695L93.9204 311.697C93.909 311.976 93.7939 312.24 93.5993 312.434C93.4047 312.628 93.1457 312.735 92.8763 312.735H73.0156C72.2899 312.735 71.8678 312.366 71.7493 311.627Z" stroke="#E1878D" stroke-width="2"/>
<path d="M194.646 328.339V296.582C194.644 296.384 194.59 296.191 194.49 296.023C194.39 295.854 194.248 295.718 194.079 295.628C193.909 295.537 193.72 295.497 193.53 295.51C193.34 295.524 193.157 295.591 193.002 295.705C192.735 295.905 192.483 296.236 192.246 296.697C192.039 297.082 191.928 297.536 191.913 298.059C191.824 309.137 191.824 320.369 191.913 331.755C191.913 332.539 192.298 332.932 193.068 332.932L215.084 332.908C215.278 332.91 215.468 332.855 215.634 332.75C215.799 332.645 215.933 332.494 216.021 332.314C216.109 332.134 216.146 331.933 216.13 331.732C216.114 331.531 216.044 331.339 215.928 331.178C215.203 330.208 214.218 329.777 212.974 329.885C207.286 330.377 201.599 330.347 195.912 329.793C195.566 329.764 195.243 329.598 195.008 329.328C194.774 329.059 194.644 328.705 194.646 328.339Z" stroke="#E1878D" stroke-width="2"/>
<path d="M306.893 296.793C306.894 296.641 306.865 296.491 306.81 296.351C306.755 296.211 306.673 296.083 306.571 295.976C306.468 295.868 306.346 295.783 306.211 295.724C306.076 295.666 305.932 295.635 305.786 295.635L305.164 295.633C305.018 295.632 304.874 295.662 304.739 295.719C304.604 295.777 304.481 295.861 304.378 295.968C304.274 296.075 304.192 296.202 304.136 296.341C304.079 296.481 304.05 296.631 304.049 296.783L303.932 331.724C303.932 331.876 303.96 332.026 304.015 332.166C304.07 332.307 304.152 332.434 304.255 332.542C304.357 332.649 304.48 332.735 304.614 332.793C304.749 332.852 304.893 332.882 305.039 332.883L305.661 332.885C305.807 332.885 305.951 332.856 306.086 332.798C306.221 332.741 306.344 332.656 306.448 332.55C306.551 332.443 306.633 332.316 306.69 332.176C306.746 332.036 306.775 331.886 306.776 331.735L306.893 296.793Z" stroke="#E1878D" stroke-width="2"/>
<path d="M362.973 325.919L341.157 296.631C340.93 296.313 340.611 296.078 340.246 295.961C339.882 295.843 339.491 295.849 339.13 295.978C338.769 296.106 338.457 296.35 338.238 296.675C338.019 297 337.906 297.389 337.914 297.785L338.003 331.943C338.003 332.466 338.255 332.766 338.758 332.843L339.602 332.958C340.447 333.081 340.876 332.689 340.891 331.781L341.069 303.393C341.073 303.261 341.117 303.131 341.193 303.023C341.269 302.916 341.374 302.835 341.493 302.792C341.613 302.749 341.741 302.746 341.86 302.783C341.978 302.821 342.082 302.897 342.157 303.001L364.417 332.658C364.614 332.931 364.889 333.132 365.203 333.233C365.517 333.333 365.853 333.328 366.164 333.218C366.474 333.108 366.744 332.898 366.933 332.619C367.122 332.34 367.221 332.007 367.216 331.666L367.238 296.585C367.238 296.14 367.072 295.758 366.778 295.521C366.484 295.285 366.086 295.214 365.67 295.324C365.255 295.434 364.857 295.717 364.563 296.109C364.27 296.501 364.106 296.971 364.106 297.416C364.017 306.771 364.002 316.141 364.062 325.526C364.062 326.757 363.699 326.888 362.973 325.919Z" stroke="#E1878D" stroke-width="2"/>
<path d="M415.891 330.091C392.764 332.076 394.053 292.195 420.778 300.019C421.608 300.25 423.066 301.273 425.155 303.088C425.569 303.458 425.962 303.619 426.332 303.573C426.791 303.542 427.154 303.335 427.421 302.95C427.619 302.674 427.714 302.333 427.69 301.989C427.665 301.646 427.522 301.323 427.287 301.08C423.022 296.649 417.986 294.864 412.181 295.726C390.587 298.957 390.832 331.591 413.291 332.999C423.822 333.661 429.946 327.583 431.664 314.766C431.686 314.585 431.671 314.401 431.621 314.227C431.571 314.052 431.487 313.891 431.373 313.754C431.26 313.616 431.12 313.506 430.964 313.43C430.807 313.354 430.637 313.314 430.464 313.312H416.379C416.014 313.312 415.664 313.463 415.406 313.732C415.147 314 415.002 314.364 415.002 314.743C415.002 315.123 415.147 315.487 415.406 315.755C415.664 316.024 416.014 316.174 416.379 316.174L426.732 316.22C427.621 316.22 427.983 316.674 427.82 317.582C426.532 325.352 422.555 329.522 415.891 330.091Z" stroke="#E1878D" stroke-width="2"/>
<path d="M162.789 314.441C162.789 311.959 162.318 309.501 161.404 307.208C160.489 304.914 159.149 302.831 157.46 301.075C155.77 299.32 153.764 297.928 151.557 296.978C149.349 296.028 146.984 295.539 144.594 295.539C142.205 295.539 139.839 296.028 137.631 296.978C135.424 297.928 133.418 299.32 131.729 301.075C130.039 302.831 128.699 304.914 127.785 307.208C126.87 309.501 126.4 311.959 126.4 314.441C126.4 319.454 128.317 324.262 131.729 327.807C135.141 331.351 139.769 333.343 144.594 333.343C149.42 333.343 154.048 331.351 157.46 327.807C160.872 324.262 162.789 319.454 162.789 314.441Z" stroke="#E1878D" stroke-width="2"/>
<path d="M242.787 297.3L243.076 331.78C243.076 332.111 243.202 332.428 243.427 332.662C243.652 332.895 243.957 333.027 244.275 333.027L257.005 332.911C261.841 332.867 266.463 330.911 269.854 327.475C273.245 324.038 275.128 319.402 275.088 314.586V313.94C275.069 311.554 274.578 309.196 273.643 307C272.708 304.804 271.347 302.813 269.639 301.141C267.931 299.47 265.908 298.15 263.687 297.257C261.466 296.364 259.09 295.916 256.694 295.938L243.964 296.054C243.65 296.06 243.351 296.194 243.13 296.427C242.91 296.66 242.787 296.973 242.787 297.3Z" stroke="#E1878D" stroke-width="2"/>
<path d="M159.656 314.468C159.656 312.41 159.266 310.372 158.508 308.471C157.75 306.569 156.639 304.842 155.238 303.387C153.838 301.932 152.175 300.777 150.345 299.99C148.514 299.202 146.553 298.797 144.572 298.797C140.571 298.797 136.735 300.448 133.906 303.387C131.077 306.326 129.488 310.312 129.488 314.468C129.488 318.624 131.077 322.61 133.906 325.549C136.735 328.488 140.571 330.139 144.572 330.139C146.553 330.139 148.514 329.733 150.345 328.946C152.175 328.158 153.838 327.004 155.238 325.549C156.639 324.093 157.75 322.366 158.508 320.465C159.266 318.563 159.656 316.526 159.656 314.468Z" stroke="#E1878D" stroke-width="2"/>
<path d="M245.719 300.853L245.764 328.087C245.764 328.589 245.956 329.07 246.297 329.425C246.639 329.78 247.102 329.979 247.585 329.979L256.716 329.956C260.728 329.95 264.574 328.361 267.407 325.539C270.24 322.717 271.828 318.893 271.823 314.908V313.939C271.82 311.966 271.426 310.013 270.663 308.191C269.9 306.369 268.783 304.714 267.376 303.321C265.969 301.928 264.3 300.824 262.463 300.072C260.626 299.32 258.658 298.934 256.672 298.938L247.541 298.961C247.058 298.961 246.594 299.16 246.253 299.515C245.911 299.87 245.719 300.351 245.719 300.853Z" stroke="#E1878D" stroke-width="2"/>
<path d="M68.1804 166.648C68.1804 166.476 68.2469 166.312 68.3653 166.19C68.4837 166.068 68.6443 166 68.8118 166L100.855 166.185C105.955 166.212 110.836 168.135 114.426 171.531C118.016 174.927 120.021 179.519 120 184.296V187.075C119.989 189.442 119.481 191.783 118.504 193.965C117.527 196.147 116.1 198.127 114.306 199.791C112.511 201.456 110.384 202.773 108.045 203.666C105.706 204.56 103.201 205.013 100.675 205L68.6314 204.814C68.4639 204.814 68.3033 204.746 68.1849 204.625C68.0665 204.503 68 204.338 68 204.166L68.1804 166.648Z" fill="white"/>
<path d="M201.882 167.055L157.733 277.116C157.52 277.645 157.166 278.102 156.712 278.435C156.259 278.767 155.723 278.961 155.167 278.995C154.61 279.028 154.056 278.9 153.568 278.624C153.079 278.349 152.676 277.937 152.404 277.437L125.246 227.512C124.785 226.67 124.971 226.036 125.804 225.607C148.963 213.432 156.715 193.976 149.06 167.239C148.822 166.413 149.127 166 149.974 166H201.213C201.941 166 202.164 166.352 201.882 167.055Z" fill="white"/>
<path d="M306 277.63C305.998 277.953 305.886 278.266 305.682 278.511C305.478 278.756 305.197 278.917 304.888 278.967C303.762 279.136 302.969 278.659 302.51 277.538C287.601 240.766 272.803 203.94 258.116 167.06C257.835 166.353 258.064 166 258.805 166H304.888C305.629 166 306 166.384 306 167.152V277.63Z" fill="white"/>
<path d="M407.946 166.99L385.151 225.538C385.101 225.674 385.012 225.791 384.895 225.873C384.779 225.956 384.641 226 384.5 226C384.359 226 384.221 225.956 384.105 225.873C383.988 225.791 383.899 225.674 383.849 225.538L361.054 166.99C361.01 166.881 360.992 166.762 361.003 166.644C361.015 166.526 361.054 166.413 361.119 166.315C361.183 166.216 361.271 166.136 361.373 166.081C361.475 166.026 361.589 165.998 361.705 166H407.295C407.411 165.998 407.525 166.026 407.627 166.081C407.729 166.136 407.817 166.216 407.881 166.315C407.946 166.413 407.985 166.526 407.997 166.644C408.008 166.762 407.99 166.881 407.946 166.99Z" fill="white"/>
<path d="M214.053 223.017L229.86 181.458C229.909 181.324 229.996 181.208 230.111 181.126C230.225 181.044 230.361 181 230.5 181C230.639 181 230.775 181.044 230.889 181.126C231.003 181.208 231.091 181.324 231.14 181.458L246.947 223.017C246.991 223.125 247.008 223.244 246.997 223.361C246.986 223.478 246.947 223.59 246.883 223.688C246.819 223.785 246.734 223.865 246.633 223.919C246.532 223.974 246.42 224.002 246.306 224H214.694C214.58 224.002 214.468 223.974 214.367 223.919C214.266 223.865 214.181 223.785 214.117 223.688C214.053 223.59 214.014 223.478 214.003 223.361C213.992 223.244 214.009 223.125 214.053 223.017Z" fill="white"/>
<path d="M371.413 278L339.151 277.75C338.429 277.735 338.068 277.364 338.068 276.637L338 193.327C338.008 193.25 338.04 193.177 338.092 193.119C338.144 193.062 338.213 193.022 338.289 193.007C338.364 192.992 338.443 193.001 338.513 193.035C338.583 193.068 338.641 193.122 338.677 193.191L371.955 277.182C371.992 277.272 372.007 277.369 371.997 277.466C371.988 277.563 371.955 277.656 371.901 277.737C371.848 277.818 371.775 277.884 371.69 277.93C371.605 277.976 371.51 278 371.413 278Z" fill="white"/>
<path d="M429.763 278L399.067 277.795C398.097 277.795 397.788 277.324 398.141 276.382L430.138 193.321C430.17 193.213 430.24 193.121 430.334 193.064C430.429 193.006 430.54 192.987 430.648 193.009C430.755 193.032 430.85 193.095 430.915 193.187C430.98 193.278 431.009 193.391 430.998 193.504V276.724C430.998 277.062 430.867 277.387 430.636 277.626C430.404 277.866 430.09 278 429.763 278Z" fill="white"/>
<path d="M68.752 231H91.4654C91.5995 230.998 91.7317 231.032 91.8484 231.1C91.965 231.168 92.0619 231.266 92.1289 231.385L116.899 276.845C116.966 276.963 117.001 277.097 117 277.233C116.999 277.369 116.964 277.503 116.896 277.62C116.829 277.738 116.732 277.835 116.616 277.901C116.5 277.968 116.369 278.002 116.236 278H68.8183C68.6189 278 68.4276 277.919 68.2866 277.774C68.1456 277.63 68.0664 277.434 68.0664 277.23L68 231.77C68 231.566 68.0792 231.37 68.2202 231.226C68.3613 231.081 68.5525 231 68.752 231Z" fill="white"/>
<path d="M193.052 276.917L202.559 253.433C202.612 253.304 202.705 253.194 202.824 253.116C202.943 253.039 203.083 252.999 203.227 253H257.773C257.917 252.999 258.057 253.039 258.176 253.116C258.295 253.194 258.388 253.304 258.441 253.433L267.948 277.047C267.992 277.153 268.008 277.267 267.996 277.381C267.983 277.494 267.942 277.603 267.876 277.697C267.81 277.792 267.721 277.869 267.617 277.921C267.513 277.974 267.397 278.001 267.28 278L193.72 277.87C193.603 277.871 193.487 277.844 193.383 277.791C193.279 277.739 193.19 277.662 193.124 277.567C193.058 277.473 193.017 277.364 193.004 277.251C192.992 277.137 193.008 277.023 193.052 276.917Z" fill="white"/>
<path d="M73.1088 312.688H93.3386C93.613 312.688 93.8768 312.578 94.075 312.38C94.2732 312.182 94.3904 311.912 94.4021 311.626L95.1262 296.29C95.1778 295.925 95.3554 295.593 95.6255 295.355C95.8957 295.118 96.2398 294.992 96.5931 295C96.9464 295.009 97.2844 295.152 97.5435 295.403C97.8026 295.653 97.965 295.994 98 296.36V332.225C98.0004 332.513 97.9319 332.795 97.801 333.043C97.6702 333.291 97.4814 333.497 97.2533 333.64C96.1671 334.332 95.5561 334.026 95.4204 332.72C94.8924 327.466 94.5756 322.197 94.47 316.912C94.4549 316.267 94.1305 315.952 93.497 315.968L73.154 316.345C72.1584 316.377 71.6455 316.912 71.6153 317.95L71.3211 331.564C71.3129 331.903 71.2304 332.24 71.0817 332.541C70.9331 332.843 70.7233 333.098 70.4728 333.284C70.2222 333.469 69.9395 333.577 69.652 333.599C69.3645 333.62 69.082 333.553 68.832 333.404C68.7113 333.341 68.5303 333.043 68.2889 332.508C68.1532 332.193 68.0853 331.839 68.0853 331.446C67.9797 319.947 67.9721 308.339 68.0627 296.62C68.0639 296.395 68.1157 296.173 68.2141 295.972C68.3126 295.771 68.4549 295.597 68.6301 295.462C68.8053 295.327 69.0086 295.236 69.2241 295.196C69.4397 295.155 69.6617 295.166 69.8729 295.228C71.5022 295.716 72.0302 297.202 71.4569 299.687C70.8233 302.456 70.944 306.412 71.819 311.556C71.9397 312.311 72.3696 312.688 73.1088 312.688Z" fill="white"/>
<path d="M196.017 329.813C201.637 330.375 207.257 330.407 212.877 329.907C214.107 329.797 215.08 330.235 215.797 331.219C215.911 331.383 215.98 331.578 215.996 331.782C216.013 331.986 215.975 332.191 215.889 332.373C215.802 332.555 215.67 332.709 215.506 332.815C215.342 332.922 215.154 332.978 214.963 332.977L193.207 333C192.446 333 192.066 332.602 192.066 331.805C191.978 320.244 191.978 308.839 192.066 297.59C192.08 297.059 192.19 296.598 192.395 296.208C192.629 295.739 192.878 295.403 193.142 295.2C193.295 295.085 193.476 295.016 193.663 295.003C193.851 294.989 194.038 295.03 194.206 295.122C194.373 295.213 194.513 295.352 194.612 295.523C194.711 295.693 194.764 295.89 194.766 296.09V328.336C194.764 328.709 194.893 329.067 195.125 329.341C195.357 329.615 195.675 329.783 196.017 329.813Z" fill="white"/>
<path d="M305.786 295.631L305.164 295.629C304.551 295.627 304.052 296.142 304.049 296.779L303.932 331.721C303.93 332.358 304.425 332.877 305.039 332.879L305.661 332.881C306.274 332.883 306.773 332.368 306.776 331.731L306.893 296.789C306.895 296.152 306.4 295.634 305.786 295.631Z" fill="white"/>
<path d="M363.858 325.228C363.8 315.85 363.814 306.488 363.902 297.141C363.902 296.697 364.064 296.227 364.355 295.835C364.645 295.443 365.038 295.161 365.449 295.051C365.86 294.941 366.254 295.011 366.545 295.248C366.836 295.484 366.999 295.866 367 296.311L366.978 331.362C366.983 331.703 366.885 332.037 366.698 332.315C366.511 332.594 366.244 332.803 365.937 332.913C365.63 333.024 365.297 333.029 364.987 332.928C364.677 332.828 364.405 332.627 364.21 332.354L342.197 302.721C342.123 302.617 342.02 302.541 341.902 302.504C341.785 302.466 341.658 302.469 341.54 302.512C341.422 302.555 341.318 302.636 341.243 302.744C341.167 302.851 341.125 302.981 341.12 303.113L340.944 331.478C340.93 332.385 340.505 332.777 339.67 332.654L338.835 332.539C338.337 332.462 338.088 332.162 338.088 331.639L338 297.51C337.993 297.114 338.105 296.725 338.321 296.401C338.537 296.076 338.846 295.832 339.203 295.704C339.56 295.575 339.947 295.569 340.307 295.687C340.667 295.804 340.983 296.039 341.208 296.357L362.782 325.62C363.5 326.589 363.858 326.458 363.858 325.228Z" fill="white"/>
<path d="M415.977 330.006C422.743 329.43 426.78 325.208 428.088 317.342C428.254 316.422 427.885 315.963 426.983 315.963L416.474 315.916C416.103 315.916 415.747 315.764 415.485 315.492C415.223 315.22 415.075 314.852 415.075 314.467C415.075 314.083 415.223 313.715 415.485 313.443C415.747 313.171 416.103 313.019 416.474 313.019H430.772C430.947 313.02 431.12 313.061 431.279 313.138C431.438 313.215 431.58 313.326 431.695 313.465C431.81 313.605 431.896 313.768 431.947 313.945C431.997 314.121 432.012 314.307 431.99 314.491C430.246 327.467 424.029 333.621 413.339 332.951C390.538 331.525 390.29 298.484 412.211 295.213C418.105 294.341 423.217 296.148 427.547 300.634C427.786 300.88 427.931 301.207 427.955 301.554C427.98 301.902 427.883 302.247 427.682 302.527C427.412 302.916 427.043 303.127 426.577 303.158C426.201 303.205 425.803 303.041 425.382 302.667C423.262 300.829 421.781 299.793 420.939 299.559C393.808 291.638 392.5 332.016 415.977 330.006Z" fill="white"/>
<path d="M162 314C162 319.039 160.104 323.872 156.728 327.435C153.352 330.998 148.774 333 144 333C139.226 333 134.648 330.998 131.272 327.435C127.896 323.872 126 319.039 126 314C126 311.505 126.466 309.034 127.37 306.729C128.275 304.424 129.601 302.329 131.272 300.565C132.944 298.801 134.928 297.401 137.112 296.446C139.296 295.491 141.636 295 144 295C146.364 295 148.704 295.491 150.888 296.446C153.072 297.401 155.056 298.801 156.728 300.565C158.399 302.329 159.725 304.424 160.63 306.729C161.534 309.034 162 311.505 162 314ZM158.901 314.023C158.901 311.955 158.515 309.906 157.765 307.995C157.015 306.084 155.916 304.347 154.53 302.885C153.144 301.422 151.499 300.262 149.689 299.47C147.878 298.679 145.938 298.271 143.978 298.271C140.02 298.271 136.224 299.931 133.426 302.885C130.627 305.839 129.055 309.845 129.055 314.023C129.055 318.201 130.627 322.208 133.426 325.162C136.224 328.116 140.02 329.775 143.978 329.775C145.938 329.775 147.878 329.368 149.689 328.576C151.499 327.785 153.144 326.624 154.53 325.162C155.916 323.699 157.015 321.962 157.765 320.051C158.515 318.14 158.901 316.092 158.901 314.023Z" fill="white"/>
<path d="M242 296.396C242 296.061 242.126 295.74 242.351 295.501C242.576 295.262 242.882 295.125 243.203 295.119L256.207 295.001C258.655 294.978 261.083 295.437 263.352 296.352C265.621 297.267 267.687 298.619 269.432 300.332C271.177 302.044 272.567 304.084 273.522 306.334C274.478 308.584 274.98 311 274.999 313.445V314.107C275.04 319.041 273.116 323.791 269.652 327.312C266.188 330.833 261.466 332.836 256.525 332.882L243.521 333C243.196 333 242.884 332.865 242.654 332.626C242.424 332.387 242.295 332.062 242.295 331.723L242 296.396ZM244.996 300.037L245.041 327.94C245.041 328.454 245.237 328.947 245.586 329.311C245.935 329.674 246.409 329.879 246.902 329.879L256.23 329.855C260.329 329.848 264.258 328.22 267.152 325.329C270.046 322.438 271.669 318.52 271.663 314.438V313.445C271.66 311.423 271.258 309.422 270.478 307.555C269.699 305.689 268.558 303.994 267.121 302.566C265.683 301.139 263.978 300.008 262.101 299.237C260.225 298.466 258.215 298.071 256.185 298.075L246.857 298.098C246.363 298.098 245.89 298.303 245.541 298.666C245.192 299.03 244.996 299.523 244.996 300.037Z" fill="white"/>
</svg>
