<svg width="500" height="500" viewBox="0 0 500 500" fill="none" xmlns="http://www.w3.org/2000/svg">
<rect width="500" height="500" fill="#F0F0F0"/>
<path d="M179.019 97.0488C179.654 97.0476 180.29 97.0461 180.925 97.0443C182.649 97.0404 184.372 97.0412 186.095 97.0428C187.963 97.0438 189.83 97.0403 191.698 97.0375C195.349 97.0326 198.999 97.0319 202.65 97.0328C205.621 97.0335 208.593 97.0328 211.564 97.0312C211.989 97.0309 212.413 97.0307 212.85 97.0305C213.713 97.03 214.576 97.0296 215.438 97.0291C223.513 97.0249 231.588 97.0257 239.663 97.0281C247.027 97.0301 254.392 97.0258 261.756 97.0185C269.34 97.011 276.925 97.0079 284.509 97.0093C288.758 97.0101 293.007 97.0091 297.256 97.0037C300.874 96.9991 304.493 96.9986 308.111 97.0032C309.953 97.0055 311.794 97.006 313.635 97.0013C339.172 96.9414 363.413 102.068 382.293 119.168C382.745 119.577 383.201 119.984 383.658 120.389C387.702 123.972 391.174 127.772 394.409 132.009C394.592 132.246 394.775 132.483 394.964 132.727C403.824 144.274 408.591 157.826 410.388 171.85C410.424 172.112 410.46 172.374 410.497 172.644C410.874 175.671 410.859 178.696 410.858 181.739C410.86 182.351 410.861 182.962 410.863 183.574C410.867 185.247 410.868 186.921 410.869 188.594C410.871 190.402 410.875 192.21 410.879 194.018C410.887 198.382 410.891 202.746 410.894 207.109C410.896 209.169 410.898 211.229 410.901 213.289C410.908 220.146 410.913 227.003 410.916 233.86C410.917 235.637 410.918 237.415 410.919 239.192C410.919 239.634 410.919 240.076 410.919 240.531C410.923 247.672 410.933 254.814 410.946 261.955C410.96 269.304 410.967 276.652 410.969 284.001C410.97 288.12 410.973 292.239 410.984 296.358C410.993 299.87 410.996 303.381 410.992 306.892C410.99 308.679 410.991 310.465 410.999 312.252C411.098 335.627 405.257 357.948 387.884 375.552C387.116 376.335 386.383 377.137 385.651 377.951C371.432 393.089 349.488 401.174 328.445 402.851C326.203 402.969 323.96 402.957 321.716 402.951C321.07 402.952 320.423 402.954 319.777 402.956C318.023 402.96 316.268 402.959 314.514 402.957C312.613 402.956 310.712 402.96 308.812 402.963C305.096 402.967 301.38 402.968 297.665 402.967C294.641 402.967 291.617 402.967 288.594 402.969C287.946 402.969 287.946 402.969 287.286 402.97C286.408 402.97 285.531 402.97 284.654 402.971C276.44 402.975 268.226 402.974 260.013 402.972C252.518 402.97 245.023 402.974 237.528 402.982C229.813 402.989 222.097 402.992 214.382 402.991C210.058 402.99 205.734 402.991 201.411 402.996C197.729 403.001 194.047 403.001 190.365 402.997C188.491 402.995 186.617 402.994 184.743 402.999C159.122 403.058 135.928 397.216 117.03 380.249C116.799 380.044 116.568 379.838 116.33 379.627C112.81 376.479 109.664 373.198 106.787 369.523C106.473 369.122 106.158 368.721 105.833 368.308C92.5774 350.886 88.9594 331.508 89.0088 310.539C89.0116 308.762 89.0073 306.984 89.0039 305.207C88.9985 301.738 88.9996 298.27 89.0032 294.801C89.006 291.978 89.0063 289.155 89.005 286.332C89.0048 285.928 89.0046 285.525 89.0044 285.108C89.004 284.287 89.0036 283.466 89.0032 282.645C88.9998 274.971 89.0038 267.297 89.0104 259.623C89.0159 253.06 89.0149 246.497 89.0092 239.935C89.0026 232.287 89.0001 224.639 89.0039 216.99C89.0042 216.172 89.0046 215.354 89.005 214.536C89.0052 214.134 89.0054 213.732 89.0056 213.317C89.0066 210.503 89.0049 207.689 89.002 204.875C88.9985 201.437 88.9995 198 89.006 194.563C89.0092 192.814 89.0106 191.066 89.0064 189.317C88.9861 179.934 89.0731 170.503 91.5254 161.339C91.6306 160.933 91.7358 160.526 91.8442 160.106C95.6731 145.758 103.224 132.842 114.323 122.294C114.936 121.709 115.54 121.118 116.142 120.523C118.737 118.008 121.518 115.835 124.502 113.745C125.189 113.263 125.869 112.774 126.548 112.284C136.498 105.243 148.525 100.807 160.716 98.5852C161.033 98.5273 161.35 98.4694 161.677 98.4097C167.431 97.4329 173.179 97.0333 179.019 97.0488Z" fill="#442665"/>
<path d="M241.842 156.046C242.279 156.051 242.279 156.051 242.724 156.056C260.726 156.285 278.266 161.726 291.076 173.794C299.344 181.814 303.889 192.547 305.821 203.424C305.901 203.87 305.982 204.316 306.064 204.775C306.244 206.226 306.228 207.695 306.228 209.156C295.201 209.156 284.174 209.156 272.813 209.156C272.409 208.021 272.006 206.886 271.59 205.717C269.038 198.843 265.205 193.171 258.049 189.774C246.847 184.945 232.967 184.788 221.442 188.666C215.449 191.005 210.842 194.324 208.295 200.053C206.489 205.012 206.917 209.101 209.253 213.823C211.216 217.131 214.486 219.33 217.943 221.138C218.227 221.286 218.511 221.435 218.804 221.589C221.782 223.118 224.863 224.335 228.013 225.514C228.544 225.717 229.074 225.92 229.605 226.123C233.449 227.59 237.32 228.988 241.191 230.39C247.359 232.623 253.518 234.879 259.663 237.168C261.201 237.741 262.739 238.312 264.28 238.878C282.301 245.51 300.822 253.973 309.143 271.448C314.635 283.4 313.952 297.516 309.051 309.52C303.748 321.996 292.85 330.671 279.997 336.042C262.374 343.061 240.639 344.644 221.875 341.357C221.491 341.294 221.108 341.23 220.713 341.165C206.734 338.8 193.768 333.125 183.569 323.781C183.223 323.48 182.877 323.179 182.52 322.869C171.34 312.914 166.432 298.239 166 284.058C166.046 282.898 166.046 282.898 166.454 282.516C167.481 282.478 168.496 282.464 169.523 282.467C169.845 282.466 170.166 282.465 170.497 282.465C171.565 282.463 172.632 282.464 173.7 282.465C174.438 282.465 175.177 282.465 175.915 282.464C177.465 282.464 179.015 282.464 180.565 282.466C182.556 282.468 184.547 282.467 186.538 282.465C188.064 282.463 189.589 282.464 191.115 282.465C191.849 282.465 192.584 282.465 193.318 282.464C194.343 282.463 195.367 282.464 196.392 282.467C196.698 282.466 197.005 282.465 197.321 282.464C199.415 282.472 199.415 282.472 199.869 282.898C199.941 283.666 200.011 284.434 200.07 285.203C200.651 292.288 203.319 298.397 208.895 303.373C218.813 311.245 232.428 313.146 245.034 312.235C255.134 311.273 264.82 308.604 271.562 301.131C274.756 297.018 275.348 292.416 274.85 287.483C273.997 282.471 271.347 278.15 267.006 275.113C261.334 271.605 255.221 269.207 248.899 266.936C244.89 265.495 240.923 263.962 236.952 262.433C236.385 262.214 236.385 262.214 235.807 261.992C235.427 261.845 235.046 261.698 234.654 261.547C233.877 261.248 233.099 260.949 232.322 260.649C231.933 260.499 231.544 260.35 231.144 260.195C228.366 259.126 225.584 258.069 222.799 257.016C181.943 241.549 181.943 241.549 173.381 224.821C172.401 222.581 171.63 220.274 170.936 217.944C170.861 217.692 170.785 217.441 170.707 217.182C170.162 215.269 169.872 213.369 169.663 211.4C169.612 210.923 169.612 210.923 169.56 210.436C168.399 198.887 170.915 186.668 178.888 177.498C180.251 176.02 181.696 174.627 183.161 173.24C183.402 172.991 183.643 172.742 183.89 172.486C197.937 158.201 222.419 155.602 241.842 156.046Z" fill="#FEFEFE"/>
<path d="M353.068 300.049C358.243 303.94 362.014 309.035 362.878 315.39C363.461 322.515 362.012 328.779 357.214 334.44C353.071 338.731 347.337 341.607 341.213 341.98C334.965 342.193 329.191 340.751 324.406 336.72C323.774 336.137 323.149 335.546 322.533 334.947C322.274 334.702 322.015 334.457 321.748 334.205C317.339 329.75 315.947 324.19 316.002 318.233C316.18 311.898 318.709 306.511 323.332 301.968C331.775 294.931 343.75 293.895 353.068 300.049Z" fill="#FE7A25"/>
</svg>
