<svg width="500" height="500" viewBox="0 0 500 500" fill="none" xmlns="http://www.w3.org/2000/svg">
<rect width="500" height="500" fill="#E5E5E5"/>
<path d="M100.465 340.865L104.146 333.611L103.516 333.269L102.4 333.791C102.22 333.791 101.689 333.62 100.816 333.269C98.2688 332.198 96.1628 331.451 94.4528 331.064C92.7518 330.668 90.9158 330.461 88.9448 330.461C84.2558 330.461 80.7188 331.577 78.4058 333.827C76.5968 335.537 75.6968 337.679 75.6968 340.262C75.6968 341.855 76.0568 343.25 76.7588 344.474C77.5328 345.824 78.6128 346.832 79.9808 347.525C80.9348 348.002 81.9068 348.353 82.8698 348.569C83.8238 348.785 85.4798 349.019 87.8018 349.253L91.2758 349.622C93.6068 349.865 95.1548 350.153 95.9288 350.441C97.0268 350.882 97.5668 351.62 97.5668 352.628C97.5668 353.294 97.3328 353.951 96.8828 354.572C96.4238 355.193 95.7848 355.706 95.0198 356.084C93.5888 356.759 91.8878 357.092 89.8898 357.092C88.0628 357.092 86.1098 356.768 84.0668 356.138C82.0328 355.517 80.5208 354.761 79.5488 353.888C78.9008 353.312 78.5678 352.682 78.5678 352.007V351.719L77.9108 351.395L74.5718 358.946L75.2288 359.288L76.1468 358.793C76.3178 358.793 76.8128 359 77.6678 359.387C81.6368 361.331 85.6418 362.312 89.7278 362.312C91.9958 362.312 94.1198 362.024 96.0908 361.475C98.7638 360.746 100.726 359.612 101.995 358.082C103.39 356.39 104.092 354.482 104.092 352.313C104.092 350.945 103.795 349.658 103.201 348.452C102.607 347.255 101.788 346.283 100.78 345.554C99.7628 344.834 98.6108 344.294 97.3148 343.898C96.0098 343.52 94.3088 343.205 92.1938 342.98L88.6568 342.602C86.2808 342.377 84.7328 342.152 84.0128 341.927C82.6088 341.513 81.9158 340.73 81.9158 339.569C81.9158 338.858 82.1768 338.21 82.7438 337.598C83.3018 336.995 84.0128 336.554 84.9038 336.257C86.1188 335.87 87.5228 335.672 89.1248 335.672C92.7248 335.672 95.8748 336.599 98.5388 338.462C99.4208 339.056 99.8528 339.605 99.8528 340.109L99.8348 340.478L100.465 340.865Z" fill="#591B3A"/>
<path d="M142.396 330.686L141.334 331.01H115.495L114.487 330.686C114.253 330.47 114.055 330.101 113.893 329.543H113.164V337.508H113.893L114.469 336.374L115.495 336.059H125.08V359.405L124.756 360.467L123.64 361.052V361.763H133.243V361.052L132.118 360.467L131.812 359.405V336.059H141.343L142.405 336.374L142.99 337.508H143.719V329.543H142.99C142.837 330.101 142.621 330.47 142.396 330.686Z" fill="#591B3A"/>
<path d="M181.465 358.27L169.738 334.528C169.45 333.979 169.306 333.475 169.306 333.052C169.306 332.413 169.747 331.972 170.647 331.711V331H159.712V331.702C160.594 332.008 161.035 332.512 161.035 333.196C161.035 333.646 160.855 334.258 160.495 335.005L149.164 358.666C148.759 359.539 148.399 360.115 148.084 360.43C147.778 360.718 147.319 360.943 146.716 361.06V361.771H156.895V361.06C155.887 360.808 155.383 360.349 155.383 359.683C155.383 359.341 155.518 358.864 155.815 358.27L157.876 353.932H171.88L173.995 358.27C174.292 358.873 174.445 359.35 174.445 359.665C174.445 360.43 173.941 360.898 172.951 361.06V361.771H184.273V361.06C183.643 360.943 183.139 360.7 182.761 360.331C182.41 359.962 181.969 359.278 181.465 358.27ZM159.883 349.72L164.941 338.749L169.945 349.72H159.883Z" fill="#591B3A"/>
<path d="M223.522 360.493L222.415 361.06V361.771H232.018V361.06L230.893 360.475L230.569 359.413V333.331L230.893 332.305L232.018 331.702V331H220.39V331.702C221.137 331.783 221.506 332.134 221.506 332.755C221.506 333.07 221.308 333.574 220.939 334.258L212.434 349.9L204.037 333.988L203.731 332.962C203.731 332.305 204.073 331.9 204.775 331.711V331H192.913V331.702L194.047 332.305L194.353 333.331V359.413L194.047 360.475L192.913 361.06V361.771H201.958V361.06L200.833 360.475L200.527 359.413V340.504L211.876 361.771L223.864 340.504V359.413L223.522 360.493Z" fill="#591B3A"/>
<path d="M271.564 333.01C270.574 332.281 269.404 331.75 268.099 331.444C266.776 331.138 264.994 331.012 262.762 331.012H243.538V331.714C244.087 331.867 244.465 332.065 244.663 332.317L244.987 333.37V359.443L244.663 360.478C244.465 360.73 244.078 360.91 243.538 361.072V361.783H253.141V361.072L252.025 360.505L251.701 359.443V349.309H262.753C265.588 349.309 267.802 349.021 269.386 348.463C270.97 347.887 272.257 346.933 273.211 345.61C274.336 344.035 274.885 342.226 274.885 340.138C274.885 338.698 274.588 337.33 274.012 336.034C273.418 334.783 272.626 333.766 271.564 333.01ZM267.559 342.19C267.235 342.811 266.812 343.27 266.281 343.558C265.453 343.99 264.013 344.206 261.988 344.206H251.71V336.061H261.979C264.022 336.061 265.462 336.286 266.272 336.718C266.803 337.006 267.226 337.465 267.55 338.077C267.874 338.716 268.036 339.409 268.036 340.129C268.036 340.885 267.874 341.569 267.559 342.19Z" fill="#591B3A"/>
<path d="M313.891 356.381L312.847 356.705H293.065V348.272H305.557L306.592 348.596L307.186 349.721H307.897V341.936H307.186C307.033 342.485 306.826 342.863 306.592 343.07L305.557 343.385H293.065V336.068H312.316L313.36 336.392L313.945 337.508H314.665V329.543H313.945L313.36 330.677L312.316 331.001H284.893V331.703C285.442 331.856 285.811 332.054 286.018 332.306L286.342 333.359V359.414L286.018 360.467C285.811 360.719 285.433 360.899 284.893 361.061V361.772H312.847L313.891 362.096C314.143 362.312 314.332 362.681 314.485 363.23H315.196V355.256H314.485C314.332 355.805 314.143 356.183 313.891 356.381Z" fill="#591B3A"/>
<path d="M355.543 357.478L349.549 348.964C355.129 348.1 357.928 345.175 357.928 340.144C357.928 338.677 357.649 337.282 357.091 336.004C356.506 334.654 355.633 333.61 354.436 332.809C353.41 332.134 352.204 331.666 350.836 331.396C349.468 331.135 347.605 331 345.256 331H325.987V331.702L327.121 332.305L327.436 333.358V359.431L327.121 360.475L325.987 361.06V361.771H335.59V361.06L334.474 360.493L334.15 359.431V349.216H342.376L348.595 358.279C349.315 359.314 349.675 359.971 349.675 360.241C349.675 360.673 349.288 360.943 348.523 361.06V361.771H359.638V361.06C358.927 361.006 358.333 360.772 357.847 360.358C357.361 359.917 356.578 358.954 355.543 357.478ZM347.785 344.014C347.155 344.095 346.075 344.158 344.536 344.158H334.159V336.067H344.536C346.102 336.067 347.2 336.094 347.785 336.202C348.406 336.283 348.973 336.472 349.513 336.769C350.656 337.39 351.241 338.497 351.241 340.108C351.241 341.728 350.656 342.835 349.513 343.447C348.991 343.726 348.415 343.915 347.785 344.014Z" fill="#591B3A"/>
<path d="M369.34 331.711L370.474 332.314L370.789 333.34V359.422L370.474 360.484L369.34 361.069V361.78H378.952V361.069L377.845 360.502L377.512 359.422V333.34L377.827 332.296C378.052 332.044 378.412 331.855 378.952 331.711V331H369.34V331.711Z" fill="#591B3A"/>
<path d="M423.943 360.331C423.565 359.962 423.115 359.278 422.629 358.27L410.893 334.528C410.614 333.979 410.47 333.475 410.47 333.052C410.47 332.413 410.902 331.972 411.802 331.711V331H400.885V331.702C401.749 332.008 402.19 332.512 402.19 333.196C402.19 333.646 402.01 334.258 401.641 335.005L390.328 358.666C389.914 359.539 389.545 360.115 389.239 360.43C388.915 360.718 388.456 360.943 387.871 361.06V361.771H398.032V361.06C397.033 360.808 396.538 360.349 396.538 359.683C396.538 359.341 396.682 358.864 396.961 358.27L399.04 353.932H413.044L415.168 358.27C415.456 358.873 415.6 359.35 415.6 359.665C415.6 360.43 415.105 360.898 414.097 361.06V361.771H425.428V361.06C424.807 360.943 424.312 360.7 423.943 360.331ZM401.038 349.72L406.114 338.749L411.1 349.72H401.038Z" fill="#591B3A"/>
<path d="M269.197 176.193L250.567 158.688L158.434 209.619L157.993 210.546L239.002 244.278L269.197 176.193Z" fill="#591B3A"/>
<path d="M221.965 289.594L326.203 229.69L281.104 187.363L221.965 289.594Z" fill="#591B3A"/>
<path d="M308.896 103.473L194.371 132.318L169.522 183.537L253.51 152.757L308.896 103.473Z" fill="#591B3A"/>
<path d="M209.266 382.895H204.433V396.53H206.152V391.004H209.437C210.715 391.004 211.732 390.626 212.515 389.843C213.298 389.078 213.694 388.106 213.694 386.945C213.694 385.883 213.334 384.956 212.632 384.119C211.894 383.3 210.778 382.895 209.266 382.895ZM211.228 388.871C210.733 389.348 210.085 389.573 209.275 389.573H206.152V384.335H209.41C210.229 384.335 210.868 384.596 211.309 385.136C211.75 385.667 211.966 386.279 211.966 386.954C211.966 387.737 211.714 388.376 211.228 388.871Z" fill="#591B3A"/>
<path d="M235.087 388.792C235.483 388.135 235.69 387.442 235.69 386.713C235.69 385.768 235.33 384.904 234.628 384.094C233.935 383.302 232.846 382.906 231.379 382.906H226.006V396.541H227.608V390.646H231.523L234.034 396.541H235.825L233.152 390.232C234.052 389.944 234.7 389.458 235.087 388.792ZM231.181 389.251H227.617V384.4H231.388C232.135 384.4 232.747 384.598 233.233 384.994C233.737 385.39 233.971 385.966 233.971 386.677C233.971 387.388 233.746 388 233.287 388.495C232.819 389.008 232.117 389.251 231.181 389.251Z" fill="#591B3A"/>
<path d="M250.414 382.895H248.704V396.53H250.414V382.895Z" fill="#591B3A"/>
<path d="M272.644 392.066L272.671 393.065L272.698 394.01L266.092 382.895H263.959V396.53H265.336V386.414L265.309 385.541L265.273 384.65L272.338 396.53H273.994V382.895H272.644V392.066Z" fill="#591B3A"/>
<path d="M286.054 384.398H289.951V396.53H291.661V384.398H295.576V382.895H286.054V384.398Z" fill="#591B3A"/>
</svg>
