<svg width="500" height="500" viewBox="0 0 500 500" fill="none" xmlns="http://www.w3.org/2000/svg">
<rect width="500" height="500" fill="#F0F0F0"/>
<path d="M279.372 201.509C279.372 206.417 277.917 211.215 275.19 215.296C272.463 219.377 268.588 222.557 264.053 224.436C259.519 226.314 254.529 226.805 249.715 225.848C244.902 224.89 240.48 222.527 237.01 219.056C233.539 215.586 231.176 211.164 230.218 206.35C229.261 201.537 229.752 196.547 231.63 192.013C233.508 187.478 236.689 183.603 240.77 180.876C244.851 178.149 249.649 176.694 254.557 176.694C261.138 176.694 267.45 179.308 272.104 183.962C276.758 188.616 279.372 194.928 279.372 201.509V201.509Z" fill="#D0B669"/>
<path d="M146.97 327.539C146.97 327.539 230.171 340.596 294.114 282.682C359.666 223.31 345.461 131.966 345.461 131.966L284.747 166.394C284.747 166.394 306.891 218.149 262.904 268.885C218.176 320.469 155.531 313.828 155.531 313.828L146.97 327.539Z" fill="#D0B669"/>
<path d="M314.025 275.29C309.713 280.289 305.098 285.018 300.206 289.452C293.964 295.099 287.328 300.294 280.348 304.998C299.788 337.753 303.436 368.544 303.436 368.544L354 339.169C354 339.169 348.582 308.378 314.025 275.29Z" fill="#D0B669"/>
<path d="M250.576 268.735C252.41 266.879 254.223 264.948 255.994 262.899C261.054 257.102 265.488 250.787 269.222 244.059C228.153 226.689 169.445 225.82 169.445 225.82L178.661 238.512C178.661 238.512 221.919 245.561 250.576 268.735Z" fill="#D0B669"/>
</svg>
