<svg width="500" height="500" viewBox="0 0 500 500" fill="none" xmlns="http://www.w3.org/2000/svg">
<g clip-path="url(#clip0_1359_2)">
<rect width="500" height="500" fill="#E5E5E5"/>
<path fill-rule="evenodd" clip-rule="evenodd" d="M0 0H500V500H0V0Z" fill="#F0F0F0"/>
<path d="M177.385 285.547V176H188.921C195.804 176 201.382 180.969 201.382 187.099V285.547H177.385Z" fill="#00A859"/>
<path d="M345.602 215.242C349.853 215.242 353.294 218.239 353.469 221.987V248.741C353.469 253.259 357.584 256.92 362.656 256.915L362.842 256.914C367.909 256.911 372.01 253.252 372.01 248.741L372.137 221.756C372.421 218.185 375.684 215.365 379.735 215.264C380.42 215.25 382.757 214.968 385.611 217.071C385.617 216.158 385.828 213.069 384.602 212.176C381.851 210.174 374.053 207.73 362.807 207.73C351.56 207.73 344.395 210.087 340.955 212.297C339.576 213.183 340.15 216.212 340.15 217.071C340.155 217.067 340.159 217.066 340.165 217.062C342.701 215.106 345.602 215.242 345.602 215.242V215.242Z" fill="#848688"/>
<path d="M155.848 208.992H155.543C149.04 208.992 143.769 213.688 143.769 219.479V241.419C143.769 244.016 143.322 253.66 143.322 253.66C143.322 260.317 137.382 265.716 129.908 265.723H129.635C122.15 265.73 116.194 260.327 116.194 253.66C116.194 253.66 115.964 242.81 115.964 241.387V219.525C115.964 213.709 110.669 208.992 104.138 208.992H103.898C97.327 208.992 92 213.738 92 219.591V235.508C92 247.341 92.8184 258.482 94.4622 263.093C99.3852 276.934 109.943 285.468 129.714 285.461C147.09 285.457 158.27 277.804 164.119 265.699C166.424 260.903 167.579 249.074 167.579 236.055V219.44C167.579 213.67 162.326 208.992 155.848 208.992V208.992Z" fill="#00A859"/>
<path d="M262.16 276.123C262.154 271.038 257.497 266.922 251.787 266.937C250.389 266.941 249.145 266.944 248.248 266.944C239.776 266.944 235.647 264.527 235.647 256.619V227.702C238.226 227.702 240.641 227.701 241.89 227.699C247.59 227.691 252.203 223.572 252.197 218.496V218.309C252.191 213.223 247.535 209.108 241.824 209.123C241.271 209.126 238.632 209.118 235.647 209.109V187.964C235.647 181.487 229.76 176.234 222.487 176.221L211.715 176.203L211.686 259.381C211.686 277.062 220.158 285.522 242.665 285.522C244.816 285.522 248.338 285.518 251.852 285.513C257.551 285.505 262.166 281.385 262.16 276.309V276.123V276.123Z" fill="#00A859"/>
<path d="M406.999 244.422H406.897C406.514 233.319 400.914 223.371 392.234 216.433C390.622 215.145 388.036 216.133 388.028 218.063C387.99 227.241 387.996 238.629 387.996 238.629H387.963C387.839 246.397 387.081 253.228 385.676 256.147C381.769 264.234 374.299 269.348 362.69 269.351C349.48 269.355 342.426 263.654 339.138 254.406C338.039 251.325 337.492 243.881 337.492 235.976C337.492 235.976 337.578 219.337 337.578 218.2C337.578 216.277 334.964 215.303 333.364 216.596C324.834 223.49 319.319 233.302 318.89 244.251C318.915 245.637 318.918 247.109 318.966 248.389C320.559 268.79 339.595 284.911 362.905 284.911C371.716 284.911 379.902 282.582 386.789 278.618C388.195 282.213 391.995 284.807 396.512 284.803H396.719C402.143 284.798 406.583 281.057 406.999 276.324V244.422V244.422Z" fill="#00A859"/>
<path d="M186.725 317.826C186.725 318.008 186.559 318.156 186.355 318.157C185.664 318.158 184.435 318.16 183.863 318.16C180.561 318.16 179.317 316.918 179.317 314.324V306.175C179.281 306.142 179.259 306.123 179.222 306.09H177.769C177.564 306.09 177.396 305.942 177.396 305.759V304.019C177.396 303.835 177.564 303.687 177.77 303.687L179.323 303.69C179.375 303.69 179.418 303.652 179.418 303.606V298.914C179.418 298.735 179.581 298.589 179.783 298.59L182.47 298.596C182.671 298.596 182.833 298.741 182.833 298.92V303.603C182.87 303.636 182.891 303.655 182.928 303.688H185.471C185.677 303.688 185.843 303.836 185.843 304.019V305.759C185.843 305.942 185.677 306.09 185.471 306.09H182.928C182.891 306.123 182.87 306.142 182.833 306.175V313.919C182.833 315.079 183.439 315.434 184.682 315.434C185.048 315.434 185.805 315.43 186.351 315.429C186.556 315.428 186.722 315.577 186.722 315.76L186.725 317.826V317.826Z" fill="#848688"/>
<path d="M197.22 309.588H204.657C204.657 307.672 203.992 306.132 201.264 306.132C199.142 306.132 197.311 307.778 197.22 309.588V309.588ZM208.054 309.481C208.054 311.341 206.993 311.852 205.628 311.852H197.1C197.191 314.665 199.475 315.607 201.808 315.607C203.113 315.607 204.416 315.283 205.355 314.877C205.688 314.746 205.901 314.796 206.023 315.04L206.84 316.58C206.993 316.874 206.901 317.067 206.629 317.199C205.081 318.04 203.173 318.308 201.506 318.308C196.625 318.308 193.493 316.068 193.493 310.99C193.493 306.238 196.989 303.512 201.201 303.512C205.842 303.512 208.054 305.782 208.054 309.481V309.481Z" fill="#848688"/>
<path d="M248.854 318.154H246.4C246.007 318.154 245.826 318.103 245.826 317.698V310.138C245.826 307.68 244.824 306.383 242.278 306.383C241.226 306.383 239.995 306.492 239.148 306.805C239.14 306.817 239.134 306.825 239.127 306.835V317.667C239.127 317.936 238.881 318.154 238.58 318.154H236.185C235.792 318.154 235.61 318.103 235.61 317.698V299.2C235.61 299.023 235.772 298.879 235.972 298.879L238.766 298.879C238.965 298.879 239.127 299.024 239.127 299.202V304.127C239.144 304.14 239.152 304.144 239.169 304.156C240.344 303.815 241.836 303.657 242.916 303.657C247.401 303.657 249.401 306.008 249.401 309.919V317.667C249.401 317.936 249.156 318.154 248.854 318.154Z" fill="#848688"/>
<path d="M261.514 306.519V317.697C261.514 318.103 261.391 318.153 260.936 318.153H258.573C258.18 318.153 257.998 318.103 257.998 317.697V306.139C257.998 304.842 258.362 304.143 260.029 303.899C260.846 303.818 262.967 303.656 264 303.656C269.364 303.656 271.759 305.571 271.759 310.568V317.697C271.759 318.103 271.637 318.153 271.182 318.153H268.787C268.395 318.153 268.213 318.103 268.213 317.697V310.512C268.213 307.705 267.302 306.357 263.909 306.357C263.453 306.357 262.603 306.332 261.514 306.519V306.519Z" fill="#848688"/>
<path d="M287.204 306.157C284.599 306.157 282.888 308.184 282.888 310.854C282.888 313.854 284.294 315.663 287.083 315.663C289.903 315.663 291.34 313.418 291.34 310.935C291.34 308.345 290.114 306.157 287.204 306.157ZM287.052 318.308C282.172 318.308 279.312 315.769 279.312 310.935C279.312 306.212 282.809 303.512 287.144 303.512C291.961 303.512 294.947 306.294 294.947 310.854C294.947 315.633 291.994 318.308 287.052 318.308Z" fill="#848688"/>
<path d="M308.945 317.826C308.945 318.009 308.776 318.158 308.571 318.158H306.042C303.769 318.158 302.771 317.347 302.771 314.996V298.921C302.771 298.741 302.937 298.594 303.138 298.594H305.981C306.183 298.594 306.347 298.741 306.347 298.921V314.241C306.347 315.188 306.561 315.457 307.378 315.457C307.593 315.457 308.182 315.457 308.573 315.456C308.778 315.456 308.945 315.605 308.945 315.788V317.826V317.826Z" fill="#848688"/>
<path d="M323.189 306.157C320.584 306.157 318.875 308.184 318.875 310.854C318.875 313.854 320.281 315.663 323.07 315.663C325.89 315.663 327.325 313.418 327.325 310.935C327.325 308.345 326.099 306.157 323.189 306.157ZM323.039 318.308C318.157 318.308 315.299 315.769 315.299 310.935C315.299 306.212 318.796 303.512 323.13 303.512C327.949 303.512 330.932 306.294 330.932 310.854C330.932 315.633 327.979 318.308 323.039 318.308Z" fill="#848688"/>
<path d="M345.398 315.64C346.035 315.64 347.278 315.559 348.581 315.235V306.702C347.61 306.458 346.52 306.352 345.701 306.352C343.185 306.352 341.051 307.618 341.051 311.049C341.051 314.206 342.974 315.64 345.398 315.64V315.64ZM344.095 324.224C344.043 324.233 343.994 324.237 343.948 324.238H343.934C343.694 324.237 343.544 324.126 343.52 323.925L343.215 321.878C343.185 321.634 343.307 321.497 343.579 321.442C346.613 321.011 348.552 320.312 348.552 318.017V317.855C347.369 318.179 345.912 318.341 344.792 318.341C340.032 318.341 337.416 315.397 337.416 311.186C337.416 306.864 340.245 303.707 345.552 303.707C347.61 303.707 349.855 303.92 351.673 304.649C352.068 304.837 352.159 304.999 352.159 305.298V316.856C352.159 321.767 349.4 323.575 344.095 324.224Z" fill="#848688"/>
<path d="M361.358 317.811V304.293C361.358 304.11 361.525 303.962 361.732 303.962H364.502C364.708 303.962 364.874 304.11 364.874 304.293V317.811C364.874 317.998 364.704 318.149 364.494 318.149H361.739C361.528 318.149 361.358 317.998 361.358 317.811V317.811ZM363.146 302.224C361.934 302.224 360.963 301.357 360.963 300.278C360.963 299.198 361.934 298.332 363.146 298.332C364.36 298.332 365.331 299.198 365.331 300.278C365.331 301.357 364.36 302.224 363.146 302.224Z" fill="#848688"/>
<path d="M376.765 309.588H384.204C384.204 307.672 383.538 306.132 380.81 306.132C378.688 306.132 376.856 307.778 376.765 309.588ZM387.6 309.481C387.6 311.341 386.539 311.852 385.173 311.852H376.645C376.737 314.665 379.02 315.607 381.355 315.607C382.66 315.607 384.428 315.283 385.366 314.877C385.702 314.746 385.913 314.796 386.034 315.04L386.851 316.58C387.005 316.874 386.914 317.067 386.64 317.199C385.094 318.04 382.719 318.308 381.052 318.308C376.17 318.308 373.039 316.068 373.039 310.99C373.039 306.238 376.534 303.512 380.747 303.512C385.387 303.512 387.6 305.782 387.6 309.481V309.481Z" fill="#848688"/>
<path d="M401.043 318.308C399.071 318.308 396.589 317.983 394.891 317.117C394.586 316.986 394.527 316.767 394.676 316.474L395.405 314.959C395.618 314.634 395.737 314.528 396.194 314.715C397.65 315.338 399.618 315.688 400.984 315.688C402.681 315.688 403.529 315.04 403.529 314.097C403.529 313.043 402.436 312.582 400.255 311.852C396.98 310.773 395.313 309.775 395.313 307.591C395.313 305.24 397.254 303.512 400.984 303.512C402.681 303.512 404.408 303.78 405.985 304.348C406.317 304.484 406.348 304.697 406.258 304.996L405.559 306.537C405.439 306.831 405.287 306.831 404.955 306.724C403.378 306.212 402.317 306.076 400.951 306.076C399.467 306.076 398.8 306.75 398.8 307.429C398.8 308.396 399.618 308.832 401.891 309.562C404.359 310.387 406.799 311.292 407 313.714V314.395C406.799 317.065 404.299 318.308 401.043 318.308V318.308Z" fill="#848688"/>
<path d="M226.935 314.848C227.39 314.66 227.509 314.742 227.632 315.035L228.388 316.601C228.601 316.9 228.538 317.113 228.207 317.275C226.539 318.116 224.276 318.304 222.608 318.304C218.091 318.304 214.909 315.846 214.909 311.012C214.909 306.451 218.455 303.508 222.941 303.508C224.608 303.508 226.42 303.807 227.782 304.455C228.147 304.643 228.237 304.775 228.025 305.129L227.268 306.721C227.116 307.019 226.994 307.1 226.511 306.908C225.541 306.583 224.275 306.315 223.094 306.315C220.304 306.315 218.516 308.555 218.516 311.012C218.516 313.525 220.031 315.547 223.154 315.547C224.458 315.547 226.084 315.197 226.935 314.848Z" fill="#848688"/>
<path d="M318.668 218.316C318.663 213.23 314.007 209.115 308.295 209.13C307.77 209.132 301.26 209.126 298.456 209.117C295.037 209.107 292.024 210.595 290.134 212.867C287.742 210.581 284.359 209.13 280.575 209.13H269.863V285.501H293.673V238.824C293.673 232.694 299.252 227.726 306.133 227.726C306.133 227.726 308.107 227.707 308.362 227.706C314.06 227.698 318.674 223.579 318.668 218.503V218.316V218.316Z" fill="#00A859"/>
</g>
<defs>
<clipPath id="clip0_1359_2">
<rect width="500" height="500" fill="white"/>
</clipPath>
</defs>
</svg>
