<svg width="500" height="500" viewBox="0 0 500 500" fill="none" xmlns="http://www.w3.org/2000/svg">
<rect width="500" height="500" fill="#F0F0F0"/>
<path d="M110.9 136C220.3 144 280.9 143.7 388.1 136C388.1 136 377.2 254.9 388.1 329.9C390.1 343.4 394 364.3 394 364.3H105C105 364.3 109 343.4 110.9 329.9C111.7 324.3 112.4 318.4 113 312.4C120.3 237.8 110.9 136 110.9 136Z" fill="#F81A5D"/>
<path d="M250.5 291.998C267.3 291.998 280.8 286.198 291.5 276.398C302.2 266.398 308 251.698 308 234.898H282.8C282.8 244.498 279.9 251.798 274.5 257.498C269.2 263.198 261.4 265.898 250.6 265.898C239.8 265.898 231.4 263.198 226 257.498C220.7 251.798 218.4 244.498 218.4 234.898H193C193 251.698 198.3 266.298 209 276.398C219.7 286.298 233.6 291.998 250.5 291.998Z" fill="#FAFCF8"/>
</svg>
