<svg width="500" height="500" viewBox="0 0 500 500" fill="none" xmlns="http://www.w3.org/2000/svg">
<rect width="500" height="500" fill="#E5E5E5"/>
<path fill-rule="evenodd" clip-rule="evenodd" d="M0 0H500V500H0V0Z" fill="#F0F0F0"/>
<path fill-rule="evenodd" clip-rule="evenodd" d="M144.696 365.925C144.696 368.322 143.821 370.126 142.072 371.349C140.853 372.191 139.58 372.612 138.252 372.612C135.75 372.612 133.658 372.091 131.975 371.05C130.114 369.893 129.185 368.3 129.185 366.256V353.054C129.185 352.429 129.14 352.03 129.052 351.853C129.007 351.765 128.874 351.676 128.654 351.587C127.945 351.322 126.727 351.189 125 351.189V350.89H137.787V351.189C136.769 351.189 135.944 351.222 135.313 351.288C134.682 351.355 134.222 351.444 133.934 351.554C133.647 351.666 133.481 351.765 133.436 351.853C133.325 352.053 133.27 352.451 133.27 353.049V365.57C133.27 367.785 133.602 369.368 134.266 370.32C135.064 371.471 136.503 372.047 138.584 372.047C139.735 372.047 140.853 371.638 141.939 370.818C143.466 369.667 144.23 368.028 144.23 365.903V357.235C144.23 354.954 143.877 353.376 143.167 352.501C142.459 351.627 141.297 351.189 139.68 351.189V350.89H148.615V351.189C146.954 351.189 145.847 351.654 145.294 352.584C144.895 353.253 144.696 354.372 144.696 355.945V365.925ZM154.726 364.17V370.713C154.726 371.156 154.759 371.444 154.826 371.582C154.87 371.648 154.975 371.715 155.141 371.781C155.307 371.848 155.606 371.903 156.038 371.947C156.469 371.991 156.851 372.014 157.183 372.014V372.313H148.681V372.014C149.168 372.014 149.65 371.991 150.125 371.947C150.603 371.903 151.028 371.814 151.405 371.682C151.537 371.571 151.604 371.245 151.604 370.713V360.594C151.604 360.394 151.598 360.195 151.587 359.996C151.577 359.796 151.527 359.642 151.438 359.532L151.238 359.194C151.017 359.038 150.175 358.961 148.715 358.961V358.662L154.726 358.13V362.365C154.859 361.418 155.147 360.577 155.59 359.852C156.209 358.834 156.863 358.292 157.549 358.213C158.236 358.136 158.679 358.097 158.878 358.097C160.272 358.097 161.379 358.518 162.199 359.366C162.885 360.074 163.228 360.915 163.228 361.894V370.718C163.228 371.162 163.261 371.449 163.328 371.582C163.373 371.648 163.483 371.715 163.66 371.781C163.838 371.848 164.158 371.903 164.624 371.947C165.089 371.991 165.531 372.014 165.953 372.014V372.313H157.449V372.014C157.804 372.014 158.213 371.991 158.679 371.947C159.144 371.903 159.553 371.814 159.907 371.682C160.04 371.571 160.106 371.245 160.106 370.713V362.266C160.106 361.198 160.018 360.39 159.84 359.83C159.553 358.917 159.022 358.463 158.247 358.463C157.229 358.463 156.398 359.1 155.756 360.367C155.268 361.325 154.925 362.592 154.726 364.17ZM172.927 358.13V370.713C172.927 371.156 172.961 371.444 173.027 371.582C173.071 371.648 173.171 371.715 173.326 371.781C173.791 371.937 174.754 372.014 176.216 372.014V372.313H166.517V372.014C167.159 372.014 167.741 371.991 168.261 371.947C168.781 371.903 169.23 371.814 169.606 371.682C169.739 371.565 169.805 371.245 169.805 370.707V360.334C169.805 359.908 169.76 359.642 169.673 359.532C169.517 359.304 169.374 359.171 169.241 359.127C168.842 359.017 167.934 358.961 166.517 358.961V358.662L172.927 358.13ZM171.183 350.625C171.71 350.625 172.147 350.802 172.501 351.155C172.85 351.51 173.027 351.953 173.027 352.484C173.027 353.016 172.85 353.459 172.501 353.813C172.147 354.167 171.71 354.344 171.183 354.344C170.657 354.344 170.221 354.167 169.866 353.813C169.517 353.459 169.34 353.016 169.34 352.484C169.34 351.953 169.517 351.51 169.866 351.155C170.221 350.802 170.657 350.625 171.183 350.625ZM183.456 372.479L178.806 359.697C178.607 359.183 178.486 358.884 178.441 358.795C178.308 358.573 177.921 358.463 177.279 358.463H176.515V358.13H184.121V358.463C183.612 358.463 183.097 358.469 182.576 358.479C182.056 358.49 181.795 358.629 181.795 358.895L181.994 359.565L185.15 368.128L187.38 361.596C187.642 360.816 187.774 360.218 187.774 359.796C187.774 358.905 187.032 358.463 185.548 358.463V358.13H191.162V358.463C190.315 358.463 189.661 358.668 189.191 359.077C188.726 359.487 188.205 360.517 187.625 362.16L184.088 372.479H183.456ZM195.048 365.471C195.048 367.851 195.331 369.578 195.894 370.647C196.459 371.715 197.317 372.246 198.469 372.246C199.687 372.246 200.761 371.837 201.691 371.012C202.82 370.005 203.384 368.648 203.384 366.933H203.65C203.65 368.593 203.119 369.955 202.057 371.017C200.993 372.08 199.577 372.612 197.805 372.612C196.322 372.612 194.97 372.047 193.753 370.917C192.313 369.589 191.594 367.851 191.594 365.703C191.594 363.379 192.303 361.485 193.719 360.024C194.959 358.762 196.355 358.13 197.905 358.13C199.344 358.13 200.539 358.552 201.492 359.393C202.886 360.633 203.584 362.659 203.584 365.471H195.048ZM200.761 365.072C200.761 362.924 200.567 361.286 200.185 360.157C199.803 359.027 199.183 358.463 198.331 358.463C197.13 358.463 196.277 359 195.784 360.074C195.292 361.148 195.048 362.814 195.048 365.072H200.761ZM207.968 360.334C207.968 359.885 207.923 359.609 207.835 359.499C207.68 359.271 207.536 359.138 207.403 359.094C207.005 358.984 206.097 358.928 204.68 358.928V358.629L211.09 358.13V362.349C211.179 361.441 211.489 360.589 212.021 359.792C212.75 358.685 213.67 358.13 214.777 358.13C215.197 358.13 215.652 358.269 216.138 358.546C216.626 358.822 216.952 359.171 217.118 359.592C217.284 360.012 217.367 360.39 217.367 360.721C217.367 361.607 216.996 362.216 216.26 362.548C216.084 362.637 215.845 362.681 215.558 362.681C215.109 362.681 214.727 362.526 214.418 362.216C214.102 361.906 213.946 361.441 213.946 360.82C213.946 360.423 214.096 360.024 214.401 359.625C214.699 359.227 215.054 359.071 215.458 359.16C215.325 358.695 214.927 358.463 214.268 358.463C213.625 358.463 212.989 358.928 212.347 359.863C211.51 361.065 211.09 362.615 211.09 364.502V370.713C211.09 371.156 211.124 371.444 211.19 371.582C211.234 371.648 211.334 371.715 211.489 371.781C211.954 371.937 212.916 372.014 214.378 372.014V372.313H204.68V372.014C205.322 372.014 205.904 371.991 206.423 371.947C206.944 371.903 207.393 371.814 207.769 371.682C207.902 371.565 207.968 371.245 207.968 370.707V360.334ZM225.737 359.16C226.601 358.518 227.055 358.175 227.099 358.13V363.113L226.833 363.046C226.523 361.717 225.969 360.633 225.173 359.792C224.309 358.884 223.356 358.429 222.316 358.429C221.519 358.429 220.866 358.585 220.357 358.895C219.671 359.316 219.327 360.012 219.327 360.987C219.327 361.784 219.704 362.405 220.45 362.847C220.982 363.157 222.039 363.5 223.628 363.877C225.217 364.253 226.33 364.696 226.972 365.205C227.874 365.913 228.328 367.043 228.328 368.593C228.328 370.032 227.841 371.095 226.866 371.781C226.092 372.335 225.117 372.612 223.944 372.612C222.97 372.612 222.272 372.545 221.852 372.412C221.231 372.213 220.556 371.737 219.825 370.984C218.94 372.024 218.475 372.568 218.431 372.612V366.733H218.663C219.039 368.106 219.355 369.058 219.598 369.589C219.931 370.32 220.284 370.863 220.666 371.216C221.175 371.704 221.657 372.008 222.116 372.13C222.571 372.252 223.252 372.313 224.166 372.313C224.857 372.313 225.421 372.136 225.865 371.781C226.401 371.361 226.667 370.763 226.667 369.988C226.667 368.991 226.313 368.25 225.599 367.762C225.045 367.386 224.06 367.054 222.648 366.767C221.237 366.478 220.147 366.013 219.366 365.371C218.431 364.596 217.965 363.566 217.965 362.282C217.965 361.131 218.358 360.151 219.144 359.343C219.931 358.535 220.888 358.13 222.017 358.13C222.88 358.13 223.634 358.275 224.276 358.562C225.117 358.938 225.604 359.138 225.737 359.16ZM237.86 368.676V364.237C237.595 364.59 237.202 364.806 236.682 364.889C236.161 364.968 235.658 365.039 235.17 365.105C234.528 365.261 234.019 365.614 233.642 366.174C233.199 366.838 232.979 367.774 232.979 368.975C232.979 370.265 233.106 371.139 233.361 371.594C233.615 372.053 234.019 372.28 234.572 372.28C235.414 372.28 236.172 371.931 236.848 371.228C237.523 370.531 237.86 369.677 237.86 368.676V368.676ZM237.96 362.67V360.733C237.96 359.842 237.816 359.243 237.534 358.928C237.252 358.618 236.643 358.463 235.713 358.463C234.948 358.463 234.279 358.612 233.708 358.905C233.133 359.2 232.757 359.592 232.58 360.091C232.668 360.068 232.779 360.057 232.912 360.057C233.332 360.057 233.675 360.223 233.941 360.556C234.207 360.887 234.34 361.264 234.34 361.684C234.34 362.172 234.174 362.571 233.837 362.88C233.504 363.19 233.112 363.346 232.663 363.346C232.375 363.346 232.115 363.267 231.893 363.113C231.246 362.692 230.919 362.16 230.919 361.518C230.919 361.208 230.985 360.854 231.118 360.456C231.428 359.592 232.204 358.961 233.444 358.562C234.329 358.275 235.226 358.13 236.134 358.13C237.773 358.13 239.013 358.441 239.854 359.061C240.606 359.609 240.982 360.307 240.982 361.148V368.466C240.982 369.794 241.016 370.614 241.082 370.917C241.237 371.671 241.636 372.047 242.278 372.047C242.854 372.047 243.242 371.748 243.441 371.156C243.639 370.564 243.739 369.7 243.739 368.582C243.739 368.272 243.734 367.962 243.722 367.658C243.712 367.347 243.706 367.026 243.706 366.7V366.401H244.104V367.862C244.104 368.327 244.116 368.77 244.138 369.191C244.138 370.475 243.983 371.339 243.672 371.781C243.269 372.335 242.455 372.612 241.232 372.612C240.274 372.612 239.566 372.446 239.096 372.119C238.541 371.721 238.17 371.056 237.993 370.109C237.528 371.183 236.831 371.908 235.901 372.285C235.347 372.501 234.605 372.612 233.675 372.612C232.746 372.612 231.938 372.39 231.251 371.947C230.299 371.349 229.823 370.437 229.823 369.218C229.823 368.023 230.287 367.016 231.213 366.191C232.137 365.394 233.261 364.939 234.584 364.829C235.912 364.718 236.803 364.54 237.268 364.297C237.727 364.054 237.96 363.512 237.96 362.67V362.67ZM251.079 370.718C251.079 371.162 251.113 371.449 251.179 371.582C251.223 371.648 251.322 371.715 251.478 371.781C251.943 371.937 252.905 372.014 254.367 372.014V372.313H244.669V372.014C245.311 372.014 245.893 371.991 246.412 371.947C246.933 371.903 247.382 371.814 247.758 371.682C247.891 371.571 247.957 371.25 247.957 370.713V352.922C247.957 352.479 247.891 352.163 247.758 351.986C247.625 351.809 247.492 351.699 247.359 351.654C246.961 351.543 246.075 351.488 244.702 351.488V351.189L251.079 350.625V370.718ZM272.303 362.316H275.668C277.518 362.316 278.807 361.84 279.538 360.882C280.163 360.062 280.474 358.751 280.474 356.952C280.474 355.064 280.064 353.631 279.239 352.657C278.42 351.676 277.153 351.189 275.436 351.189H273.836C273.371 351.189 273.028 351.222 272.802 351.288C272.58 351.355 272.442 351.494 272.386 351.704C272.33 351.914 272.303 352.346 272.303 352.988V362.316ZM272.303 362.615V370.115C272.303 370.757 272.347 371.167 272.436 371.349C272.48 371.438 272.635 371.532 272.901 371.632C273.167 371.731 273.687 371.814 274.462 371.881C275.238 371.947 276.3 371.981 277.65 371.981V372.313H263.303V371.981C264.431 371.981 265.367 371.947 266.109 371.881C266.851 371.814 267.355 371.731 267.619 371.632C267.885 371.532 268.041 371.438 268.085 371.349C268.174 371.167 268.218 370.757 268.218 370.115V352.988C268.218 352.391 268.174 351.997 268.085 351.82C268.041 351.732 267.908 351.643 267.686 351.554C267 351.311 265.538 351.189 263.303 351.189V350.89H276.189C278.824 350.89 280.905 351.5 282.433 352.717C283.873 353.868 284.592 355.374 284.592 357.235C284.592 358.496 284.039 359.647 282.932 360.689C281.559 361.973 279.699 362.615 277.352 362.615H272.303ZM298.476 365.338C298.476 367.486 297.735 369.268 296.25 370.685C294.9 371.97 293.383 372.612 291.701 372.612C289.973 372.612 288.467 372.014 287.183 370.818C285.677 369.423 284.925 367.596 284.925 365.338C284.925 363.19 285.667 361.418 287.15 360.024C288.5 358.762 290.018 358.13 291.701 358.13C293.406 358.13 294.91 358.728 296.217 359.924C297.723 361.297 298.476 363.101 298.476 365.338V365.338ZM295.022 365.338C295.022 362.88 294.811 361.153 294.391 360.157C293.903 359.005 293.007 358.429 291.701 358.429C290.505 358.429 289.653 358.984 289.142 360.091C288.633 361.198 288.379 362.947 288.379 365.338C288.379 367.774 288.606 369.546 289.061 370.653C289.514 371.76 290.394 372.313 291.701 372.313C292.896 372.313 293.749 371.748 294.258 370.619C294.767 369.49 295.022 367.729 295.022 365.338ZM306.049 370.718C306.049 371.162 306.082 371.449 306.149 371.582C306.193 371.648 306.293 371.715 306.448 371.781C306.913 371.937 307.875 372.014 309.337 372.014V372.313H299.639V372.014C300.281 372.014 300.863 371.991 301.382 371.947C301.903 371.903 302.352 371.814 302.728 371.682C302.861 371.571 302.927 371.25 302.927 370.713V352.922C302.927 352.479 302.861 352.163 302.728 351.986C302.595 351.809 302.462 351.699 302.329 351.654C301.931 351.543 301.045 351.488 299.672 351.488V351.189L306.049 350.625V370.718ZM316.512 358.13V370.713C316.512 371.156 316.545 371.444 316.611 371.582C316.655 371.648 316.755 371.715 316.91 371.781C317.376 371.937 318.338 372.014 319.8 372.014V372.313H310.102V372.014C310.744 372.014 311.325 371.991 311.845 371.947C312.366 371.903 312.814 371.814 313.19 371.682C313.323 371.565 313.39 371.245 313.39 370.707V360.334C313.39 359.908 313.345 359.642 313.257 359.532C313.101 359.304 312.958 359.171 312.825 359.127C312.426 359.017 311.518 358.961 310.102 358.961V358.662L316.512 358.13ZM314.767 350.625C315.294 350.625 315.731 350.802 316.086 351.155C316.435 351.51 316.611 351.953 316.611 352.484C316.611 353.016 316.435 353.459 316.086 353.813C315.731 354.167 315.294 354.344 314.767 354.344C314.242 354.344 313.805 354.167 313.45 353.813C313.101 353.459 312.925 353.016 312.925 352.484C312.925 351.953 313.101 351.51 313.45 351.155C313.805 350.802 314.242 350.625 314.767 350.625ZM323.952 366.667C323.243 366.312 322.689 365.847 322.291 365.271C321.892 364.696 321.694 363.988 321.694 363.146C321.694 361.729 322.336 360.523 323.62 359.526C324.793 358.618 326.089 358.164 327.506 358.164C327.926 358.164 328.368 358.219 328.834 358.33C329.299 358.441 329.731 358.585 330.129 358.762V357.964C330.129 356.924 330.312 356.244 330.678 355.922C331.043 355.601 331.602 355.44 332.354 355.44C332.686 355.44 332.975 355.551 333.218 355.778C333.461 355.999 333.584 356.292 333.584 356.653C333.584 357.439 333.218 357.831 332.487 357.831C331.735 357.831 331.359 357.472 331.359 356.753C331.359 356.62 331.38 356.498 331.425 356.381C331.469 356.271 331.525 356.161 331.591 356.044C331.147 356.111 330.854 356.304 330.711 356.625C330.567 356.946 330.495 357.383 330.495 357.937C330.517 358.396 330.528 358.739 330.528 358.961C331.392 359.382 332.072 359.935 332.57 360.622C333.069 361.308 333.318 362.106 333.318 363.013C333.318 364.364 332.676 365.471 331.392 366.335C330.24 367.109 328.945 367.496 327.506 367.496C326.486 367.496 325.524 367.319 324.616 366.966C323.852 366.966 323.227 367.087 322.745 367.331C322.108 367.662 321.792 368.206 321.792 368.958C321.792 369.29 322.07 369.546 322.623 369.722C323.148 369.922 324.189 370.021 325.734 370.021H327.655C329.62 370.021 331.109 370.287 332.128 370.818C333.407 371.482 334.049 372.589 334.049 374.139C334.049 375.778 333.467 377.04 332.304 377.925C331.143 378.812 329.62 379.255 327.738 379.255C325.501 379.255 323.719 378.883 322.39 378.141C321.062 377.4 320.398 376.553 320.398 375.601C320.398 374.982 320.763 374.461 321.494 374.039C322.003 373.752 322.801 373.453 323.885 373.143C322.911 372.789 322.191 372.412 321.726 372.014C321.084 371.461 320.763 370.741 320.763 369.855C320.763 368.925 321.04 368.161 321.594 367.563C322.147 366.966 322.932 366.667 323.952 366.667V366.667ZM330.329 362.847C330.329 361.441 330.14 360.394 329.77 359.703C329.332 358.878 328.58 358.463 327.506 358.463C326.52 358.463 325.806 358.855 325.358 359.636C324.909 360.417 324.683 361.485 324.683 362.847C324.683 364.408 324.876 365.527 325.258 366.196C325.64 366.866 326.387 367.198 327.506 367.198C328.513 367.198 329.232 366.85 329.67 366.146C330.107 365.443 330.329 364.341 330.329 362.847ZM327.938 378.956C329.432 378.956 330.594 378.646 331.419 378.02C332.244 377.394 332.653 376.642 332.653 375.75C332.653 374.683 332.316 373.957 331.646 373.58C330.971 373.198 329.731 373.011 327.921 373.011C325.85 373.011 324.428 373.254 323.653 373.741C323.011 374.139 322.689 374.826 322.689 375.8C322.689 376.731 322.955 377.427 323.481 377.892C324.295 378.601 325.778 378.956 327.938 378.956V378.956ZM338.5 360.334C338.5 359.885 338.455 359.609 338.367 359.499C338.211 359.271 338.068 359.138 337.935 359.094C337.536 358.984 336.628 358.928 335.212 358.928V358.629L341.622 358.13V362.349C341.711 361.441 342.02 360.589 342.552 359.792C343.282 358.685 344.201 358.13 345.308 358.13C345.729 358.13 346.183 358.269 346.67 358.546C347.157 358.822 347.484 359.171 347.65 359.592C347.816 360.012 347.899 360.39 347.899 360.721C347.899 361.607 347.527 362.216 346.792 362.548C346.615 362.637 346.376 362.681 346.089 362.681C345.641 362.681 345.259 362.526 344.949 362.216C344.633 361.906 344.478 361.441 344.478 360.82C344.478 360.423 344.627 360.024 344.932 359.625C345.23 359.227 345.585 359.071 345.99 359.16C345.857 358.695 345.458 358.463 344.799 358.463C344.156 358.463 343.52 358.928 342.878 359.863C342.042 361.065 341.622 362.615 341.622 364.502V370.713C341.622 371.156 341.655 371.444 341.721 371.582C341.765 371.648 341.865 371.715 342.02 371.781C342.486 371.937 343.448 372.014 344.91 372.014V372.313H335.212V372.014C335.854 372.014 336.435 371.991 336.955 371.947C337.476 371.903 337.924 371.814 338.3 371.682C338.433 371.565 338.5 371.245 338.5 370.707V360.334ZM356.8 368.676V364.237C356.534 364.59 356.141 364.806 355.621 364.889C355.1 364.968 354.597 365.039 354.11 365.105C353.468 365.261 352.959 365.614 352.581 366.174C352.139 366.838 351.918 367.774 351.918 368.975C351.918 370.265 352.045 371.139 352.3 371.594C352.554 372.053 352.959 372.28 353.512 372.28C354.353 372.28 355.111 371.931 355.788 371.228C356.463 370.531 356.8 369.677 356.8 368.676V368.676ZM356.899 362.67V360.733C356.899 359.842 356.756 359.243 356.473 358.928C356.191 358.618 355.582 358.463 354.652 358.463C353.888 358.463 353.219 358.612 352.648 358.905C352.072 359.2 351.696 359.592 351.519 360.091C351.607 360.068 351.719 360.057 351.852 360.057C352.272 360.057 352.614 360.223 352.88 360.556C353.146 360.887 353.279 361.264 353.279 361.684C353.279 362.172 353.113 362.571 352.776 362.88C352.444 363.19 352.051 363.346 351.602 363.346C351.314 363.346 351.054 363.267 350.832 363.113C350.186 362.692 349.858 362.16 349.858 361.518C349.858 361.208 349.924 360.854 350.057 360.456C350.367 359.592 351.143 358.961 352.383 358.562C353.268 358.275 354.165 358.13 355.073 358.13C356.712 358.13 357.952 358.441 358.793 359.061C359.546 359.609 359.922 360.307 359.922 361.148V368.466C359.922 369.794 359.955 370.614 360.021 370.917C360.177 371.671 360.576 372.047 361.217 372.047C361.793 372.047 362.181 371.748 362.38 371.156C362.579 370.564 362.678 369.7 362.678 368.582C362.678 368.272 362.673 367.962 362.662 367.658C362.651 367.347 362.645 367.026 362.645 366.7V366.401H363.044V367.862C363.044 368.327 363.056 368.77 363.077 369.191C363.077 370.475 362.923 371.339 362.612 371.781C362.208 372.335 361.394 372.612 360.171 372.612C359.213 372.612 358.505 372.446 358.035 372.119C357.481 371.721 357.109 371.056 356.933 370.109C356.467 371.183 355.771 371.908 354.841 372.285C354.286 372.501 353.545 372.612 352.614 372.612C351.685 372.612 350.877 372.39 350.19 371.947C349.239 371.349 348.763 370.437 348.763 369.218C348.763 368.023 349.227 367.016 350.152 366.191C351.077 365.394 352.2 364.939 353.524 364.829C354.851 364.718 355.742 364.54 356.208 364.297C356.667 364.054 356.899 363.512 356.899 362.67V362.67ZM369.52 359.061V370.713C369.52 371.178 369.553 371.466 369.62 371.582C369.664 371.648 369.775 371.715 369.952 371.781C370.417 371.937 371.336 372.014 372.709 372.014V372.313H363.276V372.014C364.604 372.014 365.501 371.937 365.966 371.781L366.199 371.682C366.332 371.571 366.398 371.245 366.398 370.713V359.061H363.276V358.496H366.398V356.537C366.398 355.053 366.913 353.697 367.948 352.468C368.984 351.238 370.179 350.625 371.535 350.625C372.399 350.625 373.113 350.763 373.666 351.039C374.22 351.317 374.585 351.66 374.751 352.069C374.917 352.479 375 352.861 375 353.215C375 353.835 374.696 354.333 374.092 354.709C373.849 354.865 373.567 354.942 373.257 354.942C372.831 354.942 372.454 354.792 372.133 354.499C371.807 354.2 371.645 353.813 371.645 353.332C371.645 352.457 372.077 351.942 372.941 351.787C372.786 351.477 372.632 351.255 372.476 351.122C372.322 350.989 372.077 350.923 371.745 350.923C370.871 350.923 370.284 351.172 369.979 351.666C369.676 352.163 369.52 353.083 369.52 354.427V358.496H372.609V359.061H369.52Z" fill="#1B1918"/>
<path fill-rule="evenodd" clip-rule="evenodd" d="M249.622 121H250.378C324.367 148.702 371.068 198.819 355.155 303.374C319.984 326.877 284.93 339.389 250 339.767C215.07 339.389 180.012 326.877 144.844 303.374C128.931 198.819 175.632 148.702 249.622 121V121ZM250.001 142.32C302.295 142.32 344.688 184.713 344.688 237.007C344.688 289.301 302.295 331.694 250.001 331.694C197.707 331.694 155.314 289.301 155.314 237.007C155.314 184.713 197.707 142.32 250.001 142.32V142.32Z" fill="#4C638B"/>
<path fill-rule="evenodd" clip-rule="evenodd" d="M250 325.515C298.873 325.515 338.509 285.879 338.509 237.008C338.509 188.135 298.873 148.499 250 148.499C201.127 148.499 161.49 188.135 161.49 237.008C161.49 285.879 201.127 325.515 250 325.515V325.515ZM250 328.907C199.253 328.907 158.099 287.753 158.099 237.008C158.099 186.261 199.253 145.105 250 145.105C300.747 145.105 341.902 186.261 341.902 237.008C341.902 287.753 300.747 328.907 250 328.907V328.907Z" fill="#1B1918"/>
<path fill-rule="evenodd" clip-rule="evenodd" d="M251.176 304.266C256.619 303.358 261.63 296.199 265.416 285.088C267.538 278.872 269.251 271.455 270.422 263.205C264.256 262.535 257.815 262.16 251.176 262.117V304.266ZM250.001 167.188C288.561 167.188 319.821 198.447 319.821 237.007C319.821 275.567 288.561 306.827 250.001 306.827C211.441 306.827 180.181 275.567 180.181 237.007C180.181 198.447 211.441 167.188 250.001 167.188ZM266.802 171.845C283.933 176.249 298.424 187.232 307.425 201.94C302.913 203.808 297.912 205.459 292.511 206.85C290.22 199.791 287.152 193.388 283.468 187.896C278.792 180.925 273.122 175.41 266.802 171.845V171.845ZM308.621 203.978C313.95 213.416 317.065 224.268 317.263 235.832H297.125C297.019 226.338 295.627 217.302 293.204 209.091C298.789 207.647 303.961 205.927 308.621 203.978V203.978ZM317.263 238.184C317.064 249.748 313.949 260.6 308.62 270.038C303.964 268.086 298.789 266.369 293.207 264.921C295.631 256.714 297.019 247.678 297.125 238.184H317.263ZM307.423 272.077C298.422 286.783 283.932 297.765 266.802 302.169C273.122 298.605 278.792 293.089 283.468 286.118C287.152 280.626 290.22 274.222 292.511 267.162C297.911 268.556 302.911 270.208 307.423 272.077ZM233.197 302.168C216.067 297.764 201.578 286.782 192.578 272.075C197.089 270.207 202.091 268.556 207.487 267.162C209.778 274.222 212.85 280.626 216.53 286.118C221.204 293.089 226.875 298.604 233.197 302.168V302.168ZM191.381 270.036C186.052 260.599 182.937 249.747 182.739 238.184H202.873C202.979 247.678 204.371 256.714 206.794 264.921C201.211 266.369 196.04 268.085 191.381 270.036ZM182.738 235.832C182.937 224.269 186.051 213.417 191.38 203.98C196.04 205.931 201.211 207.647 206.794 209.091C204.371 217.302 202.979 226.338 202.873 235.832H182.738ZM192.576 201.942C201.576 187.234 216.066 176.251 233.197 171.846C226.872 175.411 221.204 180.925 216.53 187.896C212.85 193.388 209.778 199.791 207.487 206.85C202.091 205.46 197.088 203.809 192.576 201.942V201.942ZM248.825 262.117C242.187 262.16 235.742 262.535 229.574 263.205C230.751 271.455 232.46 278.872 234.582 285.088C238.374 296.204 243.383 303.358 248.825 304.266V262.117ZM251.176 169.749V211.895C257.815 211.856 264.256 211.481 270.422 210.811C269.251 202.561 267.538 195.139 265.416 188.927C261.63 177.812 256.619 170.657 251.176 169.749V169.749ZM251.176 214.246H248.825C242.091 214.209 235.543 213.825 229.265 213.135C229.218 213.504 229.172 213.874 229.127 214.246H226.761C226.817 213.783 226.874 213.322 226.932 212.863C223.808 212.476 220.754 212.018 217.786 211.485C214.792 210.948 211.885 210.34 209.072 209.661C206.699 217.682 205.332 226.526 205.229 235.832H208.674V238.184H205.229C205.332 247.492 206.695 256.334 209.072 264.355C211.885 263.676 214.796 263.068 217.79 262.531C220.759 261.998 223.808 261.536 226.932 261.153C226.873 260.693 226.817 260.231 226.761 259.767H229.127C229.172 260.139 229.218 260.511 229.265 260.881C235.543 260.191 242.091 259.808 248.825 259.767H251.176C257.911 259.808 264.459 260.191 270.737 260.881C270.784 260.511 270.83 260.139 270.875 259.767H273.241C273.185 260.231 273.128 260.693 273.07 261.153C276.192 261.536 279.243 261.998 282.212 262.531C285.206 263.068 288.113 263.676 290.927 264.355C293.303 256.334 294.666 247.492 294.775 238.184H291.328V235.832H294.775C294.666 226.526 293.303 217.682 290.927 209.661C288.113 210.34 285.206 210.948 282.212 211.485C279.243 212.018 276.192 212.476 273.07 212.863C273.128 213.322 273.185 213.783 273.24 214.246H270.874C270.829 213.874 270.783 213.504 270.737 213.135C264.459 213.825 257.911 214.209 251.176 214.246V214.246ZM248.825 211.895C242.187 211.856 235.742 211.481 229.578 210.811C230.751 202.561 232.46 195.139 234.582 188.927C238.374 177.812 243.383 170.653 248.825 169.749V211.895ZM209.771 207.421C211.985 200.626 214.942 194.476 218.479 189.202C224.857 179.689 233.125 173.036 242.349 170.633C238.484 174.127 235.072 180.213 232.355 188.172C230.189 194.533 228.442 202.117 227.243 210.539C224.151 210.159 221.131 209.704 218.2 209.18C215.306 208.658 212.489 208.073 209.771 207.421V207.421ZM272.755 210.539C275.849 210.159 278.868 209.704 281.798 209.18C284.698 208.658 287.512 208.073 290.227 207.421C288.013 200.626 285.06 194.476 281.522 189.202C275.141 179.689 266.872 173.036 257.653 170.633C261.514 174.127 264.926 180.213 267.641 188.172C269.811 194.533 271.561 202.117 272.755 210.539V210.539ZM290.227 266.595C288.013 273.383 285.06 279.535 281.522 284.812C275.141 294.326 266.872 300.978 257.653 303.381C261.514 299.884 264.926 293.802 267.641 285.843C269.811 279.481 271.561 271.899 272.755 263.477C275.849 263.857 278.868 264.312 281.798 264.836C284.698 265.353 287.507 265.943 290.227 266.595V266.595ZM227.243 263.477C224.151 263.857 221.134 264.312 218.2 264.836C215.306 265.353 212.489 265.943 209.771 266.595C211.985 273.383 214.942 279.535 218.479 284.812C224.857 294.326 233.125 300.982 242.349 303.381C238.484 299.884 235.072 293.802 232.355 285.843C230.189 279.481 228.437 271.899 227.243 263.477V263.477Z" fill="#D9DADB"/>
<path fill-rule="evenodd" clip-rule="evenodd" d="M208.709 217.41C209.321 217.476 209.92 217.569 210.531 217.693C211.129 217.806 211.636 217.909 212.03 218.02C212.813 218.248 213.353 218.653 213.678 219.221C213.987 219.776 214.149 220.533 214.174 221.485C214.185 223.103 214.195 224.824 214.195 226.669V232.251C214.207 234.132 214.218 235.954 214.255 237.698C214.288 239.452 214.333 241.047 214.413 242.484C214.483 243.922 214.588 245.124 214.726 246.075C214.946 247.816 215.404 249.425 216.118 250.909C216.835 252.392 217.849 253.681 219.176 254.78C220.499 255.89 222.193 256.75 224.244 257.361C226.294 257.984 228.774 258.289 231.666 258.301C234.041 258.314 236.23 258.029 238.235 257.463C240.241 256.896 242.003 255.981 243.526 254.713C245.045 253.443 246.267 251.768 247.202 249.675C248.135 247.591 248.723 245.033 248.951 241.998C249.068 240.866 249.171 239.542 249.24 238.038C249.32 236.542 249.39 234.933 249.437 233.212C249.483 231.505 249.528 229.772 249.577 228.018C249.621 226.253 249.67 224.554 249.715 222.911C249.772 221.791 249.885 220.896 250.048 220.238C250.209 219.572 250.461 219.074 250.807 218.746C251.144 218.408 251.615 218.167 252.204 218.02C252.581 217.884 253.01 217.771 253.481 217.693C253.953 217.603 254.449 217.501 254.969 217.41L255.107 216.933V216.221L254.969 215.711C254.473 215.711 253.896 215.735 253.226 215.768C252.572 215.801 251.765 215.825 250.832 215.859C249.897 215.891 248.756 215.914 247.432 215.914C245.703 215.903 244.18 215.87 242.868 215.813C241.553 215.755 240.448 215.723 239.547 215.711L239.388 216.254L239.365 216.958L239.479 217.41C240.173 217.501 240.794 217.603 241.358 217.693C241.935 217.771 242.454 217.884 242.938 218.02C243.652 218.146 244.229 218.359 244.664 218.665C245.102 218.984 245.427 219.446 245.633 220.058C245.841 220.68 245.955 221.518 245.979 222.571C246.036 223.659 246.084 224.892 246.105 226.286C246.142 227.667 246.165 229.125 246.165 230.666C246.174 232.194 246.165 233.722 246.153 235.239C246.129 236.759 246.096 238.194 246.036 239.542C245.991 240.889 245.921 242.068 245.841 243.084C245.657 245.43 245.232 247.354 244.549 248.838C243.871 250.329 243.03 251.486 242.003 252.299C240.976 253.115 239.861 253.671 238.625 253.987C237.395 254.294 236.137 254.44 234.846 254.428C232.726 254.416 230.906 254.125 229.396 253.546C227.874 252.969 226.643 252.143 225.686 251.077C224.74 250.015 224.061 248.757 223.646 247.297C223.301 246.244 223.058 245.022 222.895 243.653C222.737 242.284 222.643 240.776 222.607 239.145C222.596 238.422 222.586 237.527 222.575 236.464C222.55 235.387 222.55 234.21 222.539 232.93C222.526 231.651 222.526 230.339 222.526 228.992C222.526 227.631 222.539 226.331 222.55 225.052C222.562 223.772 222.586 222.605 222.607 221.555C222.664 220.443 222.863 219.606 223.207 219.04C223.542 218.473 224.106 218.112 224.89 217.954L227.864 217.41L228.001 216.933V216.221L227.864 215.711C226.826 215.723 225.523 215.755 223.943 215.813C222.355 215.87 220.463 215.903 218.251 215.914C216.858 215.914 215.554 215.891 214.333 215.859C213.114 215.825 212.03 215.792 211.084 215.768C210.129 215.735 209.367 215.711 208.779 215.711L208.631 216.221L208.595 216.933L208.709 217.41ZM273.845 240.436C274.259 240.572 274.71 240.662 275.217 240.707C275.712 240.751 276.265 240.776 276.886 240.776C278.304 240.776 279.7 240.608 281.082 240.244C282.454 239.893 283.801 239.35 285.116 238.602C286.246 237.992 287.27 237.164 288.227 236.134C289.174 235.104 289.933 233.87 290.508 232.42C291.098 230.973 291.396 229.319 291.407 227.462C291.396 225.947 291.188 224.587 290.786 223.388C290.37 222.187 289.829 221.145 289.161 220.263C288.483 219.38 287.732 218.653 286.914 218.089C286.201 217.603 285.427 217.206 284.609 216.899C283.777 216.594 282.961 216.357 282.132 216.197C281.312 216.03 280.529 215.927 279.802 215.859C279.076 215.801 278.455 215.781 277.925 215.781C276.485 215.781 275.124 215.792 273.845 215.813C272.567 215.836 271.275 215.859 269.973 215.882C268.672 215.903 267.264 215.914 265.754 215.914C264.615 215.939 263.472 215.927 262.343 215.891C261.214 215.859 260.179 215.825 259.232 215.781C258.298 215.735 257.539 215.711 256.974 215.711L256.848 216.176L256.801 216.888L256.905 217.41C257.552 217.476 258.135 217.557 258.656 217.66C259.174 217.75 259.683 217.852 260.154 217.954C260.743 218.089 261.19 218.305 261.49 218.6C261.79 218.902 261.998 219.312 262.114 219.809C262.217 220.32 262.285 220.942 262.298 221.69C262.343 222.449 262.378 223.442 262.391 224.676C262.412 225.902 262.423 227.405 262.435 229.184V235.48C262.435 239.61 262.423 242.994 262.391 245.61C262.366 248.237 262.334 250.161 262.298 251.371C262.285 252.143 262.217 252.764 262.103 253.263C261.988 253.749 261.79 254.134 261.502 254.416C261.226 254.702 260.824 254.905 260.292 255.041C259.808 255.142 259.268 255.233 258.667 255.311C258.078 255.392 257.469 255.482 256.836 255.584L256.698 256.059V256.761L256.836 257.283C258.298 257.272 259.902 257.236 261.616 257.182C263.337 257.124 265.086 257.088 266.861 257.08C267.713 257.08 268.625 257.088 269.57 257.112C270.515 257.137 271.449 257.158 272.37 257.182C273.292 257.202 274.145 257.226 274.929 257.248C275.701 257.272 276.358 257.283 276.886 257.283L277.094 256.794L277.143 256.049L277.024 255.516C276.197 255.449 275.436 255.38 274.742 255.29C274.053 255.199 273.43 255.074 272.875 254.905C272.071 254.713 271.507 254.35 271.206 253.806C270.906 253.252 270.746 252.447 270.735 251.371C270.687 250.558 270.665 249.619 270.642 248.552C270.618 247.478 270.605 246.333 270.594 245.135C270.585 243.922 270.585 242.713 270.585 241.491C270.585 240.265 270.585 239.101 270.594 237.992V235.002C270.594 231.913 270.605 229.297 270.618 227.168C270.63 225.04 270.642 223.332 270.665 222.041C270.687 220.749 270.71 219.822 270.735 219.245L270.954 218.665L271.218 218.293C271.413 218.224 271.645 218.167 271.933 218.133C272.209 218.089 272.473 218.065 272.737 218.044L273.362 218.02C275.482 218.032 277.244 218.518 278.661 219.446C280.079 220.386 281.139 221.677 281.844 223.307C282.547 224.949 282.904 226.83 282.904 228.958C282.949 231.152 282.684 232.942 282.132 234.335C281.567 235.738 280.643 236.813 279.376 237.584C278.799 237.923 278.19 238.16 277.545 238.319C276.899 238.467 276.151 238.536 275.296 238.536C274.779 238.536 274.329 238.524 273.972 238.488C273.602 238.467 273.326 238.433 273.155 238.397L272.968 238.626L272.875 238.942L273.061 239.441L273.43 240.028L273.845 240.436Z" fill="#1B1918"/>
<path fill-rule="evenodd" clip-rule="evenodd" d="M164.797 234.941C165.878 189.51 202.506 152.882 247.937 151.803V165.011C209.799 166.085 179.081 196.803 178.007 234.941H164.797Z" fill="#009EE0"/>
<path fill-rule="evenodd" clip-rule="evenodd" d="M247.937 322.208C202.506 321.129 165.878 284.501 164.797 239.07H178.007C179.081 277.208 209.799 307.926 247.937 309V322.208Z" fill="#FFEC00"/>
<path fill-rule="evenodd" clip-rule="evenodd" d="M335.204 239.07C334.124 284.501 297.495 321.129 252.065 322.208V309C290.202 307.926 320.921 277.208 321.995 239.07H335.204Z" fill="#1B1918"/>
<path fill-rule="evenodd" clip-rule="evenodd" d="M252.065 151.803C297.495 152.883 334.124 189.51 335.204 234.941H321.995C320.921 196.803 290.202 166.085 252.065 165.011V151.803Z" fill="#E30079"/>
</svg>
