<svg width="500" height="500" viewBox="0 0 500 500" fill="none" xmlns="http://www.w3.org/2000/svg">
<rect width="500" height="500" fill="#E5E5E5"/>
<path fill-rule="evenodd" clip-rule="evenodd" d="M0 0H500V500H0V0Z" fill="#F0F0F0"/>
<path fill-rule="evenodd" clip-rule="evenodd" d="M246.078 132C291.641 132 329.273 168.933 330.117 214.496C330.961 260.059 294.712 296.993 249.149 296.993C203.586 296.993 165.954 260.059 165.11 214.496C164.266 168.933 200.515 132 246.078 132Z" fill="#E3000F"/>
<path fill-rule="evenodd" clip-rule="evenodd" d="M246.325 145.154C284.627 145.154 316.249 176.209 316.962 214.495C317.675 252.797 287.202 283.837 248.901 283.837C210.6 283.837 178.978 252.797 178.265 214.495C177.566 176.194 208.024 145.154 246.325 145.154Z" fill="white"/>
<path fill-rule="evenodd" clip-rule="evenodd" d="M246.471 152.648C280.639 152.648 308.842 180.341 309.482 214.51C310.122 248.678 282.939 276.371 248.77 276.371C214.602 276.371 186.399 248.678 185.759 214.51C185.133 180.341 212.302 152.648 246.471 152.648Z" fill="#E3000F"/>
<path fill-rule="evenodd" clip-rule="evenodd" d="M225.225 151.967L263.395 248.55L292.31 166.737C295.614 169.837 298.597 173.257 301.231 176.953L264.748 278.585C259.67 279.851 254.344 280.521 248.843 280.521C243.851 280.521 238.991 279.968 234.305 278.92L193.268 176.007C201.01 164.933 212.142 156.434 225.225 151.967Z" fill="white"/>
<path fill-rule="evenodd" clip-rule="evenodd" d="M241.8 274.321L261.256 274.336L261.533 275.034C257.414 275.907 253.151 276.358 248.77 276.358C246.646 276.358 244.55 276.257 242.484 276.038L241.8 274.321ZM192.73 157.205C199.22 157.205 209.494 157.205 215.97 157.22C216.246 157.933 216.537 158.646 216.814 159.359C210.324 159.359 200.064 159.359 193.574 159.359C193.298 158.646 193.006 157.918 192.73 157.205ZM198.071 161.236C204.561 161.236 211.037 161.236 217.527 161.251C217.803 161.964 218.094 162.677 218.385 163.39C211.895 163.39 205.419 163.39 198.929 163.39C198.638 162.677 198.362 161.964 198.071 161.236ZM199.628 165.282C206.118 165.282 212.594 165.282 219.084 165.296C219.375 166.009 219.652 166.722 219.928 167.435C213.438 167.435 206.962 167.435 200.472 167.435C200.21 166.722 199.919 165.995 199.628 165.282ZM201.199 169.312C207.69 169.312 214.18 169.312 220.67 169.327C220.947 170.04 221.238 170.753 221.514 171.466C215.024 171.466 208.548 171.466 202.058 171.466C201.767 170.753 201.476 170.04 201.199 169.312ZM202.756 173.358C209.247 173.358 215.737 173.373 222.227 173.373C222.504 174.086 222.795 174.799 223.071 175.512C216.596 175.512 210.105 175.512 203.63 175.512C203.339 174.799 203.047 174.071 202.756 173.358ZM204.314 177.404C210.804 177.404 217.294 177.404 223.77 177.418C224.046 178.131 224.337 178.844 224.628 179.557C218.138 179.557 211.662 179.557 205.172 179.557C204.896 178.83 204.605 178.117 204.314 177.404ZM208.999 189.511C215.49 189.511 221.965 189.511 228.456 189.525C228.732 190.239 229.023 190.952 229.3 191.665C222.809 191.665 216.334 191.665 209.843 191.665C209.581 190.952 209.29 190.224 208.999 189.511ZM207.442 185.48C213.933 185.48 220.423 185.48 226.913 185.495C227.19 186.208 227.481 186.921 227.757 187.634C221.267 187.634 214.791 187.634 208.301 187.634C208.01 186.906 207.733 186.193 207.442 185.48ZM205.885 181.434C212.375 181.434 218.866 181.434 225.341 181.449C225.632 182.162 225.909 182.875 226.185 183.588C219.695 183.588 213.219 183.588 206.729 183.588C206.453 182.875 206.162 182.148 205.885 181.434ZM210.571 193.556C217.061 193.556 223.537 193.556 230.027 193.571C230.318 194.284 230.595 194.997 230.871 195.71C224.381 195.71 217.905 195.71 211.415 195.71C211.139 194.983 210.847 194.27 210.571 193.556ZM212.128 197.587C218.618 197.587 225.109 197.587 231.599 197.602C231.875 198.315 232.166 199.028 232.443 199.741C225.953 199.741 219.477 199.741 212.987 199.741C212.696 199.028 212.419 198.315 212.128 197.587ZM213.685 201.633C220.175 201.633 226.651 201.633 233.141 201.647C233.418 202.361 233.709 203.074 234 203.787C227.51 203.787 221.034 203.787 214.544 203.787C214.267 203.059 213.976 202.346 213.685 201.633ZM215.257 205.664C221.747 205.664 228.223 205.664 234.713 205.678C235.004 206.391 235.281 207.105 235.557 207.818C229.067 207.818 222.591 207.818 216.101 207.818C215.824 207.105 215.533 206.391 215.257 205.664ZM216.814 209.709C223.304 209.709 229.794 209.709 236.285 209.724C236.561 210.437 236.852 211.15 237.129 211.863C230.638 211.863 224.163 211.863 217.672 211.863C217.381 211.135 217.105 210.422 216.814 209.709ZM218.371 213.74C224.861 213.74 231.351 213.74 237.842 213.755C238.118 214.468 238.409 215.181 238.686 215.894C232.21 215.894 225.72 215.894 219.244 215.894C218.953 215.181 218.662 214.468 218.371 213.74ZM219.943 217.786C226.433 217.786 232.909 217.786 239.399 217.8C239.675 218.513 239.966 219.227 240.243 219.94C233.753 219.94 227.277 219.94 220.787 219.94C220.51 219.227 220.219 218.499 219.943 217.786ZM221.5 221.817C227.99 221.817 234.48 221.817 240.956 221.831C241.247 222.544 241.523 223.257 241.8 223.971C235.31 223.971 228.834 223.971 222.344 223.971C222.067 223.257 221.791 222.544 221.5 221.817ZM223.057 225.862C229.547 225.862 236.037 225.877 242.528 225.877C242.804 226.59 243.095 227.303 243.372 228.016C236.881 228.016 230.406 228.016 223.915 228.016C223.639 227.303 223.348 226.575 223.057 225.862ZM224.628 229.893C231.119 229.893 237.594 229.893 244.085 229.908C244.361 230.621 244.652 231.334 244.929 232.047C238.438 232.047 231.963 232.047 225.472 232.047C225.196 231.334 224.905 230.621 224.628 229.893ZM226.185 233.939C232.676 233.939 239.151 233.953 245.642 233.953C245.918 234.666 246.209 235.379 246.486 236.092C239.995 236.092 233.52 236.092 227.029 236.092C226.753 235.379 226.477 234.652 226.185 233.939ZM227.743 237.97C234.233 237.97 240.723 237.97 247.213 237.984C247.49 238.697 247.781 239.41 248.057 240.123C241.567 240.123 235.091 240.123 228.601 240.123C228.325 239.41 228.034 238.697 227.743 237.97ZM229.314 242.015C235.804 242.015 242.28 242.03 248.77 242.03C249.047 242.743 249.338 243.456 249.629 244.169C243.139 244.169 236.663 244.169 230.173 244.169C229.882 243.456 229.605 242.728 229.314 242.015ZM230.871 246.046C237.362 246.046 243.837 246.061 250.328 246.061C250.619 246.774 250.895 247.487 251.172 248.2C244.681 248.2 238.206 248.2 231.715 248.2C231.439 247.487 231.162 246.774 230.871 246.046ZM232.428 250.092C238.919 250.092 245.409 250.092 251.899 250.106C252.176 250.819 252.467 251.532 252.743 252.245C246.253 252.245 239.777 252.245 233.287 252.245C233.01 251.532 232.719 250.805 232.428 250.092ZM234 254.137C240.49 254.137 246.981 254.152 253.471 254.152C253.747 254.865 254.038 255.578 254.315 256.291C247.839 256.291 241.349 256.291 234.873 256.291C234.568 255.563 234.291 254.85 234 254.137ZM235.557 258.168C242.047 258.168 248.523 258.168 255.013 258.183C255.29 258.896 255.581 259.609 255.857 260.322C249.367 260.322 242.891 260.322 236.401 260.322C236.125 259.609 235.848 258.896 235.557 258.168ZM237.114 262.214C243.604 262.214 250.095 262.228 256.57 262.228C256.861 262.941 257.138 263.654 257.414 264.367C250.924 264.367 244.448 264.367 237.958 264.367C237.696 263.64 237.405 262.927 237.114 262.214ZM238.686 266.245C245.176 266.245 251.666 266.245 258.142 266.259C258.433 266.972 258.71 267.685 258.986 268.398C252.496 268.398 246.02 268.398 239.53 268.398C239.253 267.685 238.962 266.972 238.686 266.245ZM240.243 270.29C246.733 270.29 253.223 270.29 259.714 270.305C259.99 271.018 260.281 271.731 260.558 272.444C254.067 272.444 247.592 272.444 241.101 272.444C240.81 271.716 240.534 271.003 240.243 270.29Z" fill="#E3000F"/>
<path d="M382.825 329.72H398.949L398.963 330.739H398.163C396.955 330.739 396.126 330.884 395.675 331.19C395.224 331.495 394.903 331.903 394.729 332.427C394.554 332.965 394.467 334.289 394.511 336.385L394.845 354.517C394.903 357.835 395.165 360.032 395.602 361.109C396.053 362.186 396.752 363.074 397.741 363.787C398.716 364.5 399.953 364.849 401.423 364.849C403.111 364.849 404.552 364.398 405.716 363.496C406.894 362.593 407.753 361.357 408.321 359.77C408.874 358.184 409.135 355.419 409.048 351.49L408.772 336.385C408.743 334.726 408.568 333.547 408.262 332.834C407.957 332.121 407.578 331.626 407.127 331.364C406.429 330.942 405.454 330.739 404.188 330.739L404.173 329.72H414.985L415 330.739H414.36C413.487 330.739 412.759 330.942 412.191 331.364C411.624 331.787 411.202 332.412 410.954 333.242C410.765 333.824 410.693 334.872 410.707 336.385L410.969 350.457C411.056 354.808 410.867 357.951 410.416 359.887C409.965 361.822 408.815 363.583 406.982 365.213C405.134 366.828 402.587 367.643 399.356 367.643C396.664 367.643 394.554 367.221 393.07 366.363C391.047 365.198 389.592 363.699 388.719 361.88C387.86 360.047 387.394 357.617 387.336 354.532L387.002 336.4C386.958 334.275 386.842 332.951 386.623 332.427C386.419 331.903 386.07 331.495 385.561 331.19C385.066 330.87 384.164 330.739 382.84 330.753L382.825 329.72ZM380.482 353.76L379.551 366.77H351.8L351.785 365.766H352.818C353.721 365.766 354.448 365.577 354.987 365.184C355.38 364.936 355.685 364.5 355.889 363.874C356.049 363.452 356.107 362.302 356.078 360.44L355.627 336.079C355.598 334.188 355.482 333.009 355.307 332.529C355.132 332.048 354.783 331.641 354.259 331.292C353.735 330.942 353.037 330.753 352.164 330.753H351.13L351.116 329.735H367.778L367.793 330.753H366.439C365.523 330.753 364.809 330.942 364.257 331.321C363.864 331.583 363.558 332.005 363.34 332.631C363.18 333.067 363.121 334.217 363.151 336.065L363.587 359.668C363.616 361.56 363.733 362.768 363.936 363.292C364.14 363.816 364.489 364.209 365.042 364.456C365.435 364.631 366.367 364.704 367.836 364.704H370.441C372.1 364.704 373.483 364.354 374.574 363.67C375.665 362.986 376.597 361.895 377.383 360.382C378.168 358.883 378.881 356.685 379.551 353.775H380.482V353.76ZM337.859 317.816H339.358C339.299 320.392 338.601 322.502 337.262 324.118C335.938 325.733 334.366 326.548 332.591 326.548C330.816 326.548 329.229 325.733 327.818 324.118C326.406 322.502 325.606 320.392 325.417 317.816H326.945C327.338 318.966 327.963 319.825 328.807 320.407C329.637 320.989 330.801 321.28 332.314 321.28C334.017 321.28 335.269 320.989 336.083 320.436C336.869 319.868 337.466 318.981 337.859 317.816ZM346.081 328.876L346.328 341.929H345.47C344.378 338.364 342.777 335.643 340.682 333.795C338.601 331.932 336.331 331.001 333.886 331.001C331.558 331.001 329.622 331.787 328.109 333.344C326.595 334.901 325.533 337.069 324.937 339.848C324.34 342.642 324.078 345.495 324.136 348.42C324.209 351.97 324.616 355.085 325.373 357.762C326.13 360.44 327.294 362.404 328.909 363.67C330.51 364.922 332.387 365.548 334.555 365.548C335.312 365.548 336.083 365.46 336.869 365.257C337.655 365.067 338.47 364.791 339.285 364.427L339.139 356.729C339.11 355.274 339.008 354.328 338.834 353.906C338.659 353.484 338.295 353.091 337.772 352.742C337.233 352.392 336.593 352.218 335.836 352.218H335.036L335.021 351.214H350.199L350.214 352.218C349.064 352.305 348.264 352.494 347.813 352.771C347.376 353.062 347.027 353.527 346.794 354.182C346.663 354.532 346.605 355.376 346.634 356.729L346.779 364.427C344.8 365.475 342.734 366.275 340.58 366.814C338.441 367.352 336.2 367.629 333.886 367.629C330.917 367.629 328.458 367.148 326.479 366.188C324.5 365.227 322.754 363.976 321.226 362.419C319.698 360.862 318.504 359.116 317.617 357.166C316.496 354.648 315.9 351.839 315.841 348.725C315.74 343.166 317.297 338.451 320.527 334.61C323.758 330.768 327.876 328.847 332.882 328.847C334.425 328.847 335.836 328.992 337.088 329.269C337.772 329.414 338.863 329.837 340.391 330.52C341.919 331.204 342.821 331.539 343.098 331.539C343.534 331.539 343.927 331.35 344.276 330.986C344.64 330.608 344.96 329.909 345.251 328.876H346.081V328.876ZM295.366 330.942C292.5 330.942 290.36 332.674 288.934 336.138C287.77 338.975 287.246 343.05 287.348 348.376C287.465 354.692 288.483 359.363 290.419 362.39C291.758 364.5 293.62 365.562 295.963 365.562C297.549 365.562 298.859 365.111 299.907 364.194C301.231 363.03 302.25 361.167 302.963 358.606C303.676 356.045 303.981 352.713 303.909 348.609C303.821 343.705 303.37 340.038 302.541 337.622C301.726 335.192 300.722 333.475 299.499 332.47C298.291 331.452 296.909 330.942 295.366 330.942ZM295.046 329.211C300.023 328.992 304.098 330.71 307.27 334.362C310.443 338.029 312.087 342.599 312.189 348.1C312.276 352.8 311.199 356.933 308.944 360.498C305.96 365.227 301.653 367.599 296.05 367.599C290.433 367.599 286.038 365.344 282.881 360.818C280.392 357.253 279.097 353.018 279.01 348.114C278.908 342.613 280.407 338.029 283.492 334.362C286.591 330.71 290.433 328.978 295.046 329.211ZM275.605 353.76L274.673 366.77H246.922L246.908 365.766H247.941C248.843 365.766 249.571 365.577 250.109 365.184C250.502 364.936 250.808 364.5 251.011 363.874C251.171 363.452 251.23 362.302 251.201 360.44L250.749 336.079C250.72 334.188 250.604 333.009 250.429 332.529C250.255 332.048 249.905 331.641 249.382 331.292C248.858 330.942 248.159 330.753 247.286 330.753H246.253L246.238 329.735H262.901L262.915 330.753H261.562C260.645 330.753 259.932 330.942 259.379 331.321C258.986 331.583 258.68 332.005 258.462 332.631C258.302 333.067 258.244 334.217 258.273 336.065L258.709 359.668C258.739 361.56 258.855 362.768 259.059 363.292C259.262 363.816 259.612 364.209 260.165 364.456C260.558 364.631 261.489 364.704 262.959 364.704H265.564C267.223 364.704 268.605 364.354 269.696 363.67C270.788 362.986 271.719 361.895 272.505 360.382C273.291 358.883 274.004 356.685 274.673 353.775H275.605V353.76ZM235.819 348.958H221.019C221.107 354.008 221.441 357.573 222.009 359.668C223.086 363.598 225.152 365.577 228.252 365.577C233.491 365.562 236.023 360.018 235.819 348.958ZM244.026 348.187C244.128 353.862 242.731 358.533 239.835 362.157C236.939 365.795 233.112 367.614 228.354 367.614C223.537 367.614 219.739 365.81 216.93 362.23C214.209 358.737 212.797 354.037 212.681 348.129C212.666 347.721 212.681 347.197 212.725 346.542H235.761C235.571 342.279 234.858 338.844 233.607 336.254C232.006 332.849 229.605 331.146 226.389 331.146C223.944 331.146 221.892 332.019 220.248 333.795C218.604 335.556 217.57 337.884 217.163 340.78H216.334L216.115 328.876H216.945C217.381 330.433 218.065 331.219 219.011 331.219C219.462 331.219 220.626 330.826 222.504 330.04C224.381 329.269 226.258 328.876 228.106 328.876C232.617 328.876 236.372 330.724 239.355 334.42C242.367 338.117 243.924 342.701 244.026 348.187ZM206.409 328.876L206.904 341.216H205.958C205.463 338.117 204.313 335.628 202.538 333.737C200.763 331.859 198.856 330.913 196.834 330.913C195.262 330.913 194.04 331.408 193.137 332.412C192.235 333.402 191.799 334.551 191.828 335.847C191.842 336.661 192.017 337.389 192.351 338.029C192.803 338.888 193.545 339.732 194.534 340.561C195.262 341.173 196.95 342.235 199.598 343.763C203.295 345.902 205.798 347.91 207.107 349.802C208.403 351.694 209.072 353.862 209.13 356.307C209.188 359.407 208.213 362.07 206.234 364.296C204.241 366.523 201.665 367.643 198.536 367.643C197.547 367.643 196.615 367.527 195.742 367.294C194.869 367.046 193.749 366.61 192.424 365.955C191.682 365.591 191.071 365.417 190.591 365.417C190.183 365.417 189.761 365.591 189.339 365.955C188.903 366.319 188.553 366.872 188.291 367.629H187.447L187.185 353.644H188.03C188.786 357.573 190.14 360.571 192.104 362.637C194.069 364.704 196.164 365.737 198.391 365.737C200.108 365.737 201.476 365.184 202.465 364.063C203.469 362.957 203.95 361.662 203.92 360.178C203.906 359.305 203.688 358.446 203.28 357.631C202.873 356.816 202.262 356.03 201.447 355.303C200.632 354.561 199.206 353.6 197.154 352.422C194.287 350.763 192.206 349.351 190.954 348.187C189.688 347.023 188.713 345.713 188.015 344.287C187.316 342.846 186.953 341.26 186.924 339.528C186.865 336.589 187.738 334.071 189.528 331.99C191.318 329.924 193.603 328.891 196.382 328.891C197.401 328.891 198.376 329.036 199.337 329.313C200.064 329.531 200.952 329.938 202 330.535C203.047 331.117 203.79 331.423 204.197 331.423C204.604 331.423 204.91 331.277 205.128 330.986C205.361 330.695 205.565 329.997 205.74 328.891H206.409V328.876ZM183.737 329.72L183.751 330.739C182.718 330.899 181.932 331.248 181.394 331.801C180.637 332.572 179.458 334.653 177.872 338.059L171.353 351.461L171.513 360.425C171.542 362.332 171.644 363.525 171.833 363.99C172.008 364.442 172.357 364.864 172.852 365.213C173.361 365.577 174.03 365.751 174.86 365.751H176.606L176.621 366.755H159.1L159.085 365.751H160.715C161.632 365.751 162.359 365.562 162.883 365.169C163.276 364.922 163.582 364.485 163.8 363.86C163.96 363.438 164.033 362.288 163.989 360.425L163.844 352.989L156.189 337.127C154.661 333.998 153.614 332.165 153.002 331.597C152.391 331.044 151.591 330.753 150.601 330.739L150.587 329.72H165.561L165.575 330.739H164.906C164.004 330.739 163.364 330.884 163.014 331.204C162.665 331.51 162.49 331.845 162.49 332.179C162.505 332.834 163.145 334.479 164.426 337.127L170.305 349.395L175.718 338.219C177.057 335.483 177.727 333.678 177.712 332.776C177.697 332.296 177.494 331.874 177.086 331.554C176.562 331.103 175.587 330.826 174.19 330.739L174.176 329.72H183.737V329.72ZM131.611 331.859L131.887 346.935H132.513C134.492 346.935 135.918 346.193 136.777 344.723C137.635 343.254 138.159 341.071 138.363 338.189H139.236L139.6 357.588H138.727C138.494 355.477 138.086 353.746 137.461 352.392C136.835 351.039 136.136 350.137 135.336 349.671C134.55 349.22 133.401 348.987 131.916 348.987L132.105 359.421C132.149 361.458 132.236 362.71 132.396 363.161C132.542 363.612 132.833 363.99 133.241 364.282C133.633 364.587 134.288 364.718 135.191 364.718H137.053C139.964 364.718 142.292 363.918 144.024 362.317C145.755 360.716 146.963 358.286 147.676 354.997H148.52L147.342 366.77H120.347L120.333 365.766H121.366C122.268 365.766 122.996 365.577 123.549 365.184C123.942 364.936 124.247 364.5 124.451 363.874C124.611 363.452 124.684 362.302 124.64 360.44L124.189 336.079C124.16 334.406 124.102 333.373 124.014 332.994C123.854 332.354 123.549 331.859 123.141 331.525C122.545 331.015 121.744 330.753 120.726 330.753H119.692L119.678 329.735H145.828L146.032 340.692H145.159C144.664 338.015 144.009 336.094 143.165 334.93C142.336 333.766 141.186 332.907 139.702 332.369C138.843 332.034 137.228 331.874 134.856 331.874H131.611V331.859ZM118.223 329.72L118.237 330.739C117.102 330.957 116.113 331.67 115.239 332.892C114.614 333.809 113.697 335.934 112.475 339.31L102.23 367.599H101.473L90.2097 338.16C88.8563 334.61 87.9541 332.514 87.503 331.903C87.0519 331.277 86.2224 330.884 85 330.724V329.72H99.9742L99.9888 330.739H99.494C98.1406 330.739 97.2238 330.928 96.7436 331.335C96.3944 331.612 96.2343 332.005 96.2343 332.543C96.2343 332.863 96.3071 333.256 96.438 333.707C96.569 334.144 97.0056 335.352 97.7477 337.302L104.747 355.739L110.612 339.325C111.31 337.345 111.747 336.007 111.892 335.337C112.053 334.668 112.125 334.086 112.111 333.606C112.096 333.067 111.98 332.587 111.718 332.165C111.47 331.743 111.092 331.423 110.626 331.219C109.957 330.899 109.069 330.753 107.992 330.753L107.978 329.735H118.223V329.72Z" fill="#E3000F"/>
</svg>
