<svg width="500" height="500" viewBox="0 0 500 500" fill="none" xmlns="http://www.w3.org/2000/svg">
<rect width="500" height="500" fill="#F0F0F0"/>
<path d="M250 376C322.349 376 381 319.364 381 249.5C381 179.636 322.349 123 250 123C177.651 123 119 179.636 119 249.5C119 319.364 177.651 376 250 376Z" fill="#131F28"/>
<path d="M255 273.918C258.465 273.927 261.517 273.94 264.569 273.945C271.028 273.954 277.492 273.918 283.951 273.999C285.337 274.018 286.093 273.563 286.786 272.471C288.721 269.427 290.786 266.461 293 263.167C289.79 262.967 286.887 262.781 283.985 262.603C282.421 262.503 280.856 262.335 279.292 262.335C277.843 262.33 277.497 261.957 277.949 260.556C280.635 252.281 283.22 243.974 285.838 235.68C286.733 232.846 287.619 230.012 288.504 227.177C288.389 227.118 288.278 227.059 288.163 227C277.179 242.536 266.195 258.077 255 273.918Z" fill="#FBB040"/>
<path d="M271.697 279C270.926 278.991 270.841 279.55 270.693 280.068C268.19 288.742 265.682 297.415 263.188 306.094C263.031 306.639 262.779 307.226 263.383 308C269.57 298.405 275.69 288.907 282 279.119C278.336 279.078 275.019 279.046 271.697 279Z" fill="white"/>
<path d="M230.659 231C243.361 231.009 253.023 240.296 253 252.472C252.972 264.589 243.066 274.023 230.388 274C217.592 273.977 207.991 264.709 208 252.376C208.009 240.213 217.779 230.991 230.659 231ZM217.807 252.385C217.812 259.838 223.34 265.536 230.565 265.531C237.758 265.527 243.183 259.912 243.188 252.477C243.188 245.074 237.618 239.45 230.294 239.469C223.125 239.482 217.803 244.983 217.807 252.385Z" fill="white"/>
<path d="M314.463 232.029C319.681 232.029 324.904 232.066 330.122 232.001C331.468 231.982 332.107 232.242 331.985 233.761C331.841 235.558 331.888 237.383 331.976 239.19C332.032 240.325 331.627 240.64 330.523 240.621C327.368 240.561 324.209 240.672 321.055 240.57C319.541 240.524 319.094 241.006 319.103 242.511C319.164 252.225 319.136 261.939 319.136 271.657C319.136 273.955 319.136 273.955 316.746 273.959C315.045 273.959 313.34 273.862 311.649 273.987C310.144 274.098 309.832 273.496 309.836 272.125C309.887 262.471 309.864 252.818 309.864 243.16C309.864 240.603 309.859 240.603 307.32 240.598C304.348 240.598 301.371 240.566 298.398 240.612C297.392 240.631 296.982 240.334 297.014 239.283C297.08 237.356 297.103 235.419 297.005 233.492C296.94 232.219 297.504 232.006 298.617 232.015C303.896 232.056 309.179 232.033 314.458 232.033C314.463 232.029 314.463 232.029 314.463 232.029Z" fill="white"/>
<path d="M161.764 233.347C161.397 232.577 161.888 231.812 162.804 231.812H170.934C171.426 231.812 171.85 232.167 171.974 232.462L182.061 254.01H182.428L192.514 232.462C192.638 232.167 193.063 231.812 193.554 231.812H201.684C202.601 231.812 203.092 232.577 202.725 233.347L183.53 273.075C183.349 273.429 182.982 273.724 182.49 273.724H181.879C181.393 273.724 181.025 273.429 180.839 273.075L161.764 233.347Z" fill="white"/>
</svg>
