<svg width="500" height="500" viewBox="0 0 500 500" fill="none" xmlns="http://www.w3.org/2000/svg">
<rect width="500" height="500" fill="#F0F0F0"/>
<path d="M118.378 279.994C116.908 279.994 115.438 279.997 113.968 279.994C111.31 279.986 109.961 279.017 108.947 276.352C102.238 258.715 95.5329 241.079 88.8256 223.442C86.7378 217.953 84.7356 212.425 82.5344 206.993C80.8575 202.851 83.2933 198.63 87.5194 199.026C89.5215 199.214 91.5488 199.056 93.5661 199.059C96.4482 199.061 97.7468 200.011 98.8386 202.917C104.078 216.897 109.318 230.875 114.548 244.86C115.13 246.418 115.849 247.807 117.377 248.489C119.815 249.578 122.261 248.38 123.376 245.485C125.484 240.007 127.561 234.514 129.649 229.027C132.965 220.313 136.273 211.598 139.591 202.887C140.701 199.97 141.967 199.061 144.882 199.061C146.478 199.061 148.084 199.181 149.67 199.037C153.669 198.674 156.07 202.881 154.529 206.796C151.115 215.464 147.85 224.201 144.539 232.916C139.251 246.825 133.976 260.737 128.693 274.649C128.424 275.361 128.121 276.057 127.831 276.761C126.933 278.941 125.385 280.021 123.171 280C121.57 279.981 119.974 279.994 118.378 279.994Z" fill="#074550"/>
<path d="M275.339 257.029C273.126 260.722 269.985 262.878 266.263 264.326C270.398 270.709 274.466 276.991 278.674 283.486C276.722 283.486 274.996 283.47 273.273 283.494C272.636 283.503 272.455 282.963 272.176 282.534C268.715 277.199 265.248 271.866 261.819 266.506C261.361 265.789 260.913 265.524 260.103 265.576C254.93 265.915 249.75 265.713 244.573 265.721C243.593 265.721 243.327 266.008 243.339 267.086C243.391 272.099 243.324 277.111 243.391 282.124C243.406 283.306 243.08 283.609 242.071 283.511C241.044 283.412 239.997 283.434 238.968 283.505C238.174 283.56 238.005 283.226 238.005 282.411C238.025 264.457 238.025 246.506 238 228.552C237.998 227.666 238.266 227.513 238.995 227.515C245.376 227.545 251.755 227.513 258.136 227.548C261.647 227.567 265.064 228.246 268.272 229.844C273.561 232.476 276.737 236.955 277.704 243.557C278.746 241.412 279.706 239.472 280.974 237.751C284.936 232.369 290.049 229.061 296.189 227.726C303.89 226.052 311.211 227.19 317.824 232.019C324.516 236.905 328.102 243.926 328.863 252.689C329.447 259.439 328.181 265.732 324.742 271.404C320.905 277.738 315.486 281.601 308.772 283.169C301.01 284.983 293.592 283.918 286.863 279.084C280.049 274.189 276.436 267.108 275.64 258.241C275.605 257.896 275.697 257.516 275.339 257.029ZM280.842 255.417C280.825 268.766 289.919 278.682 302.194 278.703C314.442 278.722 323.603 268.867 323.623 255.65C323.645 242.262 314.574 232.3 302.339 232.281C290.036 232.26 280.86 242.134 280.842 255.417ZM243.359 246.656C243.359 250.938 243.386 255.22 243.339 259.502C243.329 260.463 243.568 260.717 244.436 260.706C248.867 260.657 253.299 260.689 257.73 260.676C259.936 260.668 262.097 260.304 264.201 259.562C272.753 256.555 275.531 243.732 269.095 236.881C266.461 234.079 263.127 233.056 259.595 232.777C254.51 232.38 249.412 232.692 244.319 232.588C243.553 232.571 243.337 232.84 243.344 233.671C243.379 238 243.359 242.328 243.359 246.656Z" fill="#404041"/>
<path d="M147.449 300.927C145.912 300.927 144.378 300.927 142.841 300.927C140.7 300.927 139.155 299.905 138.336 297.773C135.608 290.693 132.908 283.599 130.178 276.519C129.911 275.826 129.96 275.219 130.221 274.546C132.637 268.314 135.036 262.072 137.439 255.835C137.488 255.709 137.554 255.591 137.595 255.462C137.764 254.923 137.967 254.371 138.6 254.41C139.15 254.442 139.309 254.975 139.488 255.451C140.843 259.045 142.206 262.636 143.566 266.227C143.709 266.606 143.855 266.985 144.006 267.364C144.795 269.367 146.158 270.526 148.228 270.504C150.238 270.482 151.575 269.342 152.331 267.386C153.945 263.215 155.548 259.042 157.152 254.866C160.392 246.431 163.624 237.996 166.867 229.564C167.894 226.893 169.146 226.009 171.864 226.003C173.57 226 175.279 225.998 176.984 226.003C180.878 226.017 183.004 229.421 181.531 233.333C180.084 237.183 178.593 241.013 177.123 244.851C170.64 261.767 164.16 278.684 157.679 295.597C157.566 295.891 157.446 296.185 157.351 296.487C156.299 299.798 154.198 301.312 150.904 300.947C149.762 300.82 148.602 300.927 147.449 300.927Z" fill="#074550"/>
<path d="M379.022 255.967C379.022 247.129 379.038 238.291 379 229.453C378.995 228.378 379.151 227.987 380.25 228C386.4 228.069 392.553 228.011 398.704 228.047C403.428 228.074 407.956 229.026 411.979 231.937C416.514 235.222 418.68 240.006 418.966 245.843C419.522 257.238 413.248 264.099 403.582 265.817C398.299 266.757 392.961 266.172 387.65 266.339C386.589 266.372 385.18 265.814 384.567 266.604C384.046 267.277 384.384 268.771 384.381 269.903C384.37 274.187 384.354 278.467 384.394 282.751C384.405 283.67 384.232 284.064 383.317 283.99C382.243 283.9 381.152 283.9 380.08 283.99C379.162 284.069 379.003 283.676 379.003 282.759C379.035 273.826 379.022 264.897 379.022 255.967ZM384.378 247.172C384.378 251.453 384.4 255.734 384.359 260.015C384.354 260.912 384.586 261.164 385.41 261.155C389.813 261.109 394.219 261.155 398.623 261.12C400.537 261.104 402.437 260.849 404.292 260.316C413.523 257.663 416.952 244.867 410.37 237.571C407.71 234.625 404.292 233.567 400.658 233.28C395.556 232.878 390.439 233.195 385.334 233.088C384.546 233.072 384.357 233.381 384.362 234.193C384.392 238.518 384.378 242.845 384.378 247.172Z" fill="#404041"/>
<path d="M232.964 266.301C232.964 269.303 232.894 272.308 232.997 275.307C233.042 276.618 232.573 277.364 231.664 278.093C227.412 281.507 222.61 283.299 217.401 283.821C209.951 284.566 202.977 283.056 196.943 278.003C189.392 271.682 186.332 263.084 187.12 252.959C187.936 242.454 192.741 234.502 201.637 230.171C211.264 225.483 220.86 225.877 229.97 232.129C231.17 232.951 232.872 233.918 232.972 235.196C233.062 236.346 231.257 237.319 230.366 238.449C230.018 238.892 229.781 238.895 229.377 238.471C222.01 230.731 209.22 230.766 201.469 236.507C196.145 240.449 193.17 245.958 192.507 252.92C191.777 260.582 193.78 267.244 199.009 272.521C204.034 277.59 210.157 279.216 216.859 278.628C220.318 278.325 223.564 277.271 226.563 275.315C227.409 274.763 227.771 274.192 227.758 273.075C227.698 267.664 227.756 262.251 227.708 256.837C227.698 255.824 227.924 255.466 228.88 255.553C229.917 255.649 230.974 255.635 232.013 255.556C232.804 255.496 232.992 255.786 232.982 256.619C232.939 259.842 232.964 263.073 232.964 266.301Z" fill="#404041"/>
<path d="M336.382 247.028C336.482 251.608 336.128 257.212 336.557 262.792C337.036 269.025 338.92 274.488 344.664 277.205C348.722 279.125 352.989 279.149 357.251 278.02C361.593 276.869 364.577 273.979 366.224 269.472C367.31 266.498 367.715 263.385 367.72 260.211C367.736 250.062 367.755 239.91 367.699 229.761C367.691 228.361 368.004 227.86 369.303 228.033C370.205 228.152 371.134 228.117 372.044 228.038C372.837 227.968 373.01 228.28 373 229.098C372.954 232.256 372.981 235.414 372.981 238.572C372.978 245.969 373.005 253.369 372.964 260.766C372.94 264.669 372.346 268.478 370.899 272.085C368.765 277.394 365.133 280.975 360.054 282.66C354.594 284.472 349.068 284.469 343.626 282.514C337.49 280.309 333.812 275.547 332.066 268.924C331.354 266.229 331.025 263.456 331.025 260.647C331.022 250.181 331.032 239.715 331 229.249C330.998 228.336 331.16 227.96 332.073 228.038C333.148 228.13 334.236 228.125 335.312 228.041C336.205 227.971 336.41 228.312 336.402 229.244C336.363 234.829 336.382 240.422 336.382 247.028Z" fill="#404041"/>
</svg>
