<svg width="500" height="500" viewBox="0 0 500 500" fill="none" xmlns="http://www.w3.org/2000/svg">
<rect width="500" height="500" fill="#F0F0F0"/>
<path fill-rule="evenodd" clip-rule="evenodd" d="M0 0H500V500H0V0Z" fill="#F0F0F0"/>
<path fill-rule="evenodd" clip-rule="evenodd" d="M424.5 269.732C406.181 299.475 335.122 321.649 250.25 321.649C165.378 321.649 94.3195 299.475 76 269.732C95.8111 296.216 166.313 315.799 250.25 315.799C334.187 315.793 404.689 296.211 424.5 269.732Z" fill="#78772B"/>
<path fill-rule="evenodd" clip-rule="evenodd" d="M250.25 179C335.116 179 406.181 201.173 424.5 230.917C404.689 204.438 334.187 184.85 250.25 184.85C166.313 184.85 95.8111 204.438 76 230.917C94.3195 201.173 165.378 179 250.25 179Z" fill="#78772B"/>
<path d="M97.0958 230.63H118.112L100.026 256.625H111.28C113.403 256.625 114.906 256.217 115.771 255.404C116.546 254.693 117.236 253.201 117.857 250.94H118.484L117.162 258.324H94.2451V257.597L111.88 232.249H103.179C101.035 232.249 99.5695 232.578 98.7892 233.236C97.9557 233.937 97.4461 235.354 97.2603 237.483H96.5543L97.0958 230.63ZM170.204 230.63L170.538 236.713H169.859C169.54 234.394 168.659 232.992 167.21 232.514C166.626 232.334 165.819 232.238 164.789 232.238H157.124V242.919H163.982C166.307 242.919 167.47 241.576 167.47 238.89H168.165V248.641H167.47C167.47 247.155 167.22 246.115 166.716 245.509C166.175 244.856 165.203 244.527 163.818 244.527H157.124V254.523C157.124 255.394 157.267 255.983 157.559 256.27C157.851 256.556 158.424 256.7 159.284 256.7H164.794C166.663 256.7 168.128 256.254 169.2 255.362C170.045 254.656 170.963 253.339 171.945 251.407H172.683L170.544 258.313H149.108V257.549C151.173 257.549 152.383 256.992 152.739 255.877C152.877 255.42 152.946 254.428 152.946 252.909V235.975C152.946 234.68 152.919 233.884 152.866 233.597C152.707 232.732 152.282 232.127 151.614 231.792C151.072 231.532 150.239 231.384 149.108 231.357V230.63H170.204ZM231.4 230.63V231.394C229.998 231.394 228.777 231.904 227.737 232.923C227.132 233.502 226.309 234.638 225.268 236.321L219.036 246.444V252.878C219.036 254.199 219.063 255.001 219.116 255.288C219.275 256.169 219.721 256.774 220.432 257.114C221.006 257.4 221.924 257.544 223.182 257.544V258.308H210.782V257.544C212.937 257.517 214.211 256.992 214.588 255.972C214.763 255.5 214.853 254.475 214.853 252.878V246.683L207.581 235.423C206.471 233.709 205.792 232.732 205.532 232.482C204.788 231.75 203.764 231.389 202.453 231.389V230.625H214.232V231.389C212.204 231.389 211.19 231.761 211.19 232.504C211.19 233.109 211.62 234.075 212.48 235.423L218.298 244.57L223.384 236.31C224.605 234.314 225.21 233.05 225.21 232.53C225.21 231.761 224.35 231.368 222.635 231.368L222.407 231.389V230.625H231.4V230.63ZM261.477 230.63H284.904L285.28 236.878H284.527C284.314 235.131 283.725 233.916 282.764 233.231C281.936 232.652 280.641 232.366 278.852 232.366H275.269V252.915C275.269 254.226 275.295 255.012 275.348 255.272C275.486 256.11 275.89 256.716 276.564 257.087C277.121 257.4 277.997 257.56 279.186 257.56V258.324H267.248V257.56C269.334 257.56 270.549 257.002 270.879 255.887C271.017 255.431 271.086 254.438 271.086 252.92V232.371H267.64C266.335 232.371 265.443 232.44 264.949 232.567C264.105 232.78 263.404 233.279 262.852 234.059C262.295 234.839 261.982 235.784 261.902 236.889H261.207L261.477 230.63ZM315.783 231.394V230.63H327.679V231.394C325.71 231.447 324.558 231.994 324.223 233.024C324.075 233.48 323.995 234.484 323.995 236.013V248.291C323.995 249.931 324.032 251.02 324.112 251.556C324.271 252.644 324.68 253.637 325.327 254.534C326.612 256.328 328.677 257.225 331.528 257.225C333.274 257.225 334.798 256.896 336.114 256.243C337.659 255.452 338.689 254.29 339.22 252.74C339.692 251.391 339.926 249.56 339.926 247.251V236.013C339.926 234.717 339.899 233.916 339.846 233.613C339.687 232.759 339.257 232.164 338.572 231.819C338.004 231.543 337.117 231.405 335.928 231.389V230.625H345.733V231.389C343.504 231.389 342.208 231.904 341.831 232.939C341.672 233.417 341.587 234.436 341.587 236.007V247.229C341.587 249.682 341.343 251.593 340.849 252.973C340.191 254.767 339.002 256.206 337.271 257.284C335.541 258.367 333.492 258.908 331.124 258.908C326.957 258.908 323.947 257.862 322.084 255.765C320.566 254.072 319.812 251.519 319.812 248.116V236.007C319.812 234.712 319.78 233.91 319.716 233.608C319.557 232.743 319.132 232.137 318.448 231.792C317.88 231.543 316.993 231.41 315.783 231.394ZM406.249 230.63V231.394H405.209C403.781 231.394 402.879 231.676 402.496 232.238C402.204 232.668 402.066 233.688 402.066 235.285V258.632H401.536L382.494 236.331V252.766C382.494 253.934 382.547 254.746 382.643 255.224C382.86 256.163 383.306 256.795 383.986 257.114C384.501 257.363 385.297 257.501 386.369 257.544V258.308H376.761V257.544C378.943 257.491 380.201 256.907 380.546 255.797C380.705 255.245 380.79 253.876 380.79 251.694V234.595C379.617 232.461 377.807 231.389 375.365 231.389V230.625H383.083L400.362 251.073V235.524C400.362 233.948 400.246 232.934 400.023 232.477C399.672 231.761 398.834 231.394 397.512 231.394H396.493V230.63H406.249Z" fill="#231F20"/>
<path d="M96.4909 270.73V273.501C96.4909 274.106 96.5546 274.478 96.6873 274.621C96.8519 274.823 97.112 274.924 97.4571 274.924H97.8074V275.184H93.9004V274.924H94.2455C94.6224 274.924 94.8984 274.797 95.0736 274.536C95.1532 274.382 95.1957 274.037 95.1957 273.496V267.354C95.1957 266.76 95.1373 266.383 95.0205 266.234C94.8453 266.032 94.5852 265.931 94.2455 265.931H93.9004V265.671H97.2394C98.0569 265.671 98.6993 265.756 99.1664 265.931C99.6495 266.112 100.048 266.409 100.371 266.823C100.69 267.237 100.854 267.726 100.854 268.304C100.854 269.079 100.61 269.711 100.127 270.194C99.6282 270.682 98.9275 270.932 98.0251 270.932C97.8021 270.932 97.5685 270.916 97.3243 270.884C97.0642 270.847 96.7882 270.794 96.4909 270.73ZM96.4909 270.332C96.7298 270.38 96.9421 270.412 97.1279 270.422C97.3137 270.454 97.473 270.47 97.6004 270.47C98.0675 270.47 98.4763 270.279 98.816 269.897C99.1558 269.52 99.3203 269.037 99.3203 268.442C99.3203 268.028 99.2407 267.646 99.0761 267.29C98.9222 266.94 98.6886 266.68 98.386 266.505C98.0888 266.324 97.749 266.234 97.3721 266.234C97.1439 266.234 96.8466 266.282 96.4856 266.377V270.332H96.4909ZM116.419 270.083H120.655V267.37C120.655 266.882 120.628 266.558 120.581 266.404C120.528 266.282 120.432 266.181 120.289 266.101C120.098 265.99 119.891 265.931 119.673 265.931H119.344V265.671H123.261V265.931H122.932C122.72 265.931 122.518 265.979 122.327 266.085C122.179 266.165 122.083 266.282 122.035 266.436C121.977 266.584 121.95 266.898 121.95 267.37V273.496C121.95 273.979 121.982 274.292 122.035 274.446C122.083 274.563 122.173 274.664 122.311 274.749C122.513 274.866 122.72 274.924 122.932 274.924H123.261V275.184H119.344V274.924H119.673C120.039 274.924 120.315 274.807 120.49 274.579C120.597 274.425 120.65 274.064 120.65 273.501V270.587H116.414V273.491C116.414 273.968 116.44 274.282 116.493 274.436C116.546 274.547 116.637 274.648 116.769 274.738C116.96 274.86 117.173 274.919 117.396 274.919H117.725V275.179H113.807V274.919H114.136C114.513 274.919 114.784 274.802 114.954 274.574C115.06 274.42 115.113 274.064 115.113 273.496V267.37C115.113 266.876 115.081 266.558 115.017 266.399C114.98 266.276 114.89 266.176 114.741 266.096C114.55 265.984 114.343 265.926 114.136 265.926H113.807V265.666H117.725V265.926H117.406C117.183 265.926 116.971 265.974 116.78 266.08C116.647 266.16 116.552 266.276 116.488 266.43C116.445 266.579 116.419 266.892 116.419 267.359V270.083ZM142.106 272.01H138.56L137.934 273.507C137.785 273.868 137.711 274.144 137.711 274.324C137.711 274.478 137.775 274.605 137.907 274.706C138.035 274.823 138.322 274.897 138.762 274.924L138.767 275.184H135.89V274.924C136.267 274.855 136.517 274.765 136.639 274.648C136.862 274.42 137.111 273.963 137.393 273.284L140.615 265.464H140.854L144.028 273.374C144.283 274.006 144.516 274.414 144.729 274.595C144.931 274.786 145.223 274.897 145.599 274.924V275.184H142V274.924C142.361 274.903 142.605 274.844 142.728 274.733C142.86 274.632 142.924 274.499 142.924 274.335C142.924 274.133 142.839 273.814 142.664 273.374L142.106 272.01ZM141.921 271.479L140.371 267.646L138.767 271.479H141.921ZM167.327 275.184H164.874L161.78 270.736C161.551 270.746 161.36 270.751 161.212 270.751C161.159 270.751 161.095 270.751 161.02 270.751C160.951 270.751 160.882 270.746 160.813 270.736V273.507C160.813 274.101 160.877 274.467 161.01 274.611C161.185 274.823 161.44 274.929 161.78 274.929H162.141V275.189H158.223V274.929H158.568C158.955 274.929 159.232 274.802 159.396 274.542C159.486 274.388 159.534 274.043 159.534 273.507V267.37C159.534 266.775 159.476 266.404 159.359 266.25C159.184 266.048 158.918 265.947 158.568 265.947H158.223V265.682H161.551C162.523 265.682 163.245 265.751 163.701 265.9C164.163 266.048 164.556 266.319 164.874 266.712C165.198 267.105 165.358 267.572 165.358 268.119C165.358 268.702 165.172 269.212 164.805 269.642C164.434 270.072 163.871 270.38 163.107 270.56L164.991 273.284C165.427 273.91 165.793 274.324 166.106 274.536C166.419 274.738 166.828 274.866 167.327 274.924V275.184ZM160.819 270.3C160.904 270.3 160.978 270.3 161.042 270.3C161.111 270.3 161.164 270.3 161.201 270.3C162.077 270.3 162.735 270.104 163.17 269.711C163.616 269.318 163.839 268.819 163.839 268.219C163.839 267.625 163.659 267.147 163.303 266.775C162.942 266.409 162.47 266.223 161.88 266.223C161.62 266.218 161.265 266.261 160.819 266.345V270.3ZM185.084 275.184L181.548 267.184V273.528C181.548 274.112 181.612 274.473 181.739 274.621C181.904 274.823 182.169 274.924 182.53 274.924H182.849V275.184H179.669V274.924H179.988C180.375 274.924 180.651 274.802 180.816 274.568C180.911 274.414 180.954 274.069 180.954 273.528V267.322C180.954 266.903 180.911 266.595 180.826 266.404C180.763 266.276 180.651 266.16 180.481 266.064C180.306 265.979 180.035 265.937 179.664 265.937V265.677H182.249L185.572 273.114L188.837 265.677H191.422V265.937H191.104C190.716 265.937 190.44 266.059 190.275 266.292C190.18 266.446 190.132 266.791 190.132 267.322V273.528C190.132 274.112 190.19 274.473 190.313 274.621C190.477 274.823 190.743 274.924 191.104 274.924H191.422V275.184H187.542V274.924H187.865C188.263 274.924 188.534 274.802 188.688 274.568C188.789 274.414 188.837 274.069 188.837 273.528V267.184L185.307 275.184H185.084ZM210.272 272.01H206.726L206.1 273.507C205.951 273.868 205.877 274.144 205.877 274.324C205.877 274.478 205.941 274.605 206.073 274.706C206.201 274.823 206.487 274.897 206.928 274.924L206.933 275.184H204.056V274.924C204.433 274.855 204.683 274.765 204.805 274.648C205.028 274.42 205.277 273.963 205.558 273.284L208.781 265.464H209.02L212.194 273.374C212.449 274.006 212.682 274.414 212.895 274.595C213.096 274.786 213.388 274.897 213.765 274.924V275.184H210.166V274.924C210.527 274.903 210.771 274.844 210.893 274.733C211.026 274.632 211.09 274.499 211.09 274.335C211.09 274.133 211.005 273.814 210.83 273.374L210.272 272.01ZM210.087 271.479L208.536 267.646L206.933 271.479H210.087ZM234.468 265.464L234.675 268.692H234.468C234.192 267.72 233.799 267.025 233.284 266.595C232.759 266.165 232.138 265.947 231.421 265.947C230.811 265.947 230.264 266.112 229.776 266.436C229.277 266.754 228.894 267.269 228.618 267.97C228.332 268.665 228.183 269.531 228.183 270.571C228.183 271.436 228.316 272.179 228.581 272.811C228.852 273.443 229.25 273.926 229.786 274.26C230.322 274.595 230.928 274.759 231.607 274.759C232.196 274.759 232.722 274.627 233.184 274.361C233.63 274.106 234.129 273.581 234.67 272.801L234.877 272.939C234.426 273.788 233.89 274.409 233.274 274.802C232.669 275.195 231.941 275.391 231.092 275.391C229.59 275.391 228.422 274.807 227.589 273.639C226.962 272.763 226.644 271.739 226.644 270.566C226.644 269.621 226.851 268.75 227.27 267.959C227.673 267.163 228.236 266.547 228.953 266.101C229.675 265.671 230.455 265.459 231.299 265.459C231.963 265.459 232.616 265.624 233.258 265.947C233.444 266.059 233.576 266.117 233.656 266.117C233.778 266.117 233.884 266.075 233.975 265.995C234.097 265.868 234.176 265.693 234.224 265.464H234.468ZM250.489 266.207V269.955H252.49C253.016 269.955 253.366 269.876 253.542 269.711C253.78 269.493 253.908 269.117 253.924 268.586H254.184V271.893H253.924C253.871 271.431 253.812 271.134 253.749 271.001C253.664 270.836 253.526 270.709 253.345 270.608C253.159 270.529 252.878 270.486 252.49 270.486H250.489V273.607C250.489 274.027 250.505 274.282 250.542 274.367C250.585 274.462 250.648 274.531 250.739 274.579C250.824 274.643 250.999 274.674 251.254 274.674H252.793C253.313 274.674 253.685 274.632 253.924 274.558C254.152 274.473 254.375 274.324 254.593 274.101C254.874 273.814 255.161 273.384 255.447 272.801H255.718L254.938 275.179H247.899V274.919H248.212C248.424 274.919 248.626 274.866 248.817 274.759C248.966 274.685 249.067 274.568 249.125 274.42C249.162 274.276 249.183 273.968 249.183 273.501V267.328C249.183 266.728 249.13 266.356 249.024 266.213C248.854 266.027 248.583 265.937 248.207 265.937H247.893V265.677H254.932L255.028 267.763H254.768C254.678 267.264 254.577 266.919 254.465 266.733C254.343 266.553 254.168 266.409 253.94 266.308C253.765 266.245 253.451 266.207 253.005 266.207H250.489ZM274.86 265.937V265.677H278.088V265.937H277.759C277.392 265.937 277.111 266.091 276.915 266.404C276.824 266.547 276.777 266.887 276.777 267.412V271.277C276.777 272.222 276.692 272.955 276.517 273.485C276.331 274.016 275.975 274.467 275.439 274.855C274.903 275.232 274.175 275.423 273.262 275.423C272.264 275.423 271.511 275.237 270.996 274.871C270.481 274.505 270.115 274.022 269.892 273.416C269.743 272.997 269.669 272.217 269.669 271.081V267.354C269.669 266.77 269.594 266.388 269.446 266.202C269.292 266.022 269.048 265.931 268.692 265.931H268.341V265.671H272.302V265.931H271.946C271.569 265.931 271.304 266.054 271.144 266.303C271.028 266.468 270.969 266.818 270.969 267.354V271.495C270.969 271.861 271.001 272.28 271.065 272.763C271.128 273.241 271.245 273.613 271.42 273.878C271.596 274.144 271.845 274.361 272.169 274.547C272.477 274.717 272.87 274.807 273.342 274.807C273.942 274.807 274.473 274.664 274.94 274.388C275.423 274.122 275.747 273.777 275.927 273.358C276.092 272.939 276.177 272.217 276.177 271.197V267.359C276.177 266.765 276.118 266.388 275.996 266.239C275.821 266.038 275.556 265.937 275.205 265.937H274.86ZM298.478 265.677L298.573 267.906H298.313C298.265 267.513 298.207 267.237 298.122 267.083C297.984 266.807 297.798 266.606 297.57 266.478C297.331 266.356 297.023 266.298 296.646 266.298H295.362V273.554C295.362 274.138 295.42 274.505 295.542 274.648C295.717 274.834 295.983 274.929 296.333 274.929H296.652V275.189H292.782V274.929H293.1C293.488 274.929 293.764 274.807 293.928 274.574C294.019 274.42 294.066 274.075 294.066 273.538V266.303H292.978C292.548 266.303 292.24 266.33 292.065 266.388C291.821 266.484 291.619 266.653 291.455 266.898C291.29 267.142 291.194 267.482 291.168 267.911H290.908L291.014 265.682H298.478V265.677ZM340.754 265.464L340.961 268.692H340.754C340.478 267.72 340.085 267.025 339.57 266.595C339.045 266.165 338.424 265.947 337.707 265.947C337.097 265.947 336.545 266.112 336.061 266.436C335.562 266.754 335.175 267.269 334.904 267.97C334.618 268.665 334.474 269.531 334.474 270.571C334.474 271.436 334.607 272.179 334.872 272.811C335.143 273.443 335.541 273.926 336.077 274.26C336.614 274.595 337.219 274.759 337.898 274.759C338.487 274.759 339.013 274.627 339.475 274.361C339.926 274.106 340.42 273.581 340.961 272.801L341.168 272.939C340.717 273.788 340.181 274.409 339.565 274.802C338.96 275.195 338.233 275.391 337.383 275.391C335.881 275.391 334.713 274.807 333.88 273.639C333.253 272.763 332.935 271.739 332.935 270.566C332.935 269.621 333.142 268.75 333.561 267.959C333.965 267.163 334.527 266.547 335.244 266.101C335.966 265.671 336.746 265.459 337.59 265.459C338.254 265.459 338.907 265.624 339.549 265.947C339.735 266.059 339.868 266.117 339.947 266.117C340.069 266.117 340.175 266.075 340.266 265.995C340.388 265.868 340.467 265.693 340.515 265.464H340.754ZM360.215 272.01H356.669L356.043 273.507C355.894 273.868 355.82 274.144 355.82 274.324C355.82 274.478 355.883 274.605 356.016 274.706C356.143 274.823 356.43 274.897 356.871 274.924L356.876 275.184H353.999V274.924C354.376 274.855 354.625 274.765 354.747 274.648C354.97 274.42 355.22 273.963 355.501 273.284L358.723 265.464H358.962L362.137 273.374C362.391 274.006 362.625 274.414 362.837 274.595C363.039 274.786 363.331 274.897 363.708 274.924V275.184H360.109V274.924C360.47 274.903 360.714 274.844 360.836 274.733C360.969 274.632 361.032 274.499 361.032 274.335C361.032 274.133 360.947 273.814 360.772 273.374L360.215 272.01ZM360.024 271.479L358.474 267.646L356.871 271.479H360.024ZM384.007 272.54L384.23 272.583L383.455 275.179H376.379V274.908H376.724C377.112 274.908 377.388 274.781 377.552 274.52C377.643 274.367 377.69 274.016 377.69 273.469V267.349C377.69 266.754 377.632 266.383 377.515 266.229C377.34 266.027 377.075 265.926 376.724 265.926H376.379V265.666H380.52V265.926C380.477 265.926 380.44 265.926 380.403 265.926C379.973 265.926 379.67 265.974 379.495 266.064C379.304 266.165 379.171 266.287 379.097 266.441C379.023 266.584 378.98 266.935 378.98 267.497V273.459C378.98 273.852 379.017 274.117 379.097 274.26C379.15 274.356 379.235 274.425 379.341 274.473C379.447 274.521 379.798 274.547 380.387 274.547H381.045C381.751 274.547 382.25 274.494 382.526 274.388C382.808 274.287 383.062 274.096 383.291 273.814C383.54 273.554 383.774 273.124 384.007 272.54ZM403.097 265.464V268.75H402.847C402.773 268.118 402.635 267.62 402.422 267.248C402.215 266.876 401.913 266.579 401.525 266.367C401.138 266.149 400.74 266.038 400.326 266.038C399.864 266.038 399.476 266.186 399.168 266.478C398.861 266.77 398.701 267.11 398.701 267.481C398.701 267.773 398.797 268.044 398.993 268.283C399.269 268.623 399.933 269.085 400.979 269.669C401.828 270.152 402.412 270.513 402.736 270.762C403.044 271.017 403.277 271.319 403.452 271.665C403.617 272.02 403.702 272.381 403.702 272.758C403.702 273.469 403.436 274.091 402.905 274.605C402.375 275.126 401.685 275.386 400.835 275.386C400.57 275.386 400.32 275.365 400.092 275.327C399.954 275.306 399.662 275.227 399.221 275.078C398.776 274.94 398.499 274.871 398.393 274.871C398.271 274.871 398.186 274.897 398.133 274.956C398.059 275.025 398.011 275.168 397.979 275.391H397.719L397.735 272.153H397.979C398.101 272.827 398.255 273.342 398.452 273.682C398.653 274.016 398.956 274.298 399.359 274.531C399.763 274.749 400.209 274.86 400.703 274.86C401.265 274.86 401.706 274.706 402.024 274.398C402.348 274.096 402.513 273.73 402.513 273.305C402.513 273.066 402.454 272.827 402.338 272.588C402.205 272.349 402.014 272.132 401.759 271.93C401.584 271.787 401.106 271.484 400.326 271.028C399.54 270.582 398.983 270.221 398.653 269.95C398.324 269.674 398.075 269.371 397.905 269.048C397.73 268.729 397.645 268.368 397.645 267.975C397.645 267.29 397.9 266.706 398.404 266.213C398.914 265.719 399.551 265.475 400.326 265.475C400.809 265.475 401.329 265.602 401.87 265.857C402.125 265.974 402.306 266.032 402.407 266.032C402.513 266.032 402.614 265.995 402.699 265.926C402.768 265.847 402.826 265.693 402.863 265.47H403.097V265.464ZM314.408 269.525C314.408 267.63 314.408 267.285 314.424 266.898C314.451 266.468 314.52 266.292 314.854 266.223C314.992 266.197 315.077 266.197 315.157 266.197C315.199 266.197 315.252 266.138 315.252 266.096C315.252 266.022 315.199 265.995 315.061 265.995C314.69 265.995 313.904 266.022 313.846 266.022C313.777 266.022 313.017 265.995 312.614 265.995C312.476 265.995 312.423 266.022 312.423 266.096C312.423 266.138 312.465 266.197 312.518 266.197C312.603 266.197 312.752 266.213 312.89 266.239C313.15 266.298 313.251 266.483 313.278 266.898C313.304 267.285 313.304 267.63 313.304 269.525V271.68C313.304 272.859 313.288 273.82 313.235 274.324C313.193 274.685 313.15 274.913 312.917 274.972C312.805 274.998 312.656 275.03 312.545 275.03C312.476 275.03 312.449 275.089 312.449 275.131C312.449 275.205 312.518 275.232 312.641 275.232C313.012 275.232 313.771 275.189 313.84 275.189C313.893 275.189 314.684 275.232 315.359 275.232C315.497 275.232 315.55 275.189 315.55 275.131C315.55 275.089 315.523 275.03 315.454 275.03C315.343 275.03 315.082 275.004 314.902 274.972C314.541 274.913 314.504 274.685 314.461 274.324C314.408 273.82 314.408 272.859 314.408 271.68V269.525Z" fill="#231F20"/>
</svg>
