<svg width="500" height="500" viewBox="0 0 500 500" fill="none" xmlns="http://www.w3.org/2000/svg">
<rect width="500" height="500" fill="#F0F0F0"/>
<path d="M92 199C96.4183 199 100 196.09 100 192.5C100 188.91 96.4183 186 92 186C87.5817 186 84 188.91 84 192.5C84 196.09 87.5817 199 92 199Z" fill="black"/>
<path d="M116 199C120.418 199 124 196.09 124 192.5C124 188.91 120.418 186 116 186C111.582 186 108 188.91 108 192.5C108 196.09 111.582 199 116 199Z" fill="black"/>
<path d="M311 199C315.418 199 319 196.09 319 192.5C319 188.91 315.418 186 311 186C306.582 186 303 188.91 303 192.5C303 196.09 306.582 199 311 199Z" fill="black"/>
<path d="M334.5 199C339.194 199 343 196.09 343 192.5C343 188.91 339.194 186 334.5 186C329.806 186 326 188.91 326 192.5C326 196.09 329.806 199 334.5 199Z" fill="black"/>
<path d="M263.826 240.255C272.585 245.87 277.659 253.382 275.507 262.633C271.905 278.104 250.174 280.101 235.465 275.816C232.165 274.858 231.304 278.507 228.405 277.94C227.061 277.679 226.215 276.988 225.868 275.866C224.695 272.06 223.53 268.252 222.372 264.441C221.969 263.101 221.894 262.087 222.145 261.398C222.908 259.312 226.54 258.259 228.397 260.509C234.37 267.75 245.251 273.812 255.852 269.376C262.58 266.559 263.018 260.005 258.88 254.945C257.121 252.808 252.93 249.991 249.766 248.088C243.358 244.24 238.057 240.99 233.864 238.339C224.486 232.403 220.137 221.312 228.677 213.214C236.409 205.892 249.562 206.679 259.658 208.973C261.893 209.477 263.146 208.872 264.77 207.77C268.16 205.463 269.904 208.853 270.455 211.21C271.175 214.307 271.945 217.397 272.766 220.48C273.073 221.627 273.161 222.43 273.03 222.888C272.517 224.765 269.104 225.547 267.533 223.782C262.988 218.665 259.431 214.935 251.239 214.059C246.036 213.498 240.743 215.199 239.95 219.938C239.263 224.028 242.578 227.431 246.753 229.851C252.542 233.204 258.233 236.672 263.826 240.255Z" fill="black"/>
<path d="M114.484 208.003C138.317 212.325 147.028 232.46 143.09 250.551C138.901 269.769 120.19 280.412 97.0399 277.535C70.8396 274.275 60.581 254.014 64.9895 233.975C69.5497 213.236 90.909 203.732 114.484 208.003ZM124.014 229.366C118.301 210.04 90.909 208.55 84.3078 228.392C79.869 241.728 80.1876 273.085 106.525 270.723C127.489 268.846 127.565 241.397 124.014 229.366Z" fill="black"/>
<path d="M391.42 269.996C392.106 269.147 392.449 268.47 392.449 267.964C392.464 251.571 392.459 235.177 392.433 218.783C392.433 214.601 382.978 215.617 380.216 216.012C376.343 216.57 373.824 220.363 371.729 222.915C370.133 224.871 366.971 223.768 366.078 221.987C365.982 221.791 365.975 221.594 366.055 221.398C368.461 215.713 370.085 212.083 370.927 210.507C371.396 209.623 373.098 209.178 374.331 209.165C398.16 208.91 416.323 208.95 428.82 209.285C429.838 209.314 430.59 209.872 431.074 210.959C432.627 214.453 434.231 217.887 435.885 221.26C436.097 221.686 436.016 222.071 435.643 222.414C433.396 224.508 431.392 224.138 429.478 221.981C426.679 218.827 425.226 216.15 419.901 215.805C416.058 215.554 413.35 215.569 411.776 215.849C409.454 216.269 409.348 218.1 409.34 219.868C409.235 235.977 409.245 252.085 409.371 268.19C409.409 272.698 417.745 268.61 418.456 273.162C418.796 275.331 416.724 275.977 414.447 275.983C405.031 276 395.621 276.004 386.215 275.996C383.363 275.99 382.259 272.873 384.483 271.406C386.019 270.397 388.817 270.773 390.875 270.322C391.099 270.273 391.294 270.157 391.42 269.996Z" fill="black"/>
<path d="M170.848 269.343C177.609 269.431 184.434 269.46 191.321 269.431C195.926 269.41 199.489 267.814 202.008 264.644C202.94 263.474 205.099 261.071 206.985 261.052C208.765 261.033 210.537 262.499 209.848 264.078C208.484 267.215 207.076 270.335 205.621 273.438C204.758 275.269 203.705 275.998 201.198 275.998C185.762 276.003 170.326 275.998 154.889 275.986C149.027 275.986 151.042 272.01 152.905 269.186C164.62 251.433 176.339 233.665 188.064 215.879C188.096 215.833 188.112 215.782 188.112 215.73C188.111 215.677 188.094 215.626 188.062 215.58C188.03 215.534 187.984 215.496 187.929 215.469C187.873 215.442 187.81 215.427 187.746 215.426C182.197 215.397 176.61 215.434 170.985 215.539C164.713 215.665 162.804 217.753 159.949 221.943C157.783 225.107 152.291 223.824 153.935 220.056C155.288 216.952 156.672 213.906 158.086 210.916C158.35 210.354 158.811 209.871 159.41 209.531C160.008 209.191 160.716 209.009 161.441 209.009C175.524 208.997 189.685 208.997 203.925 209.009C204.917 209.009 205.652 209.192 206.583 209.387C206.81 209.437 206.992 209.542 207.129 209.701C208.007 210.729 208.151 211.696 207.56 212.601C195.25 231.436 182.921 250.221 170.576 268.959C170.55 268.998 170.536 269.041 170.537 269.086C170.538 269.13 170.553 269.173 170.58 269.212C170.608 269.251 170.647 269.283 170.694 269.306C170.741 269.329 170.794 269.341 170.848 269.343Z" fill="black"/>
<path d="M307.305 253.737C307.327 263.54 311.694 270.574 325.254 269.652C338.186 268.775 339.677 259.893 339.828 251.285C340.005 241.107 340.111 230.928 340.146 220.75C340.151 219.065 339.912 217.484 339.427 216.007C339.325 215.691 339.105 215.41 338.798 215.202C338.492 214.994 338.113 214.871 337.717 214.85C335.031 214.694 328.886 213.449 332.556 209.982C332.713 209.829 332.909 209.727 333.146 209.677C339.056 208.482 347.774 209.217 353.986 209.291C356.347 209.316 357.672 210.103 357.959 211.65C358.474 214.352 354.002 214.638 351.663 214.899C351.424 214.928 351.206 215.025 351.05 215.173C350.203 215.999 349.769 216.821 349.749 217.638C349.602 223.829 349.577 234.978 349.673 251.086C349.756 265.576 344.353 274.793 325.867 276.704C312.715 278.074 295.053 274.924 291.641 262.289C289.817 255.561 290.49 246.984 290.392 241.271C290.251 233.648 290.208 226.026 290.263 218.403C290.301 212.771 285.943 215.982 283.067 213.642C280.676 211.694 282.621 209.323 285.769 209.291C289.381 209.254 297.876 209.248 311.255 209.273C315.19 209.285 316.877 213.013 313.147 214.196C310.521 215.03 307.305 213.978 307.297 217.731C307.277 229.731 307.279 241.733 307.305 253.737Z" fill="black"/>
<path d="M238.077 306.108C239.033 306.575 240.041 306.388 240.762 305.784C240.839 305.726 240.939 305.694 241.043 305.693C241.147 305.691 241.249 305.722 241.327 305.778C241.406 305.834 241.457 305.912 241.47 305.997C241.483 306.082 241.458 306.168 241.399 306.239C241.181 306.463 240.835 306.621 240.36 306.712C232.276 308.281 231.859 297.994 239.336 298C243.09 298.006 245.319 300.983 244.963 303.823C244.422 308.095 241.778 311.468 237.031 313.942C236.854 314.038 236.702 314.015 236.576 313.874C236.378 313.65 236.432 313.448 236.735 313.27C241.881 310.202 243.904 306.069 242.802 300.871C242.278 298.38 237.698 297.763 236.083 300.516C234.677 302.899 235.342 304.763 238.077 306.108Z" fill="black"/>
<path d="M271.107 313.226C276.309 313.986 278.212 309.336 273.957 307.218C271.023 305.756 269.18 304.774 268.429 304.272C264.983 301.956 266.796 298.535 271.083 298.053C276.571 297.435 280.041 302.376 274.219 304.247C273.968 304.33 273.77 304.315 273.623 304.204C273.58 304.172 273.548 304.133 273.528 304.091C273.507 304.048 273.5 304.002 273.506 303.957C273.513 303.912 273.532 303.869 273.564 303.83C273.595 303.792 273.638 303.759 273.688 303.735C280.621 300.307 268.576 295.638 268.298 301.308C268.135 304.686 277.665 305.204 277.992 309.805C278.237 313.251 273.043 314.777 269.335 313.616C264.582 312.133 265.097 307.996 269.686 306.384C269.738 306.361 269.796 306.346 269.855 306.341C269.915 306.335 269.975 306.338 270.033 306.349C270.091 306.361 270.146 306.381 270.194 306.409C270.241 306.437 270.281 306.471 270.311 306.511C270.341 306.55 270.361 306.593 270.369 306.638C270.376 306.683 270.372 306.729 270.357 306.773C270.341 306.817 270.315 306.858 270.278 306.894C270.241 306.93 270.196 306.96 270.144 306.983C266.812 308.762 266.738 312.59 271.107 313.226Z" fill="black"/>
<path d="M222.112 301.615C223.284 300.327 223.907 299.721 224.684 298.218C224.723 298.141 224.792 298.079 224.878 298.04C224.964 298.002 225.063 297.991 225.158 298.008C225.253 298.025 225.338 298.069 225.4 298.134C225.462 298.198 225.496 298.279 225.497 298.363C225.536 302.219 225.558 306.126 225.563 310.084C225.57 311.366 224.574 312.781 226.779 313.475C227.003 313.547 227.057 313.673 226.94 313.854C226.906 313.913 226.849 313.959 226.771 313.993C226.676 314.031 223.614 313.898 222.706 313.949C222.638 313.957 222.57 313.943 222.514 313.91C222.457 313.877 222.417 313.828 222.4 313.771C222.383 313.715 222.39 313.655 222.421 313.602C222.452 313.55 222.503 313.509 222.567 313.488L223.695 313.039C223.944 312.938 224.068 312.77 224.068 312.534L224.105 301.489C224.107 301.401 224.077 301.315 224.019 301.243C223.962 301.171 223.879 301.117 223.784 301.088C223.688 301.058 223.584 301.056 223.487 301.08C223.389 301.104 223.303 301.155 223.24 301.224L222.347 302.177C222.29 302.228 222.225 302.249 222.167 302.236C222.108 302.222 222.059 302.176 222.03 302.105C222 302.035 221.992 301.945 222.008 301.854C222.023 301.764 222.06 301.678 222.112 301.615Z" fill="black"/>
<path d="M254.95 302.866C254.922 302.896 254.904 302.932 254.897 302.97C254.89 303.008 254.893 303.047 254.907 303.084C254.922 303.121 254.946 303.154 254.978 303.181C255.011 303.208 255.05 303.228 255.093 303.239C257.754 303.872 259.056 305.165 258.998 307.118C258.905 310.604 254.914 313.142 251.325 313.983C251.085 314.038 250.949 313.958 250.915 313.743L250.887 313.578C250.863 313.422 250.937 313.321 251.109 313.275C254.167 312.452 257.397 310.497 257.426 307.371C257.44 305.308 255.897 304.081 253.571 304.391C253.496 304.401 253.419 304.391 253.349 304.363C253.28 304.335 253.222 304.289 253.182 304.231C253.142 304.174 253.122 304.107 253.125 304.04C253.128 303.973 253.153 303.908 253.198 303.853L256.694 299.614C256.739 299.561 256.766 299.498 256.772 299.433C256.778 299.367 256.763 299.302 256.728 299.243C256.694 299.185 256.641 299.137 256.577 299.104C256.512 299.071 256.438 299.054 256.364 299.057L252.021 299.164C251.839 299.168 251.688 299.228 251.569 299.341L250.614 300.246C250.563 300.311 250.484 300.355 250.396 300.368C250.308 300.382 250.217 300.364 250.144 300.319C250.07 300.274 250.021 300.205 250.005 300.127C249.99 300.049 250.01 299.969 250.061 299.905L250.973 298.342C251.092 298.139 251.282 298.038 251.54 298.038L258.209 298C258.293 298 258.376 298.02 258.448 298.059C258.521 298.098 258.579 298.153 258.617 298.219C258.655 298.285 258.672 298.359 258.664 298.432C258.657 298.505 258.626 298.575 258.575 298.633L254.95 302.866Z" fill="black"/>
<path d="M206.372 305H96.6277C96.281 305 96 305.422 96 305.943V306.057C96 306.578 96.281 307 96.6277 307H206.372C206.719 307 207 306.578 207 306.057V305.943C207 305.422 206.719 305 206.372 305Z" fill="black"/>
<path d="M396.353 305H291.647C291.289 305 291 305.221 291 305.494V305.506C291 305.779 291.289 306 291.647 306H396.353C396.711 306 397 305.779 397 305.506V305.494C397 305.221 396.711 305 396.353 305Z" fill="black"/>
</svg>
