<svg width="500" height="500" viewBox="0 0 500 500" fill="none" xmlns="http://www.w3.org/2000/svg">
<rect width="500" height="500" fill="#F0F0F0"/>
<path d="M94 249.526C97.3194 245.055 100.049 240.449 102.342 235.589C104.742 230.504 106.284 225.24 107.536 219.891C107.996 217.923 108.033 215.878 108.285 213.871C108.397 212.974 108.561 212.082 108.731 211C126.3 212.103 143.439 214.761 160 220.814C149.03 230.645 138.275 240.282 127.42 250.01C138.239 259.697 148.995 269.326 159.993 279.173C143.473 285.223 126.343 287.889 108.588 289C107.705 274.991 102.778 262.284 94.1081 250.619C94 250.268 94 249.956 94 249.526Z" fill="#3C7DD9"/>
<path d="M250.901 112C252.991 113.109 254.915 114.285 256.934 115.316C264.158 119.004 271.897 121.57 280.025 123.164C283.262 123.798 286.597 124.049 289.891 124.454C290.956 124.585 292.057 124.567 293.091 124.795C293.482 124.881 294.002 125.471 294 125.828C293.986 127.79 293.938 129.761 293.694 131.709C293.363 134.341 292.928 136.968 292.389 139.572C291.408 144.306 290.572 149.079 289.206 153.729C287.626 159.108 285.539 164.37 283.56 170C272.389 160.28 261.517 150.819 250.564 141.289C239.622 150.791 228.713 160.264 217.648 169.873C216.336 166.446 214.935 163.246 213.893 159.958C212.343 155.069 210.838 150.155 209.707 145.182C208.741 140.934 208.297 136.59 207.683 132.282C207.388 130.21 207.238 128.123 207.015 126.043C206.92 125.152 207.264 124.796 208.376 124.722C216.535 124.183 224.443 122.745 232.158 120.195C238.47 118.108 244.297 115.332 249.996 112.094C250.285 112 250.531 112 250.901 112Z" fill="#3C7DD9"/>
<path d="M250.092 388C248.001 386.889 246.075 385.712 244.056 384.678C236.885 381.006 229.201 378.458 221.123 376.887C217.885 376.258 214.565 375.955 211.277 375.532C210.16 375.388 209.006 375.413 207.915 375.187C207.525 375.107 206.997 374.513 207 374.156C207.016 372.296 207.089 370.428 207.32 368.581C207.667 365.807 208.103 363.039 208.609 360.284C209.232 356.889 209.702 353.447 210.706 350.136C212.552 344.045 214.732 338.032 216.797 331.993C216.992 331.422 217.353 330.894 217.724 330.179C228.603 339.65 239.5 349.137 250.509 358.72C261.385 349.217 272.238 339.735 283.38 330C285.099 334.659 286.89 339.081 288.344 343.587C289.615 347.529 290.618 351.546 291.529 355.567C292.192 358.492 292.576 361.471 292.968 364.438C293.375 367.509 293.628 370.596 293.978 373.674C294.11 374.838 293.667 375.191 292.263 375.279C286.374 375.65 280.507 376.327 274.908 378.045C269.923 379.576 264.963 381.219 260.154 383.132C256.965 384.4 254.062 386.23 250.993 387.904C250.708 388 250.462 388 250.092 388Z" fill="#3C7DD9"/>
<path d="M369.365 173.24C371.352 176.163 373.09 179.103 375.161 181.847C377.212 184.563 379.599 187.081 382 189.874C368.704 200.143 354.366 208.945 337.798 215C337.798 201.281 337.798 187.681 337.798 173.791C322.27 173.791 306.866 173.791 291 173.791C292.846 170.369 294.372 167.29 296.137 164.323C299.796 158.17 303.832 152.217 308.682 146.72C311.719 143.278 314.711 139.806 317.733 136.354C319.358 134.498 319.855 134.506 322.656 136.652C328.34 141.006 334.679 144.446 341.478 147.239C347.55 149.733 353.942 151.39 360.419 152.825C360.877 152.927 361.463 153.336 361.596 153.711C363.309 158.526 364.877 163.383 366.65 168.18C367.289 169.91 368.379 171.511 369.365 173.24Z" fill="#1C4A8A"/>
<path d="M364.781 335.73C363.67 339.251 362.548 342.649 361.481 346.06C361.277 346.712 361.067 347.043 360.182 347.222C351.947 348.891 343.912 351.146 336.549 354.841C332.222 357.011 328.196 359.651 324.07 362.126C322.871 362.845 321.801 363.73 320.658 364.524C319.841 365.092 319.095 365.269 318.3 364.392C315.836 361.678 313.23 359.062 310.837 356.301C308.204 353.261 305.596 350.189 303.245 346.979C298.55 340.57 294.309 333.931 291.054 326.838C291.017 326.756 291.034 326.655 291 326.262C306.474 326.262 321.918 326.262 337.478 326.262C337.478 312.36 337.478 298.759 337.478 285C354.085 291.011 368.428 299.81 382 310.19C374.52 317.819 368.623 326.185 364.781 335.73Z" fill="#1C4A8A"/>
<path d="M162.813 174.859C162.812 188.272 162.812 201.543 162.812 215C146.417 208.931 132.155 200.191 119 189.904C121.813 186.515 124.701 183.334 127.221 179.936C132.316 173.068 135.922 165.585 138.138 157.584C138.493 156.304 138.73 154.994 139.167 153.738C139.296 153.366 139.869 152.983 140.327 152.855C145.338 151.454 150.462 150.328 155.366 148.682C161.793 146.525 167.814 143.59 173.273 139.821C175.368 138.374 177.427 136.886 179.528 135.445C180.261 134.943 180.985 134.725 181.744 135.558C183.905 137.931 186.245 140.181 188.305 142.62C191.423 146.312 194.51 150.037 197.345 153.902C201.871 160.072 205.754 166.565 209 173.632C208.224 173.632 207.655 173.632 207.085 173.632C196.18 173.632 185.274 173.608 174.369 173.645C170.834 173.658 167.299 173.81 163.768 173.962C163.437 173.977 163.131 174.455 162.813 174.859Z" fill="#1C4A8A"/>
<path d="M134.971 299.048C137.87 297.284 140.584 295.456 143.486 293.908C147.47 291.781 151.562 289.808 155.676 287.885C157.951 286.821 160.364 285.994 162.867 285C162.867 298.7 162.867 312.282 162.867 326.15C178.213 326.15 193.437 326.15 209 326.15C208.26 327.784 207.761 329.107 207.082 330.35C203.534 336.847 199.779 343.247 195.053 349.134C192.246 352.63 189.295 356.034 186.358 359.444C184.895 361.143 183.287 362.742 181.806 364.429C181.071 365.266 180.348 365.066 179.594 364.572C175.468 361.866 171.526 358.899 167.196 356.489C161.121 353.108 154.591 350.496 147.604 348.908C145.193 348.359 142.791 347.772 140.407 347.136C139.994 347.027 139.453 346.635 139.372 346.296C138.189 341.352 136.653 336.512 134.435 331.849C131.775 326.258 128.543 320.96 124.426 316.115C122.757 314.151 121.01 312.24 119 309.966C124.346 306.308 129.608 302.708 134.971 299.048Z" fill="#1C4A8A"/>
<path d="M366.952 255.037C368.864 253.332 370.694 251.704 372.673 249.943C361.886 240.325 351.085 230.693 340.049 220.852C356.573 214.727 373.793 212.189 391.37 211C392.014 214.783 392.556 218.417 393.264 222.026C394.243 227.015 395.844 231.879 398.289 236.451C400.551 240.679 403.3 244.704 405.72 248.87C406.073 249.477 406.103 250.513 405.75 251.105C403.729 254.489 401.323 257.706 399.472 261.155C396.297 267.072 393.984 273.266 392.925 279.78C392.435 282.797 391.93 285.811 391.402 289C373.831 287.907 356.655 285.244 340 279.186C340.552 278.661 340.932 278.275 341.342 277.914C348.367 271.736 355.407 265.571 362.413 259.377C363.96 258.009 365.388 256.537 366.952 255.037Z" fill="#3C7DD9"/>
<path d="M175.361 228.494C180.116 231.556 184.907 234.412 189.418 237.566C192.523 239.736 195.29 242.276 198.112 244.733C199.795 246.197 201.33 247.794 202.833 249.399C203.083 249.667 203.043 250.441 202.774 250.719C201.026 252.524 199.279 254.344 197.339 255.992C193.741 259.048 190.222 262.218 186.279 264.917C182.088 267.785 177.468 270.195 172.982 272.735C171.494 273.578 169.865 274.25 168.246 274.899C167.831 275.065 167.001 275.027 166.711 274.779C157.146 266.596 147.623 258.376 138 250.081C138.479 249.638 138.869 249.255 139.286 248.895C148.23 241.178 157.193 233.477 166.099 225.727C167.049 224.9 167.726 224.769 168.888 225.383C170.958 226.477 173.141 227.413 175.361 228.494Z" fill="#3C7DD9"/>
<path d="M257.06 156.362C264.679 163.26 272.215 170.084 280 177.133C277.652 180.607 275.331 184.125 272.918 187.591C268.373 194.119 262.491 199.617 256.404 204.943C254.903 206.255 253.24 207.413 251.657 208.648C250.877 209.257 250.252 209.003 249.592 208.439C246.118 205.467 242.529 202.598 239.158 199.533C233.624 194.5 229.101 188.746 225.104 182.649C224.049 181.04 223.016 179.416 222.083 177.748C221.899 177.418 222.038 176.694 222.333 176.426C231.46 168.099 240.632 159.813 249.77 151.497C250.556 150.782 251.058 150.873 251.773 151.551C253.471 153.162 255.239 154.713 257.06 156.362Z" fill="#3C7DD9"/>
<path d="M256.264 295.047C258.937 297.415 261.637 299.623 264.056 302.056C268.285 306.309 272.118 310.851 275.381 315.756C276.953 318.12 278.45 320.523 280 322.939C275.567 326.915 271.239 330.795 266.913 334.678C261.843 339.227 256.771 343.774 251.712 348.332C251.084 348.898 250.589 349.378 249.695 348.574C240.231 340.063 230.741 331.575 221 322.85C223.843 318.764 226.543 314.617 229.533 310.647C233.631 305.208 238.607 300.419 243.923 295.922C245.781 294.35 247.742 292.876 249.658 291.359C250.429 290.747 251.055 290.989 251.742 291.55C253.184 292.727 254.687 293.846 256.264 295.047Z" fill="#3C7DD9"/>
<path d="M326.935 272.631C322.483 270.038 317.874 267.775 313.86 264.897C309.261 261.598 305.176 257.765 300.899 254.137C299.777 253.185 298.843 252.066 297.693 251.144C296.807 250.434 296.797 249.814 297.514 249.099C299.074 247.542 300.606 245.96 302.239 244.461C308.171 239.017 314.659 234.118 321.944 230.058C325.05 228.327 328.352 226.858 331.539 225.233C332.532 224.727 333.084 225.119 333.765 225.708C342.281 233.076 350.819 240.424 359.361 247.77C360.178 248.473 361.05 249.128 362 249.887C361.515 250.345 361.173 250.696 360.798 251.018C351.798 258.774 342.784 266.519 333.807 274.296C332.997 274.998 332.367 275.263 331.299 274.681C329.936 273.939 328.465 273.346 326.935 272.631Z" fill="#3C7DD9"/>
<path d="M328.667 302.417C328.667 308.311 328.667 314.057 328.667 319.904C328.113 319.933 327.638 319.981 327.163 319.981C314.382 319.985 301.601 319.975 288.82 320C287.758 320.002 287.187 319.836 286.93 318.75C285.802 313.971 284.454 309.233 283.371 304.446C282.037 298.555 281.894 292.566 282.051 286.579C282.114 284.155 282.505 281.739 282.667 279.314C282.726 278.432 283.172 278.297 284.029 278.283C287.309 278.227 290.589 278.015 293.868 278.024C298.192 278.036 302.572 277.843 306.827 278.383C313.003 279.166 319.124 280.388 325.199 281.688C329.052 282.513 329.039 282.729 328.99 286.418C328.92 291.702 328.778 296.985 328.667 302.417Z" fill="#1C4A8A"/>
<path d="M321.355 180.127C323.829 180.127 326.138 180.127 328.642 180.127C328.642 180.733 328.642 181.258 328.642 181.783C328.642 189.402 328.607 197.021 328.657 204.64C328.682 208.422 328.835 212.204 328.995 215.984C329.037 216.959 328.812 217.521 327.631 217.756C322.679 218.742 317.785 220.022 312.789 220.759C308.051 221.459 303.221 221.813 298.418 221.957C293.489 222.105 288.544 221.835 283.609 221.673C283.26 221.662 282.661 221.049 282.641 220.695C282.359 215.709 281.928 210.717 282.01 205.732C282.071 202.01 282.615 198.265 283.318 194.588C284.03 190.871 285.175 187.219 286.19 183.551C286.506 182.409 286.665 180.877 287.534 180.311C288.408 179.74 290.077 180.13 291.398 180.13C301.328 180.124 311.259 180.127 321.355 180.127Z" fill="#1C4A8A"/>
<path d="M172.361 196.663C172.361 191.076 172.361 185.637 172.361 180.096C172.903 180.067 173.368 180.019 173.832 180.019C186.329 180.015 198.825 180.025 211.322 180C212.361 179.998 212.912 180.167 213.168 181.249C214.268 185.916 215.616 190.536 216.645 195.215C218.012 201.437 218.102 207.763 217.942 214.083C217.887 216.265 217.585 218.447 217.271 220.614C217.217 220.993 216.561 221.568 216.152 221.591C213.006 221.769 209.852 221.871 206.699 221.921C203.58 221.97 200.448 222.086 197.343 221.89C193.929 221.675 190.501 221.312 187.147 220.698C182.555 219.858 178.03 218.709 173.469 217.722C172.263 217.461 171.972 216.842 172.002 215.737C172.172 209.43 172.251 203.121 172.361 196.663Z" fill="#1C4A8A"/>
<path d="M177.974 281.296C181.534 280.607 184.968 279.949 188.417 279.366C190.386 279.033 192.371 278.747 194.362 278.572C197.375 278.307 200.401 277.996 203.421 278C206.763 278.005 210.104 278.344 213.446 278.532C213.876 278.556 214.308 278.553 214.74 278.554C217.483 278.561 217.577 278.59 217.666 281.125C217.82 285.535 218.141 289.957 217.93 294.356C217.737 298.39 217.134 302.434 216.343 306.413C215.506 310.616 214.22 314.744 213.161 318.911C212.964 319.69 212.585 320.002 211.66 320C198.824 319.973 185.987 319.982 173.151 319.979C172.944 319.979 172.736 319.951 172.349 319.922C172.349 319.369 172.349 318.846 172.349 318.322C172.349 309.055 172.369 299.789 172.334 290.522C172.326 288.381 172.153 286.24 172.009 284.101C171.951 283.25 172.162 282.765 173.203 282.562C174.776 282.257 176.306 281.769 177.974 281.296Z" fill="#1C4A8A"/>
</svg>
