<svg width="500" height="500" viewBox="0 0 500 500" fill="none" xmlns="http://www.w3.org/2000/svg">
<rect width="500" height="500" fill="#F0F0F0"/>
<path d="M327.838 152H171.162C120.262 152 79 195.876 79 250V250C79 304.124 120.262 348 171.162 348H327.838C378.738 348 420 304.124 420 250V250C420 195.876 378.738 152 327.838 152Z" fill="#3447F6"/>
<path fill-rule="evenodd" clip-rule="evenodd" d="M174.522 218.522L158.45 296.994H179.335L198.234 204H167.026L142 233.31L152.276 243.303L173.434 218.522H174.522ZM207.453 204L188.692 296.994H209.1L216.624 258.491H246.58L249.724 241.438H220.243L224.816 221.053H257.703L260.847 204H207.453ZM267.714 204.27L249.439 297H269.17L288.519 204.27H267.714ZM319.564 297L335.137 221.274H353.898L357 204.27H294.884L291.781 221.274H314.011L299.561 297H319.564Z" fill="white"/>
</svg>
