<svg width="500" height="499" viewBox="0 0 500 499" fill="none" xmlns="http://www.w3.org/2000/svg">
<rect width="500" height="499" fill="#E5E5E5"/>
<path d="M105.335 276.928C99.6404 275.77 94.8257 273.179 90.5888 268.962C86.6546 265.02 84.3986 261.078 82.9955 255.593C82.2251 252.699 82.1426 251.982 82.1426 247.985C82.1426 244.457 82.2526 243.051 82.7203 241.039C83.4357 237.869 84.6187 234.892 86.2969 232.026C88.0577 228.994 92.5422 224.501 95.7061 222.544C102.639 218.271 111.251 217.086 119.614 219.209C130.537 221.965 138.845 230.978 140.826 242.169C141.239 244.623 141.156 251.293 140.689 253.829C138.46 265.599 129.436 274.695 117.771 276.955C115.24 277.451 107.812 277.424 105.335 276.928Z" fill="#F0F0F0"/>
<path d="M299.186 264.109C296.655 263.117 294.674 260.636 293.959 257.494C293.409 255.206 293.409 250.906 293.932 248.866C294.84 245.393 296.16 243.712 299.021 242.361C300.397 241.7 300.837 241.645 303.974 241.645C306.945 241.672 307.605 241.755 308.788 242.279C310.384 243.023 312.007 244.484 312.943 246.082C314.813 249.28 314.868 256.391 313.053 259.975C312.145 261.739 310.329 263.393 308.541 264.082C306.395 264.881 301.195 264.909 299.186 264.109Z" fill="#FEFEFE"/>
<path d="M243.557 264.275C238.55 263.007 235.854 257.522 236.789 250.465C237.642 243.96 241.356 240.928 247.987 241.314C251.123 241.507 252.719 242.058 254.424 243.602C256.846 245.779 257.946 249.28 257.698 254.021C257.451 258.431 256.35 260.884 253.682 262.924C253.049 263.42 252.058 263.944 251.481 264.137C249.94 264.606 245.208 264.716 243.557 264.275Z" fill="#FEFEFE"/>
<path d="M108.912 314.908C99.6129 314.577 90.5063 312.262 82.0876 308.072C64.4247 299.306 51.7691 283.733 46.7343 264.631C44.0106 254.239 43.9556 241.808 46.5692 231.306C48.7152 222.816 53.6949 212.783 59.1974 205.947C62.774 201.509 68.3314 196.244 72.7334 193.129C77.8507 189.463 84.2335 186.183 89.7635 184.337C104.152 179.485 118.541 179.43 132.848 184.171C149.465 189.656 163.744 201.978 171.502 217.524C175.822 226.206 177.94 234.117 178.518 243.82C178.766 248.175 178.435 256.527 177.995 257.023C177.885 257.133 177.307 257.051 176.702 256.858C172.603 255.397 165.23 255.204 160.663 256.389C151.831 258.732 144.678 264.686 140.881 272.9C137.992 279.185 137.525 287.922 139.781 294.538C140.716 297.349 142.697 301.07 144.458 303.331C145.366 304.516 146.081 305.536 146.026 305.563C145.558 305.977 140.111 308.678 137.8 309.67C128.831 313.474 118.899 315.266 108.912 314.908ZM116.946 276.125C128.611 273.865 137.635 264.769 139.863 252.999C140.331 250.463 140.414 245.391 140.001 242.993C138.02 231.802 129.656 222.761 118.761 220.032C115.075 219.095 111.938 218.819 108.94 219.205C101.511 220.087 96.4765 222.513 91.3042 227.722C88.1953 230.837 86.517 233.373 84.9764 237.204C82.7479 242.772 82.3352 249.002 83.8208 254.763C85.224 260.22 87.48 264.162 91.4142 268.131C95.6511 272.349 100.466 274.94 106.161 276.097C108.582 276.594 114.442 276.594 116.946 276.125Z" fill="#87C904"/>
<path d="M281.194 262.536L281.276 231.471L288.099 231.361L294.895 231.251L294.922 234.779V238.335L295.528 237.508C296.766 235.771 300.067 232.794 301.635 231.94C304.221 230.589 305.9 230.203 309.339 230.203C314.786 230.203 318.335 231.609 322.022 235.302C323.865 237.122 324.47 237.976 325.543 240.126C327.662 244.481 327.992 246.19 328.02 252.944C328.047 259.697 327.689 261.599 325.543 265.981C324.498 268.131 323.865 268.986 321.774 271.108C319.188 273.699 318.115 274.388 314.704 275.574C312.613 276.29 306.202 276.318 303.974 275.629C300.727 274.609 298.774 273.065 295.5 268.903C295.142 268.462 294.922 268.242 295.005 268.407C295.087 268.572 295.17 274.278 295.17 281.086L295.197 293.463L288.154 293.545L281.139 293.601L281.194 262.536ZM307.716 263.252C311.842 261.709 314.236 256.527 313.383 250.986C312.943 248.285 312.283 246.797 310.714 245.115C308.871 243.158 307.248 242.524 303.974 242.497C301.718 242.469 301.168 242.552 299.847 243.186C297.784 244.151 296.656 245.17 295.83 246.769C294.345 249.719 293.959 253.247 294.785 256.665C295.5 259.807 297.481 262.288 300.012 263.28C301.965 264.052 305.625 264.024 307.716 263.252Z" fill="#87C904"/>
<path d="M236.926 275.82C232.662 274.883 228.122 271.245 225.922 267C223.473 262.231 222.4 255.781 223.033 249.579C223.473 245.307 223.941 243.598 225.591 240.18C227.517 236.266 229.993 233.757 233.597 232.021C235.001 231.359 236.816 230.67 237.614 230.505C239.678 230.064 244.96 230.119 246.693 230.588C249.857 231.442 252.636 233.372 254.644 236.1C255.332 237.038 255.937 237.727 256.02 237.644C256.102 237.561 256.185 236.155 256.213 234.474L256.24 231.442H262.981H269.721L269.804 253.025L269.859 274.58H263.118H256.378V271.217L256.35 267.827L255.497 268.929C252.471 272.788 249.197 275.021 245.428 275.82C243.144 276.316 239.182 276.316 236.926 275.82ZM250.655 263.279C252.994 262.589 255.47 259.916 256.24 257.352C257.671 252.336 256.625 247.154 253.599 244.425C249.885 241.089 243.392 241.42 239.953 245.114C238.192 247.043 237.119 251.481 237.642 254.899C238.33 259.53 240.668 262.507 244.382 263.472C245.923 263.857 249.059 263.775 250.655 263.279Z" fill="#87C904"/>
<path d="M379.688 275.958C373.47 275.076 367.913 271.438 365.602 266.779C363.648 262.81 363.621 262.452 363.483 245.996L363.346 231.359L370.416 231.387L377.487 231.442L377.459 243.157C377.404 258.041 377.735 260.66 379.826 262.838C382.439 265.511 388.574 265.153 390.555 262.204C392.068 259.943 392.124 259.53 392.234 245.086C392.289 237.175 392.426 231.663 392.591 231.58C392.729 231.47 395.975 231.414 399.799 231.414L406.733 231.442L406.76 243.295C406.815 263.609 406.457 265.594 401.643 270.473C399.002 273.147 396.773 274.415 392.949 275.434C390.473 276.068 382.687 276.372 379.688 275.958Z" fill="#87C904"/>
<path d="M427.916 276.071C424.89 275.63 423.267 275.271 421.038 274.582C418.617 273.783 414.518 271.853 413.803 271.164C413.5 270.861 413.665 269.896 414.821 265.569C415.591 262.702 416.224 260.139 416.224 259.89C416.224 259.229 416.389 259.284 418.26 260.717C420.406 262.344 424.367 264.246 426.816 264.824C429.705 265.486 433.391 265.458 434.987 264.742C437.848 263.446 437.793 260.332 434.877 258.898C434.189 258.567 432.098 257.878 430.227 257.355C423.817 255.535 420.598 253.937 418.232 251.318C416.251 249.168 415.563 246.935 415.729 243.076C415.811 240.43 415.894 240.044 416.857 238.115C418.232 235.358 420.048 233.539 422.937 232.106C426.238 230.48 428.384 230.121 433.832 230.287C437.518 230.397 438.894 230.562 441.177 231.114C444.809 232.051 449.238 233.76 449.238 234.228C449.238 234.532 446.79 243.021 446.35 244.179C446.267 244.399 445.662 244.179 444.506 243.462C440.875 241.285 436.885 240.21 433.336 240.458C430.915 240.623 429.705 241.285 429.347 242.58C429.21 243.187 429.237 243.765 429.43 244.234C429.98 245.557 431.053 246.053 438.371 248.396C444.039 250.215 447.753 252.614 449.293 255.453C451.329 259.229 450.917 265.541 448.386 269.235C446.487 272.019 442.773 274.499 438.921 275.547C437.326 276.015 429.87 276.346 427.916 276.071Z" fill="#87C904"/>
<path d="M337.539 241.503V208.426H344.967H352.396V241.503V274.58H344.967H337.539V241.503Z" fill="#87C904"/>
<path d="M163.249 309.866C154.252 308.24 146.466 301.073 143.853 291.922C143 289 142.807 283.46 143.44 280.345C145.421 270.477 153.124 262.704 162.891 260.692C165.835 260.085 170.375 260.141 173.373 260.802C182.342 262.787 189.798 269.953 192.164 278.857C192.962 281.861 192.907 288.835 192.054 291.784C189.578 300.412 183.113 306.917 174.667 309.315C172.328 309.977 165.698 310.307 163.249 309.866Z" fill="#EF7E00"/>
<g opacity="0.5">
<path d="M217.923 298.554C217.351 299.127 216.786 299.546 216.227 299.811C215.672 300.079 215.138 300.231 214.627 300.268C214.122 300.305 213.655 300.27 213.227 300.162L213.508 298.554C213.755 298.587 214.051 298.612 214.396 298.629C214.744 298.649 215.127 298.584 215.545 298.433C215.97 298.282 216.414 297.974 216.879 297.508C217.502 296.885 217.864 296.22 217.968 295.513C218.072 294.806 217.803 294.13 217.16 293.487L215.595 291.918L215.495 292.019C215.548 292.247 215.598 292.545 215.645 292.914C215.692 293.276 215.647 293.686 215.51 294.145C215.373 294.598 215.053 295.075 214.551 295.578C213.929 296.201 213.223 296.613 212.434 296.815C211.648 297.012 210.83 296.974 209.981 296.699C209.134 296.421 208.31 295.88 207.507 295.075C206.718 294.284 206.169 293.457 205.861 292.592C205.55 291.724 205.482 290.881 205.656 290.064C205.826 289.243 206.236 288.507 206.885 287.857C207.387 287.354 207.868 287.039 208.33 286.912C208.791 286.778 209.206 286.738 209.574 286.791C209.942 286.838 210.236 286.885 210.457 286.932L210.578 286.811L209.353 285.585L210.497 284.439L218.425 292.381C219.087 293.044 219.475 293.735 219.589 294.452C219.709 295.169 219.614 295.878 219.303 296.578C218.998 297.279 218.538 297.937 217.923 298.554ZM213.648 294.351C214.123 293.876 214.416 293.364 214.526 292.818C214.637 292.272 214.573 291.709 214.336 291.129C214.098 290.549 213.695 289.975 213.126 289.405C212.571 288.849 211.998 288.442 211.406 288.184C210.813 287.926 210.233 287.84 209.664 287.927C209.096 288.014 208.571 288.299 208.089 288.782C207.587 289.284 207.296 289.831 207.216 290.42C207.139 291.007 207.231 291.598 207.492 292.195C207.756 292.788 208.149 293.346 208.671 293.869C209.206 294.405 209.763 294.795 210.342 295.04C210.921 295.278 211.492 295.348 212.058 295.251C212.623 295.147 213.153 294.847 213.648 294.351ZM223.763 286.912C223.021 287.656 222.216 288.133 221.35 288.344C220.484 288.549 219.609 288.5 218.726 288.199C217.843 287.89 217.007 287.341 216.217 286.55C215.428 285.759 214.876 284.918 214.561 284.026C214.247 283.128 214.18 282.25 214.361 281.392C214.541 280.528 214.98 279.747 215.675 279.05C216.077 278.648 216.54 278.318 217.065 278.06C217.59 277.802 218.164 277.662 218.786 277.642C219.405 277.619 220.055 277.758 220.738 278.06C221.42 278.361 222.121 278.872 222.84 279.593L223.342 280.095L217.401 286.047L216.378 285.022L221.114 280.276C220.679 279.841 220.204 279.539 219.689 279.372C219.177 279.201 218.664 279.176 218.149 279.296C217.637 279.413 217.167 279.687 216.739 280.116C216.267 280.588 215.976 281.114 215.866 281.694C215.756 282.267 215.794 282.832 215.981 283.388C216.169 283.944 216.475 284.435 216.899 284.861L217.582 285.544C218.164 286.128 218.758 286.521 219.363 286.726C219.968 286.924 220.557 286.947 221.129 286.796C221.698 286.642 222.221 286.325 222.7 285.846C223.011 285.534 223.248 285.209 223.412 284.871C223.576 284.526 223.661 284.172 223.668 283.81C223.671 283.445 223.589 283.078 223.422 282.709L224.887 281.885C225.155 282.394 225.293 282.939 225.304 283.519C225.31 284.095 225.186 284.675 224.932 285.258C224.675 285.838 224.285 286.389 223.763 286.912ZM225.143 275.918L229.779 280.563L228.595 281.749L220.888 274.028L222.032 272.882L223.236 274.088L223.337 273.988C223.126 273.415 223.086 272.825 223.216 272.218C223.343 271.609 223.698 271.012 224.28 270.429C224.802 269.906 225.365 269.556 225.971 269.378C226.573 269.197 227.198 269.214 227.847 269.429C228.493 269.64 229.143 270.074 229.799 270.731L234.696 275.637L233.512 276.823L228.695 271.997C228.09 271.391 227.461 271.076 226.809 271.052C226.153 271.025 225.551 271.287 225.002 271.836C224.625 272.215 224.369 272.636 224.235 273.098C224.104 273.557 224.111 274.03 224.255 274.516C224.399 275.002 224.695 275.469 225.143 275.918ZM240.251 270.392C239.509 271.136 238.704 271.614 237.838 271.825C236.972 272.03 236.097 271.981 235.214 271.679C234.331 271.371 233.495 270.821 232.705 270.031C231.916 269.24 231.364 268.399 231.05 267.507C230.735 266.609 230.668 265.731 230.849 264.873C231.03 264.008 231.468 263.228 232.163 262.531C232.565 262.128 233.028 261.798 233.553 261.54C234.078 261.282 234.652 261.143 235.274 261.123C235.893 261.1 236.544 261.239 237.226 261.54C237.908 261.842 238.609 262.353 239.328 263.073L239.83 263.576L233.889 269.528L232.866 268.502L237.602 263.757C237.167 263.321 236.692 263.02 236.177 262.852C235.666 262.681 235.152 262.656 234.637 262.777C234.125 262.894 233.655 263.167 233.227 263.596C232.756 264.069 232.465 264.595 232.354 265.175C232.244 265.748 232.282 266.312 232.47 266.869C232.657 267.425 232.963 267.916 233.388 268.342L234.07 269.025C234.652 269.608 235.246 270.002 235.851 270.206C236.457 270.404 237.045 270.428 237.617 270.277C238.186 270.123 238.709 269.806 239.188 269.327C239.499 269.015 239.736 268.69 239.9 268.352C240.064 268.006 240.149 267.653 240.156 267.291C240.159 266.926 240.077 266.559 239.91 266.19L241.375 265.366C241.643 265.875 241.782 266.42 241.792 266.999C241.798 267.576 241.675 268.156 241.42 268.739C241.163 269.318 240.773 269.87 240.251 270.392ZM245.083 265.23L237.376 257.509L238.52 256.363L239.684 257.529L239.765 257.448C239.524 256.926 239.469 256.361 239.599 255.754C239.73 255.148 240.026 254.613 240.487 254.151C240.574 254.064 240.685 253.957 240.818 253.829C240.952 253.702 241.056 253.608 241.129 253.548L242.334 254.754C242.283 254.784 242.176 254.861 242.013 254.985C241.849 255.103 241.688 255.24 241.531 255.398C241.156 255.773 240.9 256.187 240.763 256.639C240.626 257.085 240.609 257.531 240.713 257.976C240.817 258.415 241.042 258.809 241.39 259.158L246.267 264.044L245.083 265.23ZM252.788 257.872C252.3 258.361 251.765 258.713 251.183 258.928C250.598 259.139 250.012 259.186 249.427 259.068C248.838 258.948 248.293 258.636 247.791 258.133C247.35 257.691 247.079 257.245 246.978 256.796C246.875 256.344 246.89 255.893 247.024 255.444C247.157 254.995 247.361 254.556 247.636 254.127C247.91 253.691 248.203 253.271 248.514 252.865C248.922 252.336 249.256 251.91 249.517 251.589C249.778 251.26 249.937 250.99 249.994 250.779C250.054 250.565 249.989 250.362 249.798 250.171L249.758 250.131C249.263 249.635 248.743 249.385 248.198 249.382C247.656 249.375 247.112 249.645 246.567 250.191C246.002 250.757 245.682 251.325 245.609 251.895C245.535 252.465 245.574 252.956 245.724 253.368L244.199 254.092C243.931 253.422 243.834 252.788 243.908 252.192C243.981 251.589 244.165 251.036 244.46 250.533C244.754 250.024 245.095 249.574 245.483 249.186C245.731 248.938 246.045 248.683 246.427 248.422C246.808 248.154 247.239 247.959 247.721 247.839C248.206 247.715 248.731 247.735 249.296 247.899C249.862 248.063 250.45 248.452 251.063 249.065L256.14 254.152L254.956 255.339L253.912 254.293L253.852 254.353C253.939 254.601 253.984 254.915 253.988 255.293C253.991 255.672 253.904 256.084 253.727 256.53C253.549 256.976 253.237 257.423 252.788 257.872ZM251.905 256.625C252.374 256.156 252.676 255.669 252.814 255.163C252.954 254.653 252.961 254.171 252.834 253.715C252.71 253.256 252.487 252.865 252.166 252.544L251.083 251.458C251.093 251.568 251.037 251.734 250.917 251.955C250.797 252.17 250.644 252.406 250.46 252.664C250.276 252.916 250.094 253.159 249.914 253.393C249.733 253.621 249.587 253.807 249.477 253.951C249.209 254.3 248.987 254.653 248.81 255.012C248.632 255.364 248.551 255.71 248.564 256.052C248.577 256.387 248.734 256.706 249.036 257.007C249.447 257.42 249.91 257.579 250.425 257.485C250.94 257.384 251.434 257.098 251.905 256.625ZM253.946 240.908L254.95 241.913L250.956 245.915L249.952 244.909L253.946 240.908ZM249.27 241.893L250.454 240.707L257.8 248.066C258.134 248.401 258.433 248.604 258.698 248.674C258.962 248.738 259.199 248.721 259.41 248.624C259.621 248.52 259.813 248.381 259.987 248.207C260.118 248.076 260.218 247.962 260.288 247.865C260.355 247.764 260.409 247.684 260.449 247.624L261.753 248.448C261.703 248.559 261.621 248.701 261.507 248.875C261.397 249.053 261.231 249.252 261.011 249.473C260.676 249.809 260.276 250.065 259.812 250.243C259.35 250.417 258.867 250.462 258.362 250.378C257.86 250.291 257.385 250.023 256.937 249.574L249.27 241.893ZM266.743 243.851C266 244.595 265.196 245.073 264.33 245.284C263.463 245.488 262.589 245.439 261.706 245.138C260.823 244.83 259.986 244.28 259.197 243.489C258.407 242.698 257.856 241.857 257.541 240.966C257.227 240.068 257.16 239.19 257.34 238.332C257.521 237.467 257.959 236.686 258.655 235.989C259.056 235.587 259.52 235.257 260.045 234.999C260.57 234.741 261.144 234.602 261.766 234.582C262.385 234.558 263.035 234.697 263.718 234.999C264.4 235.3 265.101 235.812 265.82 236.532L266.322 237.035L260.381 242.986L259.357 241.961L264.094 237.216C263.659 236.78 263.184 236.478 262.669 236.311C262.157 236.14 261.644 236.115 261.129 236.235C260.617 236.353 260.147 236.626 259.719 237.055C259.247 237.527 258.956 238.053 258.846 238.633C258.735 239.206 258.774 239.771 258.961 240.327C259.148 240.884 259.454 241.374 259.879 241.8L260.562 242.484C261.144 243.067 261.737 243.461 262.343 243.665C262.948 243.863 263.537 243.886 264.109 243.735C264.677 243.581 265.201 243.265 265.679 242.785C265.99 242.474 266.228 242.149 266.392 241.81C266.556 241.465 266.641 241.111 266.648 240.75C266.651 240.384 266.569 240.017 266.402 239.649L267.867 238.824C268.134 239.334 268.273 239.878 268.283 240.458C268.29 241.034 268.166 241.614 267.912 242.197C267.654 242.777 267.265 243.328 266.743 243.851ZM274.645 235.934C274.003 236.577 273.274 236.983 272.458 237.15C271.638 237.315 270.792 237.237 269.919 236.919C269.043 236.597 268.196 236.028 267.38 235.21C266.571 234.399 266.007 233.556 265.689 232.682C265.372 231.807 265.298 230.959 265.469 230.138C265.639 229.317 266.049 228.581 266.698 227.931C267.2 227.429 267.68 227.115 268.138 226.991C268.596 226.86 269.007 226.824 269.372 226.881C269.737 226.931 270.029 226.979 270.25 227.026L270.35 226.926L266.557 223.126L267.741 221.939L278.017 232.234L276.873 233.38L275.689 232.194L275.548 232.335C275.602 232.563 275.655 232.864 275.709 233.239C275.759 233.611 275.719 234.03 275.589 234.496C275.455 234.959 275.14 235.438 274.645 235.934ZM273.742 234.707C274.217 234.231 274.495 233.705 274.575 233.129C274.652 232.549 274.555 231.953 274.284 231.339C274.01 230.723 273.582 230.123 273 229.54C272.424 228.963 271.837 228.543 271.238 228.278C270.636 228.01 270.051 227.919 269.482 228.007C268.91 228.09 268.384 228.374 267.902 228.856C267.4 229.359 267.111 229.907 267.034 230.5C266.957 231.086 267.054 231.683 267.325 232.289C267.596 232.889 268.002 233.461 268.544 234.004C269.093 234.553 269.675 234.969 270.29 235.25C270.906 235.525 271.511 235.629 272.106 235.562C272.702 235.488 273.247 235.203 273.742 234.707ZM284.484 225.755L274.209 215.46L275.393 214.273L279.186 218.074L279.286 217.973C279.239 217.752 279.189 217.46 279.136 217.098C279.082 216.73 279.119 216.318 279.246 215.862C279.373 215.399 279.688 214.917 280.189 214.414C280.838 213.764 281.573 213.353 282.392 213.183C283.212 213.012 284.058 213.085 284.931 213.404C285.804 213.722 286.645 214.287 287.455 215.098C288.271 215.915 288.839 216.763 289.16 217.641C289.478 218.516 289.555 219.364 289.391 220.185C289.224 221.003 288.819 221.733 288.177 222.377C287.682 222.873 287.204 223.188 286.742 223.322C286.277 223.452 285.859 223.493 285.488 223.442C285.113 223.389 284.812 223.335 284.585 223.281L284.444 223.422L285.628 224.608L284.484 225.755ZM281.795 220.728C282.377 221.311 282.976 221.74 283.591 222.015C284.203 222.286 284.799 222.383 285.377 222.306C285.953 222.226 286.478 221.948 286.953 221.472C287.448 220.976 287.73 220.431 287.801 219.838C287.871 219.238 287.767 218.632 287.49 218.018C287.212 217.398 286.799 216.814 286.25 216.264C285.708 215.721 285.137 215.316 284.534 215.048C283.932 214.773 283.337 214.676 282.748 214.756C282.16 214.83 281.614 215.118 281.113 215.621C280.631 216.103 280.348 216.631 280.265 217.204C280.178 217.774 280.268 218.36 280.536 218.963C280.8 219.563 281.22 220.151 281.795 220.728ZM296.476 219.531C296.275 219.732 296.079 219.895 295.889 220.019C295.701 220.146 295.563 220.225 295.472 220.255L294.73 218.908C295.091 218.694 295.372 218.466 295.573 218.224C295.773 217.983 295.87 217.688 295.864 217.34C295.864 216.991 295.74 216.549 295.492 216.013L295.111 215.188L284.514 210.282L285.799 208.995L294.067 213.017L294.148 212.936L290.134 204.652L291.418 203.365L296.977 215.49C297.228 216.036 297.375 216.549 297.419 217.028C297.466 217.511 297.409 217.96 297.248 218.375C297.091 218.787 296.834 219.173 296.476 219.531ZM231.03 297.84L235.887 308.417L234.683 309.623L224.126 304.757L225.411 303.47L233.679 307.492L233.759 307.411L229.746 299.127L231.03 297.84ZM243.415 301.196C242.673 301.94 241.868 302.417 241.002 302.628C240.136 302.833 239.261 302.784 238.378 302.483C237.495 302.174 236.659 301.625 235.869 300.834C235.08 300.043 234.528 299.202 234.213 298.31C233.899 297.412 233.832 296.534 234.013 295.676C234.193 294.812 234.632 294.031 235.327 293.334C235.729 292.932 236.192 292.602 236.717 292.344C237.242 292.086 237.816 291.946 238.438 291.926C239.057 291.903 239.707 292.042 240.39 292.344C241.072 292.645 241.773 293.156 242.492 293.877L242.994 294.379L237.053 300.331L236.03 299.306L240.766 294.56C240.331 294.125 239.856 293.823 239.341 293.656C238.829 293.485 238.316 293.46 237.801 293.58C237.289 293.697 236.819 293.971 236.391 294.4C235.919 294.872 235.628 295.398 235.518 295.978C235.408 296.551 235.446 297.116 235.633 297.672C235.821 298.228 236.127 298.719 236.552 299.145L237.234 299.828C237.816 300.412 238.41 300.805 239.015 301.01C239.62 301.208 240.209 301.231 240.781 301.08C241.35 300.926 241.873 300.609 242.352 300.13C242.663 299.818 242.9 299.493 243.064 299.155C243.228 298.81 243.313 298.456 243.32 298.094C243.323 297.729 243.241 297.362 243.074 296.993L244.539 296.169C244.807 296.678 244.946 297.223 244.956 297.803C244.962 298.379 244.838 298.959 244.584 299.542C244.327 300.122 243.937 300.673 243.415 301.196ZM251.538 293.057C250.816 293.781 250.023 294.234 249.16 294.415C248.297 294.596 247.426 294.527 246.546 294.209C245.666 293.89 244.842 293.346 244.073 292.575C243.29 291.791 242.743 290.955 242.432 290.066C242.121 289.172 242.056 288.295 242.236 287.437C242.417 286.573 242.855 285.792 243.551 285.095C244.093 284.552 244.681 284.163 245.317 283.929C245.952 283.694 246.59 283.619 247.228 283.703C247.867 283.786 248.461 284.036 249.01 284.452L247.825 285.638C247.384 285.376 246.872 285.266 246.29 285.306C245.708 285.34 245.156 285.618 244.634 286.141C244.173 286.603 243.889 287.129 243.782 287.719C243.674 288.302 243.741 288.909 243.982 289.539C244.223 290.162 244.634 290.765 245.216 291.348C245.812 291.945 246.424 292.37 247.053 292.625C247.685 292.876 248.295 292.952 248.884 292.851C249.476 292.747 250.006 292.461 250.475 291.992C250.782 291.683 251.008 291.35 251.152 290.991C251.296 290.633 251.354 290.266 251.328 289.891C251.301 289.515 251.184 289.15 250.976 288.795L252.16 287.608C252.548 288.131 252.793 288.708 252.893 289.338C252.993 289.961 252.935 290.596 252.717 291.243C252.5 291.883 252.107 292.488 251.538 293.057ZM251.784 277.047L252.788 278.052L248.794 282.054L247.79 281.048L251.784 277.047ZM247.108 278.032L248.292 276.846L255.637 284.205C255.972 284.54 256.271 284.743 256.536 284.813C256.8 284.877 257.037 284.86 257.248 284.763C257.459 284.659 257.651 284.52 257.825 284.346C257.955 284.215 258.056 284.101 258.126 284.004C258.193 283.904 258.246 283.823 258.287 283.763L259.591 284.587C259.541 284.698 259.459 284.84 259.345 285.015C259.235 285.192 259.069 285.392 258.849 285.613C258.514 285.948 258.114 286.204 257.649 286.382C257.188 286.556 256.704 286.601 256.199 286.518C255.698 286.43 255.223 286.162 254.774 285.713L247.108 278.032ZM264.481 280.091C263.785 280.788 263.009 281.234 262.152 281.428C261.3 281.619 260.428 281.564 259.538 281.262C258.652 280.957 257.811 280.406 257.015 279.608C256.212 278.804 255.657 277.956 255.349 277.065C255.045 276.17 254.988 275.295 255.178 274.441C255.372 273.583 255.817 272.805 256.513 272.108C257.209 271.411 257.983 270.967 258.836 270.776C259.692 270.582 260.565 270.639 261.455 270.947C262.348 271.252 263.196 271.807 263.999 272.611C264.795 273.409 265.344 274.253 265.645 275.144C265.949 276.033 266.004 276.905 265.81 277.763C265.619 278.618 265.176 279.394 264.481 280.091ZM263.417 279.025C263.945 278.496 264.245 277.924 264.315 277.311C264.385 276.698 264.281 276.088 264.004 275.481C263.726 274.875 263.33 274.313 262.815 273.797C262.3 273.281 261.738 272.882 261.129 272.601C260.52 272.319 259.908 272.212 259.293 272.279C258.677 272.346 258.105 272.644 257.577 273.174C257.048 273.703 256.75 274.276 256.684 274.893C256.617 275.51 256.724 276.123 257.005 276.733C257.286 277.343 257.684 277.906 258.199 278.422C258.714 278.938 259.274 279.335 259.88 279.613C260.485 279.891 261.094 279.995 261.706 279.925C262.318 279.855 262.888 279.555 263.417 279.025ZM269.62 274.62L261.913 266.899L263.057 265.753L264.221 266.919L264.301 266.839C264.06 266.316 264.005 265.751 264.136 265.145C264.266 264.538 264.562 264.004 265.024 263.541C265.111 263.454 265.221 263.347 265.355 263.22C265.489 263.092 265.592 262.998 265.666 262.938L266.87 264.145C266.82 264.175 266.713 264.252 266.549 264.376C266.385 264.493 266.224 264.63 266.067 264.788C265.693 265.163 265.437 265.577 265.3 266.03C265.162 266.475 265.146 266.921 265.249 267.367C265.353 267.806 265.579 268.2 265.927 268.548L270.804 273.434L269.62 274.62ZM274.876 269.354L267.17 261.632L268.354 260.446L276.061 268.167L274.876 269.354ZM266.487 259.742C266.257 259.974 265.979 260.094 265.655 260.104C265.333 260.111 265.063 260.004 264.842 259.783C264.621 259.561 264.514 259.29 264.521 258.968C264.531 258.643 264.651 258.365 264.882 258.134C265.113 257.903 265.389 257.784 265.71 257.777C266.034 257.767 266.307 257.872 266.528 258.094C266.748 258.315 266.854 258.588 266.844 258.913C266.837 259.235 266.718 259.511 266.487 259.742ZM278.009 266.216L277.105 265.311L275.861 255.297L275.781 255.217L271.546 259.46L270.442 258.354L276.202 252.583L277.146 253.528L278.47 263.38L278.55 263.461L282.946 259.057L284.049 260.163L278.009 266.216ZM289.044 255.481C288.302 256.225 287.497 256.702 286.631 256.914C285.764 257.118 284.89 257.069 284.007 256.768C283.124 256.459 282.287 255.91 281.498 255.119C280.709 254.328 280.157 253.487 279.842 252.596C279.528 251.697 279.461 250.819 279.642 249.961C279.822 249.097 280.26 248.316 280.956 247.619C281.358 247.217 281.821 246.887 282.346 246.629C282.871 246.371 283.445 246.232 284.067 246.211C284.686 246.188 285.336 246.327 286.019 246.629C286.701 246.93 287.402 247.441 288.121 248.162L288.623 248.665L282.682 254.616L281.659 253.591L286.395 248.846C285.96 248.41 285.485 248.108 284.97 247.941C284.458 247.77 283.945 247.745 283.43 247.865C282.918 247.983 282.448 248.256 282.02 248.685C281.548 249.157 281.257 249.683 281.147 250.263C281.036 250.836 281.075 251.401 281.262 251.957C281.45 252.513 281.756 253.004 282.18 253.43L282.863 254.114C283.445 254.697 284.039 255.09 284.644 255.295C285.249 255.493 285.838 255.516 286.41 255.365C286.979 255.211 287.502 254.894 287.98 254.415C288.292 254.104 288.529 253.778 288.693 253.44C288.857 253.095 288.942 252.741 288.949 252.379C288.952 252.014 288.87 251.647 288.703 251.278L290.168 250.454C290.436 250.963 290.574 251.508 290.584 252.088C290.591 252.664 290.467 253.244 290.213 253.827C289.956 254.407 289.566 254.958 289.044 255.481ZM293.876 250.318L286.169 242.597L287.313 241.451L288.477 242.617L288.557 242.537C288.317 242.014 288.261 241.449 288.392 240.843C288.522 240.236 288.818 239.702 289.28 239.239C289.367 239.152 289.477 239.045 289.611 238.918C289.745 238.79 289.849 238.696 289.922 238.636L291.126 239.843C291.076 239.873 290.969 239.95 290.805 240.074C290.641 240.191 290.481 240.328 290.324 240.486C289.949 240.861 289.693 241.275 289.556 241.728C289.419 242.173 289.402 242.619 289.506 243.065C289.609 243.504 289.835 243.897 290.183 244.246L295.06 249.132L293.876 250.318ZM299.193 245.152C298.945 245.4 298.644 245.524 298.29 245.524C297.935 245.524 297.634 245.4 297.387 245.152C297.139 244.904 297.015 244.602 297.015 244.247C297.015 243.892 297.139 243.59 297.387 243.342C297.634 243.094 297.935 242.97 298.29 242.97C298.644 242.97 298.945 243.094 299.193 243.342C299.357 243.507 299.466 243.699 299.519 243.921C299.576 244.138 299.578 244.358 299.524 244.579C299.471 244.794 299.36 244.985 299.193 245.152ZM302.141 242.038L294.434 234.317L295.618 233.131L303.325 240.852L302.141 242.038ZM293.752 232.427C293.521 232.658 293.243 232.779 292.919 232.789C292.598 232.795 292.327 232.688 292.106 232.467C291.885 232.246 291.778 231.974 291.785 231.653C291.795 231.328 291.915 231.049 292.146 230.818C292.377 230.587 292.653 230.468 292.974 230.461C293.298 230.451 293.571 230.557 293.792 230.778C294.013 230.999 294.118 231.272 294.108 231.597C294.101 231.919 293.982 232.196 293.752 232.427ZM308.785 235.703C308.089 236.4 307.313 236.846 306.457 237.04C305.604 237.231 304.733 237.176 303.843 236.874C302.956 236.569 302.115 236.018 301.319 235.22C300.516 234.416 299.961 233.568 299.653 232.677C299.349 231.782 299.292 230.907 299.483 230.053C299.677 229.195 300.122 228.417 300.817 227.72C301.513 227.023 302.287 226.579 303.14 226.388C303.997 226.194 304.87 226.251 305.759 226.559C306.652 226.864 307.5 227.419 308.303 228.223C309.099 229.021 309.648 229.865 309.949 230.757C310.253 231.645 310.308 232.518 310.114 233.376C309.924 234.23 309.481 235.006 308.785 235.703ZM307.721 234.637C308.25 234.108 308.549 233.536 308.619 232.923C308.69 232.31 308.586 231.7 308.308 231.093C308.031 230.487 307.634 229.926 307.119 229.409C306.604 228.893 306.042 228.495 305.433 228.213C304.824 227.932 304.212 227.824 303.597 227.891C302.981 227.958 302.409 228.257 301.881 228.786C301.352 229.316 301.055 229.889 300.988 230.505C300.921 231.122 301.028 231.735 301.309 232.345C301.59 232.955 301.988 233.518 302.503 234.034C303.018 234.55 303.579 234.947 304.184 235.225C304.789 235.504 305.398 235.607 306.01 235.537C306.622 235.467 307.193 235.167 307.721 234.637Z" fill="#D3D3D3"/>
</g>
</svg>
