<svg width="500" height="500" viewBox="0 0 500 500" fill="none" xmlns="http://www.w3.org/2000/svg">
<rect width="500" height="500" fill="#F0F0F0"/>
<path d="M168.599 154.066C168.139 155.171 131.421 252.889 127.359 263.737L125.141 269.773H126.145C127.443 269.773 126.773 271.272 133.43 253.599C136.403 245.669 138.957 238.884 139.124 238.489C139.417 237.858 140.966 237.819 166.003 237.898L192.589 238.016L194.557 243.144C195.646 245.945 198.367 253.125 200.628 259.003L204.773 269.773H216.496H228.177L227.968 268.945C227.842 268.471 217.417 242.198 204.773 210.559L181.829 153.001H175.424H169.06L168.599 154.066ZM167.971 172.332C170.483 180.577 174.251 190.755 183.672 215.135L191.585 235.649L166.045 235.767C151.978 235.807 140.38 235.767 140.297 235.688C140.213 235.609 143.144 227.404 146.87 217.462C158.216 187.204 164.329 170.675 165.124 168.308C165.543 167.045 165.92 166.059 165.961 166.138C166.045 166.177 166.924 168.978 167.971 172.332Z" fill="black"/>
<path d="M292.235 209.411C282.186 210.358 274.483 212.212 267.114 215.526C261.043 218.287 256.898 220.97 252 225.388C240.654 235.645 234.499 248.743 232.113 267.876L231.861 269.77H244.38H256.898L257.149 265.114C258.573 241.997 263.388 227.953 272.808 219.589C279.8 213.395 289.262 210.634 301.864 211.107C304.962 211.226 308.563 211.581 309.945 211.936C321.123 214.776 326.147 222.272 327.403 238.091C327.696 241.76 328.073 244.127 328.366 244.127C328.576 244.127 330.669 243.851 332.972 243.535C342.936 242.155 348.002 237.46 347.96 229.649C347.919 226.059 346.621 223.258 343.606 220.26C338.289 214.973 329.748 211.66 317.271 210.003C311.494 209.253 297.635 208.938 292.235 209.411Z" fill="black"/>
<path d="M143.772 253.95C143.646 254.147 142.641 256.869 141.594 259.986C138.454 269.178 133.891 279.395 132.802 279.79C132.467 279.908 129.704 279.159 126.648 278.093C115.009 274.069 107.43 272.058 101.234 271.387C89.1343 270.046 88.8831 276.673 100.732 285.826C104.751 288.903 109.315 291.388 113.585 292.729C117.856 294.11 120.786 294.15 123.633 292.887C125.978 291.901 129.913 288.35 131.672 285.707C133.598 282.867 134.016 282.788 139.543 284.76C143.772 286.22 144.4 286.536 144.609 287.482C145.739 292.374 147.037 294.465 148.293 293.439C148.838 293.045 148.838 292.848 148.042 291.861C147.582 291.23 147.163 290.086 147.121 289.218C147.079 287.482 146.912 287.522 152.02 288.587C154.867 289.179 155.327 289.218 155.662 288.705C156.248 287.838 155.369 287.325 152.313 286.772C148.503 286.102 146.786 285.234 146.367 283.774C146.2 283.104 145.907 276.358 145.781 268.783C145.614 261.169 145.321 254.66 145.111 254.266C144.693 253.516 144.107 253.398 143.772 253.95ZM143.939 276.436C144.023 281.723 143.939 283.34 143.479 283.577C143.185 283.774 141.594 283.419 139.585 282.709C137.701 282.078 135.859 281.447 135.482 281.328C135.063 281.21 134.728 281.092 134.728 281.013C134.728 280.973 135.733 278.922 136.989 276.436C138.245 273.951 140.171 269.612 141.26 266.771L143.311 261.643L143.562 265.588C143.73 267.797 143.897 272.649 143.939 276.436ZM106.593 274.109C109.901 274.78 122.084 278.409 128.574 280.697C131.169 281.604 131.463 282.591 129.913 284.839C128.155 287.364 125.099 290.283 123.34 291.112C120.368 292.532 115.511 291.901 110.236 289.416C101.569 285.273 93.9072 278.33 94.2003 274.898C94.284 273.833 94.5771 273.478 95.3726 273.241C96.8798 272.807 102.113 273.202 106.593 274.109Z" fill="black"/>
<path d="M369.941 267.288C367.429 269.931 366.173 274.508 366.005 281.411L365.88 286.934L363.661 288.67C360.772 290.919 358.595 291.866 356.083 291.866C353.529 291.866 351.77 290.919 350.724 289.025C349.719 287.171 348.212 286.185 346.956 286.54C346.495 286.698 345.323 287.447 344.443 288.197L342.811 289.578L342.434 288.67C341.303 285.83 338.289 285.435 335.149 287.684L333.307 289.025L333.516 287.289C333.767 284.922 333.055 285.001 329.497 287.723C325.603 290.761 322.756 292.023 319.365 292.181C317.188 292.26 316.392 292.142 315.262 291.471C313.754 290.603 313.754 290.761 314.424 285.948C314.634 284.488 313.294 284.449 312.498 285.869C311.787 287.171 307.474 289.972 304.753 290.879C301.278 292.023 299.603 291.629 297.133 288.986C295.165 286.895 293.449 286.777 290.644 288.67L288.718 289.933L288.969 288.591C289.094 287.842 290.267 285.751 291.565 283.936C294.579 279.676 297.468 274.113 297.803 271.943C298.18 269.655 297.384 268.038 295.793 267.88C294.998 267.801 294.37 267.998 293.993 268.472C292.109 270.681 290.015 276.046 288.257 282.91C287.336 286.579 287.168 286.895 285.494 288.157C281.223 291.313 275.446 292.734 272.599 291.313C271.343 290.722 269.542 287.96 269.542 286.658C269.542 286.303 269.249 285.83 268.872 285.514C268.161 284.962 268.035 285.08 266.737 287.329C265.314 289.854 263.178 292.655 262.802 292.418C262.048 291.984 262.467 289.656 263.597 288.118C264.351 287.092 265.565 286.145 267.156 285.396C269.458 284.291 270.17 283.384 268.956 282.95C267.993 282.595 265.397 283.857 262.885 285.909C258.908 289.144 254.512 290.879 249.236 291.313C246.682 291.55 246.18 291.471 245.259 290.761C244.254 290.011 244.254 289.893 244.798 288.631C246.138 285.554 245.133 283.581 242.872 284.844C242.203 285.159 241.072 285.593 240.277 285.751C238.895 286.027 238.853 286.027 239.23 284.922C239.397 284.291 239.565 282.989 239.565 282.003C239.607 279.794 238.644 279.439 236.885 281.017C235.588 282.2 235.127 283.699 235.671 285.041C235.964 285.83 235.713 286.145 233.62 287.763C230.731 290.011 225.832 292.221 223.153 292.497C221.604 292.655 220.892 292.536 219.762 291.866L218.338 291.037L218.589 288.078C218.715 286.343 218.631 285.08 218.422 284.922C218.171 284.804 216.538 286.145 214.779 287.881C211.807 290.84 210.09 291.826 210.09 290.564C210.09 290.327 210.593 289.144 211.137 287.96C211.723 286.777 212.1 285.554 212.016 285.277C211.597 284.291 210.509 284.765 209.713 286.264C207.662 290.09 198.242 293.444 194.18 291.866C192.757 291.313 190.831 288.591 190.831 287.132C190.831 286.619 191.961 284.173 193.301 281.648C195.729 277.151 197.948 271.391 197.948 269.616C197.948 269.103 197.572 268.393 197.069 267.998C196.274 267.249 196.19 267.249 194.808 267.998C191.292 269.774 188.361 277.348 188.319 284.725V286.816L187.105 285.593C185.095 283.581 183.672 283.897 179.82 287.171C178.522 288.315 174.628 289.222 172.242 288.986C169.102 288.67 165.208 287.289 164.329 286.145C163.491 285.08 161.9 284.844 161.147 285.672C160.812 286.106 160.937 286.422 161.733 287.132C162.989 288.236 163.031 289.262 161.942 290.958C160.896 292.615 159.179 292.773 158.593 291.234C157.881 289.538 158.132 288.71 159.765 286.777C163.868 282.082 168.432 274.153 168.892 270.878C169.353 267.762 166.925 266.736 164.58 269.064C159.179 274.468 154.657 288.986 157.169 292.97C158.886 295.771 162.863 294.43 164.454 290.485C164.915 289.301 164.622 289.301 170.106 290.485C172.953 291.116 175.968 290.998 178.313 290.09C178.857 289.893 179.066 290.169 179.234 291.313C179.569 293.246 180.615 294.233 182.332 294.233C183.42 294.233 184.132 293.838 185.765 292.339C186.854 291.313 187.984 290.13 188.277 289.696C188.738 288.907 188.779 288.907 189.282 289.656C190.496 291.471 192.38 293.207 193.636 293.68C196.399 294.785 200.795 294.154 205.192 292.102C206.741 291.353 207.997 290.919 207.997 291.116C207.997 291.826 209.713 293.049 210.676 293.049C211.221 293.049 212.644 292.339 213.816 291.471L215.952 289.893L216.663 291.353C219.008 295.929 227.34 295.022 234.583 289.341C236.425 287.921 236.969 287.684 239.397 287.487C240.905 287.368 242.454 287.132 242.914 286.934C243.626 286.619 243.626 286.658 242.956 287.881C242.035 289.617 242.454 291.234 244.129 292.339C246.599 293.996 253.13 293.207 259.62 290.524C260.206 290.248 260.331 290.406 260.331 291.353C260.331 292.97 261.42 294.233 262.802 294.233C263.681 294.233 264.56 293.68 266.151 292.181L268.328 290.169L269.668 291.392C273.31 294.706 278.46 294.588 284.321 291.077C285.41 290.445 286.373 289.893 286.499 289.893C286.582 289.893 286.54 290.84 286.415 292.023C286.08 295.179 286.75 295.179 289.681 292.142C293.03 288.67 293.742 288.552 296.547 291.037C297.928 292.26 299.268 293.089 300.147 293.246C302.66 293.68 306.972 292.378 310.279 290.209C310.949 289.775 311.494 289.459 311.535 289.538C311.577 289.617 311.996 290.367 312.415 291.156C314.676 295.377 321.626 295.219 328.45 290.8C331.088 289.104 331.171 289.065 330.92 290.051C330.795 290.603 330.543 291.471 330.418 291.984C330.292 292.536 330.418 293.089 330.753 293.365C331.213 293.72 331.883 293.286 333.977 291.313C336.572 288.789 338.54 287.644 339.587 288.039C340.173 288.236 341.136 290.8 341.136 292.221C341.136 292.773 341.387 293.049 341.973 293.049C342.434 293.049 342.811 292.852 342.811 292.655C342.811 292.023 346.872 288.315 347.584 288.315C347.918 288.315 348.547 288.986 348.965 289.775C349.426 290.564 350.472 291.787 351.352 292.418C352.817 293.562 353.194 293.641 356.125 293.641C358.93 293.641 359.641 293.483 361.4 292.497C362.53 291.905 364.163 290.761 365.042 290.011L366.633 288.67L367.471 290.169C369.02 292.891 370.401 293.956 372.955 294.39C375.677 294.824 381.036 293.089 384.302 290.643C386.102 289.301 386.353 289.262 386.353 290.248C386.353 291.432 387.902 292.931 389.912 293.68C392.382 294.548 395.983 294.272 399.081 292.931C403.058 291.195 408.543 286.895 407.957 285.988C407.454 285.238 406.91 285.475 404.231 287.605C398.871 291.787 393.094 293.365 389.828 291.471C388.111 290.524 387.818 289.38 388.614 287.171C389.284 285.475 389.2 284.765 388.405 284.765C388.195 284.765 386.939 285.79 385.599 287.092C382.711 289.854 378.231 292.142 374.965 292.497C372.076 292.812 370.192 291.708 369.02 289.025L368.224 287.171L370.569 281.924C372.83 276.954 374.63 271.509 374.63 269.576C374.63 267.249 371.406 265.71 369.941 267.288ZM372.327 270.918C372.034 273.087 370.234 278.965 368.894 281.885C368.266 283.344 368.224 283.344 367.848 282.437C367.345 281.135 368.141 276.007 369.397 272.496C371.113 267.762 372.872 266.815 372.327 270.918ZM166.966 270.602C166.966 272.377 162.528 280.583 160.016 283.463L159.053 284.567L159.681 282.398C161.775 275.612 166.966 267.13 166.966 270.602ZM195.688 271.194C195.101 273.916 190.412 283.305 190.412 281.609C190.412 280.149 191.668 275.691 192.673 273.521C194.432 269.853 196.232 268.432 195.688 271.194ZM295.919 270.563C295.919 272.259 292.318 280.386 290.727 282.2C290.057 282.95 290.057 282.95 290.309 281.806C290.727 279.912 292.569 274.981 293.867 272.259C295.04 269.813 295.919 269.064 295.919 270.563ZM186.058 287.329L187.021 288.315L185.681 289.854C183.923 291.866 182.332 292.773 181.704 292.181C180.699 291.234 181.327 288.591 182.876 287.132C184.007 286.066 184.886 286.145 186.058 287.329Z" fill="black"/>
<path d="M312.917 281.367C312.122 281.998 311.787 282.551 311.954 282.945C312.331 283.813 312.833 283.734 314.341 282.551C315.345 281.722 315.513 281.406 315.136 280.973C314.508 280.262 314.341 280.262 312.917 281.367Z" fill="black"/>
<path d="M387.232 281.57C385.85 282.635 385.725 283.582 386.981 283.582C388.028 283.582 389.87 281.807 389.577 281.097C389.2 280.189 388.907 280.268 387.232 281.57Z" fill="black"/>
<path d="M133.891 308.433C126.564 310.8 123.843 320.544 129.243 325.121C132.132 327.567 134.979 327.882 138.622 326.146C140.631 325.16 142.348 325.278 142.892 326.462C143.646 328.119 143.939 327.409 143.939 323.858C143.939 321.255 144.106 320.229 144.567 319.874C145.781 318.927 145.153 318.69 141.427 318.69C139.208 318.69 137.659 318.848 137.659 319.085C137.659 319.282 138.119 319.479 138.664 319.479C141.804 319.479 141.762 323.858 138.622 325.357C136.235 326.501 132.97 325.357 131.086 322.675C128.239 318.73 128.783 312.576 132.174 309.893C133.849 308.591 135.063 308.275 137.491 308.552C139.585 308.749 141.678 310.287 142.097 311.865C142.264 312.378 142.599 312.773 142.934 312.773C143.353 312.773 143.52 312.181 143.52 310.642V308.512L141.427 308.078C138.412 307.486 136.528 307.565 133.891 308.433Z" fill="black"/>
<path d="M173.079 308.277C170.148 309.145 166.841 312.341 165.961 315.142C165.124 317.785 165.124 319.244 165.92 321.532C167.092 324.728 171.027 327.371 174.67 327.371C180.155 327.371 185.304 323.032 186.1 317.706C186.686 313.682 183.839 309.342 179.82 308.238C177.224 307.528 175.759 307.528 173.079 308.277ZM177.81 309.619C181.369 311.315 183.546 315.497 183.211 319.915C182.709 326.188 175.759 328.278 171.111 323.544C168.767 321.217 167.72 317.272 168.39 313.8C168.683 312.262 170.776 309.737 172.158 309.224C173.707 308.632 176.177 308.79 177.81 309.619Z" fill="black"/>
<path d="M147.288 308.431C147.288 308.628 147.623 308.826 148.042 308.826C149.675 308.826 149.801 309.496 149.801 317.505C149.801 325.513 149.675 326.184 148.042 326.184C147.623 326.184 147.288 326.341 147.288 326.578C147.288 326.815 148.879 326.973 151.266 326.973C155.076 326.973 156.416 326.539 154.197 326.026C152.857 325.71 152.648 324.882 152.815 320.306L152.941 316.597L156.206 321.529C158.007 324.29 159.765 326.618 160.1 326.736C160.477 326.854 161.607 326.973 162.612 326.973C164.496 326.973 165.082 326.42 163.659 325.986C162.528 325.671 160.812 323.738 158.676 320.385L156.876 317.584L158.76 315.927C162.026 313.086 162.403 309.694 159.639 308.589C157.923 307.918 147.288 307.8 147.288 308.431ZM157.337 309.812C158.635 311.114 158.97 314.309 158.007 315.729C157.211 316.913 155.118 317.071 153.652 316.084C152.815 315.572 152.731 315.138 152.731 312.376C152.731 309.062 152.815 308.905 155.076 308.865C155.913 308.826 156.667 309.141 157.337 309.812Z" fill="black"/>
<path d="M187.9 308.434C187.9 308.631 188.235 308.828 188.654 308.828C190.245 308.828 190.412 309.538 190.412 316.284C190.412 323.859 190.747 325.003 193.552 326.344C195.855 327.488 200.502 327.488 202.512 326.383C205.359 324.805 205.652 324.016 205.945 317.586C206.238 311.748 206.741 309.459 207.829 309.065C209.336 308.513 208.206 308.039 205.485 308.039C203.81 308.039 202.554 308.197 202.554 308.434C202.554 308.631 202.721 308.828 202.973 308.828C203.182 308.828 203.684 309.42 204.103 310.091C204.731 311.156 204.857 312.458 204.857 317.586V323.819L203.517 325.042C201.005 327.409 195.436 326.936 193.971 324.174C193.51 323.346 193.343 321.452 193.343 316.403C193.343 309.538 193.51 308.828 195.101 308.828C195.52 308.828 195.855 308.631 195.855 308.434C195.855 308.197 194.264 308.039 191.878 308.039C189.491 308.039 187.9 308.197 187.9 308.434Z" fill="black"/>
<path d="M210.09 308.431C210.09 308.628 210.425 308.826 210.844 308.826C212.477 308.826 212.602 309.496 212.602 317.505C212.602 325.513 212.477 326.184 210.844 326.184C210.425 326.184 210.09 326.341 210.09 326.578C210.09 326.815 211.681 326.973 214.068 326.973C216.454 326.973 218.045 326.815 218.045 326.578C218.045 326.341 217.794 326.184 217.459 326.184C215.993 326.184 215.533 325.04 215.533 321.331V317.702H217.836C219.05 317.702 220.306 317.505 220.515 317.307C220.85 316.992 220.557 316.913 219.552 317.031C218.757 317.11 217.584 316.913 216.831 316.558C215.533 315.927 215.533 315.887 215.533 312.771C215.533 309.26 215.868 308.826 218.589 308.826C220.808 308.826 222.022 310.325 222.022 313.086C222.022 314.309 221.855 315.69 221.646 316.124C221.394 316.637 221.771 316.44 222.818 315.532C225.749 312.928 225.79 309.772 222.86 308.589C221.143 307.918 210.09 307.761 210.09 308.431Z" fill="black"/>
<path d="M237.095 308.907C237.89 311.353 242.538 319.677 244.84 322.754C248.064 326.975 254.805 333.168 259.285 335.969C267.867 341.335 277.874 344.609 289.848 345.911C295.416 346.503 309.149 346.384 315.345 345.714C324.64 344.688 334.73 342.203 343.062 338.928L346.579 337.547V322.793V308.039H335.065H323.551V325.16V342.281L321.584 342.676C313.838 344.254 311.368 344.491 304.083 344.491C297.928 344.451 295.751 344.293 292.193 343.583C283.526 341.847 277.874 339.165 272.64 334.273C266.318 328.356 262.634 321.176 259.745 309.104L259.494 308.039H248.148H236.844L237.095 308.907Z" fill="black"/>
</svg>
