<svg width="500" height="500" viewBox="0 0 500 500" fill="none" xmlns="http://www.w3.org/2000/svg">
<g clip-path="url(#clip0_1207_2)">
<rect width="500" height="500" fill="#E5E5E5"/>
<path fill-rule="evenodd" clip-rule="evenodd" d="M0 0H500V500H0V0Z" fill="#F0F0F0"/>
<path d="M249.931 266.948C249.929 266.958 235.15 295.87 227.936 309.877C222.8 319.989 222.8 331.959 227.936 341.994C235.293 356.355 242.651 370.641 249.931 385L272.004 341.994C277.214 331.959 277.214 319.989 272.004 309.877L249.931 266.948Z" fill="#024EA2"/>
<path d="M249.931 233.055C242.651 218.693 235.293 204.41 227.936 190.048C222.8 180.012 222.8 168.044 227.936 157.93C235.293 143.648 242.651 129.287 249.931 115.001L272.004 157.93C277.214 168.044 277.214 180.012 272.004 190.048L249.931 233.055Z" fill="#024EA2"/>
<path d="M233.026 249.92C233.026 249.92 204.128 235.153 190.12 227.936C180.009 222.803 168.041 222.803 158.004 227.936C143.645 235.294 129.359 242.651 115 249.932L158.004 272.004C168.041 277.217 180.009 277.217 190.12 272.004C190.12 272.004 233.035 249.922 233.026 249.92Z" fill="#024EA2"/>
<path d="M309.95 272.004C319.989 277.217 331.957 277.217 342.071 272.004L385 249.932C370.716 242.651 356.35 235.294 342.071 227.936C331.957 222.803 319.989 222.803 309.95 227.936C295.591 235.294 266.943 249.932 266.943 249.932L309.95 272.004Z" fill="#024EA2"/>
<path d="M303 274.344L260.77 260.756L274.336 302.989C277.557 312.871 285.296 320.669 295.258 323.836L337.413 337.426L323.847 295.193C320.704 285.309 312.887 277.51 303 274.344Z" fill="#024EA2"/>
<path d="M225.663 196.998C222.523 187.038 214.706 179.24 204.821 176.073C190.716 171.597 176.692 167.042 162.591 162.483L176.153 204.719C179.373 214.678 187.115 222.399 197 225.643C207.608 229.009 239.186 239.214 239.23 239.23L225.663 196.998Z" fill="#024EA2"/>
<path d="M225.611 302.95L239.18 260.726L196.966 274.286C187.084 277.507 179.286 285.246 176.119 295.21L162.531 337.363L204.762 323.797C214.646 320.653 222.444 312.836 225.611 302.95Z" fill="#024EA2"/>
<path d="M302.961 225.615C312.921 222.475 320.719 214.658 323.886 204.773C328.362 190.67 332.919 176.644 337.473 162.543L295.24 176.107C285.281 179.325 277.56 187.067 274.316 196.952C270.948 207.56 260.729 239.18 260.729 239.18L302.961 225.615Z" fill="#024EA2"/>
</g>
<defs>
<clipPath id="clip0_1207_2">
<rect width="500" height="500" fill="white"/>
</clipPath>
</defs>
</svg>
