<svg width="500" height="500" viewBox="0 0 500 500" fill="none" xmlns="http://www.w3.org/2000/svg">
<g clip-path="url(#clip0_1774_46)">
<rect width="500" height="500" fill="#E5E5E5"/>
<path fill-rule="evenodd" clip-rule="evenodd" d="M0 0H500V500H0V0Z" fill="#F0F0F0"/>
<path fill-rule="evenodd" clip-rule="evenodd" d="M283.571 212.427C259.273 158.844 252.428 112.587 252.428 112.587C252.428 112.587 252.428 112 252 112C251.572 112 251.572 112.587 251.572 112.587C251.572 112.587 244.727 158.844 220.429 212.427C195.789 266.769 165 304 165 304C165 304 209.673 293.633 228.43 268.85C248.303 242.587 251.572 226.608 251.572 226.608C251.572 226.608 251.632 226.021 252.013 226.021C252.394 226.021 252.428 226.608 252.428 226.608C252.428 226.608 255.235 242.974 275.57 268.85C295.243 293.882 339 304 339 304C339 304 308.211 266.769 283.571 212.427Z" fill="url(#paint0_linear_1774_46)"/>
<path fill-rule="evenodd" clip-rule="evenodd" d="M150.814 334.29C150.145 334.984 131.056 355.706 126.539 366.015C122.169 376.005 124.374 380.792 126.252 383.213C129.011 386.765 136.274 388.867 144.82 384.697C148.107 383.095 163.937 375.249 194.793 352.972C211.41 340.978 242.554 321.636 261.904 312.347C288.698 299.498 308.062 308.066 308.255 308.129C308.449 308.191 308.75 308.309 308.957 308.011C309.077 307.844 308.957 307.47 308.456 306.713C307.955 305.957 299.529 291 280.753 291C266.722 291 248.648 300.123 227.066 313.831C194.873 334.276 162.761 357.981 161.384 358.925C160.008 359.868 155.371 361.422 155.097 356.844C154.756 351.744 153.954 334.602 153.954 334.602C153.954 334.602 154.088 333.041 153.099 332.826C152.29 332.632 151.495 333.596 150.814 334.29Z" fill="url(#paint1_linear_1774_46)"/>
<path fill-rule="evenodd" clip-rule="evenodd" d="M313.519 311.492C312.784 310.915 312.81 309.915 313.724 310.006C318.681 311.058 323.573 312.424 328.373 314.096C338.074 317.388 343.842 319.548 346.392 321.041C348.232 322.103 349.897 323.467 351.325 325.082C352.054 325.909 368.06 344.492 372.318 353.944C375.483 360.965 376 368.264 376 374.125C376 381.812 374.583 385.403 374.583 385.403C374.583 385.403 374.391 386 374.02 386C373.649 386 373.57 385.424 372.603 383.625C369.51 377.875 365.51 369.132 345.994 345.631C335.879 333.533 325.031 322.13 313.519 311.492Z" fill="url(#paint2_linear_1774_46)"/>
</g>
<defs>
<linearGradient id="paint0_linear_1774_46" x1="252" y1="304" x2="252" y2="112" gradientUnits="userSpaceOnUse">
<stop stop-color="#29305C"/>
<stop offset="0.2" stop-color="#37348B"/>
<stop offset="0.6" stop-color="#2270AD"/>
<stop offset="0.8" stop-color="#37348B"/>
<stop offset="1" stop-color="#29305C"/>
</linearGradient>
<linearGradient id="paint1_linear_1774_46" x1="216.502" y1="387.001" x2="216.502" y2="291" gradientUnits="userSpaceOnUse">
<stop stop-color="#29305C"/>
<stop offset="0.2" stop-color="#37348B"/>
<stop offset="0.6" stop-color="#2270AD"/>
<stop offset="0.8" stop-color="#37348B"/>
<stop offset="1" stop-color="#29305C"/>
</linearGradient>
<linearGradient id="paint2_linear_1774_46" x1="344.498" y1="386" x2="344.498" y2="309.999" gradientUnits="userSpaceOnUse">
<stop stop-color="#37348B"/>
<stop offset="0.33" stop-color="#2270AD"/>
<stop offset="0.66" stop-color="#37348B"/>
<stop offset="1" stop-color="#29305C"/>
</linearGradient>
<clipPath id="clip0_1774_46">
<rect width="500" height="500" fill="white"/>
</clipPath>
</defs>
</svg>
