<svg width="500" height="500" viewBox="0 0 500 500" fill="none" xmlns="http://www.w3.org/2000/svg">
<rect width="500" height="500" fill="#0075C9"/>
<path fill-rule="evenodd" clip-rule="evenodd" d="M309.847 279.083L257.296 210.439C256.813 209.813 256.174 209.324 255.444 209.023C254.714 208.722 253.918 208.617 253.135 208.721C252.352 208.825 251.61 209.132 250.983 209.613C250.356 210.094 249.866 210.732 249.562 211.462L216.526 291.377C216.222 292.108 216.116 292.906 216.218 293.692C216.321 294.477 216.628 295.222 217.108 295.851C217.589 296.479 218.227 296.97 218.957 297.273C219.687 297.577 220.484 297.682 221.268 297.578L306.868 286.308C307.651 286.202 308.392 285.892 309.018 285.409C309.643 284.925 310.131 284.286 310.433 283.555C310.734 282.823 310.839 282.025 310.736 281.24C310.633 280.456 310.327 279.712 309.847 279.083V279.083Z" fill="white"/>
<path d="M354.434 331.242L348.197 309.409C347.237 311.684 345.708 313.672 343.759 315.184C338.761 319.326 330.627 318.461 326.736 318.461C324.596 318.461 195.004 306.972 195.004 306.972C197.108 306.972 185.922 306.753 185.703 302.427C185.678 300.949 185.85 299.474 186.213 298.041C186.213 298.041 179.368 306.107 184.997 312.905C188.645 317.292 340.281 355.184 340.281 355.184C340.281 355.184 348.793 357.413 353.936 349.847C353.977 349.785 354.013 349.72 354.045 349.652C356.185 345.814 357.134 341.55 354.434 331.242Z" fill="white"/>
<path fill-rule="evenodd" clip-rule="evenodd" d="M150.235 283.993C148.177 286.085 146.527 288.544 145.371 291.243C144.094 294.349 143.353 298.285 145.432 301.587L145.566 301.782C146.731 303.585 148.251 305.131 150.032 306.327C151.813 307.523 153.818 308.344 155.925 308.739L182.092 313.429C179.818 311.626 178.602 307.13 180.389 301.635C183.307 292.692 265.199 173.972 265.199 173.972L282.732 144C275.425 147.022 150.235 283.993 150.235 283.993Z" fill="white"/>
<path fill-rule="evenodd" clip-rule="evenodd" d="M183.794 305.169C183.794 305.315 185.01 305.827 185.083 305.973C185.058 305.814 183.806 305.327 183.794 305.169Z" fill="white"/>
<path fill-rule="evenodd" clip-rule="evenodd" d="M345.79 301.428C340.245 283.152 292.63 152.504 291.682 149.909C291.438 149.251 290.137 144.768 286.174 144.439L268.531 174.996C271.96 176.568 274.391 179.138 278.051 186.778C286.563 204.517 321.289 268.788 334.19 296.871C337.607 304.291 342.166 312.954 331.855 315.147C330.056 315.537 329.363 315.598 328.293 315.769C342.288 317.56 345.777 308.008 346.75 305.412" fill="white"/>
</svg>
