<svg width="500" height="500" viewBox="0 0 500 500" fill="none" xmlns="http://www.w3.org/2000/svg">
<rect width="500" height="500" fill="#F0F0F0"/>
<path d="M217.364 355.501C217.339 355.718 217.12 355.884 216.708 355.997L160.106 369.95C159.399 370.125 159.012 369.841 158.945 369.1L136.004 114.956C135.991 114.813 136.013 114.667 136.067 114.534C136.121 114.401 136.207 114.284 136.316 114.194C136.424 114.103 136.553 114.042 136.69 114.015C136.828 113.988 136.969 113.997 137.102 114.041L317.007 173.827C317.254 173.909 317.472 174.066 317.634 174.278C317.796 174.49 317.894 174.747 317.916 175.017L320.996 210.167C321.009 210.305 320.988 210.443 320.937 210.571C320.885 210.698 320.803 210.81 320.7 210.897C320.596 210.983 320.473 211.042 320.342 211.068C320.211 211.093 320.076 211.085 319.949 211.043L201.544 171.735C201.458 171.704 201.366 171.696 201.276 171.712C201.186 171.728 201.102 171.768 201.03 171.828C200.958 171.888 200.902 171.966 200.866 172.055C200.83 172.144 200.816 172.241 200.824 172.337L217.364 355.501Z" fill="#174264"/>
<path d="M217 355.741C217.409 355.628 217.627 355.463 217.652 355.246C218.153 355.533 218.747 355.55 219.432 355.298C219.95 355.106 220.464 354.946 220.974 354.815C257.343 345.648 293.402 336.686 329.153 327.928C330.222 327.667 330.707 326.971 330.607 325.841L320.829 213.282C320.812 213.089 320.841 212.894 320.914 212.716C320.987 212.537 321.101 212.38 321.246 212.259C321.391 212.137 321.563 212.055 321.747 212.02C321.93 211.984 322.118 211.997 322.296 212.056L351.102 221.67C351.336 221.747 351.542 221.894 351.696 222.094C351.85 222.293 351.944 222.536 351.967 222.792L362.998 349.532C363.015 349.732 362.931 349.858 362.747 349.91L221.074 384.964C220.539 385.094 220.247 384.872 220.196 384.298C219.394 375.193 218.621 365.921 217.877 356.485C217.836 355.902 217.543 355.654 217 355.741Z" fill="#E06030"/>
</svg>
