<svg width="500" height="500" viewBox="0 0 500 500" fill="none" xmlns="http://www.w3.org/2000/svg">
<rect width="500" height="500" fill="#F0F0F0"/>
<path d="M253.813 125.004C251.32 125.123 249.533 129.094 248.226 131.975C246.747 135.318 245.553 138.475 244.507 141.039C227.417 183.806 210.603 226.472 193.623 268.583C200.865 267.689 207.379 266.068 213.85 264.403C224.202 236.653 234.855 208.232 245.21 180.762C245.843 179.079 246.209 176.707 247.997 175.659C249.366 178.052 250.08 180.762 251.012 183.315C257.878 201.98 265.043 220.5 271.697 239.078C280.536 234.185 289.998 228.246 298.934 221.955C316.379 209.606 331.402 195.627 344.895 178.671C347.92 174.828 351.225 170.411 353.94 165.437C356.656 160.477 359.137 154.239 359.047 148.238C358.729 127.615 329.389 132.412 314.225 136.383C301.891 139.621 291.211 143.972 280.75 148.465C280.641 148.465 280.479 148.652 280.75 148.704C294.112 146.411 310.854 141.095 326.993 142.194C333.84 142.67 339.547 145.251 341.857 150.092C343.384 153.264 343.326 158.894 342.324 162.412C340.755 168.061 337.188 174.049 333.26 178.451C321.306 191.861 305.519 202.141 291.187 209.792C280.493 183.701 271.763 160.282 260.764 134.062C259.471 130.962 257.374 125 253.95 125C253.903 125 253.86 125 253.813 125.004V125.004ZM345.567 149.137C345.576 149.146 345.576 149.146 345.595 149.146C345.595 149.15 345.576 149.165 345.576 149.165C345.576 149.165 345.567 149.146 345.567 149.136L345.567 149.137ZM345.106 157.296C345.143 157.282 345.177 157.277 345.187 157.273V157.324C345.177 157.32 345.143 157.314 345.106 157.296ZM348.016 161.261C348.063 161.295 348.134 161.31 348.157 161.342C348.091 161.394 348.016 161.438 347.911 161.485C347.929 161.413 347.982 161.342 348.016 161.261ZM341.159 169.839C341.191 169.863 341.201 169.897 341.24 169.92C341.201 169.92 341.191 169.931 341.159 169.935V169.839ZM345.053 171.261C345.053 171.252 345.1 171.238 345.106 171.233C345.106 171.266 345.101 171.285 345.101 171.314C345.087 171.304 345.053 171.285 345.053 171.261H345.053Z" fill="#008BB7"/>
<path fill-rule="evenodd" clip-rule="evenodd" d="M341.159 174.643L339.181 174.257L340.787 172.944L339.656 171.176L341.654 171.447L342.044 169.34L343.251 171.048L344.91 169.831L344.654 171.96L346.641 172.351L345.029 173.653L346.195 175.418L344.183 175.141L343.788 177.248L342.561 175.551L340.907 176.763L341.159 174.643Z" fill="white"/>
<path fill-rule="evenodd" clip-rule="evenodd" d="M319.389 139.49L318.02 139.225L319.128 138.312L318.329 137.094L319.737 137.289L319.984 135.825L320.83 137.009L321.991 136.157L321.795 137.627L323.184 137.908L322.066 138.801L322.856 140.028L321.481 139.828L321.22 141.292L320.369 140.114L319.214 140.965L319.389 139.49Z" fill="white"/>
<path fill-rule="evenodd" clip-rule="evenodd" d="M306.59 141.455L305.734 141.294L306.413 140.703L305.909 139.924L306.812 140.048L306.97 139.111L307.512 139.862L308.272 139.334L308.159 140.267L309.005 140.438L308.302 141.023L308.819 141.802L307.94 141.679L307.758 142.629L307.226 141.86L306.47 142.411L306.59 141.455Z" fill="white"/>
<path fill-rule="evenodd" clip-rule="evenodd" d="M347.818 160.969L345.754 160.569L347.423 159.19L346.243 157.346L348.326 157.64L348.721 155.43L350.019 157.222L351.783 155.938L351.488 158.173L353.538 158.568L351.879 159.942L353.058 161.773L350.97 161.492L350.57 163.699L349.302 161.92L347.532 163.189L347.818 160.969Z" fill="white"/>
<path fill-rule="evenodd" clip-rule="evenodd" d="M332.949 139.814L330.857 139.419L332.526 138.04L331.343 136.19L333.448 136.48L333.843 134.283L335.113 136.062L336.872 134.787L336.591 137.013L338.67 137.422L336.962 138.777L338.166 140.626L336.064 140.333L335.698 142.553L334.4 140.765L332.65 142.039L332.949 139.814Z" fill="white"/>
<path fill-rule="evenodd" clip-rule="evenodd" d="M345.738 146.662L342.922 146.111L345.185 144.265L343.579 141.765L346.403 142.16L346.955 139.169L348.695 141.594L351.054 139.848L350.663 142.873L353.474 143.415L351.192 145.264L352.836 147.766L349.979 147.367L349.446 150.362L347.701 147.95L345.347 149.672L345.738 146.662Z" fill="white"/>
<path fill-rule="evenodd" clip-rule="evenodd" d="M330.873 187.464L329.395 187.178L330.602 186.204L329.741 184.891L331.234 185.096L331.515 183.536L332.414 184.796L333.665 183.897L333.475 185.476L334.934 185.756L333.736 186.736L334.592 188.039L333.089 187.84L332.818 189.409L331.929 188.139L330.664 189.042L330.873 187.464Z" fill="white"/>
<path fill-rule="evenodd" clip-rule="evenodd" d="M303.436 209.691L301.829 209.386L303.133 208.34L302.224 206.927L303.84 207.151L304.13 205.468L305.115 206.828L306.432 205.853L306.223 207.556L307.802 207.864L306.537 208.91L307.431 210.313L305.847 210.099L305.543 211.773L304.544 210.428L303.223 211.393L303.436 209.691Z" fill="white"/>
<path fill-rule="evenodd" clip-rule="evenodd" d="M318.213 199.189L316.625 198.879L317.932 197.833L317.014 196.421L318.621 196.645L318.922 194.957L319.887 196.317L321.238 195.343L321.018 197.049L322.588 197.354L321.318 198.4L322.225 199.807L320.619 199.583L320.314 201.267L319.345 199.912L318.017 200.886L318.213 199.189Z" fill="white"/>
<path d="M153.024 317.979H218.002V312.753H205.601C204.845 312.582 204.232 312.349 203.628 312.025C198.754 309.454 200.223 302.387 201.777 297.157C233.066 290.437 257.112 276.453 280.303 261.613C285.734 276.182 290.141 289.234 295.638 303.675C296.994 307.26 298.71 311.041 295.354 312.753H290.897V317.979H357.935V312.753H346.808C346.703 312.753 346.588 312.738 346.507 312.729C335.486 311.25 330.854 303.765 326.528 295.768C323.674 290.503 321.315 284.551 318.885 278.583C313.864 266.406 309.252 255.112 304.464 243.257C329.066 222.322 351.682 198.155 367.183 168.907C344.468 198.061 317.888 225.07 284.944 246.045C269.214 256.067 251.659 265.716 231.516 272.311C221.887 275.449 211.021 278.536 199.452 279.971C181.564 282.183 166.914 278.118 165.748 261.85C165.14 253.453 167.893 244.694 169.467 238.383C166.619 243.599 163.005 249.164 160.166 255.345C157.432 261.355 154.655 268.217 154.141 275.559C152.924 292.62 163.827 299.263 180.618 299.482C176.837 306.956 172.605 311.474 163.538 312.753H153.024V317.979ZM209.667 281.365C209.738 281.427 209.795 281.502 209.857 281.574C209.795 281.593 209.719 281.602 209.667 281.621V281.365Z" fill="#00602F"/>
<path fill-rule="evenodd" clip-rule="evenodd" d="M160.167 276.796L157.889 276.353L159.73 274.86L158.436 272.834L160.733 273.158L161.165 270.742L162.554 272.682L164.47 271.289L164.16 273.724L166.463 274.17L164.598 275.669L165.896 277.684L163.614 277.375L163.191 279.787L161.769 277.836L159.858 279.239L160.167 276.796Z" fill="white"/>
<path fill-rule="evenodd" clip-rule="evenodd" d="M209.196 288.746L206.286 288.189L208.649 286.259L206.98 283.654L209.924 284.077L210.481 280.962L212.287 283.468L214.74 281.675L214.332 284.803L217.276 285.37L214.898 287.29L216.591 289.886L213.632 289.487L213.077 292.578L211.269 290.087L208.811 291.88L209.196 288.746Z" fill="white"/>
<path fill-rule="evenodd" clip-rule="evenodd" d="M169.498 290.12L165.994 289.435L168.809 287.153L166.806 284.038L170.35 284.538L170.992 280.834L173.155 283.825L176.08 281.675L175.604 285.413L179.109 286.092L176.274 288.379L178.291 291.489L174.767 290.994L174.116 294.694L171.923 291.713L169.004 293.853L169.498 290.12Z" fill="white"/>
<path fill-rule="evenodd" clip-rule="evenodd" d="M227.387 282.998L224.925 282.528L226.898 280.903L225.504 278.724L227.978 279.067L228.443 276.442L229.965 278.548L232.038 277.041L231.686 279.68L234.163 280.16L232.176 281.781L233.598 283.965L231.097 283.627L230.64 286.237L229.128 284.127L227.045 285.643L227.387 282.998Z" fill="white"/>
<path fill-rule="evenodd" clip-rule="evenodd" d="M242.648 276.352L240.176 275.877L242.164 274.255L240.756 272.063L243.243 272.415L243.705 269.795L245.231 271.911L247.304 270.393L246.967 273.033L249.424 273.508L247.437 275.124L248.85 277.322L246.333 276.975L245.882 279.581L244.379 277.47L242.302 278.996L242.648 276.352Z" fill="white"/>
<path fill-rule="evenodd" clip-rule="evenodd" d="M256.478 270.202L254.418 269.798L256.097 268.423L254.922 266.579L257.005 266.878L257.381 264.668L258.679 266.446L260.434 265.171L260.144 267.401L262.23 267.81L260.528 269.175L261.741 271.021L259.644 270.72L259.235 272.932L257.956 271.149L256.22 272.437L256.478 270.202Z" fill="white"/>
<path fill-rule="evenodd" clip-rule="evenodd" d="M269.155 262.314L267.296 261.962L268.784 260.745L267.742 259.101L269.612 259.353L269.948 257.402L271.075 258.986L272.64 257.85L272.388 259.823L274.247 260.184L272.727 261.396L273.772 263.038L271.927 262.78L271.579 264.73L270.443 263.161L268.889 264.287L269.155 262.314Z" fill="white"/>
<path fill-rule="evenodd" clip-rule="evenodd" d="M282.898 253.759L281.252 253.44L282.589 252.342L281.632 250.872L283.321 251.105L283.63 249.341L284.647 250.768L286.05 249.741L285.827 251.524L287.501 251.848L286.131 252.941L287.082 254.42L285.409 254.182L285.095 255.947L284.062 254.519L282.683 255.542L282.898 253.759Z" fill="white"/>
<path fill-rule="evenodd" clip-rule="evenodd" d="M295.951 244.48L294.324 244.168L295.637 243.092L294.709 241.647L296.355 241.865L296.66 240.149L297.667 241.538L299.036 240.543L298.823 242.294L300.43 242.603L299.141 243.667L300.059 245.114L298.428 244.89L298.114 246.615L297.106 245.223L295.742 246.216L295.951 244.48Z" fill="white"/>
<path fill-rule="evenodd" clip-rule="evenodd" d="M189.338 292.837L185.562 292.109L188.625 289.622L186.452 286.279L190.246 286.802L190.984 282.812L193.27 286.033L196.462 283.726L195.939 287.763L199.709 288.48L196.656 290.954L198.819 294.306L195.011 293.783L194.302 297.767L191.972 294.549L188.815 296.859L189.338 292.837Z" fill="white"/>
<path fill-rule="evenodd" clip-rule="evenodd" d="M138.277 360.922C138.277 360.922 132.137 363.742 127.763 363.674H127.686L133.602 347.987L138.409 360.926C138.339 360.922 138.277 360.922 138.277 360.922ZM152.323 373.204C152.265 373.2 152.205 373.19 152.143 373.176C151.49 373.019 150.102 372.696 148.191 368.192C146.475 364.108 143.255 356.02 140.659 349.524C138.619 344.398 136.849 339.966 136.351 338.815C135.913 337.788 135.528 337.065 134.829 337.065C134.063 337.065 133.717 337.84 133.155 339.206L121.159 369.191C120.183 371.625 119.36 372.914 117.63 373.223H115V375.002H128.191V373.223H125.442C125 373.061 124.829 372.762 124.829 372.244C124.829 371.735 125.047 370.655 125.514 369.457L126.618 366.561L126.622 366.57C126.622 366.57 133.008 366.552 139.346 363.875C139.394 363.85 139.427 363.826 139.485 363.803L142.794 372.724C142.908 372.976 142.818 373.137 142.737 373.222H141.605V375.002H155.243V373.222H152.504L152.323 373.204Z" fill="#004788"/>
<path fill-rule="evenodd" clip-rule="evenodd" d="M187.699 368.714L187.665 368.776C187.623 368.861 187.58 368.947 187.537 369.032C186.653 370.697 184.294 371.491 180.323 371.491H169.154L171.736 367.559C177.652 358.567 183.771 349.261 189.416 340.074L189.491 339.95C189.687 339.637 189.843 339.342 189.843 339.004C189.843 338.671 189.553 338.31 188.716 338.31L172.031 338.315C170.586 338.315 168.507 338.296 165.383 338.162C164.698 338.134 164.332 338.029 164.051 337.944C163.876 337.901 163.733 337.854 163.571 337.839L163.276 337.814L161.502 346.992L163.167 347.316L163.718 344.443C164.051 343.811 164.636 342.965 165.626 342.436C167.151 341.571 170.181 341.477 172.339 341.477H181.113C177.447 347.248 173.5 353.364 169.668 359.28C166.839 363.644 164.009 368.019 161.237 372.352C160.633 373.255 160.466 373.531 160.466 373.964C160.466 374.263 160.614 374.752 161.598 374.752C166.649 374.752 171.222 374.82 175.635 374.886C179.653 374.942 183.438 375 187.251 375C187.561 375 187.827 374.938 188.088 374.809L188.222 374.733L188.459 373.544L188.468 373.549L189.952 365.922L188.293 365.604L187.699 368.714Z" fill="#004788"/>
<path fill-rule="evenodd" clip-rule="evenodd" d="M326.857 339.659L328.069 339.663C328.612 339.663 329.381 339.712 329.718 339.793C331.037 340.073 331.426 340.596 331.522 342.227C331.622 343.743 331.622 345.056 331.622 352.331V358.299C331.622 363.358 331.417 367.438 328.939 369.915C326.69 372.165 323.751 372.408 322.581 372.408C320.856 372.408 318.84 372.179 316.81 370.519C314.936 368.984 313.195 366.539 313.195 359.022V352.331C313.195 345.056 313.195 343.743 313.3 342.227C313.381 340.581 313.747 339.992 314.793 339.802C315.354 339.706 315.63 339.663 316.148 339.659H317.227V337.976H301.659V338.722C301.644 338.77 301.622 338.832 301.622 338.912C301.622 338.993 301.644 339.059 301.659 339.112V339.659L302.758 339.663C303.505 339.663 304.232 339.716 304.56 339.793C305.877 340.073 306.266 340.596 306.358 342.227C306.458 343.743 306.458 345.056 306.458 352.331V359.302C306.458 365.421 307.837 369.511 310.813 372.193C314.541 375.57 319.496 375.57 321.626 375.57C324.436 375.57 328.14 375.169 331.754 372.054C335.853 368.551 336.415 362.963 336.415 357.443V352.331C336.415 345.056 336.415 343.743 336.5 342.227C336.59 340.581 336.961 339.992 337.993 339.802C338.554 339.706 338.834 339.663 339.353 339.659H340.627V337.976H326.857V339.659Z" fill="#004788"/>
<path fill-rule="evenodd" clip-rule="evenodd" d="M370.301 337.975V339.659L371.631 339.663C372.278 339.663 373.382 339.663 374.037 339.92C374.955 340.306 375.416 341.004 375.455 343.933L375.929 364.827C375.355 364.238 374.189 363.025 372.797 361.57C370.466 359.136 367.594 356.111 365.739 354.251C359.112 347.685 351.984 340.058 350.933 338.931C350.771 338.754 350.628 338.603 350.491 338.451C349.91 337.808 349.501 337.353 348.941 337.353C347.998 337.353 347.998 338.765 347.998 339.288L347.58 367.562C347.533 371.565 347.342 372.863 346.326 373.177C346.106 373.243 345.835 373.295 345.551 373.329H343.043V375.017H357.124V373.329H354.612C354.195 373.277 353.837 373.201 353.534 373.087C352.906 372.872 352.178 372.103 352.074 368.085L351.57 348.707C351.745 348.897 351.954 349.13 352.202 349.407C354.213 351.608 358.378 356.196 362.507 360.291C364.522 362.278 366.706 364.48 368.811 366.591C371.888 369.697 374.812 372.626 376.61 374.332C377.186 374.908 377.803 375.474 378.45 375.474C379.396 375.474 379.396 374.213 379.396 373.686L379.919 343.553C379.968 340.695 380.429 340.082 381.446 339.792C381.983 339.663 382.325 339.663 382.81 339.659H384.071V337.975L370.301 337.975Z" fill="#004788"/>
<path fill-rule="evenodd" clip-rule="evenodd" d="M222.301 367.011C221.635 367.011 221.53 367.6 221.473 367.989C221.145 369.882 220.623 370.777 219.5 371.29C218.326 371.832 216.343 371.832 215.145 371.832C210.318 371.832 209.814 371.128 209.727 368.123C209.69 367.148 209.714 364.68 209.718 362.701C209.718 361.913 209.727 361.204 209.727 360.737V356.962C209.727 356.877 209.738 356.825 209.727 356.806C210.875 356.806 215.558 356.853 216.456 356.943C218.264 357.143 218.681 357.914 218.839 358.57C218.933 358.978 218.967 359.407 219.001 359.791C219.011 359.949 219.024 360.105 219.033 360.243V361.099H220.717V352.34H219.033V353.358C218.634 353.544 218.074 353.625 217.36 353.687C216.656 353.743 213.95 353.781 209.738 353.815C209.738 353.8 209.727 353.753 209.727 353.572V341.49C209.727 341.371 209.738 341.328 209.738 341.328V341.333C210.645 341.333 215.696 341.427 216.499 341.517C218.781 341.794 219.163 342.321 219.424 343.045C219.524 343.263 219.599 343.562 219.643 343.88V345.66H221.321V343.933C221.345 343.524 221.383 343.049 221.411 342.631C221.439 342.202 221.46 341.841 221.473 341.651C221.582 340.186 221.71 339.469 221.787 339.036C221.825 338.797 221.859 338.655 221.859 338.532C221.859 337.857 221.43 337.785 221.245 337.785C221.05 337.785 220.85 337.847 220.679 337.904C220.593 337.937 220.512 337.966 220.412 337.985C220.227 338.022 219.979 338.07 219.695 338.109H197.654V339.963H201.768C202.596 340.281 202.895 340.848 202.985 342.226C203.081 343.743 203.081 345.056 203.081 352.33V360.737C203.081 365.103 203.081 368.888 202.833 370.866C202.643 372.321 202.4 373.077 201.702 373.224C201.663 373.233 201.602 373.243 201.554 373.252L197.654 373.272V374.951H213.104C214.812 375.003 216.928 375.045 219.485 375.045C221.292 375.045 221.982 375.045 222.381 373.562C222.624 372.568 223.004 369.302 223.004 368.194C223.004 367.718 223.004 367.01 222.301 367.01V367.011Z" fill="#004788"/>
<path fill-rule="evenodd" clip-rule="evenodd" d="M288.126 352.551L286.8 351.558C282.611 348.386 281.864 346.836 281.864 344.929C281.864 342.137 283.965 340.331 287.223 340.331C290.09 340.331 291.426 341.59 292.173 342.551C292.72 343.227 293.01 343.949 293.157 344.468V346.697H294.84V338.714L294.784 338.396H294.531C294.46 338.367 294.364 338.338 294.279 338.315C292.853 337.935 290.841 337.491 287.841 337.491C281.164 337.491 276.48 341.334 276.48 346.836C276.48 351.005 278.645 354.463 283.685 358.405L285.877 360.126C289.682 363.103 290.442 365.153 290.442 367.516C290.442 370.002 288.307 372.642 284.355 372.642C282.43 372.642 279.025 372.042 277.822 368.053C277.708 367.601 277.584 367.078 277.504 366.631V364.506H275.839L275.825 365.452C275.807 365.518 275.792 365.585 275.777 365.689V373.754L275.867 373.849C276.02 374.015 276.239 374.149 276.582 374.301C278.597 375.191 280.718 375.571 283.685 375.571C286.8 375.571 289.334 374.914 291.45 373.56C295.487 370.934 296.076 367.059 296.076 364.986C296.076 360.283 293.937 356.916 288.126 352.551Z" fill="#004788"/>
<path fill-rule="evenodd" clip-rule="evenodd" d="M243.03 341.586V341.552C243.615 341.404 244.894 341.404 245.308 341.404C247.77 341.404 251.935 343.106 251.935 349.464C251.935 353.597 250.347 355.38 249.392 356.074C248.703 356.569 248.274 356.754 246.406 356.754C245.112 356.754 243.829 356.592 243.044 356.374C243.044 356.355 243.03 356.308 243.03 356.097V341.586ZM262.801 369.863C260.385 367.315 257.618 363.834 254.132 359.427L252.902 357.871C257.129 354.305 258.935 351.067 258.935 347.077C258.935 343.358 256.615 340.8 255.392 339.969C252.701 338.123 249.439 337.82 246.544 337.8V337.743H231.075V340.33H235.018C235.597 340.563 235.864 340.911 235.93 342.25C236.021 343.759 236.021 345.061 236.021 352.331V360.734C236.021 365.089 236.021 368.861 235.806 370.81C235.597 372.26 235.388 372.779 235.018 372.854L231.769 372.907V375.318L249.025 375.322V372.888L244.975 372.902L244.87 372.892C244.746 372.888 244.646 372.869 244.551 372.854C243.705 372.745 243.406 372.288 243.253 370.824C243.03 368.86 243.03 365.07 243.03 360.686L243.039 360.325L246.886 360.41C247.147 360.41 247.175 360.448 247.232 360.515C247.555 360.89 248.43 362.127 249.453 363.596C250.228 364.695 251.108 365.935 251.916 367.058C254.764 370.961 256.59 373.153 258.682 374.281C260.086 375.027 261.393 375.265 264.113 375.265L270.547 375.279V372.844L267.503 372.854C265.992 372.521 264.408 371.513 262.8 369.863L262.801 369.863Z" fill="#004788"/>
</svg>
