<svg width="500" height="500" viewBox="0 0 500 500" fill="none" xmlns="http://www.w3.org/2000/svg">
<rect width="500" height="500" fill="#E5E5E5"/>
<path fill-rule="evenodd" clip-rule="evenodd" d="M0 0H500V500H0V0Z" fill="#F0F0F0"/>
<path fill-rule="evenodd" clip-rule="evenodd" d="M134.438 213H161.183L187.563 269.243H160.818L134.438 213Z" fill="#0095DA"/>
<path fill-rule="evenodd" clip-rule="evenodd" d="M134.438 213H161.183L126.745 286.098H100L134.438 213Z" fill="#0095DA"/>
<path fill-rule="evenodd" clip-rule="evenodd" d="M157.411 261.968L166.658 224.669L161.183 213L147.779 241.448L157.411 261.968Z" fill="#0078B8"/>
<path fill-rule="evenodd" clip-rule="evenodd" d="M238.085 253.074L220.437 213.054H219.741L202.093 253.074H206.55L211.222 242.188H228.816L233.488 253.074H238.085ZM227.252 238.588H212.765L220.009 221.69L227.252 238.588ZM269.362 214.393L269.094 213.75H241.739V217.618H262.612L240.346 252.485L240.614 253.074H269.105V249.217H247.107L269.362 214.393ZM280.474 253.074V213.75H276.177V253.074H280.474V253.074ZM327.138 253.074L325.638 213.107L324.78 213L308.151 242.616L291.092 213L290.289 213.107L288.788 253.074H293.139L293.621 225.226L307.679 249.045H308.268L322.219 225.279L322.809 253.074H327.138V253.074ZM364.319 238.963V213.75H360.022V238.641C360.022 246.474 355.565 249.849 349.457 249.849C343.285 249.849 338.999 246.527 338.999 238.641V213.75H334.702V238.963C334.702 248.403 340.446 253.717 349.457 253.717C358.254 253.717 364.319 248.092 364.319 238.963ZM400 217.618V213.75H369.473V217.618H382.62V253.085H386.917V217.618H400Z" fill="black"/>
<path fill-rule="evenodd" clip-rule="evenodd" d="M203.411 283.324L204.74 273.509L209.626 283.324H209.969L214.79 273.573L216.13 283.324H217.469L215.519 269.694H215.294L209.808 280.881L204.268 269.694H204.043L202.104 283.324H203.411ZM228.72 273.23V275.084C227.713 273.691 226.363 272.984 224.702 272.984C223.266 272.984 222.044 273.498 221.027 274.527C220.009 275.555 219.494 276.788 219.494 278.245C219.494 279.723 219.998 280.988 221.005 282.016C222.012 283.045 223.234 283.57 224.67 283.57C226.277 283.57 227.638 282.895 228.72 281.577V283.324H229.995V273.219H228.72V273.23ZM224.809 274.237C225.923 274.237 226.877 274.623 227.648 275.416C228.42 276.198 228.806 277.173 228.806 278.341C228.806 279.863 228.088 281.138 226.823 281.856C226.18 282.22 225.516 282.392 224.798 282.392C224.091 282.392 223.437 282.209 222.816 281.856C222.205 281.491 221.712 280.988 221.348 280.345C220.984 279.691 220.802 279.027 220.802 278.309C220.802 277.591 220.973 276.905 221.337 276.273C221.702 275.63 222.184 275.137 222.805 274.784C223.416 274.409 224.08 274.237 224.809 274.237ZM232.427 283.324H233.745V279.906C233.745 278.148 233.831 276.991 233.992 276.413C234.41 274.923 235.299 274.227 236.156 274.227C236.338 274.227 236.574 274.28 236.842 274.398L237.517 273.316C237.11 273.08 236.724 272.973 236.37 272.973C235.417 272.973 234.528 273.541 233.745 274.698V273.219H232.427V283.324ZM238.631 283.324H239.939V278.791L244.996 283.334H246.828L240.967 278.052L246.496 273.23H244.589L239.939 277.291V269.351H238.631V283.324ZM256.922 273.23V275.084C255.915 273.691 254.565 272.984 252.904 272.984C251.468 272.984 250.246 273.498 249.229 274.527C248.211 275.555 247.696 276.788 247.696 278.245C247.696 279.723 248.2 280.988 249.207 282.016C250.214 283.045 251.436 283.57 252.872 283.57C254.479 283.57 255.84 282.895 256.922 281.577V283.324H258.197V273.219H256.922V273.23ZM253.011 274.237C254.125 274.237 255.079 274.623 255.85 275.416C256.622 276.198 257.008 277.173 257.008 278.341C257.008 279.863 256.29 281.138 255.025 281.856C254.382 282.22 253.718 282.392 253 282.392C252.293 282.392 251.639 282.209 251.018 281.856C250.407 281.491 249.914 280.988 249.55 280.345C249.186 279.691 249.004 279.027 249.004 278.309C249.004 277.591 249.175 276.905 249.539 276.273C249.904 275.63 250.386 275.137 251.007 274.784C251.618 274.409 252.293 274.237 253.011 274.237ZM261.122 283.324H262.408V279.627C262.408 278.298 262.472 277.377 262.59 276.884C262.783 276.112 263.19 275.48 263.822 274.955C264.444 274.441 265.151 274.173 265.944 274.173C267.316 274.173 268.183 274.848 268.494 276.187C268.601 276.584 268.644 277.355 268.644 278.513V283.324H269.93V278.127C269.93 276.755 269.791 275.748 269.512 275.095C269.234 274.452 268.794 273.927 268.216 273.552C267.626 273.177 266.962 272.973 266.212 272.973C264.723 272.973 263.458 273.659 262.419 275.041V273.219H261.133V283.324H261.122ZM272.512 283.324H273.82V273.219H272.512V283.324ZM275.684 274.366H280.849L275.148 283.324H282.895V282.166H277.377L283.077 273.219H275.684V274.366V274.366ZM293.332 273.23V275.084C292.324 273.691 290.974 272.984 289.314 272.984C287.878 272.984 286.656 273.498 285.638 274.527C284.62 275.555 284.106 276.788 284.106 278.245C284.106 279.723 284.61 280.988 285.617 282.016C286.624 283.045 287.846 283.57 289.281 283.57C290.889 283.57 292.249 282.895 293.332 281.577V283.324H294.607V273.219H293.332V273.23ZM289.421 274.237C290.535 274.237 291.489 274.623 292.26 275.416C293.032 276.198 293.417 277.173 293.417 278.341C293.417 279.863 292.7 281.138 291.435 281.856C290.792 282.22 290.128 282.392 289.41 282.392C288.703 282.392 288.049 282.209 287.428 281.856C286.817 281.491 286.324 280.988 285.96 280.345C285.595 279.691 285.413 279.027 285.413 278.309C285.413 277.591 285.585 276.905 285.949 276.273C286.313 275.63 286.796 275.137 287.417 274.784C288.028 274.409 288.703 274.237 289.421 274.237ZM311.483 274.998C310.272 273.562 308.997 272.984 307.486 272.984C306.576 272.984 305.718 273.219 304.893 273.691C304.079 274.162 303.436 274.805 302.975 275.609C302.514 276.413 302.279 277.28 302.279 278.213C302.279 279.156 302.504 280.002 302.943 280.784C303.393 281.566 304.015 282.188 304.84 282.649C305.654 283.099 306.533 283.324 307.454 283.324C309.04 283.324 310.519 282.649 311.483 281.416V281.941C311.483 283.045 311.354 283.838 311.097 284.342C310.84 284.835 310.401 285.252 309.79 285.574C309.19 285.906 308.44 286.067 307.561 286.067C305.772 286.067 304.593 285.445 303.822 284.117H302.407C302.772 284.899 303.168 285.499 303.607 285.906C304.047 286.324 304.604 286.645 305.29 286.892C305.986 287.138 306.768 287.267 307.626 287.267C308.804 287.267 309.811 287.02 310.658 286.517C311.504 286.013 312.083 285.306 312.426 284.395C312.672 283.742 312.801 282.724 312.801 281.309V273.252H311.494V274.998H311.483ZM307.658 274.237C308.365 274.237 309.019 274.409 309.629 274.752C310.24 275.095 310.712 275.566 311.054 276.177C311.387 276.777 311.558 277.452 311.558 278.213C311.558 279.381 311.194 280.324 310.465 281.041C309.747 281.759 308.794 282.113 307.593 282.113C306.415 282.113 305.45 281.749 304.711 281.031C303.972 280.302 303.597 279.391 303.597 278.288C303.597 277.559 303.768 276.873 304.132 276.252C304.497 275.62 304.979 275.127 305.611 274.773C306.233 274.409 306.918 274.237 307.658 274.237ZM315.383 278.095C315.383 279.531 315.544 280.613 315.865 281.32C316.187 282.038 316.68 282.584 317.344 282.981C317.998 283.377 318.823 283.57 319.809 283.57C321.769 283.57 323.077 282.734 323.72 281.331C324.041 280.624 324.212 279.573 324.212 278.18V273.23H322.895V277.945C322.895 279.209 322.83 280.034 322.702 280.42C322.327 281.566 321.266 282.317 319.819 282.317C319.091 282.317 318.469 282.145 317.944 281.781C317.419 281.416 317.076 280.934 316.883 280.313C316.766 279.873 316.701 279.091 316.701 277.934V273.219H315.394V278.095H315.383ZM317.987 269.244C317.687 269.244 317.441 269.341 317.226 269.555C317.012 269.769 316.916 270.016 316.916 270.316C316.916 270.616 317.012 270.862 317.226 271.076C317.441 271.291 317.687 271.387 317.987 271.387C318.287 271.387 318.533 271.291 318.748 271.076C318.962 270.862 319.059 270.616 319.059 270.316C319.059 270.026 318.951 269.769 318.748 269.555C318.533 269.351 318.287 269.244 317.987 269.244ZM321.769 269.244C321.469 269.244 321.223 269.341 321.009 269.555C320.794 269.769 320.698 270.016 320.698 270.316C320.698 270.616 320.794 270.862 321.009 271.076C321.223 271.291 321.469 271.387 321.769 271.387C322.069 271.387 322.316 271.291 322.53 271.076C322.745 270.862 322.841 270.616 322.841 270.316C322.841 270.026 322.745 269.769 322.53 269.555C322.316 269.351 322.059 269.244 321.769 269.244ZM336.888 275.33C336.288 274.323 335.453 273.691 334.199 273.294C333.577 273.091 332.935 272.994 332.27 272.994C331.209 272.994 330.245 273.23 329.388 273.691C328.52 274.162 327.845 274.805 327.352 275.652C326.859 276.488 326.613 277.388 326.613 278.363C326.613 279.809 327.138 281.052 328.188 282.059C329.238 283.067 330.556 283.581 332.152 283.581C334.231 283.581 335.903 282.745 336.867 281.299L335.838 280.624C334.906 281.802 333.695 282.392 332.206 282.392C330.588 282.392 329.227 281.641 328.466 280.345C328.091 279.702 327.909 279.006 327.909 278.266C327.909 277.141 328.316 276.177 329.12 275.384C329.934 274.591 330.952 274.205 332.184 274.205C333.717 274.205 334.938 274.795 335.828 275.973L336.888 275.33ZM353.4 273.23V275.084C352.393 273.691 351.043 272.984 349.382 272.984C347.946 272.984 346.725 273.498 345.707 274.527C344.689 275.555 344.175 276.788 344.175 278.245C344.175 279.723 344.678 280.988 345.685 282.016C346.693 283.045 347.914 283.57 349.35 283.57C350.957 283.57 352.318 282.895 353.4 281.577V287.01H354.675V273.23H353.4ZM349.489 274.237C350.604 274.237 351.557 274.623 352.329 275.416C353.1 276.198 353.486 277.173 353.486 278.341C353.486 279.863 352.768 281.138 351.504 281.856C350.861 282.22 350.196 282.392 349.479 282.392C348.771 282.392 348.118 282.209 347.496 281.856C346.886 281.491 346.393 280.988 346.028 280.345C345.664 279.691 345.482 279.027 345.482 278.309C345.482 277.591 345.653 276.905 346.018 276.273C346.382 275.63 346.864 275.137 347.486 274.784C348.096 274.409 348.771 274.237 349.489 274.237ZM366.355 273.23V275.084C365.348 273.691 363.997 272.984 362.337 272.984C360.901 272.984 359.679 273.498 358.661 274.527C357.643 275.555 357.129 276.788 357.129 278.245C357.129 279.723 357.633 280.988 358.64 282.016C359.647 283.045 360.869 283.57 362.304 283.57C363.912 283.57 365.273 282.895 366.355 281.577V283.324H367.63V273.219H366.355V273.23ZM362.444 274.237C363.558 274.237 364.512 274.623 365.283 275.416C366.055 276.198 366.44 277.173 366.44 278.341C366.44 279.863 365.723 281.138 364.458 281.856C363.815 282.22 363.151 282.392 362.433 282.392C361.726 282.392 361.072 282.209 360.451 281.856C359.84 281.491 359.347 280.988 358.983 280.345C358.619 279.691 358.436 279.027 358.436 278.309C358.436 277.591 358.608 276.905 358.972 276.273C359.336 275.63 359.819 275.137 360.44 274.784C361.051 274.409 361.715 274.237 362.444 274.237ZM371.691 273.23H369.923V274.345H371.691V283.324H372.998V274.345H375.055V273.23H372.998V269.512H371.691V273.23ZM385.749 273.23V275.084C384.742 273.691 383.392 272.984 381.731 272.984C380.295 272.984 379.074 273.498 378.056 274.527C377.038 275.555 376.523 276.788 376.523 278.245C376.523 279.723 377.027 280.988 378.034 282.016C379.041 283.045 380.263 283.57 381.699 283.57C383.306 283.57 384.667 282.895 385.749 281.577V283.324H387.024V273.219H385.749V273.23ZM381.838 274.237C382.952 274.237 383.906 274.623 384.677 275.416C385.449 276.198 385.835 277.173 385.835 278.341C385.835 279.863 385.117 281.138 383.852 281.856C383.21 282.22 382.545 282.392 381.827 282.392C381.12 282.392 380.466 282.209 379.845 281.856C379.234 281.491 378.741 280.988 378.377 280.345C378.013 279.691 377.831 279.027 377.831 278.309C377.831 277.591 378.002 276.905 378.366 276.273C378.731 275.63 379.213 275.137 379.834 274.784C380.445 274.409 381.12 274.237 381.838 274.237ZM398.725 273.23V275.084C397.718 273.691 396.368 272.984 394.707 272.984C393.271 272.984 392.049 273.498 391.032 274.527C390.014 275.555 389.499 276.788 389.499 278.245C389.499 279.723 390.003 280.988 391.01 282.016C392.017 283.045 393.239 283.57 394.675 283.57C396.282 283.57 397.643 282.895 398.725 281.577V287.01H400V273.23H398.725ZM394.814 274.237C395.928 274.237 396.882 274.623 397.653 275.416C398.425 276.198 398.811 277.173 398.811 278.341C398.811 279.863 398.093 281.138 396.828 281.856C396.185 282.22 395.521 282.392 394.803 282.392C394.096 282.392 393.442 282.209 392.821 281.856C392.21 281.491 391.717 280.988 391.353 280.345C390.989 279.691 390.807 279.027 390.807 278.309C390.807 277.591 390.978 276.905 391.342 276.273C391.707 275.63 392.189 275.137 392.81 274.784C393.421 274.409 394.085 274.237 394.814 274.237Z" fill="black"/>
</svg>
