<svg width="500" height="500" viewBox="0 0 500 500" fill="none" xmlns="http://www.w3.org/2000/svg">
<rect width="500" height="500" fill="#E5E5E5"/>
<path fill-rule="evenodd" clip-rule="evenodd" d="M0 0H500V500H0V0Z" fill="#F0F0F0"/>
<path d="M256.097 164.067C257.301 168.163 265.074 171.025 268.426 173.54C275.5 178.849 281.881 186.075 286.293 193.748C288.032 196.774 289.824 204.077 293.54 204.707C293.531 190.933 281.47 177.143 270.709 169.706C266.414 166.737 261.551 163.489 256.097 164.067Z" fill="#1FA963"/>
<path d="M229.613 164.98V165.437H234.636L229.613 164.98ZM226.873 168.633C226.947 166.922 227.527 166.369 229.156 165.894C227.329 165.298 225.051 167.034 226.873 168.633Z" fill="#A5D5D4"/>
<path d="M275.275 192.835C275.168 188.286 271.991 184.929 268.882 181.883C261.682 174.828 251.59 169.725 241.942 167.003C238.27 165.967 234.353 165.19 230.526 165.479C229.437 165.561 226.538 165.898 226.837 167.603C227.15 169.382 233.615 169.615 235.092 169.916C243.296 171.586 251.38 175.4 258.38 179.909C261.971 182.222 265.337 184.877 268.426 187.83C270.516 189.829 272.284 192.373 275.275 192.835Z" fill="#E93C41"/>
<path d="M235.549 165.438V165.894L239.658 166.351L235.549 165.438ZM240.115 166.351V166.807H241.941L240.115 166.351ZM241.941 166.807V167.264H243.311L241.941 166.807ZM243.311 167.264V167.721H244.681L243.311 167.264ZM244.681 167.721V168.177H246.051L244.681 167.721ZM246.356 168.329L246.66 168.482L246.356 168.329ZM227.786 168.634V169.09H229.613L227.786 168.634ZM247.726 168.786L248.03 168.938L247.726 168.786ZM229.613 169.09V169.547H231.896L229.613 169.09ZM248.639 169.243L248.943 169.395L248.639 169.243ZM232.352 169.547V170.004L236.919 170.46L232.352 169.547ZM249.704 169.547V170.004L251.531 170.46V170.004L249.704 169.547ZM236.919 170.46V170.917H238.288L236.919 170.46ZM251.835 170.612L252.139 170.765L251.835 170.612ZM239.05 171.069L239.354 171.222L239.05 171.069ZM252.748 171.069L253.053 171.222L252.748 171.069ZM284.594 171.405C281.962 173.161 289.336 180.262 290.471 181.876C297.264 191.535 301.177 202.245 303.093 213.84C303.366 215.495 302.989 224.27 306.235 222.892C309.579 221.472 308.491 213.837 308.23 211.1C307.167 199.974 302.815 188.035 295.812 179.177C294.124 177.042 288.01 169.125 284.594 171.405ZM239.658 171.374V171.83H241.028L239.658 171.374ZM253.662 171.526L253.966 171.678L253.662 171.526ZM241.485 171.83V172.287L243.768 172.743V172.287L241.485 171.83ZM254.575 171.982L254.879 172.135L254.575 171.982Z" fill="#A5D5D4"/>
<path d="M284.408 171.83C285.148 174.944 287.764 177.113 289.658 179.593C292.491 183.303 295.052 187.245 297.057 191.465C301.963 201.795 302.305 211.755 304.956 222.515C309.334 220.225 307.956 211.516 307.148 207.447C305.183 197.563 301.184 187.704 295.148 179.593C292.483 176.011 289.154 172.077 284.408 171.83Z" fill="#299FD6"/>
<path d="M255.488 172.439L255.792 172.592L255.488 172.439ZM244.529 172.896L244.833 173.049L244.529 172.896ZM256.402 172.896L256.706 173.049L256.402 172.896ZM245.443 173.353L245.747 173.505L245.443 173.353ZM257.01 173.201L257.467 173.657L257.01 173.201ZM213.174 173.858C209.183 174.48 204.794 174.824 201.311 177.067C200.165 177.806 197.923 180.089 200.078 181.144C203.058 182.603 210.26 179.929 213.649 179.66C221.374 179.047 229.512 180.047 236.919 182.28C240.853 183.466 244.654 184.755 248.334 186.614C249.757 187.332 252.012 188.751 253.667 187.987C255.346 187.212 254.059 185.11 253.253 184.202C251.303 182.006 248.263 180.274 245.595 179.108C236.133 174.972 223.509 172.248 213.174 173.858ZM246.051 173.657V174.114H247.421L246.051 173.657ZM257.923 173.657L259.293 174.571L257.923 173.657ZM247.878 174.114L248.334 174.571L247.878 174.114Z" fill="#A5D5D4"/>
<path d="M199.476 180.049C202.581 181.41 205.866 179.684 209.065 179.268C214.117 178.611 219.963 178.827 225.047 179.177C235.478 179.895 243.61 185.497 253.357 187.812C254.297 182.715 245.317 179.577 241.485 178.259C231.976 174.986 221.33 173.757 211.348 174.955C207.018 175.475 202.216 176.36 199.476 180.049Z" fill="#299FD6"/>
<path d="M248.639 174.722L248.943 174.875L248.639 174.722ZM259.293 174.57L259.75 175.027L259.293 174.57ZM249.704 175.027L251.074 175.94L249.704 175.027ZM260.054 175.179L260.359 175.332L260.054 175.179ZM260.968 175.636L261.272 175.788L260.968 175.636ZM251.531 175.94L252.9 176.853L251.531 175.94ZM261.576 175.94L262.033 176.397L261.576 175.94ZM262.033 176.397L263.403 177.31L262.033 176.397ZM253.205 177.005L253.509 177.158L253.205 177.005ZM254.118 177.462L254.422 177.615L254.118 177.462ZM263.403 177.31L263.859 177.767L263.403 177.31ZM255.032 177.919L255.336 178.071L255.032 177.919ZM264.164 177.919L264.468 178.071L264.164 177.919ZM255.64 178.223L256.097 178.68L255.64 178.223ZM264.773 178.223L265.229 178.68L264.773 178.223ZM256.401 178.832L256.706 178.985L256.401 178.832ZM265.229 178.68L265.686 179.137L265.229 178.68ZM257.315 179.289L257.619 179.441L257.315 179.289ZM265.991 179.289L266.295 179.441L265.991 179.289ZM257.923 179.593L258.38 180.05L257.923 179.593ZM266.599 179.593L267.056 180.05L266.599 179.593ZM258.837 180.05L259.293 180.506L258.837 180.05ZM267.056 180.05L267.512 180.506L267.056 180.05ZM259.293 180.506L259.75 180.963L259.293 180.506ZM267.512 180.506L267.969 180.963L267.512 180.506ZM260.054 181.115L260.359 181.268L260.054 181.115ZM267.969 180.963L268.426 181.42L267.969 180.963ZM260.663 181.42L261.12 181.876L260.663 181.42ZM268.426 181.42L268.882 181.876L268.426 181.42ZM261.424 182.028L261.728 182.181L261.424 182.028ZM268.882 181.876L269.339 182.333L268.882 181.876ZM262.033 182.333L262.49 182.79L262.033 182.333ZM269.339 182.333L269.796 182.79L269.339 182.333ZM262.49 182.79L262.946 183.246L262.49 182.79ZM269.796 182.79L270.252 183.246L269.796 182.79ZM262.946 183.246L264.316 184.159L262.946 183.246ZM270.252 183.246L270.709 183.703L270.252 183.246ZM270.709 183.703L271.165 184.159L270.709 183.703ZM264.316 184.159L264.773 184.616L264.316 184.159ZM271.165 184.159L271.622 184.616L271.165 184.159ZM212.261 184.81C203.079 186.03 193.278 187.968 185.32 192.981C182.837 194.546 180.22 196.209 178.657 198.773C177.914 199.991 177.432 201.871 179.411 202.129C183.049 202.602 188.8 197.394 192.169 195.991C200.786 192.406 209.837 190.667 219.11 190.191C222.01 190.042 230.348 192.589 232.42 190.16C234.106 188.185 229.997 186.415 228.699 186.022C223.485 184.446 217.67 184.091 212.261 184.81ZM264.773 184.616L265.229 185.073L264.773 184.616ZM271.622 184.616L272.079 185.073L271.622 184.616Z" fill="#A5D5D4"/>
<path d="M178.471 201.053C181.083 201.652 183.115 199.896 185.32 198.642C189.294 196.382 193.314 194.597 197.649 193.139C209.171 189.264 220.01 190.094 231.896 190.094C231.089 185.325 221.16 184.939 217.284 185.09C205.573 185.546 183.816 188.901 178.471 201.053Z" fill="#1FA963"/>
<path d="M265.229 185.072L265.686 185.529L265.229 185.072ZM272.079 185.072L272.992 186.442L272.079 185.072ZM265.686 185.529L266.143 185.986L265.686 185.529ZM266.447 186.138L266.751 186.29L266.447 186.138ZM267.056 186.442V187.355H267.969L267.056 186.442ZM272.992 186.442L273.449 186.899L272.992 186.442ZM273.449 186.899L274.362 188.269L273.449 186.899ZM267.969 187.355L268.426 187.812L267.969 187.355ZM268.426 187.812L268.882 188.269L268.426 187.812ZM268.882 188.269L269.339 188.725L268.882 188.269ZM308.152 191.008H308.609V188.725C312.788 189.899 314.481 194.62 315.915 198.314C316.56 194.63 308.653 184.587 308.152 191.008ZM269.339 188.725L269.796 189.182L269.339 188.725ZM274.362 188.725L274.819 189.182L274.362 188.725Z" fill="#A5D5D4"/>
<path d="M308.609 188.725L313.958 210.643L312.718 236.214C318.926 236.192 318.263 229.641 318.732 224.798C319.603 215.794 319.085 205.413 315.581 196.944C314.192 193.587 312.618 189.344 308.609 188.725Z" fill="#E93C41"/>
<path d="M269.796 189.182V190.095H270.709L269.796 189.182ZM274.971 189.486L275.123 189.79L274.971 189.486ZM270.709 190.095L271.166 190.552L270.709 190.095ZM275.275 190.095V192.835H275.732L275.275 190.095ZM271.166 190.552L272.992 192.378L271.166 190.552ZM308.761 191.769L308.913 192.073L308.761 191.769ZM272.992 192.378L273.449 192.835L272.992 192.378ZM309.065 192.378L309.522 194.661H309.979L309.065 192.378ZM273.449 192.835V193.291H275.275L273.449 192.835ZM310.131 195.422L310.283 195.726L310.131 195.422ZM310.587 196.336L310.74 196.64L310.587 196.336ZM205.868 196.944V197.401C207.527 197.401 213.804 197.208 211.348 200.141C213.042 200.181 213.142 198.372 211.735 197.546C210.097 196.585 207.689 196.944 205.868 196.944ZM310.892 196.944V198.771H311.349L310.892 196.944ZM202.215 197.858V198.314L205.412 197.858H202.215Z" fill="#A5D5D4"/>
<path d="M166.142 228.452C168.836 228.027 169.981 225.804 171.699 223.886C174.899 220.312 178.281 216.899 182.124 214.011C188.682 209.082 196.107 204.648 204.042 202.36C205.651 201.896 211.968 201.102 212.297 199.185C212.586 197.494 209.618 197.431 208.608 197.408C204.636 197.322 200.412 198.632 196.736 200.055C185.794 204.291 166.43 214.927 166.142 228.452Z" fill="#E93C41"/>
<path d="M199.932 198.314V198.771H201.759L199.932 198.314ZM199.323 198.923L199.628 199.076L199.323 198.923ZM311.348 198.771V200.141H311.805L311.348 198.771ZM316.371 198.771V200.141H316.828L316.371 198.771ZM197.192 199.228V199.684H198.562L197.192 199.228ZM196.584 199.836L196.888 199.989L196.584 199.836ZM195.67 200.293L195.975 200.446L195.67 200.293ZM316.828 200.141V201.967H317.285L316.828 200.141ZM194.301 200.75L194.605 200.902L194.301 200.75ZM209.065 200.598V201.054H210.891L209.065 200.598ZM311.805 200.598V202.424H312.262L311.805 200.598ZM193.387 201.206L193.691 201.359L193.387 201.206ZM207.695 201.054V201.511H209.065L207.695 201.054ZM192.474 201.663L192.778 201.815L192.474 201.663ZM206.173 201.663L206.477 201.815L206.173 201.663ZM191.561 202.12L191.865 202.272L191.561 202.12ZM204.498 201.967V202.424H205.868L204.498 201.967ZM189.43 202.881V203.337L191.256 202.881H189.43ZM200.389 203.337V203.794L204.498 202.881L200.389 203.337ZM312.262 202.424V204.251H312.718L312.262 202.424ZM317.285 202.424V203.794H317.741L317.285 202.424ZM188.821 203.489L189.125 203.642L188.821 203.489ZM188.06 203.794L188.517 204.251L188.06 203.794ZM199.78 203.946L200.084 204.099L199.78 203.946ZM317.741 203.794V205.62H318.198L317.741 203.794ZM186.995 204.403L187.299 204.555L186.995 204.403ZM198.106 204.251V204.707H199.476L198.106 204.251ZM312.718 204.251V206.534H313.175L312.718 204.251ZM186.233 204.707L186.69 205.164L186.233 204.707ZM196.279 205.62L197.649 204.707L196.279 205.62ZM185.625 205.316L185.929 205.468L185.625 205.316ZM184.864 205.62L185.32 206.077L184.864 205.62ZM193.996 206.077V206.534L195.823 206.077H193.996ZM184.255 206.229L184.559 206.382L184.255 206.229ZM182.58 207.447L183.95 206.534L182.58 207.447ZM193.387 206.686L193.691 206.838L193.387 206.686ZM318.198 206.534V209.273H318.654L318.198 206.534ZM192.626 206.99L193.083 207.447L192.626 206.99ZM313.175 206.99L313.632 212.926H314.088L313.175 206.99ZM182.124 207.447L182.58 207.904L182.124 207.447ZM192.017 207.599L192.322 207.752L192.017 207.599ZM181.515 208.056L181.819 208.208L181.515 208.056ZM191.104 208.056L191.408 208.208L191.104 208.056ZM180.754 208.36L181.211 208.817L180.754 208.36ZM190.191 208.512L190.495 208.665L190.191 208.512ZM180.297 208.817L180.754 209.273L180.297 208.817ZM188.517 209.73L189.886 208.817L188.517 209.73ZM179.689 209.425L179.993 209.578L179.689 209.425ZM318.654 209.273V214.753H319.111L318.654 209.273ZM178.927 209.73L179.384 210.187L178.927 209.73ZM187.908 209.882L188.212 210.035L187.908 209.882ZM178.471 210.187L178.927 210.643L178.471 210.187ZM187.147 210.187L187.603 210.643L187.147 210.187ZM177.862 210.795L178.166 210.948L177.862 210.795ZM186.538 210.795L186.842 210.948L186.538 210.795ZM177.101 211.1L177.558 211.557L177.101 211.1ZM185.777 211.1L186.233 211.557L185.777 211.1ZM176.644 211.557L177.101 212.013L176.644 211.557ZM185.168 211.709L185.472 211.861L185.168 211.709ZM176.188 212.013L176.644 212.47L176.188 212.013ZM184.407 212.013L184.864 212.47L184.407 212.013ZM175.274 212.47V213.383L176.188 212.47H175.274ZM183.798 212.622L184.102 212.774L183.798 212.622ZM325.732 212.948C323.731 214.305 324.878 217.862 324.929 219.776C325.066 224.91 322.575 230.197 322.909 235.251C323.052 237.403 326.188 237.544 327.644 236.589C329.026 235.682 329.302 233.146 329.547 231.648C330.305 227.016 330.365 222.129 329.607 217.493C329.365 216.013 328.148 211.309 325.732 212.948ZM183.037 212.926L183.494 213.383L183.037 212.926Z" fill="#A5D5D4"/>
<path d="M325.96 212.926L325.426 224.341L323.677 236.214C324.889 236.21 326.509 236.425 327.45 235.482C328.622 234.306 328.646 231.825 328.887 230.278C329.589 225.775 330.713 215.413 325.96 212.926Z" fill="#1FA963"/>
<path d="M174.666 213.535L174.97 213.687L174.666 213.535ZM182.58 213.383L183.037 213.839L182.58 213.383ZM193.996 213.624C186.614 215.28 179.454 222.536 175.082 228.321C173.153 230.874 166.401 237.911 173.903 237.078C176.805 236.755 178.385 233.692 180.11 231.648C183.539 227.584 187.469 223.943 191.713 220.748C193.489 219.412 197.086 217.884 197.803 215.634C198.569 213.233 195.459 213.296 193.996 213.624ZM173.905 213.839L174.361 214.296L173.905 213.839ZM181.972 213.991L182.276 214.144L181.972 213.991Z" fill="#A5D5D4"/>
<path d="M170.708 235.758C175.874 237.285 177.788 233.32 180.813 229.824C183.808 226.362 187.186 223.3 190.8 220.496C193.281 218.571 196.673 217.194 197.192 213.84C186.486 214.389 175.168 226.803 170.708 235.758Z" fill="#299FD6"/>
<path d="M173.448 214.297L172.535 215.667L173.448 214.297ZM181.211 214.297L181.667 214.753L181.211 214.297ZM314.088 214.297V223.429H314.545L314.088 214.297ZM180.754 214.753L181.211 215.21L180.754 214.753ZM179.384 216.123L180.754 215.21L179.384 216.123ZM172.23 215.971L172.383 216.275L172.23 215.971ZM319.111 215.667V222.516H319.568L319.111 215.667ZM178.927 216.123L178.471 217.037H179.384L178.927 216.123ZM171.165 216.58V217.493L172.078 216.58H171.165ZM178.014 217.037L178.471 217.493L178.014 217.037ZM170.708 217.493L171.165 217.95L170.708 217.493ZM177.558 217.493L178.014 217.95L177.558 217.493ZM170.252 217.95L170.708 218.406L170.252 217.95ZM177.101 217.95L177.558 218.406L177.101 217.95ZM169.795 218.406L170.252 218.863L169.795 218.406ZM176.644 218.406L177.101 218.863L176.644 218.406ZM169.49 219.168L169.643 219.472L169.49 219.168ZM176.036 219.015L176.34 219.168L176.036 219.015ZM168.882 219.776L169.338 220.233L168.882 219.776ZM174.818 219.776V220.69L175.731 219.776H174.818ZM168.577 220.538L168.73 220.842L168.577 220.538ZM174.361 220.69L174.818 221.146L174.361 220.69ZM167.969 221.146L168.425 221.603L167.969 221.146ZM173.905 221.146L174.361 221.603L173.905 221.146ZM167.664 221.907L167.816 222.212L167.664 221.907ZM173.448 221.603L173.905 222.059L173.448 221.603ZM172.991 222.059L173.448 222.516L172.991 222.059ZM167.207 222.821L167.36 223.125L167.207 222.821ZM172.535 222.516L172.991 222.973L172.535 222.516ZM172.078 222.973L172.535 223.429L172.078 222.973ZM166.751 223.734L166.903 224.038L166.751 223.734ZM171.622 223.429L172.078 223.886L171.622 223.429ZM318.655 223.429V228.452H319.111L318.655 223.429ZM171.165 223.886L171.622 224.343L171.165 223.886ZM166.142 224.343V225.712H166.599L166.142 224.343ZM170.86 224.647L171.013 224.951L170.86 224.647ZM170.252 225.256L170.708 225.712L170.252 225.256ZM313.632 225.256L313.175 230.735H313.632V225.256ZM165.685 225.712V228.452H166.142L165.685 225.712ZM169.795 225.712L170.252 226.169L169.795 225.712ZM169.338 226.169L169.795 226.626L169.338 226.169ZM169.034 226.93L169.186 227.234L169.034 226.93ZM168.425 227.539L168.882 227.996L168.425 227.539ZM167.969 227.996L168.425 228.452L167.969 227.996ZM166.142 228.452V228.909H167.512L166.142 228.452ZM318.198 228.452V230.735H318.655L318.198 228.452ZM131.439 231.192C134.461 230.954 140.308 229.518 143.08 230.931C145.788 232.312 146.875 237.257 147.932 239.866C150.78 246.892 153.76 254.014 157.01 260.873L166.599 251.74C163.069 251.352 156.031 253.604 155.64 248.544L153.357 249C153.042 244.279 149.683 238.68 147.725 234.388C146.97 232.731 146.764 230.426 144.998 229.465C143.481 228.64 140.885 229.363 139.201 229.365C136.163 229.369 133.316 228.308 131.439 231.192ZM291.257 236.671H291.714V231.192C294.135 230.615 302.912 229.469 304.486 231.796C305.843 233.801 304.956 238.428 304.956 240.781C307.422 240.18 315.05 238.868 316.928 241.02C317.9 242.134 317.334 244.246 317.426 245.61C317.763 250.546 317.349 255.483 317.285 260.416L321.851 260.873C321.771 256.141 321.438 251.425 321.394 246.717C321.378 244.98 322.516 242.133 320.481 241.694C321.449 247.151 321.074 254.517 320.024 259.959L319.087 254.023L319.111 239.411C315.943 238.657 310.457 240.097 307.8 238.485C304.458 236.46 308.23 232.395 305.987 230.097C304.414 228.487 293.248 228.175 291.795 230.092C290.642 231.612 291.41 234.839 291.257 236.671ZM362.947 233.018C363.833 230.101 372.465 229.472 374.634 231.468C376.725 233.394 374.038 237.439 375.745 239.591C377.027 241.207 379.941 239.503 381.6 240.424C383.95 241.728 382.829 248.511 382.582 250.827C380.861 250.827 377.426 250.173 376.008 251.296C374.129 252.784 375.354 258.832 375.733 260.873L383.039 261.329C382.43 264.233 383.827 268.204 382.178 270.851C381.008 272.727 378.896 271.913 377.102 272.003C372.072 272.254 367.849 271.72 364.699 267.224C361.678 262.914 362.947 256.267 362.947 251.283C359.115 251.586 350.729 250.229 347.56 252.278C345.33 253.721 345.745 259.019 347.944 260.271C351.051 262.039 357.744 261.043 361.121 260.416C361.854 262.827 362.906 269.584 360.856 271.556C359.614 272.751 357.596 271.924 356.098 271.948C350.896 272.032 345.862 272.614 341.029 270.099C337.934 268.488 336.636 265.121 333.723 263.612C334.03 265.528 334.806 269.569 333.441 271.14C331.836 272.987 328.918 272.142 326.867 272.043C320.912 271.753 315.807 271.81 309.979 270.462C311.31 272.597 313.707 272.954 316.045 273.334C321.483 274.216 331.475 274.901 336.463 272.288C336.324 271.386 335.848 269.215 337.446 269.36C340.16 269.607 343.623 272.49 346.509 273.236C351.58 274.547 358.343 273.789 363.404 272.745C363.32 271.86 362.868 269.825 364.261 269.711C365.986 269.571 368.276 272.058 369.798 272.771C372.638 274.102 381.199 274.796 383.766 272.75C385.903 271.047 384.532 261.938 383.952 259.503C379.987 260.099 376.808 259.225 377.371 254.495C377.78 251.059 383.181 253.643 384.439 250.321C385.138 248.475 385.46 240.313 383.717 239.1C382.039 237.933 379.266 239.457 377.875 237.824C376.355 236.038 377.485 231.655 376.646 229.365C372.567 229.948 368.419 228.499 364.342 229.052C362.3 229.329 361.285 231.745 362.947 233.018ZM184.864 237.585C186.698 235.982 184.931 232.682 187.274 231.205C189.543 229.774 194.578 230.735 197.192 230.735C205.856 230.735 219.614 229.362 222.307 240.324C229.553 239.981 242.029 237.9 245.595 245.804H246.508C253.734 236.809 268.222 238.373 274.362 247.63H275.275C279.741 241.446 284.876 240.324 292.17 240.324V238.041C284.929 239.902 280.859 240.376 274.819 245.347C270.788 238.04 259.521 237.246 252.451 239.637C250.669 240.24 248.643 242.945 246.725 242.852C244.902 242.764 243.374 239.889 241.444 239.347C236.323 237.908 229.466 240.253 224.651 238.223C222.534 237.33 221.247 233.98 219.11 232.603C213.934 229.267 208.136 229.365 202.215 229.365H189.886C188.525 229.366 186.453 229.041 185.465 230.23C184.096 231.879 184.974 235.554 184.864 237.585ZM312.718 231.192V233.932H313.175L312.718 231.192ZM130.982 231.649L125.502 246.717H125.959L131.895 233.475V231.649H130.982ZM317.741 231.649V233.018H318.198L317.741 231.649ZM129.155 244.434H129.612C130.82 241.489 131.836 236.87 134.018 234.534C136.192 232.206 141.002 233.27 142.398 235.758C143.091 232.359 136.273 232.305 134.276 233.488C131.639 235.05 129.965 241.603 129.155 244.434ZM188.06 266.352H188.517V243.521C188.517 241.17 187.639 236.552 188.986 234.534C190.253 232.634 194.767 233.475 196.736 233.475C204.538 233.475 210.989 233.18 217.741 237.585C213.102 231.342 202.636 233.018 195.823 233.018C194.025 233.018 189.324 232.182 188.335 234.13C187.175 236.417 188.06 240.986 188.06 243.521V266.352ZM294.453 234.388C296.159 233.666 299.509 232.548 300.833 234.534C301.966 236.23 301.303 239.738 301.303 241.694V260.416C301.303 262.472 302.02 266.255 300.833 268.033C299.97 269.327 298.082 269.089 296.737 269.092H285.321C288.585 270.462 293.662 269.556 297.193 269.548C298.407 269.546 300.082 269.762 301.027 268.816C302.629 267.214 301.759 262.512 301.759 260.416V242.151C301.759 239.921 302.389 236.529 301.484 234.456C300.456 232.102 295.632 232.571 294.453 234.388ZM317.285 233.018V234.845H317.741L317.285 233.018ZM364.774 242.608C362.789 242.609 360.92 242.288 360.207 244.434H360.664C361.806 243.268 363.846 243.492 364.761 242.332C366.993 239.504 362.837 232.556 369.338 233.543C370.283 233.687 371.106 234.061 371.61 234.913C372.876 237.05 371.019 240.4 372.549 242.332C374.031 244.203 379.585 241.735 379.173 245.797C378.76 249.866 372.76 246.297 372.08 250.37H372.536C374.075 247.58 376.58 249.545 378.784 248.074C380.232 247.108 380.232 244.043 378.784 243.077C377.251 242.054 374.303 242.608 372.536 242.608C372.536 240.28 373.338 236.085 371.998 234.077C370.917 232.458 366.392 232.458 365.312 234.077C363.972 236.085 364.774 240.28 364.774 242.608Z" fill="#A5D5D4"/>
<path d="M119.566 269.093C121.511 269.093 125.074 269.774 126.616 268.361C128.673 266.475 128.118 262.466 130.628 260.955C133.231 259.387 138.97 260.33 141.941 260.424C147.409 260.595 145.634 265.531 148.653 268.361C150.227 269.835 154.088 269.093 156.096 269.093C155.683 261.13 149.329 251.305 146.179 243.978C144.938 241.092 143.96 236.954 141.944 234.534C140.682 233.021 136.444 233.004 134.732 233.751C132.296 234.816 131.396 239.905 130.386 242.152C126.696 250.36 121.091 260.235 119.566 269.093ZM188.516 269.093C190.212 269.093 193.639 269.746 195.027 268.623C197.933 266.272 193.45 259.458 196.495 257.233C198.003 256.131 201.354 256.764 203.128 256.764C208.055 256.764 213.629 256.722 217.129 252.634C221.021 248.087 220.565 238.57 214.999 235.493C210.096 232.782 203.933 233.476 198.562 233.476C196.326 233.476 191.065 232.506 189.248 233.945C187.582 235.265 188.516 240.675 188.516 242.608C188.516 251.115 187.233 260.731 188.516 269.093ZM295.512 233.945C292.778 235.769 296.128 240.772 293.395 242.596C291.608 243.788 288.288 242.921 286.234 243.144C280.731 243.742 276.677 247.628 275.869 253.111C274.093 265.164 282.131 269.093 292.627 269.093C294.599 269.093 298.952 269.905 300.571 268.623C302.237 267.303 301.303 261.893 301.303 259.96C301.303 252.55 303.26 241.996 301.157 234.913C300.597 233.024 296.907 233.014 295.512 233.945ZM366.026 233.945C364.084 235.516 365.863 239.546 364.955 241.628C363.989 243.838 360.634 242.438 360.338 245.355C359.997 248.721 363.957 247.24 364.955 249.525C366.823 253.805 364.104 259.589 365.62 264.07C366.968 268.053 374.876 271.615 378.653 268.623C379.669 267.819 379.669 265.344 378.653 264.539C377.225 263.407 375.079 264.335 373.577 262.958C371.531 261.084 370.767 250.865 372.811 248.82C374.597 247.035 379.025 249.437 379.291 245.798C379.574 241.92 375.085 243.895 373.138 242.596C369.547 240.2 375.032 233.48 368.428 233.48C367.657 233.48 366.666 233.427 366.026 233.945Z" fill="#E93C41"/>
<path d="M312.262 233.932L311.805 236.215L317.285 236.671V234.845H316.828L312.718 236.215L312.262 233.932ZM362.49 233.932V237.585H362.947L362.49 233.932ZM143.006 236.519L143.159 236.823L143.006 236.519ZM143.463 237.433L143.615 237.737L143.463 237.433ZM291.714 237.128L292.17 237.585L291.714 237.128ZM143.767 238.041V239.411H144.224L143.767 238.041ZM182.124 239.411C176.145 237.66 168.281 238.558 162.032 238.739C160.21 238.792 156.971 238.168 155.634 239.744C154.111 241.538 155.02 244.643 155.183 246.717H155.64C155.822 245.06 155.068 242.363 156.372 241.056C157.915 239.509 161.885 240.324 163.859 240.324C170.546 240.324 178.908 238.874 185.32 240.781L185.777 238.041L182.124 239.411ZM217.741 238.041L218.197 238.498L217.741 238.041ZM336.463 243.521C336.167 242.381 336.154 240.133 335.188 239.365C332.531 237.255 324.279 238.974 320.938 238.955V241.238L334.18 240.324V249.457H334.636C337.445 241.3 345.407 240.324 352.901 240.324C355.731 240.324 362.359 241.566 362.947 238.041L343.312 239.637L336.463 243.521ZM218.349 238.802L218.502 239.107L218.349 238.802ZM144.224 239.411L144.681 239.868L144.224 239.411ZM218.806 239.716L218.958 240.02L218.806 239.716ZM195.823 240.781H208.608C206.321 239.411 197.66 238.678 195.823 240.781ZM144.833 240.629L144.985 240.933L144.833 240.629Z" fill="#A5D5D4"/>
<path d="M196.554 240.794C195.228 241.844 195.228 248.394 196.554 249.444C198.628 251.086 207.444 250.329 209.423 248.742C211.659 246.951 211.868 243.076 209.396 241.365C207.323 239.93 198.619 239.158 196.554 240.794Z" fill="#FBFBFC"/>
<path d="M219.111 240.324V242.151H219.567L219.111 240.324ZM209.065 240.781L209.521 241.237L209.065 240.781ZM145.29 241.542L145.442 241.846L145.29 241.542ZM195.366 241.237V242.607H195.823L195.366 241.237ZM209.826 241.39L210.13 241.542L209.826 241.39Z" fill="#A5D5D4"/>
<path d="M280.755 241.236L281.211 241.693L280.755 241.236Z" fill="#FBFBFC"/>
<path d="M136.918 241.693V242.15L138.288 243.52H138.744L136.918 241.693ZM210.434 241.693L210.891 243.976H211.348L210.434 241.693ZM294.149 241.998L294.301 242.302L294.149 241.998Z" fill="#A5D5D4"/>
<path d="M136.918 242.15C136.547 244.305 132.172 251.97 134.015 253.553C135.129 254.51 137.839 254.037 139.2 254.021C140.349 254.008 141.303 253.89 142.397 253.566L137.831 242.15H136.918Z" fill="#FBFBFC"/>
<path d="M145.594 242.15V243.52H146.051L145.594 242.15ZM219.567 242.15L219.11 249.456H219.567V242.15ZM257.01 242.15V242.607H261.577L257.01 242.15ZM136.461 242.607V243.977H136.918L136.461 242.607ZM157.923 243.977C163.018 241.818 170.255 243.063 175.731 243.063C177.416 243.063 180.558 242.477 181.654 244.122C184.677 248.655 175.53 255.452 172.535 257.675C176.3 257.773 185.453 247.532 182.111 243.402C181.047 242.087 178.125 242.607 176.644 242.607H162.946C161.025 242.607 159.056 242.228 157.923 243.977ZM199.476 242.607C198.127 247.579 204.358 249.706 208.006 246.781C210.515 244.769 207.407 242.907 205.412 242.87C203.333 242.831 201.539 243.098 199.476 242.607ZM230.983 268.178H230.526C229.019 269.319 225.367 269.848 224.409 267.654C222.431 263.123 224.133 254.405 224.133 249.456C224.133 247.77 223.549 244.698 225.192 243.602C228.374 241.479 236.046 243.235 239.659 243.52C237.153 242.188 226.568 241.18 224.409 243.339C223.096 244.652 223.677 247.769 223.677 249.456C223.677 254.522 221.928 263.473 223.952 268.11C224.98 270.464 229.804 269.996 230.983 268.178ZM253.357 243.063V243.52L256.097 243.063H253.357Z" fill="#A5D5D4"/>
<path d="M256.097 242.819C246.253 244.594 241.985 257.719 248.576 265.359C252.029 269.361 257.966 270.274 262.946 269.334C272.107 267.606 276.121 255.57 270.869 248.087C267.579 243.398 261.539 241.838 256.097 242.819Z" fill="#E93C41"/>
<path d="M262.49 242.607V243.063H263.86L262.49 242.607ZM285.778 242.607V243.063H293.997L285.778 242.607ZM307.239 263.612H307.696C307.24 257.835 306.35 251.131 307.307 245.367C307.826 242.236 311.935 242.7 313.632 244.433C314.225 241.792 308.324 242.058 307.252 243.665C306.288 245.109 306.782 247.804 306.782 249.456C306.782 254.136 306.382 258.997 307.239 263.612ZM314.088 245.347H313.632C313.632 249.754 312.174 257.342 314.234 261.308C315.395 263.545 321.869 265.146 323.665 262.88C327.157 258.47 321.46 248.833 324.603 244.122C326.02 241.998 330.065 242.93 330.459 245.355C331.679 252.856 330.527 261.484 330.527 269.091H314.545C317.813 270.462 322.882 269.549 326.417 269.548C327.612 269.547 329.663 269.89 330.514 268.816C332.461 266.357 330.983 258.034 330.983 254.936C330.983 252.543 332.239 244.65 330.251 243.076C328.647 241.805 324.403 242.344 323.823 244.46C322.485 249.331 326.038 257.855 323.208 262.096C321.673 264.396 316.253 263.243 314.937 261.279C313.543 259.199 314.088 255.939 314.088 253.566V245.347ZM346.509 242.607V243.063C349.728 243.063 355.296 241.985 357.924 243.977C358.294 241.733 348.379 242.607 346.509 242.607Z" fill="#A5D5D4"/>
<path d="M172.535 248.999C168.91 254.099 159.698 258.322 158.132 264.525C157.827 265.732 157.736 268.142 159.039 268.816C160.423 269.53 162.801 269.091 164.315 269.091C168.684 269.091 177.15 270.742 181.065 268.816C182.584 268.068 182.558 264.711 181.065 263.95C179.407 263.105 176.628 263.611 174.818 263.611C172.657 263.611 170.507 263.452 168.425 264.068C168.756 256.308 182.848 254.142 182.097 245.355C181.86 242.588 179.236 243.063 177.101 243.063C172.271 243.063 163.784 241.407 159.36 243.339C157.697 244.065 157.291 247.383 159.034 248.267C160.533 249.028 163.133 248.543 164.772 248.543C167.383 248.543 169.981 248.391 172.535 248.999ZM225.192 243.402C223.332 244.35 224.133 248.645 224.133 250.369C224.133 254.962 222.385 263.921 224.409 268.032C225.124 269.485 228.607 269.457 229.871 268.816C231.487 267.995 230.983 265.085 230.983 263.611C230.983 260.099 229.431 251.933 231.195 248.935C232.026 247.522 234.296 247.92 235.314 248.866C236.597 250.056 238.8 257.361 242.385 252.834C244 250.794 242.374 245.613 240.522 244.245C237.942 242.342 228.05 241.945 225.192 243.402Z" fill="#E93C41"/>
<path d="M264.621 243.217L264.925 243.369L264.621 243.217ZM283.951 243.064V243.521H285.321L283.951 243.064Z" fill="#A5D5D4"/>
<path d="M330.527 269.091C330.527 261.374 331.754 252.515 330.459 244.917C330.095 242.78 325.903 242.155 324.603 243.796C322.606 246.318 324.134 254.948 324.134 258.132C324.134 259.81 324.596 262.507 322.696 263.336C321.766 263.742 320.557 263.622 319.568 263.61C309.358 263.489 315.632 250.271 313.672 244.501C313.072 242.735 310.141 242.787 308.676 243.262C306.56 243.947 307.239 247.278 307.239 249C307.239 254.024 305.61 262.852 309.583 266.71C314.15 271.146 324.659 269.091 330.527 269.091Z" fill="#E93C41"/>
<path d="M336.463 249.914H336.92C338.519 246.139 342.015 243.876 346.052 243.521C342.14 241.998 337.203 246.248 336.463 249.914Z" fill="#A5D5D4"/>
<path d="M346.052 243.265C336.533 244.764 331.889 256.73 338.013 264.524C341.373 268.801 346.071 269.092 351.075 269.092C352.827 269.092 355.67 269.628 357.269 268.816C358.71 268.085 358.804 265.073 357.322 264.344C351.915 261.683 343.166 266.435 342.572 256.763C342.498 255.552 342.728 254.251 343.135 253.11C345.925 245.31 353.236 251.593 357.585 248.074C358.93 246.986 358.631 243.738 356.907 243.209C354.015 242.323 349.019 242.797 346.052 243.265Z" fill="#E93C41"/>
<path d="M146.203 243.824L146.355 244.128L146.203 243.824ZM240.115 243.52L240.572 243.976L240.115 243.52ZM252.292 243.672L252.596 243.824L252.292 243.672ZM265.229 243.52V243.976H266.599L265.229 243.52ZM281.211 243.976V244.433L283.494 243.976H281.211ZM136.157 244.281L136.309 244.585L136.157 244.281ZM138.897 244.281L139.049 244.585L138.897 244.281Z" fill="#A5D5D4"/>
<path d="M208.608 246.261C205.402 240.547 197.777 247.335 205.411 246.517C206.488 246.402 207.523 246.284 208.608 246.261Z" fill="#FBFBFC"/>
<path d="M240.572 243.977L241.485 244.89V243.977H240.572ZM251.379 244.129L251.683 244.281L251.379 244.129ZM266.599 243.977L267.056 244.433L266.599 243.977ZM146.659 244.738L146.812 245.042L146.659 244.738ZM249.248 245.803L251.074 244.433L249.248 245.803ZM267.36 244.585L267.665 244.738L267.36 244.585ZM280.298 244.433V245.346L281.211 244.433H280.298ZM128.851 245.194L129.003 245.498L128.851 245.194ZM135.548 244.89V246.26H136.005L135.548 244.89ZM139.353 245.194L139.506 245.498L139.353 245.194ZM241.485 244.89L241.942 245.346L241.485 244.89ZM267.969 244.89L268.426 245.346L267.969 244.89ZM146.964 245.346V246.716H147.42L146.964 245.346ZM242.094 245.651L242.246 245.955L242.094 245.651ZM268.426 245.346L270.252 247.173L268.426 245.346ZM279.385 245.346L279.841 245.803L279.385 245.346ZM128.394 246.108L128.547 246.412L128.394 246.108ZM248.791 245.803L249.248 246.26L248.791 245.803ZM278.928 245.803L279.385 246.26L278.928 245.803ZM135.244 246.564L135.396 246.868L135.244 246.564ZM139.658 246.26L140.114 248.543H140.571L139.658 246.26ZM211.043 246.564L211.196 246.868L211.043 246.564ZM242.398 246.26V248.543H242.855L242.398 246.26ZM248.334 246.26L248.791 246.716L248.334 246.26ZM278.472 246.26L278.928 246.716L278.472 246.26ZM147.572 247.021L147.725 247.325L147.572 247.021ZM248.03 247.021L248.182 247.325L248.03 247.021ZM278.015 246.716L277.102 248.543L278.015 246.716ZM127.938 247.477L128.09 247.782L127.938 247.477ZM134.635 247.173V248.543H135.091L134.635 247.173ZM155.183 247.173L155.64 247.63L155.183 247.173ZM210.587 247.477L210.739 247.782L210.587 247.477ZM270.252 247.173L270.709 247.63L270.252 247.173ZM360.207 247.173C361.242 248.77 363.3 248.094 364.304 249.601C366.122 252.328 364.774 259.463 364.774 262.698H365.23C365.23 259.578 366.713 251.291 364.761 248.818C363.949 247.79 361.421 247.688 360.207 247.173ZM124.589 247.63L123.219 251.283H123.676L124.589 247.63ZM158.075 247.934L158.227 248.238L158.075 247.934ZM232.352 247.63V248.086H233.722L232.352 247.63ZM247.421 247.63L247.878 248.086L247.421 247.63ZM270.709 247.63L271.166 248.086L270.709 247.63ZM358.076 247.934L358.229 248.238L358.076 247.934ZM127.481 248.391L127.633 248.695L127.481 248.391ZM148.029 248.391L148.182 248.695L148.029 248.391ZM195.366 248.086V249.456H195.823L195.366 248.086ZM209.978 248.086L210.434 248.543L209.978 248.086ZM230.983 248.086V248.999L231.896 248.086H230.983ZM233.722 248.086V248.543H235.092L233.722 248.086ZM252.444 257.675H252.901C253.069 249.764 258.479 247.035 264.773 251.283C259.388 243.866 252.501 250.86 252.444 257.675ZM271.318 248.391L271.47 248.695L271.318 248.391ZM140.723 248.847L140.875 249.151L140.723 248.847ZM158.379 248.543V248.999H172.078L158.379 248.543ZM209.521 248.543L209.978 248.999L209.521 248.543ZM235.092 248.543L236.005 249.456V248.543H235.092ZM242.855 248.543C242.854 249.864 243.152 251.804 242.123 252.834C239.532 255.424 236.551 252.631 236.462 249.913H236.005C236.029 256.548 245.491 254.826 242.855 248.543ZM246.964 248.543L247.421 248.999L246.964 248.543Z" fill="#A5D5D4"/>
<path d="M257.923 248.798C249.927 250.86 252.533 266.209 260.663 263.768C268.483 261.422 266.71 246.532 257.923 248.798Z" fill="#FBFBFC"/>
<path d="M288.974 248.544V249.001L293.997 249.914C294.326 247.918 290.326 248.544 288.974 248.544ZM347.422 248.544V249.001H357.924L347.422 248.544ZM126.872 249.001V250.371H127.329L126.872 249.001ZM134.33 249.305L134.483 249.61L134.33 249.305ZM137.831 249.001L137.375 251.741C139.116 251.156 139.049 250.228 137.831 249.001ZM148.334 249.001L148.79 250.827H149.247L148.334 249.001ZM172.078 249.001L171.622 250.371L172.078 249.001ZM209.065 249.001L209.521 249.457L209.065 249.001ZM230.526 249.001L230.983 249.457L230.526 249.001ZM246.66 249.305L246.812 249.61L246.66 249.305ZM271.774 249.305L271.927 249.61L271.774 249.305ZM276.645 249.001L276.188 250.827H276.645V249.001ZM294.453 262.7C291.34 264.019 286.994 263.965 284.535 261.269C281.029 257.426 283.31 250.699 288.061 249.457C284.13 248.314 282.605 253.326 282.584 256.307C282.548 261.063 285.12 263.68 289.887 264.028C291.693 264.16 293.416 264.3 294.453 262.7Z" fill="#A5D5D4"/>
<path d="M288.061 249.236C278.818 251.257 282.846 266.141 292.6 263.466C295.232 262.745 294.453 258.837 294.453 256.762C294.453 251.466 294.61 247.804 288.061 249.236Z" fill="#FBFBFC"/>
<path d="M346.052 249V249.457H347.422L346.052 249ZM141.18 249.761L141.332 250.065L141.18 249.761ZM185.32 249.457L175.274 260.872H185.777L185.32 258.589C182.904 259.613 180.497 260.046 178.471 258.132L179.384 257.219L181.211 256.763L180.754 255.849L184.864 253.566V256.306H185.777L185.32 249.457ZM195.823 249.457C197.686 251.589 204.49 250.37 207.238 250.37V249.913L195.823 249.457ZM207.238 249.457V249.913H208.608L207.238 249.457ZM218.654 249.457V250.826H219.11L218.654 249.457ZM345.443 249.609L345.747 249.761L345.443 249.609ZM133.874 250.218L134.026 250.522L133.874 250.218ZM230.983 249.913V251.283H231.439L230.983 249.913ZM246.051 249.913V251.74H246.508L246.051 249.913ZM272.079 249.913V251.283H272.535L272.079 249.913ZM344.682 249.913L345.139 250.37L344.682 249.913ZM126.568 250.674L126.72 250.979L126.568 250.674ZM169.795 251.74L171.622 250.37L169.795 251.74ZM336.006 250.37L335.55 253.11H336.006V250.37ZM344.226 250.37L344.682 250.826L344.226 250.37ZM133.265 250.826V252.196H133.722L133.265 250.826ZM141.484 250.826V252.196H141.941L141.484 250.826ZM218.197 250.826L217.741 252.196L218.197 250.826ZM263.403 257.219H262.946C257.58 266.228 256.797 246.762 262.946 254.936C264.332 250.19 257.039 250.343 256.218 255.014C255.238 260.585 262.437 263.455 263.403 257.219ZM275.732 250.826V252.653H276.188L275.732 250.826ZM343.769 250.826L344.226 251.283L343.769 250.826ZM372.08 250.826V261.329H372.536L372.08 250.826ZM149.247 251.283L149.704 253.11H150.16L149.247 251.283ZM272.535 251.283V253.11H272.992L272.535 251.283ZM126.111 252.044L126.263 252.348L126.111 252.044ZM169.49 252.044L169.643 252.348L169.49 252.044ZM245.595 251.74V253.566H246.051L245.595 251.74ZM264.925 252.044L265.077 252.348L264.925 252.044ZM287.147 256.763C284.648 260.409 289.659 260.858 292.17 260.872V251.74C289.343 251.742 284.348 252.914 287.147 256.763ZM343.464 252.044L343.617 252.348L343.464 252.044ZM122.763 252.196L121.393 257.219L122.763 252.196ZM132.808 252.196V254.479C135.529 254.479 141.233 255.611 142.854 253.11C139.716 254.44 135.267 254.88 132.808 252.196ZM142.093 252.501L142.245 252.805L142.093 252.501ZM217.284 252.196L217.741 252.653L217.284 252.196ZM125.655 252.958L125.807 253.262L125.655 252.958Z" fill="#A5D5D4"/>
<path d="M155.64 253.109C156.25 255.324 156.96 257.412 159.293 258.132L161.119 256.762L162.946 252.652L155.64 253.109Z" fill="#FBFBFC"/>
<path d="M168.425 252.652V253.566L169.338 252.652H168.425ZM216.827 252.652L217.284 253.109L216.827 252.652ZM220.937 252.652C218.127 258.023 212.06 259.47 206.455 259.565C204.574 259.597 201.82 258.934 200.082 259.776C196.462 261.529 201.855 269.626 197.582 271.671C194.302 273.241 189.231 271.646 185.777 271.752C178.072 271.992 170.258 272.456 162.489 272.28C157.526 272.168 151.803 271.148 146.964 272.287L146.507 270.461H146.051C146.818 275.289 157.994 273.733 162.015 273.634C171.313 273.405 180.614 273.655 189.886 273.583C192.605 273.562 198.032 274.616 200.113 272.423C201.921 270.518 200.876 263.736 200.389 261.328C206.787 260.52 221.365 261.984 221.85 252.652H220.937ZM265.382 252.957L265.534 253.261L265.382 252.957ZM275.275 252.652V259.958H275.732L275.275 252.652ZM342.856 252.652V254.022H343.312L342.856 252.652Z" fill="#A5D5D4"/>
<path d="M350.17 252.951C347.261 253.327 347.008 257.984 349.316 259.355C351.254 260.508 357.944 260.108 360.197 259.736C362.609 259.339 362.809 254.336 360.959 253.191C358.818 251.866 352.608 252.636 350.17 252.951Z" fill="#FBFBFC"/>
<path d="M150.312 253.414L150.465 253.718L150.312 253.414ZM216.37 253.109L216.827 253.566L216.37 253.109ZM230.982 253.109V264.982H231.439L230.982 253.109Z" fill="#A5D5D4"/>
<path d="M287.604 254.022L288.061 256.305L286.691 255.849C287.369 256.854 288.014 258.513 289.096 259.122C291.331 260.381 294.012 250.959 287.604 254.022Z" fill="#FBFBFC"/>
<path d="M125.046 253.566V254.936H125.502L125.046 253.566ZM245.138 253.566V258.589H245.595L245.138 253.566ZM265.686 253.566V258.133H266.143L265.686 253.566ZM272.992 253.566V259.046H273.449L272.992 253.566ZM150.617 254.023V255.393H151.073L150.617 254.023ZM335.093 254.023V258.133H335.55L335.093 254.023ZM342.399 254.936V257.676H342.856L342.399 254.936ZM209.065 256.306V256.763H211.348L209.065 256.306ZM123.676 256.763L123.219 259.046H123.676V256.763ZM195.823 257.676L208.608 257.219C206.262 256.235 197.535 255.716 195.823 257.676ZM234.636 256.763C234.609 260.268 234.326 263.769 234.237 267.265C234.2 268.712 234.758 270.466 233.518 271.586C231.501 273.405 224.008 272.162 221.393 271.831C223.673 275.448 232.302 273.204 236.005 273.201C236.005 268.772 234.415 260.938 237.832 257.676L234.636 256.763ZM238.289 257.219V257.676L243.311 258.589C242.182 256.54 240.374 256.605 238.289 257.219ZM120.023 257.676L117.283 264.525C119.64 263.702 120.654 259.978 120.936 257.676H120.023ZM195.366 257.676V259.046H195.823L195.366 257.676ZM252.901 258.133L253.357 260.416H253.814L252.901 258.133ZM245.595 258.589V260.416H246.051L245.595 258.589ZM265.229 258.589L264.773 260.416H265.229V258.589ZM342.856 258.589V259.959H343.312L342.856 258.589ZM335.55 259.046V260.872H336.006L335.55 259.046ZM152.9 259.503V260.872H153.356L152.9 259.503ZM220.937 259.503V263.612H221.393L220.937 259.503ZM272.535 259.503V260.872H272.992L272.535 259.503ZM275.732 259.959V261.329H276.188L275.732 259.959ZM130.525 260.416V260.872H144.681L130.525 260.416ZM195.366 260.416V261.786H195.823L195.366 260.416ZM246.051 260.416V262.242H246.508L246.051 260.416ZM145.594 261.329V262.699H146.05L145.594 261.329ZM129.155 261.786L128.699 264.069H129.155V261.786ZM121.393 262.242V263.612H121.849L121.393 262.242ZM167.968 262.242L168.425 264.069H168.882L167.968 262.242ZM169.338 263.156V263.612H181.211L169.338 263.156ZM260.663 263.612V264.069L262.49 263.612H260.663ZM346.965 263.156V263.612H348.792L346.965 263.156ZM349.248 263.612V264.069C352.114 264.069 356.801 263.031 358.381 265.895C359.555 262.271 351.379 263.612 349.248 263.612ZM115 270.918L115.913 273.658C120.094 273.212 126.143 274.813 129.971 272.88C132.391 271.658 131.874 268.32 133.366 266.402C136.172 262.793 142.408 265.46 145.137 267.265L146.05 269.092L144.224 263.612C141.287 263.612 135.469 262.494 132.935 264.082C130.694 265.486 130.978 269.33 129.293 271.266C126.932 273.978 117.93 272.07 115 270.918ZM146.507 263.612V264.982H146.964L146.507 263.612ZM304.956 263.612V271.831L287.604 272.093L278.472 269.548L274.362 264.525C270.594 271.074 262.454 273.945 255.184 272.022C252.472 271.304 250.489 269.36 247.878 268.635L253.357 273.658C259.254 273.029 272.055 275.536 274.362 267.265C277.215 268.519 279.361 270.914 282.255 272.108C286.69 273.937 292.018 273.744 296.736 273.651C298.061 273.625 309.175 273.921 305.869 270.918L306.326 268.635H306.782L309.522 270.918L304.956 263.612ZM365.23 263.612V264.982H365.687L365.23 263.612ZM374.363 263.612V264.069H378.929L374.363 263.612ZM182.124 264.069L181.667 269.092C183.002 267.925 182.773 265.616 182.124 264.069ZM307.695 264.069V265.439H308.152L307.695 264.069ZM128.242 264.525L127.785 266.352H128.242V264.525ZM157.466 264.525V265.895H157.923L157.466 264.525ZM220.937 264.525V269.092H221.393L220.937 264.525ZM379.386 264.525V268.635H379.842L379.386 264.525ZM244.681 264.982L246.051 267.722H246.508L244.681 264.982ZM116.826 265.439V266.809L117.74 266.352V265.895L116.826 265.439ZM120.023 265.439V266.809H120.479L120.023 265.439ZM230.983 265.895V267.722H231.439L230.983 265.895ZM127.329 266.352V268.178H127.785L127.329 266.352ZM279.841 266.352V267.265H280.755L279.841 266.352ZM309.065 266.352V267.265H309.979L309.065 266.352ZM156.096 266.809V269.092H148.79V269.548L157.009 269.092L156.096 266.809ZM119.11 267.722V269.092H119.566L119.11 267.722ZM188.06 267.722V269.092H188.517L188.06 267.722ZM126.872 268.178L119.566 269.092V269.548C121.1 269.548 127.232 270.36 126.872 268.178ZM283.494 268.635V269.092H284.864L283.494 268.635ZM312.262 268.635V269.092H313.632L312.262 268.635ZM343.769 268.635V269.092H345.139L343.769 268.635ZM369.34 268.635V269.092H370.71L369.34 268.635ZM158.379 269.092V269.548H181.667C175.673 267.033 164.914 269.092 158.379 269.092ZM188.517 269.092V269.548H195.366L188.517 269.092ZM253.814 269.092V269.548H255.64L253.814 269.092ZM262.946 269.092V269.548H264.773L262.946 269.092ZM346.052 269.092V269.548H357.924L346.052 269.092ZM371.166 269.092V269.548H378.929L371.166 269.092ZM256.097 269.548V270.005H262.946L256.097 269.548ZM318.198 275.028C316.458 275.013 314.411 274.392 312.718 274.734C309.776 275.329 306.513 278.89 304.042 280.594C302.827 281.433 298.886 283.734 300.685 285.646C302.035 287.081 304.862 285.842 306.326 285.244C310.317 283.615 317.486 279.634 318.198 275.028ZM169.157 275.497C166.695 277.446 169.54 288.943 172.795 286.575C175.601 284.534 174.247 271.469 169.157 275.497ZM178.927 285.53H179.384C179.384 283.229 178.788 279.952 179.659 277.794C180.272 276.278 182.404 275.4 183.481 277C185.081 279.375 184.347 286.71 184.407 289.64C185.229 287.661 185.339 277.536 183.937 275.825C180.707 271.88 178.928 278.472 178.927 280.507V285.53ZM316.371 285.53C321.386 282.631 324.338 275.997 330.527 275.941C328.497 284.581 316.525 291.274 309.522 295.576V296.032C316.941 292.832 329.897 284.011 331.44 275.484C325.58 274.431 319.656 281.067 316.371 285.53Z" fill="#A5D5D4"/>
<path d="M300.846 285.53C306.031 285.487 315.259 281.291 316.828 275.941C311.838 274.753 302.272 280.494 300.846 285.53Z" fill="#299FD6"/>
<path d="M172.535 286.444C172.864 285.064 173.013 283.758 172.975 282.334C172.946 281.266 172.874 280.207 172.866 279.138C172.854 277.408 170.885 274.441 169.351 277.064C167.894 279.556 169.901 285.615 172.535 286.444Z" fill="#1FA963"/>
<path d="M180.443 276.411C178.663 277.585 179.381 281.425 179.384 283.247C179.396 290.237 180.661 297.809 183.436 304.252C184.095 305.783 186.705 311.744 189.148 310.458C190.987 309.489 187.821 303.735 187.346 302.425C184.375 294.241 185.298 286.101 183.883 277.794C183.604 276.16 181.864 275.472 180.443 276.411Z" fill="#E93C41"/>
<path d="M192.222 276.514C188.695 277.866 189.655 286.741 189.966 289.639C191.111 300.337 196.431 313.565 203.609 321.596C205.512 323.725 210.023 329.663 213.484 328.158C216.59 326.808 209.429 319.737 208.439 318.407C201.476 309.05 196.417 297.195 195.332 285.53C195.176 283.853 195.417 275.289 192.222 276.514Z" fill="#A5D5D4"/>
<path d="M330.527 275.941C323.896 275.961 318.831 283.74 313.632 287.473C307.493 291.881 300.695 295.018 293.54 297.328C291.838 297.877 286.754 298.312 286.121 300.273C285.566 301.99 288.494 301.954 289.43 301.967C293.13 302.019 296.42 301.252 299.933 300.129C308.66 297.342 316.971 291.739 323.67 285.606C326.484 283.031 330 279.899 330.527 275.941Z" fill="#E93C41"/>
<path d="M192.626 276.854C189.782 280.584 190.313 287.46 191.167 291.922C193.414 303.669 200.286 324.274 213.174 327.995C214.051 324.023 208.319 319.679 206.209 316.58C201.576 309.773 197.424 301.437 195.866 293.292C195.09 289.239 195.425 279.595 192.626 276.854Z" fill="#299FD6"/>
<path d="M315.458 285.529L315.915 285.986L315.458 285.529ZM315.001 285.986L315.458 286.443L315.001 285.986ZM313.632 287.356L315.001 286.443L313.632 287.356ZM179.384 286.899V291.465H179.841L179.384 286.899ZM312.262 288.269L313.632 287.356L312.262 288.269ZM311.805 288.269L312.262 288.726L311.805 288.269ZM311.196 288.878L311.501 289.03L311.196 288.878ZM310.435 289.182L310.892 289.639L310.435 289.182ZM309.522 289.639L309.979 290.096L309.522 289.639ZM308.913 290.248L309.217 290.4L308.913 290.248ZM184.864 290.552V294.205H185.32L184.864 290.552ZM308 290.704L308.304 290.857L308 290.704ZM307.239 291.009L307.695 291.465L307.239 291.009ZM179.841 291.465V293.749H180.297L179.841 291.465ZM306.63 291.617L306.934 291.77L306.63 291.617ZM305.717 292.074L306.021 292.227L305.717 292.074ZM304.804 292.531L305.108 292.683L304.804 292.531ZM303.89 292.987L304.195 293.14L303.89 292.987ZM302.977 293.444L303.281 293.596L302.977 293.444ZM205.509 294.233C203.987 294.485 204.026 296.723 204.061 297.858C204.174 301.433 205.942 305.304 207.702 308.361C213.232 317.971 220.956 326.91 230.526 332.653C233.354 334.35 238.399 337.403 241.874 336.159C246.098 334.647 238.035 330.547 236.919 329.822C227.058 323.419 219.152 315.604 212.864 305.621C211.56 303.551 208.369 293.758 205.509 294.233ZM302.064 293.901L302.368 294.053L302.064 293.901ZM180.297 294.205V296.032H180.754L180.297 294.205ZM185.32 294.205V296.032H185.777L185.32 294.205ZM301.151 294.357L301.455 294.51L301.151 294.357Z" fill="#A5D5D4"/>
<path d="M205.412 294.662C204.129 299.003 206.033 303.616 208.051 307.448C212.619 316.121 219.482 323.776 227.33 329.604C230.553 331.998 233.999 333.909 237.832 335.138C238.835 335.46 241.122 336.27 241.861 335.046C242.514 333.964 240.809 333.009 240.106 332.569C237.195 330.748 234.204 329.201 231.439 327.13C223.598 321.258 217.129 313.954 212 305.621C209.828 302.092 208.576 298.107 206.325 294.662H205.412Z" fill="#1FA963"/>
<path d="M298.563 295.119V295.576L300.846 295.119H298.563ZM297.954 295.728L298.258 295.88L297.954 295.728ZM180.754 296.032L181.211 299.685H181.667L180.754 296.032ZM295.823 296.032V296.489H297.193L295.823 296.032ZM307.695 296.946L309.065 296.032L307.695 296.946ZM185.777 296.489V297.859H186.233L185.777 296.489ZM294.453 296.489V296.946H295.823L294.453 296.489ZM293.388 297.098L293.692 297.25L293.388 297.098ZM305.869 297.859L307.239 296.946L305.869 297.859ZM291.714 297.402V297.859H293.084L291.714 297.402ZM317.284 297.702C313.666 298.757 310.314 301.738 306.782 303.236C297.374 307.226 286.906 309.706 276.645 309.257C275.043 309.186 264.881 307.452 265.673 310.587C266.648 314.448 274.55 314.598 277.558 314.795C289.061 315.545 302.224 312.79 312.262 306.985C314.87 305.476 317.89 303.64 319.553 301.048C320.927 298.906 319.919 296.934 317.284 297.702ZM186.233 297.859L186.69 301.512H187.147L186.233 297.859ZM287.604 298.316V298.772L291.257 298.316H287.604ZM303.586 298.316V298.772L305.869 298.316H303.586Z" fill="#A5D5D4"/>
<path d="M266.143 309.732C267.918 313.333 273.448 313.867 277.102 314.22C287.489 315.226 299.737 312.292 309.065 307.787C312.62 306.07 319.988 302.621 319.111 297.859L307.695 303.654L290.344 309.04L276.188 310.147L266.143 309.732Z" fill="#1FA963"/>
<path d="M285.778 299.228V299.685L287.604 299.228H285.778ZM302.977 298.924L303.281 299.076L302.977 298.924ZM301.759 299.228L302.216 299.685L301.759 299.228ZM285.321 299.685V301.512H285.778L285.321 299.685ZM300.39 299.685V300.142H301.759L300.39 299.685ZM181.667 300.142L182.124 301.968H182.58L181.667 300.142ZM299.324 300.294L299.628 300.446L299.324 300.294ZM297.193 300.598V301.055H299.02L297.193 300.598ZM296.128 301.207L296.432 301.359L296.128 301.207ZM187.147 301.512L187.603 303.795H188.06L187.147 301.512ZM286.082 301.664L286.386 301.816L286.082 301.664ZM293.997 301.512V301.968H295.367L293.997 301.512ZM287.147 301.968V302.425H293.54L287.147 301.968ZM182.58 302.425V303.795H183.037L182.58 302.425ZM183.189 304.099L183.342 304.403L183.189 304.099ZM188.06 303.795V305.165H188.517L188.06 303.795ZM183.646 305.012L183.798 305.317L183.646 305.012ZM188.669 305.469L188.821 305.773L188.669 305.469ZM184.102 305.926L184.255 306.23L184.102 305.926ZM222.763 307.448H223.22C225.186 306.52 226.705 308.67 227.786 310.187C227.834 307.95 224.393 305.019 222.763 307.448ZM184.407 306.534L184.864 306.991L184.407 306.534ZM189.125 306.839L189.278 307.143L189.125 306.839Z" fill="#A5D5D4"/>
<path d="M223.22 306.535C222.547 311.016 226.772 315.222 229.876 317.95C237.561 324.704 247.378 330.564 257.467 332.825C261.321 333.689 269.803 335.987 272.079 331.649L258.837 328.384L241.485 320.597L229.697 311.338L223.22 306.535Z" fill="#E93C41"/>
<path d="M184.864 307.447L185.32 307.904L184.864 307.447ZM189.43 307.447V308.817H189.886L189.43 307.447ZM185.472 308.208L185.625 308.513L185.472 308.208ZM222.763 308.361V309.73H223.22L222.763 308.361ZM185.777 308.817L186.233 309.274L185.777 308.817ZM189.886 308.817V310.644H190.343L189.886 308.817ZM186.233 309.274L186.69 309.73L186.233 309.274ZM186.69 309.73L187.147 310.187L186.69 309.73ZM223.372 310.035L223.525 310.339L223.372 310.035ZM187.147 310.187L187.603 310.644L187.147 310.187ZM228.852 310.492L229.004 310.796L228.852 310.492ZM187.603 310.644V311.1H189.886V310.644H187.603ZM223.677 310.644L224.59 312.014L223.677 310.644ZM229.613 311.1L230.069 311.557L229.613 311.1ZM299.476 318.406C292.924 317.208 284.858 319.809 278.015 319.776C272.815 319.751 267.552 318.786 262.49 317.646C258.596 316.769 254.655 315.158 251.074 313.42C249.499 312.656 247.074 310.951 245.242 311.293C243.386 311.64 243.968 313.866 244.749 314.929C246.606 317.452 250.097 319.166 252.901 320.399C263.47 325.05 277.081 327.358 288.517 325.166C292.573 324.388 299.096 323.437 299.476 318.406ZM230.069 311.557L230.526 312.014L230.069 311.557ZM224.742 312.318L224.894 312.622L224.742 312.318ZM230.526 312.014L230.983 312.47L230.526 312.014Z" fill="#A5D5D4"/>
<path d="M244.225 312.471C246.249 316.638 250.601 318.743 254.727 320.415C264.068 324.199 273.991 324.917 283.951 324.798C288.085 324.749 297.736 323.945 298.563 318.864C287.143 318.959 277.251 321.637 265.686 319.024C261.311 318.035 256.996 316.94 252.9 315.07C250.172 313.824 247.297 311.706 244.225 312.471Z" fill="#299FD6"/>
<path d="M230.983 312.471L231.439 312.927L230.983 312.471ZM225.046 312.927L225.503 313.384L225.046 312.927ZM231.439 312.927L231.896 313.384L231.439 312.927ZM225.503 313.384L225.96 313.841L225.503 313.384ZM231.896 313.384L232.352 313.841L231.896 313.384ZM225.96 313.841L226.416 314.297L225.96 313.841ZM232.352 313.841L232.809 314.297L232.352 313.841ZM226.416 314.297L226.873 314.754L226.416 314.297ZM232.809 314.297L233.266 314.754L232.809 314.297ZM233.266 314.754L233.722 315.21L233.266 314.754ZM226.873 315.21L227.33 315.667L226.873 315.21ZM234.027 315.363L234.331 315.515L234.027 315.363ZM227.33 315.667L227.786 316.124L227.33 315.667ZM234.635 315.667L235.092 316.124L234.635 315.667ZM227.786 316.124L228.243 316.58L227.786 316.124ZM235.092 316.124L235.549 316.58L235.092 316.124ZM228.243 316.58L228.699 317.037L228.243 316.58ZM235.853 316.732L236.157 316.885L235.853 316.732ZM228.699 317.037L229.156 317.494L228.699 317.037ZM236.462 317.037L236.919 317.494L236.462 317.037ZM229.156 317.494L230.069 318.407V317.494H229.156ZM237.223 317.646L237.527 317.798L237.223 317.646ZM237.832 317.95L238.288 318.407L237.832 317.95ZM230.374 318.559L230.678 318.711L230.374 318.559ZM238.288 318.407L239.658 319.32L238.288 318.407ZM230.983 318.863V319.777H231.896L230.983 318.863ZM239.658 319.32L240.115 319.777L239.658 319.32ZM231.896 319.777L232.352 320.233L231.896 319.777ZM240.42 319.929L240.724 320.081L240.42 319.929ZM232.352 320.233L232.809 320.69L232.352 320.233ZM241.333 320.385L241.637 320.538L241.333 320.385ZM233.266 320.69V321.603H234.179L233.266 320.69ZM241.941 320.69L242.398 321.147L241.941 320.69ZM242.703 321.299L243.007 321.451L242.703 321.299ZM234.179 321.603L234.635 322.06L234.179 321.603ZM243.616 321.755L243.92 321.908L243.616 321.755ZM234.94 322.212L235.244 322.364L234.94 322.212ZM244.529 322.212L244.833 322.364L244.529 322.212ZM235.549 322.516L236.005 322.973L235.549 322.516ZM245.442 322.668L245.747 322.821L245.442 322.668ZM236.005 322.973L237.375 323.886L236.005 322.973ZM246.051 322.973L246.508 323.43L246.051 322.973ZM247.269 323.582L247.573 323.734L247.269 323.582ZM237.68 324.038L237.984 324.191L237.68 324.038ZM247.878 323.886L248.334 324.343L247.878 323.886ZM238.288 324.343L238.745 324.8L238.288 324.343ZM249.095 324.495L249.4 324.648L249.095 324.495ZM239.05 324.952L239.354 325.104L239.05 324.952ZM250.009 324.952L250.313 325.104L250.009 324.952ZM239.658 325.256L240.115 325.713L239.658 325.256ZM250.617 325.256V325.713H251.987L250.617 325.256ZM240.876 325.865L241.18 326.017L240.876 325.865ZM252.292 325.865L252.596 326.017L252.292 325.865ZM241.485 326.169L241.941 326.626L241.485 326.169ZM253.205 326.321L253.509 326.474L253.205 326.321ZM242.246 326.778L242.55 326.931L242.246 326.778ZM253.814 326.626V327.083H255.184L253.814 326.626ZM242.855 327.083V327.539L244.681 327.996V327.539L242.855 327.083ZM255.488 327.235L255.792 327.387L255.488 327.235ZM256.553 327.539V327.996H257.923L256.553 327.539ZM244.986 328.148L245.29 328.3L244.986 328.148ZM257.923 327.996V328.453H259.293L257.923 327.996ZM245.899 328.605L246.203 328.757L245.899 328.605ZM259.75 328.453V328.909H261.576L259.75 328.453ZM246.812 329.061L247.116 329.214L246.812 329.061ZM261.576 328.909V329.366H263.403L261.576 328.909ZM247.726 329.518L248.03 329.67L247.726 329.518ZM263.403 329.366V329.822H265.229L263.403 329.366ZM249.095 329.974L249.4 330.127L249.095 329.974ZM265.686 329.822V330.279H267.969L265.686 329.822ZM250.009 330.431L250.313 330.584L250.009 330.431ZM267.969 330.279V330.736H270.252L267.969 330.279ZM250.617 330.736V331.192H251.987L250.617 330.736ZM270.709 330.736V331.192L272.079 331.649L270.709 330.736ZM252.292 331.344L252.596 331.497L252.292 331.344ZM253.662 331.801L253.966 331.953L253.662 331.801ZM272.079 331.649L271.622 333.019L272.079 331.649ZM255.032 332.258L255.336 332.41L255.032 332.258ZM255.64 332.562V333.019H257.467L255.64 332.562ZM258.38 333.019V333.475L262.033 333.932V333.475L258.38 333.019ZM271.165 333.019L271.622 333.475L271.165 333.019ZM270.557 333.627L270.861 333.78L270.557 333.627ZM262.49 333.932V334.389H269.796L262.49 333.932Z" fill="#A5D5D4"/>
</svg>
