<svg width="500" height="500" viewBox="0 0 500 500" fill="none" xmlns="http://www.w3.org/2000/svg">
<rect width="500" height="500" fill="#F6D119"/>
<path fill-rule="evenodd" clip-rule="evenodd" d="M185.865 125H375H185.925H185.865ZM375 246.299H253.698C264.167 232.619 274.077 219.498 283.569 206.797C287.617 201.352 291.665 195.909 295.992 190.465C298.464 187.356 300.798 184.247 303.074 181.216V181.216C304.784 178.94 306.46 176.708 308.136 174.552C311.904 169.387 315.534 164.642 319.024 160.175C320.574 158.108 322.035 156.22 323.378 154.483L323.38 154.482V154.481L323.382 154.479C324.94 152.466 326.339 150.657 327.538 149.008H234.319C237.281 152.936 239.788 157.264 241.838 161.989C245.049 169.248 246.584 177.204 246.584 185.719V246.578H222.576V222.291V211.961V185.58C222.576 180.555 221.598 175.808 219.784 171.342C217.829 166.875 215.317 163.107 211.967 159.756C208.617 156.406 204.708 153.755 200.381 151.939C195.914 149.986 191.169 149.148 186.144 149.148C181.119 149.148 176.373 150.125 171.766 151.939C167.3 153.894 163.392 156.406 160.041 159.756C156.691 163.107 154.04 167.014 152.224 171.342C150.271 175.808 149.433 180.555 149.433 185.58C149.433 190.604 150.41 195.351 152.224 199.956C154.179 204.423 156.691 208.332 160.041 211.682C163.392 215.032 167.3 217.684 171.766 219.498C176.233 221.453 181.119 222.291 186.144 222.291H205.128V246.299H186.144C177.908 246.299 169.952 244.764 162.554 241.553C155.156 238.343 148.735 234.015 143.152 228.432C137.568 222.849 133.241 216.288 130.031 208.89C126.82 201.492 125.285 193.676 125.285 185.3C125.285 176.786 126.82 168.969 130.031 161.571C133.241 154.313 137.568 147.892 143.152 142.308C148.735 136.865 155.296 132.538 162.554 129.327C169.812 126.535 177.629 125 185.865 125H125V375.136H314.485C312.583 375.126 310.698 375.033 308.831 374.857H125.141C135.609 361.178 145.52 348.057 155.012 335.355L155.012 335.354C159.06 329.91 163.108 324.466 167.435 319.024C169.905 315.915 172.24 312.806 174.516 309.775L174.517 309.774C176.226 307.498 177.902 305.266 179.578 303.111C182.291 299.393 184.932 295.893 187.448 292.557L187.449 292.555L187.464 292.535C188.438 291.244 189.393 289.978 190.326 288.733C191.876 286.667 193.337 284.779 194.68 283.043L194.683 283.04C196.241 281.026 197.642 279.216 198.841 277.567H125.141V253.558H246.439C235.831 267.238 225.92 280.359 216.568 293.06C212.521 298.505 208.472 303.948 204.285 309.392C202.308 311.963 200.392 314.533 198.511 317.059L198.51 317.061C196.405 319.884 194.343 322.653 192.281 325.305C189.569 329.021 186.929 332.52 184.414 335.854L184.41 335.859L184.41 335.86L184.409 335.861C183.431 337.159 182.47 338.431 181.532 339.682C179.982 341.75 178.52 343.638 177.176 345.375C175.617 347.39 174.217 349.199 173.018 350.849H266.278C263.28 346.855 260.774 342.504 258.723 337.868C255.513 330.469 253.978 322.653 253.978 314.277C253.978 305.763 255.513 297.946 258.723 290.548C261.934 283.29 266.261 276.869 271.844 271.285C277.428 265.842 283.988 261.515 291.247 258.304C298.365 255.233 306.182 253.558 314.557 253.558C323.072 253.558 330.888 255.093 338.286 258.304C345.545 261.515 351.965 265.842 357.55 271.285C362.993 276.73 367.32 283.15 370.531 290.548C372.955 296.023 374.424 301.895 375 308.103V246.299ZM375 222.291V125.001C364.388 138.68 354.478 151.8 345.126 164.502C341.078 169.946 337.03 175.39 332.843 180.834C330.865 183.404 328.951 185.975 327.068 188.501L327.067 188.502L327.067 188.503C324.963 191.327 322.901 194.094 320.838 196.747C318.127 200.462 315.487 203.962 312.971 207.297L312.97 207.298L312.97 207.299L312.969 207.301C311.989 208.599 311.029 209.872 310.09 211.124C308.54 213.19 307.08 215.077 305.737 216.814L305.735 216.815L305.734 216.817V216.818C304.175 218.831 302.775 220.641 301.576 222.291H375ZM351.268 375.136V351.128V340.799V314.417C351.268 309.392 350.291 304.646 348.476 300.179C346.522 295.713 344.009 291.944 340.66 288.594C337.309 285.244 333.401 282.592 329.074 280.777C324.607 278.823 319.861 277.986 314.836 277.986C309.811 277.986 305.066 278.963 300.459 280.777C295.992 282.731 292.084 285.244 288.734 288.594C285.384 291.944 282.731 295.852 280.917 300.179C278.963 304.646 278.126 309.392 278.126 314.417C278.126 319.442 279.102 324.188 280.917 328.794C282.871 333.261 285.384 337.17 288.734 340.519C292.084 343.87 295.992 346.522 300.459 348.336C303.463 349.65 306.657 350.46 309.955 350.849H333.401V351.128H333.82V375.136H351.268Z" fill="#4B2613"/>
</svg>
