<?xml version="1.0" encoding="utf-8"?>
<!-- Generator: Adobe Illustrator 25.0.0, SVG Export Plug-In . SVG Version: 6.00 Build 0)  -->
<svg version="1.1" id="Layer_1" xmlns="http://www.w3.org/2000/svg" xmlns:xlink="http://www.w3.org/1999/xlink" x="0px" y="0px"
	 viewBox="0 0 500 500" style="enable-background:new 0 0 500 500;" xml:space="preserve">
<style type="text/css">
	.st0{fill:#F1F0F0;}
	.st1{fill:#115AA9;}
	.st2{fill:none;stroke:#115AA9;stroke-width:2;stroke-miterlimit:10;}
</style>
<rect class="st0" width="500" height="500"/>
<g>
	<path class="st1" d="M386.2,250.2c0.3,75.3-61,135.8-137.8,136c-73.6,0.2-134.4-61.7-134.6-136.8c-0.2-74.2,61.1-135.6,135.6-135.6
		C325.8,113.8,385.9,174.6,386.2,250.2z M249.7,164.4c-8.9,12.8-20.6,18.9-35.4,19.2c-1.6,0-3.4,2.2-4.5,3.8
		c-6.1,8.9-13.9,15.2-24.4,18.1c-3.2,0.9-6.5,1.5-10.2,2.2c5.3,10.4,7.5,21,3.5,31.2c-3.1,8.1-2.4,14.8,0.3,22.6
		c3.6,10.3,1.6,20.7-2.9,30.6c1,0.6,1.6,1.1,2.1,1.2c14.2,0.6,24.7,7.4,33,18.6c1,1.4,3.4,2.3,5.3,2.6c9.4,1.2,18.1,4.2,25.2,10.7
		c3.2,2.9,5.9,6.5,8.7,9.6c0.6-0.3,1.1-0.3,1.4-0.6c0.6-0.6,1.1-1.3,1.6-2c6.6-9.6,15.6-15.6,27.1-17c6-0.8,9.3-4,13.1-8
		c4.8-4.8,10.9-8.5,16.9-11.6c4.1-2.1,9.2-2.3,14.1-3.5c-4.6-11.1-6.5-22.2-2.6-33.1c2.4-6.6,2.6-11.8-0.1-18.3
		c-4.5-11-2.8-22.3,1.9-32.9c-0.7-0.6-1-1-1.4-1.1c-14.6-2.1-26.4-8.5-34.1-21.4c-0.7-1.1-2.8-2-4.2-2
		C270.1,182.9,258.8,176.8,249.7,164.4z M143.2,331.5c23.3,29.2,53.6,47.3,92,51.1c-9.3-4.4-16.8-10.8-22.7-19.3
		c-1-1.5-4-2.1-6.1-2.2c-12.9-1-23.3-6.5-31.3-16.8c-1.2-1.6-2.9-3.2-4.6-3.8C161.5,337.1,152.2,334.4,143.2,331.5z M125.1,202.1
		c-14.2,29-11.5,78.7,1.8,99.7c1-7.1,1.6-16.1,3.7-24.6c1-4.1,1.5-7.2-0.1-11.2c-4.6-11.8-5.1-23.8,0.6-35.5
		c0.7-1.5,0.9-3.6,0.4-5.3C129.6,217.3,127.2,209.5,125.1,202.1z M355.6,332.3c-7.3,2.2-15.3,4.6-23.2,7.2c-1.6,0.5-3.5,1.6-4.4,2.9
		c-8.4,11.6-19.7,17.5-33.9,18.4c-1.6,0.1-3.7,0.5-4.3,1.6c-5.5,8.8-13,15.3-23.4,19.5C290.3,385.3,342.7,355.2,355.6,332.3z
		 M230.4,117.1c-34.4,5.6-63.2,21.8-84.9,48.8c8-1.7,16.3-3.4,24.5-5.4c1.5-0.3,2.9-2.2,3.9-3.5c7.8-10.7,17.7-17.8,31.2-19.5
		c2.3-0.3,4.8-1.5,6.6-3C217.9,128.9,224.1,122.9,230.4,117.1z M268.8,117c6.1,5.7,12.1,11.4,18.2,16.9c1.6,1.4,3.8,2.4,5.9,2.7
		c13.7,1.9,24.6,8.2,32.5,19.6c0.9,1.3,2.2,2.9,3.5,3.2c8.4,2.2,16.9,4,25.2,5.9C331.8,138.3,303.1,122.1,268.8,117z M374.8,200.4
		c-2,7.8-4,14.9-5.5,22.1c-0.5,2.4-0.9,5.4,0.1,7.4c5.8,12.3,5.4,24.5,0.3,36.7c-0.7,1.6-1.6,3.7-1.2,5.4c2.2,8.7,4.6,17.4,6.9,25.8
		C387.5,265.8,387.4,233.3,374.8,200.4z M362.3,272.7c-12.1-0.5-27.4,9.3-30.8,19.5C343.5,292.6,359.2,282.8,362.3,272.7z
		 M138.7,318.2c5.6,11.4,21.4,20.5,31.3,18C163.8,324.9,149.5,316.6,138.7,318.2z M214.9,140.6c4,10.5,20.7,20.3,31,18.2
		C239.9,147.5,225.6,139.1,214.9,140.6z M285.7,317.3c-12.6-0.3-26.5,8.3-31,19.2C265.3,338.2,280.7,328.6,285.7,317.3z M138,273.1
		c5.9,12.3,22,21.4,32.2,18.7C162.3,280.9,152.6,273.9,138,273.1z M330.6,336.6c13.3,0.4,29.1-9.8,32.1-20.3
		C348.8,318,338.6,324.4,330.6,336.6z M215.7,317.8c6.6,11.9,20.7,20.2,31.4,18.6C242.1,325.6,227.8,316.9,215.7,317.8z
		 M168.9,203.9c-4.3-10.9-20.7-20.7-31.1-18.7C142.7,196,156.6,204.3,168.9,203.9z M287.1,361.4c-15.8,1.2-29,9.7-32.2,20.4
		C268.7,380,279.1,373.9,287.1,361.4z M248.2,381c-7.9-12.2-18.2-18.4-32.1-19.7C219.4,371.8,235.2,381.6,248.2,381z M292.3,316.7
		c6.7,12.7,22.1,21.7,32.3,19.3C317.1,324.2,306.7,318,292.3,316.7z M330.9,203.3c11.7,1,26.5-8.3,31-19.4
		C349.3,183.8,334.6,193,330.9,203.3z M362,228.4c-11.7-0.8-26.8,8.6-31,19.3C342,249,357.9,239,362,228.4z M137.4,228.6
		c7,12.9,23.4,22,32,18.3C161.6,236.3,151.9,229.3,137.4,228.6z M285.4,140c-13.4-0.3-28.9,9.5-32,19.9
		C267.2,158.6,277.5,152.2,285.4,140z M175.6,204.7c14.4-1.6,24.8-7.8,32.3-19.7C196.4,183.7,182,192.3,175.6,204.7z M365.5,267.1
		c7.3-8,7.4-29.9-0.3-36.9C359.1,242.5,359.6,254.5,365.5,267.1z M289.3,318c-6.1,13.7-6.3,25.5,0.4,38.4
		C296.4,343.4,296.5,331.5,289.3,318z M177.5,336.5c10.7,1.6,25.3-7.1,30.9-18.4C197.4,316.5,183.2,325,177.5,336.5z M366,311.6
		c7.1-9.9,7-31.1-0.7-36.7C359.5,287.1,359.8,298.9,366,311.6z M323.1,158.8c-5.6-11.3-20-19.9-31.3-18.7
		C297.8,151.7,312.7,160.6,323.1,158.8z M323.1,203.2c-5.3-11.3-19.5-19.7-31.3-18.6C297.5,195.8,312.8,204.9,323.1,203.2z
		 M211.4,141.9c-7.2,8.9-6.9,30.2,0.6,36.2C217.8,166.2,217.8,154.6,211.4,141.9z M173.7,254.1c-7.4,10.9-7.2,26.7,0.3,36.3
		C179.9,278.3,180.2,266.6,173.7,254.1z M328.1,333.9c6.9-7.3,6.7-29.6-0.5-35.4C321.2,306.9,321.4,326.5,328.1,333.9z M246.4,163.5
		c-12.4-1.2-27.4,7.2-31.1,17.2C226.6,181.8,240.2,174.4,246.4,163.5z M176.3,296.8c8.3,11.4,18.7,16.7,32.1,17.3
		C203.9,303.2,189.1,295.1,176.3,296.8z M363.2,312.5c-8.3-11.1-18.3-17.1-32-17.1C335.6,305.9,351.1,314.4,363.2,312.5z
		 M207.9,140.4c-13.1-0.3-28.8,9.9-31.2,19.7C190.2,158.7,200.4,152.6,207.9,140.4z M288,178.3c7.7-9.8,6.7-31.6-0.6-36.1
		C281.6,154.3,281.9,166.1,288,178.3z M361.6,180.8c-4.1-11-21-20.1-31.6-17.1C337.7,174.4,348,179.6,361.6,180.8z M137.1,180.6
		c12.8,1.4,28-7.2,31.8-17.8C155.6,163.7,145.2,169,137.1,180.6z M176.5,341.1c8.2,11.5,18.7,16.9,32.1,17.6
		C203.7,347.7,189,339.5,176.5,341.1z M325.1,341.4c-9.9-3.5-27.2,5.6-31.3,16.9C307.1,357.3,317.5,352.2,325.1,341.4z M138.6,269.2
		c11,1.7,26.5-6.7,30.9-16.9C158.4,250.6,143.4,258.7,138.6,269.2z M134.4,186.5c-7.2,10.8-6.9,27.8,0.4,36.5
		C140.5,210.8,140.9,199.1,134.4,186.5z M252.1,119c8.5,11.2,18.6,17,32.1,17.6C280.3,125.9,265.3,117.6,252.1,119z M212,356.2
		c7.3-10.1,7-28.8-0.3-36.7C205.3,331.7,206,343.5,212,356.2z M249.3,157.7c7.4-11.2,7.1-28.4-0.5-36.4
		C242.9,133.3,243.4,145,249.3,157.7z M253.1,163.6c6.6,11.1,23,19.4,31.3,16.1C277.1,168.3,264.3,161.6,253.1,163.6z M172.4,245.9
		c7.6-7.2,7.5-29-0.1-35.7C166.1,222.1,166.6,233.7,172.4,245.9z M216.3,358c11.9,1,26.6-7.2,30.8-17.1
		C234.7,339.7,220.7,347.4,216.3,358z M175.3,163.7c8.3,11.1,18.4,16.9,31.9,17.2C204.4,171.2,185.2,160.7,175.3,163.7z M323,163.4
		c-10.9-2-25.9,6.2-30.8,16.8C302.1,182.4,320.4,172.3,323,163.4z M172.6,165.9c-6.9,9.5-6.7,27,0.5,35.5
		C179.5,193,179.4,172.8,172.6,165.9z M327.2,201.3c6.3-9,6.8-28.3-0.3-35.7C320.1,173,320.5,192.6,327.2,201.3z M169.4,207.2
		c-13.9,0.9-24.3,6.2-31.8,17.6C149.2,226.6,164.6,218.2,169.4,207.2z M327.2,290.1c7.4-8.1,7.1-30.6-0.4-36.2
		C321.2,266,321.2,277.8,327.2,290.1z M245.7,119.3c-10.5-2.1-25.7,6.1-30.8,16.6C226.1,137.7,240.9,129.7,245.7,119.3z
		 M134.2,275.4c-6.4,12.6-5.6,24.4,0.1,36.6C141.8,302.3,141.8,285.6,134.2,275.4z M325.2,296.2c-14.4-0.7-28.6,7.4-32.2,17.8
		C306.3,312.9,316.8,307.8,325.2,296.2z M138.8,313.6c11.2,1.6,26.8-7,30.9-16.9C158.3,295.1,143.7,303.1,138.8,313.6z M330,206.8
		c7.2,12,22.6,19.7,32.2,16.6C354.2,213.1,344.3,206.8,330,206.8z M251.3,378.6c6.8-10.2,6.5-28.4-0.7-35.4
		C244.4,352.9,244.7,370.3,251.3,378.6z M253.9,340.9c8.1,11.2,18.6,16.6,32.2,17.2C280,346.6,265.6,338.8,253.9,340.9z
		 M330.9,251.1c5.4,11.4,21.8,20,31.5,16.6C354.7,257,344.5,251.4,330.9,251.1z M134.3,231.5c-6.7,9.7-6.5,27.2,0.6,35.6
		C141.3,257.3,141.1,240.7,134.3,231.5z M327.2,209.7c-6.7,8.8-6.5,27.8,0.4,35.4C334,235,333.9,218.9,327.2,209.7z M365.5,186
		c-6.7,10.1-6.6,25.9,0.2,35.9C372.2,212.9,372.2,196.5,365.5,186z M174.3,335.4c5.6-12.9,6.4-24.6-0.4-37
		C167,308.4,167.2,325.4,174.3,335.4z M165.8,237.4c0-6.5,0-12.8,0-19.2c-5.9,3.2-11.4,6.1-16.9,9.1
		C154.6,230.7,160.1,233.9,165.8,237.4z M148.7,183c5.4,3.2,10.9,6.5,16.7,9.9c0-6.4,0-12.4,0-18.8C159.6,177.2,154.3,180,148.7,183
		z M321,306.2c-6,3.4-11.4,6.3-16.9,9.4c5.8,3.4,11.3,6.7,16.9,10C321,319.1,321,312.9,321,306.2z M149.6,315.9
		c5.8,3.5,11.2,6.7,16.9,10.1c0-6.5,0-12.7,0-19.2C160.8,309.9,155.3,312.9,149.6,315.9z M273.4,138.2c-5.5-2.9-11-5.9-16.4-8.7
		c0,6.3,0,12.5,0,18.8C262.7,144.8,268,141.6,273.4,138.2z M319.9,192.6c0-6.4,0-12.7,0-19.2c-5.9,3.1-11.3,6.1-16.9,9.1
		C309,186.1,314.5,189.3,319.9,192.6z M281.3,170.4c0-6.4,0-12.7,0-19.4c-6,3.5-11.1,6.7-16.5,9.9
		C270.5,164.2,276,167.3,281.3,170.4z M205.1,348c0-6.4,0-12.7,0-19.5c-5.9,3.7-11,6.9-16.3,10.2C194.5,341.9,200,345,205.1,348z
		 M180.8,325.9c5.8-3.5,11.2-6.7,16.7-10.1c-5.6-2.9-11-5.6-16.7-8.6C180.8,313.5,180.8,319.4,180.8,325.9z M282.3,347.4
		c0-6.2,0-12.6,0-19.1c-5.8,3.5-10.9,6.7-16.3,9.9C271.8,341.5,277.3,344.6,282.3,347.4z M149.5,271.7c5.7,3.4,11.3,6.7,16.9,9.9
		c0-6.7,0-12.9,0-19.2C160.9,265.5,155.4,268.4,149.5,271.7z M342.2,204.9c5.6,3.2,10.9,6.2,16.3,9.3c0-6.2,0-12.3,0-18.9
		C352.8,198.6,347.7,201.7,342.2,204.9z M342.3,249.2c5.8,3.3,11.3,6.4,16.6,9.3c0-6.3,0-12.6,0-19.4
		C353.1,242.7,347.8,245.9,342.3,249.2z M227.1,360.1c5.6,3.4,11.2,6.7,16.8,9.9c0-6.4,0-12.5,0-19
		C238.3,354.1,232.7,357.1,227.1,360.1z M334.6,236.6c5.7-3.5,11-6.7,16.5-10c-5.7-2.9-11.1-5.7-16.5-8.6
		C334.6,224.3,334.6,230.1,334.6,236.6z M334.5,173.7c0,6.1,0,12,0,18.4c5.8-3.5,11-6.6,16.3-9.9
		C345.2,179.3,339.9,176.6,334.5,173.7z M258.5,369.8c5.9-3.5,11.2-6.7,16.7-9.9c-6-3.1-11.3-5.9-16.7-8.6
		C258.5,357.5,258.5,363.4,258.5,369.8z M242.6,148.5c0-6.5,0-12.7,0-19.2c-5.7,3.1-11.2,6.1-16.9,9.2
		C231.4,141.8,236.9,145.1,242.6,148.5z M187.9,161.2c5.4,3.1,10.9,6.3,16,9.3c0-6.4,0-12.7,0-19.2C198.1,154.9,193,158,187.9,161.2
		z M296.8,347.6c5.7-3.2,11.2-6.3,16.6-9.4c-5.7-3.3-11.1-6.3-16.6-9.4C296.8,335.2,296.8,341.3,296.8,347.6z M295.6,151
		c0,6.6,0,12.5,0,18.8c5.5-3,11-6.1,16.6-9.1C306.5,157.6,301.3,154.4,295.6,151z M351.5,270.9c-5.8-2.9-11.2-5.8-16.7-8.6
		c0,6.2,0,12.4,0,18.8C340.5,277.6,345.9,274.4,351.5,270.9z M180,174.2c0,6.3,0,12.4,0,18.8c5.5-3.4,11.1-6.7,16.7-10.1
		C191,179.9,185.6,177.1,180,174.2z M141.9,303.5c5.5-3,10.9-6.1,16.5-9.2c-5.5-3.3-11.1-6.5-16.5-9.7
		C141.9,291.2,141.9,297.3,141.9,303.5z M218.3,170.4c5.4-3,11-6.1,16.6-9.3c-5.6-3.3-10.9-6.3-16.6-9.6
		C218.3,158.1,218.3,164.1,218.3,170.4z M335.1,325.6c5.5-3.5,11.1-6.8,16.7-10.3c-5.7-3-11.2-5.8-16.7-8.7
		C335.1,313.1,335.1,319.3,335.1,325.6z M141.8,240.3c0,6.6,0,12.6,0,18.9c5.8-3.3,11.2-6.2,16.6-9.3
		C152.8,246.7,147.4,243.6,141.8,240.3z M359.3,283.5c-5.7,3.5-10.8,6.8-16.1,10.1c5.6,3.3,10.7,6.3,16.1,9.4
		C359.3,296.7,359.3,290.5,359.3,283.5z M236.1,338.4c-5.7-3.3-11.1-6.4-16.7-9.7c0,6.7,0,12.9,0,18.9
		C224.8,344.7,230.2,341.6,236.1,338.4z M157.6,205.6c-5.4-3.2-10.6-6.2-16.3-9.5c0,6.7,0,12.7,0,18.8
		C146.9,211.7,152,208.8,157.6,205.6z"/>
	<path class="st1" d="M260.9,265.9c0.3-0.2,0.7-0.5,1-0.9c3.2-3.9,5.6-8.3,8.3-12.5c2.5-4.1,11-18,17.4-13.7c1.4,1,2,2.6,2.5,4.2
		c3.4,10,6.8,20.1,10.2,30.1c1.7-2.3,3.7-4.6,6.3-5.7c2.7-1.1,6.2-0.7,7.8,1.7c1.9,2.8,0.5,6.5-1,9.3c-2.8,5.1-6.1,9.8-10,14
		c-1.2,1.3-2.6,2.7-4.4,2.9c-3.9,0.6-6.4-3.8-7.8-7.5c-3.3-9.1-6.6-18.1-9.9-27.1c-3.7,5.6-7.5,11.2-11.4,16.8
		c-2.9,4.1-7.7,15.1-13.9,14.6c-3-0.3-4.8-3.5-5.8-6.4c-1.4-4.1-2.2-8.7-3-13.1c-0.6-3.4-0.4-8.1-3.5-10.4c-1.2-0.9-2.9-1.1-4.3-1.3
		c-3.6-0.3-7.4,0.4-11-0.7c-5.6-1.9-6.5-9.3-1-11.8c4.5-2,10.5-1.6,15.1-0.8c-1.9-10.9-3.7-21.8-5.6-32.8c-0.1-0.7-0.4-1.6-1.1-1.6
		s-1.2,0.7-1.5,1.3c-10.9,22.6-21.7,45.2-32.6,67.8c-1.5,3.1-2.9,7-5.6,9.2c-4.1,3.3-8.7-1.1-9-5.4c-0.3-4.6,2.6-9.3,4.5-13.4
		c2.3-4.9,4.7-9.9,7.1-14.9c10.5-22.2,21.1-44.5,31.7-66.7c1.9-4,4.9-8.6,9.3-7.9c4.2,0.6,5.8,5.7,6.6,9.9
		c4.3,23.9,8.7,47.6,13.1,71.5c0.1,0.5,0.3,1.1,0.7,1.4C260.2,266.2,260.5,266.1,260.9,265.9z"/>
	<circle class="st2" cx="250" cy="250" r="140"/>
</g>
</svg>
