<svg width="500" height="500" viewBox="0 0 500 500" fill="none" xmlns="http://www.w3.org/2000/svg">
<rect width="500" height="500" fill="#E5E5E5"/>
<path fill-rule="evenodd" clip-rule="evenodd" d="M0 0H500V500H0V0Z" fill="#F0F0F0"/>
<path d="M113.694 304.768H110L122.552 278.039H126.584L138.187 304.768H133.881L130.701 297.414H117.154L113.694 304.768ZM118.361 294.749H129.529L124.142 282.328L118.361 294.749Z" fill="#25398E"/>
<path d="M160.238 301.566V304.768H140.325V301.566L155.571 280.99H141.395V278.039H159.94V280.99L144.791 301.566H160.238V301.566Z" fill="#25398E"/>
<path d="M168.569 284.753H164.841V284.513C164.841 283.323 165.384 282.111 166.471 280.876C167.551 279.64 168.993 278.702 170.782 278.062C172.572 277.422 174.631 277.09 176.947 277.09C181.648 277.09 185.273 278.417 187.83 281.07C190.386 283.723 191.661 287.075 191.661 291.135C191.661 295.275 190.312 298.706 187.612 301.428C184.913 304.15 181.431 305.511 177.164 305.511C174.831 305.511 172.715 305.065 170.811 304.185C168.912 303.304 167.408 301.92 166.299 300.044C165.195 298.18 164.641 295.572 164.641 292.233V290.735H187.967C187.967 287.864 186.846 285.29 184.599 283.014C182.357 280.75 179.658 279.606 176.513 279.606C174.248 279.606 172.355 280.189 170.845 281.367C169.33 282.534 168.569 283.586 168.569 284.513V284.753V284.753ZM187.652 294.109H168.158V294.646C168.158 295.893 168.604 297.231 169.49 298.649C170.376 300.067 171.566 301.142 173.053 301.886C174.545 302.629 176.095 302.995 177.719 302.995C179.641 302.995 181.642 302.126 183.729 300.376C185.817 298.638 187.126 296.545 187.652 294.109Z" fill="#25398E"/>
<path d="M201.577 304.768H197.591V278.039H207.072C209.4 278.039 211.15 278.336 212.322 278.92C213.494 279.503 214.427 280.349 215.107 281.459C215.793 282.568 216.136 283.769 216.136 285.073C216.136 286.114 215.908 287.12 215.45 288.07C214.987 289.03 214.346 289.9 213.512 290.677C212.682 291.444 211.384 292.141 209.617 292.747C210.28 293.068 210.778 293.376 211.104 293.662C211.436 293.948 211.842 294.417 212.316 295.058C212.791 295.698 213.208 296.304 213.563 296.865L218.435 304.768H213.866L209.634 297.746C208.605 296.041 207.261 294.554 205.608 293.285H201.577V304.768V304.768ZM201.577 290.609H205.477C207.13 290.609 208.376 290.391 209.228 289.945C210.08 289.511 210.755 288.859 211.258 288.012C211.756 287.166 212.008 286.262 212.008 285.302C212.008 284.455 211.807 283.712 211.413 283.049C211.018 282.385 210.441 281.836 209.674 281.379C208.908 280.933 207.61 280.715 205.774 280.715H201.577V290.609V290.609Z" fill="#25398E"/>
<path d="M235.891 290.689C238.31 291.215 240.066 292.084 241.152 293.308C242.239 294.532 242.782 295.916 242.782 297.46C242.782 298.729 242.405 299.93 241.656 301.062C240.906 302.183 239.837 303.087 238.459 303.762C237.075 304.436 234.685 304.768 231.288 304.768H222.104V278.039H230.241C233.953 278.039 236.446 278.279 237.715 278.737C238.985 279.206 239.946 279.892 240.592 280.795C241.232 281.699 241.558 282.705 241.558 283.803C241.558 285.027 241.147 286.24 240.335 287.452C239.517 288.664 238.036 289.739 235.891 290.689ZM226.089 289.648H229.921C231.9 289.648 233.375 289.419 234.359 288.962C235.336 288.504 236.12 287.841 236.709 286.983C237.292 286.137 237.59 285.256 237.59 284.341C237.59 283.346 237.132 282.488 236.217 281.779C235.302 281.07 233.649 280.715 231.265 280.715H226.089V289.648V289.648ZM226.089 302.103H231.722C234.381 302.103 236.2 301.668 237.184 300.799C238.161 299.93 238.653 298.901 238.653 297.711C238.653 296.75 238.339 295.87 237.704 295.069C237.075 294.257 236.137 293.605 234.89 293.091C233.649 292.576 231.699 292.313 229.057 292.313H226.089V302.103V302.103Z" fill="#25398E"/>
<path d="M249.251 304.768H245.557L258.109 278.039H262.141L273.744 304.768H269.432L266.264 297.414H252.711L249.251 304.768ZM253.917 294.749H265.086L259.699 282.328L253.917 294.749Z" fill="#25398E"/>
<path d="M288.713 304.768H284.722V292.176L274.806 278.039H279.449L287.101 288.824L294.649 278.039H298.527L288.713 292.176V304.768Z" fill="#25398E"/>
<path d="M320.178 299.032H323.849V299.204C323.849 300.256 323.426 301.32 322.591 302.406C321.756 303.504 320.624 304.293 319.183 304.808C317.753 305.311 316.061 305.574 314.128 305.574C310.227 305.574 307.048 304.385 304.566 302.029C302.096 299.661 300.86 296.127 300.86 291.403C300.86 286.714 302.084 283.18 304.555 280.813C307.014 278.434 310.216 277.244 314.15 277.244C316.072 277.244 317.753 277.496 319.183 278.01C320.624 278.514 321.756 279.326 322.591 280.435C323.426 281.533 323.849 282.597 323.849 283.615V283.786H320.178V283.615C320.178 282.963 319.938 282.334 319.469 281.728C319 281.133 318.325 280.675 317.456 280.367C316.575 280.069 315.523 279.909 314.299 279.909C311.165 279.909 308.821 280.996 307.288 283.146C305.756 285.307 304.989 288.064 304.989 291.403C304.989 294.777 305.756 297.534 307.3 299.684C308.844 301.834 311.165 302.898 314.276 302.898C316.415 302.898 317.936 302.521 318.828 301.754C319.72 300.988 320.178 300.142 320.178 299.204V299.032V299.032Z" fill="#25398E"/>
<path d="M329.67 304.768H325.976L338.534 278.039H342.571L354.168 304.768H349.857L346.677 297.414H333.135L329.67 304.768ZM334.336 294.749H345.51L340.123 282.328L334.336 294.749Z" fill="#25398E"/>
<path d="M361.349 304.768H357.678V278.039H361.624L375.634 297.036L376.915 299.152L376.835 297.048V278.039H380.507V304.768H376.595L362.55 285.691L361.269 283.54L361.349 285.691V304.768V304.768Z" fill="#25398E"/>
<path d="M121.987 347.09H118.613V320.361H122.548L132.052 339.462L140.819 320.361H144.685V347.09H141.15V331.158L141.231 326.389H141.15L139.166 331.181L133.728 343.076H129.725L123.817 331.124L121.987 326.766H121.913L121.987 331.112V347.09Z" fill="#25398E"/>
<path d="M150.492 317.428V313.951H154.324V317.428H150.492ZM154.478 347.085H150.492V320.356H154.478V347.085Z" fill="#25398E"/>
<path d="M164.279 347.09H160.293V320.361H164.279V333.125L177.083 320.361H181.624L169.048 332.897L183.579 347.09H178.581L164.279 333.125V347.09Z" fill="#25398E"/>
<path d="M191.096 347.09H187.11V320.361H196.592C198.919 320.361 200.669 320.659 201.842 321.242C203.014 321.825 203.946 322.672 204.627 323.781C205.313 324.89 205.656 326.091 205.656 327.395C205.656 328.436 205.427 329.443 204.97 330.392C204.506 331.353 203.866 332.222 203.031 333C202.202 333.766 200.904 334.463 199.137 335.07C199.8 335.39 200.298 335.699 200.624 335.985C200.955 336.271 201.361 336.74 201.836 337.38C202.31 338.02 202.728 338.627 203.083 339.187L207.955 347.09H203.386L199.154 340.068C198.124 338.364 196.781 336.877 195.128 335.607H191.096V347.09ZM191.096 332.931H194.996C196.649 332.931 197.896 332.714 198.748 332.268C199.6 331.833 200.275 331.181 200.778 330.335C201.275 329.488 201.527 328.585 201.527 327.624C201.527 326.778 201.327 326.034 200.932 325.371C200.538 324.707 199.96 324.158 199.194 323.701C198.428 323.255 197.129 323.038 195.294 323.038H191.096V332.931V332.931Z" fill="#25398E"/>
<path d="M223.573 347.895C219.742 347.895 216.614 346.659 214.195 344.212C211.77 341.753 210.558 338.253 210.558 333.724C210.558 329.183 211.77 325.695 214.195 323.236C216.614 320.788 219.742 319.564 223.573 319.564C227.405 319.564 230.539 320.788 232.969 323.236C235.399 325.695 236.612 329.183 236.612 333.724C236.612 338.253 235.399 341.753 232.969 344.212C230.539 346.659 227.405 347.895 223.573 347.895ZM223.585 345.218C226.381 345.218 228.56 344.177 230.133 342.073C231.699 339.98 232.483 337.201 232.483 333.724C232.483 330.27 231.699 327.49 230.133 325.386C228.56 323.282 226.381 322.229 223.585 322.229C220.805 322.229 218.627 323.282 217.048 325.386C215.476 327.49 214.686 330.27 214.686 333.724C214.686 337.201 215.476 339.98 217.048 342.073C218.627 344.177 220.805 345.218 223.585 345.218Z" fill="#25398E"/>
<path d="M258.831 347.09H254.845V320.361H258.831V333.125L271.64 320.361H276.17L263.6 332.897L278.137 347.09H273.127L258.831 333.125V347.09V347.09Z" fill="#25398E"/>
<path d="M285.659 347.09H281.667V320.361H291.149C293.482 320.361 295.232 320.659 296.398 321.242C297.576 321.825 298.503 322.672 299.189 323.781C299.875 324.89 300.207 326.091 300.207 327.395C300.207 328.436 299.978 329.443 299.521 330.392C299.063 331.353 298.423 332.222 297.588 333C296.753 333.766 295.46 334.463 293.699 335.07C294.351 335.39 294.854 335.699 295.186 335.985C295.518 336.271 295.918 336.74 296.387 337.38C296.867 338.02 297.279 338.627 297.645 339.187L302.517 347.09H297.942L293.71 340.068C292.681 338.364 291.343 336.877 289.685 335.607H285.659V347.09V347.09ZM285.659 332.931H289.559C291.206 332.931 292.452 332.714 293.299 332.268C294.157 331.833 294.831 331.181 295.335 330.335C295.838 329.488 296.089 328.585 296.089 327.624C296.089 326.778 295.884 326.034 295.495 325.371C295.094 324.707 294.511 324.158 293.745 323.701C292.978 323.255 291.686 323.038 289.856 323.038H285.659V332.931V332.931Z" fill="#25398E"/>
<path d="M306.181 347.09V320.361H323.497V323.312H310.172V331.73H321.827V334.395H310.172V344.151H324.572V347.09H306.181Z" fill="#25398E"/>
<path d="M329.462 347.09V320.361H337.937C342.054 320.361 345.074 320.853 346.984 321.825C348.894 322.809 350.381 324.296 351.456 326.297C352.531 328.299 353.068 330.746 353.068 333.629C353.068 336.316 352.577 338.661 351.616 340.64C350.644 342.618 349.18 344.197 347.213 345.352C345.257 346.507 342.34 347.09 338.486 347.09H329.462V347.09ZM333.454 344.151H338.154C340.968 344.151 343.084 343.785 344.513 343.064C345.943 342.355 347.041 341.223 347.796 339.69C348.562 338.158 348.94 336.225 348.94 333.903C348.94 331.593 348.585 329.591 347.899 327.921C347.201 326.252 346.149 325.016 344.731 324.227C343.312 323.427 341.094 323.038 338.063 323.038H333.454V344.151V344.151Z" fill="#25398E"/>
<path d="M357.805 317.428V313.951H361.636V317.428H357.805ZM361.796 347.085H357.805V320.356H361.796V347.085Z" fill="#25398E"/>
<path d="M375.738 347.09V323.038H365.318V320.361H390V323.038H379.729V347.09H375.738Z" fill="#25398E"/>
<path d="M250.157 153.144V188.693L250.013 188.549L210.91 227.604L193.159 209.854L250.013 153L250.157 153.144Z" fill="#0059A1"/>
<path d="M214.75 231.451H250.155V266.544L250.011 266.688L214.75 231.451Z" fill="#0059A1"/>
<path d="M250.158 231.451H285.251L250.158 266.544V231.451Z" fill="#25398E"/>
<path d="M306.844 209.864L289.094 227.638L250.158 188.703V153.154L306.844 209.864Z" fill="#25398E"/>
</svg>
