<svg width="500" height="500" viewBox="0 0 500 500" fill="none" xmlns="http://www.w3.org/2000/svg">
<g clip-path="url(#clip0_1884_2)">
<rect width="500" height="500" fill="#E5E5E5"/>
<path fill-rule="evenodd" clip-rule="evenodd" d="M0 0H500V500H0V0Z" fill="#FAC50B"/>
<path fill-rule="evenodd" clip-rule="evenodd" d="M402.722 260.622C401.941 260.622 400.864 260.93 400.377 261.75C398.518 265.035 395.294 267.188 391.775 267.188C385.812 267.188 381.608 261.442 381.608 255.285C381.608 249.128 385.812 243.381 391.775 243.381C395.294 243.381 398.518 245.535 400.377 248.82C400.864 249.642 401.941 249.948 402.722 249.948C404.481 249.948 405.85 248.511 405.85 246.664C405.85 245.229 404.775 243.381 403.602 242.354C400.475 238.968 396.369 236.916 391.775 236.916C382.196 236.916 375.452 245.844 375.452 255.285C375.452 263.675 380.79 271.619 388.695 273.297V277.326C388.695 279.174 390.063 280.507 391.726 280.507C393.486 280.507 394.853 279.174 394.853 277.326V273.312C398.197 272.611 401.191 270.823 403.602 268.216C404.775 267.188 405.85 265.343 405.85 263.904C405.85 262.057 404.481 260.622 402.722 260.622ZM273.049 283.62H271.613V293.914H277.679V292.446H273.049V283.62ZM268.476 290.938H268.449L264.147 283.62H262.793V293.914H264.229V286.596H264.256L268.552 293.914H269.912V283.62H268.476V290.938ZM259.742 293.914H261.18V283.62H259.742V293.914ZM259.742 282.912H261.18V281.36H259.742V282.912ZM252.549 285.002H256.819L252.513 292.622V293.914H258.579V292.446H254.121L258.579 284.792V283.62H252.549V285.002ZM249.975 293.914H251.413V283.62H249.975V293.914ZM249.975 282.912H251.413V281.36H249.975V282.912ZM246.151 288.039C245.7 287.98 245.343 287.927 245.083 287.879C244.615 287.784 244.274 287.614 244.06 287.369C243.848 287.127 243.741 286.86 243.741 286.565C243.75 286.069 243.909 285.696 244.218 285.447C244.512 285.207 244.881 285.088 245.326 285.088C246.181 285.105 246.966 285.37 247.678 285.879L248.48 284.596C247.609 283.915 246.582 283.562 245.402 283.536C244.421 283.543 243.663 283.82 243.13 284.367C242.58 284.918 242.303 285.645 242.303 286.545C242.303 287.294 242.523 287.929 242.962 288.452C243.386 288.961 244.008 289.289 244.825 289.435C245.282 289.508 245.7 289.569 246.082 289.624C246.916 289.783 247.329 290.244 247.321 291.011C247.304 291.948 246.676 292.428 245.442 292.446C244.4 292.437 243.5 292.093 242.744 291.421L241.799 292.594C242.811 293.53 244.02 294 245.427 294C247.6 293.971 248.711 292.971 248.759 291.002C248.759 290.27 248.547 289.631 248.127 289.08C247.701 288.518 247.044 288.172 246.151 288.039ZM228.796 288.822C228.796 287.927 228.775 287.286 228.737 286.898C228.685 286.512 228.561 286.199 228.366 285.956C227.965 285.359 227.4 285.068 226.669 285.088H224.948V292.446H226.669C227.478 292.446 228.066 292.146 228.431 291.547C228.591 291.326 228.693 291.044 228.737 290.704C228.775 290.369 228.796 289.743 228.796 288.822ZM230.163 286.569C230.209 286.995 230.234 287.726 230.234 288.767C230.234 289.873 230.197 290.645 230.123 291.081C230.088 291.304 230.035 291.502 229.968 291.674C229.894 291.844 229.804 292.02 229.699 292.206C229.422 292.691 229.036 293.09 228.54 293.405C228.049 293.742 227.448 293.914 226.734 293.914H223.51V283.62H226.833C228.118 283.629 229.084 284.206 229.726 285.357C229.955 285.742 230.102 286.146 230.163 286.569ZM219.119 288.13C219.661 288.123 220.064 287.951 220.335 287.621C220.602 287.314 220.734 286.937 220.734 286.488C220.725 285.95 220.566 285.56 220.257 285.319C220.014 285.108 219.661 285.002 219.199 285.002H216.94V288.13H219.119ZM220.257 289.344L222.456 293.914H220.746L218.781 289.512H216.94V293.914H215.502V283.62H219.212C220.003 283.62 220.65 283.845 221.15 284.296C221.75 284.81 222.065 285.542 222.09 286.492C222.073 287.89 221.462 288.842 220.257 289.344ZM208.304 293.914H214.372V292.446H209.743V289.415H213.694V288.033H209.743V285.088H214.372V283.62H208.304V293.914ZM203.918 288.187L201.905 283.62H200.38L203.238 289.679V293.914H204.596V289.677L207.456 283.62H205.932L203.918 288.187ZM194.273 288.13C194.812 288.123 195.215 287.951 195.486 287.621C195.753 287.314 195.885 286.937 195.885 286.488C195.877 285.95 195.717 285.56 195.409 285.319C195.165 285.108 194.812 285.002 194.35 285.002H192.091V288.13H194.273ZM195.409 289.344L197.607 293.914H195.898L193.933 289.512H192.091V293.914H190.653V283.62H194.365C195.155 283.62 195.801 283.845 196.301 284.296C196.904 284.81 197.216 285.542 197.242 286.492C197.225 287.89 196.614 288.842 195.409 289.344ZM283.755 289.717H279.867V290.257C279.875 290.903 280.062 291.428 280.429 291.822C280.795 292.239 281.257 292.446 281.817 292.446C282.157 292.446 282.449 292.367 282.693 292.212C282.94 292.08 283.14 291.906 283.293 291.696C283.48 291.474 283.604 291.183 283.665 290.824C283.709 290.594 283.74 290.224 283.755 289.717ZM285.109 286.366C285.174 286.77 285.206 287.572 285.206 288.767C285.206 289.944 285.174 290.738 285.109 291.154C285.076 291.375 285.03 291.558 284.979 291.705C284.925 291.844 284.859 291.992 284.79 292.148C284.561 292.624 284.192 293.043 283.684 293.405C283.184 293.782 282.563 293.98 281.815 294C280.847 293.98 280.043 293.625 279.407 292.933C278.773 292.239 278.447 291.375 278.428 290.345V288.251H283.766C283.755 287.515 283.721 286.995 283.665 286.693C283.604 286.344 283.48 286.058 283.293 285.835C283.142 285.626 282.94 285.449 282.693 285.306C282.451 285.169 282.159 285.097 281.819 285.088C281.357 285.097 280.969 285.24 280.646 285.52C280.337 285.813 280.123 286.168 280.007 286.582H278.481C278.632 285.723 278.997 285.002 279.575 284.415C280.152 283.838 280.9 283.543 281.815 283.536C282.563 283.543 283.184 283.737 283.684 284.111C284.192 284.484 284.561 284.909 284.79 285.383C284.933 285.634 285.04 285.961 285.109 286.366ZM236.699 289.717H232.811V290.257C232.819 290.903 233.006 291.428 233.371 291.822C233.739 292.239 234.201 292.446 234.761 292.446C235.101 292.446 235.393 292.367 235.635 292.212C235.884 292.08 236.084 291.906 236.237 291.696C236.422 291.474 236.548 291.183 236.609 290.824C236.653 290.594 236.682 290.224 236.699 289.717ZM238.053 286.366C238.118 286.77 238.15 287.572 238.15 288.767C238.15 289.944 238.118 290.738 238.053 291.154C238.018 291.375 237.976 291.558 237.923 291.705C237.866 291.844 237.804 291.992 237.734 292.148C237.503 292.624 237.136 293.043 236.628 293.405C236.128 293.782 235.504 293.98 234.757 294C233.791 293.98 232.987 293.625 232.351 292.933C231.717 292.239 231.389 291.375 231.372 290.345V288.251H236.71C236.699 287.515 236.666 286.995 236.609 286.693C236.548 286.344 236.424 286.058 236.237 285.835C236.084 285.626 235.884 285.449 235.637 285.306C235.393 285.169 235.103 285.097 234.763 285.088C234.303 285.097 233.911 285.24 233.59 285.52C233.281 285.813 233.067 286.168 232.951 286.582H231.425C231.576 285.723 231.941 285.002 232.519 284.415C233.096 283.838 233.842 283.543 234.757 283.536C235.504 283.543 236.128 283.737 236.628 284.111C237.136 284.484 237.503 284.909 237.734 285.383C237.877 285.634 237.984 285.961 238.053 286.366ZM187.812 289.717H183.924V290.257C183.932 290.903 184.119 291.428 184.484 291.822C184.85 292.239 185.314 292.446 185.874 292.446C186.215 292.446 186.506 292.367 186.748 292.212C186.996 292.08 187.197 291.906 187.348 291.696C187.535 291.474 187.661 291.183 187.722 290.824C187.766 290.594 187.796 290.224 187.812 289.717ZM189.167 286.366C189.232 286.77 189.263 287.572 189.263 288.767C189.263 289.944 189.232 290.738 189.167 291.154C189.131 291.375 189.089 291.558 189.036 291.705C188.98 291.844 188.917 291.992 188.847 292.148C188.616 292.624 188.249 293.043 187.739 293.405C187.241 293.782 186.618 293.98 185.87 294C184.902 293.98 184.1 293.625 183.462 292.933C182.83 292.239 182.502 291.375 182.486 290.345V288.251H187.821C187.812 287.515 187.779 286.995 187.722 286.693C187.661 286.344 187.537 286.058 187.348 285.835C187.197 285.626 186.998 285.449 186.75 285.306C186.506 285.169 186.215 285.097 185.876 285.088C185.415 285.097 185.024 285.24 184.703 285.52C184.394 285.813 184.18 286.168 184.062 286.582H182.538C182.689 285.723 183.055 285.002 183.632 284.415C184.209 283.838 184.955 283.543 185.87 283.536C186.618 283.543 187.241 283.737 187.739 284.111C188.249 284.484 188.616 284.909 188.847 285.383C188.99 285.634 189.095 285.961 189.167 286.366ZM179.616 288.033H175.847V283.62H174.411V293.914H175.847V289.415H179.616V293.914H181.054V283.62H179.616V288.033ZM422.943 243.968C424.631 243.968 426 242.531 426 240.76C426 238.988 424.631 237.551 422.943 237.551H418.744V228.877C418.744 227.104 417.375 225.669 415.689 225.669C414.001 225.669 412.632 227.104 412.632 228.877V262.055C412.632 267.224 415.563 271.866 420.096 273.879C420.486 274.051 420.887 274.132 421.286 274.132C422.477 274.132 423.609 273.396 424.102 272.172C424.759 270.541 424.031 268.659 422.477 267.969C420.209 266.961 418.744 264.638 418.744 262.055V243.968H422.943ZM365.631 255.181C365.631 249.128 361.526 243.381 355.464 243.381C349.502 243.381 345.202 249.128 345.202 255.181C345.202 261.442 349.502 267.188 355.464 267.188C361.526 267.188 365.631 261.442 365.631 255.181ZM371.885 255.181C371.885 264.828 365.045 273.654 355.464 273.654C345.886 273.654 339.044 264.828 339.044 255.181C339.044 245.742 345.886 236.812 355.464 236.812C365.045 236.812 371.885 245.742 371.885 255.181ZM329.322 255.285C329.322 249.128 325.02 243.381 319.058 243.381C312.998 243.381 308.795 249.128 308.795 255.285C308.795 261.545 312.998 267.29 319.058 267.29C325.02 267.29 329.322 261.545 329.322 255.285ZM335.481 255.285C335.481 264.828 328.638 273.757 319.058 273.757C314.953 273.757 311.142 271.91 308.207 269.241V288.022C308.207 289.869 306.84 291.203 305.081 291.203C303.418 291.203 302.051 289.869 302.051 288.022V240.712C302.051 239.07 303.418 237.43 305.081 237.43C306.84 237.43 308.207 239.07 308.207 240.712V241.431C311.043 238.865 315.148 236.916 319.058 236.916C328.638 236.916 335.481 245.844 335.481 255.285ZM294.261 237.531C291.034 237.531 287.906 239.173 285.462 241.431V240.816C285.462 238.968 284.095 237.531 282.336 237.531C280.673 237.531 279.306 238.968 279.306 240.816V269.754C279.306 271.602 280.673 273.039 282.336 273.039C284.095 273.039 285.462 271.602 285.462 269.754V257.029C285.462 250.872 288.981 245.33 294.65 243.996C296.313 243.791 297.388 242.663 297.388 240.712C297.388 238.761 295.628 237.531 294.261 237.531ZM248.115 258.567C249.286 263.289 253 267.29 257.89 267.29C262.679 267.29 266.391 263.289 267.664 258.567H248.115ZM241.467 255.386C241.467 253.539 242.935 252.104 244.596 252.104H267.664C266.49 247.177 262.776 243.381 257.89 243.381C254.579 243.381 251.936 244.541 249.889 246.926C249.727 247.111 247.453 248.623 245.782 246.582C244.161 244.6 245.165 242.722 245.467 242.363C248.549 238.691 253.254 236.916 257.89 236.916C267.469 236.916 274.311 245.844 274.311 255.386C274.311 264.828 267.469 273.757 257.89 273.757C248.31 273.757 241.467 264.828 241.467 255.386ZM213.014 272.219H233.833C235.593 272.219 236.962 270.577 236.962 269.036C236.962 267.188 235.593 265.751 233.833 265.751H219.562L237.157 243.791C237.549 243.381 237.94 242.559 237.94 241.739C237.94 240.097 236.376 238.558 234.91 238.558H213.893C212.329 238.558 210.765 240.097 210.765 241.739C210.765 243.586 212.329 244.92 213.893 244.92H228.164L210.668 266.882C210.179 267.497 209.885 268.216 209.885 269.036C209.885 270.577 211.254 272.219 213.014 272.219ZM197.491 255.285C197.491 249.128 193.387 243.381 187.327 243.381C181.364 243.381 177.062 249.128 177.062 255.285C177.062 261.545 181.364 267.29 187.327 267.29C193.387 267.29 197.491 261.545 197.491 255.285ZM201.206 272.935C199.545 272.935 198.178 271.5 198.178 269.653V269.241C195.245 271.91 191.333 273.757 187.327 273.757C177.749 273.757 170.906 264.828 170.906 255.285C170.906 245.844 177.749 236.916 187.327 236.916C191.333 236.916 195.245 238.66 198.178 241.431V240.712C198.178 239.07 199.545 237.43 201.206 237.43C202.965 237.43 204.334 239.07 204.334 240.712V269.653C204.334 271.5 202.965 272.935 201.206 272.935ZM168.481 207.12C169.903 208.614 169.903 211.044 168.481 212.538L126.5 256.614L143.003 273.938C144.424 275.433 144.424 277.86 143.003 279.354C142.314 280.077 141.399 280.476 140.423 280.476C139.448 280.476 138.531 280.077 137.842 279.354L121.341 262.03L114.944 268.747L108.547 262.03L92.0459 279.354C91.3552 280.077 90.4398 280.476 89.4656 280.476C88.4893 280.476 87.5738 280.077 86.8852 279.354C85.4637 277.86 85.4637 275.433 86.8852 273.938L103.388 256.614L86.8852 239.288C85.4637 237.796 85.4637 235.364 86.8852 233.872C87.5759 233.149 88.4914 232.75 89.4656 232.75C90.4398 232.75 91.3573 233.149 92.0459 233.872L114.944 257.913L143.992 227.415H81.4241V285.831H148.464V243.534C148.464 243.534 154.152 237.56 154.586 237.106C155.021 236.649 155.888 236.517 155.888 237.67V293.625H74V219.618H151.418L163.323 207.12C164.011 206.397 164.927 206 165.901 206C166.875 206 167.793 206.397 168.481 207.12Z" fill="#034C7D"/>
</g>
<defs>
<clipPath id="clip0_1884_2">
<rect width="500" height="500" fill="white"/>
</clipPath>
</defs>
</svg>
