<svg width="500" height="500" viewBox="0 0 500 500" fill="none" xmlns="http://www.w3.org/2000/svg">
<rect width="500" height="500" fill="#F0F0F0"/>
<mask id="mask0_4115_97" style="mask-type:luminance" maskUnits="userSpaceOnUse" x="107" y="105" width="285" height="290">
<path d="M107 105.001H392V394.668H107V105.001Z" fill="white"/>
</mask>
<g mask="url(#mask0_4115_97)">
<path d="M356.949 144.91L356.921 137.556L350.809 134.039C317.189 114.57 276.722 107.859 238.865 116.014C219.547 120.156 201.023 128.035 185.004 139.71C182.739 141.319 180.57 143.082 178.432 144.846L178.426 144.851L178.427 144.855L178.437 144.914C178.436 144.915 178.444 144.877 178.445 144.863C180.19 144.251 181.907 143.612 183.617 142.98C205.308 135.212 228.263 130.868 251.221 131.195C254.249 131.234 258.571 131.425 261.547 131.601C286.309 133.304 310.42 140.206 332.15 152.033C329.484 204.181 302.138 253.524 260.955 284.685C260.541 284.491 260.165 284.315 259.879 284.184C250.136 279.587 240.63 273.964 231.624 267.996C238.372 276.954 246.468 284.939 255.21 291.886C256.888 293.217 259.228 294.937 260.933 296.234C319.408 271.471 357.811 208.982 356.949 144.91Z" fill="#FFC003"/>
<path d="M253.776 184.626L248.715 177.251L257.772 178.281L263.51 185.943L253.776 184.626ZM224.044 168.088L220.645 163.415L225.191 151.786L228.24 163.366L224.044 168.088ZM276.594 187.535L264.965 168.088L237.923 164.448L242.901 163.851L234.677 146.583L231.026 154.003L225.616 143.42L217.704 162.358L221.6 170.541L218.838 170.871L219.08 171.633L246.572 175.336L259.732 197.344L297.072 206.17L286.425 220.898L290.249 217.083L293.028 216.015C294.48 215.456 295.741 214.483 296.661 213.211L309.586 195.331L276.594 187.535Z" fill="#231F20"/>
<path d="M244.923 195.539L233.909 194.051L228.179 185.701L238.431 186.868L244.923 195.539Z" fill="#231F20"/>
<path d="M212 203.886L205.394 194.266L217.21 195.608L224.694 205.6L212 203.886ZM174.87 189.196L169.882 182.335L176.557 165.256L181.034 182.261L174.87 189.196ZM241.715 207.392L226.087 184.794L195.158 181.024L187.564 180.097L194.488 178.874L197.689 178.308L193.264 168.407L187.785 156.156L182.282 164.883L176.118 152.13L161.589 186.136L165.333 195.31L143.759 230.212L161.589 231.108L196.811 278.539L211.34 253.257L201.872 247.438L249.704 245.394C256.116 245.119 262.176 242.72 267.022 238.679C269.048 236.993 270.863 235.018 272.405 232.798C272.56 232.576 272.712 232.352 272.861 232.123L282.44 217.458L241.715 207.392Z" fill="#231F20"/>
<path d="M137.282 371.473C138.619 371.473 139.732 371.078 140.623 370.284C141.514 369.492 141.96 368.473 141.96 367.228C141.96 364.85 140.707 363.463 138.201 363.067L130.264 362.982V371.473H137.282ZM135.778 341.245H130.264V349.226L136.697 349.141C139.091 348.801 140.289 347.5 140.289 345.235C140.289 343.934 139.843 342.942 138.953 342.263C138.061 341.584 137.003 341.245 135.778 341.245ZM151.15 355.424C156.163 358.312 158.669 362.699 158.669 368.587C158.669 374.021 156.928 378.295 153.448 381.408C149.967 384.522 144.912 386.078 138.285 386.078H113.555V326.64H136.781C143.352 326.64 148.364 328.083 151.819 330.97C155.271 333.857 156.998 337.99 156.998 343.367C156.998 348.519 155.048 352.538 151.15 355.424Z" fill="#231F20"/>
<path d="M184.067 364.85H193.757L188.912 346.594L184.067 364.85ZM199.355 386.078L197.35 378.436H180.474L178.469 386.078H160.507L179.137 326.64H198.686L217.317 386.078H199.355Z" fill="#231F20"/>
<path d="M258.42 343.112H238.787V350.839H258.002V367.313H238.787V386.078H222.078V326.64H258.42V343.112Z" fill="#231F20"/>
<path d="M295.847 387.438C287.047 387.438 279.751 384.465 273.958 378.521C268.165 372.578 265.27 365.19 265.27 356.359C265.27 347.529 268.165 340.141 273.958 334.198C279.751 328.253 287.047 325.282 295.847 325.282C301.249 325.282 306.235 326.584 310.802 329.187C315.368 331.792 318.933 335.301 321.495 339.717L306.959 348.208C306.011 346.284 304.536 344.756 302.531 343.622C300.526 342.491 298.298 341.924 295.847 341.924C291.725 341.924 288.383 343.283 285.822 346C283.26 348.717 281.979 352.171 281.979 356.359C281.979 360.55 283.26 364.001 285.822 366.719C288.383 369.436 291.725 370.794 295.847 370.794C298.354 370.794 300.595 370.229 302.573 369.096C304.55 367.965 306.011 366.408 306.959 364.426L321.495 372.917C318.933 377.39 315.368 380.929 310.802 383.531C306.235 386.134 301.249 387.438 295.847 387.438Z" fill="#231F20"/>
<path d="M344.093 366.676C346.794 369.423 350.205 370.794 354.327 370.794C358.449 370.794 361.86 369.423 364.562 366.676C367.263 363.931 368.614 360.493 368.614 356.359C368.614 352.228 367.263 348.789 364.562 346.042C361.86 343.298 358.449 341.924 354.327 341.924C350.205 341.924 346.794 343.298 344.093 346.042C341.391 348.789 340.041 352.228 340.041 356.359C340.041 360.493 341.391 363.931 344.093 366.676ZM376.341 378.479C370.353 384.452 363.016 387.438 354.327 387.438C345.639 387.438 338.3 384.452 332.314 378.479C326.326 372.507 323.333 365.135 323.333 356.359C323.333 347.586 326.326 340.213 332.314 334.24C338.3 328.268 345.639 325.282 354.327 325.282C363.016 325.282 370.353 328.268 376.341 334.24C382.328 340.213 385.323 347.586 385.323 356.359C385.323 365.135 382.328 372.507 376.341 378.479Z" fill="#231F20"/>
</g>
</svg>
