<svg width="500" height="500" viewBox="0 0 500 500" fill="none" xmlns="http://www.w3.org/2000/svg">
<rect width="500" height="500" fill="#BB2C32"/>
<path fill-rule="evenodd" clip-rule="evenodd" d="M0 0H500V500H0V0Z" fill="#BB2C32"/>
<path fill-rule="evenodd" clip-rule="evenodd" d="M91.7052 233.572C91.9342 232.714 92.5066 232.257 93.3653 232.086C95.0827 231.743 96.8573 231.343 98.5747 231C99.0326 230.886 99.3188 230.714 99.3761 230.257C99.4906 229.8 99.6051 229.4 99.7768 228.943C100.063 228.143 100.693 227.743 101.551 227.914C102.067 228.029 102.582 228.2 103.097 228.372C103.555 228.543 103.784 228.886 103.956 229.343C104.013 229.514 103.956 229.8 104.356 229.8C104.643 229.743 104.757 229.629 104.872 229.343C104.986 228.829 105.158 228.372 105.33 227.857C105.673 226.714 106.36 226.372 107.505 226.657C107.848 226.772 108.192 226.886 108.535 227C109.165 227.172 109.623 227.572 109.68 228.257C109.68 228.6 109.795 228.657 110.138 228.6C111.741 228.257 113.401 227.914 115.004 227.629C115.462 227.514 115.691 227.286 115.806 226.829C116.55 224.143 117.237 221.457 118.038 218.829C118.84 216.2 119.927 213.629 121.645 211.4C122.446 210.314 123.305 209.343 124.507 208.657C126.167 207.743 127.255 208.086 128.342 210.086C128.972 211.457 129.144 213.343 129.087 215.229C129.029 217.4 128.629 219.514 128.056 221.572C127.312 224.372 126.339 227.057 125.48 229.8C125.366 230.143 125.366 230.372 125.652 230.657C126.854 231.8 128.056 233 129.201 234.2C129.43 234.486 129.659 234.543 129.831 234.2C129.831 234.143 129.888 234.143 129.945 234.086C130.518 233.343 131.72 233.686 133.094 234.314C133.781 234.6 133.953 235.229 133.724 236.143C133.609 236.657 133.437 237.172 133.266 237.686C133.151 237.972 133.208 238.2 133.495 238.372C133.781 238.543 133.838 238.314 134.01 238.2C134.41 237.857 134.868 237.743 135.384 237.914C135.842 238.029 136.357 238.2 136.815 238.372C137.673 238.714 137.96 239.343 137.788 240.2L137.673 240.6C137.216 242.086 137.216 242.086 138.36 243.172C139.391 244.2 140.421 245.229 141.509 246.257C142.139 246.886 142.31 247.572 142.024 248.372C141.738 249.172 141.566 250.029 141.28 250.829C140.936 251.914 140.078 252.257 139.162 251.629C135.212 249.114 131.262 246.657 127.255 244.143C126.911 243.914 126.568 243.743 126.167 243.629C124.85 243.229 123.534 242.886 122.217 242.486C121.816 242.372 121.587 242.372 121.473 242.829C120.042 247.057 118.611 251.229 116.779 255.343C116.607 255.686 116.722 255.972 116.951 256.257C117.752 257.457 118.553 258.657 119.355 259.857C120.214 261.172 121.129 262.429 121.988 263.743C122.446 264.372 122.503 265.057 122.274 265.8C122.16 266.086 122.103 266.429 121.988 266.772C121.645 267.857 120.729 268.143 119.813 267.514C118.439 266.543 117.065 265.572 115.748 264.543C115.119 264.086 114.546 263.572 113.859 263.172C113.001 262.6 112.772 262.6 112.027 263.229C110.882 264.257 109.337 263.8 108.879 262.314C108.593 261.4 108.421 261.229 107.39 261.286C105.845 261.343 104.299 261.457 102.754 261.514C101.838 261.572 100.922 261.629 100.006 261.629C98.9181 261.629 98.4029 260.943 98.6319 259.914C98.6891 259.572 98.8609 259.286 98.9181 258.943C99.0899 258.086 99.6623 257.572 100.464 257.229C103.154 256.086 105.845 254.943 108.593 253.8C108.936 253.629 109.165 253.457 109.222 253C109.909 248.657 110.882 244.429 112.027 240.2C112.142 239.686 112.142 239.457 111.569 239.343C110.997 239.229 110.367 239.057 109.795 238.829C107.562 237.914 105.215 238.029 102.925 238.029C99.4906 237.972 95.9986 237.972 92.5639 237.914C91.2472 237.914 90.732 237.172 91.1327 235.972C91.2472 235.114 91.4762 234.372 91.7052 233.572Z" fill="white"/>
<path d="M216.1 208.428C218.161 209.971 219.249 212.143 219.249 214.828C219.249 216.828 218.791 218.428 217.817 219.685C216.844 220.943 215.413 221.914 213.41 222.657V222.771C217.875 223.743 220.107 226.428 220.107 230.714C220.107 233.628 219.02 235.914 216.787 237.628C214.554 239.343 211.52 240.2 207.628 240.2H193.488V206.085H206.826C210.891 206.085 213.982 206.885 216.1 208.428ZM201.56 219.914H205.91C207.742 219.914 209.059 219.628 209.918 219C210.776 218.371 211.177 217.457 211.177 216.143C211.177 214.885 210.776 213.914 209.975 213.343C209.173 212.771 207.914 212.485 206.197 212.485H201.56V219.914ZM201.56 233.743H206.082C208.028 233.743 209.402 233.457 210.261 232.828C211.12 232.2 211.52 231.285 211.52 229.971C211.52 228.6 211.062 227.571 210.204 226.943C209.345 226.314 207.914 225.971 205.91 225.971H201.56V233.743Z" fill="white"/>
<path d="M232.873 233L230.64 240.257H221.882L233.56 206.143H244.494L256.172 240.257H247.413L245.238 233H232.873ZM242.548 223.857C241.174 219.343 240.029 215.172 239.113 211.457H238.998C238.025 215.4 236.937 219.572 235.621 223.857L234.934 226.143H243.234L242.548 223.857Z" fill="white"/>
<path d="M289.432 240.2H278.956L268.537 224.485H268.423V240.2H260.122V206.085H268.423V220.828H268.537L278.555 206.085H288.516L276.094 222.257L289.432 240.2Z" fill="white"/>
<path d="M317.196 237.4C314.792 239.8 311.3 241 306.777 241C302.312 241 298.82 239.8 296.416 237.4C294.012 235 292.752 231.514 292.752 227V206.085H301.053V226.771C301.053 229 301.511 230.714 302.541 231.914C303.514 233.114 304.946 233.685 306.777 233.685C308.667 233.685 310.098 233.114 311.071 231.914C312.044 230.714 312.559 229 312.559 226.771V206.085H320.86V227C320.86 231.514 319.658 234.943 317.196 237.4Z" fill="white"/>
<path d="M214.383 282.6V268.486H201.731V282.6H193.431V248.486H201.731V261.4H214.383V248.486H222.683V282.6H214.383Z" fill="white"/>
<path d="M254.512 249.857C256.974 251.286 258.92 253.343 260.237 256.028C261.553 258.714 262.24 261.857 262.24 265.514C262.24 269.171 261.553 272.314 260.237 275C258.92 277.686 256.974 279.743 254.512 281.171C252.051 282.6 249.131 283.343 245.753 283.343C242.376 283.343 239.399 282.6 236.938 281.171C234.476 279.743 232.53 277.686 231.213 275C229.896 272.314 229.209 269.171 229.209 265.514C229.209 261.857 229.896 258.714 231.213 256.028C232.53 253.343 234.476 251.286 236.938 249.857C239.399 248.428 242.376 247.686 245.753 247.686C249.074 247.686 251.993 248.428 254.512 249.857ZM239.914 257.686C238.541 259.571 237.854 262.143 237.854 265.514C237.854 268.886 238.541 271.457 239.914 273.343C241.288 275.228 243.235 276.143 245.753 276.143C248.215 276.143 250.161 275.228 251.535 273.343C252.909 271.457 253.596 268.886 253.596 265.514C253.596 262.143 252.909 259.571 251.535 257.686C250.161 255.8 248.215 254.886 245.753 254.886C243.235 254.886 241.288 255.857 239.914 257.686Z" fill="white"/>
<path d="M292.523 275.572V282.6H268.709V248.486H277.067V275.572H292.523Z" fill="white"/>
<path d="M306.09 248.486H297.79V282.6H306.09V248.486Z" fill="white"/>
<path d="M340.209 252.886C343.357 255.857 344.96 260.086 344.96 265.514C344.96 271 343.357 275.172 340.209 278.143C337.06 281.114 332.538 282.6 326.699 282.6H314.62V248.486H326.699C332.595 248.486 337.06 249.972 340.209 252.886ZM322.864 275.572H326.527C329.733 275.572 332.195 274.714 333.855 273.057C335.515 271.4 336.316 268.886 336.316 265.572C336.316 262.257 335.515 259.743 333.855 258.086C332.195 256.429 329.79 255.572 326.527 255.572H322.864V275.572Z" fill="white"/>
<path d="M357.383 275.4L355.15 282.657H346.391L358.069 248.543H369.003L380.682 282.657H371.923L369.748 275.4H357.383ZM367 266.257C365.626 261.743 364.481 257.572 363.508 253.857H363.393C362.42 257.8 361.332 261.972 360.016 266.257L359.329 268.543H367.63L367 266.257Z" fill="white"/>
<path d="M397.168 282.6H388.868V269.686L377.132 248.486H386.349L389.326 254.657C390.7 257.514 391.902 260.372 392.989 263.229H393.104C394.077 260.486 395.279 257.629 396.71 254.657L399.687 248.486H408.904L397.168 269.743V282.6Z" fill="white"/>
<path d="M212.207 297.914V325H203.907V297.914H193.431V290.886H222.683V297.914H212.207Z" fill="white"/>
<path d="M254.054 300.6C254.054 302.657 253.481 304.429 252.394 305.914C251.249 307.343 249.761 308.371 247.757 308.943V309.057C248.959 309.457 249.932 310.143 250.676 311.171C251.421 312.143 252.165 313.743 252.966 315.914L256.287 325H247.356L244.78 317.286C244.15 315.514 243.464 314.257 242.662 313.571C241.861 312.886 240.658 312.543 239.056 312.543H235.907V325H227.606V290.886H241.46C249.818 290.886 254.054 294.086 254.054 300.6ZM235.907 306.257H240.487C244.093 306.257 245.868 304.714 245.868 301.629C245.868 298.714 243.979 297.286 240.143 297.286H235.907V306.257Z" fill="white"/>
<path d="M268.995 317.743L266.763 325H258.061L269.739 290.886H280.616L292.294 325H283.536L281.36 317.743H268.995ZM278.67 308.657C277.296 304.143 276.151 299.971 275.235 296.257H275.12C274.147 300.2 273.06 304.371 271.743 308.657L271.056 310.943H279.357L278.67 308.657Z" fill="white"/>
<path d="M301.969 325L291.665 290.886H300.366L304.087 304.086C305.404 308.486 306.491 312.943 307.35 317.514H307.464C308.266 313.514 309.353 309.057 310.727 304.086L314.448 290.886H323.092L312.788 325H301.969Z" fill="white"/>
<path d="M335.572 297.8V304.314H350.341V311.171H335.572V318.029H351.773V325H327.214V290.886H351.429V297.8H335.572Z" fill="white"/>
<path d="M382.685 317.971V325H358.871V290.886H367.229V317.971H382.685Z" fill="white"/>
<path d="M169.33 177.571L169.559 178.486C168.643 178.714 167.727 179 166.869 179.286L166.583 178.371C167.498 178.086 168.414 177.8 169.33 177.571ZM158.683 181.343L159.083 182.2C158.225 182.543 157.366 182.943 156.565 183.343L156.164 182.486C156.965 182.086 157.824 181.686 158.683 181.343ZM153.588 183.8L154.046 184.6C153.244 185.057 152.386 185.514 151.584 185.971L151.126 185.171C151.928 184.657 152.786 184.2 153.588 183.8ZM148.722 186.6L149.237 187.4C148.436 187.914 147.691 188.429 146.89 188.943L146.318 188.143C147.119 187.629 147.92 187.114 148.722 186.6ZM144.028 189.8L144.6 190.543C143.856 191.114 143.112 191.686 142.368 192.257L141.795 191.514C142.539 190.943 143.284 190.371 144.028 189.8ZM139.62 193.343L140.249 194.029C139.563 194.657 138.876 195.229 138.189 195.914L137.559 195.229C138.189 194.543 138.933 193.914 139.62 193.343ZM135.441 197.171L136.128 197.857C135.441 198.486 134.811 199.171 134.181 199.857L133.494 199.229C134.124 198.486 134.811 197.857 135.441 197.171ZM131.605 201.286L132.292 201.914C131.663 202.6 131.09 203.343 130.518 204.086L129.774 203.514C130.403 202.771 131.033 202.029 131.605 201.286ZM128.113 205.743L128.858 206.314C128.285 207.057 127.77 207.8 127.255 208.6L126.453 208.086C126.968 207.229 127.541 206.486 128.113 205.743ZM124.908 210.371L125.709 210.886C125.194 211.686 124.736 212.486 124.278 213.286L123.476 212.829C123.877 212.029 124.392 211.171 124.908 210.371ZM122.045 215.286L122.847 215.743C122.389 216.543 121.988 217.4 121.587 218.257L120.729 217.857C121.187 217 121.645 216.143 122.045 215.286ZM119.584 220.371L120.442 220.771C120.042 221.629 119.698 222.486 119.355 223.343L118.496 223C118.84 222.143 119.24 221.229 119.584 220.371ZM117.523 225.686L118.382 225.971C118.095 226.829 117.752 227.743 117.523 228.657L116.664 228.371C116.893 227.457 117.237 226.543 117.523 225.686ZM115.863 231.057L116.779 231.286C116.55 232.2 116.321 233.114 116.092 233.971L115.176 233.743C115.405 232.886 115.634 231.971 115.863 231.057ZM114.603 236.6L115.519 236.771C115.348 237.686 115.176 238.6 115.061 239.514L114.145 239.4C114.26 238.429 114.432 237.514 114.603 236.6ZM113.802 242.2L114.718 242.314C114.603 243.229 114.546 244.143 114.489 245.114L113.573 245.057C113.573 244.029 113.687 243.114 113.802 242.2ZM113.344 250.543C113.344 249.629 113.344 248.714 113.401 247.8L114.317 247.857C114.26 248.771 114.26 249.686 114.26 250.6V250.657H113.344V250.543ZM113.401 253.457L114.317 253.4C114.374 254.314 114.432 255.286 114.489 256.2L113.573 256.257C113.458 255.343 113.401 254.371 113.401 253.457ZM113.802 259.114L114.718 259C114.832 259.914 114.947 260.829 115.061 261.743L114.145 261.857C114.031 260.943 113.916 260.029 113.802 259.114ZM114.661 264.657L115.577 264.486C115.748 265.4 115.92 266.314 116.149 267.229L115.233 267.457C115.004 266.543 114.832 265.629 114.661 264.657ZM115.92 270.2L116.836 269.971C117.065 270.886 117.351 271.743 117.637 272.657L116.721 272.943C116.435 272.029 116.149 271.114 115.92 270.2ZM118.553 278.257C118.21 277.4 117.866 276.486 117.58 275.629L118.439 275.343C118.725 276.2 119.069 277.114 119.412 277.971L118.553 278.257ZM120.843 283.4C120.442 282.543 120.042 281.686 119.641 280.829L120.5 280.429C120.843 281.286 121.244 282.143 121.645 282.943L120.843 283.4ZM123.476 288.371C123.019 287.571 122.561 286.714 122.103 285.914L122.904 285.457C123.362 286.257 123.82 287.114 124.278 287.914L123.476 288.371ZM126.453 293.171C125.938 292.371 125.423 291.571 124.908 290.829L125.709 290.314C126.224 291.114 126.739 291.857 127.255 292.657L126.453 293.171ZM129.831 297.686C129.258 296.943 128.686 296.2 128.113 295.457L128.858 294.886C129.43 295.629 130.003 296.371 130.575 297.114L129.831 297.686ZM133.552 301.971C132.922 301.286 132.292 300.6 131.663 299.857L132.35 299.229C132.979 299.914 133.609 300.657 134.239 301.286L133.552 301.971ZM137.559 305.971C136.872 305.343 136.185 304.657 135.498 304.029L136.185 303.343C136.815 303.971 137.502 304.657 138.189 305.286L137.559 305.971ZM141.852 309.629C141.108 309.057 140.364 308.429 139.677 307.8L140.307 307.114C140.994 307.743 141.738 308.314 142.482 308.886L141.852 309.629ZM146.375 313C145.573 312.486 144.829 311.914 144.085 311.343L144.657 310.6C145.402 311.171 146.146 311.686 146.947 312.2L146.375 313ZM151.183 316.029C150.382 315.571 149.581 315.057 148.779 314.543L149.294 313.743C150.096 314.257 150.897 314.714 151.699 315.171L151.183 316.029ZM156.164 318.657C155.305 318.257 154.446 317.8 153.645 317.4L154.103 316.6C154.904 317.057 155.763 317.457 156.622 317.857L156.164 318.657ZM161.373 320.943C160.514 320.6 159.599 320.257 158.74 319.857L159.141 319C159.999 319.4 160.858 319.743 161.717 320.086L161.373 320.943ZM161.602 181.114L161.259 180.257C162.117 179.914 163.033 179.571 163.892 179.286L164.178 180.143C163.377 180.429 162.461 180.771 161.602 181.114ZM166.754 322.829C165.838 322.543 164.922 322.257 164.064 321.971L164.35 321.114C165.209 321.4 166.125 321.686 166.983 321.971L166.754 322.829ZM172.193 324.257C171.277 324.029 170.361 323.8 169.445 323.571L169.674 322.657C170.59 322.886 171.506 323.114 172.364 323.343L172.193 324.257ZM172.307 177.8L172.078 176.886C172.994 176.657 173.91 176.486 174.826 176.314L174.998 177.229C174.139 177.4 173.223 177.629 172.307 177.8ZM177.803 176.771L177.688 175.857C178.604 175.743 179.577 175.571 180.493 175.514L180.608 176.429C179.635 176.486 178.719 176.657 177.803 176.771ZM183.356 176.143L183.298 175.229C184.214 175.171 185.187 175.114 186.103 175.057L186.161 175.971C185.187 176.029 184.271 176.086 183.356 176.143ZM191.713 175.971C190.797 175.914 189.939 175.914 189.023 175.914H188.908V175H189.023C189.939 175 190.855 175 191.771 175.057L191.713 175.971ZM197.323 176.371C196.408 176.257 195.434 176.2 194.518 176.143L194.576 175.229C195.492 175.286 196.465 175.4 197.381 175.457L197.323 176.371ZM202.819 177.229C201.903 177.057 200.987 176.886 200.071 176.771L200.186 175.857C201.102 175.971 202.075 176.143 202.991 176.314L202.819 177.229ZM208.257 178.429C207.341 178.2 206.426 177.971 205.567 177.743L205.796 176.829C206.712 177.057 207.628 177.286 208.544 177.514L208.257 178.429ZM213.638 180.086C212.78 179.8 211.864 179.514 210.948 179.229L211.234 178.314C212.15 178.6 213.066 178.886 213.925 179.171L213.638 180.086ZM218.848 182.086C217.989 181.686 217.13 181.343 216.272 181L216.615 180.143C217.474 180.486 218.39 180.829 219.249 181.229L218.848 182.086ZM221.367 183.286L221.767 182.429C222.626 182.829 223.485 183.286 224.286 183.686L223.828 184.486C223.084 184.086 222.225 183.686 221.367 183.286Z" fill="white"/>
</svg>
