<svg width="500" height="500" viewBox="0 0 500 500" fill="none" xmlns="http://www.w3.org/2000/svg">
<rect width="500" height="500" fill="#F0F0F0"/>
<path d="M74.1607 200.474C74.5095 200.333 74.8679 200.209 75.2361 200.102C77.6084 199.425 79.9614 199.073 82.2949 199.047C84.4402 199.021 86.807 199.008 89.3953 199.008C205.42 199.013 322.866 199.01 441.734 199C441.805 199 441.872 199.026 441.922 199.073C441.972 199.121 442 199.184 442 199.251C442 224.565 442 249.936 442 275.363C442 278.342 441.556 281.031 440.667 283.427C438.533 289.201 434.807 293.668 429.489 296.828C429.107 297.056 428.692 297.11 428.335 297.33C427.549 297.816 426.663 298.216 425.678 298.53C422.323 299.592 419.511 300.004 415.812 300C298.303 299.953 179.099 299.942 58.1994 299.969C58.1749 299.969 58.1506 299.964 58.1279 299.955C58.1052 299.946 58.0846 299.933 58.0673 299.917C58.0499 299.901 58.0362 299.881 58.0268 299.86C58.0174 299.838 58.0126 299.815 58.0126 299.792C58.0319 274.729 58.0278 250.014 58.0001 225.649C57.9946 222.75 58.1897 220.398 58.5856 218.592C59.38 214.961 60.933 211.604 63.2444 208.519C63.8589 207.7 64.6022 207.092 65.196 206.3C65.4894 205.911 65.8437 205.587 66.2589 205.328C66.8403 204.963 67.1849 204.469 67.7205 204.077C69.78 202.582 71.9268 201.381 74.1607 200.474ZM318.674 246.032C319.243 247.004 320.082 247.628 320.729 248.534C321.248 249.255 322.008 249.745 322.54 250.561C322.951 251.192 323.574 251.592 324.006 252.242C324.191 252.52 324.4 252.781 324.633 253.027C326.28 254.778 327.856 256.579 329.362 258.429C329.473 258.565 329.616 258.674 329.779 258.75C329.942 258.825 330.122 258.864 330.305 258.864L342.62 258.861C342.836 258.861 342.875 258.782 342.736 258.625L328.025 241.9C327.956 241.819 327.943 241.731 327.988 241.637C328.289 241.02 328.691 240.504 329.192 240.088C329.752 239.618 330.006 239.01 330.504 238.481C332.018 236.858 333.467 235.205 334.851 233.521C335.588 232.63 336.377 231.744 337.218 230.863C337.487 230.581 337.723 230.28 337.928 229.961C338.381 229.256 339.095 228.801 339.572 228.064C339.821 227.685 340.126 227.325 340.486 226.986C341.192 226.322 341.79 225.608 342.28 224.845C342.293 224.823 342.3 224.799 342.3 224.774C342.301 224.749 342.294 224.725 342.282 224.703C342.269 224.682 342.251 224.664 342.228 224.651C342.206 224.639 342.181 224.633 342.155 224.633H329.715C329.626 224.633 329.539 224.652 329.459 224.688C329.378 224.724 329.307 224.776 329.25 224.841L318.633 236.956C318.491 237.118 318.421 237.094 318.421 236.885V210.719C318.421 210.67 318.4 210.623 318.362 210.589C318.325 210.554 318.274 210.535 318.222 210.535H308.215C308.179 210.535 308.144 210.541 308.111 210.554C308.079 210.567 308.049 210.586 308.024 210.61C307.999 210.634 307.979 210.663 307.965 210.694C307.952 210.726 307.945 210.759 307.945 210.793L307.953 258.712C307.953 258.752 307.97 258.791 307.999 258.82C308.029 258.848 308.069 258.864 308.111 258.864H318.226C318.276 258.864 318.325 258.845 318.361 258.812C318.397 258.778 318.417 258.732 318.417 258.684L318.425 246.091C318.425 245.767 318.508 245.747 318.674 246.032ZM413.026 228.142C409.499 224.731 405.142 223.316 399.954 223.896C398.41 224.069 396.927 224.492 395.507 225.166C394.752 225.527 393.938 225.739 393.244 226.198C389.618 228.615 387.17 231.603 385.899 235.16C384.57 238.877 384.462 242.96 385.575 247.408C385.808 248.344 386.176 249.285 386.68 250.231C387.225 251.261 387.767 252.126 388.307 252.827C389.091 253.843 390.152 254.952 391.492 256.151C392.086 256.681 392.771 256.963 393.423 257.422C393.846 257.722 394.367 258.003 394.984 258.265C399.028 259.979 403.08 260.222 407.138 258.994C408.295 258.646 409.305 258.201 410.169 257.657C411.282 256.956 412.19 256.227 412.893 255.469C413.125 255.218 413.239 255.26 413.233 255.595L413.179 258.617C413.179 258.649 413.185 258.681 413.197 258.71C413.21 258.74 413.228 258.766 413.252 258.789C413.276 258.812 413.304 258.83 413.335 258.842C413.366 258.854 413.399 258.861 413.433 258.861L423.527 258.864C423.562 258.864 423.596 258.851 423.621 258.828C423.646 258.804 423.66 258.772 423.66 258.739L423.664 210.797C423.664 210.735 423.637 210.675 423.589 210.631C423.542 210.587 423.478 210.562 423.41 210.562L413.37 210.566C413.321 210.566 413.273 210.585 413.238 210.619C413.203 210.653 413.183 210.698 413.183 210.746V228.083C413.183 228.222 413.131 228.242 413.026 228.142ZM93.0326 212.93C91.2942 213.278 89.3067 213.997 87.07 215.086C86.4056 215.408 85.9198 215.874 85.2555 216.2C84.3171 216.659 83.4991 217.525 82.7226 218.231C80.1178 220.609 78.2935 223.498 77.2499 226.895C76.7517 228.519 76.5025 230.049 76.5025 231.487C76.5053 249.663 76.5011 267.879 76.4901 286.137C76.4901 286.19 76.5128 286.24 76.5533 286.278C76.5938 286.315 76.6487 286.337 76.706 286.337C99.2804 286.347 122.112 286.344 145.201 286.329C147.153 286.329 149.262 286.246 151.114 285.737C152.565 285.334 154.201 284.677 156.022 283.765C156.994 283.278 157.708 282.588 158.655 282.063C159.282 281.718 159.631 281.138 160.212 280.726C160.633 280.423 160.997 280.05 161.304 279.609C161.756 278.954 162.371 278.515 162.836 277.829C164.262 275.746 165.301 273.469 165.954 270.999C166.342 269.543 166.533 267.587 166.527 265.13C166.494 247.34 166.487 229.925 166.507 212.883C166.507 212.687 166.403 212.589 166.195 212.589C144.354 212.581 121.419 212.581 97.3883 212.589C96.0015 212.589 94.2243 212.691 93.0326 212.93ZM223.683 234.4C223.668 234.394 223.654 234.384 223.643 234.372C223.632 234.36 223.625 234.345 223.621 234.33C223.618 234.315 223.619 234.299 223.624 234.284C223.629 234.27 223.638 234.257 223.65 234.247C224.201 233.747 224.771 233.247 225.361 232.745C226.025 232.177 226.444 231.416 226.955 230.722C229.077 227.821 229.093 223.363 228.06 220.183C227.653 218.94 226.772 218.027 226.091 216.937C225.92 216.663 225.702 216.447 225.44 216.29C224.7 215.847 224.406 215.169 223.579 214.796C223.139 214.6 222.718 214.373 222.317 214.114C220.527 212.973 218.264 212.605 215.914 212.601C209.395 212.582 202.916 212.579 196.478 212.589C196.429 212.589 196.383 212.607 196.348 212.638C196.314 212.67 196.295 212.713 196.295 212.758V258.739C196.295 258.769 196.308 258.798 196.33 258.819C196.353 258.841 196.383 258.853 196.415 258.853C203.934 258.874 211.344 258.868 218.646 258.837C220.493 258.829 222.143 258.474 223.596 257.771C228.916 255.201 231.467 251.181 231.249 245.711C231.182 244.013 230.717 242.068 230.032 240.563C229.639 239.692 229.001 238.702 228.118 237.591C227.482 236.791 226.698 236.329 225.975 235.631C225.352 235.031 224.501 234.709 223.683 234.4ZM263.291 228.205C262.649 227.614 261.945 227.02 261.178 226.421C260.343 225.77 259.289 225.386 258.313 224.935C257.225 224.433 256.004 224.1 254.651 223.935C251.428 223.543 248.466 223.951 245.765 225.159C244.847 225.566 244.029 225.841 243.186 226.405C240.213 228.397 238.073 230.829 236.767 233.702C234.788 238.051 234.519 242.749 235.961 247.796C236.468 249.561 237.464 251.486 238.573 252.885C239.345 253.86 240.338 254.906 241.55 256.022C241.866 256.312 242.199 256.553 242.551 256.743C243.493 257.257 244.224 257.853 245.262 258.296C249.78 260.222 254.35 260.259 258.973 258.406C260.343 257.857 261.779 256.839 263.279 255.352C263.406 255.223 263.47 255.248 263.47 255.426L263.428 258.625C263.428 258.688 263.454 258.748 263.5 258.792C263.546 258.836 263.608 258.861 263.673 258.861L273.614 258.864C273.83 258.864 273.938 258.763 273.938 258.559V224.825C273.938 224.774 273.916 224.726 273.878 224.69C273.84 224.653 273.788 224.633 273.734 224.633H263.761C263.55 224.633 263.445 224.733 263.445 224.931L263.453 228.138C263.453 228.282 263.399 228.304 263.291 228.205ZM359.179 223.869C356.638 224.053 354.711 224.676 352.424 225.543C350.933 226.111 349.853 226.97 348.562 227.758C347.877 228.17 347.499 228.766 346.893 229.252C346.472 229.589 346.065 229.993 345.672 230.463C344.471 231.901 343.48 233.559 342.699 235.439C341.383 238.61 341.333 242.417 341.931 245.628C342.091 246.486 342.408 247.442 342.882 248.498C343.424 249.714 343.869 250.584 344.215 251.109C346.509 254.586 349.596 257.035 353.474 258.457C357.352 259.879 361.52 260.148 365.977 259.264C368.952 258.674 371.603 257.458 373.928 255.618C376.287 253.755 378.105 251.449 379.384 248.702C379.827 247.756 380.134 246.785 380.306 245.789C380.829 242.721 380.772 239.806 380.136 237.046C379.812 235.635 379.056 233.984 377.869 232.094C377.316 231.216 376.507 230.659 375.975 229.765C375.772 229.42 375.419 229.244 375.095 229.013C374.435 228.53 374.19 227.919 373.392 227.527C373.01 227.341 372.621 227.105 372.226 226.817C371.669 226.417 371.009 226.047 370.245 225.708C366.846 224.192 363.157 223.579 359.179 223.869ZM292.44 228.821L292.473 224.904C292.474 224.868 292.467 224.833 292.453 224.801C292.439 224.768 292.418 224.738 292.392 224.713C292.366 224.688 292.335 224.668 292.3 224.654C292.266 224.64 292.228 224.633 292.191 224.633H282.35C282.296 224.633 282.245 224.653 282.206 224.69C282.168 224.726 282.147 224.774 282.147 224.825V258.657C282.147 258.713 282.17 258.767 282.211 258.806C282.252 258.846 282.308 258.868 282.367 258.868L292.216 258.861C292.273 258.861 292.328 258.839 292.369 258.802C292.409 258.764 292.432 258.714 292.432 258.661C292.462 254.181 292.453 249.596 292.403 244.907C292.357 240.688 292.98 237.352 297.195 235.243C298.664 234.505 300.749 234.337 302.422 234.219C302.471 234.216 302.516 234.196 302.549 234.161C302.583 234.127 302.601 234.082 302.601 234.035V224.331C302.601 224.185 302.522 224.108 302.364 224.1C300.23 224.018 298.656 224.759 296.796 225.594C295.583 226.139 294.886 227.005 293.798 227.691C293.646 227.786 293.524 227.918 293.445 228.072C293.271 228.417 293.042 228.712 292.76 228.958C292.544 229.146 292.437 229.1 292.44 228.821ZM394.191 270.677C394.191 270.046 393.925 269.441 393.453 268.995C392.98 268.548 392.339 268.298 391.671 268.298C391.002 268.298 390.361 268.548 389.888 268.995C389.416 269.441 389.15 270.046 389.15 270.677C389.15 270.99 389.215 271.299 389.342 271.588C389.469 271.877 389.654 272.139 389.888 272.36C390.122 272.581 390.4 272.756 390.706 272.876C391.012 272.996 391.34 273.057 391.671 273.057C392.002 273.057 392.329 272.996 392.635 272.876C392.941 272.756 393.219 272.581 393.453 272.36C393.687 272.139 393.873 271.877 393.999 271.588C394.126 271.299 394.191 270.99 394.191 270.677ZM299.686 269.466C299.686 269.406 299.661 269.348 299.615 269.305C299.57 269.262 299.509 269.239 299.445 269.239H295.882C295.819 269.239 295.757 269.262 295.712 269.305C295.667 269.348 295.642 269.406 295.642 269.466V287.815C295.642 287.875 295.667 287.933 295.712 287.975C295.757 288.018 295.819 288.042 295.882 288.042H299.445C299.509 288.042 299.57 288.018 299.615 287.975C299.661 287.933 299.686 287.875 299.686 287.815V269.466ZM286.411 277.013C286.357 277.013 286.305 276.993 286.267 276.957C286.229 276.921 286.208 276.872 286.208 276.821L286.204 274.018C286.204 273.967 286.225 273.918 286.263 273.882C286.301 273.846 286.353 273.826 286.407 273.826L292.835 273.794C292.889 273.794 292.94 273.774 292.979 273.738C293.017 273.702 293.038 273.653 293.038 273.602L293.042 270.121C293.042 270.095 293.037 270.07 293.027 270.047C293.017 270.024 293.002 270.003 292.983 269.985C292.964 269.967 292.941 269.953 292.917 269.943C292.892 269.934 292.866 269.929 292.839 269.929L282.234 269.925C282.18 269.925 282.128 269.945 282.09 269.981C282.052 270.017 282.031 270.066 282.031 270.117L282.022 287.854C282.022 287.905 282.044 287.954 282.082 287.99C282.12 288.026 282.172 288.046 282.226 288.046L292.984 288.042C293.038 288.042 293.09 288.022 293.128 287.986C293.166 287.95 293.188 287.901 293.188 287.85L293.192 284.415C293.192 284.39 293.186 284.365 293.176 284.342C293.166 284.319 293.151 284.297 293.132 284.28C293.113 284.262 293.091 284.248 293.066 284.238C293.041 284.228 293.015 284.223 292.988 284.223H286.411C286.357 284.223 286.305 284.203 286.267 284.167C286.229 284.131 286.208 284.082 286.208 284.031L286.199 281.075C286.199 281.05 286.205 281.025 286.215 281.001C286.225 280.978 286.24 280.957 286.259 280.939C286.278 280.921 286.3 280.907 286.325 280.897C286.35 280.888 286.376 280.883 286.403 280.883L291.834 280.879C291.888 280.879 291.94 280.859 291.978 280.823C292.016 280.787 292.037 280.738 292.037 280.687L292.017 277.205C292.017 277.154 291.995 277.105 291.957 277.069C291.919 277.033 291.867 277.013 291.813 277.013H286.411ZM337.517 274.575C337.517 274.6 337.511 274.626 337.501 274.65C337.49 274.674 337.474 274.695 337.454 274.713C337.435 274.731 337.411 274.745 337.386 274.754C337.36 274.764 337.333 274.768 337.305 274.767L335.096 274.684C335.069 274.683 335.041 274.687 335.016 274.697C334.99 274.706 334.967 274.72 334.947 274.738C334.927 274.756 334.911 274.777 334.901 274.801C334.89 274.825 334.884 274.851 334.884 274.876L334.872 278.072C334.872 278.123 334.893 278.172 334.932 278.208C334.97 278.244 335.022 278.264 335.075 278.264H337.301C337.355 278.264 337.407 278.284 337.445 278.32C337.483 278.356 337.505 278.405 337.505 278.456L337.521 287.85C337.521 287.901 337.543 287.95 337.581 287.986C337.619 288.022 337.671 288.042 337.725 288.042L341.35 288.046C341.403 288.046 341.455 288.026 341.493 287.99C341.532 287.954 341.553 287.905 341.553 287.854L341.557 278.452C341.557 278.401 341.579 278.352 341.617 278.316C341.655 278.28 341.707 278.26 341.761 278.26L344.015 278.256C344.069 278.256 344.121 278.236 344.159 278.2C344.197 278.164 344.219 278.115 344.219 278.064L344.223 274.825C344.223 274.8 344.217 274.774 344.207 274.75C344.196 274.726 344.18 274.705 344.16 274.687C344.141 274.669 344.117 274.655 344.092 274.646C344.066 274.636 344.039 274.632 344.011 274.633L341.756 274.712C341.729 274.713 341.702 274.709 341.676 274.699C341.65 274.69 341.627 274.676 341.607 274.658C341.587 274.64 341.572 274.619 341.561 274.595C341.55 274.571 341.545 274.546 341.545 274.52L341.536 271.069C341.536 271.042 341.53 271.014 341.517 270.989C341.505 270.964 341.486 270.942 341.464 270.924C341.441 270.906 341.415 270.893 341.387 270.886C341.358 270.878 341.329 270.877 341.3 270.881L337.7 271.469C337.653 271.478 337.611 271.501 337.581 271.535C337.55 271.57 337.534 271.613 337.534 271.658L337.517 274.575ZM306.574 282.867C306.478 282.676 306.541 282.581 306.765 282.581L317.03 282.592C317.121 282.592 317.208 282.559 317.274 282.5C317.339 282.441 317.378 282.36 317.383 282.275C317.48 280.659 317.142 279.117 316.37 277.648C316 276.947 315.323 276.629 314.796 276.072C313.239 274.441 309.755 274.222 307.75 274.657C305.881 275.062 304.447 275.965 303.448 277.366C301.779 279.715 301.662 282.443 303.095 284.905C305.188 288.501 309.763 289.116 313.583 287.583C314.509 287.211 315.165 286.489 315.892 285.85C316.385 285.414 316.736 284.811 316.947 284.043C316.994 283.87 316.923 283.784 316.735 283.784L313.085 283.792C312.986 283.792 312.89 283.825 312.815 283.886C311.057 285.321 309.323 285.47 307.613 284.333C307.069 283.972 306.853 283.412 306.574 282.867ZM326.302 284.639C324.624 284.571 323.565 283.732 323.125 282.122C322.731 280.679 323.669 278.719 325.314 278.346C327.506 277.844 329.003 278.491 329.806 280.287C329.873 280.439 329.995 280.514 330.172 280.514L333.772 280.503C333.988 280.503 334.09 280.401 334.079 280.197C333.988 278.628 332.771 277.013 331.567 276.025C329.786 274.567 326.887 274.179 324.612 274.629C323.211 274.909 322.043 275.479 321.107 276.339C318.691 278.558 318.114 282.051 319.762 284.811C321.697 288.058 325.754 289.104 329.304 287.94C331.867 287.104 333.477 285.335 334.133 282.635C334.144 282.592 334.144 282.546 334.133 282.503C334.123 282.459 334.102 282.418 334.072 282.383C334.043 282.348 334.005 282.32 333.963 282.3C333.92 282.281 333.873 282.271 333.826 282.271L330.122 282.275C330.052 282.275 329.985 282.295 329.928 282.333C329.87 282.371 329.827 282.424 329.802 282.486C329.213 283.995 328.046 284.712 326.302 284.639ZM370.56 281.45C370.571 279.586 369.767 277.794 368.327 276.468C366.887 275.143 364.928 274.393 362.881 274.383C361.867 274.377 360.862 274.554 359.924 274.903C358.985 275.252 358.131 275.765 357.411 276.414C356.691 277.064 356.118 277.836 355.725 278.687C355.332 279.538 355.128 280.451 355.123 281.374C355.112 283.238 355.916 285.03 357.356 286.356C358.796 287.681 360.755 288.432 362.803 288.442C363.816 288.447 364.821 288.27 365.759 287.921C366.698 287.573 367.552 287.059 368.272 286.41C368.992 285.761 369.565 284.988 369.958 284.138C370.351 283.287 370.555 282.373 370.56 281.45ZM376.914 275.778L376.918 275.092C376.918 275.051 376.91 275.01 376.894 274.972C376.878 274.934 376.854 274.9 376.823 274.871C376.793 274.841 376.756 274.818 376.716 274.802C376.676 274.787 376.633 274.778 376.59 274.778L373.176 274.774C372.941 274.774 372.824 274.887 372.824 275.112L372.828 287.779C372.828 287.954 372.92 288.042 373.106 288.042H376.71C376.76 288.042 376.808 288.024 376.844 287.991C376.879 287.958 376.9 287.913 376.901 287.866C376.943 285.947 376.94 284.06 376.893 282.204C376.862 280.96 376.988 280.071 377.271 279.538C378.338 277.539 382.324 277.613 382.473 280.322C382.565 281.966 382.58 284.445 382.519 287.76C382.516 287.948 382.616 288.042 382.818 288.042H386.381C386.419 288.042 386.457 288.035 386.492 288.021C386.527 288.007 386.559 287.987 386.586 287.962C386.613 287.936 386.635 287.906 386.649 287.873C386.664 287.839 386.671 287.804 386.671 287.768C386.663 285.156 386.663 282.501 386.671 279.801C386.675 277.778 385.862 275.625 383.653 274.865C381.676 274.188 379.806 274.318 378.043 275.257C377.732 275.421 377.478 275.7 377.196 275.908C377.008 276.049 376.914 276.006 376.914 275.778ZM403.534 284.639C402.695 284.631 401.478 284.27 400.972 283.549C400.014 282.179 399.99 280.786 400.901 279.369C401.1 279.056 401.352 278.826 401.657 278.679C403.229 277.916 404.685 278 406.025 278.93C406.446 279.221 406.702 279.607 406.793 280.091C406.843 280.368 407.017 280.506 407.316 280.506H410.858C411.085 280.509 411.188 280.403 411.165 280.189C410.991 278.405 410.148 277.268 408.824 276.111C408.392 275.738 407.932 275.446 407.445 275.237C404.887 274.152 402.289 274.181 399.651 275.323C399.308 275.472 398.66 275.981 397.708 276.849C397.214 277.299 396.587 278.605 396.367 279.224C395.869 280.632 395.806 282.714 396.612 284.129C397.098 284.972 397.289 285.662 398.107 286.344C398.821 286.943 399.377 287.332 399.776 287.513C402.32 288.668 404.9 288.68 407.516 287.548C408.483 287.128 409.322 286.309 409.974 285.545C410.699 284.692 411.096 283.661 411.165 282.451C411.167 282.428 411.163 282.405 411.154 282.383C411.145 282.361 411.132 282.341 411.115 282.324C411.098 282.307 411.077 282.294 411.055 282.285C411.032 282.275 411.007 282.271 410.983 282.271L407.242 282.279C407.07 282.281 406.961 282.36 406.914 282.514C406.457 283.944 405.33 284.652 403.534 284.639ZM417.082 277.868C417.867 277.205 419.026 277.343 419.329 278.374C419.379 278.546 419.499 278.632 419.69 278.632L423.182 278.621C423.345 278.621 423.43 278.544 423.435 278.389C423.473 277.28 422.9 276.79 422.314 275.974C422.082 275.655 421.774 275.404 421.392 275.221C419.643 274.393 417.875 274.223 416.09 274.712C413.802 275.339 412.44 277.103 412.835 279.456C413.038 280.652 414.246 281.82 415.367 282.235C416.212 282.552 417.078 282.824 417.967 283.051C418.603 283.213 419.099 283.537 419.453 284.023C419.552 284.159 419.595 284.323 419.575 284.486C419.554 284.65 419.471 284.8 419.341 284.909C418.538 285.589 417.754 285.571 416.987 284.854C416.796 284.678 416.767 284.419 416.621 284.219C416.536 284.099 416.417 284.039 416.264 284.039H412.926C412.853 284.039 412.783 284.065 412.731 284.112C412.678 284.158 412.647 284.222 412.644 284.29C412.61 284.954 412.774 285.528 413.134 286.011C415.118 288.665 418.781 289.003 421.729 287.513C422.368 287.187 423.319 285.968 423.493 285.301C424.112 282.953 423.107 281.142 420.799 280.334C419.532 279.891 418.075 279.769 417.057 278.821C416.99 278.758 416.937 278.682 416.901 278.599C416.866 278.516 416.849 278.427 416.851 278.338C416.854 278.249 416.875 278.161 416.915 278.08C416.955 277.999 417.012 277.927 417.082 277.868ZM350.426 276.194V275.182C350.426 274.916 350.287 274.782 350.007 274.782L346.693 274.767C346.444 274.764 346.32 274.88 346.32 275.116L346.311 287.858C346.311 287.907 346.332 287.953 346.37 287.988C346.407 288.023 346.458 288.042 346.511 288.042H350.239C350.353 288.042 350.411 287.988 350.414 287.881C350.455 286.164 350.451 284.409 350.401 282.616C350.343 280.444 351.199 278.523 353.898 278.542C353.961 278.542 354.025 278.53 354.084 278.507C354.142 278.484 354.196 278.45 354.241 278.408C354.286 278.365 354.322 278.315 354.346 278.259C354.371 278.203 354.383 278.144 354.383 278.084L354.379 274.892C354.376 274.599 354.224 274.486 353.923 274.551C353.095 274.726 352.3 274.982 351.539 275.319C351.476 275.348 351.421 275.391 351.377 275.445L350.68 276.28C350.511 276.484 350.426 276.455 350.426 276.194ZM393.63 274.955C393.63 274.905 393.609 274.857 393.572 274.822C393.535 274.786 393.484 274.767 393.431 274.767H389.877C389.824 274.767 389.773 274.786 389.736 274.822C389.699 274.857 389.678 274.905 389.678 274.955V287.854C389.678 287.904 389.699 287.952 389.736 287.987C389.773 288.022 389.824 288.042 389.877 288.042H393.431C393.484 288.042 393.535 288.022 393.572 287.987C393.609 287.952 393.63 287.904 393.63 287.854V274.955Z" fill="#ED1D23"/>
<path d="M84.2989 220.681C84.4397 220.512 84.5888 220.358 84.7462 220.218C85.9265 219.165 87.1357 218.08 88.5645 217.296C91.3529 215.768 94.2532 215.004 97.2653 215.004C118.869 215.007 140.701 215.005 162.76 215C162.917 215 162.996 215.077 162.996 215.23C162.982 231.638 162.983 248.609 163 266.143C163 269.025 162.486 270.98 161.265 273.498C160.757 274.551 160.147 275.523 159.434 276.412C156.997 279.455 153.875 281.46 150.071 282.426C148.55 282.811 146.595 283.003 144.207 283C122.518 282.971 101.195 282.962 80.2405 282.972C80.1844 282.972 80.1307 282.951 80.0911 282.913C80.0515 282.875 80.0293 282.824 80.0293 282.77C80.0513 266.319 80.0417 250.281 80.0003 234.656C79.992 231.539 80.177 229.151 80.5552 227.491C81.0356 225.384 82.2835 223.115 84.2989 220.681ZM122.738 218.504V246.795C122.738 246.851 122.754 246.905 122.784 246.953C122.815 247.001 122.859 247.039 122.911 247.064C122.963 247.089 123.022 247.099 123.08 247.093C123.138 247.088 123.193 247.067 123.239 247.032C123.402 246.916 123.556 246.766 123.699 246.581C124.848 245.108 126.046 243.609 127.294 242.084C127.509 241.822 127.74 241.576 127.985 241.343C128.515 240.84 128.698 240.167 129.253 239.688C129.973 239.067 130.466 238.136 131.108 237.384C132.323 235.967 133.566 234.418 134.839 232.736C135.204 232.257 135.734 231.949 136.032 231.398C136.409 230.705 137.059 230.167 137.556 229.53C138.591 228.21 139.585 226.954 140.538 225.761C140.709 225.544 140.898 225.342 141.105 225.155C141.668 224.64 141.958 223.983 142.451 223.417C143.798 221.857 145.092 220.255 146.331 218.611C146.514 218.368 146.449 218.246 146.137 218.246L123.016 218.238C122.942 218.238 122.872 218.266 122.82 218.316C122.768 218.366 122.738 218.433 122.738 218.504ZM96.6565 218.702L96.6068 246.747C96.6068 246.771 96.6169 246.795 96.6347 246.812C96.6526 246.829 96.6768 246.838 96.7021 246.838L99.0585 246.842C104.515 246.851 109.75 245.446 113.613 242.935C117.476 240.424 119.65 237.013 119.657 233.453V232.075C119.661 230.312 119.132 228.565 118.101 226.935C117.07 225.304 115.558 223.821 113.649 222.571C111.741 221.322 109.475 220.329 106.98 219.65C104.485 218.971 101.81 218.619 99.1082 218.615L96.7518 218.611C96.7265 218.611 96.7023 218.62 96.6844 218.637C96.6666 218.654 96.6565 218.678 96.6565 218.702ZM96.2962 250.995L96.3459 279.619C96.3459 279.643 96.356 279.666 96.3738 279.683C96.3917 279.7 96.4159 279.71 96.4412 279.71L99.0378 279.706C101.789 279.702 104.512 279.342 107.052 278.649C109.592 277.955 111.9 276.941 113.842 275.664C115.785 274.388 117.325 272.873 118.375 271.207C119.425 269.542 119.963 267.757 119.96 265.956V264.579C119.953 260.942 117.739 257.457 113.806 254.892C109.874 252.327 104.543 250.891 98.9881 250.9L96.3915 250.904C96.3662 250.904 96.342 250.914 96.3241 250.931C96.3063 250.948 96.2962 250.971 96.2962 250.995ZM145.172 279.536C145.337 279.562 145.491 279.54 145.631 279.469C145.816 279.379 145.845 279.256 145.718 279.1L123.293 251.459C123.07 251.184 122.958 251.22 122.958 251.565L122.954 279.318C122.954 279.37 122.975 279.419 123.013 279.455C123.051 279.492 123.103 279.512 123.157 279.512C130.117 279.504 137.295 279.502 144.691 279.504C144.857 279.504 145.017 279.515 145.172 279.536Z" fill="#ED1D23"/>
<path d="M124.024 221.841L124.86 220.061C124.866 220.047 124.875 220.035 124.885 220.027C124.895 220.019 124.906 220.014 124.917 220.014L125.925 220C125.939 220 125.953 220.006 125.964 220.018C125.976 220.029 125.986 220.046 125.992 220.065C125.998 220.085 126.001 220.107 126 220.129C125.998 220.151 125.993 220.172 125.985 220.19L124.133 223.957C124.123 223.975 124.11 223.989 124.096 223.995C124.081 224.002 124.065 224.001 124.051 223.994C124.036 223.986 124.024 223.972 124.015 223.952C124.006 223.933 124.001 223.91 124 223.886L124.009 221.909C124.009 221.885 124.014 221.861 124.024 221.841Z" fill="#ED1D23"/>
<path d="M124.043 225.601L128.048 220.194C128.063 220.175 128.081 220.159 128.101 220.148C128.122 220.137 128.144 220.131 128.167 220.129L129.822 220C129.854 219.998 129.887 220.005 129.915 220.022C129.943 220.039 129.966 220.064 129.981 220.094C129.996 220.124 130.002 220.158 129.999 220.192C129.996 220.226 129.983 220.258 129.963 220.285L124.296 227.934C124.274 227.963 124.245 227.983 124.212 227.993C124.178 228.003 124.143 228.002 124.111 227.99C124.078 227.978 124.05 227.955 124.03 227.926C124.01 227.896 124 227.861 124 227.824L124.007 225.707C124.008 225.669 124.02 225.632 124.043 225.601Z" fill="#ED1D23"/>
<path d="M124.136 228.605L131.601 220.217C131.722 220.082 131.882 220.013 132.08 220.011L133.733 220C134.041 220 134.083 220.091 133.857 220.272L133.39 220.648C133.281 220.737 133.194 220.844 133.134 220.963C132.774 221.695 132.101 222.13 131.568 222.753C129.817 224.803 128.02 226.849 126.156 228.844C125.655 229.383 125.164 229.966 124.682 230.594C124.227 231.19 124 231.13 124 230.413V228.946C124 228.818 124.045 228.704 124.136 228.605Z" fill="#ED1D23"/>
<path d="M124.115 232.502L133.848 220.203C133.945 220.08 134.073 220.019 134.231 220.019L135.765 220C136.02 219.998 136.068 220.094 135.907 220.29C134.879 221.546 133.842 222.828 132.794 224.136C132.561 224.425 132.359 224.724 132.188 225.033C131.931 225.488 131.533 225.745 131.226 226.14C129.68 228.139 128.157 230.079 126.657 231.96C126.005 232.773 125.349 233.418 124.801 234.371C124.671 234.597 124.418 234.721 124.242 234.898C124.081 235.061 124 235.029 124 234.8V232.834C124 232.711 124.038 232.6 124.115 232.502Z" fill="#ED1D23"/>
<path d="M132.764 227.54C132.355 228.355 131.81 228.8 131.269 229.462C129.582 231.517 127.931 233.54 126.316 235.53C126.003 235.917 125.59 236.209 125.327 236.64C125.041 237.115 124.681 237.543 124.245 237.923C124.098 238.049 124.026 238.02 124.029 237.835C124.044 236.973 123.816 235.935 124.431 235.197C127.674 231.31 131.066 227.178 134.607 222.801C134.852 222.499 135.115 222.204 135.395 221.914C135.913 221.377 136.5 220.018 137.389 220.003C137.884 219.996 138.347 220.002 138.78 220.021C139.035 220.033 139.068 220.12 138.88 220.281C138.375 220.717 137.965 221.234 137.648 221.833C137.505 222.107 137.18 222.235 136.991 222.469C135.791 223.96 134.533 225.504 133.216 227.102C133.129 227.209 133.028 227.3 132.915 227.376C132.851 227.419 132.8 227.474 132.764 227.54Z" fill="#ED1D23"/>
<path d="M132.379 232.61C132.108 233.069 131.619 233.395 131.297 233.847C130.099 235.537 128.856 237.163 127.568 238.725C126.988 239.424 126.596 240.138 125.934 240.805C125.265 241.48 125.049 242.34 124.258 242.936C124.109 243.049 124.036 243.012 124.038 242.826C124.054 242.006 123.819 240.86 124.352 240.146C125.266 238.913 126.147 237.798 126.996 236.798C127.368 236.358 127.552 235.821 127.987 235.401C128.712 234.698 129.119 233.933 129.758 233.132C131.207 231.306 132.641 229.474 134.059 227.638C134.216 227.436 134.356 227.225 134.478 227.006C134.847 226.358 135.481 225.954 135.885 225.318C136.112 224.96 136.357 224.618 136.621 224.294C137.752 222.904 138.845 221.501 139.9 220.082C139.916 220.063 139.936 220.047 139.958 220.036C139.98 220.025 140.005 220.02 140.029 220.02L141.949 220C141.958 220 141.967 220.003 141.975 220.007C141.983 220.012 141.989 220.019 141.994 220.026C141.998 220.034 142 220.042 142 220.051C142 220.059 141.997 220.068 141.992 220.075C141.493 220.888 140.941 221.612 140.335 222.245C140.048 222.546 139.819 222.857 139.649 223.179C139.234 223.972 138.502 224.443 138.059 225.271C137.714 225.915 137.13 226.319 136.711 226.915C136.33 227.46 135.94 227.995 135.54 228.521C135.093 229.105 134.514 229.592 134.157 230.22C133.652 231.111 132.904 231.715 132.379 232.61Z" fill="#ED1D23"/>
<path d="M124.04 243.536L142.933 220.088C142.946 220.072 142.962 220.06 142.981 220.051C142.999 220.043 143.02 220.038 143.04 220.038L144.858 220C144.885 219.999 144.911 220.006 144.933 220.019C144.956 220.033 144.974 220.052 144.986 220.075C144.997 220.098 145.002 220.123 144.999 220.148C144.996 220.174 144.986 220.198 144.969 220.218L124.246 245.951C124.227 245.973 124.203 245.988 124.176 245.995C124.148 246.002 124.119 246.001 124.092 245.992C124.065 245.983 124.042 245.966 124.026 245.944C124.009 245.922 124 245.895 124 245.867L124.012 243.616C124.012 243.587 124.022 243.559 124.04 243.536Z" fill="#ED1D23"/>
<path d="M207.035 222.196C207.035 222.144 207.058 222.094 207.098 222.058C207.139 222.021 207.194 222 207.251 222L213.266 222.02C214.526 222.024 215.732 222.495 216.619 223.33C217.507 224.164 218.004 225.294 218 226.47V226.574C217.998 227.157 217.873 227.734 217.633 228.272C217.392 228.81 217.04 229.299 216.597 229.71C216.154 230.121 215.629 230.446 215.051 230.668C214.474 230.889 213.855 231.002 213.231 231L207.216 230.98C207.159 230.98 207.104 230.959 207.063 230.922C207.023 230.886 207 230.836 207 230.783L207.035 222.196Z" fill="#ED1D23"/>
<path d="M245.642 241.788C245.729 246.473 249.781 250.206 254.692 250.125C259.603 250.044 263.515 246.18 263.428 241.495C263.341 236.81 259.289 233.077 254.378 233.158C249.466 233.239 245.555 237.102 245.642 241.788Z" fill="#ED1D23"/>
<path d="M361 250C365.971 250 370 246.194 370 241.5C370 236.806 365.971 233 361 233C356.029 233 352 236.806 352 241.5C352 246.194 356.029 250 361 250Z" fill="#ED1D23"/>
<path d="M395.351 241.757C395.42 246.444 399.456 250.192 404.366 250.128C409.275 250.063 413.199 246.211 413.129 241.523C413.06 236.835 409.024 233.087 404.114 233.152C399.205 233.217 395.281 237.069 395.351 241.757Z" fill="#ED1D23"/>
<path d="M207.017 239.17C207.017 239.125 207.036 239.082 207.069 239.05C207.103 239.018 207.149 239 207.196 239L214.882 239.016C215.555 239.017 216.221 239.146 216.843 239.395C217.465 239.645 218.029 240.01 218.504 240.471C218.98 240.931 219.356 241.477 219.613 242.078C219.87 242.679 220.001 243.322 220 243.972V244.059C219.998 245.372 219.455 246.63 218.493 247.556C217.53 248.483 216.225 249.002 214.865 249L207.18 248.984C207.132 248.984 207.086 248.966 207.053 248.934C207.019 248.903 207 248.859 207 248.814L207.017 239.17Z" fill="#ED1D23"/>
<path d="M101.753 256.905C100.339 255.56 99.0458 254.633 97.3089 254.113C97.1272 254.059 97.0352 253.94 97.0328 253.755L97.0001 252.252C96.9976 252.109 97.0703 252.03 97.2181 252.016C97.8503 251.951 98.3881 252.083 98.8314 252.413C99.299 252.764 99.7859 253.085 100.292 253.376C100.932 253.744 101.222 254.341 101.804 254.773C101.935 254.869 102 254.998 102 255.16L101.993 256.811C101.993 257.026 101.913 257.058 101.753 256.905Z" fill="#ED1D23"/>
<path d="M101.77 253.975L99.0529 252.21C99.0292 252.194 99.0123 252.172 99.0046 252.148C98.9969 252.124 98.9989 252.098 99.0102 252.074C99.0215 252.051 99.0416 252.031 99.0675 252.018C99.0933 252.004 99.1237 251.998 99.154 252L101.853 252.271C101.887 252.275 101.918 252.288 101.94 252.309C101.963 252.33 101.976 252.357 101.977 252.385L102 253.88C102 253.902 101.993 253.924 101.979 253.943C101.965 253.962 101.945 253.978 101.921 253.988C101.897 253.997 101.87 254.002 101.844 253.999C101.817 253.997 101.791 253.989 101.77 253.975Z" fill="#ED1D23"/>
<path d="M104.717 252.667C104.128 252.995 103.635 253.4 103.237 253.882C103.085 254.064 103.009 254.035 103.009 253.796L103 252.207C103 252.177 103.006 252.148 103.017 252.121C103.029 252.094 103.047 252.069 103.068 252.05C103.09 252.03 103.116 252.016 103.143 252.008C103.171 252 103.2 251.998 103.228 252.002L104.642 252.225C105.093 252.295 105.118 252.442 104.717 252.667Z" fill="#ED1D23"/>
<path d="M103.104 256.99C103.098 256.995 103.092 256.998 103.084 257C103.077 257.001 103.07 257 103.063 256.996C103.056 256.993 103.051 256.988 103.047 256.981C103.043 256.974 103.041 256.966 103.042 256.959L103 254.502C103 254.401 103.035 254.316 103.104 254.248L105.278 252.157C105.408 252.032 105.561 251.982 105.735 252.006C106.781 252.145 107.759 252.391 108.669 252.741C109.109 252.908 109.11 253.082 108.673 253.263C107.407 253.789 106.283 254.212 105.179 255.184C104.531 255.749 103.84 256.351 103.104 256.99Z" fill="#ED1D23"/>
<path d="M103.319 260.875C103.115 261.079 103.012 261.033 103.012 260.735L103 259.082C102.999 258.895 103.032 258.71 103.099 258.536C103.166 258.363 103.265 258.205 103.389 258.072C104.587 256.795 105.842 255.782 107.153 255.033C107.782 254.671 108.533 254.356 109.405 254.088C109.822 253.96 110.214 253.972 110.581 254.123C111.815 254.63 112.882 255.275 113.782 256.056C114.116 256.348 114.066 256.491 113.633 256.485C111.474 256.45 109.607 256.807 108.031 257.556C106.261 258.399 104.691 259.505 103.319 260.875Z" fill="#ED1D23"/>
<path d="M101.665 260.834C100.383 259.315 98.7627 258.449 97.0803 257.584C97.0342 257.56 97.0111 257.522 97.0111 257.47L97.0002 255.05C96.9978 255.008 97.016 254.993 97.0548 255.003C98.4823 255.422 99.3854 256.374 100.569 257.18C101.075 257.525 101.323 258.089 101.752 258.531C101.915 258.701 101.998 258.907 102 259.15V260.693C102 261.048 101.888 261.095 101.665 260.834Z" fill="#ED1D23"/>
<path d="M106.456 261.168C105.19 261.993 104.167 262.872 103.387 263.806C103.129 264.113 103 264.056 103 263.634V262.04C102.999 261.779 103.046 261.521 103.138 261.282C103.231 261.044 103.366 260.829 103.536 260.653C106.518 257.53 109.995 255.979 113.968 256C114.183 256.002 114.394 256.051 114.59 256.146C114.786 256.241 114.963 256.378 115.11 256.551C115.784 257.34 116.354 258.096 116.819 258.819C117.145 259.328 117.03 259.537 116.477 259.447C113.178 258.905 109.379 259.271 106.456 261.168Z" fill="#ED1D23"/>
<path d="M97.0908 259.931C97.0424 259.904 97.017 259.855 97.0145 259.785L97 257.073C97 257.007 97.0254 256.985 97.0763 257.01C98.9925 257.903 100.586 259.286 101.858 261.157C101.95 261.292 102 261.465 102 261.643L101.996 263.783C101.996 264.013 101.922 264.06 101.775 263.924C101.324 263.515 101.128 262.906 100.685 262.516C99.5388 261.513 98.3408 260.652 97.0908 259.931Z" fill="#ED1D23"/>
<path d="M106.025 262.177C108.04 261.065 109.791 260.402 111.28 260.189C113.216 259.915 115.378 259.939 117.767 260.261C117.909 260.28 118.041 260.338 118.149 260.428C118.256 260.518 118.333 260.636 118.37 260.768L118.974 262.912C119.058 263.215 118.94 263.327 118.622 263.247C117.742 263.029 116.812 262.887 115.831 262.82C110.766 262.474 106.57 263.837 103.243 266.909C103.081 267.058 103 267.024 103 266.809L103.008 264.828C103.009 264.722 103.036 264.618 103.087 264.523C103.139 264.429 103.214 264.347 103.306 264.285C103.904 263.889 104.447 263.455 104.936 262.984C105.26 262.67 105.623 262.401 106.025 262.177Z" fill="#ED1D23"/>
<path d="M98.211 264.131C97.8774 263.999 97.5451 263.864 97.2139 263.727C97.0834 263.672 97.0181 263.57 97.0181 263.42L97 261.172C97 261.014 97.0689 260.965 97.2067 261.024C99.1258 261.886 100.707 263.117 101.949 264.717C101.985 264.763 102.002 264.818 102 264.88L101.967 266.953C101.967 266.963 101.965 266.972 101.96 266.98C101.955 266.988 101.947 266.994 101.939 266.997C101.931 267 101.922 267.001 101.913 266.999C101.905 266.996 101.897 266.991 101.891 266.984C100.508 265.501 99.2817 264.55 98.211 264.131Z" fill="#ED1D23"/>
<path d="M107.663 266.949C106.788 267.318 106.095 267.606 105.344 268.199C104.571 268.806 103.807 269.403 103.054 269.991C103.029 270.007 103.017 270.002 103.017 269.975L103 267.65C103 267.592 103.023 267.543 103.07 267.506C104.085 266.656 104.948 265.718 106.128 265.037C107.121 264.465 107.941 264.074 108.588 263.863C111.889 262.791 115.33 262.718 118.909 263.642C118.97 263.658 119 263.696 119 263.755L118.975 266.203C118.976 266.212 118.974 266.221 118.97 266.229C118.966 266.237 118.96 266.245 118.953 266.25C118.946 266.256 118.937 266.259 118.928 266.261C118.919 266.263 118.91 266.262 118.901 266.26C114.903 265.25 111.158 265.479 107.663 266.949Z" fill="#ED1D23"/>
<path d="M97.1143 266.688C97.0973 266.681 97.0864 266.666 97.0816 266.646C96.9919 266.164 96.9762 265.298 97.0343 264.05C97.0343 264.042 97.0362 264.034 97.0399 264.027C97.0436 264.019 97.0489 264.013 97.0554 264.008C97.0618 264.004 97.0693 264.001 97.077 264C97.0848 263.999 97.0926 264.001 97.0998 264.004C99.1015 264.904 100.697 266.125 101.887 267.667C101.962 267.765 102 267.877 102 268.004L101.996 269.802C101.996 270.027 101.92 270.06 101.767 269.903C101.052 269.16 100.26 268.459 99.3899 267.798C98.7174 267.288 97.8741 267.075 97.1143 266.688Z" fill="#ED1D23"/>
<path d="M111.176 269.395C109.504 269.592 108.133 270.358 106.64 271.096C105.243 271.789 104.293 273.04 103.063 273.994C103.056 273.998 103.049 274 103.042 274C103.035 274 103.028 273.998 103.022 273.995C103.016 273.991 103.01 273.986 103.007 273.979C103.003 273.972 103 273.965 103 273.957L103.021 271.417C103.024 271.353 103.044 271.298 103.083 271.252C104.804 269.287 106.518 267.939 108.224 267.208C111.479 265.815 115.004 265.627 118.798 266.644C118.962 266.687 119.026 266.799 118.99 266.979L118.536 269.322C118.5 269.505 118.398 269.582 118.231 269.551C115.974 269.157 113.623 269.105 111.176 269.395Z" fill="#ED1D23"/>
<path d="M97.417 267.043C99.1405 268.25 100.362 269.294 101.083 270.175C101.312 270.458 101.537 270.754 101.757 271.064C101.912 271.283 101.99 271.538 101.993 271.83L102 273.662C102.002 274.051 101.897 274.104 101.685 273.822C100.42 272.135 98.9882 270.951 97.388 270.271C97.1608 270.173 97.0448 269.976 97.04 269.678L97.0001 267.358C96.9989 267.296 97.0107 267.235 97.0343 267.182C97.058 267.128 97.0927 267.083 97.1349 267.051C97.1772 267.019 97.2254 267.001 97.275 267C97.3245 266.999 97.3735 267.014 97.417 267.043Z" fill="#ED1D23"/>
<path d="M107.334 273.599C105.91 274.215 104.687 274.931 103.666 275.747C103.143 276.16 102.928 276.068 103.021 275.469C103.057 275.248 103.07 275.025 103.062 274.801C103.038 274.15 103.339 273.635 103.966 273.256C104.902 272.691 105.711 271.985 106.734 271.527C110.162 270.005 113.893 269.621 117.927 270.374C117.942 270.376 117.955 270.382 117.967 270.391C117.979 270.399 117.988 270.41 117.993 270.422C117.999 270.434 118.001 270.448 117.999 270.461C117.998 270.474 117.993 270.487 117.984 270.498L116.436 272.522C116.408 272.558 116.369 272.575 116.316 272.57C113.31 272.307 109.868 272.501 107.334 273.599Z" fill="#ED1D23"/>
<path d="M98.8371 273.526C98.342 273.233 97.8384 272.953 97.3263 272.687C97.1452 272.591 97.0522 272.434 97.0474 272.215L97.0003 270.36C96.993 270.016 97.1307 269.919 97.4133 270.068C97.9712 270.364 98.5038 270.56 99.0074 270.963C99.5605 271.406 100.132 271.864 100.721 272.339C101.217 272.743 101.46 273.227 101.862 273.706C101.954 273.816 102 273.944 102 274.09V275.79C102 275.832 101.989 275.874 101.968 275.909C101.946 275.944 101.915 275.971 101.879 275.986C101.843 276.001 101.804 276.004 101.767 275.994C101.729 275.984 101.696 275.961 101.67 275.93C100.931 275.013 99.9868 274.212 98.8371 273.526Z" fill="#ED1D23"/>
<path d="M106.28 275.207C109.257 273.4 112.44 272.703 115.83 273.115C116.018 273.137 116.05 273.22 115.926 273.363C115.3 274.087 114.551 274.742 113.679 275.329C112.977 275.797 112.249 276.089 111.495 276.204C110.579 276.345 109.683 276.537 108.806 276.781C107.532 277.134 106.516 277.875 105.42 278.549C104.775 278.944 103.962 278.932 103.232 278.999C103.203 279.002 103.174 278.999 103.146 278.989C103.118 278.98 103.093 278.965 103.071 278.945C103.049 278.926 103.032 278.902 103.02 278.875C103.007 278.847 103.001 278.818 103 278.789C102.988 278.044 103.338 277.433 103.924 277.004C104.729 276.415 105.416 275.729 106.28 275.207Z" fill="#ED1D23"/>
<path d="M97.1515 276.495C97.077 276.456 97.0397 276.392 97.0397 276.304L97 274.082C96.9999 274.069 97.0027 274.056 97.0082 274.045C97.0138 274.033 97.0218 274.023 97.0317 274.015C97.0416 274.008 97.0531 274.003 97.0652 274.001C97.0772 273.999 97.0895 274 97.101 274.005C98.9284 274.779 100.451 275.89 101.667 277.338C101.799 277.496 101.896 277.673 101.956 277.87C102.064 278.235 101.974 278.552 101.685 278.822C101.569 278.93 101.422 278.993 101.268 278.999C101.115 279.006 100.964 278.955 100.841 278.856C99.7496 277.979 98.5197 277.191 97.1515 276.495Z" fill="#ED1D23"/>
<path d="M109.945 277.007C110.015 276.986 110.018 277.013 109.956 277.088C109.662 277.442 109.362 277.736 109.055 277.972C108.987 278.026 108.982 278.002 109.041 277.899C109.314 277.413 109.615 277.116 109.945 277.007Z" fill="#ED1D23"/>
<path d="M97.2696 277.025L99.9073 278.561C99.9418 278.581 99.9691 278.611 99.9849 278.649C100.001 278.686 100.004 278.727 99.9949 278.767C99.9855 278.806 99.9638 278.841 99.9331 278.867C99.9024 278.892 99.8644 278.906 99.8249 278.907L97.2846 279C97.2376 279.002 97.1916 278.985 97.1566 278.953C97.1216 278.92 97.1004 278.875 97.0975 278.827L97.0002 277.194C96.9986 277.161 97.0057 277.128 97.0207 277.099C97.0358 277.069 97.0584 277.044 97.0859 277.027C97.1135 277.01 97.1452 277 97.1775 277C97.2098 277 97.2416 277.008 97.2696 277.025Z" fill="#ED1D23"/>
<path d="M307.071 280C307.062 280 307.052 279.998 307.044 279.996C307.035 279.993 307.027 279.988 307.021 279.983C307.014 279.978 307.009 279.971 307.005 279.964C307.002 279.957 307 279.949 307 279.942V279.929C306.999 279.419 307.308 278.929 307.858 278.568C308.407 278.206 309.154 278.002 309.933 278H310.051C310.438 277.999 310.82 278.049 311.177 278.145C311.534 278.241 311.859 278.383 312.132 278.561C312.406 278.74 312.623 278.952 312.771 279.186C312.919 279.419 312.996 279.67 312.996 279.922L313 279.935C313 279.951 312.993 279.966 312.979 279.977C312.966 279.987 312.948 279.994 312.929 279.994L307.071 280Z" fill="#ED1D23"/>
<path d="M363 284C364.657 284 366 282.657 366 281C366 279.343 364.657 278 363 278C361.343 278 360 279.343 360 281C360 282.657 361.343 284 363 284Z" fill="#ED1D23"/>
</svg>
