<svg width="500" height="500" viewBox="0 0 500 500" fill="none" xmlns="http://www.w3.org/2000/svg">
<rect width="500" height="500" fill="#1E648E"/>
<path d="M292.041 130L203.911 218.13L211.02 225.24L193.37 242.89L168.585 218.13L256.69 130H130V370.025H208.009L296.139 281.895L289.029 274.785L306.68 257.134L331.44 281.895L243.31 370.025H370V130H292.041ZM218.13 331.465L168.585 281.919L250.025 200.479L274.785 225.24L257.134 242.89L250.025 235.781L203.911 281.919L235.805 313.814L218.13 331.465ZM250.025 299.57L225.264 274.785L242.915 257.134L250.025 264.244L296.139 218.13L264.244 186.235L281.895 168.585L331.44 218.13L250.025 299.57Z" fill="white"/>
</svg>
