<svg width="500" height="500" viewBox="0 0 500 500" fill="none" xmlns="http://www.w3.org/2000/svg">
<rect width="500" height="500" fill="#007AFE"/>
<path d="M90.1823 271C89.4261 269.723 88.4415 268.232 87.8501 267.069C85.1278 261.717 82.9862 256.104 82.2451 249.864C81.2136 241.198 83.4944 233.574 88.0195 226.861C96.4286 214.386 107.551 208.332 121.114 208.443C129.047 208.509 136.981 208.857 144.914 208.818C152.461 208.779 159.315 206.068 165.401 200.752C174.144 193.116 183.323 186.351 193.532 181.622C202.511 177.462 211.766 174.564 221.293 172.737C240.954 168.965 260.741 169.891 280.493 170.848C295.33 171.566 310.051 174.014 324.68 176.964C337.577 179.567 350.405 182.695 363.326 185.244C366.691 185.909 370.263 185.514 373.708 185.166C382.577 184.282 391.404 182.989 399.941 179.818C401.035 179.434 402.101 178.95 403.13 178.37C405.085 177.218 406.98 175.95 407.72 173.064C407.742 172.982 407.78 172.906 407.83 172.844C407.881 172.781 407.944 172.733 408.013 172.703C408.083 172.673 408.157 172.663 408.23 172.672C408.304 172.681 408.374 172.71 408.437 172.756C408.936 173.122 409.376 173.419 409.663 173.853C411.756 177.008 414.085 180.021 415.755 183.466C418.34 188.793 419.028 194.523 416.02 200.034C414.217 203.336 411.28 205.14 408.331 206.793C407.627 207.19 406.879 207.471 406.169 207.855C402.348 209.903 398.638 209.895 394.488 208.527C378.451 203.215 361.928 200.17 345.272 199.458C331.944 198.892 318.686 199.613 305.569 202.372C287.584 206.157 270.632 213.233 255.275 225.052C253.474 226.438 252.993 226.265 252.757 224.091C251.698 214.365 253.291 205.345 258.3 197.335C262.299 190.949 268.013 187.432 274.18 184.768C275.626 184.144 277.122 183.673 278.638 182.623C277.73 182.28 276.823 181.847 275.896 181.606C264.25 178.61 252.556 178.552 240.789 180.709C230.158 182.655 220.143 186.611 210.772 192.735C200.598 199.389 191.867 208.06 184.217 218.363C180.773 223 176.849 227.257 172.723 231.074C165.773 237.506 158.214 237.603 150.419 232.842C145.632 229.922 140.85 226.873 135.815 224.659C126.506 220.569 117.344 222.22 108.548 227.135C100.424 231.67 94.6213 238.76 91.7204 248.846C89.9055 255.166 90.0341 261.71 90.2882 268.253C90.2935 268.765 90.2753 269.277 90.2337 269.787C90.1717 270.952 90.2383 270.358 90.1823 271Z" fill="white"/>
<path d="M356.41 220.074C345.302 219.693 334.383 221.075 323.906 225.741C314.185 230.067 306.35 237.138 301.715 248.488C298.704 255.856 293.645 260.023 287.273 262.319C278.551 265.46 269.618 265.306 260.679 264.525C244.892 263.146 229.702 258.255 214.566 253.116C211.586 252.104 208.651 250.921 205.698 249.8C204.664 249.409 203.749 248.792 204.063 247.249C204.376 245.706 205.425 245.681 206.503 245.862C212.813 246.918 219.112 248.086 225.436 249.003C235.082 250.387 244.801 250.901 254.512 250.542C260.299 250.338 266.042 249.809 271.65 247.861C277.077 245.967 281.298 242.564 284.244 236.527C288.257 228.284 294.56 222.905 301.688 218.862C313.46 212.185 325.978 210.541 338.818 211.102C347.426 211.481 355.874 213.199 364.203 215.775C364.548 215.882 365 216.08 365.194 216.357C365.387 216.635 365.549 216.715 365.71 217.006C365.845 217.241 365.936 217.507 365.977 217.788C366.017 218.069 366.005 218.356 365.942 218.631C365.879 218.906 365.767 219.161 365.613 219.378C365.459 219.596 365.267 219.77 365.05 219.89C364.922 219.961 364.783 220.003 364.642 220.015C361.897 220.165 359.154 220.074 356.41 220.074Z" fill="white"/>
<path d="M181.999 275.512C181.957 277.972 180.808 282.266 178.702 286.218C178.111 287.326 177.442 288.339 176.121 287.892C174.849 287.457 174.371 286.335 174.274 284.876C173.784 277.462 171.469 270.962 166.955 265.713C159.229 256.729 149.765 253.116 139.051 253.789C136.628 253.941 134.23 254.652 131.821 255.11C131.586 255.155 131.821 255.11 131.129 255.286C130.145 255.527 128.759 254.809 128.415 254.04C128.084 253.308 127.372 252.555 129.22 250.846C131.708 248.702 134.251 246.482 137.05 245.024C151.2 237.659 169.817 244.241 178.354 259.412C180.596 263.378 182.033 268.838 181.999 275.512Z" fill="white"/>
<path d="M377.999 273.423C378.038 277.998 376.842 282.142 374.87 286.016C374.267 287.194 373.627 288.331 372.2 287.911C370.641 287.452 370.213 286.062 370.129 284.401C369.9 279.896 368.76 275.52 366.804 271.636C363.548 265.067 358.723 260.572 352.93 257.514C344.726 253.183 336.221 252.457 327.506 255.134C326.257 255.519 324.844 255.666 324.208 253.998C323.554 252.28 324.552 251.087 325.647 250.102C334.313 242.247 343.986 240.303 354.482 243.409C362.48 245.774 369.114 250.628 373.894 258.637C376.532 263.053 377.969 267.985 377.999 273.423Z" fill="white"/>
<path d="M386.776 223.009C388.402 223.208 390.028 223.565 391.662 223.573C396.804 223.6 401.948 223.499 407.091 223.438C407.701 223.438 408.312 223.293 408.904 223.354C410.868 223.554 411.619 225.41 410.431 227.184C409.847 228.054 409.108 228.796 408.446 229.602C400.267 239.547 394.215 250.88 391.066 264.115C390.747 265.457 390.456 266.974 388.903 267C387.35 267.026 386.765 265.678 386.365 264.214C386.212 263.621 386.099 262.996 385.892 262.43C384.548 258.736 383.328 254.972 381.786 251.386C380.035 247.313 377.396 243.955 374.393 240.981C372.457 239.067 372.517 237.152 374.712 235.696C378.552 233.164 381.583 229.842 383.357 225.128C383.985 223.427 385.26 222.922 386.776 223.009Z" fill="white"/>
<path d="M292.616 318.178C294.727 320.477 296.043 324.046 299.87 323.489C301.646 323.231 302.025 324.11 301.999 326.702C301.981 328.556 301.189 328.828 299.763 328.957C296.321 329.284 293.802 327.743 291.651 324.71C290.153 322.603 288.394 320.751 286.7 318.835C286.251 318.299 285.707 317.884 285.106 317.621C283.375 316.963 282.737 317.547 282.708 319.702C282.678 322.041 282.657 324.384 282.687 326.722C282.706 328.282 282.175 329.062 280.795 328.913C279.503 328.775 277.991 329.206 278.009 326.645C278.062 318.733 278.028 310.821 278 302.908C278 301.603 278.471 300.989 279.566 301.001C285.386 301.022 291.208 300.944 297.025 301.107C299.852 301.185 301.686 303.475 301.873 306.8C301.973 308.654 301.942 310.515 301.781 312.364C301.513 315.508 299.666 317.422 296.948 317.521C295.566 317.569 294.182 317.521 292.802 317.521L292.616 318.178ZM289.984 312.159C291.685 312.159 293.389 312.052 295.087 312.191C296.683 312.322 297.429 311.705 297.226 309.763C297.178 309.285 297.169 308.803 297.201 308.324C297.291 306.95 296.81 306.29 295.593 306.29C291.78 306.29 287.966 306.25 284.153 306.208C283.137 306.196 282.622 306.711 282.638 307.928C282.647 308.683 282.638 309.44 282.604 310.193C282.54 311.511 283.063 312.064 284.175 312.045" fill="white"/>
<path d="M385.553 301.013C388.592 301.013 391.631 300.975 394.67 301.027C396.565 301.058 396.963 301.793 396.98 304.357C396.993 306.284 396.063 306.567 394.552 306.527C389.172 306.387 383.791 306.342 378.41 306.289C376.203 306.266 376.204 306.424 376.096 309.796C376.035 311.666 376.706 312.108 378.327 312.084C383.585 312.005 388.836 312.069 394.091 312.11C396.686 312.129 397.004 312.53 396.912 315.379C396.842 317.567 396.593 317.698 394.079 317.653C388.697 317.555 383.316 317.555 377.935 317.46C376.628 317.437 376.164 318.004 376.11 319.397C375.959 323.322 375.917 323.345 379.603 323.357C384.605 323.373 389.607 323.329 394.609 323.343C396.657 323.343 396.974 323.882 397 326.49C397.019 328.321 396.37 329.037 394.627 328.999C388.866 328.869 383.104 328.895 377.344 328.826C373.071 328.769 371.04 326.607 371.011 321.987C370.98 316.979 371.015 311.972 371.114 306.964C371.181 303.265 373.176 301.181 376.626 301.065C378.145 301.015 379.665 301.041 381.185 301.038C382.642 301.038 384.098 301.038 385.555 301.038L385.553 301.013Z" fill="white"/>
<path d="M171.162 317.524C172.19 320.601 175.476 323.347 177.937 323.418C180.484 323.49 181.504 324.978 180.765 327.784C180.632 328.29 179.859 328.869 179.349 328.911C175.841 329.207 172.698 328.507 170.338 325.002C168.842 322.78 166.925 320.913 165.137 318.958C164.591 318.361 163.893 317.812 163.177 317.571C161.426 316.989 160.852 317.571 160.871 319.651C160.892 322.057 160.88 324.465 160.945 326.87C160.99 328.467 160.433 329.094 158.996 328.989C156.041 328.769 155.989 328.71 156.001 325.376C156.027 318.223 156.009 311.069 156.001 303.917C156.001 301.205 156.154 300.997 158.578 301C163.848 301.01 169.119 301 174.39 301.068C178.697 301.123 180.535 303.26 180.6 308.174C180.62 309.617 180.652 311.073 180.52 312.508C180.234 315.574 178.384 317.448 175.655 317.519C174.216 317.554 172.78 317.524 171.162 317.524ZM162.91 306.226C161.29 306.105 160.686 306.855 160.82 308.61C160.867 309.223 160.785 309.899 160.863 310.436C160.964 311.13 160.471 312.052 162.277 312.007C166.266 312.158 170.262 312.127 174.256 312.147C175.282 312.147 175.836 311.612 175.816 310.395C175.806 309.702 175.8 309.019 175.845 308.336C175.94 306.939 175.388 306.304 174.167 306.32C172.17 306.346 170.173 306.32 168.176 306.32" fill="white"/>
<path d="M194.332 328.972C191.518 328.972 188.702 328.913 185.891 328.998C184.545 329.038 183.869 328.527 184.021 326.873C184.16 325.374 183.453 323.355 185.855 323.395C190.78 323.471 195.706 323.459 200.629 323.395C201.425 323.383 202.796 323.07 202.903 322.59C203.215 321.181 203.1 319.607 202.96 318.125C202.935 317.866 201.971 317.574 201.439 317.567C197.628 317.517 193.817 317.548 190.006 317.534C185.97 317.519 184.238 315.533 184.111 310.766C184.073 309.317 184.043 307.864 184.111 306.418C184.259 303.358 185.99 301.13 188.581 301.078C194.442 300.958 200.305 301.001 206.168 301.045C207.586 301.055 208.062 302.193 207.994 304.554C207.947 306.171 207.185 306.448 206.024 306.427C200.983 306.333 195.941 306.271 190.899 306.239C188.751 306.222 188.748 306.297 188.696 309.21C188.665 310.962 188.74 312.228 190.799 312.126C194.544 311.942 198.301 312.06 202.053 312.126C205.804 312.192 207.874 314.658 207.955 319.103C207.977 320.344 207.974 321.587 207.945 322.83C207.851 326.737 205.777 329.033 202.42 328.975C201.072 328.952 199.724 328.935 198.377 328.925C197.028 328.925 195.679 328.925 194.33 328.925L194.332 328.972Z" fill="white"/>
<path d="M342.983 317.172C342.983 320.335 342.954 323.501 342.995 326.664C343.015 328.137 342.687 328.993 341.154 328.989C338.561 328.989 338.169 328.816 338.11 326.712C338.046 324.376 338.056 322.033 338.124 319.699C338.171 318.113 337.633 317.495 336.19 317.514C332.267 317.566 328.342 317.514 324.419 317.455C323.266 317.436 322.923 318.028 322.94 319.208C322.979 321.752 322.94 324.298 322.977 326.833C323.011 328.79 321.975 329.052 320.569 328.993C319.213 328.934 317.997 329.005 318.017 326.792C318.072 320.259 317.96 313.724 318.017 307.19C318.057 303.135 319.934 301.09 323.502 301.047C327.918 300.993 332.335 300.976 336.749 301.047C340.951 301.115 342.855 303.326 342.989 308.083C342.997 308.358 343 308.634 343 308.908C343 311.66 343 314.412 343 317.164L342.983 317.172ZM330.632 306.315V306.324C328.917 306.324 327.2 306.336 325.485 306.324C322.874 306.3 322.872 306.291 322.829 309.305C322.829 309.717 322.86 310.171 322.857 310.518C322.857 311.278 322.65 311.998 324.154 312.041C328.322 312.157 332.491 312.186 336.651 312.067C337.15 312.053 338.178 312.24 338.063 310.45C338.163 309.332 338.09 309.098 338.135 308.414C338.231 306.941 337.695 306.256 336.332 306.3C334.433 306.36 332.539 306.315 330.632 306.315Z" fill="white"/>
<path d="M129.248 316.776C129.248 313.549 129.208 310.32 129.259 307.085C129.32 303.239 131.205 301.105 134.631 301.057C139.082 300.994 143.533 300.975 147.984 301.041C152.064 301.1 153.97 303.324 153.994 307.977C154.02 314.227 153.945 320.477 153.994 326.728C154.008 328.491 153.321 329.053 151.89 328.951C150.589 328.858 149.045 329.297 149.097 326.861C149.147 324.457 149.097 322.052 149.129 319.648C149.152 318.229 148.733 317.492 147.339 317.508C143.438 317.552 139.536 317.535 135.635 317.459C134.37 317.435 134.063 318.126 134.089 319.363C134.141 321.836 134.089 324.312 134.2 326.779C134.315 329.334 132.818 328.986 131.395 328.982C129.973 328.979 128.912 328.835 129.006 326.663M141.407 312.128C143.298 312.128 145.195 312.028 147.086 312.156C149.333 312.308 149.061 310.598 149.152 309.015C149.249 307.319 148.931 306.246 147.104 306.289C143.812 306.373 140.515 306.317 137.222 306.27C133.999 306.227 133.999 306.201 134.068 309.885C134.068 310.091 134.083 310.297 134.08 310.503C134.063 311.638 134.563 312.083 135.556 312.06" fill="white"/>
<path d="M263.22 328.948C260.808 328.948 258.385 328.948 255.981 328.797C252.941 328.6 251.169 326.572 251.092 322.985C250.964 317.533 250.975 312.07 251.092 306.618C251.169 303.171 253.018 301.132 255.97 301.075C260.498 300.986 265.03 300.965 269.558 301.075C273.004 301.156 274.868 303.397 274.933 307.468C275.016 312.575 275.022 317.687 274.951 322.804C274.897 327.094 273.016 329.088 269.393 328.997M255.739 314.72C255.739 316.933 255.765 319.146 255.729 321.357C255.707 322.79 256.123 323.528 257.464 323.509C261.055 323.455 264.649 323.445 268.241 323.525C269.87 323.561 270.396 322.708 270.376 320.901C270.333 316.821 270.343 312.738 270.426 308.661C270.462 306.92 269.851 306.34 268.439 306.355C264.785 306.397 261.134 306.382 257.486 306.308C256.242 306.284 255.799 306.907 255.821 308.288" fill="white"/>
<path d="M353.838 323.459H362.488C363.708 323.459 364.928 323.443 366.141 323.449C368.479 323.457 369.627 325.477 368.651 328.068C368.467 328.559 367.672 329 367.16 329C360.945 329 354.732 328.91 348.518 328.827C347.301 328.809 345.998 328.905 345.434 327.173C344.87 325.442 345.726 324.292 346.667 323.194C350.589 318.589 354.508 313.983 358.426 309.374C359.062 308.623 359.64 307.802 360.568 306.598C359.491 306.487 358.898 306.376 358.305 306.371C354.531 306.34 350.755 306.271 346.981 306.338C344.893 306.376 345.108 304.708 345.01 303.12C344.892 301.212 345.844 300.992 347.099 301C353.081 301.042 359.065 301.04 365.047 301.082C366.39 301.092 367.836 301.071 368.38 302.981C368.875 304.716 367.912 305.757 366.962 306.862C362.779 311.74 358.643 316.676 354.5 321.608C354.185 321.981 353.395 322.932 353.119 323.343C352.988 323.478 353.138 323.443 353.838 323.459Z" fill="white"/>
<path d="M237.411 301.035C240.244 301.035 243.079 301.003 245.914 301.047C247.724 301.074 247.978 301.594 247.994 304.15C248.006 305.872 247.384 306.407 245.953 306.367C240.935 306.252 235.915 306.258 230.896 306.211C228.783 306.19 228.743 306.343 228.616 309.401C228.538 311.311 228.989 312.141 230.768 312.108C235.671 312.019 240.574 312.108 245.477 312.137C246.76 312.137 247.77 312.424 247.929 314.32C248.158 317.072 247.947 317.48 245.592 317.482C240.574 317.482 235.557 317.508 230.539 317.419C229.202 317.397 228.732 317.982 228.756 319.459C228.796 321.941 228.756 324.424 228.78 326.907C228.796 328.541 228.086 329.124 226.772 328.978C225.536 328.841 224.024 329.307 224.031 326.87C224.052 320.251 223.942 313.63 224.044 307.013C224.107 302.934 225.915 301.061 229.441 301.015C232.098 300.981 234.756 301.015 237.414 301.015L237.411 301.035Z" fill="white"/>
<path d="M116.231 328.906C113.402 328.906 110.572 328.944 107.742 328.906C104.06 328.845 102.024 326.56 102.013 322.47C101.991 317.293 101.997 312.115 102.03 306.936C102.055 303.325 103.933 301.09 107.176 301.045C113.08 300.965 118.986 301.007 124.892 301.054C126.668 301.068 126.983 301.749 127 304.272C127.012 306.107 126.176 306.411 124.782 306.39C119.431 306.317 114.079 306.364 108.729 306.296C107.475 306.281 106.95 306.734 106.957 308.194C106.982 312.612 106.957 317.03 106.883 321.448C106.858 322.973 107.402 323.498 108.741 323.485C113.969 323.427 119.197 323.431 124.426 323.497C125.2 323.507 126.501 323.808 126.651 324.314C127.017 325.547 126.961 326.996 126.816 328.315C126.778 328.631 125.698 328.984 125.091 329" fill="white"/>
</svg>
