<svg width="500" height="500" viewBox="0 0 500 500" fill="none" xmlns="http://www.w3.org/2000/svg">
<rect width="500" height="500" fill="#F0F0F0"/>
<path d="M196.615 219.137C197.871 217.918 198.578 217.087 198.758 216.653C198.99 216.055 199.316 215.74 199.744 215.74C200.173 215.74 200.452 216.196 200.499 217.11L201.266 230.192C201.291 230.65 201.264 231.11 201.185 231.562C201.129 231.726 200.966 231.804 200.687 231.804C200.327 231.804 199.929 231.269 199.521 230.201C198.185 226.458 196.036 223.104 193.25 220.416C190.543 217.871 187.611 216.598 184.453 216.598C181.662 216.602 178.959 217.642 176.81 219.539C174.486 221.49 172.686 224.283 171.408 227.918C170.102 231.658 169.448 235.621 169.479 239.612C169.479 246.692 171.257 252.45 174.812 256.886C178.367 261.321 182.337 263.533 186.721 263.52C189.71 263.517 192.608 262.425 194.934 260.424C197.308 258.524 199.243 256.073 200.593 253.256C200.94 252.502 201.287 252.132 201.648 252.132C202.149 252.132 202.406 252.429 202.406 253.045C202.406 253.772 201.549 255.329 199.813 257.781C198.006 260.289 195.681 262.32 193.018 263.717C190.215 265.233 187.113 266.015 183.969 266C180.158 265.989 176.42 264.885 173.149 262.803C169.74 260.708 166.926 257.671 165.004 254.014C163.003 250.284 162.003 245.899 162.003 240.858C161.94 236.226 162.941 231.647 164.918 227.52C166.765 223.668 169.613 220.463 173.123 218.288C176.418 216.164 180.19 215.028 184.041 215C186.126 215.008 188.197 215.351 190.185 216.018C192.437 216.781 194.596 217.828 196.615 219.137ZM225.204 260.114C224.21 261.773 222.844 263.143 221.23 264.1C219.623 265.002 217.829 265.459 216.013 265.429C213.724 265.429 211.936 264.753 210.633 263.415C209.981 262.722 209.47 261.892 209.135 260.978C208.799 260.064 208.645 259.086 208.682 258.105C208.676 256.49 209.082 254.904 209.857 253.516C210.48 252.262 211.401 251.204 212.528 250.447C214.229 249.506 216.002 248.718 217.826 248.091C221.441 246.779 223.609 245.683 224.329 244.804C225.077 243.859 225.464 242.65 225.414 241.415C225.414 239.201 224.934 237.479 223.995 236.246C223.056 235.014 221.706 234.42 219.961 234.42C218.546 234.42 217.475 234.767 216.754 235.466C216.034 236.164 215.468 237.607 215.095 239.694C214.687 241.986 213.792 243.132 212.412 243.132C211.789 243.078 211.204 242.79 210.761 242.32C210.454 242.011 210.214 241.634 210.059 241.216C209.905 240.798 209.838 240.348 209.865 239.899C209.865 238.036 210.807 236.414 212.691 235.032C214.574 233.65 217.16 232.962 220.45 232.968C223.065 232.968 225.144 233.379 226.691 234.178C228.239 234.977 229.221 235.913 229.619 236.954C230.018 237.995 230.219 240 230.219 242.982L230.014 252.813C230.014 256.612 230.219 259.31 230.652 260.904C231.085 262.498 231.87 263.31 233.023 263.31C233.349 263.303 233.674 263.274 233.996 263.224L234.579 263.155C235.115 263.155 235.381 263.361 235.381 263.781C235.381 264.733 233.114 265.213 228.582 265.219C227.27 265.219 226.387 264.89 225.945 264.242C225.504 263.593 225.251 262.214 225.204 260.132V260.114ZM225.178 245.557C224.492 246.525 222.959 247.705 220.578 249.096C218.208 250.466 216.502 251.721 215.468 252.945C214.435 254.176 213.877 255.778 213.908 257.429C213.874 258.879 214.33 260.294 215.194 261.415C215.565 261.931 216.044 262.348 216.592 262.633C217.14 262.919 217.743 263.064 218.353 263.059C219.686 263.048 220.981 262.584 222.049 261.735C223.181 260.882 224.071 259.712 224.621 258.356C225.165 256.986 225.448 254.959 225.448 252.269C225.448 250.256 225.362 248.014 225.212 245.557H225.178ZM261.989 255.045C262.005 256.431 261.753 257.805 261.25 259.083C260.748 260.361 260.004 261.515 259.066 262.475C258.172 263.47 257.097 264.26 255.905 264.794C254.713 265.328 253.431 265.596 252.138 265.58C250.546 265.58 248.653 265.015 246.458 263.886C245.262 263.287 244.542 262.972 244.315 262.972C244.091 262.997 243.877 263.086 243.698 263.23C243.518 263.374 243.378 263.567 243.294 263.79C242.934 264.516 242.596 264.886 242.27 264.886C241.944 264.886 241.841 264.525 241.773 263.813C241.704 263.1 241.657 261.47 241.631 258.95C241.597 256.772 241.55 255.356 241.494 254.73C241.494 253.817 241.712 253.361 242.154 253.361C242.411 253.361 242.608 253.603 242.75 254.073C243.527 256.724 244.79 259.184 246.467 261.31C248.056 263.295 249.926 264.289 252.078 264.292C253.551 264.308 254.981 263.76 256.108 262.749C256.686 262.243 257.147 261.601 257.453 260.874C257.759 260.146 257.904 259.353 257.874 258.557C257.874 255.817 255.713 253.397 251.392 251.297C249.361 250.344 247.379 249.278 245.455 248.1C244.457 247.427 243.647 246.481 243.11 245.361C242.539 244.212 242.244 242.93 242.253 241.63C242.23 240.415 242.456 239.209 242.915 238.097C243.374 236.984 244.055 235.991 244.91 235.187C246.656 233.464 248.962 232.533 251.341 232.589C253.21 232.589 255.255 233.225 257.475 234.498C257.769 234.68 258.1 234.785 258.44 234.804C258.658 234.804 258.916 234.589 259.181 234.169C259.447 233.749 259.657 233.58 259.807 233.58C259.902 233.578 259.995 233.603 260.077 233.653C260.16 233.703 260.228 233.775 260.275 233.863C260.377 234.05 260.506 235.16 260.648 237.173C260.789 239.187 260.853 240.854 260.853 242.155C260.853 242.954 260.656 243.361 260.275 243.361C259.893 243.361 259.67 243.009 259.46 242.278C259.004 240.96 258.457 239.679 257.822 238.447C256.917 236.548 255.925 235.33 254.847 234.794C253.852 234.293 252.767 234.029 251.667 234.018C250.227 233.951 248.808 234.408 247.645 235.315C247.147 235.706 246.744 236.22 246.471 236.812C246.198 237.404 246.062 238.057 246.077 238.717C246.066 239.55 246.293 240.367 246.728 241.059C247.058 241.641 247.465 242.168 247.937 242.625C248.306 242.972 250.466 244.132 254.419 246.077C256.871 247.288 258.474 248.233 259.25 248.895C260.071 249.616 260.734 250.52 261.192 251.543C261.705 252.63 261.97 253.829 261.968 255.045H261.989ZM286.823 260.114C285.831 261.773 284.467 263.143 282.853 264.1C281.246 265.002 279.452 265.459 277.636 265.429C275.347 265.429 273.555 264.753 272.256 263.415C271.603 262.723 271.093 261.893 270.757 260.979C270.421 260.064 270.267 259.086 270.306 258.105C270.3 256.491 270.705 254.905 271.476 253.516C272.102 252.263 273.024 251.205 274.151 250.447C275.852 249.507 277.622 248.719 279.445 248.091C283.061 246.779 285.23 245.683 285.953 244.804C286.699 243.858 287.085 242.649 287.033 241.415C287.033 239.201 286.557 237.479 285.618 236.246C284.68 235.014 283.329 234.42 281.584 234.42C280.156 234.42 279.087 234.769 278.378 235.466C277.658 236.192 277.092 237.607 276.715 239.694C276.312 241.986 275.419 243.132 274.035 243.132C273.412 243.078 272.827 242.79 272.385 242.32C272.078 242.011 271.838 241.634 271.683 241.216C271.528 240.798 271.462 240.348 271.489 239.899C271.489 238.036 272.431 236.414 274.314 235.032C276.197 233.65 278.784 232.962 282.073 232.968C284.688 232.968 286.767 233.379 288.311 234.178C289.854 234.977 290.844 235.913 291.238 236.954C291.633 237.995 291.843 240 291.843 242.982L291.633 252.813C291.633 256.612 291.846 259.309 292.272 260.904C292.697 262.499 293.488 263.301 294.642 263.31C294.969 263.303 295.296 263.274 295.62 263.224L296.203 263.155C296.734 263.155 297 263.361 297 263.781C297 264.733 294.735 265.213 290.205 265.219C288.894 265.219 288.01 264.89 287.569 264.242C287.127 263.593 286.87 262.214 286.823 260.132V260.114ZM286.823 245.557C286.137 246.525 284.604 247.705 282.223 249.096C279.853 250.466 278.146 251.721 277.109 252.945C276.078 254.177 275.523 255.779 275.553 257.429C275.519 258.879 275.975 260.294 276.839 261.415C277.21 261.931 277.688 262.349 278.237 262.634C278.785 262.919 279.388 263.065 279.998 263.059C281.331 263.048 282.626 262.584 283.694 261.735C284.826 260.882 285.716 259.712 286.266 258.356C286.81 256.986 287.089 254.959 287.089 252.269C287.089 250.256 287.007 248.014 286.857 245.557H286.823Z" fill="#F58220"/>
<path d="M309.054 230.051C310.126 228.791 311.393 227.735 312.8 226.928C313.99 226.263 315.312 225.909 316.657 225.895C317.664 225.911 318.66 226.113 319.601 226.491C320.634 226.883 321.744 227.793 322.974 229.245C324.093 228.197 325.366 227.35 326.741 226.737C328.003 226.184 329.354 225.898 330.719 225.895C333.041 225.895 334.751 226.555 335.836 227.875C336.92 229.195 337.443 231.207 337.443 233.837L337.314 242.895C337.314 245.453 337.434 246.919 337.67 247.301C337.906 247.683 338.553 247.961 339.62 248.125C340.216 248.234 340.511 248.471 340.511 248.835C340.511 249.386 340.16 249.659 339.461 249.659C339.292 249.657 339.123 249.645 338.956 249.622C337.399 249.46 335.836 249.381 334.271 249.386C333.354 249.386 332.244 249.44 330.954 249.558C330.157 249.622 329.694 249.659 329.57 249.659C328.713 249.659 328.284 249.404 328.284 248.899C328.284 248.393 328.563 248.198 329.12 248.125C330.084 247.979 330.676 247.806 330.894 247.588C331.113 247.369 331.289 246.545 331.413 245.112C331.537 243.678 331.584 241.243 331.584 237.829C331.624 235.684 331.548 233.538 331.357 231.402C331.275 230.421 330.912 229.49 330.316 228.735C330.055 228.44 329.74 228.207 329.389 228.05C329.038 227.893 328.66 227.817 328.28 227.825C327.469 227.855 326.688 228.159 326.051 228.694C325.15 229.432 324.366 230.319 323.729 231.32C323.194 234.088 322.929 238.066 322.931 243.255C322.931 245.458 323.081 246.787 323.386 247.251C323.69 247.715 324.393 248.011 325.473 248.138C326.12 248.211 326.446 248.439 326.446 248.839C326.446 249.399 326.017 249.672 325.211 249.672C325.027 249.672 324.376 249.636 323.236 249.554C321.693 249.454 320.591 249.399 319.936 249.399C318.826 249.399 317.514 249.472 315.997 249.609C315.697 249.646 315.395 249.668 315.093 249.672C314.343 249.672 313.97 249.417 313.97 248.903C313.97 248.389 314.334 248.193 315.059 248.138C315.503 248.128 315.93 247.951 316.264 247.638C316.598 247.326 316.818 246.899 316.884 246.432C317.141 245.362 317.27 241.643 317.27 235.244C317.27 232.616 317.049 230.796 316.606 229.782C316.43 229.326 316.125 228.938 315.734 228.673C315.343 228.407 314.884 228.276 314.42 228.298C312.676 228.298 311.304 229.263 310.289 231.188C309.273 233.114 308.776 236.846 308.776 242.385C308.776 244.984 308.934 246.582 309.251 247.155C309.569 247.729 310.151 248.066 311.013 248.116C311.651 248.152 311.977 248.38 311.977 248.798C311.977 249.363 311.626 249.65 310.927 249.65C310.69 249.639 310.453 249.609 310.22 249.558C308.71 249.41 307.193 249.349 305.677 249.376C304.2 249.356 302.724 249.426 301.254 249.586C300.95 249.624 300.644 249.645 300.337 249.65C299.78 249.65 299.48 249.395 299.48 248.88C299.48 248.366 299.797 248.152 300.436 248.116C301.456 248.061 302.086 247.879 302.33 247.551C302.574 247.224 302.759 246.327 302.861 244.857C302.964 243.387 303.046 240.606 303.046 236.527C303.046 233.341 303.011 231.352 302.934 230.542C302.914 230.188 302.828 229.842 302.681 229.524C302.534 229.206 302.329 228.923 302.077 228.69C301.495 228.231 300.783 227.995 300.059 228.021C299.351 228.021 299 227.766 299 227.292C299 226.819 299.351 226.582 300.05 226.546C300.959 226.491 302.296 226.364 304.07 226.168C305.844 225.972 307.379 225.886 308.673 225.886C308.927 226.717 309.034 227.59 308.99 228.462C308.99 228.763 308.99 229.29 309.016 230.041L309.054 230.051ZM355.769 216.851C355.775 217.362 355.681 217.869 355.493 218.339C355.304 218.809 355.026 219.232 354.676 219.582C354.336 219.949 353.93 220.239 353.483 220.436C353.035 220.632 352.554 220.73 352.07 220.725C351.583 220.731 351.1 220.633 350.649 220.437C350.198 220.241 349.79 219.95 349.447 219.582C349.107 219.225 348.837 218.8 348.653 218.331C348.469 217.862 348.374 217.359 348.374 216.851C348.374 216.343 348.469 215.84 348.653 215.372C348.837 214.903 349.107 214.477 349.447 214.12C349.792 213.757 350.202 213.471 350.652 213.279C351.102 213.087 351.585 212.992 352.07 213.001C352.553 212.993 353.032 213.088 353.48 213.28C353.927 213.473 354.334 213.758 354.676 214.12C355.025 214.471 355.303 214.894 355.491 215.364C355.679 215.834 355.774 216.34 355.769 216.851ZM356.133 225.854C356.201 228.357 356.237 232.813 356.24 239.222L356.159 244.98C356.159 246.14 356.343 246.914 356.711 247.31C357.223 247.763 357.856 248.033 358.52 248.084C359.48 248.211 359.96 248.493 359.96 248.939C359.96 249.386 359.583 249.672 358.833 249.672C358.473 249.672 357.856 249.645 356.964 249.59C355.084 249.463 353.227 249.399 351.393 249.399C350.484 249.399 349.567 249.454 348.624 249.554C348.242 249.617 347.858 249.657 347.471 249.672C346.717 249.672 346.344 249.436 346.344 248.958C346.344 248.48 346.841 248.229 347.836 248.138C349.156 248.011 349.889 247.556 350.047 246.773C350.243 245.177 350.319 243.566 350.274 241.957C350.274 238.817 350.229 235.934 350.137 233.31C350.046 230.685 349.867 229.175 349.601 228.781C349.34 228.407 348.676 228.162 347.591 228.03C346.734 227.939 346.336 227.684 346.336 227.247C346.336 226.81 346.764 226.573 347.621 226.5L348.157 226.446L356.133 225.854ZM378.847 246.85C377.899 247.815 376.813 248.612 375.629 249.213C374.61 249.723 373.498 249.992 372.371 250C370.623 250 369.269 249.454 368.317 248.348C367.369 247.257 366.859 245.817 366.894 244.333C366.88 243.182 367.178 242.051 367.751 241.074C368.288 240.161 369.023 239.398 369.894 238.849C371.218 238.089 372.602 237.452 374.03 236.946C375.165 236.565 376.268 236.083 377.326 235.503C377.909 235.135 378.397 234.617 378.744 233.997C379.148 233.202 379.342 232.305 379.306 231.402C379.353 230.389 379.048 229.393 378.449 228.603C378.161 228.251 377.802 227.973 377.398 227.791C376.993 227.608 376.556 227.527 376.117 227.552C375.26 227.552 374.656 227.77 374.3 228.221C373.865 228.877 373.583 229.634 373.477 230.428C373.083 232.454 372.041 233.464 370.34 233.464C369.692 233.482 369.06 233.252 368.557 232.818C368.31 232.596 368.114 232.316 367.985 232C367.857 231.684 367.799 231.341 367.816 230.997C367.816 229.281 368.707 227.993 370.49 227.147C372.511 226.251 374.687 225.818 376.876 225.877C379.019 225.877 380.733 226.214 382.083 226.901C383.433 227.588 384.277 228.371 384.654 229.263C385.031 230.155 385.224 231.539 385.224 233.451L385.173 239.823C385.173 243.168 385.276 245.321 385.494 246.272C385.713 247.224 386.159 247.651 386.857 247.651C386.951 247.651 387.093 247.651 387.26 247.624C387.599 247.588 387.834 247.569 387.95 247.569C388.649 247.569 389 247.77 389 248.179C388.991 248.322 388.946 248.459 388.871 248.577C388.796 248.696 388.692 248.791 388.571 248.853C387.73 249.2 386.852 249.437 385.957 249.558C384.662 249.823 383.346 249.963 382.027 249.977C380.853 249.977 380.051 249.741 379.614 249.263C379.177 248.785 378.924 247.979 378.839 246.828L378.847 246.85ZM379.16 236.095C378.749 236.614 377.761 237.304 376.199 238.166C374.767 238.949 373.811 239.654 373.331 240.264C372.805 241.052 372.549 242.008 372.607 242.972C372.607 244.235 372.86 245.191 373.366 245.84C373.585 246.146 373.868 246.395 374.193 246.565C374.518 246.736 374.876 246.824 375.239 246.823C375.772 246.804 376.295 246.665 376.775 246.418C377.255 246.17 377.68 245.818 378.024 245.385C378.881 244.423 379.31 242.734 379.31 240.319C379.31 239.559 379.254 238.157 379.151 236.095H379.16Z" fill="#808184"/>
<mask id="mask0_3364_564" style="mask-type:luminance" maskUnits="userSpaceOnUse" x="111" y="208" width="45" height="87">
<path d="M155.419 237.824L155.453 218.728C155.453 218.728 142.464 210.22 131.391 209.043C120.318 207.866 117.699 211.456 115.928 213.87C114.156 216.283 111.598 218.888 111.166 233.678C110.734 248.467 110.93 253.294 114.443 262.03C117.956 270.766 120.938 275.716 128.605 282.394C136.272 289.073 153.382 294.798 154.003 294.921C154.623 295.045 153.969 267.477 153.969 267.477C153.969 267.477 139.695 264.544 131.9 260.242C126.519 257.326 121.624 253.487 117.412 248.878C115.247 246.528 112.141 244.17 111.628 239.991C111.114 235.813 114.011 232.774 114.623 232.053C115.235 231.333 118.623 227.305 125.041 226.616C131.459 225.927 138.865 228.965 141.728 230.452C144.59 231.939 155.419 237.824 155.419 237.824Z" fill="white"/>
</mask>
<g mask="url(#mask0_3364_564)">
<path d="M155.428 207.867H110.738V295.046H155.428V207.867Z" fill="#219CD8"/>
</g>
<mask id="mask1_3364_564" style="mask-type:luminance" maskUnits="userSpaceOnUse" x="117" y="206" width="44" height="17">
<path d="M117.926 211.583C117.926 211.583 122.936 206.109 132.43 206.004C141.924 205.899 152.591 207.965 155.625 208.7C157.111 209.03 158.579 209.453 160.019 209.968L159.924 222.226L155.47 222.13L155.411 218.695C155.411 218.695 146.712 213.221 139.028 210.78C137.719 210.36 136.516 209.986 135.306 209.722C130.385 208.636 127.399 208.695 125.135 208.901C123.744 209.019 122.377 209.357 121.079 209.904C117.733 211.273 117.926 211.583 117.926 211.583Z" fill="white"/>
</mask>
<g mask="url(#mask1_3364_564)">
<path d="M117.977 205.883H117.892V222.224H117.977V205.883Z" fill="#2B3D95"/>
<path d="M118.037 205.883H117.951V222.224H118.037V205.883Z" fill="#2B3D95"/>
<path d="M118.093 205.883H118.007V222.224H118.093V205.883Z" fill="#2B3D95"/>
<path d="M118.148 205.883H118.063V222.224H118.148V205.883Z" fill="#2B3D95"/>
<path d="M118.204 205.883H118.118V222.224H118.204V205.883Z" fill="#2B3D95"/>
<path d="M118.264 205.883H118.178V222.224H118.264V205.883Z" fill="#2B3D95"/>
<path d="M118.319 205.883H118.234V222.224H118.319V205.883Z" fill="#2B3D95"/>
<path d="M118.375 205.883H118.29V222.224H118.375V205.883Z" fill="#2B3D94"/>
<path d="M118.435 205.883H118.349V222.224H118.435V205.883Z" fill="#2B3D94"/>
<path d="M118.491 205.883H118.405V222.224H118.491V205.883Z" fill="#2B3D94"/>
<path d="M118.546 205.883H118.461V222.224H118.546V205.883Z" fill="#2B3D94"/>
<path d="M118.602 205.883H118.516V222.224H118.602V205.883Z" fill="#2B3D94"/>
<path d="M118.662 205.883H118.576V222.224H118.662V205.883Z" fill="#2B3D94"/>
<path d="M118.717 205.883H118.632V222.224H118.717V205.883Z" fill="#2B3D94"/>
<path d="M118.773 205.883H118.688V222.224H118.773V205.883Z" fill="#2B3D94"/>
<path d="M118.828 205.883H118.743V222.224H118.828V205.883Z" fill="#293D94"/>
<path d="M118.889 205.883H118.803V222.224H118.889V205.883Z" fill="#293D94"/>
<path d="M118.944 205.883H118.859V222.224H118.944V205.883Z" fill="#293D94"/>
<path d="M119 205.883H118.914V222.224H119V205.883Z" fill="#293D94"/>
<path d="M119.055 205.883H118.97V222.224H119.055V205.883Z" fill="#293D94"/>
<path d="M119.115 205.883H119.03V222.224H119.115V205.883Z" fill="#293D94"/>
<path d="M119.171 205.883H119.085V222.224H119.171V205.883Z" fill="#293D94"/>
<path d="M119.226 205.883H119.141V222.224H119.226V205.883Z" fill="#293D93"/>
<path d="M119.286 205.883H119.201V222.224H119.286V205.883Z" fill="#293D93"/>
<path d="M119.342 205.883H119.256V222.224H119.342V205.883Z" fill="#293D93"/>
<path d="M119.398 205.883H119.312V222.224H119.398V205.883Z" fill="#293D93"/>
<path d="M119.453 205.883H119.368V222.224H119.453V205.883Z" fill="#293D93"/>
<path d="M119.513 205.883H119.427V222.224H119.513V205.883Z" fill="#293D93"/>
<path d="M119.569 205.883H119.483V222.224H119.569V205.883Z" fill="#293D93"/>
<path d="M119.624 205.883H119.539V222.224H119.624V205.883Z" fill="#293D93"/>
<path d="M119.68 205.883H119.594V222.224H119.68V205.883Z" fill="#293D93"/>
<path d="M119.74 205.883H119.654V222.224H119.74V205.883Z" fill="#293D93"/>
<path d="M119.796 205.883H119.71V222.224H119.796V205.883Z" fill="#293D93"/>
<path d="M119.851 205.883H119.766V222.224H119.851V205.883Z" fill="#293D93"/>
<path d="M119.911 205.883H119.825V222.224H119.911V205.883Z" fill="#293D93"/>
<path d="M119.967 205.883H119.881V222.224H119.967V205.883Z" fill="#293D93"/>
<path d="M120.022 205.883H119.937V222.224H120.022V205.883Z" fill="#293D93"/>
<path d="M120.078 205.883H119.992V222.224H120.078V205.883Z" fill="#263C92"/>
<path d="M120.138 205.883H120.052V222.224H120.138V205.883Z" fill="#263C92"/>
<path d="M120.193 205.883H120.108V222.224H120.193V205.883Z" fill="#263C92"/>
<path d="M120.249 205.883H120.164V222.224H120.249V205.883Z" fill="#263C92"/>
<path d="M120.305 205.883H120.219V222.224H120.305V205.883Z" fill="#263C92"/>
<path d="M120.365 205.883H120.279V222.224H120.365V205.883Z" fill="#273C92"/>
<path d="M120.42 205.883H120.335V222.224H120.42V205.883Z" fill="#273C92"/>
<path d="M120.476 205.883H120.39V222.224H120.476V205.883Z" fill="#273C92"/>
<path d="M120.531 205.883H120.446V222.224H120.531V205.883Z" fill="#273C92"/>
<path d="M120.591 205.883H120.506V222.224H120.591V205.883Z" fill="#273C92"/>
<path d="M120.647 205.883H120.562V222.224H120.647V205.883Z" fill="#273C91"/>
<path d="M120.703 205.883H120.617V222.224H120.703V205.883Z" fill="#273C91"/>
<path d="M120.763 205.883H120.677V222.224H120.763V205.883Z" fill="#273C91"/>
<path d="M120.818 205.883H120.733V222.224H120.818V205.883Z" fill="#273C91"/>
<path d="M120.874 205.883H120.788V222.224H120.874V205.883Z" fill="#273C91"/>
<path d="M120.929 205.883H120.844V222.224H120.929V205.883Z" fill="#273C91"/>
<path d="M120.989 205.883H120.904V222.224H120.989V205.883Z" fill="#273C91"/>
<path d="M121.045 205.883H120.959V222.224H121.045V205.883Z" fill="#273C91"/>
<path d="M121.1 205.883H121.015V222.224H121.1V205.883Z" fill="#273C91"/>
<path d="M121.156 205.883H121.071V222.224H121.156V205.883Z" fill="#273C91"/>
<path d="M121.216 205.883H121.13V222.224H121.216V205.883Z" fill="#273C91"/>
<path d="M121.272 205.883H121.186V222.224H121.272V205.883Z" fill="#273C91"/>
<path d="M121.327 205.883H121.242V222.224H121.327V205.883Z" fill="#273C91"/>
<path d="M121.387 205.883H121.302V222.224H121.387V205.883Z" fill="#273C91"/>
<path d="M121.443 205.883H121.357V222.224H121.443V205.883Z" fill="#273C91"/>
<path d="M121.498 205.883H121.413V222.224H121.498V205.883Z" fill="#273C91"/>
<path d="M121.554 205.883H121.469V222.224H121.554V205.883Z" fill="#273C91"/>
<path d="M121.614 205.883H121.528V222.224H121.614V205.883Z" fill="#273C91"/>
<path d="M121.67 205.883H121.584V222.224H121.67V205.883Z" fill="#273C91"/>
<path d="M121.725 205.883H121.64V222.224H121.725V205.883Z" fill="#273C91"/>
<path d="M121.781 205.883H121.695V222.224H121.781V205.883Z" fill="#273C90"/>
<path d="M121.841 205.883H121.755V222.224H121.841V205.883Z" fill="#273C90"/>
<path d="M121.896 205.883H121.811V222.224H121.896V205.883Z" fill="#273C90"/>
<path d="M121.952 205.883H121.866V222.224H121.952V205.883Z" fill="#273C90"/>
<path d="M122.012 205.883H121.926V222.224H122.012V205.883Z" fill="#273C90"/>
<path d="M122.068 205.883H121.982V222.224H122.068V205.883Z" fill="#273C90"/>
<path d="M122.123 205.883H122.038V222.224H122.123V205.883Z" fill="#273C90"/>
<path d="M122.179 205.883H122.093V222.224H122.179V205.883Z" fill="#273C90"/>
<path d="M122.239 205.883H122.153V222.224H122.239V205.883Z" fill="#273C90"/>
<path d="M122.294 205.883H122.209V222.224H122.294V205.883Z" fill="#273C90"/>
<path d="M122.35 205.883H122.264V222.224H122.35V205.883Z" fill="#273C90"/>
<path d="M122.41 205.883H122.324V222.224H122.41V205.883Z" fill="#273C90"/>
<path d="M122.465 205.883H122.38V222.224H122.465V205.883Z" fill="#273C90"/>
<path d="M122.521 205.883H122.436V222.224H122.521V205.883Z" fill="#273C90"/>
<path d="M122.577 205.883H122.491V222.224H122.577V205.883Z" fill="#273C90"/>
<path d="M122.637 205.883H122.551V222.224H122.637V205.883Z" fill="#273B8E"/>
<path d="M122.692 205.883H122.607V222.224H122.692V205.883Z" fill="#273B8E"/>
<path d="M122.748 205.883H122.662V222.224H122.748V205.883Z" fill="#273B8E"/>
<path d="M122.803 205.883H122.718V222.224H122.803V205.883Z" fill="#273B8E"/>
<path d="M122.863 205.883H122.778V222.224H122.863V205.883Z" fill="#273B8E"/>
<path d="M122.919 205.883H122.833V222.224H122.919V205.883Z" fill="#273B8E"/>
<path d="M122.974 205.883H122.889V222.224H122.974V205.883Z" fill="#273B8E"/>
<path d="M123.035 205.883H122.949V222.224H123.035V205.883Z" fill="#273B8E"/>
<path d="M123.09 205.883H123.004V222.224H123.09V205.883Z" fill="#273B8E"/>
<path d="M123.146 205.883H123.06V222.224H123.146V205.883Z" fill="#273B8E"/>
<path d="M123.201 205.883H123.116V222.224H123.201V205.883Z" fill="#273B8E"/>
<path d="M123.261 205.883H123.176V222.224H123.261V205.883Z" fill="#273B8E"/>
<path d="M123.317 205.883H123.231V222.224H123.317V205.883Z" fill="#273B8E"/>
<path d="M123.372 205.883H123.287V222.224H123.372V205.883Z" fill="#273B8E"/>
<path d="M123.428 205.883H123.343V222.224H123.428V205.883Z" fill="#273B8E"/>
<path d="M123.488 205.883H123.402V222.224H123.488V205.883Z" fill="#273B8E"/>
<path d="M123.544 205.883H123.458V222.224H123.544V205.883Z" fill="#273B8E"/>
<path d="M123.599 205.883H123.514V222.224H123.599V205.883Z" fill="#273B8E"/>
<path d="M123.659 205.883H123.573V222.224H123.659V205.883Z" fill="#273B8E"/>
<path d="M123.715 205.883H123.629V222.224H123.715V205.883Z" fill="#273B8E"/>
<path d="M123.77 205.883H123.685V222.224H123.77V205.883Z" fill="#273B8E"/>
<path d="M123.826 205.883H123.74V222.224H123.826V205.883Z" fill="#273B8E"/>
<path d="M123.886 205.883H123.8V222.224H123.886V205.883Z" fill="#273B8E"/>
<path d="M123.942 205.883H123.856V222.224H123.942V205.883Z" fill="#273B8E"/>
<path d="M123.997 205.883H123.912V222.224H123.997V205.883Z" fill="#273B8E"/>
<path d="M124.053 205.883H123.967V222.224H124.053V205.883Z" fill="#273B8E"/>
<path d="M124.113 205.883H124.027V222.224H124.113V205.883Z" fill="#273B8E"/>
<path d="M124.168 205.883H124.083V222.224H124.168V205.883Z" fill="#273B8E"/>
<path d="M124.224 205.883H124.138V222.224H124.224V205.883Z" fill="#273B8E"/>
<path d="M124.284 205.883H124.198V222.224H124.284V205.883Z" fill="#273B8E"/>
<path d="M124.339 205.883H124.254V222.224H124.339V205.883Z" fill="#283B8D"/>
<path d="M124.395 205.883H124.31V222.224H124.395V205.883Z" fill="#283B8D"/>
<path d="M124.451 205.883H124.365V222.224H124.451V205.883Z" fill="#283B8D"/>
<path d="M124.511 205.883H124.425V222.224H124.511V205.883Z" fill="#283B8D"/>
<path d="M124.566 205.883H124.481V222.224H124.566V205.883Z" fill="#283B8D"/>
<path d="M124.622 205.883H124.536V222.224H124.622V205.883Z" fill="#283B8D"/>
<path d="M124.677 205.883H124.592V222.224H124.677V205.883Z" fill="#283B8D"/>
<path d="M124.737 205.883H124.652V222.224H124.737V205.883Z" fill="#283B8D"/>
<path d="M124.793 205.883H124.708V222.224H124.793V205.883Z" fill="#283B8D"/>
<path d="M124.849 205.883H124.763V222.224H124.849V205.883Z" fill="#283B8D"/>
<path d="M124.909 205.883H124.823V222.224H124.909V205.883Z" fill="#283B8D"/>
<path d="M124.964 205.883H124.878V222.224H124.964V205.883Z" fill="#283B8D"/>
<path d="M125.02 205.883H124.934V222.224H125.02V205.883Z" fill="#283B8D"/>
<path d="M125.075 205.883H124.99V222.224H125.075V205.883Z" fill="#283B8D"/>
<path d="M125.135 205.883H125.05V222.224H125.135V205.883Z" fill="#283B8D"/>
<path d="M125.191 205.883H125.105V222.224H125.191V205.883Z" fill="#283B8B"/>
<path d="M125.246 205.883H125.161V222.224H125.246V205.883Z" fill="#283B8B"/>
<path d="M125.302 205.883H125.217V222.224H125.302V205.883Z" fill="#283B8B"/>
<path d="M125.362 205.883H125.276V222.224H125.362V205.883Z" fill="#283B8B"/>
<path d="M125.418 205.883H125.332V222.224H125.418V205.883Z" fill="#283B8B"/>
<path d="M125.473 205.883H125.388V222.224H125.473V205.883Z" fill="#283B8B"/>
<path d="M125.529 205.883H125.443V222.224H125.529V205.883Z" fill="#283B8B"/>
<path d="M125.589 205.883H125.503V222.224H125.589V205.883Z" fill="#283B8B"/>
<path d="M125.644 205.883H125.559V222.224H125.644V205.883Z" fill="#283B8B"/>
<path d="M125.7 205.883H125.615V222.224H125.7V205.883Z" fill="#283B8B"/>
<path d="M125.76 205.883H125.674V222.224H125.76V205.883Z" fill="#283B8B"/>
<path d="M125.816 205.883H125.73V222.224H125.816V205.883Z" fill="#283B8B"/>
<path d="M125.871 205.883H125.786V222.224H125.871V205.883Z" fill="#283B8B"/>
<path d="M125.927 205.883H125.841V222.224H125.927V205.883Z" fill="#283B8B"/>
<path d="M125.987 205.883H125.901V222.224H125.987V205.883Z" fill="#283B8B"/>
<path d="M126.042 205.883H125.957V222.224H126.042V205.883Z" fill="#283B8B"/>
<path d="M126.098 205.883H126.012V222.224H126.098V205.883Z" fill="#283B8B"/>
<path d="M126.153 205.883H126.068V222.224H126.153V205.883Z" fill="#283B8B"/>
<path d="M126.214 205.883H126.128V222.224H126.214V205.883Z" fill="#283B8B"/>
<path d="M126.269 205.883H126.184V222.224H126.269V205.883Z" fill="#283B8B"/>
<path d="M126.325 205.883H126.239V222.224H126.325V205.883Z" fill="#283B8B"/>
<path d="M126.385 205.883H126.299V222.224H126.385V205.883Z" fill="#283B8B"/>
<path d="M126.44 205.883H126.355V222.224H126.44V205.883Z" fill="#283B8B"/>
<path d="M126.496 205.883H126.41V222.224H126.496V205.883Z" fill="#283B8B"/>
<path d="M126.551 205.883H126.466V222.224H126.551V205.883Z" fill="#283B8B"/>
<path d="M126.611 205.883H126.526V222.224H126.611V205.883Z" fill="#283B8B"/>
<path d="M126.667 205.883H126.581V222.224H126.667V205.883Z" fill="#283B8B"/>
<path d="M126.723 205.883H126.637V222.224H126.723V205.883Z" fill="#283B8B"/>
<path d="M126.778 205.883H126.693V222.224H126.778V205.883Z" fill="#283B8B"/>
<path d="M126.838 205.883H126.752V222.224H126.838V205.883Z" fill="#283B8B"/>
<path d="M126.894 205.883H126.808V222.224H126.894V205.883Z" fill="#283B8A"/>
<path d="M126.949 205.883H126.864V222.224H126.949V205.883Z" fill="#283B8A"/>
<path d="M127.005 205.883H126.919V222.224H127.005V205.883Z" fill="#283B8A"/>
<path d="M127.065 205.883H126.979V222.224H127.065V205.883Z" fill="#283B8A"/>
<path d="M127.12 205.883H127.035V222.224H127.12V205.883Z" fill="#283B8A"/>
<path d="M127.176 205.883H127.091V222.224H127.176V205.883Z" fill="#283B8A"/>
<path d="M127.236 205.883H127.15V222.224H127.236V205.883Z" fill="#283B8A"/>
<path d="M127.292 205.883H127.206V222.224H127.292V205.883Z" fill="#283B8A"/>
<path d="M127.347 205.883H127.262V222.224H127.347V205.883Z" fill="#283B8A"/>
<path d="M127.403 205.883H127.317V222.224H127.403V205.883Z" fill="#283B8A"/>
<path d="M127.463 205.883H127.377V222.224H127.463V205.883Z" fill="#283B8A"/>
<path d="M127.518 205.883H127.433V222.224H127.518V205.883Z" fill="#283B8A"/>
<path d="M127.574 205.883H127.489V222.224H127.574V205.883Z" fill="#283B8A"/>
<path d="M127.63 205.883H127.544V222.224H127.63V205.883Z" fill="#283B8A"/>
<path d="M127.69 205.883H127.604V222.224H127.69V205.883Z" fill="#283B8A"/>
<path d="M127.745 205.883H127.66V222.224H127.745V205.883Z" fill="#283A89"/>
<path d="M127.801 205.883H127.715V222.224H127.801V205.883Z" fill="#283A89"/>
<path d="M127.861 205.883H127.775V222.224H127.861V205.883Z" fill="#283A89"/>
<path d="M127.916 205.883H127.831V222.224H127.916V205.883Z" fill="#283A89"/>
<path d="M127.972 205.883H127.886V222.224H127.972V205.883Z" fill="#283A89"/>
<path d="M128.027 205.883H127.942V222.224H128.027V205.883Z" fill="#283A89"/>
<path d="M128.088 205.883H128.002V222.224H128.088V205.883Z" fill="#283A89"/>
<path d="M128.143 205.883H128.058V222.224H128.143V205.883Z" fill="#283A89"/>
<path d="M128.199 205.883H128.113V222.224H128.199V205.883Z" fill="#283A89"/>
<path d="M128.254 205.883H128.169V222.224H128.254V205.883Z" fill="#283A89"/>
<path d="M128.314 205.883H128.229V222.224H128.314V205.883Z" fill="#283A89"/>
<path d="M128.37 205.883H128.284V222.224H128.37V205.883Z" fill="#283A89"/>
<path d="M128.425 205.883H128.34V222.224H128.425V205.883Z" fill="#283A89"/>
<path d="M128.481 205.883H128.396V222.224H128.481V205.883Z" fill="#283A89"/>
<path d="M128.541 205.883H128.455V222.224H128.541V205.883Z" fill="#283A89"/>
<path d="M128.597 205.883H128.511V222.224H128.597V205.883Z" fill="#283B88"/>
<path d="M128.652 205.883H128.567V222.224H128.652V205.883Z" fill="#283B88"/>
<path d="M128.712 205.883H128.626V222.224H128.712V205.883Z" fill="#283B88"/>
<path d="M128.768 205.883H128.682V222.224H128.768V205.883Z" fill="#283B88"/>
<path d="M128.823 205.883H128.738V222.224H128.823V205.883Z" fill="#283B88"/>
<path d="M128.879 205.883H128.793V222.224H128.879V205.883Z" fill="#283B88"/>
<path d="M128.939 205.883H128.853V222.224H128.939V205.883Z" fill="#283B88"/>
<path d="M128.995 205.883H128.909V222.224H128.995V205.883Z" fill="#283B88"/>
<path d="M129.05 205.883H128.965V222.224H129.05V205.883Z" fill="#283B88"/>
<path d="M129.106 205.883H129.02V222.224H129.106V205.883Z" fill="#283B88"/>
<path d="M129.166 205.883H129.08V222.224H129.166V205.883Z" fill="#283B88"/>
<path d="M129.221 205.883H129.136V222.224H129.221V205.883Z" fill="#283B88"/>
<path d="M129.277 205.883H129.191V222.224H129.277V205.883Z" fill="#283B88"/>
<path d="M129.337 205.883H129.251V222.224H129.337V205.883Z" fill="#283B88"/>
<path d="M129.392 205.883H129.307V222.224H129.392V205.883Z" fill="#283B88"/>
<path d="M129.448 205.883H129.363V222.224H129.448V205.883Z" fill="#283A86"/>
<path d="M129.504 205.883H129.418V222.224H129.504V205.883Z" fill="#283A86"/>
<path d="M129.564 205.883H129.478V222.224H129.564V205.883Z" fill="#283A86"/>
<path d="M129.619 205.883H129.534V222.224H129.619V205.883Z" fill="#283A86"/>
<path d="M129.675 205.883H129.589V222.224H129.675V205.883Z" fill="#283A86"/>
<path d="M129.73 205.883H129.645V222.224H129.73V205.883Z" fill="#283A86"/>
<path d="M129.79 205.883H129.705V222.224H129.79V205.883Z" fill="#283A86"/>
<path d="M129.846 205.883H129.76V222.224H129.846V205.883Z" fill="#283A86"/>
<path d="M129.901 205.883H129.816V222.224H129.901V205.883Z" fill="#283A86"/>
<path d="M129.957 205.883H129.872V222.224H129.957V205.883Z" fill="#283A86"/>
<path d="M130.017 205.883H129.932V222.224H130.017V205.883Z" fill="#293A87"/>
<path d="M130.073 205.883H129.987V222.224H130.073V205.883Z" fill="#293A87"/>
<path d="M130.128 205.883H130.043V222.224H130.128V205.883Z" fill="#293A87"/>
<path d="M130.188 205.883H130.103V222.224H130.188V205.883Z" fill="#293A87"/>
<path d="M130.244 205.883H130.158V222.224H130.244V205.883Z" fill="#293A87"/>
<path d="M130.299 205.883H130.214V222.224H130.299V205.883Z" fill="#283A85"/>
<path d="M130.355 205.883H130.27V222.224H130.355V205.883Z" fill="#283A85"/>
<path d="M130.415 205.883H130.329V222.224H130.415V205.883Z" fill="#283A85"/>
<path d="M130.471 205.883H130.385V222.224H130.471V205.883Z" fill="#283A85"/>
<path d="M130.526 205.883H130.441V222.224H130.526V205.883Z" fill="#283A85"/>
<path d="M130.582 205.883H130.496V222.224H130.582V205.883Z" fill="#283A85"/>
<path d="M130.642 205.883H130.556V222.224H130.642V205.883Z" fill="#283A85"/>
<path d="M130.697 205.883H130.612V222.224H130.697V205.883Z" fill="#283A85"/>
<path d="M130.753 205.883H130.667V222.224H130.753V205.883Z" fill="#283A85"/>
<path d="M130.813 205.883H130.727V222.224H130.813V205.883Z" fill="#283A85"/>
<path d="M130.869 205.883H130.783V222.224H130.869V205.883Z" fill="#283A85"/>
<path d="M130.924 205.883H130.839V222.224H130.924V205.883Z" fill="#283A85"/>
<path d="M130.98 205.883H130.894V222.224H130.98V205.883Z" fill="#283A85"/>
<path d="M131.04 205.883H130.954V222.224H131.04V205.883Z" fill="#283A85"/>
<path d="M131.095 205.883H131.01V222.224H131.095V205.883Z" fill="#283A85"/>
<path d="M131.151 205.883H131.065V222.224H131.151V205.883Z" fill="#283A84"/>
<path d="M131.207 205.883H131.121V222.224H131.207V205.883Z" fill="#283A84"/>
<path d="M131.266 205.883H131.181V222.224H131.266V205.883Z" fill="#283A84"/>
<path d="M131.322 205.883H131.237V222.224H131.322V205.883Z" fill="#283A84"/>
<path d="M131.378 205.883H131.292V222.224H131.378V205.883Z" fill="#283A84"/>
<path d="M131.438 205.883H131.352V222.224H131.438V205.883Z" fill="#283A84"/>
<path d="M131.493 205.883H131.408V222.224H131.493V205.883Z" fill="#283A84"/>
<path d="M131.549 205.883H131.463V222.224H131.549V205.883Z" fill="#283A84"/>
<path d="M131.604 205.883H131.519V222.224H131.604V205.883Z" fill="#283A84"/>
<path d="M131.664 205.883H131.579V222.224H131.664V205.883Z" fill="#283A84"/>
<path d="M131.72 205.883H131.635V222.224H131.72V205.883Z" fill="#283A84"/>
<path d="M131.776 205.883H131.69V222.224H131.776V205.883Z" fill="#283A84"/>
<path d="M131.831 205.883H131.746V222.224H131.831V205.883Z" fill="#283A84"/>
<path d="M131.891 205.883H131.806V222.224H131.891V205.883Z" fill="#283A84"/>
<path d="M131.947 205.883H131.861V222.224H131.947V205.883Z" fill="#283A84"/>
<path d="M132.002 205.883H131.917V222.224H132.002V205.883Z" fill="#283A83"/>
<path d="M132.058 205.883H131.972V222.224H132.058V205.883Z" fill="#283A83"/>
<path d="M132.118 205.883H132.032V222.224H132.118V205.883Z" fill="#283A83"/>
<path d="M132.173 205.883H132.088V222.224H132.173V205.883Z" fill="#283A83"/>
<path d="M132.229 205.883H132.144V222.224H132.229V205.883Z" fill="#283A83"/>
<path d="M132.289 205.883H132.203V222.224H132.289V205.883Z" fill="#283A83"/>
<path d="M132.345 205.883H132.259V222.224H132.345V205.883Z" fill="#283A83"/>
<path d="M160.014 205.883H132.315V222.224H160.014V205.883Z" fill="#283A83"/>
</g>
<mask id="mask2_3364_564" style="mask-type:luminance" maskUnits="userSpaceOnUse" x="115" y="247" width="45" height="32">
<path d="M115.885 247.242C123.201 250.629 130.907 252.96 138.801 254.176C142.943 254.797 145.98 254.906 147.961 254.71C151.093 254.4 150.892 254.354 152.963 254.081C155.958 253.688 159.06 253.045 159.06 253.045V278.008L154.114 278.117L153.994 267.506C153.994 267.506 146.301 267.214 136.165 262.379C126.029 257.543 122.328 254.035 120.874 252.552C119.419 251.07 115.893 247.242 115.893 247.242H115.885Z" fill="white"/>
</mask>
<g mask="url(#mask2_3364_564)">
<path d="M115.928 247.242H115.885V278.117H115.928V247.242Z" fill="#2B3D95"/>
<path d="M116.017 247.242H115.885V278.117H116.017V247.242Z" fill="#2B3D95"/>
<path d="M116.107 247.242H115.975V278.117H116.107V247.242Z" fill="#2B3D95"/>
<path d="M116.193 247.242H116.06V278.117H116.193V247.242Z" fill="#2B3D95"/>
<path d="M116.283 247.242H116.15V278.117H116.283V247.242Z" fill="#2B3D95"/>
<path d="M116.373 247.242H116.24V278.117H116.373V247.242Z" fill="#2B3D95"/>
<path d="M116.462 247.242H116.33V278.117H116.462V247.242Z" fill="#2B3D95"/>
<path d="M116.548 247.242H116.415V278.117H116.548V247.242Z" fill="#2B3D95"/>
<path d="M116.638 247.242H116.505V278.117H116.638V247.242Z" fill="#2B3D94"/>
<path d="M116.728 247.242H116.595V278.117H116.728V247.242Z" fill="#2B3D94"/>
<path d="M116.817 247.242H116.685V278.117H116.817V247.242Z" fill="#2B3D94"/>
<path d="M116.903 247.242H116.771V278.117H116.903V247.242Z" fill="#2B3D94"/>
<path d="M116.993 247.242H116.86V278.117H116.993V247.242Z" fill="#2B3D94"/>
<path d="M117.083 247.242H116.95V278.117H117.083V247.242Z" fill="#2B3D94"/>
<path d="M117.168 247.242H117.036V278.117H117.168V247.242Z" fill="#2B3D94"/>
<path d="M117.258 247.242H117.125V278.117H117.258V247.242Z" fill="#2B3D94"/>
<path d="M117.348 247.242H117.215V278.117H117.348V247.242Z" fill="#293D94"/>
<path d="M117.438 247.242H117.305V278.117H117.438V247.242Z" fill="#293D94"/>
<path d="M117.528 247.242H117.395V278.117H117.528V247.242Z" fill="#293D94"/>
<path d="M117.613 247.242H117.481V278.117H117.613V247.242Z" fill="#293D94"/>
<path d="M117.703 247.242H117.571V278.117H117.703V247.242Z" fill="#293D94"/>
<path d="M117.793 247.242H117.66V278.117H117.793V247.242Z" fill="#293D94"/>
<path d="M117.883 247.242H117.75V278.117H117.883V247.242Z" fill="#293D94"/>
<path d="M117.969 247.242H117.836V278.117H117.969V247.242Z" fill="#293D93"/>
<path d="M118.058 247.242H117.926V278.117H118.058V247.242Z" fill="#293D93"/>
<path d="M118.148 247.242H118.015V278.117H118.148V247.242Z" fill="#293D93"/>
<path d="M118.238 247.242H118.105V278.117H118.238V247.242Z" fill="#293D93"/>
<path d="M118.324 247.242H118.191V278.117H118.324V247.242Z" fill="#293D93"/>
<path d="M118.413 247.242H118.281V278.117H118.413V247.242Z" fill="#293D93"/>
<path d="M118.503 247.242H118.371V278.117H118.503V247.242Z" fill="#293D93"/>
<path d="M118.593 247.242H118.46V278.117H118.593V247.242Z" fill="#293D93"/>
<path d="M118.679 247.242H118.546V278.117H118.679V247.242Z" fill="#293D93"/>
<path d="M118.769 247.242H118.636V278.117H118.769V247.242Z" fill="#293D93"/>
<path d="M118.858 247.242H118.726V278.117H118.858V247.242Z" fill="#293D93"/>
<path d="M118.948 247.242H118.816V278.117H118.948V247.242Z" fill="#293D93"/>
<path d="M119.034 247.242H118.901V278.117H119.034V247.242Z" fill="#293D93"/>
<path d="M119.124 247.242H118.991V278.117H119.124V247.242Z" fill="#293D93"/>
<path d="M119.213 247.242H119.081V278.117H119.213V247.242Z" fill="#293D93"/>
<path d="M119.303 247.242H119.171V278.117H119.303V247.242Z" fill="#263C92"/>
<path d="M119.389 247.242H119.256V278.117H119.389V247.242Z" fill="#263C92"/>
<path d="M119.479 247.242H119.346V278.117H119.479V247.242Z" fill="#263C92"/>
<path d="M119.569 247.242H119.436V278.117H119.569V247.242Z" fill="#263C92"/>
<path d="M119.659 247.242H119.526V278.117H119.659V247.242Z" fill="#263C92"/>
<path d="M119.744 247.242H119.611V278.117H119.744V247.242Z" fill="#273C92"/>
<path d="M119.834 247.242H119.701V278.117H119.834V247.242Z" fill="#273C92"/>
<path d="M119.924 247.242H119.791V278.117H119.924V247.242Z" fill="#273C92"/>
<path d="M120.013 247.242H119.881V278.117H120.013V247.242Z" fill="#273C92"/>
<path d="M120.104 247.242H119.971V278.117H120.104V247.242Z" fill="#273C92"/>
<path d="M120.189 247.242H120.056V278.117H120.189V247.242Z" fill="#273C91"/>
<path d="M120.279 247.242H120.146V278.117H120.279V247.242Z" fill="#273C91"/>
<path d="M120.369 247.242H120.236V278.117H120.369V247.242Z" fill="#273C91"/>
<path d="M120.454 247.242H120.322V278.117H120.454V247.242Z" fill="#273C91"/>
<path d="M120.544 247.242H120.411V278.117H120.544V247.242Z" fill="#273C91"/>
<path d="M120.634 247.242H120.501V278.117H120.634V247.242Z" fill="#273C91"/>
<path d="M120.724 247.242H120.591V278.117H120.724V247.242Z" fill="#273C91"/>
<path d="M120.809 247.242H120.677V278.117H120.809V247.242Z" fill="#273C91"/>
<path d="M120.899 247.242H120.767V278.117H120.899V247.242Z" fill="#273C91"/>
<path d="M120.989 247.242H120.856V278.117H120.989V247.242Z" fill="#273C91"/>
<path d="M121.079 247.242H120.946V278.117H121.079V247.242Z" fill="#273C91"/>
<path d="M121.165 247.242H121.032V278.117H121.165V247.242Z" fill="#273C91"/>
<path d="M121.254 247.242H121.122V278.117H121.254V247.242Z" fill="#273C91"/>
<path d="M121.344 247.242H121.212V278.117H121.344V247.242Z" fill="#273C91"/>
<path d="M121.434 247.242H121.302V278.117H121.434V247.242Z" fill="#273C91"/>
<path d="M121.524 247.242H121.391V278.117H121.524V247.242Z" fill="#273C91"/>
<path d="M121.609 247.242H121.477V278.117H121.609V247.242Z" fill="#273C91"/>
<path d="M121.699 247.242H121.567V278.117H121.699V247.242Z" fill="#273C91"/>
<path d="M121.789 247.242H121.656V278.117H121.789V247.242Z" fill="#273C91"/>
<path d="M121.875 247.242H121.742V278.117H121.875V247.242Z" fill="#273C91"/>
<path d="M121.965 247.242H121.832V278.117H121.965V247.242Z" fill="#273C90"/>
<path d="M122.055 247.242H121.922V278.117H122.055V247.242Z" fill="#273C90"/>
<path d="M122.144 247.242H122.012V278.117H122.144V247.242Z" fill="#273C90"/>
<path d="M122.23 247.242H122.097V278.117H122.23V247.242Z" fill="#273C90"/>
<path d="M122.32 247.242H122.187V278.117H122.32V247.242Z" fill="#273C90"/>
<path d="M122.409 247.242H122.277V278.117H122.409V247.242Z" fill="#273C90"/>
<path d="M122.5 247.242H122.367V278.117H122.5V247.242Z" fill="#273C90"/>
<path d="M122.589 247.242H122.457V278.117H122.589V247.242Z" fill="#273C90"/>
<path d="M122.675 247.242H122.542V278.117H122.675V247.242Z" fill="#273C90"/>
<path d="M122.765 247.242H122.632V278.117H122.765V247.242Z" fill="#273C90"/>
<path d="M122.855 247.242H122.722V278.117H122.855V247.242Z" fill="#273C90"/>
<path d="M122.944 247.242H122.812V278.117H122.944V247.242Z" fill="#273C90"/>
<path d="M123.03 247.242H122.897V278.117H123.03V247.242Z" fill="#273C90"/>
<path d="M123.12 247.242H122.987V278.117H123.12V247.242Z" fill="#273C90"/>
<path d="M123.21 247.242H123.077V278.117H123.21V247.242Z" fill="#273C90"/>
<path d="M123.295 247.242H123.163V278.117H123.295V247.242Z" fill="#273B8E"/>
<path d="M123.385 247.242H123.252V278.117H123.385V247.242Z" fill="#273B8E"/>
<path d="M123.475 247.242H123.342V278.117H123.475V247.242Z" fill="#273B8E"/>
<path d="M123.565 247.242H123.432V278.117H123.565V247.242Z" fill="#273B8E"/>
<path d="M123.655 247.242H123.522V278.117H123.655V247.242Z" fill="#273B8E"/>
<path d="M123.74 247.242H123.608V278.117H123.74V247.242Z" fill="#273B8E"/>
<path d="M123.83 247.242H123.698V278.117H123.83V247.242Z" fill="#273B8E"/>
<path d="M123.92 247.242H123.787V278.117H123.92V247.242Z" fill="#273B8E"/>
<path d="M124.01 247.242H123.877V278.117H124.01V247.242Z" fill="#273B8E"/>
<path d="M124.095 247.242H123.963V278.117H124.095V247.242Z" fill="#273B8E"/>
<path d="M124.185 247.242H124.052V278.117H124.185V247.242Z" fill="#273B8E"/>
<path d="M124.275 247.242H124.143V278.117H124.275V247.242Z" fill="#273B8E"/>
<path d="M124.365 247.242H124.232V278.117H124.365V247.242Z" fill="#273B8E"/>
<path d="M124.451 247.242H124.318V278.117H124.451V247.242Z" fill="#273B8E"/>
<path d="M124.54 247.242H124.408V278.117H124.54V247.242Z" fill="#273B8E"/>
<path d="M124.63 247.242H124.498V278.117H124.63V247.242Z" fill="#273B8E"/>
<path d="M124.72 247.242H124.587V278.117H124.72V247.242Z" fill="#273B8E"/>
<path d="M124.806 247.242H124.673V278.117H124.806V247.242Z" fill="#273B8E"/>
<path d="M124.896 247.242H124.763V278.117H124.896V247.242Z" fill="#273B8E"/>
<path d="M124.985 247.242H124.853V278.117H124.985V247.242Z" fill="#273B8E"/>
<path d="M125.075 247.242H124.943V278.117H125.075V247.242Z" fill="#273B8E"/>
<path d="M125.161 247.242H125.028V278.117H125.161V247.242Z" fill="#273B8E"/>
<path d="M125.251 247.242H125.118V278.117H125.251V247.242Z" fill="#273B8E"/>
<path d="M125.34 247.242H125.208V278.117H125.34V247.242Z" fill="#273B8E"/>
<path d="M125.43 247.242H125.298V278.117H125.43V247.242Z" fill="#273B8E"/>
<path d="M125.516 247.242H125.383V278.117H125.516V247.242Z" fill="#273B8E"/>
<path d="M125.606 247.242H125.473V278.117H125.606V247.242Z" fill="#273B8E"/>
<path d="M125.696 247.242H125.563V278.117H125.696V247.242Z" fill="#273B8E"/>
<path d="M125.785 247.242H125.653V278.117H125.785V247.242Z" fill="#273B8E"/>
<path d="M125.871 247.242H125.738V278.117H125.871V247.242Z" fill="#273B8E"/>
<path d="M125.961 247.242H125.828V278.117H125.961V247.242Z" fill="#283B8D"/>
<path d="M126.051 247.242H125.918V278.117H126.051V247.242Z" fill="#283B8D"/>
<path d="M126.14 247.242H126.008V278.117H126.14V247.242Z" fill="#283B8D"/>
<path d="M126.226 247.242H126.094V278.117H126.226V247.242Z" fill="#283B8D"/>
<path d="M126.316 247.242H126.183V278.117H126.316V247.242Z" fill="#283B8D"/>
<path d="M126.406 247.242H126.273V278.117H126.406V247.242Z" fill="#283B8D"/>
<path d="M126.496 247.242H126.363V278.117H126.496V247.242Z" fill="#283B8D"/>
<path d="M126.581 247.242H126.448V278.117H126.581V247.242Z" fill="#283B8D"/>
<path d="M126.671 247.242H126.539V278.117H126.671V247.242Z" fill="#283B8D"/>
<path d="M126.761 247.242H126.628V278.117H126.761V247.242Z" fill="#283B8D"/>
<path d="M126.851 247.242H126.718V278.117H126.851V247.242Z" fill="#283B8D"/>
<path d="M126.936 247.242H126.804V278.117H126.936V247.242Z" fill="#283B8D"/>
<path d="M127.026 247.242H126.894V278.117H127.026V247.242Z" fill="#283B8D"/>
<path d="M127.116 247.242H126.983V278.117H127.116V247.242Z" fill="#283B8D"/>
<path d="M127.206 247.242H127.073V278.117H127.206V247.242Z" fill="#283B8D"/>
<path d="M127.292 247.242H127.159V278.117H127.292V247.242Z" fill="#283B8B"/>
<path d="M127.381 247.242H127.249V278.117H127.381V247.242Z" fill="#283B8B"/>
<path d="M127.471 247.242H127.339V278.117H127.471V247.242Z" fill="#283B8B"/>
<path d="M127.561 247.242H127.428V278.117H127.561V247.242Z" fill="#283B8B"/>
<path d="M127.651 247.242H127.518V278.117H127.651V247.242Z" fill="#283B8B"/>
<path d="M127.736 247.242H127.604V278.117H127.736V247.242Z" fill="#283B8B"/>
<path d="M127.826 247.242H127.694V278.117H127.826V247.242Z" fill="#283B8B"/>
<path d="M127.916 247.242H127.783V278.117H127.916V247.242Z" fill="#283B8B"/>
<path d="M128.002 247.242H127.869V278.117H128.002V247.242Z" fill="#283B8B"/>
<path d="M128.092 247.242H127.959V278.117H128.092V247.242Z" fill="#283B8B"/>
<path d="M128.181 247.242H128.049V278.117H128.181V247.242Z" fill="#283B8B"/>
<path d="M128.271 247.242H128.139V278.117H128.271V247.242Z" fill="#283B8B"/>
<path d="M128.357 247.242H128.224V278.117H128.357V247.242Z" fill="#283B8B"/>
<path d="M128.447 247.242H128.314V278.117H128.447V247.242Z" fill="#283B8B"/>
<path d="M128.536 247.242H128.404V278.117H128.536V247.242Z" fill="#283B8B"/>
<path d="M128.626 247.242H128.494V278.117H128.626V247.242Z" fill="#283B8B"/>
<path d="M128.712 247.242H128.579V278.117H128.712V247.242Z" fill="#283B8B"/>
<path d="M128.802 247.242H128.669V278.117H128.802V247.242Z" fill="#283B8B"/>
<path d="M128.892 247.242H128.759V278.117H128.892V247.242Z" fill="#283B8B"/>
<path d="M128.982 247.242H128.849V278.117H128.982V247.242Z" fill="#283B8B"/>
<path d="M129.071 247.242H128.939V278.117H129.071V247.242Z" fill="#283B8B"/>
<path d="M129.157 247.242H129.024V278.117H129.157V247.242Z" fill="#283B8B"/>
<path d="M129.247 247.242H129.114V278.117H129.247V247.242Z" fill="#283B8B"/>
<path d="M129.337 247.242H129.204V278.117H129.337V247.242Z" fill="#283B8B"/>
<path d="M129.422 247.242H129.29V278.117H129.422V247.242Z" fill="#283B8B"/>
<path d="M129.512 247.242H129.379V278.117H129.512V247.242Z" fill="#283B8B"/>
<path d="M129.602 247.242H129.469V278.117H129.602V247.242Z" fill="#283B8B"/>
<path d="M129.692 247.242H129.559V278.117H129.692V247.242Z" fill="#283B8B"/>
<path d="M129.777 247.242H129.645V278.117H129.777V247.242Z" fill="#283B8B"/>
<path d="M129.867 247.242H129.735V278.117H129.867V247.242Z" fill="#283B8B"/>
<path d="M129.957 247.242H129.824V278.117H129.957V247.242Z" fill="#283B8A"/>
<path d="M130.047 247.242H129.914V278.117H130.047V247.242Z" fill="#283B8A"/>
<path d="M130.137 247.242H130.004V278.117H130.137V247.242Z" fill="#283B8A"/>
<path d="M130.222 247.242H130.09V278.117H130.222V247.242Z" fill="#283B8A"/>
<path d="M130.312 247.242H130.179V278.117H130.312V247.242Z" fill="#283B8A"/>
<path d="M130.402 247.242H130.269V278.117H130.402V247.242Z" fill="#283B8A"/>
<path d="M130.492 247.242H130.359V278.117H130.492V247.242Z" fill="#283B8A"/>
<path d="M130.577 247.242H130.445V278.117H130.577V247.242Z" fill="#283B8A"/>
<path d="M130.667 247.242H130.535V278.117H130.667V247.242Z" fill="#283B8A"/>
<path d="M130.757 247.242H130.625V278.117H130.757V247.242Z" fill="#283B8A"/>
<path d="M130.843 247.242H130.71V278.117H130.843V247.242Z" fill="#283B8A"/>
<path d="M130.932 247.242H130.8V278.117H130.932V247.242Z" fill="#283B8A"/>
<path d="M131.022 247.242H130.89V278.117H131.022V247.242Z" fill="#283B8A"/>
<path d="M131.112 247.242H130.98V278.117H131.112V247.242Z" fill="#283B8A"/>
<path d="M131.202 247.242H131.07V278.117H131.202V247.242Z" fill="#283B8A"/>
<path d="M131.288 247.242H131.155V278.117H131.288V247.242Z" fill="#283A89"/>
<path d="M131.378 247.242H131.245V278.117H131.378V247.242Z" fill="#283A89"/>
<path d="M131.467 247.242H131.335V278.117H131.467V247.242Z" fill="#283A89"/>
<path d="M131.557 247.242H131.425V278.117H131.557V247.242Z" fill="#283A89"/>
<path d="M131.643 247.242H131.51V278.117H131.643V247.242Z" fill="#283A89"/>
<path d="M131.733 247.242H131.6V278.117H131.733V247.242Z" fill="#283A89"/>
<path d="M131.823 247.242H131.69V278.117H131.823V247.242Z" fill="#283A89"/>
<path d="M131.912 247.242H131.78V278.117H131.912V247.242Z" fill="#283A89"/>
<path d="M131.998 247.242H131.865V278.117H131.998V247.242Z" fill="#283A89"/>
<path d="M132.088 247.242H131.955V278.117H132.088V247.242Z" fill="#283A89"/>
<path d="M132.178 247.242H132.045V278.117H132.178V247.242Z" fill="#283A89"/>
<path d="M132.267 247.242H132.135V278.117H132.267V247.242Z" fill="#283A89"/>
<path d="M132.353 247.242H132.22V278.117H132.353V247.242Z" fill="#283A89"/>
<path d="M132.443 247.242H132.31V278.117H132.443V247.242Z" fill="#283A89"/>
<path d="M132.533 247.242H132.4V278.117H132.533V247.242Z" fill="#283A89"/>
<path d="M132.623 247.242H132.49V278.117H132.623V247.242Z" fill="#283B88"/>
<path d="M132.708 247.242H132.575V278.117H132.708V247.242Z" fill="#283B88"/>
<path d="M132.798 247.242H132.665V278.117H132.798V247.242Z" fill="#283B88"/>
<path d="M132.888 247.242H132.755V278.117H132.888V247.242Z" fill="#283B88"/>
<path d="M132.978 247.242H132.845V278.117H132.978V247.242Z" fill="#283B88"/>
<path d="M133.063 247.242H132.931V278.117H133.063V247.242Z" fill="#283B88"/>
<path d="M133.153 247.242H133.021V278.117H133.153V247.242Z" fill="#283B88"/>
<path d="M133.243 247.242H133.11V278.117H133.243V247.242Z" fill="#283B88"/>
<path d="M133.333 247.242H133.2V278.117H133.333V247.242Z" fill="#283B88"/>
<path d="M133.419 247.242H133.286V278.117H133.419V247.242Z" fill="#283B88"/>
<path d="M133.508 247.242H133.376V278.117H133.508V247.242Z" fill="#283B88"/>
<path d="M133.598 247.242H133.466V278.117H133.598V247.242Z" fill="#283B88"/>
<path d="M133.688 247.242H133.555V278.117H133.688V247.242Z" fill="#283B88"/>
<path d="M133.774 247.242H133.641V278.117H133.774V247.242Z" fill="#283B88"/>
<path d="M133.863 247.242H133.731V278.117H133.863V247.242Z" fill="#283B88"/>
<path d="M133.953 247.242H133.821V278.117H133.953V247.242Z" fill="#283A86"/>
<path d="M134.043 247.242H133.91V278.117H134.043V247.242Z" fill="#283A86"/>
<path d="M134.129 247.242H133.996V278.117H134.129V247.242Z" fill="#283A86"/>
<path d="M134.219 247.242H134.086V278.117H134.219V247.242Z" fill="#283A86"/>
<path d="M134.308 247.242H134.176V278.117H134.308V247.242Z" fill="#283A86"/>
<path d="M134.398 247.242H134.266V278.117H134.398V247.242Z" fill="#283A86"/>
<path d="M134.484 247.242H134.351V278.117H134.484V247.242Z" fill="#283A86"/>
<path d="M134.574 247.242H134.441V278.117H134.574V247.242Z" fill="#283A86"/>
<path d="M134.663 247.242H134.531V278.117H134.663V247.242Z" fill="#283A86"/>
<path d="M134.753 247.242H134.621V278.117H134.753V247.242Z" fill="#283A86"/>
<path d="M134.839 247.242H134.706V278.117H134.839V247.242Z" fill="#293A87"/>
<path d="M134.929 247.242H134.796V278.117H134.929V247.242Z" fill="#293A87"/>
<path d="M135.019 247.242H134.886V278.117H135.019V247.242Z" fill="#293A87"/>
<path d="M135.108 247.242H134.976V278.117H135.108V247.242Z" fill="#293A87"/>
<path d="M135.198 247.242H135.066V278.117H135.198V247.242Z" fill="#293A87"/>
<path d="M135.284 247.242H135.151V278.117H135.284V247.242Z" fill="#283A85"/>
<path d="M135.374 247.242H135.241V278.117H135.374V247.242Z" fill="#283A85"/>
<path d="M135.463 247.242H135.331V278.117H135.463V247.242Z" fill="#283A85"/>
<path d="M135.549 247.242H135.417V278.117H135.549V247.242Z" fill="#283A85"/>
<path d="M135.639 247.242H135.506V278.117H135.639V247.242Z" fill="#283A85"/>
<path d="M135.729 247.242H135.596V278.117H135.729V247.242Z" fill="#283A85"/>
<path d="M135.819 247.242H135.686V278.117H135.819V247.242Z" fill="#283A85"/>
<path d="M135.904 247.242H135.772V278.117H135.904V247.242Z" fill="#283A85"/>
<path d="M135.994 247.242H135.862V278.117H135.994V247.242Z" fill="#283A85"/>
<path d="M136.084 247.242H135.951V278.117H136.084V247.242Z" fill="#283A85"/>
<path d="M136.174 247.242H136.041V278.117H136.174V247.242Z" fill="#283A85"/>
<path d="M136.259 247.242H136.127V278.117H136.259V247.242Z" fill="#283A85"/>
<path d="M136.349 247.242H136.217V278.117H136.349V247.242Z" fill="#283A85"/>
<path d="M136.439 247.242H136.306V278.117H136.439V247.242Z" fill="#283A85"/>
<path d="M136.529 247.242H136.396V278.117H136.529V247.242Z" fill="#283A85"/>
<path d="M136.619 247.242H136.486V278.117H136.619V247.242Z" fill="#283A84"/>
<path d="M136.704 247.242H136.572V278.117H136.704V247.242Z" fill="#283A84"/>
<path d="M136.794 247.242H136.662V278.117H136.794V247.242Z" fill="#283A84"/>
<path d="M136.884 247.242H136.751V278.117H136.884V247.242Z" fill="#283A84"/>
<path d="M136.97 247.242H136.837V278.117H136.97V247.242Z" fill="#283A84"/>
<path d="M137.06 247.242H136.927V278.117H137.06V247.242Z" fill="#283A84"/>
<path d="M137.149 247.242H137.017V278.117H137.149V247.242Z" fill="#283A84"/>
<path d="M137.239 247.242H137.106V278.117H137.239V247.242Z" fill="#283A84"/>
<path d="M137.325 247.242H137.192V278.117H137.325V247.242Z" fill="#283A84"/>
<path d="M137.415 247.242H137.282V278.117H137.415V247.242Z" fill="#283A84"/>
<path d="M137.504 247.242H137.372V278.117H137.504V247.242Z" fill="#283A84"/>
<path d="M137.594 247.242H137.462V278.117H137.594V247.242Z" fill="#283A84"/>
<path d="M137.684 247.242H137.552V278.117H137.684V247.242Z" fill="#283A84"/>
<path d="M137.77 247.242H137.637V278.117H137.77V247.242Z" fill="#283A84"/>
<path d="M137.86 247.242H137.727V278.117H137.86V247.242Z" fill="#283A84"/>
<path d="M137.95 247.242H137.817V278.117H137.95V247.242Z" fill="#283A83"/>
<path d="M138.039 247.242H137.907V278.117H138.039V247.242Z" fill="#283A83"/>
<path d="M138.125 247.242H137.992V278.117H138.125V247.242Z" fill="#283A83"/>
<path d="M138.215 247.242H138.082V278.117H138.215V247.242Z" fill="#283A83"/>
<path d="M138.305 247.242H138.172V278.117H138.305V247.242Z" fill="#283A83"/>
<path d="M138.394 247.242H138.262V278.117H138.394V247.242Z" fill="#283A83"/>
<path d="M138.48 247.242H138.347V278.117H138.48V247.242Z" fill="#283A83"/>
<path d="M159.056 247.242H138.437V278.117H159.056V247.242Z" fill="#283A83"/>
</g>
<path fill-rule="evenodd" clip-rule="evenodd" d="M352 213C352.791 213 353.564 213.235 354.222 213.674C354.88 214.114 355.393 214.738 355.696 215.469C355.998 216.2 356.077 217.004 355.923 217.78C355.769 218.556 355.388 219.269 354.828 219.828C354.269 220.388 353.556 220.769 352.78 220.923C352.004 221.077 351.2 220.998 350.469 220.696C349.738 220.393 349.114 219.88 348.674 219.222C348.235 218.564 348 217.791 348 217C348 215.939 348.421 214.922 349.172 214.172C349.922 213.421 350.939 213 352 213Z" fill="#F15B22"/>
<path d="M367 261.271C367 261.271 287.795 253.578 261.304 258.842C234.813 264.106 194.564 277.692 173 291C173 291 238.19 263.003 267.538 261.061C296.886 259.12 360.697 261.544 367 264.375V261.271Z" fill="#1F9DD9"/>
</svg>
