<svg width="500" height="500" viewBox="0 0 500 500" fill="none" xmlns="http://www.w3.org/2000/svg">
<rect width="500" height="500" fill="#F0F0F0"/>
<path fill-rule="evenodd" clip-rule="evenodd" d="M73.1032 221.483L107.627 187.981C110.478 185.214 114.274 183.89 118.031 184.007C115.096 190.693 101.236 204.084 94.2224 212.82C84.9828 224.327 85.9035 236.622 94.6058 248.334C90.7924 235.669 94.6549 226.194 101.158 216.185C106.45 208.038 117.313 198.902 121.66 184.582C123.809 185.208 125.831 186.341 127.521 187.981L128.229 188.668C126.633 194.89 113.274 212.973 105.196 223.297C95.5391 235.641 96.9989 249.102 105.701 260.814C101.888 248.149 105.629 235.14 112.132 225.131C117.338 217.118 127.588 207.953 132.146 192.469L137.38 197.547C134.484 205.208 124.994 221.698 117.489 232.305C114.295 236.82 110.133 246.588 109.558 252.176C108.73 260.234 111.717 269.732 117.509 276.542C113.696 263.877 116.33 248.718 122.832 238.709C128.074 230.642 136.985 217.41 141.39 201.439L162.045 221.483C167.516 226.791 167.516 235.479 162.045 240.788L127.521 274.29C122.05 279.599 113.098 279.599 107.627 274.29L73.1032 240.788C67.6323 235.479 67.6323 226.791 73.1032 221.483Z" fill="#003887"/>
<path d="M73.1032 221.483L107.627 187.981C110.478 185.214 114.274 183.89 118.031 184.007C115.096 190.693 101.236 204.084 94.2224 212.82C84.9828 224.327 85.9035 236.622 94.6058 248.334C90.7924 235.669 94.6549 226.194 101.158 216.185C106.45 208.038 117.313 198.902 121.66 184.582C123.809 185.208 125.831 186.341 127.521 187.981L128.229 188.668C126.633 194.89 113.274 212.973 105.196 223.297C95.5391 235.641 96.9989 249.102 105.701 260.814C101.888 248.149 105.629 235.14 112.132 225.131C117.338 217.118 127.588 207.953 132.146 192.469L137.38 197.547C134.484 205.208 124.994 221.698 117.489 232.305C114.295 236.82 110.133 246.588 109.558 252.176C108.73 260.234 111.717 269.732 117.509 276.542C113.696 263.877 116.33 248.718 122.832 238.709C128.074 230.642 136.985 217.41 141.39 201.439L162.045 221.483C167.516 226.791 167.516 235.479 162.045 240.788L127.521 274.29C122.05 279.599 113.098 279.599 107.627 274.29L73.1032 240.788C67.6323 235.479 67.6323 226.791 73.1032 221.483Z" fill="url(#paint0_linear_7452_1832)"/>
<path fill-rule="evenodd" clip-rule="evenodd" d="M78.5269 299.796C82.4742 300.191 84.4541 301.743 84.4541 304.414C84.4541 307.383 82.0594 308.927 77.3637 308.927C77.0001 308.927 76.3716 308.901 75.4563 308.864C74.5412 308.826 73.8186 308.8 73.2668 308.8C72.2233 308.8 71.1969 308.838 70.1963 308.914C70.0338 308.927 69.9439 308.927 69.9055 308.927C69.5933 308.927 69.418 308.813 69.418 308.653C69.418 308.493 69.619 308.384 70.0338 308.334C70.0722 308.321 70.0935 308.321 70.1065 308.321C70.5213 308.283 70.8335 308.212 71.0729 308.098C71.3981 307.938 71.6247 307.732 71.7358 307.459C71.8642 307.177 71.9239 306.706 71.9239 306.054V294.694C71.9239 294.064 71.8642 293.609 71.7358 293.34C71.6118 293.054 71.3981 292.844 71.0858 292.697C70.8335 292.6 70.5213 292.537 70.1065 292.499C70.0935 292.499 70.0722 292.499 70.0338 292.486C69.619 292.44 69.418 292.352 69.418 292.217C69.418 292.07 69.5933 291.969 69.9055 291.969C69.9439 291.969 70.0722 291.969 70.2818 291.982C71.2997 292.045 72.3003 292.07 73.2668 292.07C73.5021 292.07 73.9553 292.057 74.6054 292.02C75.2683 291.982 75.7943 291.969 76.209 291.969C80.6053 291.969 82.7008 293.264 82.7008 296.011C82.7008 297.983 81.3322 299.241 78.5269 299.796ZM74.6439 298.959C74.6439 299.611 74.7935 299.695 75.4436 299.695C78.604 299.695 79.9553 298.635 79.9553 296.208C79.9553 293.731 78.728 292.524 76.1834 292.524C75.4949 292.524 75.0716 292.575 74.8962 292.671C74.7294 292.772 74.6439 293.029 74.6439 293.462V298.959ZM74.6439 305.945C74.6439 307.606 75.4821 308.296 77.5262 308.296C78.715 308.296 79.6559 307.938 80.3573 307.211C81.0714 306.487 81.4221 305.524 81.4221 304.305C81.4221 301.533 79.7799 300.25 76.209 300.25H75.9824C75.3452 300.25 74.9561 300.288 74.8321 300.372C74.708 300.46 74.6439 300.671 74.6439 301.003V305.945ZM94.3501 302.517C92.6608 303.161 91.442 303.775 90.7278 304.38C90.0137 304.969 89.6501 305.634 89.6501 306.374C89.6501 307.522 90.3172 308.25 91.3693 308.25C92.0834 308.25 92.7463 308.014 93.3878 307.56C94.0251 307.101 94.3501 306.597 94.3501 306.054V302.517ZM94.2773 307.459C93.0586 308.594 91.4933 309.208 89.8897 309.208C88.2732 309.208 87.2724 308.321 87.2724 306.904C87.2724 306.004 87.7343 305.205 88.6494 304.527C89.5775 303.85 91.4805 302.988 94.3501 301.962V299.968C94.3501 298.623 93.5717 297.996 91.8825 297.996C90.6165 297.996 89.7784 298.437 89.6758 299.216C89.5903 299.771 89.4663 300.128 89.2995 300.288C89.1499 300.448 88.9146 300.524 88.5767 300.524C88.0379 300.524 87.6744 300.141 87.6744 299.586C87.6744 298.98 88.0721 298.475 88.8889 298.084C89.7015 297.689 90.7791 297.491 92.122 297.491C95.1412 297.491 96.531 298.417 96.531 300.397V306.807C96.531 307.682 96.8304 308.174 97.3821 308.174C97.5574 308.174 97.7584 308.098 97.985 307.938C98.2203 307.778 98.3742 307.694 98.4342 307.694C98.5838 307.694 98.6607 307.766 98.6607 307.913C98.6607 308.186 98.4342 308.468 97.985 308.779C97.5445 309.087 97.0571 309.234 96.531 309.234C95.3764 309.234 94.5126 308.544 94.2773 307.459ZM101.842 306.706V300.646C101.842 299.523 101.693 299.131 101.231 298.883C101.043 298.787 100.829 298.736 100.542 298.736C100.53 298.723 100.504 298.723 100.478 298.723C100.166 298.673 100.004 298.589 100.004 298.475C100.004 298.341 100.277 298.219 100.816 298.105C100.893 298.093 100.953 298.084 101.004 298.072C101.492 297.971 102.005 297.836 102.518 297.664C103.044 297.479 103.335 297.39 103.386 297.39C103.647 297.39 103.823 297.933 103.912 299.031C103.934 299.375 103.959 299.661 103.972 299.867C104.99 298.257 106.393 297.466 108.21 297.466C110.652 297.466 112.004 298.673 112.004 300.831V306.706C112.004 307.223 112.042 307.568 112.132 307.732C112.217 307.892 112.38 308.039 112.619 308.149C112.833 308.25 113.056 308.308 113.346 308.346C113.757 308.409 113.859 308.506 113.859 308.704C113.859 308.838 113.71 308.927 113.47 308.927C113.445 308.927 113.145 308.901 112.568 308.851C111.991 308.8 111.426 308.779 110.879 308.779C110.327 308.779 109.763 308.8 109.198 308.851C108.634 308.901 108.334 308.927 108.309 308.927C108.056 308.927 107.907 308.813 107.907 308.653C107.907 308.493 108.009 308.409 108.42 308.346C108.445 308.334 108.484 308.334 108.535 308.321C108.796 308.262 108.997 308.199 109.134 308.149C109.374 308.039 109.536 307.905 109.626 307.741C109.711 307.568 109.75 307.223 109.75 306.706V300.978C109.75 299.19 108.946 298.303 107.342 298.303C106.44 298.303 105.679 298.648 105.05 299.35C104.426 300.053 104.109 300.915 104.109 301.941V306.706C104.109 307.223 104.148 307.568 104.237 307.732C104.323 307.892 104.485 308.039 104.725 308.149C104.926 308.25 105.152 308.308 105.439 308.346C105.854 308.409 105.952 308.506 105.952 308.704C105.952 308.838 105.79 308.927 105.537 308.927C105.516 308.927 105.212 308.901 104.648 308.851C104.088 308.8 103.523 308.779 102.971 308.779C102.433 308.779 101.868 308.8 101.278 308.851C100.705 308.901 100.401 308.927 100.389 308.927C100.141 308.927 100.004 308.838 100.004 308.653C100.004 308.493 100.102 308.409 100.517 308.346C100.542 308.334 100.577 308.334 100.628 308.321C100.893 308.262 101.09 308.199 101.231 308.149C101.466 308.039 101.629 307.905 101.718 307.741C101.804 307.568 101.842 307.223 101.842 306.706ZM117.49 293.437C117.49 292.512 117.341 292.28 116.874 292.095C116.763 292.057 116.562 291.994 116.276 291.935C116.237 291.923 116.199 291.923 116.186 291.923C115.75 291.834 115.647 291.771 115.647 291.662C115.647 291.49 115.899 291.368 116.4 291.292C116.498 291.279 116.575 291.279 116.639 291.267C117.204 291.183 117.79 291.069 118.418 290.922C119.043 290.775 119.38 290.703 119.445 290.703C119.646 290.716 119.697 290.813 119.706 291.107V303.245L121.348 301.558C122.892 299.981 123.477 299.216 123.477 298.808C123.477 298.551 123.315 298.437 122.853 298.353C122.789 298.341 122.703 298.316 122.588 298.303C122.237 298.244 122.062 298.131 122.062 297.971C122.062 297.811 122.113 297.748 122.365 297.748C122.378 297.748 122.562 297.76 122.926 297.786C123.289 297.811 123.653 297.823 123.991 297.823C124.294 297.823 124.645 297.811 125.06 297.786C125.47 297.76 125.735 297.748 125.834 297.748C126.45 297.748 126.497 297.811 126.497 297.971C126.497 298.118 126.373 298.219 126.112 298.278H126.086C125.847 298.316 125.723 298.353 125.607 298.404C125.107 298.589 124.418 299.178 123.529 300.166L121.574 302.286L126.373 307.114C126.988 307.753 127.553 308.161 128.113 308.346C128.126 308.359 128.152 308.359 128.164 308.371C128.288 308.435 128.353 308.493 128.353 308.544C128.353 308.754 128.203 308.826 127.651 308.826C127.527 308.826 127.339 308.826 127.1 308.813C126.86 308.8 126.685 308.8 126.574 308.8C126.321 308.8 126.06 308.813 125.783 308.826C125.522 308.838 125.372 308.851 125.346 308.851C125.107 308.851 124.906 308.767 124.807 308.653L120.835 304.414C120.334 303.884 120.12 303.749 119.906 303.749C119.821 303.749 119.795 303.762 119.757 303.775V306.706C119.757 307.223 119.795 307.568 119.885 307.741C119.971 307.905 120.133 308.039 120.373 308.149C120.574 308.25 120.796 308.308 121.087 308.346C121.497 308.409 121.6 308.506 121.6 308.704C121.6 308.838 121.437 308.927 121.185 308.927C121.172 308.927 120.886 308.901 120.321 308.851C119.757 308.8 119.179 308.779 118.619 308.779C118.055 308.779 117.49 308.8 116.913 308.851C116.336 308.901 116.049 308.927 116.036 308.927C115.784 308.927 115.647 308.838 115.647 308.704C115.647 308.544 115.711 308.456 116.16 308.346C116.451 308.308 116.674 308.25 116.874 308.149C117.114 308.039 117.276 307.905 117.366 307.741C117.452 307.568 117.49 307.223 117.49 306.706V293.437ZM140.122 300.372C140.122 302.887 140.695 304.91 141.836 306.449C142.987 307.989 144.492 308.754 146.335 308.754C148.213 308.754 149.731 308.001 150.868 306.487C152.01 304.969 152.588 302.95 152.588 300.423C152.588 297.861 152.023 295.838 150.907 294.35C149.791 292.857 148.29 292.12 146.382 292.12C144.518 292.12 143.012 292.869 141.849 294.387C140.695 295.901 140.122 297.899 140.122 300.372ZM136.961 300.498C136.961 298.143 137.864 296.023 139.604 294.312C141.447 292.537 143.829 291.591 146.485 291.591C147.824 291.591 149.102 291.834 150.317 292.339C151.536 292.844 152.588 293.546 153.464 294.472C154.965 296.049 155.692 297.983 155.692 300.448C155.692 301.668 155.457 302.824 154.991 303.934C154.529 305.032 153.866 305.983 153.024 306.756C152.186 307.535 151.172 308.149 149.979 308.607C148.803 309.061 147.601 309.284 146.382 309.284C143.791 309.284 141.473 308.435 139.732 306.857C137.838 305.116 136.961 303.123 136.961 300.498ZM161.607 306.706C161.607 307.223 161.641 307.568 161.731 307.741C161.816 307.905 161.979 308.039 162.218 308.149C162.419 308.25 162.672 308.308 162.933 308.346C163.373 308.409 163.446 308.506 163.446 308.704C163.446 308.838 163.309 308.927 163.069 308.927C163.057 308.927 162.757 308.901 162.18 308.851C161.607 308.8 161.042 308.779 160.478 308.779C159.913 308.779 159.336 308.8 158.759 308.851C158.186 308.901 157.895 308.927 157.882 308.927C157.647 308.927 157.497 308.838 157.497 308.704C157.497 308.544 157.557 308.456 158.01 308.346C158.297 308.308 158.523 308.25 158.724 308.149C158.96 308.039 159.122 307.905 159.212 307.741C159.298 307.568 159.349 307.223 159.349 306.706V293.437C159.349 292.512 159.186 292.28 158.724 292.095C158.609 292.057 158.408 291.994 158.121 291.935C158.083 291.923 158.057 291.923 158.045 291.923C157.595 291.834 157.506 291.797 157.497 291.662C157.497 291.49 157.784 291.368 158.374 291.279C158.421 291.267 158.459 291.267 158.498 291.254C159.387 291.145 160.238 290.985 161.055 290.775C161.218 290.737 161.316 290.716 161.342 290.703C161.53 290.703 161.607 290.825 161.607 291.107V306.706ZM168.856 299.746C169.796 298.219 171.126 297.466 172.893 297.466C174.757 297.466 175.997 298.265 176.301 299.695C177.237 298.257 178.717 297.466 180.436 297.466C182.904 297.466 184.029 298.602 184.029 301.15V306.706C184.029 307.223 184.067 307.568 184.157 307.741C184.242 307.905 184.405 308.039 184.644 308.149C184.845 308.25 185.072 308.308 185.359 308.346C185.773 308.409 185.872 308.506 185.872 308.704C185.872 308.838 185.735 308.927 185.483 308.927C185.47 308.927 185.183 308.901 184.606 308.851C184.029 308.8 183.456 308.779 182.891 308.779C182.326 308.779 181.762 308.8 181.185 308.851C180.612 308.901 180.321 308.927 180.308 308.927C180.06 308.927 179.919 308.838 179.919 308.704C179.919 308.544 179.983 308.456 180.436 308.346C180.723 308.308 180.949 308.25 181.151 308.149C181.386 308.039 181.548 307.905 181.638 307.741C181.724 307.568 181.762 307.223 181.762 306.706V300.78C181.762 299.152 180.997 298.303 179.534 298.303C178.619 298.303 177.879 298.635 177.34 299.291C176.801 299.943 176.536 300.843 176.536 301.962V306.706C176.536 307.223 176.575 307.568 176.664 307.741C176.75 307.905 176.912 308.039 177.152 308.149C177.366 308.25 177.601 308.308 177.841 308.346C178.255 308.409 178.354 308.506 178.354 308.704C178.354 308.838 178.217 308.927 177.965 308.927C177.952 308.927 177.665 308.901 177.101 308.851C176.536 308.8 175.963 308.779 175.399 308.779C174.834 308.779 174.27 308.8 173.692 308.851C173.119 308.901 172.828 308.927 172.816 308.927C172.568 308.927 172.426 308.838 172.426 308.704C172.426 308.544 172.491 308.456 172.944 308.346C173.192 308.308 173.406 308.25 173.645 308.136C173.88 308.039 174.043 307.905 174.133 307.732C174.218 307.547 174.27 307.211 174.27 306.706V300.78C174.27 299.152 173.504 298.303 172.042 298.303C171.126 298.303 170.387 298.635 169.835 299.291C169.296 299.943 169.018 300.843 169.018 301.962V306.706C169.018 307.223 169.056 307.568 169.146 307.741C169.232 307.905 169.394 308.039 169.634 308.149C169.835 308.25 170.061 308.308 170.348 308.346C170.763 308.409 170.861 308.506 170.861 308.704C170.861 308.838 170.712 308.927 170.472 308.927C170.459 308.927 170.173 308.901 169.595 308.851C169.018 308.8 168.445 308.779 167.88 308.779C167.316 308.779 166.751 308.8 166.174 308.851C165.601 308.901 165.31 308.927 165.297 308.927C165.049 308.927 164.913 308.838 164.913 308.704C164.913 308.544 164.972 308.456 165.426 308.346C165.712 308.308 165.939 308.25 166.14 308.149C166.375 308.039 166.538 307.905 166.627 307.741C166.713 307.568 166.751 307.223 166.751 306.706V300.646C166.751 300.053 166.7 299.636 166.615 299.401C166.525 299.152 166.375 298.967 166.14 298.858C165.999 298.795 165.789 298.749 165.486 298.711H165.451C165.011 298.66 164.934 298.61 164.934 298.475C164.934 298.341 165.212 298.219 165.751 298.105C165.823 298.093 165.875 298.084 165.913 298.072C166.401 297.971 166.901 297.836 167.427 297.664C167.966 297.479 168.27 297.39 168.342 297.39C168.505 297.39 168.62 297.529 168.68 297.798C168.744 298.059 168.808 298.711 168.856 299.746ZM194.566 302.517C192.877 303.161 191.658 303.775 190.944 304.38C190.23 304.969 189.866 305.634 189.866 306.374C189.866 307.522 190.533 308.25 191.585 308.25C192.299 308.25 192.962 308.014 193.604 307.56C194.241 307.101 194.566 306.597 194.566 306.054V302.517ZM194.493 307.459C193.274 308.594 191.709 309.208 190.106 309.208C188.489 309.208 187.488 308.321 187.488 306.904C187.488 306.004 187.95 305.205 188.865 304.527C189.793 303.85 191.696 302.988 194.566 301.962V299.968C194.566 298.623 193.788 297.996 192.098 297.996C190.832 297.996 189.994 298.437 189.892 299.216C189.806 299.771 189.682 300.128 189.515 300.288C189.366 300.448 189.131 300.524 188.793 300.524C188.254 300.524 187.89 300.141 187.89 299.586C187.89 298.98 188.288 298.475 189.105 298.084C189.917 297.689 190.995 297.491 192.338 297.491C195.357 297.491 196.747 298.417 196.747 300.397V306.807C196.747 307.682 197.046 308.174 197.598 308.174C197.773 308.174 197.974 308.098 198.201 307.938C198.436 307.778 198.59 307.694 198.65 307.694C198.8 307.694 198.877 307.766 198.877 307.913C198.877 308.186 198.65 308.468 198.201 308.779C197.76 309.087 197.273 309.234 196.747 309.234C195.592 309.234 194.728 308.544 194.493 307.459ZM206.532 306.327L208.939 300.524C209.187 299.943 209.324 299.464 209.324 299.106C209.324 298.711 209.102 298.488 208.55 298.353C208.473 298.341 208.362 298.316 208.2 298.29C207.909 298.257 207.759 298.181 207.759 298.046C207.759 297.887 207.934 297.773 208.225 297.773C208.298 297.773 208.512 297.786 208.849 297.823C209.2 297.861 209.512 297.874 209.79 297.874C210.051 297.874 210.342 297.861 210.629 297.823C210.919 297.786 211.082 297.773 211.095 297.773C211.407 297.773 211.582 297.887 211.582 298.046C211.582 298.143 211.467 298.231 211.232 298.316C211.082 298.366 210.966 298.417 210.894 298.45C210.53 298.648 210.227 299.106 209.816 300.09L206.532 307.938L206.467 308.085C204.252 313.359 202.747 315.997 201.96 315.997C201.545 315.997 201.272 315.69 201.272 315.235C201.272 314.731 201.635 314.31 202.349 313.99C202.649 313.856 202.849 313.73 202.961 313.646C203.123 313.511 203.299 313.275 203.487 312.943C203.675 312.611 203.966 312.043 204.325 311.244C204.363 311.156 204.428 311.021 204.505 310.861C205.031 309.738 205.291 309.011 205.291 308.704C205.291 308.493 205.219 308.237 205.018 307.741L201.656 300.006C201.648 299.968 201.622 299.918 201.596 299.855C201.272 299.106 200.942 298.66 200.604 298.501C200.455 298.437 200.181 298.366 200.13 298.353C199.779 298.29 199.681 298.206 199.681 298.021C199.681 297.887 199.942 297.748 200.292 297.748C200.305 297.748 200.545 297.773 200.981 297.811C201.434 297.849 201.87 297.874 202.298 297.874C202.721 297.874 203.226 297.849 203.799 297.811C204.376 297.773 204.74 297.748 204.889 297.748C205.193 297.748 205.428 297.887 205.428 298.046C205.428 298.181 205.24 298.265 204.855 298.328C204.765 298.341 204.701 298.341 204.654 298.353C203.987 298.463 203.752 298.673 203.752 299.081C203.765 299.291 203.825 299.523 203.94 299.821L206.532 306.327ZM219.998 302.517C218.309 303.161 217.09 303.775 216.376 304.38C215.662 304.969 215.299 305.634 215.299 306.374C215.299 307.522 215.966 308.25 217.018 308.25C217.732 308.25 218.395 308.014 219.036 307.56C219.673 307.101 219.998 306.597 219.998 306.054V302.517ZM219.926 307.459C218.707 308.594 217.142 309.208 215.538 309.208C213.921 309.208 212.921 308.321 212.921 306.904C212.921 306.004 213.383 305.205 214.298 304.527C215.226 303.85 217.129 302.988 219.998 301.962V299.968C219.998 298.623 219.22 297.996 217.531 297.996C216.265 297.996 215.427 298.437 215.324 299.216C215.239 299.771 215.115 300.128 214.948 300.288C214.798 300.448 214.563 300.524 214.225 300.524C213.686 300.524 213.323 300.141 213.323 299.586C213.323 298.98 213.721 298.475 214.537 298.084C215.35 297.689 216.428 297.491 217.77 297.491C220.79 297.491 222.179 298.417 222.179 300.397V306.807C222.179 307.682 222.479 308.174 223.03 308.174C223.206 308.174 223.407 308.098 223.633 307.938C223.869 307.778 224.023 307.694 224.082 307.694C224.232 307.694 224.309 307.766 224.309 307.913C224.309 308.186 224.082 308.468 223.633 308.779C223.193 309.087 222.706 309.234 222.179 309.234C221.025 309.234 220.161 308.544 219.926 307.459ZM227.491 306.706V300.646C227.491 299.523 227.341 299.131 226.879 298.883C226.691 298.787 226.477 298.736 226.191 298.736C226.178 298.723 226.152 298.723 226.127 298.723C225.815 298.673 225.652 298.589 225.652 298.475C225.652 298.341 225.926 298.219 226.464 298.105C226.541 298.093 226.601 298.084 226.653 298.072C227.14 297.971 227.653 297.836 228.167 297.664C228.693 297.479 228.983 297.39 229.035 297.39C229.296 297.39 229.471 297.933 229.561 299.031C229.582 299.375 229.608 299.661 229.621 299.867C230.638 298.257 232.041 297.466 233.859 297.466C236.301 297.466 237.652 298.673 237.652 300.831V306.706C237.652 307.223 237.69 307.568 237.78 307.732C237.866 307.892 238.028 308.039 238.268 308.149C238.482 308.25 238.704 308.308 238.995 308.346C239.405 308.409 239.508 308.506 239.508 308.704C239.508 308.838 239.358 308.927 239.119 308.927C239.093 308.927 238.794 308.901 238.216 308.851C237.639 308.8 237.075 308.779 236.527 308.779C235.975 308.779 235.411 308.8 234.847 308.851C234.282 308.901 233.983 308.927 233.957 308.927C233.705 308.927 233.555 308.813 233.555 308.653C233.555 308.493 233.658 308.409 234.068 308.346C234.094 308.334 234.132 308.334 234.184 308.321C234.444 308.262 234.646 308.199 234.782 308.149C235.022 308.039 235.184 307.905 235.274 307.741C235.36 307.568 235.398 307.223 235.398 306.706V300.978C235.398 299.19 234.594 298.303 232.991 298.303C232.088 298.303 231.327 298.648 230.698 299.35C230.074 300.053 229.757 300.915 229.757 301.941V306.706C229.757 307.223 229.796 307.568 229.886 307.732C229.971 307.892 230.134 308.039 230.373 308.149C230.574 308.25 230.801 308.308 231.087 308.346C231.502 308.409 231.601 308.506 231.601 308.704C231.601 308.838 231.438 308.927 231.186 308.927C231.164 308.927 230.861 308.901 230.296 308.851C229.736 308.8 229.172 308.779 228.62 308.779C228.081 308.779 227.516 308.8 226.926 308.851C226.353 308.901 226.05 308.927 226.037 308.927C225.789 308.927 225.652 308.838 225.652 308.653C225.652 308.493 225.75 308.409 226.165 308.346C226.191 308.334 226.225 308.334 226.276 308.321C226.541 308.262 226.738 308.199 226.879 308.149C227.115 308.039 227.277 307.905 227.367 307.741C227.452 307.568 227.491 307.223 227.491 306.706ZM254.052 302.37V306.054C254.052 306.706 254.116 307.177 254.228 307.459C254.352 307.732 254.578 307.938 254.903 308.098C255.143 308.212 255.455 308.283 255.87 308.321C255.883 308.321 255.908 308.321 255.934 308.334C256.344 308.384 256.558 308.493 256.558 308.653C256.558 308.813 256.383 308.927 256.071 308.927C256.032 308.927 255.947 308.927 255.78 308.914C254.779 308.838 253.753 308.8 252.714 308.8C251.67 308.8 250.657 308.838 249.656 308.914C249.494 308.927 249.391 308.927 249.352 308.927C249.053 308.927 248.891 308.813 248.891 308.653C248.891 308.493 249.104 308.397 249.519 308.334C249.553 308.321 249.566 308.321 249.579 308.321C250.02 308.283 250.306 308.224 250.571 308.085C250.871 307.951 251.084 307.741 251.196 307.484C251.32 307.211 251.384 306.731 251.384 306.054V294.694C251.384 294.043 251.32 293.584 251.196 293.315C251.084 293.042 250.871 292.831 250.558 292.697C250.306 292.6 249.994 292.537 249.579 292.499C249.566 292.499 249.541 292.499 249.506 292.486C249.092 292.428 248.891 292.339 248.891 292.217C248.891 292.07 249.079 291.969 249.378 291.969C249.442 291.969 249.579 291.969 249.793 291.982C250.794 292.045 251.773 292.07 252.714 292.07C253.74 292.07 254.767 292.045 255.793 291.982C255.955 291.969 256.058 291.969 256.096 291.969C256.396 291.969 256.558 292.045 256.558 292.192C256.558 292.314 256.383 292.415 256.045 292.474C256.007 292.486 255.968 292.486 255.947 292.499C255.707 292.499 255.442 292.537 255.104 292.625C254.343 292.831 254.052 293.349 254.052 294.694V301.533C255.994 299.624 257.551 297.933 258.714 296.457C259.877 294.964 260.467 293.967 260.467 293.437C260.467 292.907 260.116 292.613 259.415 292.524C259.329 292.524 259.304 292.512 259.253 292.499C258.615 292.465 258.513 292.39 258.513 292.192C258.513 292.045 258.662 291.969 259 291.969C259.188 291.969 259.552 291.982 260.078 292.02C260.604 292.057 261.032 292.07 261.357 292.07C261.746 292.07 262.199 292.057 262.712 292.02C263.238 291.982 263.563 291.969 263.7 291.969C264.038 291.969 264.188 292.045 264.188 292.242C264.188 292.327 264.089 292.415 263.888 292.474C263.863 292.486 263.837 292.486 263.824 292.499C263.311 292.499 262.9 292.646 262.486 292.983C262.22 293.176 261.519 293.979 260.382 295.384C259.24 296.789 258.252 297.983 257.384 298.98L263.161 305.856C263.2 305.894 263.251 305.957 263.324 306.041C264.478 307.383 265.317 308.136 265.83 308.296C265.92 308.321 266.044 308.346 266.219 308.371C266.505 308.422 266.647 308.506 266.647 308.628C266.647 308.838 266.544 308.927 266.232 308.927C265.252 308.838 264.517 308.8 264.025 308.8C262.811 308.8 261.493 308.838 260.078 308.914C259.693 308.939 259.441 308.952 259.342 308.952C258.953 308.952 258.778 308.864 258.765 308.679C258.765 308.531 258.987 308.435 259.441 308.371C259.603 308.359 259.727 308.334 259.817 308.321C260.655 308.212 260.869 308.027 260.869 307.593C260.869 307.017 259.766 305.486 257.409 302.74L255.771 300.831L254.052 302.37ZM272.091 300.065C272.796 298.551 274.161 297.651 275.751 297.651C276.915 297.651 277.706 298.194 277.706 298.98C277.706 299.611 277.368 299.994 276.829 299.994C276.427 299.994 276.179 299.821 275.991 299.438C275.965 299.388 275.927 299.312 275.888 299.228C275.687 298.761 275.336 298.526 274.836 298.526C274.071 298.526 273.459 298.845 272.972 299.476C272.48 300.103 272.245 300.915 272.245 301.941V306.706C272.245 307.223 272.279 307.568 272.369 307.741C272.454 307.905 272.621 308.039 272.856 308.149C273.057 308.25 273.309 308.308 273.57 308.346C273.985 308.409 274.084 308.506 274.084 308.704C274.084 308.838 273.947 308.927 273.707 308.927C273.699 308.927 273.395 308.901 272.818 308.851C272.245 308.8 271.68 308.779 271.116 308.779C270.551 308.779 269.974 308.8 269.401 308.851C268.823 308.901 268.533 308.927 268.524 308.927C268.285 308.927 268.135 308.838 268.135 308.704C268.135 308.544 268.195 308.456 268.648 308.346C268.935 308.308 269.161 308.25 269.362 308.149C269.597 308.039 269.764 307.905 269.85 307.741C269.94 307.568 269.987 307.223 269.987 306.706V300.902C269.987 299.624 269.726 299.056 269.059 298.808C268.875 298.749 268.699 298.711 268.285 298.711C267.797 298.711 267.72 298.623 267.72 298.429C267.72 298.278 267.947 298.168 268.661 298.021C269.311 297.899 269.94 297.76 270.538 297.601C271.141 297.441 271.505 297.369 271.616 297.369C271.74 297.369 271.855 297.899 271.967 298.967C272.005 299.413 272.056 299.783 272.091 300.065ZM281.965 301.226H287.204C287.542 301.226 287.666 301.075 287.666 300.646C287.666 299.842 287.439 299.203 286.977 298.723C286.515 298.244 285.912 297.996 285.147 297.996C283.445 297.996 282.264 299.203 281.965 301.226ZM281.816 301.962C281.751 302.357 281.713 302.79 281.713 303.219C281.713 304.712 282.102 305.92 282.868 306.866C283.633 307.804 284.621 308.271 285.835 308.271C286.952 308.271 287.717 307.964 288.555 307.211C288.619 307.152 288.705 307.064 288.807 306.954C288.996 306.756 289.145 306.66 289.282 306.66C289.432 306.66 289.535 306.769 289.535 306.929C289.535 307.434 289.081 307.951 288.192 308.468C287.302 308.973 286.263 309.234 285.074 309.234C283.355 309.234 281.927 308.704 280.811 307.631C279.699 306.559 279.147 305.23 279.147 303.627C279.147 302.05 279.746 300.511 280.836 299.338C282.029 298.072 283.432 297.466 285.198 297.466C286.524 297.466 287.653 297.861 288.594 298.648C289.535 299.426 289.996 300.351 289.996 301.411C289.996 301.853 289.932 301.962 289.334 301.962H281.816Z" fill="#003483"/>
<path fill-rule="evenodd" clip-rule="evenodd" d="M301.727 307.211C300.521 308.582 299.281 309.183 297.677 309.183C296.061 309.183 294.722 308.653 293.657 307.581C292.593 306.508 292.054 305.167 292.054 303.577C292.054 301.84 292.58 300.385 293.632 299.241C294.684 298.093 296.001 297.516 297.592 297.516C299.157 297.516 300.508 298.084 301.424 299.106V292.798C301.424 292.154 301.287 291.923 300.825 291.763C300.65 291.7 300.372 291.662 300.008 291.624C299.645 291.591 299.469 291.502 299.469 291.342C299.469 291.183 299.683 291.094 300.111 291.069C300.312 291.061 300.474 291.048 300.598 291.035C301.21 290.985 301.813 290.922 302.429 290.838C303.04 290.749 303.365 290.703 303.391 290.703C303.605 290.703 303.707 290.813 303.707 291.061V305.92C303.707 306.916 303.942 307.446 304.494 307.741C304.708 307.842 304.935 307.892 305.234 307.892C305.67 307.938 305.721 307.989 305.734 308.149C305.734 308.283 305.486 308.409 304.982 308.506C304.845 308.531 304.746 308.557 304.657 308.569C304.22 308.666 303.754 308.788 303.254 308.952C302.754 309.112 302.463 309.183 302.39 309.183C302.253 309.183 302.138 309.061 302.052 308.813C301.962 308.569 301.851 308.039 301.727 307.211ZM301.501 301.457C301.501 299.438 300.248 298.231 298.191 298.231C297.079 298.231 296.202 298.698 295.548 299.636C294.898 300.57 294.573 301.84 294.573 303.455C294.573 305.007 294.885 306.227 295.509 307.114C296.151 308.001 297.015 308.443 298.105 308.443C299.157 308.443 299.982 308.123 300.585 307.497C301.201 306.857 301.501 305.983 301.501 304.885V301.457ZM308.531 292.192C308.531 291.464 309.117 290.888 309.857 290.888C310.22 290.888 310.524 291.01 310.785 291.267C311.05 291.527 311.174 291.834 311.174 292.192C311.174 292.92 310.597 293.487 309.857 293.487C309.117 293.487 308.531 292.92 308.531 292.192ZM308.993 299.842C308.993 299.165 308.869 298.967 308.505 298.833C308.356 298.774 308.168 298.736 307.753 298.736C307.74 298.736 307.702 298.736 307.667 298.723C307.364 298.698 307.214 298.635 307.214 298.526C307.227 298.391 307.428 298.278 307.817 298.219C308.005 298.181 308.155 298.156 308.266 298.131C308.856 298.009 309.446 297.849 310.032 297.651C310.622 297.441 310.922 297.344 310.96 297.344C311.161 297.344 311.251 297.466 311.251 297.727V306.706C311.251 307.223 311.285 307.568 311.375 307.741C311.461 307.905 311.623 308.039 311.863 308.149C312.063 308.25 312.316 308.308 312.577 308.346C313.017 308.409 313.09 308.506 313.09 308.704C313.09 308.838 312.927 308.927 312.688 308.927C312.679 308.927 312.376 308.901 311.811 308.851C311.251 308.8 310.686 308.779 310.122 308.779C309.558 308.779 308.98 308.8 308.403 308.851C307.83 308.901 307.539 308.927 307.526 308.927C307.291 308.927 307.141 308.838 307.141 308.704C307.141 308.544 307.201 308.456 307.654 308.346C307.941 308.308 308.168 308.25 308.369 308.149C308.604 308.039 308.766 307.892 308.856 307.72C308.942 307.547 308.993 307.211 308.993 306.706V299.842ZM315.758 298.526H314.967C314.629 298.526 314.48 298.45 314.48 298.303C314.48 298.231 314.681 298.046 315.096 297.748C315.506 297.441 315.882 297.121 316.195 296.789C316.545 296.419 316.862 296.011 317.135 295.569C317.426 295.111 317.602 294.892 317.687 294.892C317.85 294.892 317.914 294.989 317.914 295.25V297.773H320.27C320.92 297.773 321.019 297.861 321.019 298.156C321.019 298.417 320.809 298.526 320.245 298.526H317.939V306.13C317.939 307.72 318.44 308.397 319.582 308.397C320.043 308.397 320.471 308.199 320.83 307.791C321.207 307.383 321.433 307.19 321.51 307.19C321.673 307.19 321.81 307.35 321.81 307.535C321.81 307.913 321.51 308.283 320.895 308.641C320.283 308.986 319.569 309.158 318.739 309.158C317.649 309.158 316.887 308.927 316.434 308.456C315.985 307.976 315.758 307.164 315.758 306.004V298.526ZM339.728 306.054C339.728 306.706 339.792 307.177 339.929 307.459C340.066 307.741 340.306 307.951 340.656 308.098C340.896 308.212 341.259 308.283 341.747 308.321H341.785H341.832C342.273 308.384 342.499 308.493 342.499 308.653C342.499 308.813 342.299 308.927 341.986 308.927C341.948 308.927 341.845 308.927 341.683 308.914C340.618 308.838 339.515 308.8 338.39 308.8C337.274 308.8 336.17 308.838 335.08 308.914C334.917 308.927 334.819 308.927 334.78 308.927C334.468 308.927 334.293 308.813 334.293 308.653C334.293 308.493 334.515 308.384 334.956 308.321H335.007H335.041C335.533 308.283 335.897 308.212 336.132 308.098C336.482 307.951 336.722 307.741 336.859 307.459C336.996 307.177 337.06 306.706 337.06 306.054V293.328C337.06 293.029 336.974 292.831 336.799 292.722C336.624 292.613 336.222 292.549 335.593 292.549H334.567C333.151 292.549 332.163 292.625 331.599 292.785C331.034 292.932 330.619 293.189 330.358 293.559C330.145 293.87 330.008 294.299 329.918 294.854C329.832 295.409 329.73 295.679 329.619 295.679C329.456 295.679 329.392 295.594 329.392 295.25V292.402C329.392 291.956 329.567 291.822 330.132 291.822C330.196 291.822 330.418 291.822 330.782 291.834C333.241 291.944 335.768 291.994 338.39 291.994C341.007 291.994 343.552 291.944 346.006 291.834C346.37 291.822 346.596 291.822 346.656 291.822C347.221 291.822 347.37 291.944 347.37 292.402V295.25C347.37 295.641 347.323 295.679 347.169 295.679C347.058 295.679 346.947 295.397 346.844 294.842C346.759 294.286 346.609 293.857 346.395 293.559C346.143 293.176 345.741 292.92 345.181 292.772C344.629 292.625 343.449 292.549 341.631 292.549H341.195C340.545 292.549 340.13 292.6 339.968 292.709C339.805 292.819 339.728 293.016 339.728 293.328V306.054ZM354.149 309.221C354.187 309.221 354.239 309.221 354.286 309.208C354.448 309.221 354.623 309.234 354.786 309.234C355.175 309.234 355.466 309.171 355.675 309.124C356.454 308.973 357.292 308.468 358.182 307.593C359.323 306.5 359.888 305.095 359.888 303.379C359.888 301.63 359.375 300.212 358.335 299.119C357.292 298.021 356.09 297.466 354.726 297.466C353.862 297.466 352.896 297.638 351.856 297.996C351.544 298.105 351.356 298.156 351.266 298.156C351.168 298.156 351.04 298.093 350.903 297.971C350.766 297.836 350.676 297.773 350.629 297.773C350.492 297.773 350.428 297.861 350.428 298.046L350.338 300.881C350.351 301.066 350.415 301.15 350.552 301.15C350.668 301.15 350.766 301.003 350.864 300.709C350.98 300.397 351.078 300.179 351.168 300.015C351.929 298.589 353.045 297.945 354.388 297.945C355.252 297.945 356.005 298.429 356.655 299.375C357.142 300.166 357.433 301.201 357.519 302.471H349.551C348.949 302.471 348.889 302.58 348.889 303.022C348.876 303.034 348.876 303.148 348.876 303.346C348.735 305.057 349.239 306.462 350.403 307.568C351.416 308.531 352.669 309.074 354.149 309.208L354.149 309.221ZM352.006 307.324C351.369 306.437 351.117 305.192 351.228 303.59C351.241 303.48 351.279 303.405 351.318 303.346C351.39 303.257 351.519 303.207 351.681 303.207H357.544V303.245C357.544 303.627 357.531 303.838 357.531 304.048L357.506 304.637C357.382 306.029 357.018 307.064 356.402 307.72C355.889 308.271 355.188 308.594 354.273 308.679C353.349 308.582 352.596 308.123 352.006 307.324ZM362.304 313.448L362.745 312.485C363.745 313.04 364.776 313.372 365.537 313.372C366.602 313.372 367.081 313.015 367.081 312.228C367.081 311.538 366.542 311.118 365.64 311.118C365.426 311.118 365.161 311.143 364.874 311.194V308.876H365.665V310.256C365.926 310.218 366.191 310.193 366.427 310.184C367.881 310.184 368.719 310.933 368.719 312.203C368.719 313.545 367.68 314.373 365.978 314.373C365.511 314.373 365.011 314.297 364.447 314.163C363.886 314.028 363.172 313.78 362.304 313.448ZM362.043 305.646C362.043 305.499 362.141 305.364 362.257 305.364C362.368 305.364 362.467 305.524 362.556 305.831C362.642 306.142 362.745 306.386 362.843 306.584C363.544 308.001 364.459 308.653 365.712 308.653C366.341 308.653 366.867 308.468 367.291 308.098C367.731 307.732 367.945 307.286 367.945 306.756C367.945 305.957 367.128 305.116 365.511 304.254C365.439 304.22 365.375 304.183 365.336 304.157C364.173 303.552 363.348 302.988 362.881 302.446C362.42 301.89 362.18 301.26 362.18 300.545C362.18 299.636 362.479 298.896 363.082 298.328C363.685 297.748 364.472 297.466 365.439 297.466C365.828 297.466 366.251 297.542 366.705 297.676C367.154 297.811 367.419 297.874 367.491 297.874C367.705 297.874 367.919 297.811 368.12 297.702C368.321 297.575 368.432 297.516 368.458 297.516C368.569 297.516 368.672 297.651 368.672 297.798V300.372C368.672 300.536 368.595 300.646 368.458 300.646C368.334 300.646 368.193 300.486 368.056 300.153C367.983 299.968 367.906 299.809 367.842 299.682C367.243 298.551 366.491 298.021 365.49 298.021C364.434 298.021 363.72 298.589 363.72 299.413C363.72 299.809 363.835 300.153 364.07 300.435C364.31 300.717 364.9 301.125 365.849 301.655C366.029 301.768 366.401 301.962 366.978 302.273C367.556 302.568 367.992 302.816 368.283 303.022C369.121 303.615 369.536 304.527 369.536 305.747C369.536 306.845 369.198 307.694 368.509 308.321C367.829 308.952 366.893 309.259 365.687 309.259C365.024 309.259 364.31 309.087 363.544 308.729C363.322 308.615 363.181 308.569 363.121 308.569C363.005 308.569 362.856 308.641 362.668 308.8C362.479 308.952 362.342 309.023 362.257 309.023C362.116 309.023 362.043 308.914 362.043 308.8V305.646ZM373.431 293.437C373.431 292.512 373.282 292.28 372.816 292.095C372.705 292.057 372.503 291.994 372.217 291.935C372.179 291.923 372.14 291.923 372.127 291.923C371.691 291.834 371.588 291.771 371.588 291.662C371.588 291.49 371.841 291.368 372.341 291.292C372.439 291.279 372.516 291.279 372.58 291.267C373.145 291.183 373.731 291.069 374.36 290.922C374.984 290.775 375.322 290.703 375.386 290.703C375.587 290.716 375.638 290.813 375.647 291.107V303.245L377.289 301.558C378.833 299.981 379.419 299.216 379.419 298.808C379.419 298.551 379.256 298.437 378.794 298.353C378.73 298.341 378.645 298.316 378.529 298.303C378.178 298.244 378.003 298.131 378.003 297.971C378.003 297.811 378.054 297.748 378.307 297.748C378.319 297.748 378.503 297.76 378.867 297.786C379.23 297.811 379.594 297.823 379.932 297.823C380.235 297.823 380.586 297.811 381.001 297.786C381.412 297.76 381.677 297.748 381.775 297.748C382.391 297.748 382.438 297.811 382.438 297.971C382.438 298.118 382.314 298.219 382.053 298.278H382.027C381.788 298.316 381.664 298.353 381.548 298.404C381.048 298.589 380.36 299.178 379.47 300.166L377.516 302.286L382.314 307.114C382.93 307.753 383.494 308.161 384.054 308.346C384.067 308.359 384.093 308.359 384.106 308.371C384.23 308.435 384.294 308.493 384.294 308.544C384.294 308.754 384.144 308.826 383.593 308.826C383.469 308.826 383.28 308.826 383.041 308.813C382.801 308.8 382.626 308.8 382.515 308.8C382.263 308.8 382.002 308.813 381.724 308.826C381.463 308.838 381.313 308.851 381.288 308.851C381.048 308.851 380.847 308.767 380.749 308.653L376.776 304.414C376.275 303.884 376.062 303.749 375.848 303.749C375.762 303.749 375.737 303.762 375.698 303.775V306.706C375.698 307.223 375.737 307.568 375.827 307.741C375.912 307.905 376.075 308.039 376.314 308.149C376.515 308.25 376.737 308.308 377.028 308.346C377.439 308.409 377.541 308.506 377.541 308.704C377.541 308.838 377.379 308.927 377.127 308.927C377.114 308.927 376.827 308.901 376.263 308.851C375.698 308.8 375.121 308.779 374.561 308.779C373.996 308.779 373.432 308.8 372.854 308.851C372.277 308.901 371.99 308.927 371.978 308.927C371.725 308.927 371.588 308.838 371.588 308.704C371.588 308.544 371.653 308.456 372.102 308.346C372.392 308.308 372.615 308.25 372.816 308.149C373.055 308.039 373.218 307.905 373.308 307.741C373.393 307.568 373.432 307.223 373.432 306.706L373.431 293.437ZM386.676 292.192C386.676 291.464 387.262 290.888 388.002 290.888C388.365 290.888 388.669 291.01 388.93 291.267C389.195 291.527 389.319 291.834 389.319 292.192C389.319 292.92 388.741 293.487 388.002 293.487C387.262 293.487 386.676 292.92 386.676 292.192ZM387.138 299.842C387.138 299.165 387.014 298.967 386.65 298.833C386.501 298.774 386.312 298.736 385.898 298.736C385.885 298.736 385.846 298.736 385.812 298.723C385.508 298.698 385.359 298.635 385.359 298.526C385.372 298.391 385.573 298.278 385.962 298.219C386.15 298.181 386.3 298.156 386.411 298.131C387.001 298.009 387.591 297.849 388.177 297.651C388.767 297.441 389.066 297.344 389.105 297.344C389.306 297.344 389.396 297.466 389.396 297.727V306.706C389.396 307.223 389.43 307.568 389.52 307.741C389.605 307.905 389.768 308.039 390.007 308.149C390.208 308.25 390.461 308.308 390.721 308.346C391.162 308.409 391.235 308.506 391.235 308.704C391.235 308.838 391.072 308.927 390.833 308.927C390.824 308.927 390.521 308.901 389.956 308.851C389.396 308.8 388.831 308.779 388.267 308.779C387.702 308.779 387.125 308.8 386.548 308.851C385.974 308.901 385.684 308.927 385.671 308.927C385.436 308.927 385.286 308.838 385.286 308.704C385.286 308.544 385.346 308.456 385.799 308.346C386.086 308.308 386.312 308.25 386.513 308.149C386.749 308.039 386.911 307.892 387.001 307.72C387.086 307.547 387.138 307.211 387.138 306.706V299.842ZM396.473 306.706C396.473 307.223 396.508 307.568 396.597 307.741C396.683 307.905 396.845 308.039 397.085 308.149C397.286 308.25 397.538 308.308 397.799 308.346C398.24 308.409 398.312 308.506 398.312 308.704C398.312 308.838 398.175 308.927 397.936 308.927C397.923 308.927 397.624 308.901 397.046 308.851C396.473 308.8 395.909 308.779 395.344 308.779C394.78 308.779 394.202 308.8 393.625 308.851C393.052 308.901 392.761 308.927 392.748 308.927C392.513 308.927 392.364 308.838 392.364 308.704C392.364 308.544 392.424 308.456 392.877 308.346C393.163 308.308 393.39 308.25 393.591 308.149C393.826 308.039 393.989 307.905 394.079 307.741C394.164 307.568 394.215 307.223 394.215 306.706V293.437C394.215 292.512 394.053 292.28 393.591 292.095C393.476 292.057 393.274 291.994 392.988 291.935C392.95 291.923 392.924 291.923 392.911 291.923C392.462 291.834 392.372 291.797 392.364 291.662C392.364 291.49 392.65 291.368 393.24 291.279C393.287 291.267 393.326 291.267 393.364 291.254C394.254 291.145 395.105 290.985 395.922 290.775C396.084 290.737 396.183 290.716 396.208 290.703C396.396 290.703 396.473 290.825 396.473 291.107V306.706ZM406.805 302.517C405.116 303.161 403.897 303.775 403.183 304.38C402.469 304.969 402.106 305.634 402.106 306.374C402.106 307.522 402.773 308.25 403.825 308.25C404.539 308.25 405.202 308.014 405.843 307.56C406.48 307.101 406.805 306.597 406.805 306.054V302.517ZM406.733 307.459C405.514 308.594 403.949 309.208 402.345 309.208C400.729 309.208 399.728 308.321 399.728 306.904C399.728 306.004 400.19 305.205 401.105 304.527C402.033 303.85 403.936 302.988 406.805 301.962V299.968C406.805 298.623 406.027 297.996 404.338 297.996C403.072 297.996 402.234 298.437 402.131 299.216C402.046 299.771 401.922 300.128 401.755 300.288C401.605 300.448 401.37 300.524 401.032 300.524C400.493 300.524 400.13 300.141 400.13 299.586C400.13 298.98 400.528 298.475 401.344 298.084C402.157 297.689 403.234 297.491 404.577 297.491C407.597 297.491 408.986 298.417 408.986 300.397V306.807C408.986 307.682 409.286 308.174 409.838 308.174C410.013 308.174 410.214 308.098 410.44 307.938C410.676 307.778 410.83 307.694 410.89 307.694C411.039 307.694 411.116 307.766 411.116 307.913C411.116 308.186 410.89 308.468 410.44 308.779C410 309.087 409.513 309.234 408.986 309.234C407.832 309.234 406.968 308.544 406.733 307.459ZM413.635 298.526H412.844C412.506 298.526 412.356 298.45 412.356 298.303C412.356 298.231 412.557 298.046 412.972 297.748C413.383 297.441 413.759 297.121 414.071 296.789C414.422 296.419 414.738 296.011 415.012 295.569C415.303 295.111 415.478 294.892 415.564 294.892C415.726 294.892 415.79 294.989 415.79 295.25V297.773H418.147C418.797 297.773 418.895 297.861 418.895 298.156C418.895 298.417 418.686 298.526 418.121 298.526H415.816V306.13C415.816 307.72 416.316 308.397 417.458 308.397C417.92 308.397 418.348 308.199 418.707 307.791C419.083 307.383 419.31 307.19 419.387 307.19C419.549 307.19 419.686 307.35 419.686 307.535C419.686 307.913 419.387 308.283 418.771 308.641C418.16 308.986 417.445 309.158 416.616 309.158C415.525 309.158 414.764 308.927 414.311 308.456C413.862 307.976 413.635 307.164 413.635 306.004V298.526ZM422.368 299.842C422.368 299.165 422.244 298.967 421.88 298.833C421.73 298.774 421.542 298.736 421.127 298.736C421.115 298.736 421.076 298.736 421.042 298.723C420.738 298.698 420.589 298.635 420.589 298.526C420.601 298.391 420.803 298.278 421.192 298.219C421.38 298.181 421.53 298.156 421.641 298.131C422.231 298.009 422.821 297.849 423.407 297.651C423.997 297.441 424.296 297.344 424.335 297.344C424.536 297.344 424.626 297.466 424.626 297.727V306.706C424.626 307.223 424.66 307.568 424.75 307.741C424.835 307.905 424.998 308.039 425.237 308.149C425.438 308.25 425.691 308.308 425.951 308.346C426.392 308.409 426.465 308.506 426.465 308.704C426.465 308.838 426.302 308.927 426.063 308.927C426.054 308.927 425.75 308.901 425.186 308.851C424.626 308.8 424.061 308.779 423.497 308.779C422.932 308.779 422.355 308.8 421.778 308.851C421.204 308.901 420.914 308.927 420.901 308.927C420.666 308.927 420.516 308.838 420.516 308.704C420.516 308.544 420.576 308.456 421.029 308.346C421.316 308.308 421.542 308.25 421.743 308.149C421.979 308.039 422.141 307.892 422.231 307.72C422.316 307.547 422.368 307.211 422.368 306.706V299.842Z" fill="#003483"/>
<path fill-rule="evenodd" clip-rule="evenodd" d="M208.999 221.852C208.999 222.263 208.797 222.45 208.373 222.45C208.094 222.45 207.844 222.095 207.613 221.413C207.392 220.703 206.997 220.339 206.458 220.339C206.064 220.339 205.448 220.591 204.601 221.105C204.235 221.357 203.946 221.516 203.754 221.628C200.674 223.271 197.239 224.149 193.601 224.149C188.298 224.149 183.255 222.309 179.781 219.218C175.951 215.744 173.949 211.01 173.949 205.322C173.949 200.858 175.133 196.927 177.414 193.425C181.138 187.924 187.172 184.907 194.505 184.907C197.835 184.907 201.155 185.701 204.456 187.317C205.159 187.672 205.611 187.84 205.784 187.84C206.121 187.84 206.429 187.485 206.679 186.775C206.968 186.056 207.218 185.701 207.449 185.701C207.892 185.701 208.065 186.037 208.152 186.934L208.431 195.171C208.431 195.386 208.46 195.61 208.489 195.825V195.909C208.489 196.376 208.238 196.674 207.873 196.674C207.555 196.674 207.334 196.319 207.132 195.61C206.968 194.928 206.766 194.349 206.574 193.882C204.399 188.55 200.597 186.038 194.871 186.038C190.608 186.038 187.259 187.728 184.776 191.118C182.293 194.517 181.052 199.14 181.052 205.023C181.052 210.468 182.322 214.792 184.834 217.986C187.374 221.161 190.781 222.748 195.092 222.748C200.174 222.748 204.254 220.068 206.285 215.389C206.737 214.381 207.161 213.232 207.555 211.999C207.95 210.767 208.287 210.141 208.546 210.141C208.797 210.141 208.999 210.384 208.999 210.683V221.852ZM220.568 209.562L218.028 215.744C217.556 216.921 217.296 218.07 217.296 218.92C217.296 220.339 217.864 221.217 219.192 221.74C219.952 221.983 220.26 222.067 220.51 222.067C221.502 222.207 221.723 222.422 221.723 222.86C221.723 223.159 221.328 223.355 220.626 223.355C220.539 223.355 219.894 223.299 218.682 223.187C217.498 223.075 216.372 223.029 215.266 223.029C214.448 223.029 213.495 223.047 212.398 223.131C211.291 223.215 210.646 223.243 210.415 223.243C209.491 223.243 208.981 223.047 208.981 222.618C208.981 222.281 209.231 222.095 210.165 221.955C211.185 221.768 211.801 221.544 212.446 221.217C213.774 220.591 214.813 219.088 216.372 215.502L229.258 185.701C229.566 184.936 229.845 184.637 230.269 184.637C230.692 184.637 231 184.936 231.366 185.813L244.137 217.033C245.272 219.769 246.254 220.974 247.611 221.516C248.092 221.74 248.737 221.88 249.497 221.955C250.594 222.095 250.825 222.281 250.825 222.692C250.825 223.029 250.373 223.243 249.67 223.243C249.218 223.243 248.169 223.215 246.533 223.131C244.907 223.047 243.492 223.029 242.337 223.029C241.577 223.029 240.422 223.075 238.873 223.187C237.313 223.299 236.159 223.355 235.369 223.355C234.388 223.355 233.878 223.159 233.849 222.748C233.849 222.422 234.186 222.207 235.543 221.955C237.766 221.74 238.699 221.161 238.699 219.984C238.699 219.19 238.391 217.743 237.852 216.407L235.177 209.562H220.568ZM221.223 207.946H234.609L228.152 191.753L221.223 207.946ZM251.799 213.036C251.799 212.055 251.885 211.943 252.424 211.915C252.848 211.915 253.185 212.466 253.406 213.587C253.608 214.484 253.772 215.203 253.974 215.744C255.696 220.264 259.305 222.86 263.925 222.86C269.199 222.86 272.355 220.012 272.355 215.231C272.355 213.447 271.845 211.915 270.835 210.627C269.622 209.179 266.802 207.536 262.318 205.761C261.557 205.462 260.989 205.238 260.624 205.079C255.581 203.025 252.761 199.327 252.761 194.844C252.761 191.912 253.829 189.54 255.976 187.644C258.141 185.757 260.884 184.805 264.204 184.805C266.523 184.805 268.891 185.43 271.287 186.719C271.989 187.074 272.442 187.261 272.634 187.261C273 187.261 273.317 186.906 273.568 186.224C273.847 185.543 274.135 185.188 274.415 185.188C274.867 185.188 275.175 185.673 275.175 186.42C275.175 186.579 275.146 187.074 275.088 187.896C275.031 188.718 275.002 189.456 275.002 190.137C275.002 190.492 275.031 191.071 275.088 191.837C275.146 192.603 275.175 193.172 275.175 193.555C275.175 194.872 275.03 195.087 274.559 195.115C274.107 195.115 273.741 194.648 273.481 193.695C273.231 192.845 273 192.164 272.75 191.641C271.056 188.055 268.15 186.14 264.435 186.14C262.231 186.14 260.46 186.719 259.132 187.896C257.804 189.073 257.159 190.604 257.159 192.491C257.159 195.199 259.921 197.72 265.474 200.092C265.734 200.205 265.898 200.289 265.984 200.317C270.411 202.231 273.452 204.145 275.146 206.06C276.869 207.946 277.715 210.3 277.715 213.092C277.715 216.323 276.416 219.003 273.789 221.133C271.171 223.243 267.899 224.308 263.925 224.308C261.076 224.308 258.199 223.514 255.292 221.899C254.561 221.488 254.108 221.273 253.916 221.273C253.666 221.273 253.377 221.544 253.069 222.123C252.761 222.692 252.501 222.972 252.251 222.972C251.828 222.972 251.664 222.72 251.664 222.179C251.664 222.151 251.712 221.684 251.799 220.75C251.914 219.825 251.972 218.891 251.972 217.967C251.972 217.22 251.943 216.323 251.885 215.231C251.828 214.101 251.799 213.391 251.799 213.036ZM293.548 205.593V216.977C293.548 218.425 293.693 219.47 293.972 220.096C294.251 220.703 294.732 221.161 295.434 221.488C296.031 221.796 296.676 221.927 297.667 222.011C297.696 222.011 297.725 222.011 297.802 222.039C298.735 222.179 299.217 222.394 299.217 222.748C299.217 223.103 298.822 223.355 298.119 223.355C298.033 223.355 297.802 223.355 297.436 223.327C295.184 223.159 292.903 223.075 290.555 223.075C288.217 223.075 285.907 223.159 283.655 223.327C283.28 223.355 283.087 223.355 283.001 223.355C282.327 223.355 281.961 223.159 281.961 222.748C281.961 222.394 282.442 222.151 283.366 222.039C283.424 222.011 283.482 222.011 283.511 222.011C284.444 221.927 285.147 221.768 285.686 221.516C286.388 221.189 286.889 220.722 287.148 220.152C287.399 219.545 287.543 218.481 287.543 216.977V191.753C287.543 190.305 287.399 189.287 287.148 188.69C286.889 188.083 286.417 187.616 285.705 187.317C285.147 187.102 284.444 186.962 283.511 186.878C283.482 186.878 283.424 186.878 283.337 186.85C282.414 186.719 281.961 186.523 281.961 186.252C281.961 185.925 282.327 185.701 283.001 185.701C283.116 185.701 283.424 185.701 283.934 185.729C286.215 185.869 288.448 185.925 290.555 185.925C291.662 185.925 292.903 185.897 294.308 185.841C295.742 185.785 296.618 185.757 296.955 185.757C307.195 185.757 312.497 189.175 312.497 195.722C312.497 198.916 311.169 201.381 308.551 203.165C305.924 204.939 302.2 205.817 297.436 205.817C296.705 205.817 295.463 205.733 293.741 205.593H293.548ZM293.577 204.202C295.011 204.388 296.31 204.472 297.013 204.472C303.133 204.472 305.924 201.764 305.924 195.853C305.924 189.838 302.96 186.934 296.791 186.934C294.424 186.934 293.548 187.457 293.548 188.848L293.577 204.202ZM327.541 216.977C327.541 219.825 328.109 220.862 329.6 221.488C330.303 221.796 331.121 221.927 332.17 222.011C332.189 222.011 332.247 222.011 332.305 222.039C333.238 222.179 333.719 222.394 333.719 222.748C333.719 223.103 333.296 223.355 332.613 223.355C332.536 223.355 332.276 223.355 331.852 223.327C329.398 223.159 326.973 223.075 324.548 223.075C322.103 223.075 319.678 223.159 317.282 223.327C316.859 223.355 316.599 223.355 316.512 223.355C315.81 223.355 315.357 223.103 315.357 222.748C315.357 222.394 315.867 222.151 316.859 222.011H316.964H317.051C318.148 221.927 318.966 221.768 319.505 221.516C320.294 221.161 320.833 220.703 321.141 220.068C321.449 219.442 321.593 218.425 321.593 216.977V191.753C321.593 190.352 321.449 189.343 321.17 188.746C320.891 188.111 320.381 187.644 319.678 187.317C319.11 187.102 318.321 186.962 317.195 186.878C317.166 186.878 317.08 186.878 316.993 186.85C315.896 186.719 315.357 186.523 315.357 186.252C315.357 185.953 316.233 185.701 317.022 185.701C317.166 185.701 317.474 185.701 317.956 185.729C320.236 185.869 322.44 185.925 324.548 185.925C326.838 185.925 329.148 185.869 331.458 185.729C331.823 185.701 332.083 185.701 332.17 185.701C332.959 185.701 333.719 185.897 333.719 186.196C333.719 186.467 333.267 186.691 332.362 186.822C332.218 186.85 332.141 186.85 332.054 186.878C331.236 186.878 330.563 186.962 329.908 187.158C328.186 187.616 327.541 188.764 327.541 191.753V216.977ZM345.462 209.562L342.921 215.744C342.45 216.921 342.19 218.07 342.19 218.92C342.19 220.339 342.758 221.217 344.086 221.74C344.846 221.983 345.154 222.067 345.404 222.067C346.395 222.207 346.617 222.422 346.617 222.86C346.617 223.159 346.222 223.355 345.52 223.355C345.433 223.355 344.788 223.299 343.576 223.187C342.392 223.075 341.266 223.029 340.159 223.029C339.341 223.029 338.388 223.047 337.291 223.131C336.185 223.215 335.54 223.243 335.309 223.243C334.385 223.243 333.875 223.047 333.875 222.618C333.875 222.281 334.125 222.095 335.059 221.955C336.079 221.768 336.695 221.544 337.339 221.217C338.668 220.591 339.707 219.088 341.266 215.502L354.152 185.701C354.46 184.936 354.739 184.637 355.163 184.637C355.586 184.637 355.894 184.936 356.26 185.813L369.03 217.033C370.166 219.769 371.147 220.974 372.504 221.516C372.986 221.74 373.63 221.88 374.391 221.955C375.488 222.095 375.719 222.281 375.719 222.692C375.719 223.029 375.266 223.243 374.564 223.243C374.112 223.243 373.063 223.215 371.427 223.131C369.8 223.047 368.385 223.029 367.231 223.029C366.47 223.029 365.316 223.075 363.766 223.187C362.207 223.299 361.052 223.355 360.263 223.355C359.282 223.355 358.771 223.159 358.743 222.748C358.743 222.422 359.079 222.207 360.436 221.955C362.659 221.74 363.593 221.161 363.593 219.984C363.593 219.19 363.285 217.743 362.746 216.407L360.071 209.562H345.462ZM346.116 207.946H359.503L353.045 191.753L346.116 207.946ZM382.64 216.071C382.64 217.799 382.813 219.032 383.179 219.797C383.545 220.535 384.17 221.161 385.065 221.628C385.604 221.852 386.249 221.983 386.961 222.067H387.038C387.75 222.207 388.116 222.422 388.116 222.748C388.116 223.159 387.692 223.355 386.903 223.355C386.788 223.355 386.509 223.327 386.027 223.299C384.42 223.187 382.929 223.131 381.543 223.131C380.898 223.131 380.051 223.159 379.002 223.215C377.963 223.271 377.231 223.299 376.808 223.299C375.932 223.299 375.422 223.047 375.422 222.692C375.422 222.281 375.903 222.067 376.808 222.067C376.895 222.039 377.058 222.011 377.26 221.955C378.021 221.768 378.579 221.572 378.954 221.385C379.685 220.974 380.186 220.423 380.475 219.713C380.754 218.976 380.898 217.743 380.898 216.024V189.838C379.907 188.335 378.896 187.569 377.289 187.102C377.058 187.046 376.721 186.99 376.269 186.906C376.182 186.878 376.134 186.878 376.105 186.878C376.076 186.878 376.048 186.878 375.99 186.85C375.172 186.747 374.777 186.523 374.777 186.196C374.777 185.841 375.259 185.645 376.356 185.645C376.529 185.645 377.058 185.673 377.992 185.757C378.925 185.841 379.791 185.869 380.561 185.869C380.927 185.869 381.88 185.813 382.303 185.813C382.505 185.785 383.4 185.645 383.852 185.645C384.613 185.645 385.267 185.982 385.825 186.719L409.49 215.445V192.435C409.49 188.307 408.104 186.719 404.64 186.719C404.322 186.719 404.014 186.439 404.014 186.14C404.014 185.813 404.38 185.599 404.976 185.599C405.342 185.599 406.189 185.645 407.536 185.729C408.893 185.813 410.048 185.869 411.039 185.869C412.165 185.869 413.176 185.841 414.389 185.757C414.446 185.757 414.533 185.757 414.619 185.729C415.149 185.673 415.524 185.645 415.717 185.645C416.361 185.645 416.708 185.869 416.708 186.196C416.708 186.439 416.284 186.663 415.466 186.85L415.38 186.878H415.293C414.36 187.046 413.686 187.233 413.234 187.429C412.502 187.812 411.992 188.335 411.713 189.017C411.434 189.698 411.29 190.847 411.29 192.491V222.506C411.29 223.841 411.039 224.205 410.356 224.205C409.769 224.205 409.317 223.925 408.441 222.86L382.64 191.697V216.071ZM220.01 271.161C220.01 274.01 220.578 275.046 222.069 275.672C222.772 275.98 223.59 276.111 224.639 276.195C224.658 276.195 224.716 276.195 224.774 276.223C225.707 276.363 226.188 276.578 226.188 276.933C226.188 277.287 225.765 277.54 225.082 277.54C225.005 277.54 224.745 277.54 224.321 277.512C221.867 277.343 219.442 277.259 217.017 277.259C214.573 277.259 212.147 277.343 209.751 277.512C209.328 277.54 209.068 277.54 208.981 277.54C208.279 277.54 207.826 277.287 207.826 276.933C207.826 276.578 208.336 276.335 209.328 276.195H209.434H209.52C210.617 276.111 211.435 275.952 211.974 275.7C212.763 275.345 213.302 274.887 213.61 274.252C213.918 273.627 214.063 272.609 214.063 271.161V245.937C214.063 244.536 213.918 243.528 213.639 242.93C213.36 242.295 212.85 241.828 212.147 241.501C211.58 241.286 210.791 241.146 209.665 241.062C209.636 241.062 209.549 241.062 209.462 241.034C208.365 240.903 207.826 240.707 207.826 240.436C207.826 240.138 208.702 239.886 209.491 239.886C209.636 239.886 209.944 239.886 210.425 239.913C212.706 240.054 214.909 240.11 217.017 240.11C219.308 240.11 221.617 240.054 223.927 239.913C224.293 239.886 224.552 239.886 224.639 239.886C225.428 239.886 226.188 240.082 226.188 240.38C226.188 240.651 225.736 240.875 224.831 241.006C224.687 241.034 224.61 241.034 224.524 241.062C223.706 241.062 223.032 241.146 222.377 241.342C220.655 241.8 220.01 242.949 220.01 245.937V271.161ZM238.634 270.255C238.634 271.983 238.807 273.216 239.172 273.981C239.538 274.719 240.164 275.345 241.059 275.812C241.598 276.036 242.242 276.167 242.955 276.251H243.032C243.744 276.391 244.109 276.606 244.109 276.933C244.109 277.343 243.686 277.54 242.897 277.54C242.781 277.54 242.502 277.512 242.021 277.484C240.414 277.371 238.922 277.315 237.536 277.315C236.892 277.315 236.045 277.343 234.996 277.4C233.956 277.456 233.225 277.484 232.802 277.484C231.926 277.484 231.416 277.231 231.416 276.877C231.416 276.466 231.897 276.251 232.802 276.251C232.888 276.223 233.052 276.195 233.254 276.139C234.014 275.952 234.572 275.756 234.948 275.569C235.679 275.158 236.179 274.607 236.468 273.897C236.747 273.16 236.892 271.927 236.892 270.209V244.023C235.9 242.519 234.89 241.753 233.283 241.286C233.052 241.23 232.715 241.174 232.263 241.09C232.176 241.062 232.128 241.062 232.099 241.062C232.07 241.062 232.041 241.062 231.984 241.034C231.166 240.931 230.771 240.707 230.771 240.38C230.771 240.026 231.252 239.829 232.349 239.829C232.522 239.829 233.052 239.857 233.985 239.941C234.919 240.026 235.785 240.054 236.555 240.054C236.92 240.054 237.873 239.998 238.297 239.998C238.499 239.97 239.394 239.829 239.846 239.829C240.606 239.829 241.261 240.166 241.819 240.903L265.484 269.63V246.619C265.484 242.491 264.098 240.903 260.633 240.903C260.316 240.903 260.008 240.623 260.008 240.324C260.008 239.998 260.373 239.783 260.97 239.783C261.336 239.783 262.183 239.829 263.53 239.913C264.887 239.998 266.042 240.054 267.033 240.054C268.159 240.054 269.17 240.026 270.382 239.941C270.44 239.941 270.526 239.941 270.613 239.913C271.142 239.857 271.518 239.829 271.71 239.829C272.355 239.829 272.701 240.054 272.701 240.38C272.701 240.623 272.278 240.847 271.46 241.034L271.373 241.062H271.287C270.353 241.23 269.68 241.417 269.227 241.613C268.496 241.996 267.986 242.519 267.707 243.201C267.428 243.882 267.283 245.031 267.283 246.675V276.69C267.283 278.025 267.033 278.389 266.35 278.389C265.763 278.389 265.31 278.109 264.435 277.045L238.634 245.881V270.255ZM186.268 271.161C186.268 272.693 186.412 273.757 186.691 274.336C186.999 274.906 187.509 275.373 188.269 275.7C188.808 275.952 189.655 276.111 190.752 276.195H190.81H190.954C191.936 276.335 192.446 276.578 192.446 276.933C192.417 277.287 191.994 277.54 191.349 277.54C191.262 277.54 191.002 277.54 190.637 277.512C188.192 277.343 185.709 277.259 183.198 277.259C180.859 277.259 178.569 277.343 176.317 277.512C175.951 277.54 175.73 277.54 175.643 277.54C174.96 277.54 174.594 277.287 174.594 276.933C174.594 276.578 175.075 276.363 176.009 276.223C176.095 276.195 176.124 276.195 176.153 276.195C177.077 276.111 177.78 275.98 178.376 275.672C179.079 275.345 179.56 274.887 179.839 274.28C180.128 273.655 180.262 272.609 180.262 271.161V245.937C180.262 244.536 180.128 243.528 179.839 242.93C179.56 242.295 179.05 241.828 178.347 241.501C177.78 241.286 177.077 241.146 176.153 241.062C176.124 241.062 176.066 241.062 175.98 241.034C175.046 240.903 174.594 240.707 174.594 240.436C174.594 240.11 175.017 239.886 175.701 239.886C175.778 239.886 176.066 239.886 176.548 239.913C179.165 240.054 181.783 240.11 184.41 240.11C189.742 240.11 195.035 240.054 200.28 239.913C201.184 239.886 201.723 239.886 201.916 239.886C203.359 239.886 203.946 240.11 204.091 240.679C204.177 240.875 204.206 241.118 204.235 241.772V242.762C204.254 244.107 204.37 245.47 204.601 246.815C204.658 247.114 204.678 247.273 204.678 247.329C204.678 247.852 204.485 248.178 204.148 248.178C203.812 248.178 203.494 247.711 203.186 246.787C202.878 245.825 202.512 245.059 202.031 244.433C201.213 243.332 199.972 242.547 198.249 242.08C196.536 241.585 194.14 241.342 191.002 241.342C188.529 241.342 187.086 241.473 186.778 241.772C186.354 242.183 186.21 243.5 186.21 246.096V257.919C188.866 257.835 190.723 257.648 191.801 257.349C192.898 257.013 193.745 256.471 194.39 255.733C195.035 254.996 195.516 254.006 195.776 252.773C196.026 251.54 196.334 250.915 196.642 250.915C197.094 250.915 197.296 251.326 197.296 252.203C197.296 252.287 197.296 252.446 197.267 252.717C197.21 253.894 197.181 255.024 197.181 256.144C197.181 257.919 197.21 259.721 197.296 261.561C197.383 263.363 197.412 264.297 197.412 264.325C197.412 264.979 197.152 265.446 196.815 265.446C196.507 265.446 196.247 264.923 196.026 263.914C195.805 262.896 195.458 262.075 194.987 261.449C194.332 260.627 193.514 260.057 192.533 259.702C191.57 259.338 190.194 259.151 188.385 259.151C187.288 259.151 186.807 259.179 186.268 259.208V271.161ZM283.703 263.746L281.162 269.928C280.691 271.105 280.431 272.254 280.431 273.104C280.431 274.523 280.999 275.401 282.327 275.924C283.087 276.167 283.395 276.251 283.645 276.251C284.636 276.391 284.858 276.606 284.858 277.045C284.858 277.343 284.463 277.54 283.761 277.54C283.674 277.54 283.029 277.484 281.817 277.371C280.633 277.259 279.507 277.213 278.4 277.213C277.582 277.213 276.63 277.231 275.533 277.315C274.426 277.4 273.781 277.428 273.55 277.428C272.626 277.428 272.116 277.231 272.116 276.802C272.116 276.466 272.366 276.279 273.3 276.139C274.32 275.952 274.936 275.728 275.581 275.401C276.909 274.775 277.948 273.272 279.507 269.686L292.393 239.886C292.701 239.12 292.98 238.821 293.404 238.821C293.827 238.821 294.135 239.12 294.501 239.998L307.271 271.217C308.407 273.954 309.389 275.158 310.746 275.7C311.227 275.924 311.872 276.064 312.632 276.139C313.729 276.279 313.96 276.466 313.96 276.877C313.96 277.213 313.508 277.428 312.805 277.428C312.353 277.428 311.304 277.4 309.668 277.315C308.041 277.231 306.627 277.213 305.472 277.213C304.712 277.213 303.557 277.259 302.007 277.371C300.448 277.484 299.293 277.54 298.504 277.54C297.523 277.54 297.013 277.343 296.984 276.933C296.984 276.606 297.321 276.391 298.678 276.139C300.901 275.924 301.834 275.345 301.834 274.168C301.834 273.374 301.526 271.927 300.987 270.592L298.312 263.746H283.703ZM284.357 262.131H297.744L291.286 245.937L284.357 262.131ZM320.881 270.255C320.881 271.983 321.054 273.216 321.42 273.981C321.786 274.719 322.411 275.345 323.306 275.812C323.845 276.036 324.49 276.167 325.202 276.251H325.279C325.991 276.391 326.357 276.606 326.357 276.933C326.357 277.343 325.934 277.54 325.144 277.54C325.029 277.54 324.75 277.512 324.269 277.484C322.662 277.371 321.17 277.315 319.784 277.315C319.139 277.315 318.292 277.343 317.243 277.4C316.204 277.456 315.473 277.484 315.049 277.484C314.173 277.484 313.663 277.231 313.663 276.877C313.663 276.466 314.145 276.251 315.049 276.251C315.136 276.223 315.299 276.195 315.501 276.139C316.262 275.952 316.82 275.756 317.195 275.569C317.927 275.158 318.427 274.607 318.716 273.897C318.995 273.16 319.139 271.927 319.139 270.209V244.023C318.148 242.519 317.137 241.753 315.53 241.286C315.299 241.23 314.963 241.174 314.51 241.09C314.424 241.062 314.376 241.062 314.347 241.062C314.318 241.062 314.289 241.062 314.231 241.034C313.413 240.931 313.019 240.707 313.019 240.38C313.019 240.026 313.5 239.829 314.597 239.829C314.77 239.829 315.299 239.857 316.233 239.941C317.166 240.026 318.033 240.054 318.802 240.054C319.168 240.054 320.121 239.998 320.544 239.998C320.746 239.97 321.641 239.829 322.094 239.829C322.854 239.829 323.508 240.166 324.067 240.903L347.731 269.63V246.619C347.731 242.491 346.345 240.903 342.881 240.903C342.563 240.903 342.255 240.623 342.255 240.324C342.255 239.998 342.621 239.783 343.218 239.783C343.583 239.783 344.43 239.829 345.778 239.913C347.135 239.998 348.289 240.054 349.281 240.054C350.407 240.054 351.417 240.026 352.63 239.941C352.687 239.941 352.774 239.941 352.861 239.913C353.39 239.857 353.765 239.829 353.958 239.829C354.603 239.829 354.949 240.054 354.949 240.38C354.949 240.623 354.525 240.847 353.708 241.034L353.621 241.062H353.534C352.601 241.23 351.927 241.417 351.475 241.613C350.743 241.996 350.233 242.519 349.954 243.201C349.675 243.882 349.531 245.031 349.531 246.675V276.69C349.531 278.025 349.281 278.389 348.597 278.389C348.01 278.389 347.558 278.109 346.682 277.045L320.881 245.881V270.255ZM393.84 276.036C393.84 276.447 393.638 276.634 393.215 276.634C392.935 276.634 392.685 276.279 392.454 275.597C392.233 274.887 391.838 274.523 391.299 274.523C390.905 274.523 390.289 274.775 389.442 275.289C389.076 275.541 388.788 275.7 388.595 275.812C385.516 277.456 382.08 278.333 378.442 278.333C373.139 278.333 368.097 276.494 364.622 273.402C360.792 269.928 358.791 265.194 358.791 259.506C358.791 255.042 359.974 251.111 362.255 247.609C365.979 242.108 372.013 239.092 379.347 239.092C382.677 239.092 385.997 239.886 389.298 241.501C390 241.856 390.453 242.024 390.626 242.024C390.963 242.024 391.271 241.669 391.521 240.959C391.81 240.24 392.06 239.886 392.291 239.886C392.733 239.886 392.907 240.222 392.993 241.118L393.272 249.355C393.272 249.57 393.301 249.794 393.33 250.009V250.093C393.33 250.56 393.08 250.859 392.714 250.859C392.397 250.859 392.175 250.504 391.973 249.794C391.81 249.112 391.607 248.533 391.415 248.066C389.24 242.734 385.439 240.222 379.712 240.222C375.449 240.222 372.1 241.912 369.617 245.302C367.134 248.701 365.893 253.324 365.893 259.208C365.893 264.652 367.163 268.976 369.675 272.17C372.216 275.345 375.622 276.933 379.934 276.933C385.015 276.933 389.096 274.252 391.126 269.574C391.579 268.565 392.002 267.416 392.397 266.184C392.791 264.951 393.128 264.325 393.388 264.325C393.638 264.325 393.84 264.568 393.84 264.867V276.036Z" fill="#003483"/>
<path fill-rule="evenodd" clip-rule="evenodd" d="M410.202 267.797C410.202 271.457 410.741 273.727 411.838 274.633C412.935 275.538 415.226 275.977 418.69 275.977C421.51 275.977 423.656 275.697 425.09 275.184C426.534 274.661 427.631 273.755 428.391 272.503C428.814 271.812 429.122 271 429.353 270.038C429.575 269.076 429.854 268.618 430.19 268.618C430.672 268.618 430.816 268.889 430.816 270.309C430.816 270.888 430.787 271.812 430.7 273.073C430.614 274.334 430.585 275.286 430.585 275.977C430.585 276.715 430.479 277.182 430.277 277.313C430.085 277.453 429.546 277.537 428.699 277.537C428.506 277.537 427.967 277.537 427.063 277.509C420.721 277.341 414.119 277.257 407.276 277.257C404.928 277.257 402.619 277.341 400.367 277.509C400.001 277.537 399.799 277.537 399.712 277.537C399.038 277.537 398.673 277.341 398.673 276.93C398.673 276.575 399.154 276.332 400.078 276.22C400.136 276.192 400.193 276.192 400.222 276.192C401.156 276.108 401.858 275.949 402.397 275.697C403.1 275.37 403.61 274.903 403.86 274.334C404.11 273.727 404.255 272.662 404.255 271.159V245.934C404.255 244.487 404.11 243.469 403.831 242.871C403.581 242.264 403.1 241.797 402.426 241.498C401.858 241.284 401.156 241.144 400.222 241.059C400.193 241.059 400.136 241.059 400.049 241.031C399.125 240.901 398.673 240.705 398.673 240.434C398.673 240.107 399.038 239.883 399.712 239.883C399.799 239.883 400.078 239.883 400.559 239.911C403.292 240.051 406.035 240.107 408.768 240.107C410.038 240.107 412.262 240.079 415.418 240.023C418.575 239.967 421.115 239.939 423.03 239.939H424.301C425.85 239.939 426.841 240.023 427.207 240.219C427.573 240.406 427.765 240.761 427.765 241.284C427.765 241.368 427.746 241.723 427.688 242.404C427.631 243.058 427.602 243.693 427.602 244.319C427.602 244.842 427.63 245.439 427.717 246.093C427.794 246.728 427.823 247.111 427.823 247.223C427.823 247.877 427.631 248.12 427.178 248.12C426.813 248.12 426.533 247.625 426.36 246.644C426.216 245.636 425.937 244.842 425.571 244.263C424.869 243.17 423.82 242.404 422.386 241.965C420.942 241.498 418.498 241.284 414.995 241.284H414.542C412.435 241.284 411.164 241.442 410.77 241.751C410.404 242.049 410.202 242.927 410.202 244.319V257.178C412.858 257.066 414.773 256.795 415.957 256.328C417.141 255.862 418.045 255.124 418.69 254.115C419.085 253.48 419.364 252.64 419.566 251.51C419.758 250.389 420.047 249.847 420.384 249.847C420.836 249.847 421.058 250.174 421.058 250.8C421.058 251.052 421 251.818 420.923 253.153C420.836 254.498 420.778 255.703 420.778 256.795C420.778 258.299 420.836 259.859 420.942 261.446C421.058 263.006 421.115 263.828 421.115 263.912C421.115 264.537 420.865 264.92 420.499 264.92C420.24 264.92 420.018 264.537 419.816 263.743C419.624 262.95 419.422 262.268 419.171 261.745C418.603 260.568 417.728 259.746 416.515 259.261C415.332 258.738 413.59 258.495 411.251 258.495H410.202V267.797Z" fill="#003483"/>
<path fill-rule="evenodd" clip-rule="evenodd" d="M293.677 296.19V290.418H294.466V296.19H293.677Z" fill="#1B1918"/>
<defs>
<linearGradient id="paint0_linear_7452_1832" x1="69" y1="184" x2="166.148" y2="184" gradientUnits="userSpaceOnUse">
<stop stop-color="#003483"/>
<stop offset="0.31" stop-color="#1DABDD"/>
<stop offset="0.48" stop-color="#003483"/>
<stop offset="0.81" stop-color="#1DABDD"/>
<stop offset="1" stop-color="#003483"/>
</linearGradient>
</defs>
</svg>
