<svg width="500" height="500" viewBox="0 0 500 500" fill="none" xmlns="http://www.w3.org/2000/svg">
<rect width="500" height="500" fill="#E5E5E5"/>
<path fill-rule="evenodd" clip-rule="evenodd" d="M0 0H500V500H0V0Z" fill="#F0F0F0"/>
<path fill-rule="evenodd" clip-rule="evenodd" d="M248.92 295.16C250.746 300.726 250.512 302.24 254.487 307.818C257.04 311.338 260.306 314.282 264.072 316.457C266.791 318.034 269.728 319.2 272.789 319.919C272.432 322.869 268.491 330.706 267.222 333.178C261.177 344.388 249.232 356.367 235.907 357.803C230.763 358.359 224.841 356.69 221.957 352.982C220.438 351.176 219.376 349.03 218.863 346.726C218.525 345.501 218.503 344.211 218.796 342.976C219.09 341.74 219.691 340.598 220.544 339.657C227.435 332.977 236.363 339.367 232.211 348.496C231.292 350.492 230.021 352.306 228.459 353.851C241.818 348.863 243.61 338.265 236.652 326.565L230.719 317.948L236.218 313.05C237.957 311.381 239.596 309.612 241.128 307.751C247.072 301.071 247.807 296.796 248.92 295.16ZM273.969 314.998C274.902 310.542 275.387 306.003 275.416 301.45C275.416 291.765 272.989 283.248 265.809 277.626C263.705 275.794 261.292 274.351 258.684 273.362C257.839 274.323 257.117 275.385 256.535 276.524C253.332 282.468 252.51 289.407 254.237 295.934C255.963 302.461 260.108 308.087 265.831 311.67C267.412 312.66 271.876 315.009 273.969 315.009V314.998ZM242.408 272.149C238.634 272.505 234.081 275.567 231.197 277.871C228.058 280.522 225.603 283.89 224.039 287.69C222.335 291.996 221.748 296.662 222.331 301.256C222.915 305.849 224.652 310.221 227.379 313.963C228.993 313.217 235.506 306.782 236.597 305.357C238.823 302.374 239.936 301.684 242.43 297.309C244.505 293.419 245.648 289.102 245.77 284.695C245.77 281.033 244.245 274.498 242.43 272.105L242.408 272.149ZM300.453 344.989C301.154 343.308 301.911 342.139 302.568 340.135C303.265 338.168 303.593 336.088 303.537 334.001C303.363 330.35 301.764 326.913 299.084 324.427C294.341 320.23 287.016 317.748 278.989 316.089C278.923 315.477 279.858 309.944 280.025 308.641C280.333 305.896 280.455 303.132 280.392 300.37C280.325 291.676 279.435 291.976 277.776 285.486L281.249 288.024C284.909 290.439 289.029 292.069 293.35 292.811C296.837 293.39 300.395 293.39 303.882 292.811C308.769 291.998 309.448 291.052 312.587 290.139C318.866 304.3 320.981 326.598 311.118 340.236C307.099 345.802 301.021 350.322 293.195 348.117C278.544 344.01 287.205 327.199 295.421 332.432C295.925 332.699 296.38 333.049 296.768 333.467C296.928 333.666 297.103 333.852 297.291 334.024C298.216 334.986 298.942 336.121 299.429 337.363C300.687 340.291 300.219 341.939 300.442 345.056L300.453 344.989ZM223.349 317.08C222.436 315.199 220.544 313.328 218.974 308.831C216.147 301.172 216.403 292.715 219.686 285.241C220.21 283.983 221.045 282.781 221.434 281.634C220.466 281.968 218.295 283.404 215.768 284.361C208.903 286.685 201.696 287.84 194.449 287.779H192.345C192.423 295.383 191.031 304.756 187.335 309.922C185.509 312.695 182.708 314.682 179.487 315.488C176.459 316.267 170.046 315.855 167.698 314.375C184.174 312.237 181.413 297.921 171.449 298.333C162.009 298.734 160.317 314.119 168.666 320.598C176.748 326.877 186.812 328.335 197.277 326.955C202.147 326.259 206.914 324.969 211.471 323.114C215.08 321.649 218.58 319.93 221.946 317.971L223.06 317.314C223.494 316.935 223.149 317.225 223.382 316.946L223.349 317.08ZM253.496 271.771C253.318 272.639 251.269 275.89 250.245 278.717C249.853 278.125 249.616 277.443 249.555 276.736C249.399 276.112 249.254 275.533 249.032 274.877C248.533 273.693 248.117 272.477 247.785 271.236L253.496 271.771V271.771ZM262.402 269.333C263.777 267.819 265.479 266.638 267.378 265.881C267.701 267.251 267.835 268.72 268.291 270.145C268.747 271.57 269.304 272.862 269.538 274.075C268.425 273.552 267.311 272.361 266.009 271.559C264.74 270.931 263.532 270.186 262.402 269.333V269.333ZM231.609 271.225C232.812 268.553 233.691 267.574 234.615 264.367L234.76 263.889C234.814 263.735 234.906 263.597 235.027 263.488C236.774 264.608 238.265 266.083 239.402 267.818C237.966 268.157 236.586 268.7 235.305 269.433C234.111 270.118 232.877 270.732 231.609 271.27V271.225ZM310.094 285.608C307.656 287.556 300.208 288.48 296.434 288.18C284.188 287.2 272.766 276.947 272.176 263.688C276.698 262.337 281.486 262.141 286.103 263.121C293.896 264.991 299.529 270.346 304.038 276.246C305.496 278.161 309.348 283.471 310.094 285.564V285.608ZM296.49 262.23C298.365 263.548 300.164 264.972 301.878 266.494C305.26 269.67 308.25 273.239 310.784 277.125C312.175 279.06 313.407 281.104 314.469 283.237C315.293 283.026 318.276 281.367 319.278 280.877C324.377 278.394 330.333 276.057 336.378 276.491C338.317 276.642 340.208 277.172 341.944 278.049C346.397 280.276 349.536 286.232 350.171 291.252C347.421 287.824 343.692 284.083 338.348 284.851C330.444 285.965 331.502 299.413 340.886 299.513C348.746 299.591 354.245 293.557 355.258 285.853C356.728 274.186 349.191 261.551 341.387 253.869C338.221 250.768 334.765 247.975 331.067 245.531C329.25 244.227 327.338 243.063 325.345 242.047C324.611 243.538 324.165 244.741 323.341 246.121C322.518 247.502 321.738 248.615 320.926 249.773C319.148 252.105 317.049 254.174 314.691 255.918C307.878 261.028 303.782 261.039 296.49 262.23ZM192.523 282.792C192.847 278.394 194.246 274.143 196.598 270.412C203.21 259.603 218.729 254.649 230.407 260.694C229.65 264.328 228.115 267.756 225.906 270.74C223.698 273.725 220.87 276.195 217.616 277.982C211.337 281.678 200.917 282.792 192.523 282.792ZM272.31 258.545C272.443 257.009 272.844 254.092 273.657 253.168C274.614 253.869 275.36 254.615 276.473 255.461C277.587 256.307 278.477 256.786 279.312 257.543L272.31 258.545V258.545ZM222.737 253.413C224.24 253.558 225.73 253.826 227.19 254.215C228.537 254.582 229.873 255.228 231.12 255.45C231.138 253.388 230.948 251.329 230.552 249.305C229.259 249.907 228.006 250.591 226.8 251.353C226.199 251.676 225.576 251.943 224.874 252.244C223.572 252.812 223.338 252.611 222.759 253.357L222.737 253.413ZM245.002 266.505C249.199 266.65 250.568 266.048 255.299 267.117C257.103 267.518 256.958 267.54 258.027 266.527L262.168 263.087C263.025 262.497 266.621 260.716 267.011 260.126C267.478 258.79 267.59 255.74 268.046 253.992C270.05 246.199 270.785 251.109 267.623 244.796C266.611 242.779 265.826 240.654 265.285 238.462C264.818 236.87 263.259 237.282 259.174 235.445C252.149 232.283 255.7 231.56 251.091 233.341C249.642 233.91 248.154 234.375 246.638 234.733C245.447 235 242.285 235.145 241.651 235.846C241.261 236.258 240.014 238.974 239.591 239.664C238.477 241.464 237.182 243.146 235.728 244.685C235.194 245.275 234.726 245.565 234.983 246.678C236.753 254.348 235.517 253.458 235.996 257.487C236.118 258.445 237.944 259.48 239.224 260.46C242.074 262.686 243.621 265.225 245.024 266.549L245.002 266.505ZM209.111 254.493C208.498 255.061 208.888 254.793 207.83 255.172C203.978 256.641 200.444 258.837 197.421 261.64C196.884 262.116 196.382 262.629 195.918 263.176C190.708 269.177 188.471 274.186 187.491 282.513C182.905 282.246 176.67 280.421 172.596 279.007C163.567 275.89 153.671 269.867 148.104 261.874C133.866 241.88 150.887 229.79 158.246 234.154C163.033 236.993 163.812 243.494 160.005 246.177C157.741 247.562 155.038 248.043 152.435 247.524C149.451 246.945 148.338 245.91 146.045 244.763C146.969 247.234 150.988 251.164 153.337 252.556C162.354 257.732 172.061 250.752 178.229 244.251L181.858 240.444L182.637 241.034C189.84 247.067 199.67 253.68 209.111 254.526V254.493ZM275.906 248.069C276.586 246.793 277.404 245.595 278.344 244.496L283.431 239.82C295.287 231.582 308.646 235.757 320.725 239.998C319.976 242.081 318.938 244.049 317.642 245.843C316.398 247.541 315 249.121 313.467 250.563C311.818 251.924 310.048 253.131 308.179 254.17C304.822 255.905 301.136 256.913 297.363 257.128C293.59 257.343 289.814 256.76 286.281 255.417C282.786 254.048 277.887 250.964 275.895 248.069H275.906ZM277.542 238.117L272.8 243.516C272.533 243.282 272.8 243.683 272.466 243.193L271.987 242.37C271.742 241.891 271.597 241.49 271.397 241.011C271.021 240.203 270.733 239.355 270.54 238.484L277.542 238.117ZM185.254 236.569C186.581 235.044 188.14 233.736 189.874 232.695C191.596 231.505 193.467 230.547 195.44 229.845C203.789 226.751 215.3 228.576 221.623 234.566C223.123 235.884 224.498 237.337 225.731 238.907C226.98 240.52 227.989 242.305 228.726 244.206C226.689 246.155 221.735 248.459 218.15 249.294C213.582 250.209 208.856 249.937 204.424 248.504C199.37 246.9 193.458 243.238 189.384 240.11L185.187 236.614L185.254 236.569ZM232.823 240.488C232.309 239.917 231.885 239.271 231.565 238.573L227.791 233.508C229.125 233.715 230.434 234.058 231.698 234.532C233.143 234.989 234.639 235.262 236.151 235.345C235.595 237.338 233.747 239.219 232.812 240.488H232.823ZM249.522 228.61C247.605 229.508 245.55 230.073 243.443 230.28C243.766 227.007 244.022 224.379 244.156 220.984C244.606 221.631 245.018 222.304 245.391 222.999C246.405 224.635 248.898 227.452 249.522 228.565V228.61ZM258.494 229.478C259.009 228.842 259.613 228.283 260.287 227.819C262.023 226.137 263.672 224.369 265.23 222.52C265.23 224.001 264.718 225.537 264.573 226.973C264.428 228.409 264.417 230.313 264.35 232.005C262.308 231.412 260.357 230.543 258.55 229.422L258.494 229.478ZM298.382 200.099C299.162 205.499 299.774 208.838 298.16 214.26C297.059 218.035 295.141 221.522 292.542 224.474C289.942 227.425 286.726 229.768 283.12 231.337C279.479 232.929 273.868 234.12 269.415 233.263C267.879 223.511 273.568 214.772 278.099 210.909L282.552 207.569C286.081 205.142 294.542 200.812 298.393 200.122L298.382 200.099ZM254.342 226.016C261.099 222.231 266.154 212.468 266.131 204.029C266.148 199.428 264.97 194.902 262.714 190.893C261.259 188.322 259.377 186.018 257.147 184.08C256.795 183.715 256.423 183.37 256.034 183.044C255.646 182.716 255.233 182.418 254.798 182.154C254.798 182.154 254.698 182.154 254.687 182.254L249.566 192.073C246.071 200.289 244.523 208.694 247.985 217.143C249.154 220.004 252.438 224.736 254.364 226.049L254.342 226.016ZM303.236 198.474C303.236 199.287 303.815 201.814 303.96 202.927C304.581 207.774 304.043 212.7 302.39 217.299C301.493 219.851 300.27 222.276 298.75 224.513C297.29 226.682 295.591 228.68 293.684 230.469C296.49 230.402 298.371 229.923 301.477 230.28C304.127 230.569 306.476 230.781 309.114 231.304C315.994 232.673 318.187 234.232 322.473 235.3C323.687 233.697 326.659 223.377 333.728 218.145C339.116 214.16 343.87 214.226 349.937 217.188L353.867 219.759C354.312 220.182 353.867 219.759 354.212 220.138C348.345 219.158 344.092 219.47 340.909 223.155C338.248 226.227 339.795 232.061 345.117 233.931C353.767 237.004 364.376 221.819 351.685 208.916C347.388 204.541 340.975 201.19 334.674 199.231C325.301 196.325 313.077 196.37 303.225 198.507L303.236 198.474ZM238.189 230.402C240.593 220.138 238.189 211.989 232.767 205.91C230.282 202.945 227.157 200.581 223.627 198.997C219.965 197.416 214.476 195.958 209.923 196.771C211.137 205.899 214.766 217.076 220.755 222.687C223.182 224.914 222.447 224.802 226.121 227.14C228.348 228.554 234.905 230.825 238.189 230.48V230.402ZM204.98 197.583C204.368 197.461 196.353 198.496 192.735 198.418C179.843 198.185 171.872 191.505 174.232 177.912L174.889 179.526C175.093 180.097 175.331 180.654 175.602 181.196C176.097 182.187 176.682 183.129 177.349 184.013C178.76 185.775 180.681 187.058 182.849 187.687C188.159 189.189 192.055 183.556 190.764 178.458C188.638 170.353 174.321 169.385 168.165 180.116C161.207 192.217 165.861 211.132 173.453 222.676L180.233 231.961C180.602 232.364 181.005 232.736 181.435 233.074C183.662 231.449 183.918 230.536 187.97 227.953C190.5 226.374 193.25 225.177 196.13 224.402C204.19 222.275 209.133 223.288 216.358 225.515C214.844 223.746 213.474 221.859 212.261 219.871C208.354 213.191 206.428 205.499 204.98 197.606V197.583ZM296.735 195.357C296.479 193.943 295.621 191.661 295.132 190.158C293.495 184.592 292.259 177.79 293.807 172.112C295.733 165.01 301.6 161.414 310.506 161.224C309.793 161.892 308.502 162.438 307.622 163.084C304.895 165.11 302.557 167.748 302.379 171.711C302.134 177.01 308.546 180.005 313.4 177.278C317.33 175.051 318.733 169.251 316.484 164.03C315.584 161.961 314.241 160.114 312.551 158.619C310.86 157.125 308.862 156.019 306.698 155.38C296.223 152.04 284.845 156.126 276.997 160.401C273.204 162.667 269.627 165.276 266.309 168.193C265.898 168.561 265.675 168.917 265.196 169.307L260.532 173.971C259.386 175.191 258.351 176.51 257.437 177.912C266.888 184.892 272.187 195.134 270.929 207.213C270.751 208.905 270.128 210.976 270.05 212.39C272.8 208.148 277.297 204.842 281.572 202.181C284.745 200.199 292.515 196.259 296.724 195.335L296.735 195.357ZM209.244 191.683C208.42 181.33 211.114 169.418 214.81 161.302C220.254 149.502 234.203 135.764 246.616 143.635C249.421 145.394 254.108 150.203 251.581 155.502C248.163 162.705 237.944 161.97 237.71 151.762C237.632 148.634 238.545 147.097 239.358 144.604C237.476 145.717 233.992 150.17 232.878 153.298C232.196 155.28 231.965 157.389 232.204 159.472C232.443 161.554 233.145 163.557 234.259 165.332C235.355 167.312 236.795 169.08 238.512 170.554C238.89 170.932 238.979 171.21 239.402 171.6C239.825 171.99 240.115 172.112 240.515 172.468L250.345 179.515C247.777 183.701 245.622 188.127 243.911 192.73C239.881 203.751 241.707 205.32 241.005 209.317C238.38 203.966 234.313 199.454 229.26 196.292C221.323 191.616 217.772 191.839 209.222 191.616L209.244 191.683ZM235.038 335.348C234.517 334.996 234.029 334.597 233.58 334.157C229.75 331.285 223.895 331.363 219.987 333.712C205.704 342.284 216.747 366.219 238.322 362.478C247.406 360.898 254.899 355.799 261.055 349.62C261.926 348.824 262.737 347.964 263.482 347.049L265.864 344.221C269.619 339.328 272.718 333.965 275.082 328.268C276.073 326.042 276.83 323.181 277.832 321.032C279.468 321.032 284.812 322.613 286.459 323.158C289.029 323.891 291.454 325.058 293.629 326.609C287.873 326.609 283.843 328.836 281.383 333.968C276.273 344.911 287.038 354.151 297.915 353.584C302.956 353.283 307.71 351.139 311.274 347.561C324.844 334.747 324.867 311.547 319.523 294.837L317.052 287.779L324.466 283.938C326.347 283.126 331.012 281.445 333.238 281.578C323.965 287.968 328.073 303.955 340.241 304.478C351.863 304.968 359.845 295.639 360.379 284.54C360.936 272.772 354.646 261.785 349.469 255.339C344.93 249.796 339.547 245.002 333.517 241.134C331.509 239.766 329.415 238.527 327.249 237.427C327.371 235.2 331.067 228.632 332.604 226.539C333.237 225.443 334.068 224.473 335.053 223.678C334.563 227.14 334.318 228.81 335.821 231.894C339.161 238.841 348.712 241.557 354.88 236.87C363.496 230.346 364.754 218.924 358.854 209.94C351.006 197.973 334.151 192.128 318.989 191.95C310.94 191.872 303.537 193.642 301.433 193.598C299.874 188.032 297.659 182.955 298.093 176.387C298.906 177.189 299.329 178.614 300.197 179.404C301.02 180.273 301.96 181.022 302.991 181.63C304.715 182.59 306.635 183.145 308.605 183.253C310.575 183.361 312.544 183.02 314.363 182.256C316.182 181.491 317.803 180.323 319.104 178.839C320.405 177.356 321.351 175.596 321.872 173.693C324.677 162.494 316.996 152.786 306.286 150.125C294.62 147.22 282.607 151.606 274.136 156.315C270.756 158.257 267.578 160.532 264.651 163.106C264.361 163.351 264.183 163.429 263.905 163.663C261.253 165.993 258.748 168.484 256.402 171.121L254.175 173.849C253.652 174.45 253.808 174.55 253.062 175.084C249.054 173.147 241.64 167.67 239.58 164.119C243.699 165.232 246.694 166.234 251.436 163.084C252.353 162.434 253.196 161.688 253.952 160.857C257.515 157.362 258.261 151.205 255.645 146.151C250.535 136.276 238.356 134.25 228.926 138.859C215.99 145.127 208.376 160.056 205.57 174.094C203.734 183.267 204.847 185.493 204.201 192.307C201.975 193.787 189.439 193.72 186.912 192.607C189.396 191.976 191.61 190.563 193.228 188.576C194.846 186.589 195.781 184.134 195.896 181.575C196.286 177.022 194.538 173.782 191.755 170.921C190.873 170.169 189.896 169.537 188.849 169.04C179.71 164.297 167.864 169.04 162.988 179.281C154.94 196.203 162.755 217.722 173.62 231.604C174.422 232.617 177.639 236.258 177.995 237.037C177.597 237.652 177.126 238.216 176.592 238.718L173.676 241.601C171.65 243.728 168.41 246.834 165.326 247.88C166.673 245.119 167.831 243.616 167.308 239.586C166.959 237.052 165.875 234.676 164.191 232.751C156.687 224.101 143.885 229.077 139.343 238.974C134.678 249.261 139.577 258.879 145.644 266.939C148.991 271.073 153.033 274.592 157.589 277.337C164.171 281.326 171.333 284.267 178.819 286.054L187.202 287.657L187.369 288.859C187.246 293.379 186.734 301.172 184.53 304.689C183.751 299.179 180.867 295.472 175.446 293.991C162.977 290.651 156.186 303.721 158.836 314.03C161.396 324.049 170.714 329.426 180.455 331.463C194.026 334.291 208.465 330.862 220.432 324.583C221.679 323.926 225.765 321.244 226.778 321.177C228.587 323.18 230.177 325.37 231.52 327.712C232.634 329.582 234.604 332.855 235.038 335.315V335.348ZM241.851 310.623C240.614 312.113 239.283 313.522 237.866 314.842L234.059 318.349L238.723 325.151L238.801 325.285C239.906 327.114 240.842 329.04 241.595 331.04C243.29 335.11 243.595 339.626 242.464 343.887C241.087 348.167 238.117 351.754 234.17 353.906C233.343 354.4 232.488 354.846 231.609 355.242C232.945 355.429 234.298 355.455 235.639 355.32C241.206 354.708 246.649 351.98 251.414 348.284C256.987 343.81 261.612 338.269 265.018 331.986C265.809 330.517 267.545 327.088 268.859 324.004C269.204 323.181 269.527 322.401 269.772 321.7C269.159 321.5 268.525 321.266 267.913 321.021C266.178 320.337 264.493 319.533 262.87 318.616C260.827 317.429 258.913 316.034 257.159 314.453C255.421 312.9 253.861 311.16 252.505 309.265C250.779 307.043 249.404 304.569 248.431 301.929C246.886 304.614 245.053 307.122 242.965 309.41L241.851 310.623ZM223.895 351.457C225.038 352.817 226.532 353.837 228.214 354.407L226.756 351.969C227.367 351.394 227.912 350.751 228.381 350.055C228.952 349.233 229.455 348.365 229.884 347.461V347.461C230.335 346.612 230.606 345.68 230.681 344.723C230.755 343.765 230.632 342.802 230.318 341.894C230.028 341.195 229.55 340.591 228.938 340.147C228.335 339.72 227.626 339.47 226.889 339.423C226.014 339.421 225.149 339.604 224.349 339.959C223.549 340.313 222.833 340.833 222.247 341.482C221.742 341.998 221.395 342.647 221.245 343.353C221.034 344.298 221.034 345.279 221.245 346.225C221.452 347.234 221.801 348.208 222.28 349.119C222.742 349.954 223.275 350.747 223.872 351.491L223.895 351.457ZM256.591 283.282C256.107 285.177 255.86 287.125 255.856 289.082C255.855 290.64 256.004 292.194 256.301 293.724C256.581 295.172 256.991 296.591 257.526 297.965C258.454 300.337 259.759 302.543 261.389 304.5C263.031 306.477 264.977 308.18 267.156 309.543C268.582 310.396 270.07 311.14 271.609 311.77L272.009 311.937C272.243 310.59 272.432 309.209 272.577 307.818C272.81 305.692 272.929 303.555 272.933 301.416C273.027 297.148 272.364 292.896 270.974 288.859C269.669 285.189 267.354 281.963 264.294 279.552C263.337 278.806 262.302 278.005 261.3 277.326C260.736 276.963 260.153 276.632 259.552 276.335C259.251 276.814 258.973 277.303 258.795 277.626C257.856 279.389 257.131 281.258 256.635 283.193L256.591 283.282ZM224.819 300.838C225.222 304.213 226.301 307.473 227.991 310.423L229.606 308.942C231.355 307.361 233.023 305.693 234.604 303.944C235.239 303.12 235.862 302.374 236.441 301.717C237.905 300.003 239.182 298.137 240.248 296.151C241.201 294.394 241.926 292.524 242.408 290.585C242.935 288.687 243.219 286.731 243.254 284.762C243.176 282.571 242.84 280.396 242.252 278.283C241.965 277.144 241.593 276.027 241.139 274.943C240.23 275.254 239.351 275.645 238.512 276.112C236.49 277.182 234.577 278.446 232.801 279.886C231.477 280.979 230.302 282.241 229.305 283.638V283.638C228.17 285.221 227.21 286.923 226.444 288.714C224.85 292.559 224.308 296.759 224.874 300.882L224.819 300.838ZM282.14 311.313C281.995 312.226 281.839 313.273 281.706 314.119C284.932 314.827 288.099 315.779 291.18 316.969C294.659 318.262 297.89 320.145 300.731 322.535C302.332 323.996 303.623 325.764 304.527 327.734C305.444 329.666 305.959 331.764 306.041 333.901C306.085 335.12 306.003 336.34 305.797 337.542C305.596 338.675 305.31 339.792 304.939 340.881C304.572 341.988 304.125 343.067 303.603 344.11C305.743 342.655 307.6 340.821 309.081 338.699C313.289 332.91 315.159 325.34 315.382 317.548C315.586 309.254 314.16 301.001 311.185 293.256L310.817 293.412C308.732 294.308 306.539 294.929 304.294 295.26C302.395 295.57 300.473 295.719 298.549 295.706C296.658 295.712 294.77 295.555 292.905 295.238C290.529 294.81 288.202 294.146 285.958 293.256C284.631 292.74 283.341 292.133 282.095 291.442C282.719 294.367 282.984 297.358 282.886 300.348C282.886 301.795 282.886 303.231 282.83 304.634C282.774 306.036 282.674 307.506 282.496 308.942C282.429 309.454 282.296 310.311 282.14 311.313V311.313ZM293.874 345.691C296.076 346.339 298.424 346.308 300.609 345.602L297.948 345.156C297.948 344.299 297.881 343.453 297.881 342.674C297.96 341.174 297.705 339.676 297.135 338.287C296.908 337.761 296.644 337.251 296.345 336.762C296.124 336.42 295.866 336.103 295.577 335.816V335.816C295.391 335.653 295.22 335.474 295.065 335.282V335.282L294.92 335.115C294.683 334.892 294.417 334.701 294.13 334.547V334.547C293.534 334.133 292.819 333.924 292.094 333.952C291.369 333.98 290.673 334.244 290.111 334.703C289.303 335.347 288.677 336.191 288.296 337.152C287.873 338.148 287.726 339.241 287.873 340.314C288.196 342.462 289.944 344.6 293.907 345.713L293.874 345.691ZM206.316 289.327C202.515 289.923 198.675 290.239 194.827 290.273C194.727 293.991 194.279 297.692 193.492 301.327C192.785 304.924 191.386 308.35 189.373 311.414C188.357 312.898 187.118 314.216 185.699 315.321C184.044 316.578 182.15 317.483 180.133 317.982C177.745 318.471 175.297 318.588 172.874 318.327C171.577 318.221 170.292 318.001 169.033 317.67C169.396 318.073 169.79 318.445 170.213 318.783C173.672 321.454 177.685 323.314 181.958 324.227C186.902 325.238 191.984 325.377 196.976 324.639C199.23 324.333 201.461 323.879 203.656 323.281C206.007 322.64 208.319 321.863 210.58 320.954C212.383 320.23 214.098 319.462 215.768 318.639C217.237 317.915 218.651 317.169 220.032 316.412C218.624 314.345 217.501 312.098 216.692 309.732C216.037 307.948 215.516 306.117 215.133 304.255C214.733 302.262 214.536 300.233 214.543 298.199C214.507 294.312 215.144 290.448 216.425 286.777C213.148 287.947 209.767 288.801 206.327 289.327H206.316ZM165.783 309.666C165.724 308.405 165.863 307.143 166.195 305.925C166.461 304.872 166.938 303.883 167.597 303.02C168.057 302.402 168.65 301.895 169.332 301.539C170.014 301.182 170.769 300.984 171.538 300.96C172.469 300.863 173.409 301.018 174.26 301.41C175.11 301.802 175.839 302.416 176.37 303.187C176.737 303.769 176.948 304.436 176.982 305.124C177.01 305.871 176.849 306.614 176.514 307.283C175.401 309.421 172.596 311.369 167.375 312.048L166.874 314.442C166.21 312.944 165.833 311.335 165.76 309.699L165.783 309.666ZM279.546 265.058C281.554 264.966 283.565 265.146 285.524 265.592C288.899 266.433 292.049 268.002 294.753 270.19C297.495 272.41 299.945 274.969 302.045 277.804C302.913 278.918 304.628 281.289 305.997 283.371C306.242 283.749 306.487 284.128 306.698 284.484C305.826 284.755 304.937 284.971 304.038 285.13C301.599 285.598 299.115 285.777 296.634 285.664C290.848 285.131 285.438 282.568 281.361 278.428C277.871 274.976 275.591 270.49 274.859 265.637C276.402 265.308 277.97 265.107 279.546 265.035V265.058ZM316.194 257.911C312.28 261.055 307.593 263.092 302.624 263.811C302.913 264.056 303.225 264.345 303.57 264.668C305.358 266.311 307.031 268.074 308.58 269.945C310.038 271.715 311.43 273.619 312.855 275.723C313.511 276.691 314.28 277.816 314.881 278.784C315.126 279.185 315.371 279.574 315.593 279.975L316.818 279.33C317.419 279.018 317.931 278.728 318.176 278.628C320.941 277.239 323.82 276.088 326.781 275.188C329.943 274.213 333.253 273.81 336.556 273.997C337.686 274.078 338.806 274.276 339.896 274.587C341.897 275.114 343.771 276.039 345.407 277.307C347.042 278.576 348.405 280.161 349.414 281.968C350.645 283.952 351.572 286.11 352.164 288.369C352.459 287.448 352.667 286.501 352.787 285.541C353.246 280.517 352.362 275.462 350.227 270.891C347.675 265.2 344.089 260.032 339.651 255.651C338.138 254.162 336.551 252.75 334.897 251.42C333.238 250.084 331.557 248.826 329.698 247.613L329.219 247.29C328.373 246.733 327.416 246.088 326.481 245.52C326.191 246.121 325.88 246.733 325.49 247.39C324.722 248.693 323.898 249.884 323.097 251.031L322.963 251.22C322.088 252.417 321.108 253.535 320.035 254.56C318.824 255.754 317.537 256.87 316.183 257.899L316.194 257.911ZM348.724 293.98C346.628 295.98 343.827 297.072 340.931 297.019C339.983 297.045 339.047 296.806 338.227 296.331C337.408 295.855 336.736 295.161 336.289 294.325C335.909 293.599 335.682 292.804 335.621 291.987C335.539 291.213 335.626 290.431 335.877 289.694C336.077 289.07 336.452 288.516 336.957 288.098C337.462 287.68 338.076 287.415 338.727 287.334C340.544 287.082 342.39 287.527 343.892 288.581C345.554 289.76 347.023 291.191 348.245 292.822L350.471 291.854C349.971 292.632 349.376 293.346 348.701 293.98H348.724ZM196.052 277.47C196.723 275.438 197.623 273.488 198.735 271.659C201.921 266.685 206.84 263.071 212.539 261.517C217.44 260.031 222.697 260.219 227.479 262.052C226.748 264.563 225.58 266.926 224.028 269.032C221.954 271.776 219.344 274.071 216.358 275.778C213.329 277.42 210.048 278.549 206.65 279.118C202.908 279.791 199.119 280.164 195.317 280.231C195.507 279.294 195.753 278.368 196.052 277.459V277.47ZM245.38 263.132L246.115 264.011C246.917 264.011 247.629 264.011 248.342 264.011C250.885 263.861 253.436 264.09 255.912 264.69H256.123H256.29L256.357 264.623L256.479 264.512L260.632 261.072L260.81 260.95C261.255 260.638 261.923 260.237 262.747 259.836C263.571 259.436 264.439 258.924 264.84 258.723C264.94 258.178 265.04 257.421 265.129 256.641C265.243 255.518 265.426 254.403 265.675 253.302C266.04 251.782 266.524 250.293 267.122 248.849C266.755 248.259 266.22 247.368 265.441 245.832C264.484 243.906 263.738 241.883 263.215 239.798L263.003 239.074C262.914 238.774 262.803 239.297 262.213 239.074C260.864 238.672 259.544 238.181 258.261 237.605C256.516 236.909 254.861 236.008 253.329 234.922C253.329 234.989 253.329 235.055 253.24 235.111L251.993 235.601C251.191 235.913 250.401 236.191 249.677 236.425C248.954 236.659 248.052 236.903 247.173 237.104C246.716 237.204 246.059 237.282 245.414 237.371C244.445 237.493 243.61 237.293 243.443 237.471C243.276 237.649 242.987 238.395 242.564 239.219C242.141 240.043 241.929 240.488 241.718 240.844C241.106 241.881 240.429 242.877 239.692 243.828C239.024 244.685 238.333 245.464 237.565 246.322L237.476 246.411C238.589 251.376 238.5 252.934 238.4 254.504C238.327 255.383 238.35 256.268 238.467 257.142C238.467 257.51 239.068 257.243 239.703 257.688C240.037 257.922 240.371 258.155 240.727 258.423C242.464 259.805 244.027 261.394 245.38 263.154V263.132ZM253.318 234.811C253.54 234.811 253.318 234.811 253.173 234.811C253.028 234.811 253.173 234.811 253.318 234.811ZM267.278 248.849C267.278 249.049 267.278 248.927 267.278 248.782C267.278 248.637 267.278 248.682 267.278 248.849ZM256.468 264.868C256.379 264.868 256.368 264.868 256.357 264.868H256.524H256.468ZM256.468 264.868C256.546 264.868 256.591 264.868 256.468 264.868V264.868ZM181.491 279.051C182.804 279.363 184.118 279.619 185.343 279.808C185.786 276.778 186.621 273.818 187.825 271.002C189.377 267.56 191.454 264.379 193.981 261.573C194.282 261.228 194.538 260.939 194.816 260.66C195.095 260.382 195.406 260.081 195.707 259.803C197.323 258.342 199.05 257.01 200.872 255.818L201.585 255.372C198.887 254.441 196.279 253.267 193.792 251.866C189.663 249.536 185.748 246.846 182.092 243.828L180.043 245.976C176.303 249.906 171.304 254.025 165.805 255.862C163.577 256.696 161.194 257.028 158.823 256.836C156.453 256.643 154.154 255.931 152.09 254.749C150.236 253.563 148.548 252.137 147.069 250.507C146.372 249.769 145.721 248.988 145.121 248.17C145.332 251.665 146.791 255.795 150.097 260.482C152.76 264.096 156.021 267.228 159.738 269.744C163.958 272.67 168.557 275.007 173.408 276.691C175.635 277.459 178.529 278.361 181.491 279.062V279.051ZM147.882 239.375C146.721 240.742 145.898 242.363 145.477 244.106L147.225 242.537C147.848 242.848 148.338 243.16 148.906 243.449C150.135 244.238 151.502 244.785 152.936 245.064C153.996 245.253 155.082 245.253 156.142 245.064C157.014 244.931 157.849 244.616 158.591 244.14C158.934 243.894 159.223 243.579 159.437 243.216C159.843 242.483 160.014 241.644 159.927 240.811C159.83 239.804 159.469 238.84 158.881 238.017C158.386 237.326 157.753 236.746 157.021 236.313C156.268 235.964 155.447 235.783 154.617 235.783C153.786 235.783 152.966 235.964 152.212 236.313C150.531 236.948 149.041 238.002 147.882 239.375V239.375ZM279.847 246.678C279.925 246.566 280.014 246.455 280.169 246.266L285.012 241.813C289.913 238.505 295.84 237.07 301.711 237.772C307.038 238.403 312.271 239.67 317.296 241.546L317.207 241.724C316.712 242.662 316.154 243.566 315.538 244.429C315.092 245.041 314.202 246.143 313.311 247.101C312.85 247.647 312.351 248.16 311.819 248.637L311.385 248.971C309.997 250.122 308.507 251.143 306.932 252.021C303.929 253.605 300.616 254.513 297.225 254.682C293.787 254.896 290.343 254.368 287.127 253.135C285.158 252.322 283.29 251.284 281.561 250.04C280.622 249.376 279.743 248.631 278.934 247.813C279.223 247.424 279.535 247.012 279.835 246.633L279.847 246.678ZM191.198 234.777C190.386 235.334 189.629 235.89 188.972 236.402L190.987 238.083C193.346 239.909 195.835 241.561 198.434 243.026C200.593 244.264 202.872 245.279 205.236 246.054C207.331 246.717 209.5 247.117 211.693 247.246C213.686 247.375 215.687 247.225 217.638 246.8C219.532 246.326 221.372 245.654 223.126 244.796C224.024 244.372 224.894 243.892 225.731 243.36L225.62 243.149C225.056 242.181 224.439 241.244 223.772 240.343C222.747 239.028 221.603 237.809 220.354 236.703L219.965 236.325C216.898 233.626 213.125 231.861 209.088 231.237C204.84 230.421 200.452 230.736 196.364 232.15C195.446 232.47 194.546 232.842 193.67 233.263C192.848 233.676 192.056 234.144 191.298 234.666V234.666L191.209 234.733L191.198 234.777ZM273.156 222.275C272.051 225.035 271.55 228 271.686 230.97C273.015 231.029 274.345 230.962 275.661 230.769C277.881 230.459 280.052 229.86 282.118 228.988C285.389 227.566 288.307 225.441 290.666 222.765C293.025 220.089 294.766 216.927 295.766 213.503C296.753 210.176 296.94 206.663 296.312 203.25C295.087 203.695 293.684 204.363 292.237 204.975C289.404 206.296 286.663 207.806 284.032 209.495L279.635 212.835C276.766 215.435 274.547 218.673 273.156 222.286V222.275ZM252.984 220.861C253.479 221.557 254.01 222.226 254.576 222.865C257.038 220.927 259.054 218.482 260.487 215.696C262.458 212.113 263.531 208.106 263.615 204.018C263.625 201.859 263.341 199.71 262.769 197.628C262.235 195.696 261.489 193.829 260.543 192.062C259.913 190.912 259.167 189.831 258.316 188.833C257.459 187.824 256.533 186.876 255.544 185.994L251.871 193.086C250.216 196.781 249.139 200.708 248.676 204.73C248.276 208.629 248.838 212.566 250.312 216.197C251.041 217.839 251.936 219.402 252.984 220.861ZM319.601 199.442C315.055 199.34 310.51 199.683 306.03 200.467L306.086 200.778C306.22 201.435 306.342 202.059 306.42 202.649C306.77 205.282 306.792 207.948 306.487 210.586C306.179 213.162 305.593 215.696 304.739 218.145C304.256 219.578 303.66 220.97 302.958 222.309C302.29 223.567 301.6 224.702 300.843 225.893C300.47 226.483 300.065 227.052 299.629 227.597C300.275 227.597 300.976 227.597 301.744 227.741L302.991 227.875C305.218 228.109 307.322 228.343 309.593 228.799C312.741 229.409 315.829 230.295 318.822 231.449C319.601 231.727 320.358 232.005 321.159 232.261L321.416 231.671C323.186 227.641 326.369 220.416 332.236 216.086C334.87 213.971 338.094 212.722 341.465 212.512C344.806 212.481 348.1 213.296 351.039 214.883L351.317 215.039L354.023 216.82H354.101C353.136 214.49 351.713 212.377 349.915 210.608C347.873 208.602 345.57 206.879 343.068 205.487C340.176 203.863 337.12 202.55 333.951 201.569C329.293 200.213 324.474 199.494 319.623 199.431L319.601 199.442ZM353.522 227.541C352.733 228.967 351.581 230.157 350.182 230.992C349.555 231.386 348.849 231.638 348.115 231.73C347.38 231.822 346.634 231.753 345.929 231.526C345.179 231.263 344.485 230.863 343.881 230.346C343.128 229.706 342.572 228.864 342.278 227.919C342.038 227.159 342.038 226.342 342.278 225.582C342.388 225.275 342.554 224.992 342.768 224.747C343.839 223.463 345.329 222.599 346.976 222.309C349.026 222.022 351.11 222.074 353.143 222.465C353.651 222.908 354.252 223.231 354.902 223.411C354.694 224.862 354.218 226.263 353.499 227.541H353.522ZM233.212 227.129C234.182 227.407 235.167 227.626 236.163 227.786C236.803 224.395 236.769 220.911 236.062 217.533C235.214 213.808 233.432 210.361 230.886 207.514C229.824 206.262 228.65 205.111 227.379 204.074C225.95 202.924 224.374 201.969 222.692 201.235C220.553 200.31 218.31 199.645 216.013 199.253C214.978 199.084 213.933 198.991 212.884 198.975C213.614 203.152 214.79 207.239 216.391 211.165C217.763 214.765 219.858 218.047 222.547 220.806C223.26 221.474 223.661 221.919 224.095 222.342C225.073 223.363 226.203 224.227 227.446 224.903C229.271 225.874 231.208 226.622 233.212 227.129V227.129ZM175.513 221.207L181.647 229.601C183.168 228.187 184.828 226.93 186.601 225.849C187.966 224.998 189.396 224.254 190.875 223.622C195.869 221.471 201.302 220.532 206.728 220.884C207.883 220.986 209.031 221.15 210.168 221.374L210.057 221.184C208.042 217.637 206.436 213.872 205.27 209.963C204.306 206.756 203.511 203.501 202.887 200.211L201.774 200.322C198.924 200.6 195.006 200.968 192.646 200.912C190.891 200.877 189.142 200.709 187.413 200.411C182.939 199.814 178.793 197.737 175.635 194.511C172.763 191.383 171.182 187.174 171.327 181.853C171.327 181.129 171.394 180.384 171.46 179.627C171.054 180.17 170.682 180.739 170.347 181.33C167.441 186.384 166.785 192.885 167.608 199.487C168.621 207.211 171.327 214.617 175.535 221.173L175.513 221.207ZM178.396 175.073C179.706 174.751 181.062 174.661 182.404 174.806C183.576 174.91 184.714 175.259 185.743 175.83C186.373 176.172 186.927 176.639 187.371 177.202C187.815 177.764 188.14 178.411 188.326 179.103V179.103C188.575 180.092 188.556 181.13 188.27 182.109C188.05 182.911 187.646 183.65 187.09 184.269C186.632 184.806 186.023 185.194 185.343 185.382C184.739 185.518 184.111 185.499 183.517 185.326C182.686 185.076 181.897 184.701 181.179 184.213C180.497 183.781 179.895 183.235 179.398 182.599L179.264 182.399C178.724 181.681 178.255 180.913 177.862 180.105L177.539 179.415C177.438 179.181 177.349 178.959 177.26 178.714V178.602L176.604 176.988L173.943 177.255C175.265 176.225 176.778 175.468 178.396 175.029V175.073ZM261.946 176.187L260.832 177.422C264.985 180.81 268.325 185.086 270.607 189.935C272.766 194.607 273.795 199.721 273.612 204.864V204.864C275.721 203.127 277.953 201.545 280.292 200.133C283.079 198.482 285.959 196.995 288.92 195.68C290.556 194.945 292.204 194.266 293.684 193.754C293.595 193.475 293.495 193.175 293.395 192.885C293.172 192.229 292.95 191.594 292.772 190.971C291.832 187.846 291.184 184.641 290.834 181.397C290.411 178.049 290.611 174.652 291.424 171.377C292.386 167.512 294.772 164.153 298.104 161.97C301.195 160.057 304.716 158.951 308.346 158.753C307.565 158.344 306.749 158.005 305.908 157.74C301.804 156.502 297.461 156.276 293.25 157.083C287.958 158.085 282.864 159.939 278.166 162.572C276.444 163.594 274.779 164.709 273.178 165.911C271.37 167.204 269.627 168.586 267.957 170.053L267.645 170.387C267.443 170.624 267.227 170.851 267 171.066V171.066L262.346 175.719L261.957 176.175L261.946 176.187ZM314.146 165.054C315.013 166.996 315.239 169.164 314.792 171.244V171.244C314.647 172.035 314.338 172.787 313.886 173.453C313.433 174.118 312.847 174.681 312.164 175.107C311.268 175.606 310.25 175.846 309.225 175.797C308.373 175.766 307.54 175.529 306.798 175.107C306.155 174.752 305.62 174.228 305.251 173.593C304.95 173.041 304.807 172.417 304.839 171.789C304.893 170.45 305.326 169.153 306.086 168.049V168.049C306.907 166.901 307.916 165.9 309.07 165.087C309.303 164.92 309.704 164.687 310.116 164.453C310.862 164.065 311.558 163.586 312.187 163.028L311.352 160.991C312.542 162.152 313.491 163.537 314.146 165.065V165.054ZM212.64 176.899C213.534 171.877 215.029 166.981 217.093 162.315C217.807 160.781 218.617 159.294 219.519 157.862C222.367 153.201 226.239 149.249 230.841 146.307C232.427 145.33 234.154 144.605 235.962 144.158C235.162 144.987 234.418 145.869 233.736 146.797C232.413 148.514 231.334 150.406 230.53 152.419C229.71 154.687 229.428 157.114 229.706 159.51C230.019 161.99 230.833 164.38 232.099 166.535C233.127 168.455 234.479 170.184 236.096 171.645L236.797 172.324L236.953 172.513C237.196 172.861 237.48 173.179 237.799 173.459C238.04 173.673 238.293 173.874 238.556 174.06C238.667 174.149 238.779 174.227 238.901 174.339L239.102 174.506L247.028 180.183C246.338 181.374 245.625 182.744 244.935 184.158C243.577 186.941 242.297 189.891 241.595 191.872C240.368 194.988 239.469 198.222 238.912 201.524C238.623 201.183 238.322 200.838 238.011 200.489C235.836 198.038 233.312 195.922 230.518 194.21C222.792 189.657 218.985 189.423 211.593 189.245C211.509 185.113 211.852 180.983 212.617 176.921L212.64 176.899ZM243.733 144.86C242.522 144.31 241.227 143.967 239.903 143.847L241.729 145.338C241.562 145.873 241.361 146.452 241.161 146.964C240.519 148.454 240.193 150.061 240.204 151.684C240.107 153.467 240.697 155.22 241.851 156.582C242.376 157.144 243.06 157.532 243.811 157.695C244.582 157.836 245.377 157.771 246.115 157.506C247.535 156.944 248.675 155.844 249.288 154.445C249.582 153.804 249.734 153.107 249.734 152.402C249.734 151.697 249.582 151 249.288 150.359C248.394 148.468 246.981 146.869 245.213 145.75C244.709 145.438 244.189 145.151 243.655 144.893L243.733 144.86ZM252.772 165.177C253.661 164.573 254.479 163.871 255.21 163.084L255.678 162.616C257.884 160.376 259.259 157.45 259.574 154.322C259.926 151.106 259.322 147.857 257.838 144.982C256.553 142.485 254.755 140.286 252.562 138.531C250.37 136.776 247.831 135.503 245.113 134.796C239.304 133.295 233.148 133.931 227.769 136.588C221.389 139.849 216.005 144.767 212.183 150.827C207.74 157.774 204.661 165.504 203.11 173.604C202.241 177.656 201.849 181.796 201.941 185.939C201.941 187.341 201.941 188.766 201.83 190.492C199.986 190.749 198.126 190.879 196.264 190.882C195.662 190.882 195.072 190.882 194.482 190.882C194.683 190.67 194.872 190.447 195.061 190.225C197.008 187.796 198.173 184.835 198.401 181.731C198.63 179.3 198.247 176.851 197.288 174.606C196.378 172.563 195.099 170.706 193.514 169.129C192.979 168.626 192.389 168.185 191.755 167.815V167.815C191.187 167.459 190.553 167.114 189.974 166.824L189.384 166.535C186.895 165.384 184.195 164.76 181.454 164.701C178.713 164.641 175.989 165.148 173.453 166.19C168.114 168.332 163.726 172.328 161.096 177.445V177.445C160.962 177.701 160.84 177.957 160.717 178.224C156.788 186.484 156.387 195.713 158.213 204.697C160.499 215.073 165.117 224.792 171.716 233.118C171.939 233.419 172.462 234.02 173.052 234.733C173.642 235.445 174.344 236.258 174.878 236.959L174.789 237.07L171.961 239.92C171.405 240.51 170.748 241.167 170.035 241.835C170.04 240.99 169.984 240.145 169.868 239.308C169.656 237.786 169.209 236.307 168.544 234.922C167.909 233.535 167.081 232.246 166.083 231.092C164.612 229.407 162.798 228.056 160.762 227.129C157.758 225.795 154.401 225.474 151.199 226.216C147.991 226.959 145.018 228.489 142.549 230.669C140.216 232.694 138.344 235.196 137.061 238.006C134.7 243.194 134.354 249.075 136.092 254.504C137.774 259.554 140.333 264.269 143.651 268.431C145.252 270.52 147.065 272.438 149.062 274.153C151.322 276.103 153.73 277.874 156.264 279.452C159.559 281.49 163.018 283.248 166.607 284.707C170.38 286.256 174.265 287.518 178.229 288.48H178.34L184.842 289.727C184.764 291.776 184.597 294.314 184.252 296.785V296.952C184.062 296.696 183.873 296.451 183.673 296.206C181.709 293.9 179.067 292.272 176.125 291.553C173.456 290.779 170.63 290.721 167.931 291.386C165.066 292.147 162.502 293.767 160.584 296.028C158.687 298.244 157.314 300.858 156.565 303.676C155.599 307.274 155.56 311.059 156.454 314.675C157.727 319.578 160.579 323.924 164.569 327.044C169.08 330.533 174.345 332.916 179.943 334.001C186.703 335.351 193.656 335.412 200.438 334.18C207.825 332.865 214.962 330.404 221.59 326.888C222.058 326.632 222.703 326.264 223.416 325.774C224.128 325.285 225.331 324.661 226.077 324.205C226.492 324.717 226.893 325.251 227.279 325.808C227.991 326.81 228.693 327.923 229.383 329.047L229.85 329.838C226.051 329.012 222.081 329.635 218.718 331.586C216.69 332.733 214.957 334.336 213.655 336.268C212.353 338.2 211.518 340.408 211.215 342.718C210.829 345.887 211.302 349.101 212.584 352.025C213.922 355.115 215.966 357.849 218.551 360.007C223.405 364.082 230.385 366.43 238.756 364.983C243.478 364.149 248.006 362.455 252.115 359.985C256.062 357.599 259.684 354.714 262.892 351.402L263.571 350.734C264.284 350.082 264.939 349.371 265.53 348.607V348.607L267.823 345.88C269.814 343.365 271.6 340.696 273.167 337.898C274.718 335.125 276.126 332.275 277.386 329.359C277.887 328.246 278.31 326.977 278.733 325.752C278.956 325.118 279.179 324.483 279.412 323.871L280.437 324.116C282.485 324.617 284.745 325.307 285.68 325.619L286.036 325.73C285.68 325.897 285.346 326.086 285.012 326.275C282.43 327.853 280.394 330.184 279.179 332.955C278.067 335.251 277.543 337.787 277.654 340.336C277.831 343.346 278.935 346.228 280.815 348.585C282.699 350.932 285.105 352.807 287.84 354.062C291.034 355.559 294.547 356.251 298.071 356.077C300.923 355.94 303.721 355.248 306.309 354.04C308.768 352.858 311.023 351.291 312.988 349.398C319.601 343.152 323.208 334.658 324.622 325.607C326.1 315.032 325.171 304.258 321.905 294.091V294.024L320.146 289.015L325.557 286.209L326.815 285.708C326.602 286.22 326.419 286.744 326.269 287.278C325.468 290.106 325.468 293.1 326.269 295.928C327.073 298.785 328.676 301.354 330.889 303.331C333.445 305.589 336.71 306.881 340.118 306.983C343.019 307.142 345.92 306.69 348.634 305.654C351.348 304.618 353.814 303.023 355.871 300.971C360.154 296.598 362.644 290.78 362.851 284.662C363.036 279.363 362.139 274.083 360.212 269.143C358.092 263.594 355.117 258.411 351.395 253.78C349.064 250.902 346.494 248.224 343.714 245.776C340.929 243.339 337.971 241.107 334.864 239.097C333.951 238.495 332.871 237.794 331.746 237.104C331.212 236.781 330.633 236.469 330.155 236.18C330.411 235.556 330.756 234.811 331.134 234.02C331.624 233.029 332.181 231.994 332.715 231.059C332.95 231.731 333.225 232.389 333.539 233.029C333.964 233.905 334.475 234.737 335.064 235.512C337.234 238.33 340.282 240.343 343.725 241.234C347.158 242.17 350.812 241.854 354.034 240.343C354.854 239.942 355.634 239.461 356.361 238.907V238.907C358.618 237.243 360.524 235.148 361.97 232.745C363.417 230.342 364.374 227.677 364.788 224.903C365.562 219.175 364.203 213.362 360.969 208.571C356.984 202.493 350.95 197.917 343.903 194.756C336.052 191.315 327.582 189.512 319.011 189.457C314.292 189.482 309.582 189.888 304.928 190.67L303.258 190.915L302.824 189.501C302.201 187.486 301.577 185.471 301.143 183.389L301.767 183.757C302.958 184.45 304.239 184.974 305.574 185.315C308.836 186.091 312.26 185.807 315.349 184.503C318.438 183.2 321.031 180.946 322.751 178.068C323.435 176.887 323.952 175.617 324.288 174.294V174.294V174.238C325.034 171.358 325.141 168.349 324.603 165.422C324.064 162.495 322.893 159.721 321.171 157.295C317.726 152.499 312.673 149.101 306.932 147.721H306.865C301.498 146.461 295.921 146.389 290.523 147.509C284.336 148.802 278.389 151.056 272.9 154.189C271.089 155.193 269.341 156.309 267.668 157.528C266.009 158.742 264.506 159.955 263.014 161.213C262.963 161.263 262.907 161.308 262.847 161.347V161.347C262.649 161.479 262.459 161.624 262.279 161.781C259.705 164.028 257.27 166.43 254.988 168.973L254.554 169.44L254.453 169.552L252.449 171.967C250.357 170.706 248.356 169.3 246.46 167.759V167.759C248.747 167.438 250.916 166.55 252.772 165.177V165.177Z" fill="#212255"/>
<path fill-rule="evenodd" clip-rule="evenodd" d="M236.207 313.051C237.946 311.382 239.585 309.613 241.117 307.752C247.061 301.072 247.796 296.798 248.909 295.161C250.735 300.727 250.501 302.241 254.476 307.819C257.029 311.339 260.295 314.283 264.061 316.458C266.78 318.035 269.717 319.201 272.777 319.92C272.421 322.87 268.48 330.707 267.211 333.179C261.166 344.389 249.221 356.368 235.895 357.804C230.752 358.361 224.83 356.691 221.946 352.983C220.426 351.177 219.365 349.031 218.851 346.727C218.514 345.502 218.491 344.213 218.785 342.977C219.079 341.741 219.68 340.6 220.532 339.658C227.423 332.978 236.352 339.368 232.199 348.497C231.281 350.493 230.01 352.307 228.448 353.852C241.807 348.864 243.599 338.266 236.641 326.566L230.719 317.949L236.218 313.051H236.207ZM253.362 289.083C253.349 293.597 254.487 298.041 256.668 301.993C258.85 305.945 262.004 309.276 265.831 311.671C267.412 312.661 271.876 315.01 273.969 315.01C274.902 310.554 275.387 306.015 275.416 301.462C275.416 291.777 272.989 283.26 265.808 277.638C263.705 275.807 261.292 274.363 258.684 273.375C257.839 274.335 257.117 275.397 256.535 276.536C254.464 280.399 253.374 284.711 253.362 289.094V289.083ZM227.379 313.964C228.993 313.218 235.506 306.783 236.597 305.359C238.823 302.375 239.936 301.685 242.43 297.31C244.505 293.42 245.648 289.103 245.77 284.697C245.77 281.034 244.245 274.499 242.43 272.106C238.656 272.462 234.103 275.523 231.22 277.828C228.066 280.489 225.603 283.873 224.039 287.691C222.335 291.997 221.747 296.663 222.331 301.257C222.915 305.851 224.652 310.222 227.379 313.964V313.964ZM278.978 316.046C278.911 315.433 279.847 309.901 280.014 308.598C280.321 305.852 280.444 303.089 280.381 300.327C280.314 291.632 279.424 291.933 277.765 285.442L281.238 287.981C284.897 290.412 289.022 292.058 293.35 292.812C296.837 293.391 300.395 293.391 303.882 292.812C308.769 291.999 309.448 291.053 312.587 290.14C318.866 304.301 320.981 326.599 311.118 340.237C307.099 345.803 301.021 350.323 293.194 348.119C278.544 344.011 287.205 327.201 295.421 332.433C295.925 332.701 296.38 333.05 296.768 333.468C296.928 333.667 297.103 333.853 297.291 334.025C298.216 334.987 298.942 336.122 299.429 337.365C300.687 340.292 300.219 341.94 300.442 345.057C301.143 343.376 301.9 342.207 302.557 340.203C303.254 338.235 303.582 336.156 303.525 334.069C303.352 330.418 301.753 326.981 299.072 324.495C294.33 320.298 287.005 317.816 278.978 316.157V316.046ZM194.449 287.78H192.345C192.423 295.384 191.031 304.757 187.335 309.923C185.509 312.696 182.708 314.683 179.487 315.489C176.459 316.268 170.046 315.856 167.697 314.376C184.174 312.238 181.413 297.922 171.449 298.334C162.009 298.735 160.317 314.12 168.666 320.599C176.748 326.878 186.812 328.336 197.277 326.956C202.147 326.26 206.914 324.97 211.471 323.115C215.08 321.65 218.58 319.932 221.946 317.972L223.06 317.315C223.494 316.936 223.149 317.226 223.382 316.947C222.47 315.066 220.577 313.196 219.007 308.698C216.181 301.04 216.436 292.583 219.72 285.108C220.243 283.85 221.078 282.648 221.468 281.501C220.499 281.835 218.328 283.272 215.801 284.229C208.936 286.552 201.73 287.708 194.482 287.647L194.449 287.78ZM253.451 271.772C253.273 272.64 251.225 275.891 250.201 278.718C249.809 278.126 249.571 277.445 249.51 276.737C249.355 276.113 249.21 275.534 248.987 274.878C248.489 273.694 248.072 272.478 247.74 271.237L253.451 271.772V271.772ZM262.357 269.334C263.732 267.82 265.434 266.64 267.334 265.883C267.656 267.252 267.79 268.721 268.246 270.146C268.703 271.571 269.26 272.863 269.493 274.076C268.38 273.553 267.267 272.362 265.964 271.56C264.695 270.932 263.488 270.187 262.357 269.334V269.334ZM231.565 271.226C232.767 268.554 233.647 267.575 234.571 264.369L234.715 263.89C234.769 263.736 234.861 263.598 234.982 263.489C236.729 264.609 238.22 266.084 239.358 267.82C237.937 268.162 236.572 268.705 235.305 269.434C234.111 270.119 232.877 270.733 231.609 271.271L231.565 271.226ZM272.132 263.734C276.653 262.382 281.442 262.187 286.059 263.166C293.851 265.036 299.484 270.391 303.993 276.291C305.451 278.206 309.303 283.516 310.049 285.609C307.611 287.558 300.163 288.482 296.39 288.181C284.144 287.201 272.722 276.948 272.132 263.689V263.734ZM296.445 262.231C298.32 263.549 300.119 264.973 301.833 266.495C305.215 269.671 308.205 273.24 310.739 277.126C312.13 279.061 313.362 281.105 314.424 283.238C315.248 283.027 318.232 281.368 319.233 280.878C324.332 278.396 330.288 276.058 336.333 276.492C338.272 276.643 340.163 277.173 341.899 278.05C346.352 280.277 349.492 286.233 350.126 291.254C347.377 287.825 343.647 284.084 338.304 284.852C330.399 285.966 331.457 299.414 340.842 299.514C348.701 299.592 354.201 293.558 355.214 285.854C356.683 274.187 349.147 261.552 341.343 253.871C338.176 250.769 334.721 247.977 331.023 245.532C329.22 244.23 327.322 243.066 325.345 242.048C324.61 243.54 324.165 244.742 323.341 246.122C322.518 247.503 321.738 248.616 320.926 249.774C319.148 252.106 317.049 254.175 314.691 255.919C307.878 261.029 303.782 261.04 296.49 262.231H296.445ZM192.523 282.793C192.847 278.395 194.246 274.144 196.598 270.413C203.21 259.604 218.729 254.65 230.407 260.695C229.65 264.329 228.114 267.757 225.906 270.741C223.698 273.726 220.87 276.196 217.616 277.984C211.337 281.68 200.917 282.793 192.523 282.793ZM272.31 258.546C272.443 257.01 272.844 254.093 273.657 253.169C274.614 253.871 275.36 254.616 276.473 255.462C277.587 256.309 278.477 256.787 279.312 257.544L272.31 258.546V258.546ZM222.737 253.414C224.24 253.559 225.73 253.827 227.19 254.216C228.537 254.583 229.873 255.229 231.119 255.451C231.138 253.389 230.948 251.33 230.552 249.306C229.259 249.908 228.005 250.592 226.8 251.355C226.199 251.677 225.575 251.945 224.874 252.245C223.572 252.813 223.338 252.613 222.759 253.358L222.737 253.414ZM245.002 266.506C249.199 266.651 250.568 266.05 255.299 267.118C257.103 267.519 256.958 267.541 258.027 266.528L262.168 263.088C263.025 262.498 266.621 260.717 267.011 260.127C267.478 258.791 267.59 255.741 268.046 253.993C270.05 246.2 270.785 251.11 267.623 244.798C266.611 242.78 265.826 240.655 265.285 238.463C264.818 236.871 263.259 237.283 259.173 235.446C252.149 232.285 255.7 231.561 251.091 233.342C249.642 233.911 248.154 234.376 246.638 234.734C245.447 235.001 242.285 235.146 241.651 235.847C241.261 236.259 240.014 238.975 239.591 239.665C238.477 241.465 237.182 243.147 235.728 244.686C235.194 245.276 234.726 245.566 234.982 246.679C236.753 254.349 235.517 253.459 235.996 257.489C236.118 258.446 237.944 259.481 239.224 260.461C242.074 262.688 243.621 265.226 245.024 266.55L245.002 266.506ZM187.491 282.548C182.904 282.281 176.67 280.455 172.596 279.041C163.567 275.924 153.67 269.901 148.104 261.908C133.866 241.881 150.887 229.791 158.246 234.155C163.033 236.994 163.812 243.495 160.005 246.178C157.741 247.563 155.038 248.044 152.435 247.525C149.451 246.946 148.338 245.911 146.045 244.764C146.969 247.236 150.988 251.165 153.336 252.557C162.354 257.734 172.061 250.753 178.229 244.252L181.858 240.445L182.637 241.035C189.84 247.069 199.67 253.681 209.11 254.527C208.498 255.095 208.888 254.828 207.83 255.206C203.981 256.665 200.447 258.85 197.421 261.641C196.884 262.117 196.382 262.63 195.918 263.177C190.708 269.178 188.471 274.187 187.491 282.515V282.548ZM275.895 248.037C276.575 246.761 277.392 245.563 278.333 244.464L283.42 239.788C295.287 231.583 308.646 235.758 320.725 239.999C319.976 242.082 318.938 244.05 317.642 245.844C316.398 247.542 315 249.122 313.467 250.564C311.818 251.925 310.048 253.133 308.179 254.171C304.822 255.906 301.136 256.914 297.363 257.129C293.59 257.344 289.814 256.761 286.281 255.418C282.786 254.049 277.887 250.965 275.895 248.07V248.037ZM277.531 238.085L272.789 243.484C272.521 243.25 272.789 243.651 272.455 243.161L271.976 242.337C271.731 241.859 271.586 241.458 271.386 240.979C271.009 240.17 270.722 239.323 270.529 238.452L277.531 238.085ZM185.242 236.537C186.575 235.022 188.138 233.726 189.873 232.696C191.596 231.506 193.467 230.548 195.44 229.847C203.789 226.752 215.3 228.577 221.623 234.567C223.123 235.885 224.498 237.338 225.731 238.908C226.98 240.521 227.988 242.306 228.726 244.207C226.689 246.156 221.735 248.46 218.15 249.295C213.582 250.211 208.856 249.938 204.424 248.505C199.37 246.902 193.458 243.239 189.384 240.111L185.187 236.615L185.242 236.537ZM232.823 240.489C232.309 239.918 231.885 239.273 231.565 238.574L227.791 233.509C229.125 233.716 230.434 234.059 231.698 234.533C233.143 234.99 234.639 235.263 236.151 235.346C235.595 237.339 233.747 239.22 232.812 240.489H232.823ZM243.443 230.281C243.766 227.008 244.022 224.38 244.156 220.985C244.606 221.633 245.018 222.305 245.391 223C246.404 224.637 248.898 227.453 249.522 228.566C247.605 229.465 245.55 230.03 243.443 230.236V230.281ZM258.55 229.423C259.065 228.787 259.668 228.229 260.342 227.765C262.058 226.099 263.689 224.35 265.23 222.521C265.23 224.002 264.717 225.538 264.573 226.974C264.428 228.41 264.417 230.314 264.35 232.006C262.308 231.413 260.357 230.544 258.55 229.423V229.423ZM269.471 233.209C267.935 223.456 273.624 214.717 278.154 210.854L282.607 207.515C286.136 205.088 294.597 200.757 298.449 200.067C299.228 205.466 299.841 208.806 298.226 214.228C297.126 218.003 295.208 221.49 292.608 224.441C290.009 227.393 286.792 229.736 283.186 231.305C279.546 232.897 273.935 234.088 269.482 233.231L269.471 233.209ZM254.342 226.017C261.099 222.232 266.154 212.469 266.131 204.03C266.148 199.429 264.97 194.903 262.714 190.894C261.259 188.323 259.377 186.019 257.147 184.081C256.795 183.716 256.423 183.371 256.034 183.045C255.646 182.717 255.233 182.419 254.798 182.155C254.798 182.155 254.698 182.155 254.687 182.255L249.566 192.074C246.07 200.29 244.523 208.695 247.985 217.144C249.154 220.005 252.438 224.737 254.364 226.05L254.342 226.017ZM303.236 198.475C303.236 199.288 303.815 201.815 303.96 202.928C304.581 207.775 304.043 212.701 302.39 217.3C301.493 219.852 300.27 222.277 298.75 224.514C297.29 226.683 295.591 228.681 293.684 230.47C296.49 230.403 298.371 229.924 301.477 230.281C304.127 230.57 306.476 230.782 309.114 231.305C315.994 232.674 318.187 234.233 322.473 235.301C323.686 233.698 326.659 223.379 333.728 218.146C339.116 214.161 343.87 214.228 349.937 217.189L353.867 219.76C354.312 220.183 353.867 219.76 354.212 220.139C348.345 219.159 344.092 219.471 340.909 223.156C338.248 226.228 339.795 232.062 345.117 233.932C353.767 237.005 364.376 221.82 351.685 208.917C347.388 204.542 340.975 201.191 334.674 199.232C325.301 196.326 313.077 196.371 303.225 198.508L303.236 198.475ZM238.189 230.403C240.593 220.139 238.189 211.99 232.767 205.912C230.282 202.946 227.157 200.583 223.627 198.998C219.965 197.417 214.476 195.959 209.923 196.772C211.137 205.9 214.766 217.078 220.755 222.688C223.182 224.915 222.447 224.803 226.121 227.141C228.348 228.555 234.905 230.826 238.189 230.481V230.403ZM181.413 233.042C183.639 231.416 183.895 230.503 187.948 227.921C190.478 226.342 193.228 225.145 196.108 224.369C204.168 222.243 209.11 223.256 216.335 225.483C214.821 223.714 213.451 221.826 212.239 219.838C208.331 213.159 206.405 205.466 204.958 197.573C204.346 197.451 196.33 198.486 192.712 198.408C179.843 198.186 171.872 191.506 174.232 177.913L174.889 179.527C175.093 180.098 175.331 180.656 175.602 181.197C176.097 182.188 176.682 183.13 177.349 184.014C178.76 185.776 180.681 187.06 182.849 187.688C188.159 189.191 192.055 183.557 190.764 178.459C188.638 170.354 174.321 169.386 168.165 180.118C161.207 192.219 165.861 211.133 173.453 222.677L180.233 231.962C180.602 232.365 181.005 232.737 181.435 233.075L181.413 233.042ZM257.437 177.913C266.888 184.893 272.187 195.135 270.929 207.214C270.751 208.906 270.128 210.977 270.05 212.391C272.8 208.149 277.297 204.843 281.572 202.182C284.745 200.201 292.515 196.26 296.723 195.336C296.467 193.922 295.61 191.64 295.12 190.137C293.484 184.571 292.248 177.769 293.796 172.091C295.722 164.988 301.588 161.393 310.494 161.203C309.782 161.871 308.491 162.417 307.611 163.062C304.884 165.089 302.546 167.727 302.368 171.69C302.123 176.989 308.535 179.984 313.389 177.256C317.319 175.03 318.721 169.23 316.473 164.009C315.573 161.939 314.23 160.093 312.539 158.598C310.849 157.104 308.851 155.998 306.687 155.359C296.211 152.019 284.834 156.105 276.986 160.38C273.193 162.646 269.616 165.255 266.298 168.172C265.886 168.54 265.664 168.896 265.185 169.286L260.521 173.95C259.378 175.178 258.346 176.504 257.437 177.913ZM209.244 191.662C208.42 181.309 211.114 169.397 214.81 161.281C220.254 149.503 234.203 135.766 246.616 143.636C249.421 145.395 254.108 150.204 251.581 155.503C248.163 162.706 237.944 161.971 237.71 151.763C237.632 148.635 238.545 147.098 239.358 144.605C237.476 145.718 233.992 150.171 232.878 153.299C232.195 155.281 231.965 157.39 232.204 159.473C232.443 161.555 233.145 163.558 234.259 165.334C235.355 167.313 236.795 169.081 238.512 170.555C238.89 170.933 238.979 171.211 239.402 171.601C239.825 171.991 240.115 172.113 240.515 172.469L250.345 179.516C247.777 183.702 245.622 188.128 243.911 192.731C239.881 203.752 241.707 205.322 241.005 209.318C238.38 203.967 234.312 199.456 229.26 196.293C221.323 191.617 217.772 191.84 209.222 191.617L209.244 191.662ZM239.536 164.12C243.655 165.233 246.649 166.235 251.392 163.085C252.308 162.435 253.152 161.689 253.908 160.858C257.47 157.363 258.216 151.206 255.6 146.152C250.49 136.278 238.311 134.251 228.882 138.86C215.99 145.128 208.376 160.057 205.57 174.095C203.733 183.268 204.847 185.495 204.201 192.308C201.975 193.788 189.439 193.721 186.912 192.608C189.396 191.977 191.61 190.564 193.228 188.577C194.846 186.59 195.781 184.136 195.896 181.576C196.286 177.023 194.538 173.783 191.755 170.922C190.873 170.17 189.896 169.538 188.849 169.041C179.709 164.298 167.864 169.041 162.988 179.283C154.94 196.204 162.755 217.723 173.62 231.605C174.422 232.619 177.639 236.259 177.995 237.038C177.597 237.653 177.126 238.218 176.592 238.719L173.676 241.602C171.65 243.729 168.41 246.835 165.326 247.881C166.673 245.12 167.831 243.617 167.308 239.588C166.959 237.053 165.875 234.677 164.191 232.752C156.687 224.102 143.885 229.078 139.343 238.975C134.678 249.262 139.577 258.88 145.644 266.94C148.991 271.074 153.033 274.593 157.589 277.338C164.171 281.327 171.333 284.268 178.819 286.055L187.202 287.658L187.369 288.86C187.246 293.38 186.734 301.173 184.53 304.691C183.751 299.18 180.867 295.473 175.446 293.992C162.977 290.652 156.186 303.722 158.836 314.031C161.396 324.05 170.714 329.427 180.455 331.464C194.026 334.292 208.465 330.863 220.432 324.584C221.679 323.928 225.765 321.245 226.778 321.178C228.587 323.181 230.177 325.372 231.52 327.713C232.634 329.583 234.604 332.856 235.038 335.316C234.517 334.964 234.029 334.565 233.58 334.125C229.75 331.253 223.894 331.331 219.987 333.68C205.704 342.252 216.747 366.187 238.322 362.446C247.406 360.865 254.899 355.767 261.055 349.588C261.926 348.791 262.737 347.932 263.482 347.016L265.864 344.189C269.619 339.296 272.718 333.933 275.082 328.236C276.073 326.009 276.83 323.148 277.832 321C279.468 321 284.812 322.581 286.459 323.126C289.029 323.858 291.454 325.026 293.629 326.577C287.873 326.577 283.843 328.804 281.383 333.936C276.273 344.879 287.038 354.119 297.915 353.551C302.956 353.25 307.71 351.107 311.274 347.529C324.844 334.715 324.867 311.515 319.523 294.805L317.052 287.747L324.466 283.906C326.347 283.093 331.012 281.412 333.238 281.546C323.965 287.936 328.073 303.922 340.241 304.446C351.863 304.935 359.845 295.606 360.379 284.507C360.936 272.74 354.646 261.752 349.469 255.307C344.93 249.764 339.547 244.97 333.517 241.102C331.509 239.733 329.415 238.495 327.249 237.394C327.371 235.168 331.067 228.6 332.604 226.507C333.237 225.411 334.068 224.441 335.053 223.646C334.563 227.108 334.318 228.778 335.821 231.862C339.161 238.808 348.712 241.525 354.88 236.838C363.496 230.314 364.754 218.892 358.854 209.908C351.006 197.941 334.151 192.096 318.989 191.918C310.94 191.84 303.537 193.61 301.433 193.566C299.874 187.999 297.659 182.923 298.093 176.355C298.905 177.156 299.329 178.581 300.197 179.372C301.02 180.241 301.96 180.99 302.991 181.598C304.713 182.558 306.63 183.114 308.599 183.224C310.567 183.335 312.534 182.997 314.353 182.235C316.171 181.474 317.793 180.31 319.095 178.83C320.398 177.35 321.347 175.594 321.872 173.694C324.677 162.495 316.996 152.787 306.286 150.126C294.619 147.221 282.607 151.607 274.136 156.316C270.756 158.258 267.578 160.533 264.651 163.107C264.361 163.352 264.183 163.43 263.905 163.664C261.253 165.994 258.748 168.485 256.401 171.122L254.175 173.85C253.652 174.451 253.808 174.551 253.062 175.086C249.009 173.149 241.595 167.671 239.536 164.12Z" fill="white"/>
<path fill-rule="evenodd" clip-rule="evenodd" d="M252.138 230.814C248.307 230.814 244.562 231.951 241.376 234.079C238.191 236.207 235.708 239.233 234.242 242.772C232.776 246.312 232.392 250.207 233.139 253.964C233.887 257.722 235.732 261.173 238.441 263.882C241.15 266.591 244.601 268.436 248.359 269.183C252.116 269.931 256.011 269.547 259.551 268.081C263.09 266.615 266.115 264.132 268.244 260.947C270.372 257.761 271.508 254.016 271.508 250.185C271.508 245.048 269.468 240.121 265.835 236.488C262.202 232.855 257.275 230.814 252.138 230.814Z" fill="#B89617"/>
<path fill-rule="evenodd" clip-rule="evenodd" d="M192.456 279.784C193.68 273.625 197.027 268.091 201.914 264.147C206.801 260.203 212.918 258.1 219.196 258.205C225.475 258.31 231.518 260.615 236.271 264.72C241.024 268.824 244.184 274.467 245.202 280.664C245.964 284.362 245.772 288.193 244.646 291.796C243.749 295.201 242.187 298.395 240.048 301.192C236.363 306.58 230.697 312.269 222.581 318.08C197.388 333.12 178.351 328.233 170.336 323.045C162.321 317.858 160.495 309.119 164.58 302.472C167.853 297.184 174.878 298.108 177.784 302.06C178.457 303.013 178.85 304.136 178.917 305.301C178.984 306.467 178.722 307.627 178.162 308.651C177.445 309.94 176.48 311.075 175.323 311.991C172.834 313.899 169.808 314.977 166.673 315.074C192.846 323.925 191.465 292.019 191.855 289.08C191.679 285.983 191.881 282.877 192.456 279.829V279.784Z" stroke="white" stroke-width="9.01" stroke-miterlimit="2.61"/>
<path fill-rule="evenodd" clip-rule="evenodd" d="M192.456 279.785C193.674 273.622 197.018 268.083 201.904 264.134C206.791 260.186 212.91 258.081 219.191 258.185C225.473 258.29 231.518 260.599 236.27 264.708C241.022 268.816 244.18 274.464 245.191 280.665C245.951 284.362 245.763 288.192 244.646 291.797C243.745 295.203 242.179 298.397 240.037 301.193C236.352 306.581 230.697 312.27 222.57 318.081C197.388 333.121 178.351 328.234 170.336 323.046C162.321 317.859 160.484 309.12 164.58 302.485C167.842 297.186 174.878 298.121 177.772 302.073C178.451 303.021 178.847 304.143 178.914 305.308C178.981 306.472 178.717 307.632 178.151 308.652C177.439 309.941 176.478 311.077 175.323 311.992C172.835 313.902 169.809 314.981 166.673 315.076C192.846 323.926 191.454 292.02 191.844 289.081C191.67 285.984 191.876 282.877 192.456 279.83V279.785Z" fill="#B89617"/>
<path fill-rule="evenodd" clip-rule="evenodd" d="M212.807 196.18C219.095 196.299 225.14 198.627 229.885 202.755C234.63 206.882 237.772 212.548 238.761 218.759C239.75 224.97 238.522 231.331 235.293 236.728C232.065 242.125 227.04 246.214 221.1 248.28C217.569 249.685 213.737 250.168 209.968 249.683C206.47 249.38 203.066 248.392 199.948 246.777C193.981 244.072 187.402 239.486 180.266 232.494C161.085 210.307 162.588 190.714 166.306 181.919C170.024 173.125 178.318 169.796 185.565 172.679C191.343 174.973 191.644 182.053 188.259 185.604C187.441 186.435 186.406 187.017 185.271 187.285C184.137 187.553 182.95 187.495 181.847 187.118C180.448 186.631 179.158 185.875 178.051 184.892C175.771 182.756 174.214 179.961 173.598 176.899C169.49 204.218 200.661 197.316 203.589 197.193C206.609 196.484 209.704 196.144 212.807 196.18V196.18Z" stroke="white" stroke-width="9.01" stroke-miterlimit="2.61"/>
<path fill-rule="evenodd" clip-rule="evenodd" d="M212.807 196.18C219.095 196.299 225.14 198.627 229.885 202.754C234.63 206.882 237.772 212.548 238.761 218.759C239.75 224.97 238.522 231.331 235.293 236.728C232.065 242.125 227.04 246.214 221.1 248.28C217.568 249.684 213.737 250.167 209.968 249.683C206.468 249.39 203.062 248.402 199.948 246.777C193.981 244.072 187.402 239.486 180.266 232.494C161.085 210.307 162.588 190.714 166.306 181.919C170.024 173.125 178.318 169.796 185.565 172.679C191.343 174.973 191.644 182.064 188.259 185.604C187.441 186.435 186.406 187.017 185.271 187.285C184.137 187.553 182.95 187.495 181.847 187.118C180.45 186.628 179.161 185.872 178.051 184.892C175.771 182.751 174.214 179.953 173.598 176.887C169.49 204.218 200.661 197.316 203.589 197.193C206.609 196.484 209.704 196.144 212.807 196.18V196.18Z" fill="#B89617"/>
<path fill-rule="evenodd" clip-rule="evenodd" d="M270.451 314.485C264.6 312.209 259.734 307.952 256.701 302.456C253.667 296.96 252.659 290.574 253.851 284.411C255.043 278.247 258.361 272.698 263.226 268.73C268.09 264.762 274.193 262.627 280.47 262.697C284.267 262.587 288.029 263.445 291.402 265.191C294.597 266.666 297.468 268.758 299.852 271.347C304.527 275.911 309.136 282.479 313.456 291.486C323.887 318.905 315.771 336.795 309.27 343.809C302.768 350.822 293.84 351.078 288.018 345.901C283.376 341.771 285.502 335.003 289.899 332.832C290.953 332.334 292.125 332.142 293.282 332.278C294.44 332.414 295.535 332.872 296.445 333.6C297.588 334.521 298.541 335.655 299.251 336.94C300.663 339.729 301.165 342.89 300.687 345.979C313.946 321.744 282.285 317.558 279.457 316.667C276.375 316.295 273.351 315.547 270.451 314.441V314.485Z" stroke="white" stroke-width="9.01" stroke-miterlimit="2.61"/>
<path fill-rule="evenodd" clip-rule="evenodd" d="M270.451 314.486C264.595 312.215 259.723 307.96 256.686 302.463C253.648 296.966 252.637 290.577 253.831 284.411C255.024 278.245 258.345 272.694 263.214 268.728C268.083 264.761 274.19 262.63 280.47 262.708C284.266 262.59 288.029 263.444 291.402 265.191C294.599 266.667 297.471 268.763 299.852 271.358C304.527 275.922 309.136 282.491 313.456 291.486C323.887 318.905 315.771 336.806 309.27 343.809C302.768 350.811 293.84 351.089 288.018 345.902C283.376 341.771 285.513 335.003 289.899 332.832C290.953 332.332 292.126 332.14 293.285 332.278C294.443 332.416 295.538 332.878 296.445 333.611C297.591 334.529 298.545 335.664 299.251 336.951C300.661 339.74 301.163 342.901 300.687 345.991C313.946 321.755 282.285 317.58 279.457 316.679C276.376 316.304 273.351 315.557 270.451 314.452V314.486Z" fill="#B89617"/>
<path fill-rule="evenodd" clip-rule="evenodd" d="M319.078 244.352C315.828 249.732 310.791 253.798 304.847 255.84C298.903 257.882 292.43 257.77 286.56 255.523C280.691 253.276 275.798 249.037 272.737 243.548C269.676 238.058 268.642 231.668 269.816 225.493C270.362 221.736 271.856 218.181 274.158 215.162C276.167 212.272 278.728 209.809 281.695 207.915C287.005 204.096 294.274 200.701 303.893 198.007C332.704 192.441 348.913 203.573 354.68 211.21C360.446 218.847 359.133 227.675 353.043 232.507C348.167 236.37 341.911 233.085 340.508 228.388C340.195 227.262 340.206 226.072 340.541 224.953C340.876 223.834 341.52 222.832 342.4 222.064C343.512 221.081 344.806 220.325 346.208 219.838C349.2 218.939 352.398 218.993 355.359 219.994C333.795 202.727 324.188 233.175 322.807 235.802C321.911 238.773 320.658 241.625 319.078 244.296V244.352Z" stroke="white" stroke-width="9.01" stroke-miterlimit="2.61"/>
<path fill-rule="evenodd" clip-rule="evenodd" d="M319.067 244.36C315.815 249.747 310.771 253.817 304.82 255.858C298.868 257.899 292.388 257.781 286.515 255.524C280.642 253.267 275.751 249.016 272.698 243.514C269.644 238.013 268.624 231.613 269.816 225.435C270.364 221.679 271.858 218.124 274.158 215.104C276.167 212.214 278.728 209.751 281.695 207.857C287.005 204.049 294.274 200.643 303.893 197.96C332.704 192.394 348.913 203.526 354.668 211.163C360.424 218.8 359.121 227.617 353.043 232.46C348.167 236.312 341.91 233.039 340.508 228.33C340.194 227.206 340.205 226.017 340.54 224.9C340.875 223.782 341.52 222.783 342.4 222.017C343.509 221.03 344.804 220.274 346.208 219.791C349.2 218.892 352.398 218.946 355.359 219.947C333.795 202.68 324.187 233.139 322.807 235.766C321.913 238.74 320.657 241.593 319.067 244.26V244.36Z" fill="#B89617"/>
<path fill-rule="evenodd" clip-rule="evenodd" d="M257.058 183.445C261.789 187.581 264.915 193.247 265.892 199.454C266.868 205.661 265.633 212.014 262.401 217.402C259.169 222.79 254.146 226.872 248.211 228.932C242.275 230.993 235.804 230.903 229.928 228.677C226.324 227.482 223.083 225.391 220.51 222.599C218.01 220.119 216.027 217.168 214.677 213.915C211.849 208.026 209.756 200.278 208.788 190.392C208.354 161.058 222.147 146.975 230.607 142.667C239.068 138.359 247.596 141.108 251.292 147.966C254.242 153.443 249.922 159.099 245.058 159.6C243.896 159.714 242.727 159.496 241.684 158.972C240.642 158.448 239.769 157.638 239.168 156.638C238.408 155.372 237.905 153.969 237.688 152.508C237.319 149.406 237.926 146.266 239.424 143.524C218.673 161.77 246.995 176.521 249.344 178.336C252.118 179.729 254.71 181.46 257.058 183.49V183.445Z" stroke="white" stroke-width="9.01" stroke-miterlimit="2.61"/>
<path fill-rule="evenodd" clip-rule="evenodd" d="M257.058 183.432C261.781 187.571 264.901 193.237 265.874 199.441C266.846 205.645 265.61 211.993 262.381 217.379C259.151 222.765 254.133 226.846 248.202 228.91C242.271 230.975 235.804 230.891 229.928 228.675C226.322 227.485 223.08 225.392 220.51 222.596C218.008 220.118 216.025 217.166 214.677 213.913C211.849 208.024 209.756 200.276 208.777 190.345C208.354 161.011 222.136 146.928 230.596 142.62C239.057 138.312 247.585 141.062 251.292 147.919C254.242 153.396 249.922 159.052 245.046 159.553C243.885 159.664 242.717 159.445 241.675 158.921C240.633 158.397 239.76 157.59 239.157 156.591C238.399 155.325 237.896 153.921 237.677 152.461C237.306 149.358 237.918 146.216 239.424 143.477C218.662 161.724 246.995 176.474 249.343 178.278C252.11 179.684 254.7 181.415 257.058 183.432V183.432Z" fill="#B89617"/>
<path fill-rule="evenodd" clip-rule="evenodd" d="M238.022 230.368C235.252 230.226 232.521 229.651 229.928 228.664C226.323 227.478 223.081 225.389 220.51 222.597C218.011 220.117 216.028 217.165 214.677 213.914C212.129 208.31 210.408 202.367 209.567 196.269C210.654 196.154 211.748 196.124 212.84 196.18C216.94 196.272 220.964 197.303 224.603 199.194C228.242 201.084 231.399 203.785 233.831 207.086C236.263 210.388 237.905 214.204 238.632 218.24C239.358 222.276 239.15 226.425 238.022 230.368Z" stroke="white" stroke-width="9.01" stroke-miterlimit="2.61"/>
<path fill-rule="evenodd" clip-rule="evenodd" d="M238.022 230.368C235.253 230.226 232.522 229.655 229.928 228.676C226.322 227.486 223.08 225.394 220.51 222.598C218.008 220.119 216.025 217.167 214.677 213.914C212.129 208.311 210.408 202.367 209.567 196.269C210.655 196.165 211.748 196.136 212.84 196.18C216.94 196.272 220.964 197.303 224.603 199.194C228.242 201.085 231.399 203.785 233.831 207.087C236.263 210.389 237.905 214.205 238.632 218.241C239.358 222.277 239.15 226.426 238.022 230.368Z" fill="#212255"/>
<path fill-rule="evenodd" clip-rule="evenodd" d="M187.302 234.019C192.196 230.082 198.317 227.989 204.597 228.106C210.877 228.223 216.917 230.543 221.66 234.66C226.404 238.776 229.551 244.429 230.552 250.629C231.552 256.83 230.343 263.186 227.134 268.585C225.336 271.93 222.716 274.762 219.519 276.812C216.644 278.843 213.394 280.281 209.957 281.043C203.644 282.79 195.651 283.525 185.699 282.79C156.754 278.126 145.299 262.14 142.493 253.011C139.688 243.882 143.885 236.034 151.299 233.529C157.244 231.581 161.987 236.802 161.697 241.689C161.607 242.853 161.189 243.967 160.491 244.903C159.794 245.839 158.845 246.558 157.756 246.977C156.378 247.504 154.911 247.757 153.437 247.723C150.316 247.547 147.328 246.403 144.887 244.45C159.248 268.051 178.696 242.713 180.89 240.721C182.745 238.239 184.898 235.996 187.302 234.041V234.019Z" stroke="white" stroke-width="9.01" stroke-miterlimit="2.61"/>
<path fill-rule="evenodd" clip-rule="evenodd" d="M187.302 234.02C192.198 230.086 198.32 227.997 204.6 228.116C210.879 228.235 216.918 230.556 221.661 234.672C226.405 238.789 229.552 244.44 230.554 250.641C231.557 256.841 230.35 263.196 227.145 268.597C225.34 271.934 222.721 274.76 219.531 276.813C216.651 278.839 213.402 280.28 209.968 281.055C203.656 282.791 195.651 283.526 185.699 282.791C156.754 278.127 145.299 262.152 142.493 253.012C139.688 243.872 143.885 236.035 151.31 233.53C157.244 231.582 161.998 236.803 161.697 241.701C161.607 242.864 161.189 243.977 160.492 244.911C159.794 245.845 158.845 246.562 157.756 246.978C156.381 247.512 154.912 247.766 153.437 247.724C150.318 247.553 147.332 246.408 144.898 244.451C159.259 268.052 178.708 242.725 180.89 240.721C182.751 238.245 184.904 236.003 187.302 234.042V234.02Z" fill="#B89617"/>
<path fill-rule="evenodd" clip-rule="evenodd" d="M187.302 234.019C190.513 231.44 194.275 229.636 198.295 228.746C202.316 227.855 206.488 227.903 210.487 228.885C214.487 229.866 218.206 231.756 221.357 234.407C224.509 237.058 227.007 240.399 228.659 244.172C226.376 245.937 223.824 247.324 221.1 248.279C217.569 249.684 213.737 250.167 209.968 249.682C206.47 249.379 203.066 248.392 199.948 246.777C194.344 244.116 189.16 240.646 184.563 236.479C185.412 235.59 186.327 234.767 187.302 234.019V234.019Z" stroke="white" stroke-width="9.01" stroke-miterlimit="2.61"/>
<path fill-rule="evenodd" clip-rule="evenodd" d="M187.302 234.019C190.514 231.44 194.276 229.636 198.298 228.746C202.319 227.855 206.492 227.903 210.492 228.885C214.492 229.866 218.213 231.756 221.365 234.407C224.517 237.058 227.017 240.399 228.67 244.172C226.386 245.942 223.83 247.33 221.1 248.279C217.568 249.683 213.737 250.166 209.968 249.682C206.468 249.389 203.062 248.401 199.948 246.777C194.341 244.113 189.154 240.644 184.552 236.479C185.404 235.59 186.324 234.767 187.302 234.019V234.019Z" fill="#212255"/>
<path fill-rule="evenodd" clip-rule="evenodd" d="M230.229 260.761C229.61 263.506 228.562 266.136 227.123 268.554C225.322 271.896 222.702 274.727 219.508 276.781C216.632 278.81 213.382 280.248 209.946 281.011C204.084 282.539 198.032 283.214 191.978 283.015C192.053 281.917 192.213 280.826 192.456 279.753C193.25 275.753 194.945 271.987 197.413 268.74C199.88 265.494 203.056 262.853 206.698 261.019C210.34 259.185 214.352 258.205 218.43 258.154C222.507 258.104 226.543 258.984 230.229 260.727V260.761Z" stroke="white" stroke-width="9.01" stroke-miterlimit="2.61"/>
<path fill-rule="evenodd" clip-rule="evenodd" d="M230.229 260.76C229.609 263.505 228.561 266.135 227.123 268.553C225.318 271.89 222.699 274.716 219.508 276.769C216.629 278.795 213.38 280.236 209.945 281.01C204.078 282.527 198.024 283.202 191.966 283.014C192.051 281.913 192.215 280.819 192.456 279.741C193.25 275.741 194.945 271.975 197.413 268.729C199.88 265.482 203.056 262.842 206.698 261.007C210.34 259.173 214.352 258.193 218.43 258.143C222.507 258.092 226.543 258.972 230.229 260.716V260.76Z" fill="#212255"/>
<path fill-rule="evenodd" clip-rule="evenodd" d="M225.086 311.258C222.049 305.753 221.045 299.356 222.249 293.186C223.452 287.016 226.786 281.465 231.669 277.505C236.551 273.545 242.67 271.427 248.956 271.523C255.242 271.618 261.294 273.92 266.053 278.027C269.025 280.377 271.354 283.44 272.822 286.933C274.321 290.119 275.176 293.569 275.338 297.086C275.972 303.587 275.338 311.558 272.811 321.255C263.181 348.964 245.458 357.458 235.984 358.638C226.511 359.818 219.486 354.296 218.35 346.581C217.449 340.425 223.438 336.618 228.192 337.787C229.323 338.077 230.348 338.682 231.15 339.531C231.952 340.38 232.497 341.439 232.723 342.585C233.008 344.029 233.008 345.515 232.723 346.96C232.011 350.004 230.365 352.748 228.014 354.808C253.752 344.789 232.177 321.21 230.596 318.716C228.471 316.454 226.628 313.942 225.108 311.235L225.086 311.258Z" stroke="white" stroke-width="9.01" stroke-miterlimit="2.61"/>
<path fill-rule="evenodd" clip-rule="evenodd" d="M225.086 311.257C222.056 305.754 221.056 299.361 222.26 293.195C223.465 287.029 226.797 281.483 231.676 277.525C236.554 273.567 242.669 271.448 248.95 271.54C255.232 271.632 261.281 273.927 266.042 278.026C269.018 280.375 271.351 283.439 272.822 286.932C274.318 290.119 275.169 293.569 275.327 297.085C275.972 303.587 275.327 311.558 272.8 321.254C263.181 348.963 245.458 357.457 235.984 358.637C226.511 359.817 219.486 354.295 218.35 346.581C217.449 340.424 223.438 336.617 228.192 337.786C229.322 338.076 230.346 338.681 231.146 339.53C231.946 340.38 232.489 341.439 232.711 342.584C233.002 344.032 233.002 345.523 232.711 346.97C231.984 349.992 230.339 352.714 228.002 354.763C253.741 344.744 232.166 321.176 230.574 318.671C228.451 316.409 226.612 313.897 225.097 311.19L225.086 311.257Z" fill="#B89617"/>
<path fill-rule="evenodd" clip-rule="evenodd" d="M225.086 311.258C221.697 305.122 220.849 297.904 222.722 291.15C224.595 284.396 229.041 278.646 235.105 275.133C237.341 273.831 239.757 272.867 242.274 272.271C243.712 274.885 244.698 277.723 245.191 280.665C245.951 284.363 245.763 288.192 244.646 291.798C243.745 295.204 242.179 298.397 240.037 301.194C236.438 306.25 232.117 310.751 227.212 314.553C226.416 313.513 225.705 312.411 225.086 311.258V311.258Z" stroke="white" stroke-width="9.01" stroke-miterlimit="2.61"/>
<path fill-rule="evenodd" clip-rule="evenodd" d="M225.086 311.257C223.103 307.643 221.979 303.621 221.804 299.502C221.628 295.384 222.405 291.28 224.073 287.511C225.741 283.741 228.256 280.407 231.423 277.768C234.589 275.129 238.322 273.255 242.33 272.293C243.746 274.903 244.714 277.733 245.191 280.665C245.951 284.362 245.763 288.192 244.646 291.797C243.745 295.203 242.179 298.396 240.037 301.193C236.435 306.247 232.115 310.747 227.212 314.552C226.411 313.516 225.7 312.413 225.086 311.257V311.257Z" fill="#212255"/>
<path fill-rule="evenodd" clip-rule="evenodd" d="M258.628 273.506C261.333 274.597 263.842 276.124 266.053 278.026C269.025 280.375 271.354 283.439 272.822 286.932C274.324 290.116 275.176 293.567 275.327 297.085C275.844 303.299 275.443 309.556 274.136 315.654C272.893 315.36 271.676 314.969 270.495 314.485C266.647 312.992 263.195 310.63 260.409 307.584C257.624 304.538 255.579 300.89 254.435 296.923C253.29 292.957 253.077 288.781 253.813 284.719C254.548 280.657 256.211 276.819 258.673 273.506H258.628Z" stroke="white" stroke-width="9.01" stroke-miterlimit="2.61"/>
<path fill-rule="evenodd" clip-rule="evenodd" d="M258.628 273.506C261.329 274.599 263.833 276.126 266.042 278.026C269.018 280.374 271.351 283.438 272.822 286.932C274.318 290.118 275.169 293.568 275.327 297.085C275.844 303.299 275.443 309.556 274.136 315.654C272.892 315.365 271.674 314.974 270.495 314.485C266.648 312.99 263.198 310.627 260.414 307.581C257.629 304.535 255.586 300.887 254.442 296.921C253.297 292.956 253.084 288.78 253.818 284.719C254.552 280.657 256.213 276.82 258.673 273.506H258.628Z" fill="#212255"/>
<path fill-rule="evenodd" clip-rule="evenodd" d="M307.633 287.166C301.687 289.194 295.217 289.068 289.354 286.81C283.491 284.552 278.608 280.306 275.558 274.813C272.508 269.32 271.485 262.931 272.667 256.76C273.85 250.59 277.164 245.031 282.029 241.056C284.849 238.54 288.262 236.782 291.948 235.946C295.347 235.02 298.896 234.778 302.39 235.233C308.903 235.723 316.651 237.783 325.768 241.913C351.373 256.207 356.672 275.132 356.182 284.673C355.693 294.213 349.046 300.158 341.254 299.935C335.042 299.757 332.348 293.2 334.296 288.714C334.781 287.654 335.556 286.752 336.531 286.112C337.505 285.472 338.641 285.12 339.806 285.096C341.283 285.07 342.751 285.334 344.126 285.875C346.997 287.105 349.411 289.204 351.028 291.876C345.606 264.779 318.677 281.934 315.927 283.07C313.333 284.77 310.54 286.146 307.611 287.166H307.633Z" stroke="white" stroke-width="9.01" stroke-miterlimit="2.61"/>
<path fill-rule="evenodd" clip-rule="evenodd" d="M307.633 287.166C301.687 289.194 295.217 289.068 289.354 286.81C283.491 284.552 278.608 280.305 275.558 274.813C272.508 269.32 271.485 262.93 272.667 256.76C273.85 250.589 277.164 245.031 282.029 241.055C284.879 238.526 288.327 236.767 292.048 235.945C295.443 235.014 298.989 234.772 302.479 235.233C308.992 235.722 316.751 237.782 325.857 241.912C351.462 256.206 356.761 275.132 356.271 284.672C355.782 294.213 349.135 300.158 341.343 299.935C335.12 299.757 332.437 293.2 334.385 288.713C334.868 287.652 335.642 286.748 336.617 286.108C337.593 285.468 338.729 285.117 339.896 285.095C341.373 285.069 342.84 285.334 344.215 285.875C347.084 287.108 349.497 289.205 351.117 291.875C345.696 264.778 318.755 281.934 316.016 283.069C313.421 284.767 310.628 286.143 307.7 287.166H307.633Z" fill="#B89617"/>
<path fill-rule="evenodd" clip-rule="evenodd" d="M275.961 248.115C277.553 245.424 279.607 243.034 282.029 241.056C284.859 238.528 288.289 236.765 291.992 235.936C295.388 235.01 298.933 234.768 302.423 235.223C308.913 235.854 315.271 237.46 321.282 239.988C320.671 241.506 319.926 242.966 319.055 244.352C316.872 247.959 313.868 251.001 310.288 253.229C306.708 255.458 302.653 256.81 298.452 257.177C294.251 257.543 290.023 256.914 286.111 255.339C282.2 253.765 278.714 251.289 275.939 248.115H275.961Z" stroke="white" stroke-width="9.01" stroke-miterlimit="2.61"/>
<path fill-rule="evenodd" clip-rule="evenodd" d="M275.961 248.113C277.552 245.424 279.602 243.035 282.017 241.055C284.867 238.526 288.316 236.767 292.037 235.945C295.431 235.014 298.978 234.772 302.468 235.233C308.958 235.854 315.317 237.456 321.326 239.986C320.717 241.509 319.972 242.973 319.1 244.361C315.471 250.359 309.636 254.695 302.847 256.439C296.058 258.183 288.855 257.196 282.786 253.69C280.215 252.226 277.908 250.341 275.961 248.113V248.113Z" fill="#212255"/>
<path fill-rule="evenodd" clip-rule="evenodd" d="M307.633 287.167C300.996 289.431 293.736 289.003 287.411 285.975C281.086 282.946 276.2 277.559 273.802 270.969C272.976 268.688 272.459 266.307 272.265 263.889C274.928 263.086 277.7 262.703 280.481 262.753C284.274 262.644 288.033 263.502 291.402 265.247C294.597 266.723 297.468 268.815 299.852 271.403C304.123 275.742 307.748 280.673 310.617 286.043C309.65 286.487 308.653 286.862 307.633 287.167Z" stroke="white" stroke-width="9.01" stroke-miterlimit="2.61"/>
<path fill-rule="evenodd" clip-rule="evenodd" d="M307.633 287.166C300.996 289.43 293.736 289.002 287.411 285.974C281.086 282.946 276.2 277.558 273.802 270.968C272.976 268.687 272.459 266.306 272.265 263.888C274.921 263.066 277.69 262.667 280.47 262.708C284.266 262.59 288.03 263.444 291.402 265.191C294.599 266.667 297.471 268.763 299.852 271.358C304.128 275.693 307.754 280.624 310.617 285.997C309.649 286.452 308.653 286.843 307.633 287.166Z" fill="#212255"/>
<path fill-rule="evenodd" clip-rule="evenodd" d="M299.206 202.424C300.175 208.635 298.93 214.989 295.689 220.374C292.447 225.76 287.415 229.834 281.473 231.885C275.532 233.936 269.058 233.833 263.184 231.594C257.311 229.354 252.412 225.121 249.344 219.635C247.336 216.412 246.187 212.729 246.004 208.937C245.683 205.428 246.061 201.89 247.117 198.528C248.742 192.205 252.116 184.924 257.76 176.686C276.362 153.942 295.866 152.016 305.173 154.154C314.48 156.291 319.189 163.872 317.608 171.465C316.35 177.554 309.426 179.09 305.362 176.374C304.406 175.716 303.654 174.802 303.192 173.738C302.729 172.673 302.575 171.5 302.746 170.351C302.979 168.893 303.493 167.494 304.26 166.232C305.977 163.619 308.463 161.604 311.374 160.466C283.754 161.1 295.967 190.613 296.601 193.507C297.821 196.361 298.696 199.351 299.206 202.413V202.424Z" stroke="white" stroke-width="9.01" stroke-miterlimit="2.61"/>
<path fill-rule="evenodd" clip-rule="evenodd" d="M299.206 202.437C300.16 208.642 298.905 214.985 295.662 220.36C292.418 225.735 287.391 229.801 281.457 231.849C275.522 233.898 269.057 233.798 263.189 231.568C257.32 229.339 252.42 225.12 249.344 219.648C247.338 216.42 246.188 212.734 246.004 208.938C245.683 205.433 246.062 201.899 247.117 198.541C248.731 192.217 252.116 184.937 257.749 176.699C276.362 153.944 295.866 152.029 305.173 154.166C314.48 156.304 319.189 163.885 317.619 171.522C316.361 177.611 309.437 179.148 305.374 176.42C304.407 175.761 303.647 174.841 303.182 173.767C302.717 172.693 302.566 171.509 302.746 170.353C302.984 168.898 303.502 167.503 304.271 166.245C305.98 163.629 308.463 161.613 311.374 160.478C283.754 161.113 295.967 190.625 296.612 193.52C297.835 196.372 298.706 199.363 299.206 202.426V202.437Z" fill="#B89617"/>
<path fill-rule="evenodd" clip-rule="evenodd" d="M299.206 202.436C299.833 206.526 299.505 210.707 298.249 214.65C296.992 218.593 294.841 222.192 291.963 225.166C289.085 228.14 285.558 230.408 281.658 231.793C277.759 233.178 273.591 233.643 269.482 233.15C269.221 230.595 269.334 228.014 269.816 225.491C270.362 221.734 271.856 218.179 274.158 215.16C276.17 212.273 278.731 209.81 281.695 207.913C286.899 204.329 292.605 201.534 298.627 199.619C298.887 200.543 299.08 201.484 299.206 202.436V202.436Z" stroke="white" stroke-width="9.01" stroke-miterlimit="2.61"/>
<path fill-rule="evenodd" clip-rule="evenodd" d="M299.206 202.436C299.833 206.526 299.505 210.707 298.249 214.65C296.992 218.593 294.841 222.192 291.963 225.166C289.085 228.14 285.558 230.408 281.658 231.793C277.759 233.178 273.591 233.643 269.482 233.15C269.221 230.595 269.334 228.014 269.816 225.491C270.364 221.735 271.858 218.18 274.158 215.16C276.167 212.27 278.728 209.807 281.695 207.913C286.902 204.333 292.607 201.539 298.627 199.619C298.882 200.544 299.075 201.485 299.206 202.436V202.436Z" fill="#212255"/>
<path fill-rule="evenodd" clip-rule="evenodd" d="M254.231 225.937C252.3 224.093 250.653 221.973 249.344 219.647C247.338 216.419 246.188 212.733 246.004 208.937C245.683 205.432 246.062 201.898 247.117 198.539C248.788 192.517 251.331 186.771 254.665 181.484C255.502 182.072 256.302 182.711 257.058 183.399C260.157 186.114 262.588 189.507 264.164 193.314C265.739 197.12 266.417 201.239 266.143 205.35C265.87 209.46 264.653 213.453 262.587 217.017C260.521 220.582 257.662 223.622 254.231 225.903V225.937Z" stroke="white" stroke-width="9.01" stroke-miterlimit="2.61"/>
<path fill-rule="evenodd" clip-rule="evenodd" d="M254.231 225.937C252.297 224.096 250.649 221.976 249.344 219.647C247.338 216.419 246.188 212.733 246.004 208.937C245.683 205.432 246.062 201.898 247.117 198.539C248.78 192.514 251.324 186.767 254.665 181.484C255.502 182.067 256.302 182.703 257.058 183.388C260.157 186.103 262.588 189.496 264.164 193.302C265.739 197.109 266.417 201.228 266.143 205.338C265.87 209.449 264.653 213.442 262.587 217.006C260.521 220.571 257.662 223.611 254.231 225.892V225.937Z" fill="#212255"/>
<path fill-rule="evenodd" clip-rule="evenodd" d="M258.483 229.354C260.064 229.967 261.712 231.336 264.35 231.993C264.506 230.334 264.35 228.653 264.584 226.928C264.818 225.202 265.152 223.744 265.352 222.218C263.674 224.472 261.709 226.496 259.507 228.241L258.483 229.277V229.354ZM260.086 230.612C259.527 230.285 258.947 229.995 258.35 229.744C258.292 229.721 258.239 229.687 258.194 229.644C258.154 229.606 258.123 229.56 258.102 229.509C258.08 229.458 258.069 229.404 258.069 229.349C258.069 229.294 258.08 229.239 258.102 229.189C258.123 229.138 258.154 229.092 258.194 229.054L259.207 228.03C260.302 227.179 261.325 226.241 262.268 225.224C263.203 224.222 264.072 223.165 264.951 222.018C264.997 221.956 265.058 221.907 265.128 221.876C265.198 221.845 265.276 221.833 265.352 221.84C265.46 221.857 265.558 221.915 265.625 222.002C265.691 222.089 265.721 222.199 265.708 222.308C265.619 223.031 265.486 223.732 265.352 224.456C265.218 225.18 265.04 226.159 264.951 227.017C264.862 227.874 264.829 228.798 264.818 229.666C264.807 230.534 264.818 231.258 264.718 232.048C264.718 232.048 264.718 232.049 264.718 232.138C264.691 232.245 264.624 232.337 264.53 232.395C264.437 232.453 264.324 232.473 264.217 232.449C262.759 232.017 261.369 231.383 260.086 230.568V230.612Z" fill="#212255"/>
<path fill-rule="evenodd" clip-rule="evenodd" d="M258.483 229.355C260.064 229.967 261.712 231.336 264.35 231.993C264.506 230.334 264.35 228.653 264.584 226.928C264.818 225.202 265.152 223.744 265.352 222.219C263.674 224.472 261.709 226.497 259.508 228.241L258.483 229.355Z" fill="#212255"/>
<path fill-rule="evenodd" clip-rule="evenodd" d="M243.332 230.079C245.461 229.872 247.538 229.291 249.466 228.365C248.776 227.252 244.712 222.676 244.056 220.572C244.074 223.77 243.832 226.965 243.332 230.124V230.079ZM247.017 229.779C245.819 230.124 244.594 230.362 243.354 230.491H243.265C243.158 230.469 243.063 230.408 242.999 230.319C242.935 230.231 242.907 230.121 242.92 230.012C243.407 226.968 243.646 223.889 243.632 220.806V220.527C243.629 220.438 243.656 220.35 243.708 220.277C243.761 220.204 243.836 220.152 243.922 220.127C244.028 220.095 244.143 220.107 244.24 220.159C244.338 220.211 244.412 220.299 244.445 220.405C244.89 221.875 247.095 224.658 248.553 226.495C249.132 227.229 249.6 227.819 249.8 228.131C249.862 228.219 249.887 228.327 249.871 228.433C249.854 228.539 249.797 228.634 249.711 228.699C248.874 229.195 247.965 229.559 247.017 229.779V229.779Z" fill="#212255"/>
<path fill-rule="evenodd" clip-rule="evenodd" d="M243.332 230.077C245.461 229.87 247.538 229.29 249.466 228.363C248.776 227.25 244.712 222.674 244.056 220.57C244.072 223.754 243.83 226.933 243.332 230.077Z" fill="#212255"/>
<path fill-rule="evenodd" clip-rule="evenodd" d="M229.605 255.605C227.101 254.926 225.03 254.369 222.303 253.768C222.219 253.754 222.144 253.711 222.091 253.645C222.014 253.566 221.971 253.46 221.971 253.35C221.971 253.24 222.014 253.134 222.091 253.055C223.85 251.891 225.714 250.892 227.657 250.072C228.604 249.638 229.439 249.237 229.884 248.958C229.932 248.933 229.985 248.918 230.039 248.914C230.093 248.909 230.147 248.915 230.199 248.932C230.251 248.948 230.299 248.975 230.34 249.01C230.382 249.045 230.416 249.088 230.44 249.137C230.975 250.105 231.075 252.677 231.153 254.413C231.153 254.814 231.153 255.17 231.153 255.46L229.472 255.593L229.605 255.605ZM230.719 255.916L229.605 255.605L230.719 255.916ZM231.22 255.616C231.207 255.668 231.183 255.718 231.151 255.762C231.119 255.805 231.078 255.842 231.032 255.87C230.985 255.898 230.934 255.917 230.88 255.924C230.826 255.932 230.771 255.93 230.719 255.916L231.22 255.616Z" fill="#212255"/>
<path fill-rule="evenodd" clip-rule="evenodd" d="M222.436 253.357C225.576 254.058 227.858 254.693 230.908 255.516C230.819 254.114 230.797 250.451 230.196 249.338C228.559 250.206 223.449 252.41 222.436 253.357Z" fill="#212255"/>
<path fill-rule="evenodd" clip-rule="evenodd" d="M236.062 235.233C232.723 235.088 230.429 233.908 227.613 233.274C229.06 235.244 231.142 238.718 232.567 240.365C234.025 238.874 235.209 237.136 236.062 235.233V235.233ZM234.949 238.15C234.35 239.066 233.651 239.913 232.867 240.677V240.677C232.788 240.754 232.682 240.797 232.572 240.797C232.462 240.797 232.356 240.754 232.277 240.677C231.173 239.281 230.144 237.828 229.194 236.324C228.526 235.3 227.858 234.309 227.323 233.563C227.283 233.516 227.255 233.46 227.242 233.4C227.228 233.34 227.229 233.278 227.245 233.218C227.256 233.165 227.277 233.114 227.308 233.069C227.338 233.024 227.378 232.986 227.423 232.957C227.469 232.928 227.521 232.908 227.574 232.9C227.628 232.891 227.683 232.893 227.735 232.906C228.737 233.129 229.65 233.407 230.563 233.697C232.357 234.326 234.231 234.701 236.129 234.81V234.81H236.252C236.304 234.827 236.352 234.855 236.393 234.892C236.435 234.929 236.468 234.974 236.491 235.024C236.514 235.074 236.526 235.128 236.527 235.183C236.528 235.239 236.518 235.293 236.497 235.344C236.076 236.335 235.545 237.276 234.916 238.15H234.949Z" fill="#212255"/>
<path fill-rule="evenodd" clip-rule="evenodd" d="M232.567 240.365C234.025 238.874 235.209 237.136 236.062 235.233C232.723 235.088 230.429 233.908 227.613 233.273C229.06 235.244 231.142 238.717 232.567 240.365Z" fill="#212255"/>
<path fill-rule="evenodd" clip-rule="evenodd" d="M262.446 269.587C264.673 271.146 267.367 272.827 269.716 274.374C268.859 271.636 267.801 269.365 267.49 266.081C265.572 266.884 263.843 268.078 262.413 269.587H262.446ZM267.2 273.239C265.508 272.126 263.76 271.012 262.224 269.899C262.132 269.838 262.067 269.743 262.045 269.635C262.022 269.526 262.042 269.414 262.101 269.32C262.823 268.479 263.668 267.751 264.606 267.161C265.461 266.51 266.411 265.996 267.423 265.635H267.456C267.511 265.629 267.567 265.634 267.62 265.65C267.673 265.666 267.722 265.692 267.765 265.728C267.807 265.763 267.842 265.807 267.868 265.856C267.893 265.905 267.908 265.959 267.913 266.014C268.148 268.141 268.657 270.229 269.427 272.226C269.649 272.86 269.861 273.495 270.083 274.219C270.11 274.3 270.11 274.388 270.084 274.47C270.058 274.552 270.007 274.623 269.939 274.675C269.87 274.726 269.787 274.755 269.701 274.757C269.615 274.759 269.531 274.734 269.46 274.686C268.837 274.296 268.024 273.762 267.2 273.239Z" fill="#212255"/>
<path fill-rule="evenodd" clip-rule="evenodd" d="M262.446 269.589C264.673 271.147 267.367 272.828 269.716 274.376C268.859 271.637 267.801 269.366 267.49 266.082C265.584 266.889 263.866 268.083 262.446 269.589V269.589Z" fill="#212255"/>
<path fill-rule="evenodd" clip-rule="evenodd" d="M231.387 271.446C232.288 271.213 235.717 268.797 239.302 267.94C238.067 266.198 236.51 264.709 234.715 263.553C234.248 266.248 232.489 269.32 231.376 271.446H231.387ZM233.224 271.001C232.672 271.337 232.091 271.62 231.487 271.847V271.847C231.393 271.88 231.291 271.88 231.197 271.847C231.148 271.822 231.103 271.788 231.067 271.746C231.031 271.703 231.004 271.654 230.987 271.601C230.971 271.548 230.965 271.492 230.97 271.437C230.976 271.382 230.992 271.328 231.019 271.279L231.342 270.667C232.667 268.445 233.661 266.041 234.292 263.531V263.531C234.284 263.487 234.284 263.442 234.292 263.398C234.319 263.349 234.355 263.307 234.398 263.273C234.442 263.24 234.491 263.215 234.545 263.202C234.598 263.188 234.653 263.186 234.708 263.195C234.762 263.203 234.814 263.223 234.86 263.253C235.804 263.847 236.681 264.541 237.476 265.323C238.274 266.055 238.984 266.877 239.591 267.773C239.598 267.813 239.598 267.855 239.591 267.895C239.605 267.948 239.607 268.003 239.6 268.056C239.592 268.11 239.573 268.162 239.545 268.208C239.517 268.255 239.48 268.295 239.437 268.327C239.393 268.36 239.343 268.383 239.291 268.396C237.168 269.009 235.13 269.884 233.224 271.001V271.001Z" fill="#212255"/>
<path fill-rule="evenodd" clip-rule="evenodd" d="M231.387 271.448C232.288 271.214 235.717 268.798 239.302 267.941C238.068 266.199 236.511 264.71 234.715 263.555C234.248 266.249 232.5 269.321 231.387 271.448Z" fill="#212255"/>
<path fill-rule="evenodd" clip-rule="evenodd" d="M250.123 279.062C251.648 274.931 252.193 274.876 253.529 272.037L247.74 271.458C247.852 272.093 249.856 278.449 250.123 279.062ZM252.639 274.609C251.781 276.07 251.072 277.614 250.524 279.217V279.217C250.48 279.32 250.401 279.403 250.301 279.451C250.199 279.496 250.083 279.5 249.979 279.46C249.875 279.42 249.79 279.341 249.744 279.24C249.6 278.928 249.021 277.147 248.464 275.377C247.907 273.607 247.351 271.87 247.351 271.547V271.436C247.355 271.381 247.37 271.327 247.396 271.278C247.421 271.228 247.456 271.185 247.499 271.15C247.541 271.114 247.59 271.088 247.643 271.072C247.697 271.056 247.752 271.051 247.807 271.057L253.574 271.625C253.625 271.614 253.678 271.614 253.73 271.625C253.78 271.648 253.825 271.68 253.863 271.721C253.9 271.761 253.929 271.809 253.948 271.861C253.966 271.913 253.975 271.968 253.971 272.023C253.968 272.078 253.954 272.132 253.93 272.182C253.429 273.295 253.039 273.918 252.661 274.564L252.639 274.609Z" fill="#212255"/>
<path fill-rule="evenodd" clip-rule="evenodd" d="M250.123 279.062C251.648 274.932 252.193 274.877 253.529 272.038L247.74 271.459C247.852 272.094 249.856 278.45 250.123 279.062Z" fill="#212255"/>
<path fill-rule="evenodd" clip-rule="evenodd" d="M272.455 258.635C274.798 258.14 277.176 257.831 279.568 257.711C278.221 256.597 275.049 253.97 273.791 253.258C272.974 254.956 272.519 256.806 272.455 258.69V258.635ZM273.134 258.935L272.533 259.047H272.421C272.366 259.042 272.312 259.027 272.263 259.002C272.214 258.976 272.17 258.941 272.135 258.899C272.1 258.856 272.073 258.807 272.057 258.754C272.042 258.701 272.037 258.645 272.043 258.59C272.125 257.603 272.266 256.622 272.466 255.651C272.627 254.715 272.951 253.815 273.423 252.99V252.99C273.452 252.944 273.489 252.904 273.533 252.873C273.577 252.841 273.627 252.818 273.679 252.806C273.732 252.793 273.787 252.792 273.84 252.8C273.894 252.809 273.945 252.828 273.991 252.857C275.104 253.491 277.331 255.384 278.923 256.653L279.824 257.399C279.87 257.436 279.907 257.481 279.934 257.533C279.961 257.585 279.976 257.641 279.98 257.7C279.983 257.755 279.975 257.81 279.957 257.861C279.938 257.913 279.909 257.961 279.872 258.001C279.834 258.042 279.789 258.074 279.739 258.097C279.689 258.12 279.635 258.132 279.579 258.134C277.414 258.236 275.259 258.504 273.134 258.935V258.935Z" fill="#212255"/>
<path fill-rule="evenodd" clip-rule="evenodd" d="M272.455 258.635C274.798 258.14 277.176 257.831 279.568 257.711C278.221 256.598 275.049 253.97 273.791 253.258C272.981 254.94 272.526 256.77 272.455 258.635Z" fill="#212255"/>
<path d="M272.878 243.57C271.823 241.984 271.069 240.218 270.651 238.36L270.618 238.338C272.987 238.402 275.357 238.291 277.709 238.004C277.075 239.117 273.991 242.101 272.878 243.57Z" fill="#212255"/>
<path fill-rule="evenodd" clip-rule="evenodd" d="M270.651 238.36C271.069 240.218 271.823 241.984 272.878 243.57C273.991 242.101 277.075 239.117 277.709 238.004C275.369 238.296 273.009 238.415 270.651 238.36V238.36Z" fill="#212255"/>
</svg>
