<svg width="500" height="500" viewBox="0 0 500 500" fill="none" xmlns="http://www.w3.org/2000/svg">
<rect width="500" height="500" fill="#F0F0F0"/>
<path d="M202.658 287.764H94.3251V257.198H127.259C127.259 257.198 130.062 256.385 130.264 248.636C130.465 240.886 127.504 239.924 127.504 239.924H94.3251V213.54H133.771C139.234 202.073 133.771 196 133.771 196H79.0008C78.9433 196 78.8715 196 78.814 196C75.0045 196.149 72 199.817 72 204.214V296.526C72 304.242 77.8796 304.142 77.8796 304.142H223.862C208.538 301.504 202.658 287.764 202.658 287.764Z" fill="#545FA0"/>
<path d="M236.455 218.703C251.204 208.73 272.164 217.592 272.164 217.592L272.868 212.348L429 212.564V196.02H137.768C142.353 203.868 138.774 212.365 138.774 212.365H215.395C202.198 220.877 190.339 255.21 207 281.063C223.661 306.9 253.231 304.129 253.231 304.129H428.971V287.053H426.8C428.54 286.639 428.396 284.78 428.396 284.78V219.218C428.08 214.522 425.277 214.605 425.277 214.605H411.836C406.632 215.169 405.266 217.89 405.266 217.89L386.937 266.228C386.937 266.228 375.581 232.559 371.627 223.051C367.674 213.543 362.657 214.638 362.657 214.638H351.933C346.93 214.87 346.154 218.371 346.154 218.371L345.579 282.109C345.78 286.805 346.729 287.037 346.729 287.037H310.604C312.631 286.489 314.471 285.842 315.966 285.095C324.562 280.881 333.489 268.468 333.058 246.631C332.627 224.793 319.301 213.327 298.025 213.509C298.025 213.509 276.634 212.763 269.116 233.107C261.454 253.833 267.607 274.426 278.144 282.739C280.645 284.714 283.607 286.091 286.769 287.037H253.763C242.565 286.722 227.514 277.346 223.862 262.578C220.225 247.826 221.691 228.676 236.455 218.703ZM393.996 285.046L414.596 225.573V283.536C414.466 286.506 416.206 287.037 416.206 287.037H391.221C393.708 286.771 393.996 285.046 393.996 285.046ZM359.265 284.929L359.135 225.474L378.643 283.054C379.635 286.34 381.36 287.053 381.36 287.053H357.64C359.236 286.672 359.265 284.929 359.265 284.929ZM280.731 252.854C280.947 239.33 284.814 224.445 299.865 224.81C299.865 224.81 315.52 224.561 318.064 241.553C320.609 258.545 316.095 273.198 302.769 276.168C289.443 279.138 280.516 266.378 280.731 252.854Z" fill="#545FA0"/>
<path d="M150.432 284.976L150.087 229.303L176.941 282.404C176.941 282.404 178.68 285.706 183.783 286.137H192.61C192.61 286.137 195.959 284.992 196.333 281.408V215.381C196.333 215.381 195.916 213.705 193.257 213.34H185.508C185.508 213.34 183.137 213.755 183.093 217.007V266.274L159.748 219.629C159.748 219.629 157.203 213.854 150.087 213.356H141.361C141.361 213.356 137.811 213.373 137.768 219.828V285.075C137.768 285.059 143.072 288.062 150.432 284.976Z" fill="#545FA0"/>
</svg>
