<svg width="500" height="500" viewBox="0 0 500 500" fill="none" xmlns="http://www.w3.org/2000/svg">
<rect width="500" height="500" fill="#F0F0F0"/>
<path fill-rule="evenodd" clip-rule="evenodd" d="M401.45 235.845L388.559 252.171C386.777 254.221 384.525 255.8 382 256.77H394.663C391.247 255.804 390.381 254.241 392.021 252.171L402.862 238.098L414.979 257H422.404L406.689 233.178L418.031 218.921C419.842 216.643 422.26 214.936 425 214H411.972C415.298 215.196 416.163 216.805 414.478 218.921L405.368 230.878L394.344 214H386.874L401.45 235.845Z" fill="#916A20"/>
<path fill-rule="evenodd" clip-rule="evenodd" d="M185.091 218.967V252.125C185.091 254.241 183.771 255.85 181.132 257H195.384C192.481 255.896 190.985 254.241 190.985 252.125V235.661H207.657V233.315H190.985V216.345H205.325C206.401 216.381 207.458 216.644 208.433 217.118C209.408 217.592 210.281 218.268 211 219.105V214H181C183.757 215.196 185.12 216.851 185.091 218.967Z" fill="#916A20"/>
<path fill-rule="evenodd" clip-rule="evenodd" d="M222.24 218.259V252.04C222.24 254.239 220.509 255.877 217 257H233.222C229.941 255.83 228.301 254.193 228.301 252.04V236.366H232.857L247.256 256.813H254L239.009 235.524C245.98 233.933 249.489 230.19 249.489 224.295C249.504 221.985 248.748 219.739 247.347 217.932C245.921 216.088 243.982 214.734 241.788 214.048C238.518 213.178 235.135 212.846 231.764 213.066H217.046C220.418 214.235 222.058 215.92 222.058 218.072L222.24 218.259ZM228.255 234.495V216.294C229.877 215.955 231.522 215.752 233.176 215.686C234.386 215.635 235.593 215.833 236.727 216.266C237.862 216.7 238.901 217.362 239.783 218.212C240.628 219.09 241.287 220.137 241.718 221.288C242.15 222.44 242.344 223.671 242.29 224.903C242.366 226.394 242.045 227.879 241.363 229.197C240.681 230.516 239.662 231.619 238.416 232.389C235.868 233.927 232.94 234.675 229.986 234.542H228.255V234.495Z" fill="#916A20"/>
<path fill-rule="evenodd" clip-rule="evenodd" d="M280.112 213L270.731 234.863L263.072 251.923C261.744 254.269 259.568 256.006 257 256.771H269.508C266.471 255.628 265.474 254.027 266.471 252.197L270.459 242.684H286.864L289.402 248.813C289.81 249.911 290.354 251.237 291.033 252.838C291.354 253.609 291.363 254.477 291.058 255.254C290.753 256.032 290.159 256.659 289.402 257H302C300.397 255.854 299.154 254.266 298.42 252.426L281.199 213H280.112ZM278.888 222.834L286.048 240.123H271.501L278.888 222.834Z" fill="#916A20"/>
<path fill-rule="evenodd" clip-rule="evenodd" d="M331 216.575L304 255.804V257H338.245V250.056C337.12 252.953 335.545 254.379 333.385 254.379H312.325L340 214H308.86V218.967C309.382 218.244 310.059 217.652 310.839 217.238C311.619 216.823 312.481 216.597 313.36 216.575H331Z" fill="#916A20"/>
<path fill-rule="evenodd" clip-rule="evenodd" d="M351.242 218.224V252.294C351.242 254.365 349.886 255.965 347.175 257H376.956V249.471C375.819 252.906 374.464 254.6 372.977 254.6H357.146V235.165H373.72V232.765H357.146V215.4H372.977C373.821 215.389 374.649 215.64 375.363 216.125C376.077 216.609 376.646 217.305 377 218.129V213H347C349.799 214.412 351.242 216.106 351.242 218.224Z" fill="#916A20"/>
<path fill-rule="evenodd" clip-rule="evenodd" d="M189.771 270.449C189.402 270.23 188.979 270.121 188.551 270.133C187.286 270.133 186.654 270.854 186.654 272.297V273.874H189.319V275.947H186.654V285.457H183.988V275.947H182V273.874H183.988V271.981C183.964 271.44 184.061 270.901 184.272 270.402C184.483 269.903 184.803 269.457 185.208 269.097C186.056 268.394 187.133 268.026 188.235 268.06C188.744 267.98 189.262 267.98 189.771 268.06V270.268V270.449ZM197.949 276.398C197.56 276.105 197.079 275.961 196.593 275.992C196.198 275.995 195.81 276.095 195.463 276.284C195.116 276.472 194.821 276.744 194.605 277.074C194.059 277.917 193.791 278.91 193.837 279.913V285.457H191.217V273.874H193.837V276.263C194.064 275.544 194.468 274.893 195.012 274.37C195.496 273.903 196.145 273.644 196.819 273.649C197.175 273.557 197.548 273.557 197.903 273.649V276.172L197.949 276.398ZM204.997 285.772C204.171 285.834 203.342 285.722 202.564 285.442C201.785 285.163 201.075 284.722 200.479 284.15C199.919 283.547 199.491 282.835 199.219 282.06C198.947 281.285 198.837 280.462 198.897 279.643C198.857 278.818 198.985 277.994 199.272 277.219C199.559 276.445 200 275.736 200.569 275.136C201.177 274.581 201.89 274.152 202.665 273.873C203.441 273.595 204.264 273.472 205.087 273.513C205.865 273.475 206.643 273.595 207.373 273.866C208.103 274.137 208.77 274.554 209.334 275.091C210.412 276.338 210.963 277.954 210.87 279.598C210.915 280.407 210.789 281.216 210.502 281.974C210.215 282.732 209.772 283.421 209.202 283.998C208.632 284.575 207.947 285.027 207.192 285.325C206.437 285.623 205.627 285.76 204.816 285.727L204.997 285.772ZM204.997 275.677C204.535 275.662 204.075 275.752 203.653 275.939C203.23 276.127 202.856 276.407 202.557 276.758C201.912 277.612 201.591 278.666 201.653 279.733C201.597 280.779 201.936 281.808 202.602 282.617C202.898 282.957 203.267 283.227 203.681 283.406C204.096 283.586 204.545 283.67 204.997 283.654C205.45 283.688 205.905 283.611 206.322 283.431C206.739 283.25 207.106 282.971 207.391 282.617C208.01 281.77 208.314 280.734 208.25 279.688C208.324 278.626 208.02 277.573 207.391 276.713C207.099 276.368 206.731 276.095 206.316 275.915C205.9 275.735 205.449 275.654 204.997 275.677ZM231.02 285.457H228.354V279.147C228.411 278.233 228.241 277.32 227.858 276.488C227.661 276.21 227.395 275.99 227.085 275.847C226.776 275.705 226.435 275.646 226.095 275.677C225.739 275.691 225.392 275.794 225.084 275.975C224.777 276.156 224.519 276.409 224.334 276.713C223.855 277.452 223.604 278.313 223.611 279.192V285.457H220.99V278.922C220.99 276.758 220.222 275.677 218.686 275.677C218.331 275.674 217.982 275.764 217.673 275.938C217.364 276.112 217.105 276.364 216.924 276.668C216.453 277.424 216.217 278.302 216.246 279.192V285.457H213.626V273.874H216.246V275.677C216.609 275.031 217.141 274.496 217.786 274.131C218.431 273.766 219.164 273.583 219.906 273.604C220.67 273.584 221.418 273.822 222.029 274.28C222.62 274.695 223.051 275.299 223.249 275.992C223.597 275.263 224.149 274.649 224.838 274.226C225.528 273.802 226.325 273.586 227.135 273.604C229.665 273.604 230.975 275.181 230.975 278.11V285.231L231.02 285.457ZM254.288 285.457H251.351L249.86 281.355H243.445L242.044 285.457H239.107L245.207 269.232H248.234L254.288 285.457ZM249.137 279.147L246.878 272.657C246.878 272.432 246.878 272.116 246.878 271.666C246.919 271.995 246.919 272.328 246.878 272.657L244.665 279.147H249.137ZM268.745 285.366C268.1 285.627 267.408 285.75 266.712 285.727C266.264 285.802 265.805 285.771 265.371 285.636C264.937 285.501 264.542 285.266 264.216 284.95C263.89 284.634 263.644 284.246 263.497 283.817C263.35 283.388 263.306 282.931 263.369 282.482V275.947H261.381V273.874H263.369V271.17L265.989 270.449V273.874H268.745V275.947H265.989V281.716C265.95 282.237 266.076 282.758 266.351 283.203C266.514 283.369 266.712 283.496 266.931 283.574C267.15 283.652 267.385 283.679 267.616 283.654C268.03 283.663 268.432 283.518 268.745 283.248V285.366ZM276.2 285.772C275.411 285.814 274.622 285.691 273.883 285.411C273.144 285.132 272.471 284.702 271.908 284.15C271.334 283.555 270.892 282.846 270.612 282.069C270.332 281.293 270.219 280.466 270.281 279.643C270.241 278.818 270.369 277.994 270.656 277.219C270.943 276.445 271.384 275.736 271.953 275.136C272.561 274.581 273.274 274.152 274.049 273.873C274.825 273.595 275.648 273.472 276.471 273.513C277.25 273.47 278.029 273.587 278.76 273.859C279.491 274.13 280.158 274.55 280.718 275.091C281.26 275.703 281.675 276.417 281.939 277.191C282.203 277.964 282.31 278.782 282.254 279.598C282.313 280.41 282.198 281.226 281.916 281.99C281.634 282.754 281.192 283.45 280.619 284.03C280.046 284.61 279.355 285.062 278.593 285.354C277.831 285.647 277.015 285.774 276.2 285.727V285.772ZM276.2 275.677C275.737 275.655 275.276 275.742 274.852 275.93C274.429 276.118 274.055 276.401 273.76 276.758C273.115 277.612 272.795 278.666 272.857 279.733C272.788 280.773 273.11 281.801 273.76 282.617C274.064 282.961 274.44 283.232 274.862 283.412C275.284 283.591 275.742 283.674 276.2 283.654C276.647 283.688 277.096 283.612 277.506 283.431C277.916 283.25 278.274 282.97 278.549 282.617C279.168 281.77 279.472 280.734 279.408 279.688C279.483 278.626 279.179 277.573 278.549 276.713C278.267 276.369 277.907 276.096 277.499 275.916C277.091 275.735 276.646 275.654 276.2 275.677ZM302.585 270.404L293.549 283.203H302.359V285.457H289.754V284.24L298.79 271.53H290.522V269.232H302.54V270.404H302.585ZM321.064 280.409H313.157C313.134 280.869 313.211 281.329 313.383 281.757C313.554 282.184 313.816 282.57 314.151 282.888C314.879 283.503 315.82 283.81 316.772 283.744C317.987 283.745 319.171 283.366 320.16 282.662V284.781C318.876 285.487 317.423 285.83 315.958 285.772C315.215 285.806 314.472 285.684 313.779 285.412C313.086 285.14 312.458 284.725 311.937 284.195C310.908 282.925 310.392 281.317 310.492 279.688C310.406 278.037 310.974 276.419 312.073 275.181C312.58 274.623 313.202 274.182 313.896 273.886C314.59 273.591 315.34 273.448 316.094 273.468C316.781 273.429 317.467 273.547 318.101 273.812C318.736 274.078 319.301 274.484 319.754 275.001C320.705 276.2 321.172 277.711 321.064 279.237V280.274V280.409ZM318.534 278.561C318.587 277.767 318.346 276.981 317.856 276.353C317.639 276.087 317.362 275.875 317.048 275.734C316.735 275.593 316.392 275.527 316.049 275.541C315.686 275.535 315.326 275.604 314.992 275.744C314.658 275.883 314.356 276.091 314.106 276.353C313.595 276.99 313.267 277.753 313.157 278.561H318.534ZM333.307 274.054L329.422 279.913L333.262 285.637H330.461L328.428 282.076L327.976 281.22C327.852 281.519 327.701 281.805 327.524 282.076L325.446 285.637H322.374L326.35 279.958L322.6 274.054H325.672L327.66 277.84C327.837 278.111 327.989 278.397 328.112 278.696L330.687 274.189L333.307 274.054ZM337.825 283.969V291H335.205V274.054H337.825V276.082C338.221 275.379 338.799 274.795 339.498 274.391C340.198 273.987 340.993 273.777 341.801 273.784C342.455 273.748 343.107 273.869 343.704 274.135C344.301 274.402 344.826 274.807 345.235 275.316C346.12 276.53 346.566 278.008 346.5 279.508C346.539 281.122 346.047 282.705 345.099 284.014C344.651 284.597 344.067 285.062 343.398 285.369C342.729 285.675 341.994 285.813 341.259 285.772C340.566 285.784 339.881 285.611 339.277 285.27C338.674 284.929 338.172 284.434 337.825 283.834V283.969ZM337.825 279.462V280.905C337.813 281.702 338.103 282.475 338.639 283.068C338.929 283.391 339.289 283.644 339.692 283.809C340.094 283.974 340.529 284.046 340.963 284.02C341.397 283.994 341.82 283.87 342.2 283.659C342.58 283.447 342.907 283.153 343.157 282.797C343.792 281.856 344.094 280.73 344.015 279.598C344.07 278.643 343.782 277.7 343.202 276.939C342.964 276.615 342.65 276.356 342.287 276.183C341.925 276.01 341.525 275.929 341.124 275.947C340.697 275.936 340.273 276.019 339.883 276.19C339.492 276.362 339.144 276.617 338.865 276.939C338.277 277.646 337.972 278.545 338.006 279.462H337.825ZM359.06 280.679H351.153C351.13 281.139 351.207 281.599 351.379 282.027C351.551 282.455 351.813 282.841 352.147 283.158C352.862 283.766 353.785 284.074 354.723 284.014C355.953 284.024 357.155 283.646 358.156 282.933V285.051C356.873 285.757 355.42 286.1 353.955 286.042C353.21 286.083 352.466 285.963 351.772 285.69C351.078 285.418 350.451 285 349.934 284.465C348.888 283.204 348.37 281.59 348.488 279.958C348.436 279.14 348.549 278.319 348.821 277.545C349.092 276.771 349.517 276.059 350.069 275.451C350.568 274.895 351.181 274.454 351.868 274.158C352.555 273.862 353.297 273.719 354.045 273.739C354.739 273.692 355.435 273.807 356.077 274.072C356.72 274.338 357.292 274.748 357.75 275.271C358.682 276.48 359.147 277.984 359.06 279.508V280.544V280.679ZM356.53 278.832C356.583 278.037 356.342 277.251 355.852 276.623C355.635 276.357 355.358 276.145 355.045 276.005C354.731 275.864 354.389 275.798 354.045 275.812C353.683 275.806 353.323 275.875 352.988 276.014C352.654 276.154 352.352 276.361 352.102 276.623C351.545 277.231 351.211 278.01 351.153 278.832H356.53ZM368.322 276.668C367.933 276.375 367.452 276.231 366.966 276.263C366.571 276.265 366.183 276.365 365.836 276.554C365.489 276.743 365.195 277.014 364.979 277.344C364.433 278.188 364.164 279.18 364.211 280.184V285.727H362.087V274.144H364.707V276.533C364.934 275.814 365.338 275.163 365.882 274.64C366.367 274.173 367.016 273.914 367.689 273.919C368.045 273.827 368.418 273.827 368.774 273.919V276.443L368.322 276.668ZM371.484 271.711C371.085 271.713 370.699 271.568 370.4 271.305C370.255 271.165 370.141 270.996 370.063 270.81C369.985 270.625 369.946 270.425 369.948 270.223C369.937 270.021 369.972 269.818 370.051 269.631C370.129 269.444 370.248 269.277 370.4 269.142C370.699 268.878 371.085 268.734 371.484 268.736C371.912 268.724 372.33 268.869 372.659 269.142C372.811 269.277 372.93 269.444 373.009 269.631C373.087 269.818 373.122 270.021 373.111 270.223C373.118 270.419 373.081 270.614 373.003 270.793C372.925 270.972 372.807 271.132 372.659 271.26C372.505 271.411 372.321 271.529 372.119 271.607C371.917 271.684 371.701 271.72 371.484 271.711ZM372.84 285.727H370.174V274.144H372.84V285.727ZM386.123 280.679H378.171C378.159 281.138 378.241 281.595 378.412 282.021C378.583 282.447 378.839 282.834 379.165 283.158C379.898 283.765 380.835 284.071 381.785 284.014C383.016 284.024 384.218 283.646 385.219 282.933V285.051C383.931 285.747 382.481 286.089 381.017 286.042C380.273 286.083 379.529 285.963 378.835 285.69C378.141 285.418 377.514 285 376.996 284.465C375.935 283.211 375.4 281.596 375.505 279.958C375.459 279.137 375.58 278.314 375.859 277.54C376.139 276.765 376.571 276.055 377.132 275.451C377.626 274.89 378.239 274.445 378.927 274.149C379.614 273.853 380.359 273.713 381.108 273.739C381.802 273.692 382.497 273.807 383.14 274.072C383.783 274.338 384.355 274.748 384.813 275.271C385.745 276.48 386.21 277.984 386.123 279.508V280.544V280.679ZM383.548 278.832C383.594 278.045 383.371 277.266 382.915 276.623C382.691 276.354 382.406 276.14 382.085 275.999C381.763 275.858 381.413 275.794 381.063 275.812C380.707 275.806 380.354 275.876 380.027 276.016C379.7 276.155 379.406 276.362 379.165 276.623C378.614 277.24 378.267 278.011 378.171 278.832H383.548ZM398.999 285.727H396.333V279.192C396.333 277.029 395.565 275.947 394.029 275.947C393.653 275.949 393.281 276.03 392.939 276.185C392.596 276.341 392.29 276.567 392.041 276.848C391.517 277.498 391.244 278.314 391.273 279.147V285.727H388.608V274.144H391.273V276.082C391.624 275.397 392.163 274.826 392.827 274.435C393.491 274.044 394.253 273.85 395.023 273.874C395.573 273.84 396.124 273.932 396.633 274.143C397.142 274.354 397.596 274.678 397.96 275.091C398.674 276.137 399.023 277.388 398.954 278.651V285.727H398.999ZM410.52 285.231C409.512 285.788 408.374 286.068 407.222 286.042C406.448 286.071 405.676 285.942 404.953 285.664C404.231 285.385 403.573 284.961 403.02 284.42C402.492 283.86 402.08 283.202 401.809 282.482C401.537 281.763 401.411 280.997 401.439 280.229C401.4 278.561 402.016 276.943 403.156 275.722C403.755 275.149 404.464 274.702 405.24 274.407C406.016 274.113 406.844 273.978 407.674 274.009C408.635 273.988 409.59 274.172 410.475 274.55V276.984C409.73 276.426 408.831 276.111 407.9 276.082C407.387 276.072 406.879 276.167 406.405 276.361C405.931 276.555 405.501 276.843 405.144 277.209C404.45 278.044 404.081 279.1 404.104 280.184C404.069 280.699 404.139 281.217 404.31 281.705C404.481 282.192 404.749 282.641 405.098 283.023C405.45 283.378 405.874 283.654 406.342 283.833C406.809 284.011 407.309 284.089 407.809 284.059C408.788 284.06 409.735 283.708 410.475 283.068V285.366L410.52 285.231ZM422.99 280.724H415.038C415.026 281.183 415.108 281.64 415.279 282.066C415.45 282.492 415.706 282.879 416.032 283.203C416.765 283.81 417.701 284.116 418.652 284.059C419.883 284.069 421.085 283.691 422.086 282.978V285.096C420.798 285.792 419.348 286.134 417.884 286.088C417.14 286.128 416.395 286.008 415.702 285.736C415.008 285.463 414.381 285.045 413.863 284.51C412.801 283.256 412.267 281.641 412.372 280.003C412.326 279.182 412.447 278.359 412.726 277.585C413.005 276.81 413.438 276.1 413.999 275.496C414.497 274.94 415.111 274.499 415.797 274.203C416.484 273.907 417.227 273.764 417.975 273.784C418.669 273.737 419.364 273.852 420.007 274.117C420.649 274.383 421.222 274.793 421.679 275.316C422.612 276.526 423.077 278.029 422.99 279.553V280.589V280.724ZM420.46 278.877C420.493 278.085 420.254 277.306 419.782 276.668C419.564 276.402 419.288 276.19 418.974 276.05C418.661 275.909 418.318 275.843 417.975 275.857C417.612 275.851 417.252 275.92 416.918 276.059C416.583 276.199 416.282 276.406 416.032 276.668C415.48 277.285 415.133 278.056 415.038 278.877H420.46Z" fill="#916A20"/>
<path fill-rule="evenodd" clip-rule="evenodd" d="M112.079 247.25H118.811L114.862 253.391H108.31L97.0457 271.906H90L119.843 224L127.292 235.813L124.151 241.062L119.978 234.266L112.079 247.203V247.25ZM131.286 252.875L142.954 272H150L134.562 247.484L131.286 252.875Z" fill="#916A20"/>
<path fill-rule="evenodd" clip-rule="evenodd" d="M131.677 235.567L129.612 238.845L126.352 244.137L125.847 244.886L111.938 267.27L109 272H114.509H137.783L134.065 265.819L119.971 265.865L128.831 251.629L129.933 249.85L133.238 244.464L133.284 244.511L134.661 242.263L143.062 228.73L146 224H140.537H125.756L130.071 230.135L135.029 230.181L131.677 235.567Z" fill="#916A20"/>
<path fill-rule="evenodd" clip-rule="evenodd" d="M77.0351 202H167V297H74V202H77.0351ZM160.975 208.16H80.0701V290.886H160.975V208.16Z" fill="#916A20"/>
</svg>
