<svg width="500" height="500" viewBox="0 0 500 500" fill="none" xmlns="http://www.w3.org/2000/svg">
<g clip-path="url(#clip0_4815_412)">
<rect width="500" height="500" fill="#F0F0F0"/>
<path d="M124.006 217.931C118.035 215.905 113.573 217.079 110.621 221.455" stroke="#EF9117" stroke-width="2"/>
<path d="M110.621 221.456C105.012 220.631 100.561 218.746 97.2681 215.801" stroke="#F89E14" stroke-width="2"/>
<path d="M110.621 221.453C110.402 221.84 110.281 222.236 110.259 222.644" stroke="#EC7B1E" stroke-width="2"/>
<path d="M104.184 238.532L88.8223 232.016" stroke="#EC7B1E" stroke-width="2"/>
<path d="M130.033 228.941L115.544 235.756" stroke="#EF9117" stroke-width="2"/>
<path d="M100.347 250.784L83.3394 245.082" stroke="#D26320" stroke-width="2"/>
<path d="M96.116 269.186L81.9895 263.375C81.5614 263.197 81.2541 262.91 81.0675 262.513C80.9468 262.252 80.7657 262.049 80.5242 261.902C80.0742 261.652 79.7943 261.767 79.6845 262.247L79.207 264.268" stroke="#AE4F20" stroke-width="2"/>
<path d="M79.207 264.268C79.1192 264.091 78.746 264.07 78.0874 264.205" stroke="#DB711E" stroke-width="2"/>
<path d="M90.4353 280.418L89.7603 290.287" stroke="#EC7B1E" stroke-width="2"/>
<path d="M113.618 279.809L111 282.174" stroke="#AE4F20" stroke-width="2"/>
<path d="M111 282.172C103.492 284.543 96.6371 283.958 90.4355 280.418" stroke="#C05920" stroke-width="2"/>
<path d="M90.4357 280.42C83.9927 276.942 80.2498 271.559 79.207 264.27" stroke="#C9661D" stroke-width="2"/>
<path d="M111.231 296.995C112.076 291.961 111.999 287.021 111 282.176" stroke="#D26320" stroke-width="2"/>
<path d="M120.401 295.739C121.257 292.073 121.789 286.434 121.998 278.821C122.031 277.286 121.509 276.179 120.434 275.5" stroke="#AE4F20" stroke-width="2"/>
<path d="M140.307 257.434L134.742 270.796C134.643 271.03 134.474 271.231 134.255 271.373C134.036 271.515 133.777 271.591 133.512 271.593C133.247 271.595 132.988 271.521 132.767 271.382C132.546 271.243 132.374 271.044 132.272 270.811C130.68 267.114 128.65 264.457 126.18 262.838" stroke="#AE4F20" stroke-width="2"/>
<path d="M133.803 248.289C132.442 254.962 129.901 259.813 126.18 262.842" stroke="#D26320" stroke-width="2"/>
<path d="M126.179 262.844C123.6 260.516 120.883 259.555 118.029 259.962" stroke="#C05920" stroke-width="2"/>
<path d="M124 218.371C117.97 216.285 113.465 217.495 110.483 222C104.82 221.151 100.325 219.21 97 216.178C99.976 210.92 105.097 199.582 113.626 204.001C117.849 206.194 121.423 213.775 124 218.371Z" fill="#FAB40D"/>
<path d="M97.5242 216C100.847 218.98 105.339 220.887 111 221.722C110.778 222.113 110.657 222.515 110.634 222.927L104.503 239L89 232.406L97.5242 216Z" fill="#F5881B"/>
<path d="M124.21 217.973L130 229.109L116.078 236L111 222.741C111.021 222.329 111.137 221.928 111.348 221.537C114.185 217.112 118.472 215.924 124.21 217.973Z" fill="#E36D20"/>
<path d="M130.454 229L133.92 236.932C134.106 237.352 133.969 237.589 133.509 237.643C127.246 238.44 121.409 237.902 116 236.028L130.454 229Z" fill="#FAB40D"/>
<path d="M88.5237 233L104 239.25L100.135 251L83 245.531L88.5237 233Z" fill="#E36D20"/>
<path d="M167.975 243.187H164.411C163.613 243.187 163.297 242.82 163.465 242.087L163.639 241.309C163.754 240.8 164.091 240.546 164.648 240.546L171.27 240.575C171.796 240.575 172.037 240.815 171.995 241.294C171.585 245.974 167.123 250.639 161.81 248.439C149.543 243.363 158.909 229.235 169.567 235.632C169.921 235.846 170.224 236.161 170.429 236.527C170.633 236.893 170.729 237.291 170.7 237.659C170.671 238.027 170.52 238.345 170.27 238.565C170.02 238.784 169.684 238.893 169.315 238.874C168.569 238.844 168.022 238.595 167.675 238.126C167.36 237.715 166.95 237.426 166.445 237.26C156.969 234.223 157.048 247.148 164.9 246.209C166.445 246.023 167.617 245.241 168.416 243.862C168.668 243.412 168.521 243.187 167.975 243.187Z" fill="black"/>
<path d="M182.884 246.231C179.538 245.196 177.152 245.89 175.727 248.311C175.565 248.586 175.3 248.799 174.979 248.911C174.658 249.024 174.303 249.029 173.979 248.926L173.574 248.809C173.056 248.643 172.888 248.321 173.072 247.842L178.01 235.291C178.157 234.913 178.43 234.587 178.791 234.355C179.152 234.124 179.584 234 180.026 234C180.469 234 180.9 234.124 181.261 234.355C181.622 234.587 181.895 234.913 182.042 235.291L186.9 247.842C187.17 248.545 186.894 248.873 186.074 248.824L185.054 248.765C184.439 248.736 184.055 248.448 183.904 247.901L183.678 247.022C183.57 246.632 183.305 246.368 182.884 246.231ZM180.763 239.26C180.748 239.179 180.706 239.106 180.642 239.049C180.579 238.992 180.496 238.955 180.406 238.942C180.316 238.929 180.223 238.941 180.139 238.977C180.055 239.013 179.985 239.071 179.937 239.143L177.93 242.453C177.862 242.561 177.827 242.684 177.828 242.808C177.829 242.932 177.865 243.054 177.934 243.162C178.002 243.27 178.1 243.36 178.219 243.423C178.337 243.486 178.472 243.52 178.61 243.522L180.747 243.551C181.373 243.561 181.627 243.283 181.508 242.716L180.763 239.26Z" fill="black"/>
<path d="M194.072 236.349C193.62 236.436 193.217 236.674 192.936 237.019C192.655 237.364 192.513 237.793 192.538 238.229C192.563 238.664 192.752 239.077 193.071 239.391C193.39 239.705 193.818 239.901 194.276 239.942C205.531 240.702 198.18 254.178 189.412 246.799C188.919 246.391 188.919 245.984 189.412 245.576L190.467 244.697C190.897 244.339 191.275 244.384 191.6 244.831C192.755 246.441 194.476 246.709 196.763 245.636C196.928 245.559 197.068 245.444 197.172 245.3C197.276 245.157 197.339 244.99 197.357 244.816C197.374 244.642 197.345 244.466 197.271 244.304C197.198 244.143 197.083 244.001 196.937 243.892C194.717 242.267 190.797 241.656 189.522 239.509C186.925 235.142 194.654 232.339 198.621 235.097C198.812 235.228 198.94 235.425 198.978 235.646C199.017 235.866 198.962 236.092 198.825 236.274L198.07 237.288C197.577 237.944 197.083 237.944 196.59 237.288C195.982 236.483 195.142 236.17 194.072 236.349Z" fill="black"/>
<path d="M206.132 243.619L206.195 248.348C206.197 248.431 206.181 248.514 206.148 248.592C206.115 248.669 206.066 248.739 206.003 248.799C205.941 248.858 205.866 248.904 205.784 248.935C205.701 248.966 205.613 248.981 205.525 248.979L203.67 248.964C203.497 248.964 203.33 248.899 203.207 248.784C203.085 248.668 203.016 248.511 203.016 248.348L203 234.617C203 234.453 203.069 234.296 203.192 234.181C203.314 234.065 203.481 234 203.655 234L205.525 234.029C205.698 234.029 205.865 234.094 205.988 234.21C206.11 234.326 206.179 234.483 206.179 234.646L206.132 239.434C206.132 239.516 206.15 239.597 206.184 239.673C206.218 239.749 206.267 239.817 206.33 239.875C206.392 239.932 206.466 239.978 206.547 240.008C206.629 240.038 206.715 240.052 206.803 240.05L211.338 239.977C211.424 239.975 211.508 239.957 211.587 239.924C211.666 239.892 211.737 239.845 211.796 239.786C211.855 239.727 211.902 239.658 211.933 239.583C211.964 239.507 211.979 239.426 211.977 239.345L211.93 234.661C211.928 234.58 211.943 234.499 211.974 234.424C212.005 234.348 212.051 234.279 212.111 234.22C212.17 234.162 212.241 234.115 212.32 234.082C212.398 234.049 212.483 234.031 212.569 234.029L214.33 234.015C214.417 234.013 214.504 234.027 214.585 234.057C214.666 234.087 214.74 234.133 214.803 234.19C214.865 234.248 214.915 234.316 214.949 234.392C214.983 234.468 215 234.549 215 234.631V248.392C214.999 248.479 214.978 248.566 214.938 248.645C214.899 248.725 214.841 248.795 214.771 248.852C214.7 248.909 214.617 248.951 214.527 248.976C214.438 249 214.344 249.006 214.252 248.994L212.506 248.773C212.35 248.752 212.206 248.678 212.103 248.564C212 248.451 211.944 248.306 211.945 248.157V243.604C211.945 243.523 211.929 243.443 211.896 243.368C211.863 243.293 211.815 243.225 211.754 243.168C211.693 243.111 211.621 243.065 211.541 243.034C211.462 243.003 211.377 242.987 211.291 242.987L206.787 243.002C206.613 243.002 206.447 243.067 206.324 243.183C206.201 243.298 206.132 243.455 206.132 243.619Z" fill="black"/>
<path d="M227.185 246.663L221.649 246.647C220.931 246.647 220.572 246.985 220.572 247.662C220.561 249.307 219.672 250.07 217.907 249.952C217.098 249.898 216.83 249.506 217.104 248.775L222.503 234.28C222.64 233.906 222.897 233.582 223.239 233.353C223.58 233.123 223.989 233 224.408 233C224.827 233 225.236 233.123 225.577 233.353C225.919 233.582 226.176 233.906 226.313 234.28L231.935 249.21C232.106 249.662 231.941 249.914 231.439 249.968C229.617 250.172 228.592 249.398 228.364 247.646C228.327 247.378 228.187 247.131 227.971 246.95C227.755 246.77 227.476 246.668 227.185 246.663ZM224.126 238.262L222.4 242.906C222.15 243.583 222.406 243.922 223.169 243.922L225.391 243.906C226.108 243.906 226.382 243.578 226.211 242.922L224.998 238.311C224.747 237.365 224.457 237.349 224.126 238.262Z" fill="black"/>
<path d="M238.063 246.127L243.299 246.187C243.394 246.189 243.486 246.206 243.573 246.238C243.659 246.271 243.737 246.317 243.802 246.375C243.867 246.433 243.918 246.501 243.952 246.575C243.986 246.649 244.002 246.729 244 246.809L243.965 248.334C243.96 248.492 243.883 248.643 243.748 248.753C243.614 248.864 243.434 248.926 243.247 248.926L234.718 249C234.528 249 234.345 248.936 234.21 248.822C234.076 248.708 234 248.554 234 248.393V234.607C234 234.526 234.019 234.446 234.056 234.371C234.093 234.297 234.148 234.229 234.216 234.173C234.285 234.116 234.366 234.072 234.455 234.042C234.545 234.012 234.64 233.998 234.736 234L236.82 234.059C237.007 234.063 237.185 234.129 237.316 234.242C237.447 234.356 237.52 234.508 237.52 234.667L237.362 245.505C237.36 245.585 237.376 245.665 237.41 245.739C237.444 245.813 237.495 245.881 237.56 245.939C237.625 245.997 237.703 246.043 237.789 246.076C237.876 246.108 237.969 246.125 238.063 246.127Z" fill="black"/>
<path d="M249.312 237.417L249.346 248.496C249.348 248.564 249.335 248.632 249.306 248.695C249.277 248.758 249.234 248.815 249.179 248.862C249.124 248.909 249.058 248.946 248.986 248.97C248.914 248.993 248.837 249.003 248.76 248.999L247.154 248.925C247.01 248.921 246.874 248.868 246.774 248.777C246.674 248.686 246.618 248.564 246.618 248.437V237.328C246.618 237.262 246.603 237.196 246.573 237.134C246.544 237.073 246.5 237.018 246.445 236.972C246.39 236.926 246.325 236.891 246.254 236.868C246.183 236.846 246.108 236.836 246.033 236.84L242.586 237.003C242.51 237.007 242.435 236.997 242.364 236.974C242.293 236.952 242.228 236.916 242.173 236.871C242.119 236.825 242.075 236.77 242.045 236.709C242.015 236.647 242 236.581 242 236.515L242.033 234.488C242.033 234.359 242.092 234.235 242.195 234.143C242.299 234.051 242.439 234 242.586 234L253.228 234.015C253.366 234.014 253.499 234.06 253.602 234.142C253.704 234.224 253.768 234.337 253.78 234.459L253.998 236.367C254.005 236.433 253.996 236.5 253.972 236.564C253.949 236.627 253.911 236.686 253.861 236.736C253.81 236.785 253.749 236.826 253.681 236.854C253.612 236.882 253.538 236.897 253.462 236.899L249.865 236.929C249.718 236.929 249.578 236.98 249.474 237.072C249.371 237.163 249.312 237.287 249.312 237.417Z" fill="black"/>
<path d="M257.465 234H256.535C256.24 234 256 234.252 256 234.563V248.437C256 248.748 256.24 249 256.535 249H257.465C257.76 249 258 248.748 258 248.437V234.563C258 234.252 257.76 234 257.465 234Z" fill="black"/>
<path d="M271.267 243.582L271.58 248.232C271.59 248.353 271.545 248.472 271.455 248.565C271.364 248.659 271.235 248.719 271.094 248.734L268.626 248.941C268.55 248.947 268.473 248.94 268.401 248.92C268.328 248.899 268.262 248.867 268.205 248.824C268.148 248.781 268.101 248.729 268.069 248.67C268.037 248.611 268.019 248.548 268.017 248.483L268 234.487C268 234.362 268.059 234.242 268.163 234.153C268.267 234.065 268.409 234.015 268.556 234.015H270.92C270.994 234.015 271.068 234.027 271.137 234.052C271.205 234.077 271.267 234.113 271.319 234.158C271.371 234.204 271.412 234.258 271.439 234.317C271.466 234.376 271.478 234.439 271.476 234.502L271.337 239.536C271.337 239.659 271.393 239.777 271.494 239.865C271.594 239.953 271.731 240.005 271.876 240.009L277.75 240.097C277.897 240.097 278.039 240.048 278.143 239.959C278.248 239.87 278.306 239.75 278.306 239.625V234.487C278.306 234.362 278.365 234.242 278.469 234.153C278.573 234.065 278.715 234.015 278.862 234.015L280.426 234C280.574 234 280.715 234.05 280.82 234.138C280.924 234.227 280.983 234.347 280.983 234.472L281 248.527C281 248.591 280.985 248.653 280.956 248.712C280.927 248.77 280.885 248.823 280.831 248.867C280.778 248.911 280.714 248.945 280.645 248.968C280.575 248.991 280.501 249.002 280.426 249L278.862 248.955C278.718 248.952 278.581 248.9 278.48 248.812C278.38 248.724 278.323 248.606 278.324 248.483L278.271 243.449C278.267 243.326 278.206 243.21 278.102 243.124C277.999 243.039 277.86 242.991 277.715 242.991L271.806 243.08C271.732 243.081 271.658 243.096 271.59 243.122C271.523 243.149 271.462 243.187 271.411 243.234C271.361 243.28 271.323 243.335 271.298 243.395C271.273 243.455 271.263 243.518 271.267 243.582Z" fill="black"/>
<path d="M285.934 237.661L285.869 239.055C285.836 239.736 286.191 240.077 286.934 240.077L291.541 240.062C291.921 240.077 292.281 240.22 292.55 240.462C292.82 240.705 292.98 241.029 292.998 241.373C293.017 241.716 292.893 242.053 292.65 242.318C292.408 242.583 292.065 242.756 291.689 242.804C290.322 242.933 288.749 242.948 286.967 242.849C286.301 242.819 285.956 243.106 285.934 243.709L285.869 245.443C285.847 245.927 286.098 246.169 286.623 246.169H291.639C292.251 246.169 292.552 246.451 292.541 247.014L292.508 247.918C292.486 248.59 292.104 248.931 291.361 248.941L283.918 249C283.306 249 283 248.728 283 248.185V234.727C283 234.232 283.273 233.99 283.82 234L291.541 234.015C292.055 234.015 292.366 234.242 292.475 234.697L292.787 235.897C292.951 236.53 292.672 236.851 291.951 236.861L286.721 236.965C286.517 236.968 286.321 237.042 286.175 237.172C286.029 237.301 285.943 237.476 285.934 237.661Z" fill="black"/>
<path d="M304.696 246.031L299.5 246.045C299.231 246.044 298.971 246.134 298.771 246.297C298.57 246.46 298.444 246.685 298.416 246.927C298.297 247.93 297.758 248.595 296.797 248.923C296.559 249.004 296.3 249.021 296.051 248.974C295.802 248.927 295.574 248.817 295.393 248.657C295.212 248.497 295.087 248.293 295.032 248.071C294.976 247.849 294.994 247.618 295.082 247.405L300.018 235.184C300.162 234.835 300.422 234.535 300.763 234.323C301.104 234.111 301.51 233.998 301.926 234C302.341 234.002 302.746 234.117 303.085 234.332C303.424 234.546 303.682 234.849 303.822 235.198L308.904 247.954C309.163 248.629 308.898 248.923 308.111 248.836L306.492 248.634C305.866 248.566 305.554 248.248 305.554 247.679V246.797C305.554 246.286 305.268 246.031 304.696 246.031ZM301.977 238.626L300.018 242.56C299.964 242.666 299.94 242.783 299.95 242.899C299.959 243.016 300.001 243.128 300.072 243.226C300.143 243.324 300.241 243.405 300.356 243.46C300.471 243.515 300.6 243.544 300.73 243.543L302.802 243.558C303.439 243.567 303.687 243.297 303.547 242.748L302.511 238.669C302.5 238.618 302.471 238.572 302.429 238.537C302.386 238.503 302.331 238.482 302.272 238.477C302.213 238.472 302.153 238.484 302.1 238.511C302.047 238.537 302.004 238.578 301.977 238.626Z" fill="black"/>
<path d="M315.124 246.211L320.123 246.196C320.308 246.195 320.487 246.253 320.623 246.358C320.759 246.463 320.842 246.606 320.855 246.76L320.998 248.303C321.005 248.385 320.992 248.468 320.96 248.546C320.928 248.624 320.876 248.695 320.81 248.757C320.743 248.818 320.662 248.867 320.571 248.901C320.481 248.935 320.383 248.954 320.284 248.955L311.732 249C311.538 249 311.352 248.936 311.214 248.822C311.077 248.708 311 248.553 311 248.392L311.018 234.608C311.018 234.527 311.037 234.447 311.075 234.372C311.113 234.297 311.169 234.23 311.239 234.173C311.308 234.116 311.391 234.072 311.482 234.042C311.573 234.012 311.67 233.998 311.768 234L313.66 234.015C313.851 234.019 314.033 234.085 314.166 234.198C314.3 234.312 314.374 234.465 314.374 234.623L314.392 245.602C314.392 245.764 314.469 245.918 314.607 246.033C314.744 246.147 314.93 246.211 315.124 246.211Z" fill="black"/>
<path d="M327.012 237.535L327.027 248.39C327.026 248.478 327.005 248.564 326.966 248.644C326.927 248.724 326.871 248.795 326.801 248.852C326.732 248.909 326.65 248.951 326.562 248.976C326.474 249 326.382 249.006 326.291 248.994L324.574 248.773C324.419 248.751 324.278 248.677 324.177 248.563C324.075 248.449 324.02 248.304 324.022 248.154L324.037 237.505C324.037 237.341 323.969 237.184 323.849 237.068C323.728 236.952 323.564 236.887 323.393 236.887L320.649 236.916C320.557 236.917 320.467 236.899 320.383 236.863C320.299 236.828 320.225 236.775 320.164 236.71C320.103 236.644 320.057 236.567 320.03 236.483C320.002 236.4 319.994 236.311 320.005 236.224L320.173 234.56C320.189 234.406 320.263 234.263 320.382 234.16C320.501 234.056 320.657 233.999 320.817 234L330.262 234.015C330.423 234.018 330.576 234.079 330.693 234.185C330.809 234.291 330.88 234.435 330.891 234.589L330.998 236.224C331.005 236.308 330.993 236.392 330.964 236.471C330.936 236.55 330.891 236.623 330.832 236.685C330.773 236.747 330.702 236.797 330.622 236.832C330.543 236.866 330.457 236.885 330.37 236.887L327.64 236.916C327.472 236.92 327.312 236.987 327.195 237.103C327.077 237.218 327.012 237.373 327.012 237.535Z" fill="black"/>
<path d="M342.075 242.994H336.781C336.619 242.994 336.463 243.046 336.348 243.139C336.233 243.232 336.169 243.358 336.169 243.489L336.133 248.329C336.133 248.46 336.068 248.586 335.954 248.679C335.839 248.772 335.683 248.824 335.521 248.824H333.612C333.45 248.824 333.294 248.772 333.179 248.679C333.064 248.586 333 248.46 333 248.329V234.569C333 234.437 333.064 234.311 333.179 234.218C333.294 234.125 333.45 234.073 333.612 234.073L335.557 234.088C335.719 234.088 335.875 234.14 335.99 234.233C336.104 234.326 336.169 234.452 336.169 234.583L336.151 239.568C336.151 239.7 336.215 239.826 336.33 239.919C336.445 240.012 336.601 240.064 336.763 240.064L342.165 240.049C342.327 240.049 342.483 239.997 342.598 239.904C342.713 239.811 342.777 239.685 342.777 239.554L342.687 234.496C342.687 234.429 342.703 234.364 342.735 234.303C342.767 234.242 342.814 234.186 342.873 234.14C342.931 234.094 343.001 234.058 343.077 234.034C343.154 234.01 343.235 233.998 343.317 234L345.406 234.073C345.565 234.077 345.716 234.131 345.827 234.223C345.938 234.316 346 234.44 346 234.569L345.982 248.504C345.982 248.571 345.965 248.638 345.932 248.7C345.899 248.762 345.851 248.818 345.79 248.865C345.729 248.911 345.658 248.947 345.579 248.97C345.501 248.993 345.417 249.003 345.334 248.999L343.353 248.912C343.197 248.904 343.051 248.849 342.943 248.757C342.836 248.664 342.777 248.543 342.777 248.416L342.669 243.475C342.664 243.348 342.6 243.228 342.49 243.139C342.379 243.049 342.231 242.997 342.075 242.994Z" fill="black"/>
<path d="M362.619 243.024H358.265C357.569 243.024 357.221 243.31 357.221 243.883V248.095C357.221 248.648 356.891 248.911 356.23 248.882L355.044 248.823C354.348 248.784 354 248.478 354 247.905L354.018 234.907C354.018 234.363 354.348 234.096 355.009 234.105L356.425 234.12C356.979 234.13 357.25 234.368 357.239 234.834L357.186 239.235C357.186 239.467 357.296 239.689 357.491 239.853C357.687 240.017 357.953 240.109 358.23 240.109L362.796 240.08C363.468 240.08 363.804 239.798 363.804 239.235L363.769 235.155C363.765 234.916 363.856 234.682 364.029 234.49C364.202 234.298 364.446 234.158 364.725 234.091C365.456 233.916 366.04 233.994 366.477 234.324C366.783 234.557 366.943 234.931 366.954 235.446C367.025 239.653 367.013 243.859 366.919 248.066C366.907 248.716 366.5 249.027 365.698 248.998L364.937 248.969C364.641 248.962 364.36 248.86 364.152 248.687C363.945 248.513 363.826 248.28 363.822 248.036L363.751 243.942C363.739 243.33 363.362 243.024 362.619 243.024Z" fill="black"/>
<path d="M386 241.5C386 243.489 385.104 245.397 383.51 246.803C381.916 248.21 379.754 249 377.5 249C375.246 249 373.084 248.21 371.49 246.803C369.896 245.397 369 243.489 369 241.5C369 239.511 369.896 237.603 371.49 236.197C373.084 234.79 375.246 234 377.5 234C379.754 234 381.916 234.79 383.51 236.197C385.104 237.603 386 239.511 386 241.5ZM382.97 241.545C382.97 240.276 382.399 239.06 381.383 238.163C380.366 237.266 378.988 236.762 377.55 236.762C376.113 236.762 374.735 237.266 373.718 238.163C372.702 239.06 372.131 240.276 372.131 241.545C372.131 242.173 372.271 242.794 372.543 243.375C372.816 243.955 373.215 244.482 373.718 244.926C374.221 245.37 374.819 245.722 375.476 245.963C376.134 246.203 376.839 246.327 377.55 246.327C378.262 246.327 378.967 246.203 379.625 245.963C380.282 245.722 380.88 245.37 381.383 244.926C381.886 244.482 382.285 243.955 382.558 243.375C382.83 242.794 382.97 242.173 382.97 241.545Z" fill="black"/>
<path d="M394.1 237.685V248.075C394.1 248.588 393.792 248.864 393.175 248.904L391.893 248.993C391.109 249.052 390.718 248.751 390.718 248.09L390.736 237.789C390.736 237.236 390.403 236.955 389.739 236.945L387.104 236.916C386.356 236.906 385.988 236.59 386 235.969L386.036 234.755C386.048 234.252 386.35 234 386.944 234H397.269C397.703 233.995 398.123 234.128 398.443 234.371C398.764 234.615 398.961 234.95 398.995 235.31C399.029 235.669 398.897 236.026 398.626 236.308C398.355 236.59 397.965 236.775 397.536 236.827C396.871 236.916 396.035 236.95 395.026 236.931C394.409 236.921 394.1 237.172 394.1 237.685Z" fill="black"/>
<path d="M404.922 236.926C404.508 236.916 404.109 237.072 403.812 237.358C403.515 237.645 403.345 238.04 403.339 238.455C403.333 238.871 403.492 239.273 403.78 239.574C404.069 239.875 404.464 240.05 404.878 240.059C406.338 240.099 407.724 240.094 409.037 240.045C409.55 240.035 409.831 240.282 409.88 240.787L409.984 241.886C410.043 242.569 409.732 242.911 409.052 242.911H405.263C405.053 242.902 404.843 242.935 404.646 243.007C404.449 243.08 404.267 243.191 404.113 243.333C403.801 243.622 403.615 244.023 403.598 244.448C403.58 244.873 403.731 245.288 404.019 245.602C404.306 245.915 404.705 246.101 405.129 246.119C406.442 246.228 407.729 246.238 408.992 246.149C409.112 246.14 409.232 246.157 409.346 246.196C409.459 246.235 409.564 246.296 409.654 246.376C409.743 246.457 409.816 246.554 409.868 246.663C409.919 246.772 409.949 246.89 409.954 247.01L409.999 248.109C410.005 248.224 409.987 248.339 409.947 248.446C409.906 248.554 409.844 248.653 409.764 248.736C409.683 248.82 409.587 248.886 409.48 248.931C409.372 248.977 409.257 249 409.14 249L401.784 248.955C401.261 248.946 401 248.678 401 248.153L401.089 234.876C401.089 234.292 401.385 234 401.977 234H409.155C409.658 234 409.91 234.252 409.91 234.757L409.895 236.035C409.895 236.649 409.584 236.955 408.963 236.955L404.922 236.926Z" fill="black"/>
<path d="M416.83 246.159L420.362 246.174C420.993 246.174 421.457 246.426 421.755 246.929C422.087 247.472 422.081 247.946 421.739 248.351C421.496 248.628 421.092 248.791 420.528 248.84C418.295 249.037 416.062 249.052 413.829 248.884C413.276 248.845 413 248.578 413 248.085L413.033 234.874C413.033 234.282 413.359 233.99 414.012 234L415.006 234.015C415.559 234.015 415.836 234.262 415.836 234.756V245.271C415.836 245.863 416.167 246.159 416.83 246.159Z" fill="black"/>
<path d="M134 248.355C132.592 255.07 129.964 259.952 126.115 263C123.446 260.656 120.636 259.689 117.684 260.099C112.882 258.807 107.568 257.577 105.729 253.494C103.685 248.938 106.103 243.546 110.957 241.702C113.239 240.84 116.061 240.772 119.421 241.497C125.098 242.727 129.958 245.013 134 248.355Z" fill="#E36D20"/>
<path d="M83.1908 245L100 250.913C97.57 256.393 96.176 262.755 95.818 270L81.8565 263.973C81.4334 263.789 81.1297 263.491 80.9453 263.08C80.8259 262.809 80.6469 262.598 80.4083 262.446C79.9635 262.186 79.6869 262.306 79.5784 262.804L79.1065 264.899C79.0197 264.715 78.6509 264.694 78 264.834C78.6509 258.077 80.3812 251.465 83.1908 245Z" fill="#C05920"/>
<path d="M134.015 248L140 257.42L134.879 271.179C134.788 271.42 134.632 271.627 134.431 271.773C134.229 271.919 133.991 271.998 133.748 272C133.504 272.002 133.265 271.926 133.062 271.783C132.858 271.639 132.7 271.435 132.606 271.195C131.141 267.388 129.273 264.652 127 262.985C130.424 259.866 132.763 254.871 134.015 248Z" fill="#C05920"/>
<path d="M169.134 266.38L169.117 257.733C169.116 257.641 169.137 257.549 169.179 257.465C169.221 257.381 169.283 257.306 169.361 257.245C169.438 257.184 169.53 257.139 169.629 257.112C169.729 257.086 169.833 257.079 169.936 257.092C170.089 257.112 170.241 257.127 170.394 257.137C170.551 257.148 170.696 257.213 170.803 257.318C170.909 257.423 170.968 257.56 170.967 257.703L171 269.824C171.003 270.075 170.917 270.32 170.755 270.523C170.592 270.725 170.362 270.875 170.099 270.949C169.835 271.022 169.553 271.017 169.293 270.932C169.034 270.848 168.811 270.689 168.659 270.48L161.832 261.296C161.352 260.65 161.085 260.715 161.03 261.49C160.866 264.193 160.828 266.862 160.915 269.496C160.937 269.953 160.828 270.286 160.588 270.495C160.392 270.684 160.157 270.783 159.884 270.793C159.772 270.799 159.661 270.784 159.556 270.75C159.451 270.715 159.355 270.661 159.273 270.591C159.192 270.521 159.127 270.437 159.083 270.343C159.039 270.25 159.016 270.149 159.016 270.047L159 258.285C159.003 258.008 159.103 257.74 159.285 257.519C159.467 257.298 159.722 257.135 160.013 257.055C160.303 256.975 160.614 256.982 160.9 257.075C161.186 257.167 161.433 257.34 161.603 257.569L168.233 266.633C168.292 266.714 168.378 266.775 168.477 266.807C168.577 266.84 168.686 266.842 168.788 266.814C168.889 266.785 168.977 266.727 169.04 266.649C169.102 266.571 169.135 266.477 169.134 266.38Z" fill="black"/>
<path d="M177.486 268.019L175.958 270.466C175.844 270.687 175.637 270.858 175.382 270.943C175.127 271.027 174.845 271.018 174.597 270.916C174.35 270.815 174.158 270.63 174.064 270.402C173.969 270.174 173.98 269.921 174.094 269.7L178.896 257.978C179.014 257.693 179.227 257.446 179.506 257.271C179.785 257.096 180.116 257.002 180.455 257C180.794 256.998 181.124 257.09 181.401 257.262C181.678 257.434 181.888 257.679 182.003 257.963L186.89 269.7C187.169 270.351 186.918 270.656 186.134 270.616L185.093 270.556C184.989 270.549 184.888 270.523 184.797 270.479C184.705 270.435 184.625 270.374 184.562 270.3C184.498 270.226 184.453 270.142 184.429 270.051C184.404 269.961 184.402 269.867 184.421 269.776C184.578 268.985 184.415 268.375 183.934 267.944C183.621 267.674 183.139 267.524 182.49 267.494C181.158 267.454 179.814 267.454 178.46 267.494C178.26 267.498 178.065 267.548 177.894 267.641C177.723 267.733 177.583 267.863 177.486 268.019ZM179.753 262.076C179.059 262.826 178.572 263.707 178.292 264.717C178.261 264.825 178.259 264.938 178.284 265.047C178.309 265.156 178.362 265.258 178.438 265.346C178.514 265.435 178.611 265.506 178.723 265.556C178.834 265.605 178.957 265.632 179.081 265.633H181.852C182.423 265.633 182.613 265.393 182.423 264.912L181.063 261.37C180.872 260.88 180.576 260.82 180.173 261.19C179.904 261.43 179.764 261.725 179.753 262.076Z" fill="black"/>
<path d="M212.745 268.799L212.711 269.458C212.678 270.072 212.341 270.481 211.7 270.685L211.043 270.885C210.099 271.181 209.796 270.905 210.133 270.057L214.869 258.063C214.991 257.753 215.215 257.485 215.51 257.295C215.805 257.105 216.157 257.002 216.517 257C216.877 256.998 217.228 257.098 217.521 257.286C217.814 257.473 218.036 257.739 218.155 258.047L222.958 270.103C222.997 270.198 223.009 270.301 222.993 270.402C222.976 270.503 222.932 270.599 222.863 270.681C222.795 270.764 222.704 270.829 222.6 270.873C222.496 270.917 222.381 270.936 222.267 270.931L221.761 270.916C221.256 270.885 220.919 270.65 220.75 270.21C219.638 267.48 217.189 266.739 213.402 267.986C212.987 268.129 212.768 268.4 212.745 268.799ZM214.835 264.014L214.363 264.796C213.88 265.563 214.121 265.921 215.088 265.869L217.902 265.716C218.576 265.685 218.79 265.384 218.542 264.811L217.11 261.36C217.056 261.237 216.961 261.132 216.838 261.06C216.716 260.988 216.572 260.952 216.427 260.957C216.281 260.962 216.14 261.008 216.024 261.088C215.909 261.169 215.823 261.28 215.779 261.406L215.071 263.538C215.015 263.702 214.936 263.86 214.835 264.014Z" fill="black"/>
<path d="M227.734 266.928C227.733 267.363 227.882 267.785 228.153 268.117C228.425 268.449 228.802 268.67 229.217 268.74L233.442 269.421C233.608 269.456 233.757 269.553 233.859 269.695C233.961 269.836 234.011 270.012 233.998 270.188C233.985 270.365 233.911 270.531 233.79 270.655C233.668 270.778 233.508 270.852 233.338 270.86L226.993 271C226.341 271.01 226.015 270.675 226.015 269.994L226 257.748C226 257.14 226.282 256.902 226.845 257.036C227.023 257.078 227.191 257.15 227.349 257.253C227.606 257.429 227.734 257.676 227.734 257.996V266.928Z" fill="black"/>
<path d="M238.741 269.031C238.752 269.606 238.548 270.12 238.127 270.574C237.949 270.772 237.697 270.907 237.417 270.955C237.136 271.002 236.846 270.959 236.598 270.833C236.351 270.706 236.163 270.506 236.068 270.267C235.973 270.028 235.978 269.766 236.081 269.53L241.093 257.823C241.201 257.581 241.389 257.372 241.632 257.225C241.875 257.079 242.163 257 242.457 257C242.751 257 243.039 257.079 243.282 257.225C243.525 257.372 243.713 257.581 243.821 257.823L248.952 269.878C249.02 270.039 249.016 270.217 248.939 270.375C248.863 270.533 248.721 270.658 248.543 270.725L248.048 270.922C247.617 271.093 247.327 270.982 247.179 270.589C245.974 267.564 243.434 266.687 239.559 267.957C239.312 268.037 239.101 268.184 238.954 268.377C238.807 268.569 238.732 268.799 238.741 269.031ZM242.048 261.151L240.275 264.448C239.832 265.295 240.139 265.734 241.196 265.764L243.497 265.81C243.626 265.812 243.755 265.787 243.871 265.737C243.988 265.688 244.09 265.615 244.168 265.525C244.246 265.435 244.299 265.33 244.321 265.219C244.344 265.108 244.336 264.994 244.298 264.887L243.105 261.227C242.821 260.37 242.468 260.344 242.048 261.151Z" fill="black"/>
<path d="M261.495 265.074L261.546 256.186C261.546 255.502 261.884 255.172 262.561 255.194C262.764 255.206 262.956 255.234 263.137 255.28C263.38 255.344 263.595 255.488 263.748 255.689C263.901 255.891 263.984 256.137 263.983 256.391L264 269.655C263.999 269.94 263.909 270.217 263.742 270.447C263.575 270.677 263.341 270.848 263.072 270.935C262.804 271.022 262.515 271.022 262.246 270.933C261.978 270.844 261.745 270.672 261.579 270.441L254.368 260.117C253.906 259.445 253.663 259.519 253.641 260.339C253.55 263.188 253.584 266.003 253.742 268.783C253.799 269.592 253.674 270.162 253.37 270.493C253.031 270.857 252.563 270.988 251.965 270.886C251.322 270.772 251 270.384 251 269.723V256.784C251.001 256.404 251.122 256.033 251.345 255.726C251.569 255.42 251.883 255.193 252.241 255.08C252.6 254.967 252.983 254.974 253.336 255.099C253.688 255.224 253.991 255.461 254.199 255.776L260.648 265.331C261.213 266.162 261.495 266.077 261.495 265.074Z" fill="black"/>
<path d="M191.102 265.044L191.211 270.59C191.213 270.646 191.204 270.701 191.183 270.753C191.163 270.805 191.132 270.852 191.093 270.89C191.053 270.929 191.006 270.958 190.954 270.977C190.903 270.996 190.848 271.003 190.793 270.999L189.417 270.889C189.32 270.881 189.23 270.836 189.164 270.763C189.098 270.69 189.062 270.595 189.062 270.496L189 257.393C189 257.289 189.041 257.189 189.113 257.115C189.186 257.041 189.284 257 189.386 257L196.59 257.031C196.655 257.033 196.719 257.05 196.775 257.083C196.832 257.116 196.879 257.163 196.913 257.219C196.947 257.276 196.966 257.34 196.969 257.406C196.972 257.472 196.959 257.538 196.93 257.597L196.544 258.367C196.513 258.432 196.464 258.487 196.404 258.525C196.344 258.564 196.275 258.586 196.204 258.587L191.597 258.524C191.546 258.522 191.496 258.53 191.448 258.548C191.4 258.566 191.357 258.593 191.319 258.628C191.282 258.663 191.252 258.705 191.23 258.752C191.209 258.799 191.197 258.849 191.195 258.901L190.979 262.358C190.974 262.412 190.981 262.466 190.999 262.518C191.016 262.569 191.044 262.616 191.08 262.656C191.117 262.696 191.161 262.727 191.21 262.749C191.259 262.771 191.312 262.782 191.365 262.782H196.621C196.678 262.783 196.734 262.797 196.784 262.822C196.835 262.848 196.88 262.884 196.915 262.929C196.951 262.974 196.976 263.026 196.989 263.082C197.003 263.138 197.004 263.197 196.992 263.253L196.776 264.384C196.758 264.474 196.709 264.555 196.639 264.613C196.568 264.67 196.48 264.7 196.389 264.699L191.489 264.636C191.437 264.636 191.385 264.646 191.337 264.667C191.289 264.688 191.246 264.718 191.21 264.756C191.174 264.794 191.146 264.84 191.127 264.889C191.109 264.938 191.1 264.991 191.102 265.044Z" fill="black"/>
<path d="M206.017 259.363L205.984 270.284C205.984 270.407 205.95 270.527 205.885 270.634C205.82 270.741 205.726 270.831 205.612 270.895C205.499 270.959 205.369 270.995 205.236 270.999C205.103 271.004 204.971 270.977 204.852 270.921C204.447 270.724 204.25 270.377 204.261 269.88C204.351 266.338 204.318 262.801 204.16 259.27C204.156 259.132 204.096 259 203.991 258.898C203.886 258.795 203.742 258.729 203.586 258.711L199.618 258.26C199.443 258.25 199.28 258.176 199.164 258.055C199.049 257.934 198.99 257.776 199.001 257.615C199.013 257.455 199.093 257.305 199.224 257.198C199.356 257.092 199.527 257.038 199.702 257.048L210.188 257.002C210.375 256.99 210.559 257.042 210.707 257.147C210.854 257.253 210.954 257.405 210.988 257.574C211.021 257.743 210.986 257.918 210.888 258.064C210.79 258.211 210.637 258.319 210.458 258.369C209.468 258.711 208.421 258.736 207.318 258.446C207.165 258.408 207.004 258.403 206.849 258.431C206.693 258.459 206.547 258.52 206.421 258.609C206.295 258.697 206.193 258.812 206.123 258.942C206.053 259.073 206.017 259.217 206.017 259.363Z" fill="black"/>
<path d="M139.779 258C142.236 264.061 142.655 269.703 141.034 274.925C137.815 285.39 130.909 292.415 120.318 296C121.155 292.363 121.675 286.768 121.879 279.215C121.911 277.692 121.402 276.593 120.35 275.92C124.728 270.304 123.945 265.165 118 260.502C120.79 260.098 123.446 261.051 125.968 263.362C128.382 264.968 130.368 267.605 131.924 271.273C132.023 271.504 132.191 271.701 132.407 271.839C132.623 271.977 132.877 272.05 133.136 272.048C133.395 272.047 133.648 271.971 133.862 271.83C134.076 271.689 134.242 271.49 134.338 271.257L139.779 258Z" fill="#9C441F"/>
<path d="M96.1986 269.472C99.1683 277.462 105.102 281.031 114 280.178L111.337 282.562C103.701 284.952 96.7289 284.363 90.4211 280.794C83.8676 277.289 80.0606 271.862 79 264.514L79.4856 262.477C79.5973 261.993 79.882 261.877 80.3397 262.13C80.5853 262.277 80.7695 262.483 80.8923 262.746C81.0821 263.146 81.3947 263.435 81.8301 263.614L96.1986 269.472Z" fill="#9C441F"/>
<path d="M78.0916 264.088C78.7801 263.953 79.1702 263.974 79.262 264.15C80.352 271.392 84.2647 276.74 91 280.195L90.2943 290C81.3905 283.246 77.3229 274.608 78.0916 264.088Z" fill="#F5881B"/>
<path d="M120.434 275C121.51 275.695 122.031 276.828 121.999 278.399C121.79 286.192 121.258 291.965 120.401 295.717L111.231 297C112.076 291.847 111.999 286.791 111 281.831L113.618 279.41C116.132 278.822 118.404 277.352 120.434 275Z" fill="#C05920"/>
<path d="M90.6735 281C96.8608 284.41 103.7 284.974 111.19 282.69C112.187 287.358 112.264 292.116 111.42 296.965C103.316 297.307 96.1764 295.154 90 290.506L90.6735 281Z" fill="#E36D20"/>
</g>
<defs>
<clipPath id="clip0_4815_412">
<rect width="500" height="500" fill="white"/>
</clipPath>
</defs>
</svg>
