<svg width="500" height="500" viewBox="0 0 500 500" fill="none" xmlns="http://www.w3.org/2000/svg">
<rect width="500" height="500" fill="#F0F0F0"/>
<path d="M130.527 211.911C130.527 211.982 127.013 228.668 122.721 248.957C118.428 269.246 114.867 286.146 114.797 286.501L114.679 287.165H122.532H130.409L133.144 274.176L135.857 261.211L149.582 261.14L163.308 261.093L163.19 261.614C162.836 263.084 157.883 286.762 157.883 286.952C157.883 287.07 160.973 287.165 165.666 287.165C169.958 287.165 173.448 287.117 173.448 287.07C173.448 287.023 177.009 270.147 181.349 249.621C185.688 229.071 189.249 212.148 189.249 212.029C189.249 211.887 186.419 211.792 181.467 211.792C177.198 211.792 173.684 211.863 173.684 211.958C173.684 212.29 166.326 246.753 166.232 246.919C166.161 247.014 160.006 247.108 152.554 247.108C140.809 247.108 139.017 247.061 139.017 246.753C139.017 246.468 145.856 213.926 146.233 212.361L146.375 211.792H138.451C134.088 211.792 130.527 211.84 130.527 211.911Z" fill="black"/>
<path d="M300.445 212.314C300.209 213.357 291.342 255.57 290.422 260.026C289.267 265.738 288.913 268.914 289.102 271.45C289.432 275.361 290.776 279.154 292.71 281.619C294.714 284.155 298.629 286.454 302.827 287.568C305.869 288.374 310.987 288.468 314.524 287.805L316.812 287.354L317.071 286.146C317.213 285.458 317.826 282.519 318.463 279.58C319.076 276.641 319.571 274.224 319.548 274.2C319.524 274.152 318.345 274.247 316.93 274.389C312.355 274.84 308.393 274.247 306.553 272.825C305.115 271.711 304.737 270.479 304.855 267.397C304.95 265.24 305.421 262.633 307.497 252.915C308.888 246.397 310.067 240.875 310.138 240.638C310.256 240.259 310.869 240.235 318.486 240.235C326.104 240.235 326.717 240.211 326.835 239.808C326.906 239.595 327.542 236.585 328.274 233.124C329.005 229.664 329.641 226.654 329.712 226.417C329.83 226.037 329.335 226.014 321.576 226.014C316.505 226.014 313.298 225.919 313.298 225.777C313.298 225.658 313.935 222.506 314.713 218.761C315.491 215.016 316.128 211.935 316.128 211.887C316.128 211.84 312.638 211.792 308.346 211.792H300.563L300.445 212.314Z" fill="black"/>
<path d="M218.61 224.971C214.271 225.611 211.181 226.488 207.998 228.028C203.187 230.351 199.602 233.29 196.56 237.343C191.23 244.477 187.834 254.859 187.834 264.008C187.834 277.565 194.65 286.169 206.795 287.994C216.016 289.369 227.761 286.762 235.779 281.571C236.651 281.002 237.359 280.433 237.359 280.291C237.359 280.078 232.572 271.806 231.51 270.147C231.345 269.91 230.991 270.052 229.93 270.692C228.114 271.782 224.412 273.204 221.369 273.986C214.978 275.598 209.578 275.243 206.347 272.991C203.658 271.119 202.102 266.876 202.574 262.752L202.739 261.33L223.162 261.282L243.585 261.211L243.892 260.144C245.024 256.281 245.66 248.602 245.165 244.596C243.868 234.025 237.854 227.649 227.195 225.54C224.978 225.089 220.002 224.757 218.61 224.971ZM223.94 237.722C228.539 238.718 231.227 241.989 231.227 246.634V248.293H218.728C210.356 248.293 206.229 248.222 206.229 248.056C206.229 247.914 206.583 247.085 207.031 246.208C210.356 239.713 217.172 236.277 223.94 237.722Z" fill="black"/>
<path d="M278.819 225.065C268.041 226.298 259.716 232.603 255.754 242.534C255.259 243.814 254.551 245.805 254.221 246.99C253.702 248.744 245.613 286.383 245.613 286.975C245.613 287.07 249.104 287.165 253.372 287.165H261.131L261.249 286.62C261.343 286.335 262.829 279.272 264.598 270.929C267.923 255.214 268.631 252.086 269.48 249.479C271.201 244.098 274.078 241.349 278.984 240.353C280.328 240.069 281.861 239.974 284.266 240.021L287.686 240.093L289.148 233.124C289.95 229.284 290.587 226.085 290.516 226.037C290.469 225.99 289.455 225.753 288.252 225.516C285.587 224.994 281.224 224.805 278.819 225.065Z" fill="black"/>
<path d="M336.787 226.417C336.504 227.436 334.051 239.358 334.051 239.761C334.051 240.211 334.358 240.235 348.012 240.282L361.974 240.353L344.357 257.016C334.664 266.189 326.74 273.749 326.74 273.773C326.74 273.939 324.122 286.335 324.004 286.738C323.887 287.141 325.16 287.165 348.295 287.165C361.738 287.165 372.728 287.117 372.728 287.07C372.728 287.023 373.364 284.012 374.143 280.362C374.921 276.736 375.558 273.631 375.558 273.489C375.558 273.252 372.492 273.181 361.431 273.133L347.281 273.062L365.039 256.281L382.798 239.476L383.552 235.897C383.953 233.906 384.59 230.873 384.967 229.142L385.628 226.014H361.266C338.272 226.014 336.905 226.037 336.787 226.417Z" fill="black"/>
<path d="M379.85 279.248C376.548 280.907 375.77 285.055 378.459 286.691C381.171 288.374 385.463 285.506 385.463 282.021C385.463 279.106 382.774 277.779 379.85 279.248ZM383.576 279.462C384.543 279.959 384.991 280.718 384.991 281.879C384.991 283.183 384.661 284.036 383.741 284.984C382.562 286.217 381.336 286.762 379.991 286.643C378.694 286.501 378.01 286.003 377.515 284.818C376.265 281.879 380.675 277.968 383.576 279.462Z" fill="black"/>
<path d="M379.921 281.287C379.284 284.084 379.119 284.913 379.213 284.984C379.449 285.221 380.015 284.771 380.086 284.273C380.204 283.444 380.887 283.467 381.336 284.297C381.548 284.747 381.878 285.032 382.185 285.032C382.609 285.032 382.633 284.984 382.279 284.321C381.949 283.657 381.949 283.61 382.538 283.017C383.647 281.903 382.868 280.765 380.935 280.765C380.204 280.765 380.015 280.86 379.921 281.287ZM381.878 281.69C382.468 282.069 382.09 282.78 381.265 282.851C380.604 282.922 380.51 282.851 380.51 282.353C380.51 282.045 380.581 281.713 380.675 281.642C380.887 281.405 381.501 281.453 381.878 281.69Z" fill="black"/>
</svg>
