<svg width="500" height="500" viewBox="0 0 500 500" fill="none" xmlns="http://www.w3.org/2000/svg">
<g clip-path="url(#clip0)">
<rect width="500" height="500" fill="#393E4A"/>
<path d="M250 291H-275V209H250V291Z" fill="#40B659"/>
<path d="M775 291H250V209H775V291Z" fill="#F6861F"/>
<path fill-rule="evenodd" clip-rule="evenodd" d="M319.104 292.288C315.892 297.681 311.946 302.718 307.302 307.33C292.147 322.443 273.046 330 250.034 330C226.429 330 207.189 322.408 192.348 307.33C187.809 302.683 183.933 297.681 180.755 292.288C173.597 280.049 170 265.787 170 249.574C170 233.645 173.457 219.667 180.371 207.712C183.618 202.106 187.599 196.962 192.313 192.244C207.189 177.415 226.429 170 250 170C273.011 170 292.112 177.557 307.267 192.67C311.946 197.317 315.892 202.319 319.104 207.712C326.367 219.809 329.999 233.787 329.999 249.574C330.069 265.787 326.402 280.013 319.104 292.288Z" fill="white"/>
</g>
<defs>
<clipPath id="clip0">
<rect width="500" height="500" fill="white"/>
</clipPath>
</defs>
</svg>
