<svg width="500" height="500" viewBox="0 0 500 500" fill="none" xmlns="http://www.w3.org/2000/svg">
<rect width="500" height="500" fill="#F0F0F0"/>
<path d="M101 185V195.888C105.132 193.964 111.349 191.932 119.265 191.932C134.209 191.932 141.083 200.932 141.083 200.932C141.083 200.932 149.964 204.38 156.143 208.881C162.36 213.381 167.419 218.28 167.843 218.934C168.268 219.587 169.388 222.127 165.604 223.289C161.781 224.486 154.212 225.793 146.45 225.793C146.45 225.793 141.392 234.285 133.36 236.898C125.328 239.548 116.021 237.007 115.597 243.903C115.326 248.657 119.806 254.355 121.505 256.605C123.204 258.855 142.473 276.893 141.353 304.548C141.122 310.5 140.118 314.927 140.118 314.927L132.317 314.964C133.244 311.77 133.514 308.431 133.514 308.431C133.63 307.524 133.707 306.616 133.746 305.673C134.325 294.422 130.039 280.449 121.196 269.271C112.237 257.912 106.561 249.673 106.561 242.778C106.561 235.882 111.928 232.58 115.713 231.781C119.535 230.983 129.537 230.983 133.167 228.079C136.758 225.248 138.805 221.184 138.38 216.175C137.994 211.131 136.681 200.134 118.57 199.336C112.199 199.082 105.518 201.513 101 204.779V315H400V185H101ZM120.964 207.61C121.543 207.03 122.354 206.739 123.281 206.703C124.71 206.667 126.332 207.32 127.606 208.518C128.958 209.752 129.691 211.276 129.691 212.582C129.691 213.417 129.421 214.143 128.842 214.724C127.297 216.212 124.401 215.812 122.2 213.816C120.926 212.655 120.153 211.167 120.115 209.824C120.076 208.953 120.385 208.155 120.964 207.61ZM201.98 259.182C201.98 271.013 193.098 279.506 180.432 279.506C173.906 279.506 166.685 276.82 161.549 273.046L169.349 254.682C170.508 257.513 171.859 260.924 175.451 260.924C179.158 260.924 179.467 256.968 179.467 254.464V219.151H201.98V259.182ZM250.056 278.562H227.582V252.94L205.532 219.151H231.52L238.549 234.685H239.205C239.861 232.797 240.479 230.91 241.29 229.095L245.808 219.151H271.681L250.056 252.94V278.562ZM291.027 279.47C283.072 279.47 273.843 277.437 266.699 274.026L273.766 257.295L274.924 258.166C279.018 261.178 283.96 263.61 289.251 263.61C291.529 263.61 295.12 262.739 295.12 260.053C295.12 257.367 292.108 257.15 290.023 256.75L285.428 255.952C276.469 254.464 268.9 249.492 268.9 240.201C268.9 226.083 282.57 218.208 296.317 218.208C303.538 218.208 310.142 219.877 316.359 223.398L310.142 238.604C306.203 236.1 301.762 234.104 296.819 234.104C294.811 234.104 291.877 234.83 291.877 237.261C291.877 239.475 294.734 239.765 296.472 240.165L301.685 241.253C311.416 243.286 318.444 248.185 318.444 258.275C318.444 272.465 304.697 279.47 291.027 279.47ZM362.466 278.562L351.576 260.597C350.225 258.311 348.217 256.097 347.715 253.666H347.213L347.715 278.562H325.318V219.151H325.279H347.676L347.174 244.919H347.676C348.178 242.487 349.607 240.346 350.842 238.205L361.925 219.151H386.987L367.215 248.076L389.11 278.562H362.466Z" fill="#143C8A"/>
<path d="M154.936 218.991C158.536 219.135 157.967 217.551 157.967 217.551C156.3 216.255 146.487 211 146.487 211C145.123 214.383 147.056 218.343 147.056 218.343C147.056 218.343 151.337 218.883 154.936 218.991Z" fill="#14328A"/>
</svg>
