<svg width="500" height="500" viewBox="0 0 500 500" fill="none" xmlns="http://www.w3.org/2000/svg">
<rect width="500" height="500" fill="#F0F0F0"/>
<path d="M250.009 393C248.816 390.696 246.828 389.373 244.758 388.173C239.914 385.455 234.721 383.369 229.313 381.97C223.249 380.306 217.076 379.009 211.021 377.318C198.057 373.61 185.718 368.095 174.391 360.945C167.748 356.666 160.471 353.396 152.809 351.247C150.426 350.458 147.857 350.36 145.417 350.966C146.447 346.665 144.974 342.722 143.437 338.85C141.119 333.023 138.185 327.445 134.68 322.205C125.363 308.187 118.772 292.635 115.231 276.316C113.704 269.09 111.117 262.113 107.549 255.597C106.202 253.206 104.702 250.893 102 249.465C104.711 248.098 106.202 245.794 107.531 243.394C111.217 236.544 113.885 229.224 115.457 221.65C119.073 205.545 125.669 190.209 134.924 176.383C139.389 169.885 142.808 162.766 145.064 155.27C145.867 152.971 145.979 150.498 145.39 148.139C151.002 149.111 155.982 146.956 160.943 144.915C166.81 142.358 172.463 139.365 177.853 135.962C191.579 127.784 206.663 121.974 222.435 118.791C229.852 117.321 237.011 114.821 243.692 111.37C246.168 110.065 248.572 108.637 250.018 106C251.826 109.014 254.691 110.608 257.673 112.045C264.743 115.334 272.204 117.768 279.887 119.29C296.236 122.864 311.794 129.243 325.826 138.125C332.73 142.427 340.06 146.01 348.13 147.937C350.276 148.543 352.551 148.568 354.71 148.007C353.86 150.811 354.421 153.483 355.225 156.102C357.431 163.12 360.673 169.792 364.85 175.91C374.412 190.193 381.188 206.056 384.841 222.71C386.356 229.82 388.887 236.69 392.361 243.122C394.222 246.513 395.768 248.186 398 249.43C394.457 251.497 392.713 254.888 391.068 258.296C387.968 265.062 385.626 272.132 384.082 279.383C380.379 294.866 373.89 309.597 364.913 322.897C360.467 329.625 356.734 336.765 354.764 344.624C354.153 346.672 354.153 348.847 354.764 350.896C351.583 350.02 348.582 350.721 345.636 351.632C338.377 353.958 331.464 357.198 325.075 361.269C310.599 370.281 294.552 376.667 277.718 380.113C270.263 381.587 263.067 384.098 256.353 387.568C253.823 388.9 251.464 390.328 250.009 393ZM384.868 249.623C384.868 177.408 324.624 118.843 250.325 118.799C175.693 118.799 115.24 177.146 115.204 249.334C115.168 321.522 175.449 380.218 249.792 380.218C324.443 380.218 384.868 321.793 384.868 249.623Z" fill="#002D74"/>
<path d="M250.172 145C309.709 145.044 358.063 192.014 358 249.749C357.937 307.327 309.338 354.087 249.656 354C190.138 353.912 141.847 306.898 142 249.128C142.055 191.682 190.617 144.948 250.172 145ZM250.045 147.626C236.139 147.492 222.343 150.026 209.455 155.08C196.566 160.134 184.841 167.609 174.955 177.072C165.07 186.534 157.22 197.798 151.861 210.212C146.501 222.627 143.736 235.945 143.727 249.399C143.718 262.852 146.465 276.174 151.808 288.595C157.152 301.016 164.986 312.29 174.859 321.765C184.732 331.24 196.447 338.729 209.329 343.799C222.211 348.869 236.003 351.42 249.91 351.304C308.062 351.304 355.268 305.717 355.25 249.531C355.232 193.345 308.071 147.626 250.045 147.661V147.626Z" fill="#002D74"/>
<path d="M367.031 284.225C367.705 284.344 368.4 284.271 369.032 284.017C369.664 283.763 370.205 283.337 370.59 282.793C371.8 281.168 371.682 279.448 370.535 277.657L372.71 276.452C374.712 278.854 374.33 282.819 371.936 285.125C370.661 286.285 368.983 286.952 367.226 286.998C365.468 287.043 363.756 286.463 362.417 285.37C361.127 284.341 360.287 282.886 360.061 281.291C359.835 279.697 360.241 278.079 361.197 276.757C362.098 275.459 363.476 274.536 365.055 274.171C366.635 273.807 368.299 274.029 369.716 274.792L367.031 284.225ZM366.804 276.801C365.925 276.64 365.016 276.804 364.259 277.262C363.503 277.719 362.955 278.434 362.726 279.264C362.459 280.112 362.525 281.024 362.91 281.829C363.296 282.633 363.975 283.275 364.82 283.631C365.484 281.387 366.13 279.133 366.804 276.801Z" fill="#002D74"/>
<path d="M370.23 227L371.604 236.913C372.212 236.752 372.769 236.445 373.222 236.02C373.675 235.596 374.011 235.068 374.197 234.486C374.894 232.351 373.968 230.738 372.163 229.365L373.675 227.416C375.124 228.286 376.197 229.636 376.695 231.214C377.192 232.791 377.079 234.49 376.378 235.994C375.676 237.497 374.434 238.703 372.882 239.387C371.329 240.071 369.573 240.187 367.939 239.713C366.39 239.3 365.045 238.364 364.147 237.076C363.249 235.787 362.859 234.23 363.046 232.687C363.495 229.215 366.271 227 370.23 227ZM369.387 237.285C369.029 234.787 368.681 232.413 368.342 230.003C366.262 230.792 365.437 232.041 365.593 233.963C365.795 235.655 367.068 236.825 369.387 237.241V237.285Z" fill="#002D74"/>
<path d="M359.043 300.484C358.048 300.849 356.96 300.962 355.899 300.812C354.929 300.587 354.094 300.034 353.571 299.269C353.047 298.504 352.875 297.586 353.091 296.71C353.887 294.336 355.187 292.516 356.263 290L369 295.234C368.017 297.104 367.128 298.933 366.09 300.702C365.313 302.044 364.171 303.101 362.281 302.992C360.624 302.917 359.08 301.726 359.043 300.484ZM357.48 293.246C357.04 294.085 356.647 294.848 356.263 295.586C356.161 295.787 356.058 295.997 355.973 296.207C355.524 297.347 355.73 298.027 356.685 298.388C357.78 298.807 358.444 298.27 358.902 297.482C359.445 296.526 359.923 295.536 360.465 294.496L357.48 293.246ZM362.664 295.385C362.159 296.442 361.673 297.381 361.242 298.337C361.13 298.507 361.062 298.697 361.042 298.893C361.022 299.089 361.052 299.287 361.128 299.471C361.204 299.656 361.325 299.823 361.482 299.961C361.64 300.098 361.829 300.203 362.038 300.266C363.039 300.669 363.638 300.174 364.068 299.478C364.611 298.572 365.07 297.624 365.612 296.609L362.664 295.385Z" fill="#002D74"/>
<path d="M338.167 160.019L340 161.751L331.306 171L329.662 169.199L330.652 158.806L324.842 164.947L323 163.214L331.668 154L333.329 155.784L332.356 166.176L338.167 160.019Z" fill="#002D74"/>
<path d="M123.429 268.854C123.286 267.948 123.161 267.16 123 266.219L135.961 264L136.211 266.536L128.921 274.604L137.562 273.155L138 275.781L125.075 278L124.807 275.455L132.061 267.405L123.429 268.854Z" fill="#002D74"/>
<path d="M174 152.978C174 149.328 177.469 145.973 181.241 146C183.043 146.095 184.742 146.871 185.996 148.172C187.25 149.474 187.966 151.204 188 153.013C188 156.663 184.513 160.027 180.759 160C178.956 159.905 177.255 159.128 176.001 157.824C174.746 156.521 174.031 154.789 174 152.978ZM180.982 157.298C182.086 157.315 183.151 156.896 183.949 156.131C184.746 155.366 185.212 154.317 185.245 153.21C185.234 152.046 184.785 150.929 183.988 150.083C183.191 149.237 182.104 148.725 180.946 148.648C179.865 148.671 178.832 149.104 178.055 149.858C177.278 150.613 176.814 151.635 176.755 152.718C176.726 153.884 177.151 155.015 177.941 155.87C178.73 156.726 179.822 157.238 180.982 157.298Z" fill="#002D74"/>
<path d="M180.044 351C178.688 349.086 177.134 348.569 174.838 350.198C175.371 347.724 174.838 346.19 172 345.75C174.214 344.422 174.856 342.914 173.238 340.724C175.85 341.319 177.351 340.569 177.848 338C179.212 340.017 180.722 340.75 183.045 339.147C182.629 341.5 183.135 343.112 186 343.543C183.65 344.845 183.153 346.388 184.726 348.595C182.141 348.034 180.622 348.69 180.044 351Z" fill="#002D74"/>
<path d="M294 146.967L299.286 135C301.085 135.891 302.799 136.613 304.426 137.504C307.759 139.286 308.856 142.672 307.314 146.129C305.772 149.586 302.55 150.878 299.098 149.39C297.41 148.651 295.748 147.795 294 146.967ZM297.29 145.835C298.404 146.343 299.355 146.851 300.357 147.216C302.31 147.911 303.99 147.065 304.932 144.997C305.874 142.93 305.463 141.032 303.698 139.919C302.739 139.313 301.676 138.876 300.597 138.332C299.475 140.854 298.421 143.287 297.333 145.835H297.29Z" fill="#002D74"/>
<path d="M254.774 136.099C254.342 135.892 253.867 135.778 253.382 135.764C252.897 135.749 252.415 135.836 251.97 136.018C251.525 136.199 251.128 136.471 250.808 136.814C250.488 137.157 250.252 137.562 250.117 138C249.39 136.42 248.842 136.159 248.079 135.88C247.13 135.645 246.126 135.696 245.208 136.023C246.105 134.021 245.531 132.526 243 131.614C245.45 130.702 246.177 129.308 245.055 127.002C247.442 127.897 249.049 127.467 249.964 125C250.951 127.34 252.486 127.99 255.008 126.951C253.787 129.342 254.586 130.736 257 131.622C254.577 132.526 253.85 133.903 254.774 136.099Z" fill="#002D74"/>
<path d="M317.114 339.176C319.332 340.403 321.282 339.648 322.16 338C322.345 338.972 322.924 339.84 323.777 340.428C324.507 340.857 325.191 340.763 326.688 340.686C326.171 341.479 325.938 342.405 326.022 343.329C326.374 344.241 327.079 345 328 345.457C325.828 346.066 324.479 347.13 325.597 349.833C323.185 348.537 321.448 348.666 320.053 351C319.415 348.572 318.048 347.568 315.238 348.426C316.763 346.186 316.486 344.633 314 343.363C316.624 342.788 317.733 341.544 317.114 339.176Z" fill="#002D74"/>
<path d="M153 307.459L140.864 314C139.597 311.899 138.451 309.733 137.429 307.513C136.225 304.52 137.634 301.572 140.678 299.95C142.005 299.146 143.592 298.837 145.141 299.082C146.689 299.326 148.09 300.107 149.079 301.276C149.335 301.554 149.563 301.854 149.761 302.172C150.844 303.848 151.861 305.586 153 307.459ZM149.425 306.348C148.79 305.246 148.098 304.175 147.352 303.14C146.036 301.5 144.178 301.285 142.125 302.369C140.071 303.453 139.268 305.156 140.024 307.038C140.577 308.206 141.201 309.343 141.891 310.443L149.425 306.348Z" fill="#002D74"/>
<path d="M164.87 172C163.07 171.936 161.362 171.24 160.088 170.051C158.814 168.862 158.069 167.268 158 165.588C158.08 163.85 158.862 162.205 160.188 160.984C161.513 159.762 163.285 159.053 165.147 159C166.971 159.054 168.702 159.763 169.979 160.98C171.256 162.196 171.98 163.826 172 165.529C171.906 167.248 171.119 168.871 169.796 170.071C168.474 171.271 166.714 171.96 164.87 172ZM165.165 169.498C166.264 169.453 167.303 169.022 168.077 168.293C168.85 167.563 169.3 166.588 169.338 165.563C169.258 164.487 168.76 163.477 167.937 162.721C167.114 161.965 166.023 161.516 164.87 161.46C163.771 161.5 162.73 161.933 161.962 162.668C161.194 163.403 160.758 164.386 160.743 165.412C160.777 166.504 161.258 167.541 162.088 168.311C162.917 169.08 164.032 169.523 165.201 169.548L165.165 169.498Z" fill="#002D74"/>
<path d="M271.953 364.964C273.906 365.463 275 366.409 275 368.042C275.006 368.801 274.727 369.541 274.206 370.146C273.685 370.751 272.951 371.187 272.119 371.387C270.694 371.82 269.193 372.027 267.685 371.997C266.868 372.018 266.065 371.802 265.4 371.383C264.735 370.963 264.245 370.364 264.004 369.676C263.728 369.022 263.725 368.304 263.995 367.649C264.265 366.994 264.791 366.445 265.478 366.099C265.41 365.979 265.39 365.884 265.342 365.858C264.618 365.627 263.999 365.195 263.578 364.628C263.157 364.06 262.957 363.388 263.008 362.712C263.028 362.013 263.295 361.338 263.771 360.779C264.247 360.219 264.908 359.804 265.664 359.591C266.879 359.203 268.161 359.005 269.453 359.006C270.266 358.963 271.073 359.151 271.755 359.543C272.438 359.935 272.959 360.509 273.242 361.181C273.906 362.651 273.389 363.881 271.953 364.964ZM269.082 369.899C270.137 369.839 271.308 369.667 271.767 368.601C271.851 368.339 271.866 368.065 271.814 367.797C271.762 367.53 271.642 367.276 271.465 367.053C270.625 366.194 269.453 366.314 268.34 366.667C267.226 367.019 266.553 367.526 266.807 368.618C267.06 369.71 267.93 369.848 269.082 369.899ZM270.615 362.841C270.604 362.613 270.541 362.39 270.432 362.184C270.322 361.978 270.166 361.793 269.975 361.64C269.783 361.488 269.559 361.37 269.315 361.294C269.071 361.218 268.813 361.186 268.555 361.198C267.971 361.147 267.386 361.287 266.912 361.591C266.438 361.896 266.108 362.344 265.986 362.849C265.978 363.077 266.023 363.304 266.118 363.516C266.214 363.727 266.357 363.92 266.54 364.081C266.723 364.242 266.942 364.369 267.182 364.452C267.423 364.536 267.681 364.576 267.939 364.569C268.559 364.638 269.186 364.492 269.685 364.161C270.185 363.83 270.518 363.341 270.615 362.798V362.841Z" fill="#002D74"/>
<path d="M149.725 181.722L153.28 176.899L149.054 174.015C149.568 173.329 150.03 172.702 150.544 172L161 179.131C160.529 179.783 160.068 180.401 159.536 181.129L155.179 178.245L151.633 183.043L155.911 185.994L154.439 188L144 180.869C144.505 180.176 144.967 179.557 145.481 178.863L149.725 181.722Z" fill="#002D74"/>
<path d="M132.605 204L134.168 205.821C133.611 206.376 133.112 206.986 132.678 207.641C132.198 208.515 131.868 209.462 131.701 210.445C131.704 210.745 131.781 211.041 131.926 211.304C132.071 211.568 132.279 211.792 132.532 211.956C132.925 212.092 133.738 211.646 134.085 211.228C134.671 210.403 135.205 209.542 135.684 208.651C136.954 206.694 138.425 205.984 140.124 206.503C142.088 207.113 143.148 208.697 142.983 211.055C142.876 212.433 142.464 213.77 141.777 214.971C141.09 216.172 140.145 217.206 139.009 218L137.575 216.179C138.433 215.154 139.223 214.075 139.941 212.948C140.297 212.227 140.463 211.429 140.425 210.627C140.424 210.372 140.341 210.125 140.189 209.92C140.037 209.715 139.823 209.564 139.579 209.488C139.335 209.412 139.073 209.415 138.831 209.497C138.589 209.579 138.38 209.736 138.233 209.944C137.619 210.798 137.057 211.689 136.552 212.611C135.136 214.96 133.327 215.661 131.299 214.668C130.475 214.247 129.813 213.569 129.414 212.737C129.015 211.905 128.9 210.965 129.088 210.062C129.428 207.664 130.689 205.49 132.605 204Z" fill="#002D74"/>
<path d="M364.019 257L371.179 251.163L377.821 256.818L377.652 253.088L372.355 249.239V247.723H378V245H364.188V247.641C366.07 247.641 369.833 247.641 369.833 247.641V249.166L364 253.46L364.019 257Z" fill="#002D74"/>
<path d="M131.557 296C131.27 295.143 131.018 294.441 130.74 293.602L137.458 291.529C137.872 291.4 138.303 291.289 138.698 291.126C140.297 290.449 140.809 289.216 140.207 287.537C140.129 287.189 139.974 286.861 139.752 286.575C139.53 286.289 139.247 286.051 138.922 285.878C138.596 285.704 138.236 285.599 137.864 285.569C137.492 285.539 137.118 285.585 136.767 285.704C134.162 286.415 131.593 287.229 128.898 288.034C128.629 287.263 128.368 286.526 128 285.584C131.045 284.727 133.991 283.665 137.045 283.091C139.848 282.56 141.994 284.393 142.785 287.434C143.512 290.201 142.372 292.445 139.713 293.482C139.237 293.67 138.734 293.816 138.24 293.961L131.557 296Z" fill="#002D74"/>
<path d="M316.307 144L318.55 145.388C317.12 147.587 315.709 149.7 314.36 151.864C313.315 153.529 313.752 154.986 315.494 155.934C317.236 156.883 318.451 156.469 319.55 154.831C320.935 152.778 322.23 150.692 323.686 148.519L326 149.915C324.213 152.502 322.543 155.089 320.64 157.521C320.154 158.118 319.497 158.564 318.75 158.803C318.004 159.042 317.201 159.064 316.441 158.866C315.478 158.705 314.562 158.35 313.75 157.824C312.939 157.298 312.252 156.613 311.733 155.814C311.273 155.153 311.018 154.378 311.001 153.581C310.984 152.785 311.204 152 311.635 151.321C313.118 148.863 314.762 146.492 316.307 144Z" fill="#002D74"/>
<path d="M142.052 188C142.134 188.839 142.206 189.678 142.288 190.508C139.203 191.431 138.023 193.948 138.903 196.429C139.367 197.489 140.195 198.341 141.232 198.827C142.269 199.312 143.444 199.397 144.538 199.066C146.834 198.301 147.814 195.848 146.943 192.86L149.075 191.689C150.573 193.469 150.219 197.12 148.25 199.555C147.252 200.724 145.905 201.529 144.415 201.848C142.925 202.167 141.373 201.981 139.996 201.32C138.619 200.658 137.493 199.557 136.789 198.185C136.086 196.812 135.843 195.243 136.099 193.718C136.343 192.236 137.057 190.875 138.131 189.843C139.206 188.811 140.582 188.164 142.052 188Z" fill="#002D74"/>
<path d="M252.197 373.984L255.218 369.29H254.483C251.839 369.086 250.1 367.369 250.001 364.92C249.972 363.688 250.408 362.493 251.216 361.589C252.024 360.685 253.142 360.142 254.331 360.077C255.243 359.911 256.181 360.014 257.039 360.375C257.897 360.736 258.639 361.34 259.18 362.118C259.696 362.863 259.982 363.752 259.999 364.668C260.017 365.584 259.765 366.484 259.278 367.249C258.122 369.364 256.813 371.386 255.541 373.427C255.339 373.715 255.037 373.908 254.698 373.965C253.936 374.03 253.156 373.984 252.197 373.984ZM257.262 364.623C257.266 364.323 257.21 364.025 257.097 363.748C256.984 363.471 256.816 363.222 256.604 363.017C256.392 362.812 256.141 362.654 255.866 362.556C255.592 362.457 255.301 362.418 255.012 362.443C254.713 362.421 254.412 362.464 254.129 362.568C253.847 362.672 253.588 362.836 253.369 363.048C253.15 363.261 252.976 363.518 252.858 363.803C252.74 364.089 252.679 364.396 252.681 364.707C252.691 365.018 252.762 365.323 252.89 365.605C253.018 365.887 253.199 366.138 253.424 366.345C253.649 366.552 253.912 366.709 254.197 366.807C254.483 366.905 254.784 366.941 255.084 366.915C255.373 366.917 255.661 366.86 255.928 366.745C256.196 366.63 256.439 366.461 256.642 366.247C256.845 366.033 257.005 365.779 257.111 365.5C257.218 365.221 257.269 364.923 257.262 364.623Z" fill="#002D74"/>
<path d="M237.261 372.904L240.741 368.811C240.587 368.744 240.427 368.691 240.262 368.655C237.46 368.324 235.742 366.477 236.032 363.987C236.106 363.39 236.303 362.814 236.611 362.291C236.92 361.769 237.333 361.311 237.827 360.943C238.32 360.576 238.885 360.307 239.488 360.153C240.091 359.998 240.719 359.96 241.337 360.042C245.414 360.399 247.294 364.004 245.025 367.27C243.683 369.149 242.225 370.949 240.659 372.66C240.334 373.026 239.448 372.939 238.807 373C238.29 373 237.773 372.968 237.261 372.904ZM240.994 366.521C241.292 366.54 241.592 366.499 241.873 366.402C242.155 366.304 242.412 366.152 242.631 365.955C242.849 365.758 243.023 365.52 243.142 365.256C243.26 364.991 243.322 364.706 243.322 364.418C243.322 364.13 243.26 363.845 243.142 363.58C243.023 363.316 242.849 363.078 242.631 362.881C242.412 362.684 242.155 362.532 241.873 362.434C241.592 362.337 241.292 362.296 240.994 362.315C240.702 362.291 240.408 362.325 240.13 362.416C239.853 362.506 239.598 362.65 239.38 362.84C239.163 363.029 238.989 363.26 238.869 363.517C238.748 363.775 238.684 364.053 238.68 364.335C238.667 364.629 238.718 364.923 238.83 365.197C238.942 365.471 239.113 365.719 239.331 365.925C239.549 366.131 239.81 366.291 240.097 366.394C240.383 366.496 240.689 366.54 240.994 366.521Z" fill="#002D74"/>
<path d="M155 328.287C156.928 327.551 157.378 326.344 156.622 324.384C158.568 325.342 159.82 324.898 160.631 323C161.423 324.819 162.523 325.617 164.685 324.597C163.568 326.664 164.162 327.852 166 328.686C164.153 329.414 163.414 330.46 164.306 332.474C162.441 331.773 161.081 331.951 160.288 334C159.505 332.119 158.378 331.392 156.324 332.226C157.153 330.39 156.964 329.059 155 328.287Z" fill="#002D74"/>
<path d="M224.284 129C225.5 130.731 226.834 130.898 228.586 129.778C228.123 131.726 228.922 132.721 231 133.055C229.267 134.151 228.958 135.363 230.138 136.742C228.032 136.742 227.206 137.261 226.743 139C225.7 137.645 224.284 137.127 222.469 138.649C222.777 136.625 222.16 135.505 220 135.304C221.606 134.176 222.178 133.013 220.635 131.366C222.832 131.634 224.021 131.082 224.284 129Z" fill="#002D74"/>
<path d="M199.246 359.718C198.203 359.718 197.705 360.21 196.968 360.86C196.968 358.998 196.01 358.032 194.096 358.032C195.331 356.136 195.197 355.618 194 353.915C195.915 353.915 197.226 353.098 197.169 351C198.72 352.308 199.974 352.756 201.515 351C201.688 352.975 202.607 353.932 205 353.968C203.353 355.469 203.21 356.786 204.789 358.217C202.702 358.296 201.496 359.033 201.534 361C201.3 360.628 200.968 360.316 200.568 360.092C200.168 359.868 199.714 359.74 199.246 359.718Z" fill="#002D74"/>
<path d="M277.494 138.163C275.828 137.234 274.518 137.251 273.304 139C272.835 136.975 271.994 136.297 269.886 136.824C270.86 135.226 270.984 133.937 269 132.916C270.957 132.464 271.577 131.377 271.258 129.745C273.18 130.49 274.128 130.54 275.474 129C275.89 130.573 276.874 131.427 278.937 130.925C278.052 132.506 277.75 133.828 280 134.808C277.857 135.268 277.024 136.238 277.494 138.163Z" fill="#002D74"/>
<path d="M335.454 324.738C337.381 325.408 338.572 325.037 339.185 323C340.122 324.639 341.182 325.562 343.082 324.367C342.662 326.232 342.644 327.735 345 328.197C343.248 329.22 342.46 330.36 343.537 332.398C341.567 331.637 340.358 332.144 339.763 334C339.658 333.606 339.466 333.242 339.201 332.939C338.936 332.635 338.606 332.4 338.237 332.252C337.869 332.104 337.471 332.048 337.078 332.087C336.684 332.127 336.305 332.261 335.971 332.479C336.295 330.877 336.154 329.41 334 328.812C335.83 327.925 336.408 326.748 335.454 324.738Z" fill="#002D74"/>
<path d="M295 354.08C297.113 353.985 298.24 353.217 298.022 351.138C299.643 352.398 301.092 352.596 302.58 351C302.684 352.924 303.527 353.934 305.801 353.778C304.465 355.236 304.171 356.557 306 357.911C303.802 357.997 302.722 358.826 302.883 360.922C301.272 359.49 299.87 359.481 298.363 361C298.316 358.964 297.293 358.092 295.076 358.161C296.658 356.729 296.649 355.452 295 354.08Z" fill="#002D74"/>
<path d="M375.551 271L373.109 270.716C373.279 269.485 373.431 268.285 373.601 267.053L363 265.716C363.125 264.906 363.242 264.152 363.367 263.35L373.95 264.647C374.155 263.431 374.37 262.216 374.585 261L377 261.3C376.562 264.517 376.043 267.694 375.551 271Z" fill="#002D74"/>
<path d="M189 141.163L191.372 140L196.527 148.792L202.777 145.792L204 147.795L195.332 152L189 141.163Z" fill="#002D74"/>
<path d="M230.482 372L227.74 371.551C228.343 368.451 228.926 365.386 229.549 362.127L226 362.699C226.085 362.05 226.212 361.406 226.379 360.77C226.421 360.633 226.497 360.505 226.601 360.399C226.706 360.292 226.836 360.208 226.982 360.154C228.926 359.749 230.871 359.396 233 359C232.154 363.377 231.367 367.623 230.482 372Z" fill="#002D74"/>
<path d="M361 309.712C360.553 310.528 360.157 311.21 359.728 312L349 305.288L350.256 303L361 309.712Z" fill="#002D74"/>
<path d="M363.054 314C362.527 313.997 362.022 313.843 361.64 313.569C361.259 313.296 361.03 312.924 361 312.528C360.997 312.132 361.2 311.75 361.565 311.465C361.931 311.179 362.43 311.013 362.957 311C363.481 311.003 363.983 311.157 364.363 311.428C364.742 311.7 364.97 312.07 365 312.464C365.003 312.859 364.802 313.241 364.439 313.527C364.076 313.814 363.58 313.983 363.054 314Z" fill="#002D74"/>
<path d="M326 145.549C325.963 145.938 325.739 146.302 325.372 146.571C325.006 146.839 324.523 146.991 324.019 146.999C323.753 147.007 323.488 146.973 323.24 146.899C322.992 146.825 322.766 146.712 322.577 146.568C322.388 146.423 322.239 146.25 322.14 146.059C322.041 145.868 321.993 145.664 322.001 145.458C322.008 145.253 322.07 145.05 322.183 144.864C322.296 144.678 322.457 144.511 322.656 144.375C322.855 144.239 323.089 144.136 323.342 144.073C323.595 144.01 323.862 143.987 324.126 144.007C324.631 144.036 325.104 144.211 325.45 144.496C325.797 144.781 325.993 145.157 326 145.549Z" fill="#002D74"/>
<path d="M322 143.533C321.989 143.922 321.826 144.291 321.546 144.564C321.265 144.838 320.888 144.994 320.494 145C320.09 144.992 319.706 144.827 319.425 144.54C319.145 144.253 318.992 143.869 319 143.471C319.008 143.073 319.176 142.695 319.467 142.419C319.759 142.143 320.149 141.993 320.553 142C320.947 142.028 321.315 142.201 321.584 142.486C321.852 142.771 322.001 143.145 322 143.533Z" fill="#002D74"/>
<path d="M257.034 233.942C242.901 233.845 229.129 231.853 216.016 226.47C208.413 223.351 201.54 219.165 196.174 212.918C191.755 207.772 189.446 201.913 190.113 195.119C190.646 189.832 193.009 185.294 196.346 181.206C201.297 175.144 207.619 170.756 214.609 167.249C223.258 162.896 232.367 159.654 242.008 158.438C247.16 157.906 252.351 157.859 257.512 158.297C267.905 158.969 278.093 161.442 287.599 165.601C300.229 170.988 311.467 179.065 320.491 189.242C323.845 192.942 326.894 196.896 329.609 201.067C329.852 201.392 329.988 201.782 329.999 202.185C330.011 202.588 329.896 202.984 329.672 203.322C327.261 207.695 324.023 211.582 320.13 214.777C312.266 221.474 302.994 225.518 293.164 228.629C283.295 231.727 273.038 233.488 262.68 233.862C261.715 233.862 260.759 233.968 259.794 233.995C258.829 234.021 257.954 233.942 257.034 233.942Z" fill="#002D74"/>
<path d="M180.254 309.811C186.723 313.885 194.012 316.589 201.64 317.744C210.194 319.005 218.917 318.708 227.358 316.869C242.646 313.699 256.357 307.131 269.198 298.682C279.613 291.701 289.233 283.673 297.898 274.733C313.832 258.463 327.147 239.973 337.399 219.883C337.68 219.322 337.943 218.849 338.305 218C338.595 218.771 338.813 219.322 339.049 219.996C342.329 229.104 344.001 238.68 343.996 248.323C344.106 260.398 341.706 272.371 336.937 283.533C333.216 292.49 327.962 300.778 321.396 308.051C306.063 324.784 287.195 335.686 264.114 338.926C236.43 342.814 211.554 336.133 189.805 319.11C186.307 316.378 183.253 313.112 180 310.091L180.254 309.811Z" fill="#002D74"/>
<path d="M171.892 199C170.598 202.232 169.259 205.22 168.209 208.286C164.924 217.869 163.902 227.678 166.273 237.618C169.177 249.814 176.625 258.778 187.601 265.164C195.919 269.887 205.221 272.776 214.839 273.623C235.172 275.696 254.491 271.802 273.15 264.232C285.035 259.497 296.15 253.139 306.152 245.354C317.183 236.642 327.218 227.06 334.466 215.09C334.548 214.959 334.674 214.733 334.828 214.428L335 214.602C334.965 214.745 334.92 214.884 334.864 215.02C334.768 215.291 334.657 215.555 334.529 215.813C325.754 233.462 314.587 249.914 301.32 264.737C288.814 278.675 274.743 290.871 258.183 300.28C247.741 306.212 236.746 310.777 224.747 312.842C213.101 314.845 201.645 314.48 190.614 309.915C180.253 305.62 172.516 298.468 166.888 289.173C161.757 280.766 158.825 271.645 157.224 262.08C156.284 256.764 155.884 251.372 156.029 245.981C156.647 229.596 161.89 213.682 171.195 199.95C171.367 199.645 171.53 199.409 171.892 199Z" fill="#002D74"/>
<path d="M333 208.621C332.765 209.042 332.538 209.498 332.294 209.892C323.405 224.891 311.329 237.015 296.709 246.807C281.95 256.877 265.244 263.961 247.592 267.635C238.337 269.633 228.841 270.37 219.376 269.827C208.251 269.047 197.65 266.505 188.263 260.394C177.084 253.127 170.865 243.002 170.068 229.879C169.599 220.463 171.556 211.083 175.762 202.581C179.803 194.163 185.124 186.38 191.549 179.491L192.011 179L192.228 179.158L191.504 180.131C188.028 184.803 185.638 189.888 185.167 195.7C184.543 203.081 186.978 209.542 191.585 215.283C196.809 221.762 203.607 226.294 211.193 229.774C220.442 233.924 230.31 236.637 240.431 237.813C248.062 238.807 255.771 239.115 263.46 238.733C281.312 237.795 298.339 233.947 313.99 225.268C320.24 221.838 325.767 217.3 330.284 211.891C331.19 210.813 331.941 209.638 332.774 208.507L333 208.621Z" fill="#002D74"/>
<path d="M340 162L331.59 171L330 169.247" fill="#002D74"/>
<path d="M343 184.673L357.439 182L359 184.308L350.686 196L349.023 193.549L356.58 183.524L357.208 184.415L344.644 187.088L343 184.673ZM346.963 185.377L349.393 184.736L352.903 189.922L351.333 191.82L346.963 185.377Z" fill="#002D74"/>
<path d="M135.94 246L123 239.392L123.208 236.535L137 232L136.773 235.032L124.622 238.673L124.713 237.53L136.166 243.06L135.94 246ZM133.294 242.995L131.001 242.074L131.482 235.622L133.892 235.023L133.294 242.995Z" fill="#002D74"/>
<path d="M370.737 209.41L363.346 215.057L372.945 215.686L374 219.292L361.381 223L360.56 220.542L365.428 219.114L370.088 217.77L360.822 217.158L360.074 214.751L366.519 209.58L362.724 210.677L357.775 212.115L357 209.75L369.755 206L370.737 209.41Z" fill="#002D74"/>
<path d="M136 255.244L129.68 255.396L131.541 254.753L122.335 260L122.261 257.03L129.354 253.035V254.652L122.074 250.937L122 248L131.43 253.027L129.493 252.485L135.842 252.375L136 255.244Z" fill="#002D74"/>
<path d="M337 177.859L341.481 173.958L340.533 175.598L343.659 166L345.722 168.261L343.287 175.624L342.162 174.355L349.963 172.879L352 175.115L341.755 176.841L343.526 176.107L339.001 180L337 177.859Z" fill="#002D74"/>
</svg>
