<svg width="500" height="500" viewBox="0 0 500 500" fill="none" xmlns="http://www.w3.org/2000/svg">
<rect width="500" height="500" fill="#F0F0F0"/>
<path fill-rule="evenodd" clip-rule="evenodd" d="M79.2886 206.817L92.9422 245.408L106.729 207.66V207.579C106.729 207.528 106.788 207.425 106.803 207.381C106.824 207.334 106.841 207.285 106.854 207.235C106.854 207.139 106.943 206.949 106.551 206.678C105.83 206.271 105.067 205.942 104.276 205.695C103.06 205.259 101.813 204.916 100.545 204.669C97.3505 204.036 94.0826 203.851 90.8365 204.119C89.0584 204.238 87.2878 204.448 85.5317 204.749C84.0644 205.007 82.6193 205.377 81.2096 205.856C80.5201 206.069 79.8709 206.393 79.2886 206.817ZM73.1859 209.229L73.607 273.442C73.607 273.515 73.607 273.588 73.8065 273.727C74.3024 274.052 74.8209 274.341 75.358 274.593C76.9509 275.421 78.5914 276.155 80.2713 276.792C82.8333 277.765 85.5054 278.425 88.2284 278.757C91.1754 279.042 94.1416 279.077 97.0944 278.859C99.0844 278.803 101.055 278.449 102.939 277.811C105.059 277.114 107.97 275.919 109.677 275.172C110.612 274.791 111.523 274.353 112.403 273.859V247.746L118.993 237.431V269.058L125 261.536V221.112L96.4738 272.357H90.2972L74.9 245.547V231.42L93.2377 264.483L120.205 216.201L118.89 214.822L112.506 226.684L113.009 209.544L96.1191 255.649H90.1494L73.1859 209.229ZM67.3935 269.6L62 261.426V222.337L65.8862 229.243V216.596L68.1027 214.309L67.3935 269.6Z" fill="#939598"/>
<path fill-rule="evenodd" clip-rule="evenodd" d="M349.976 230.718L364.414 263.556C364.529 263.855 364.708 264.126 364.938 264.351C365.168 264.576 365.445 264.75 365.748 264.861C366.052 264.972 366.377 265.017 366.7 264.994C367.023 264.971 367.337 264.88 367.622 264.728C368.214 264.369 368.655 263.812 368.865 263.159C369.075 262.505 369.039 261.799 368.765 261.169L350.116 218.748C349.593 217.547 349.482 215.903 347.823 216.005C347.306 216.063 346.831 216.312 346.493 216.702C346.155 217.093 345.98 217.595 346.002 218.107L346.739 253.66C346.733 253.907 346.778 254.152 346.871 254.381C346.964 254.61 347.104 254.817 347.282 254.991C347.459 255.165 347.67 255.301 347.903 255.391C348.136 255.481 348.384 255.524 348.634 255.516C349.149 255.457 349.622 255.209 349.959 254.82C350.295 254.431 350.47 253.931 350.448 253.42L349.976 230.718Z" fill="#939598"/>
<path fill-rule="evenodd" clip-rule="evenodd" d="M377.182 256.568L361.266 217.038C361.19 216.819 361.066 216.62 360.904 216.456C360.741 216.292 360.544 216.167 360.327 216.089C360.11 216.012 359.879 215.984 359.65 216.009C359.421 216.033 359.2 216.109 359.004 216.231C358.578 216.512 358.262 216.931 358.106 217.418C357.951 217.906 357.966 218.432 358.15 218.909L376.175 263.672C376.686 264.927 378.029 265 379.211 265C379.712 264.955 380.177 264.719 380.51 264.339C380.842 263.959 381.017 263.466 380.999 262.96L380.269 230.973C380.27 230.728 380.222 230.485 380.127 230.26C380.033 230.034 379.893 229.83 379.718 229.66C379.543 229.49 379.335 229.357 379.107 229.27C378.88 229.183 378.637 229.143 378.393 229.153C377.892 229.198 377.426 229.434 377.092 229.814C376.758 230.193 376.581 230.687 376.598 231.193L377.182 256.568Z" fill="#939598"/>
<path fill-rule="evenodd" clip-rule="evenodd" d="M414.982 249.796L410.593 265.163C410.522 265.484 410.386 265.786 410.194 266.05C410.003 266.314 409.759 266.534 409.48 266.695C409.201 266.857 408.892 266.957 408.573 266.989C408.254 267.021 407.932 266.984 407.627 266.881C407.01 266.604 406.514 266.102 406.238 265.471C405.962 264.84 405.925 264.126 406.134 263.468L418.877 218.841C418.95 218.52 419.086 218.218 419.279 217.954C419.471 217.69 419.715 217.47 419.994 217.307C420.274 217.145 420.583 217.045 420.903 217.012C421.222 216.979 421.545 217.015 421.85 217.117C422.466 217.396 422.959 217.899 423.235 218.529C423.511 219.159 423.55 219.872 423.344 220.529L416.54 244.351L435.631 244.813C436.302 244.875 436.923 245.202 437.365 245.724C437.806 246.247 438.032 246.926 437.996 247.616C438.013 247.955 437.963 248.293 437.851 248.612C437.739 248.931 437.566 249.223 437.342 249.472C437.118 249.722 436.849 249.923 436.549 250.064C436.249 250.205 435.925 250.284 435.595 250.295L414.982 249.796Z" fill="#939598"/>
<path fill-rule="evenodd" clip-rule="evenodd" d="M410.322 217.117C410.955 217.391 411.464 217.893 411.75 218.525C412.036 219.156 412.078 219.872 411.868 220.533L398.733 265.163C398.656 265.485 398.513 265.787 398.315 266.05C398.116 266.314 397.865 266.533 397.578 266.695C397.292 266.856 396.975 266.956 396.647 266.989C396.32 267.021 395.99 266.985 395.677 266.883C395.045 266.61 394.536 266.109 394.25 265.479C393.964 264.848 393.922 264.134 394.131 263.473L407.296 218.844C407.372 218.521 407.514 218.219 407.713 217.954C407.911 217.69 408.161 217.47 408.448 217.307C408.735 217.145 409.053 217.045 409.38 217.012C409.708 216.979 410.038 217.015 410.352 217.117" fill="#939598"/>
<path fill-rule="evenodd" clip-rule="evenodd" d="M332.5 217C333.183 217.025 333.829 217.31 334.296 217.794C334.762 218.277 335.013 218.92 334.992 219.581V264.392C335.019 264.725 334.975 265.059 334.862 265.374C334.748 265.689 334.569 265.978 334.335 266.223C334.101 266.468 333.817 266.664 333.501 266.797C333.186 266.931 332.845 267 332.5 267C332.155 267 331.814 266.931 331.499 266.797C331.183 266.664 330.899 266.468 330.665 266.223C330.431 265.978 330.252 265.689 330.138 265.374C330.025 265.059 329.981 264.725 330.008 264.392V219.581C329.987 218.92 330.238 218.277 330.704 217.794C331.171 217.31 331.817 217.025 332.5 217Z" fill="#939598"/>
<path fill-rule="evenodd" clip-rule="evenodd" d="M279.066 223.126C278.952 226.964 279.009 234.188 279.066 238.398C279.123 242.608 279.137 243.812 279.187 244.643C279.184 245.216 279.298 245.783 279.523 246.307C279.719 246.658 280.012 246.942 280.365 247.124C280.725 247.324 281.121 247.445 281.529 247.482C281.952 247.525 282.379 247.493 282.792 247.387C282.972 247.35 283.138 247.261 283.272 247.132C283.406 247.004 283.502 246.839 283.549 246.657C283.706 246.176 283.756 245.388 283.784 242.462C283.813 239.536 283.784 234.479 283.784 231.335C283.784 228.19 283.784 226.957 283.784 225.906C283.784 224.855 283.827 223.98 283.855 223.484C283.884 222.988 283.905 222.864 284.312 222.754C285.389 222.613 286.478 222.589 287.56 222.681C289.637 222.754 293.013 222.958 295.911 223.338C298.372 223.565 300.782 224.193 303.049 225.198C304.659 226.059 306.063 227.273 307.161 228.752C308.237 230.043 309.135 231.479 309.83 233.02C310.491 234.61 310.885 236.302 310.994 238.026C311.151 239.864 311.094 241.915 311.108 243.651C311.213 245.317 311.105 246.99 310.787 248.627C310.277 250.685 309.419 252.635 308.253 254.391C307.075 256.151 305.554 257.641 303.784 258.769C301.952 259.904 299.979 260.78 297.917 261.374C295.818 262.034 293.631 262.355 291.436 262.323C289.059 262.279 286.347 261.812 284.491 261.593C282.635 261.374 281.636 261.491 280.922 261.9C280.587 262.1 280.303 262.376 280.091 262.708C279.879 263.04 279.746 263.418 279.701 263.811C279.63 264.26 279.709 264.72 279.925 265.117C280.142 265.514 280.483 265.825 280.893 266C281.957 266.584 283.87 266.934 286.832 266.992C290.34 267.051 293.846 266.772 297.303 266.161C300.456 265.639 303.488 264.528 306.247 262.885C308.565 261.414 310.562 259.472 312.114 257.179C313.78 254.805 314.898 252.076 315.383 249.196C316.085 245.26 316.189 241.236 315.69 237.267C315.248 233.675 314.063 230.22 312.214 227.132C310.716 224.747 308.723 222.73 306.375 221.222C302.15 218.442 292.813 217.085 285.847 217.165C283.641 217.165 281.664 216.749 280.137 217.238C279.423 217.471 279.137 219.288 279.03 223.119" fill="#939598"/>
<path fill-rule="evenodd" clip-rule="evenodd" d="M247.196 224.016C244.85 231.267 238.588 248.114 236.227 255.505C233.867 262.895 233.867 263.538 234.096 264.136C234.339 264.733 234.778 265.232 235.342 265.553C235.873 265.862 236.482 266.017 237.098 265.999C237.644 265.999 238.071 265.772 238.875 263.684C239.68 261.595 240.845 257.644 241.686 254.979C242.284 252.976 243.042 251.022 243.95 249.137C244.393 248.407 244.769 248.282 248.457 248.319C252.145 248.355 259.153 248.516 262.804 248.414C266.455 248.312 266.736 247.947 266.883 247.479C267.012 246.938 267.035 246.378 266.95 245.829C266.953 245.527 266.888 245.228 266.761 244.954C266.633 244.68 266.446 244.438 266.212 244.244C265.659 243.835 264.655 243.609 261.786 243.623C258.917 243.638 254.203 243.886 251.4 244.018C248.597 244.149 247.712 244.142 247.13 244.142C246.77 244.159 246.41 244.145 246.053 244.098C245.853 244.098 245.743 243.974 245.728 243.58C245.713 243.185 245.794 242.477 246.827 239.198C247.86 235.919 250.914 228.58 251.99 225.235C252.568 223.602 253.032 221.93 253.377 220.233C253.518 219.577 253.604 218.91 253.635 218.24C253.654 218 253.619 217.758 253.533 217.534C253.446 217.309 253.31 217.106 253.134 216.94C252.648 216.516 252.062 216.222 251.43 216.085C250.889 215.94 250.314 215.981 249.8 216.202C249.483 216.399 249.512 216.743 247.166 223.987" fill="#939598"/>
<path fill-rule="evenodd" clip-rule="evenodd" d="M236.062 221.342C234.085 226.412 230.94 237.331 228.921 243.575C226.902 249.819 225.302 254.229 224.638 256.408C223.974 258.588 223.541 260.319 223.282 261.596C223.06 262.494 222.968 263.421 223.01 264.348C223.016 264.61 223.078 264.868 223.192 265.101C223.306 265.335 223.468 265.539 223.666 265.698C224.093 265.942 224.581 266.042 225.064 265.984C225.609 265.984 226.175 265.837 227.195 263.409C228.215 260.98 230.374 254.427 232.352 248.073C234.329 241.718 236.824 232.701 238.354 227.946C239.884 223.191 240.45 221.657 240.744 220.461C240.96 219.595 241.04 218.698 240.981 217.805C241.001 217.349 240.878 216.898 240.632 216.521C240.485 216.339 240.299 216.197 240.088 216.107C239.877 216.018 239.649 215.983 239.423 216.007C238.829 216.007 238.026 216.279 236.041 221.342" fill="#939598"/>
<path fill-rule="evenodd" clip-rule="evenodd" d="M188.257 224.978C185.893 232.605 181.034 248.196 178.611 255.973C176.189 263.749 176.028 264.28 176.006 264.788C175.968 265.277 176.106 265.763 176.394 266.155C176.707 266.516 177.117 266.775 177.572 266.902C177.795 266.981 178.032 267.013 178.267 266.995C178.503 266.977 178.732 266.91 178.941 266.797C179.46 266.536 180.082 265.991 181.231 263.062C182.38 260.134 184.261 254.254 185.856 249.1C187.452 243.945 188.959 238.94 189.889 235.653C190.818 232.366 191.184 230.894 191.469 229.751C191.755 228.608 191.989 227.831 192.135 227.286C192.282 226.741 192.347 226.427 192.765 227.473C193.182 228.519 193.935 230.924 195.648 236.056C197.36 241.189 200.039 249.025 201.744 254.135C203.449 259.245 204.239 261.605 204.73 263.047C204.958 263.846 205.264 264.62 205.644 265.356C205.868 265.756 206.194 266.087 206.588 266.312C207.062 266.585 207.606 266.702 208.147 266.648C208.695 266.552 209.188 266.251 209.53 265.804C209.732 265.528 209.874 265.211 209.946 264.875C210.018 264.539 210.018 264.191 209.947 263.854C209.838 262.883 209.45 261.456 207.635 255.905C205.82 250.355 202.571 240.681 200.317 234.01C198.063 227.338 196.724 223.693 195.926 221.362C195.128 219.031 194.85 218.03 194.594 217.365C194.464 216.9 194.18 216.496 193.789 216.222C193.462 216.067 193.103 215.993 192.743 216.006C192.354 215.982 191.964 216.033 191.594 216.155C191.29 216.289 191.034 216.516 190.862 216.805C190.708 217.059 190.657 217.298 188.301 224.925" fill="#939598"/>
<path fill-rule="evenodd" clip-rule="evenodd" d="M154.512 255.22C153.774 257.459 152.843 260.228 152.393 262.071C152.037 263.162 151.921 264.317 152.053 265.456C152.077 265.697 152.151 265.931 152.27 266.142C152.39 266.353 152.552 266.537 152.747 266.683C153.11 266.905 153.532 267.015 153.958 266.998C154.401 266.998 154.859 266.91 155.672 265.53C157.051 262.932 158.224 260.231 159.18 257.452C160.702 253.332 162.592 247.744 163.974 243.448C165.355 239.152 166.249 236.156 166.928 233.983C167.608 231.809 168.021 230.472 168.324 229.577C168.627 228.681 168.797 228.225 169.063 228.688C169.503 229.799 169.854 230.943 170.111 232.11C170.525 233.674 170.976 235.429 171.389 236.927C171.803 238.425 172.172 239.674 172.49 240.599C172.807 241.524 173.103 242.112 173.827 242.266C174.692 242.377 175.57 242.207 176.33 241.781C176.936 241.407 176.973 240.929 176.995 240.107C177.017 239.284 176.995 238.132 176.256 234.93C175.518 231.728 173.915 226.47 173.073 223.511C172.231 220.552 172.098 219.839 171.869 219.215C171.681 218.603 171.352 218.042 170.909 217.578C170.535 217.254 170.066 217.058 169.572 217.019C169.189 216.966 168.799 217.024 168.45 217.188C168.088 217.357 167.711 217.658 166.175 221.851C164.638 226.044 161.898 234.129 160.089 239.402C158.279 244.674 157.393 247.135 156.647 249.213C155.901 251.291 155.295 252.995 154.534 255.234" fill="#939598"/>
<path d="M248.39 295.97V282.015H250.212V294.329H257V295.97H248.39ZM224.952 295.97V282.015H234.911V283.656H226.804V287.973H234.414V289.607H226.804V294.359H235.259V296L224.952 295.97ZM203.092 294.329H206.523C206.939 294.34 207.355 294.317 207.768 294.261C208.139 294.203 208.495 294.076 208.82 293.887C209.128 293.707 209.383 293.448 209.561 293.137C209.745 292.77 209.836 292.364 209.828 291.953C209.845 291.47 209.707 290.994 209.435 290.596C209.169 290.206 208.78 289.918 208.331 289.779C207.674 289.602 206.995 289.524 206.316 289.547H203.092V294.329ZM203.092 287.883H206.056C206.641 287.905 207.227 287.85 207.798 287.718C208.216 287.612 208.586 287.366 208.85 287.021C209.092 286.662 209.214 286.234 209.198 285.8C209.207 285.369 209.094 284.945 208.872 284.578C208.661 284.219 208.326 283.952 207.931 283.829C207.244 283.667 206.539 283.601 205.834 283.634H203.092V287.883ZM201.262 295.97V282.015H206.449C207.314 281.981 208.176 282.127 208.983 282.442C209.6 282.71 210.118 283.166 210.465 283.746C210.817 284.296 211.004 284.936 211.006 285.59C211.004 286.183 210.84 286.764 210.532 287.269C210.18 287.824 209.679 288.266 209.087 288.543C209.847 288.74 210.521 289.185 211.006 289.809C211.462 290.416 211.7 291.161 211.68 291.923C211.683 292.553 211.543 293.176 211.273 293.744C211.04 294.253 210.692 294.699 210.258 295.048C209.812 295.371 209.309 295.603 208.776 295.73C208.047 295.902 207.301 295.983 206.553 295.97H201.262ZM177.824 295.97V282.015H187.783V283.656H179.632V287.973H187.242V289.607H179.677V294.359H188.131V296L177.824 295.97ZM151 295.97V282.015H153.734L156.995 291.893C157.298 292.815 157.513 293.497 157.654 293.954C157.81 293.452 158.054 292.702 158.395 291.706L161.715 282H164.16V295.955H162.411V284.301L158.38 295.97H156.735L152.756 284.084V295.97H151Z" fill="#939598"/>
</svg>
