<svg width="482" height="500" viewBox="0 0 482 500" fill="none" xmlns="http://www.w3.org/2000/svg">
<path d="M166.68 362.999L167.5 361.779C168.3 362.399 169.13 362.879 170 363.209C170.87 363.539 171.72 363.699 172.57 363.699C173.62 363.699 174.47 363.479 175.12 363.029C175.77 362.589 176.1 362.019 176.1 361.319C176.1 360.769 175.87 360.309 175.4 359.949C174.93 359.589 174.28 359.379 173.46 359.309C173.26 359.289 172.97 359.269 172.6 359.249C170.74 359.119 169.47 358.899 168.8 358.589C168.27 358.339 167.87 358.009 167.6 357.609C167.33 357.209 167.19 356.759 167.19 356.259C167.19 355.349 167.6 354.599 168.41 354.009C169.22 353.419 170.28 353.129 171.58 353.129C172.52 353.129 173.45 353.289 174.37 353.599C175.29 353.909 176.16 354.369 176.99 354.979L176.17 356.149C175.47 355.589 174.74 355.169 173.97 354.879C173.2 354.599 172.41 354.449 171.6 354.449C170.75 354.449 170.04 354.619 169.49 354.949C168.94 355.279 168.66 355.699 168.66 356.199C168.66 356.399 168.7 356.579 168.79 356.739C168.88 356.899 169.02 357.059 169.2 357.199C169.66 357.549 170.67 357.769 172.21 357.869C172.92 357.909 173.47 357.959 173.86 357.999C175.01 358.129 175.92 358.499 176.59 359.109C177.26 359.719 177.59 360.469 177.59 361.359C177.59 362.419 177.13 363.289 176.21 363.969C175.29 364.649 174.09 364.999 172.6 364.999C171.47 364.999 170.42 364.839 169.46 364.509C168.49 364.179 167.57 363.679 166.7 362.999H166.68Z" fill="#0B2A27"/>
<path d="M182.18 364.699V353.379H191.08V354.679H183.58V357.999H188.11V359.299H183.58V363.389H191.54V364.689H182.18V364.699Z" fill="#0B2A27"/>
<path d="M193.83 364.699L199.38 353.379H200.55L206.16 364.699H204.63L203.09 361.649H196.84L195.34 364.699H193.83ZM197.48 360.329H202.46L199.96 355.319L197.48 360.329Z" fill="#0B2A27"/>
<path d="M218.65 364.699V353.379H225.35C226.46 353.379 227.31 353.619 227.88 354.089C228.45 354.559 228.74 355.269 228.74 356.199C228.74 356.649 228.65 357.049 228.47 357.409C228.29 357.769 228.04 358.049 227.71 358.269C228.31 358.619 228.77 359.049 229.07 359.549C229.37 360.049 229.53 360.639 229.53 361.289C229.53 362.339 229.19 363.159 228.5 363.779C227.81 364.389 226.88 364.699 225.71 364.699H218.66H218.65ZM220.06 357.849H225.47C226.06 357.849 226.52 357.719 226.83 357.439C227.14 357.169 227.3 356.779 227.3 356.279C227.3 355.749 227.15 355.349 226.84 355.079C226.54 354.809 226.08 354.679 225.46 354.679H220.05V357.849H220.06ZM220.06 363.399H225.99C226.63 363.399 227.14 363.209 227.51 362.829C227.88 362.449 228.06 361.929 228.06 361.279C228.06 360.629 227.88 360.109 227.51 359.729C227.14 359.349 226.64 359.159 225.99 359.159H220.06V363.409V363.399Z" fill="#0B2A27"/>
<path d="M234.19 364.699V353.379H240.68C241.79 353.379 242.66 353.659 243.28 354.219C243.91 354.779 244.22 355.549 244.22 356.529C244.22 357.349 243.97 358.049 243.48 358.639C242.99 359.219 242.34 359.589 241.53 359.729L244.36 364.699H242.8L239.97 359.749H235.58V364.699H234.17H234.19ZM235.6 358.429H240.59C241.3 358.429 241.84 358.269 242.2 357.959C242.57 357.649 242.75 357.179 242.75 356.579C242.75 355.979 242.57 355.519 242.2 355.189C241.83 354.859 241.32 354.689 240.66 354.689H235.59V358.429H235.6Z" fill="#0B2A27"/>
<path d="M248.68 364.699V353.379H257.58V354.679H250.08V357.999H254.61V359.299H250.08V363.389H258.04V364.689H248.68V364.699Z" fill="#0B2A27"/>
<path d="M262.04 364.699V353.379H270.94V354.679H263.44V357.999H267.97V359.299H263.44V363.389H271.4V364.689H262.04V364.699Z" fill="#0B2A27"/>
<path d="M273.65 364.699L281.29 354.679H274.3V353.379H283.86L276.39 363.399H283.82V364.699H273.66H273.65Z" fill="#0B2A27"/>
<path d="M287.96 364.699V353.379H296.86V354.679H289.36V357.999H293.89V359.299H289.36V363.389H297.32V364.689H287.96V364.699Z" fill="#0B2A27"/>
<path d="M218.67 135.219C218.67 135.219 209.54 132.679 198.95 144.759C195.66 148.509 186.9 149.889 186.9 149.889C186.9 149.889 201.96 163.029 219.83 151.369C219.83 151.369 212.15 146.609 218.67 135.229V135.219Z" fill="#0B2A27"/>
<path d="M292.77 227.43C287.3 228.13 281.46 229.13 275.25 230.42C257.17 234.13 241.92 239.8 229.49 247.4C232.85 229.05 239.31 181.11 225.59 137C225.59 137 294.26 147.94 292.77 227.43Z" fill="#0B2A27"/>
<path d="M220.89 158.559C220.89 158.559 232.98 219.579 219.94 250.619C219.94 250.619 202.37 258.689 171.21 250.469C171.21 250.469 204.71 213.569 220.9 158.559H220.89Z" fill="#0B2A27"/>
<path d="M71.1601 328.29C70.7901 328.29 70.6101 328.22 70.6101 328.08C70.6101 327.94 70.7401 327.61 70.9901 327.08C71.2401 326.55 71.3001 325.59 71.1601 324.21L64.8101 281.12L50.1701 321.38H49.2001L35.3901 282.64L30.6901 324.56C30.6001 325.66 30.7001 326.51 31.0001 327.08C31.3001 327.66 31.4501 327.99 31.4501 328.08C31.4501 328.17 31.3701 328.23 31.2101 328.25C31.0501 328.27 30.8901 328.28 30.7301 328.28H28.6901C28.3201 328.28 28.1401 328.21 28.1401 328.07C28.1401 327.98 28.3501 327.7 28.7601 327.24C29.1701 326.78 29.4701 326.13 29.6601 325.31L34.3601 282.7C34.4501 281.55 34.3501 280.74 34.0501 280.28C33.7501 279.82 33.6001 279.54 33.6001 279.45C33.6001 279.36 33.6801 279.3 33.8401 279.28C34.0001 279.26 34.1601 279.25 34.3201 279.25H38.9101L51.9601 313.78L64.5301 279.25H69.9201C70.2901 279.25 70.4701 279.32 70.4701 279.46C70.4701 279.55 70.3301 279.82 70.0601 280.25C69.7801 280.69 69.6901 281.48 69.7801 282.63L76.0001 324.48C76.2301 325.63 76.5801 326.49 77.0401 327.07C77.5001 327.65 77.7301 327.98 77.7301 328.07C77.7301 328.16 77.6501 328.22 77.4901 328.24C77.3301 328.26 77.1701 328.27 77.0101 328.27H71.1701L71.1601 328.29Z" fill="#0B2A27"/>
<path d="M92.9703 292.338C95.3203 291.398 97.8503 290.918 100.57 290.918C104.3 290.918 107.14 291.678 109.1 293.198C111.06 294.718 112.33 296.618 112.93 298.898C113.53 301.178 113.83 303.878 113.83 307.008V316.188L113.76 324.748C113.81 325.618 114.01 326.368 114.38 326.988C114.75 327.608 114.93 327.968 114.93 328.058C114.93 328.148 114.85 328.208 114.69 328.228C114.53 328.248 114.37 328.258 114.21 328.258H108.37C108 328.258 107.82 328.188 107.82 328.048C107.82 327.958 107.97 327.658 108.27 327.148C108.57 326.638 108.79 326.088 108.93 325.488C105.89 327.878 102.3 329.078 98.1603 329.078C93.0003 329.078 88.8102 327.998 85.5902 325.828C82.3702 323.668 80.7603 320.578 80.7603 316.578C80.7603 313.258 81.8403 310.508 84.0103 308.328C86.1703 306.138 89.1203 304.728 92.8503 304.078L87.4603 295.378C88.7903 294.268 90.6403 293.248 92.9803 292.308L92.9703 292.338ZM88.2702 324.898C90.0202 327.198 93.3103 328.348 98.1503 328.348C101 328.348 103.31 327.808 105.06 326.728C106.81 325.648 108.12 324.028 109 321.858C109.05 320.108 109.07 317.028 109.07 312.608C108.42 309.658 107.23 307.568 105.48 306.328C103.73 305.088 101.06 304.468 97.4703 304.468C93.0003 304.468 89.9203 305.568 88.2203 307.788C86.5203 309.998 85.6603 312.948 85.6603 316.628C85.6603 319.848 86.5303 322.618 88.2803 324.918L88.2702 324.898ZM91.3802 299.828C91.8402 301.118 92.3503 302.518 92.9003 304.038C94.5103 303.808 96.0303 303.688 97.4603 303.688C99.8103 303.688 101.95 303.908 103.88 304.348C105.81 304.788 107.54 305.628 109.06 306.868C109.01 303.458 108.77 300.698 108.33 298.578C107.89 296.458 107.03 294.778 105.74 293.538C104.45 292.298 102.54 291.678 100.01 291.678C98.0803 291.678 96.2202 292.378 94.4502 293.788C92.6802 295.198 91.5103 296.768 90.9603 298.518L91.3703 299.828H91.3802Z" fill="#0B2A27"/>
<path d="M132.27 289.06C134.83 287.03 137.45 285.51 140.14 284.5C142.83 283.49 145.19 282.98 147.22 282.98C148.09 282.98 148.78 283.23 149.29 283.74C149.8 284.25 150.05 284.91 150.05 285.74C150.05 286.61 149.8 287.31 149.29 287.81C148.78 288.32 148.12 288.57 147.29 288.57C146.97 288.57 146.62 288.52 146.25 288.43C144.45 288.15 142.77 288.02 141.21 288.02C135.64 288.02 131.73 289.8 129.47 293.37C127.21 296.94 126.09 302.43 126.09 309.84V324.48C126.09 325.49 126.29 326.32 126.68 326.97C127.07 327.62 127.27 327.98 127.27 328.07C127.27 328.16 127.19 328.22 127.03 328.24C126.87 328.26 126.71 328.27 126.55 328.27H120.71C120.34 328.27 120.16 328.2 120.16 328.06C120.16 327.97 120.36 327.6 120.75 326.96C121.14 326.32 121.34 325.49 121.34 324.47V297.33C121.34 296.32 121.14 295.49 120.75 294.84C120.36 294.2 120.16 293.83 120.16 293.74C120.16 293.65 120.24 293.59 120.4 293.57C120.56 293.55 120.72 293.54 120.88 293.54H121.33C121.93 293.54 122.47 293.43 122.95 293.19C123.43 292.96 123.72 292.82 123.81 292.78C124.64 292.27 125.4 292.02 126.09 292.02V296.44C127.65 293.54 129.72 291.08 132.27 289.05V289.06ZM144.7 326.97C145.09 326.33 145.29 325.5 145.29 324.48V297.34C145.29 296.33 145.09 295.5 144.7 294.85C144.31 294.21 144.11 293.84 144.11 293.75C144.11 293.66 144.19 293.6 144.35 293.58C144.51 293.56 144.67 293.55 144.83 293.55H145.28C145.88 293.55 146.42 293.44 146.9 293.2C147.38 292.97 147.67 292.83 147.76 292.79C148.59 292.28 149.35 292.03 150.04 292.03V324.49C150.04 325.5 150.24 326.33 150.63 326.98C151.02 327.63 151.22 327.99 151.22 328.08C151.22 328.17 151.14 328.23 150.98 328.25C150.82 328.27 150.66 328.28 150.5 328.28H144.66C144.29 328.28 144.11 328.21 144.11 328.07C144.11 327.98 144.31 327.61 144.7 326.97Z" fill="#0B2A27"/>
<path d="M174.07 290.918C177.8 290.918 180.64 291.678 182.6 293.198C184.56 294.718 185.83 296.618 186.43 298.898C187.03 301.178 187.33 303.878 187.33 307.008L187.26 324.758C187.31 325.628 187.51 326.378 187.88 326.998C188.25 327.618 188.43 327.978 188.43 328.068C188.43 328.158 188.35 328.218 188.19 328.238C188.03 328.258 187.87 328.268 187.71 328.268H182.5V319.978C182.55 318.458 182.57 315.078 182.57 309.828C182.57 305.498 182.41 302.138 182.09 299.748C181.77 297.358 180.96 295.408 179.67 293.908C178.38 292.408 176.33 291.668 173.52 291.668C171.63 291.668 169.89 292.348 168.31 293.708C166.72 295.068 165.45 296.738 164.51 298.718C163.57 300.698 163.09 302.538 163.09 304.238V324.468C163.09 325.478 163.29 326.308 163.68 326.958C164.07 327.608 164.27 327.968 164.27 328.058C164.27 328.148 164.19 328.208 164.03 328.228C163.87 328.248 163.71 328.258 163.55 328.258H157.71C157.34 328.258 157.16 328.188 157.16 328.048C157.16 327.958 157.36 327.588 157.75 326.948C158.14 326.308 158.34 325.478 158.34 324.458V297.318C158.34 296.308 158.14 295.478 157.75 294.828C157.36 294.188 157.16 293.818 157.16 293.728C157.16 293.638 157.24 293.578 157.4 293.558C157.56 293.538 157.72 293.528 157.88 293.528H158.33C158.93 293.528 159.47 293.418 159.95 293.178C160.43 292.948 160.72 292.808 160.81 292.768C161.64 292.258 162.4 292.008 163.09 292.008V297.668C165.9 293.158 169.56 290.898 174.07 290.898V290.918ZM181.91 326.968C182.3 326.328 182.5 325.498 182.5 324.478V328.278H181.88C181.51 328.278 181.33 328.208 181.33 328.068C181.33 327.978 181.53 327.608 181.92 326.968H181.91Z" fill="#0B2A27"/>
<path d="M204.46 292.338C206.81 291.398 209.34 290.918 212.06 290.918C215.79 290.918 218.63 291.678 220.59 293.198C222.55 294.718 223.82 296.618 224.42 298.898C225.02 301.178 225.32 303.878 225.32 307.008V316.188L225.25 324.748C225.3 325.618 225.5 326.368 225.87 326.988C226.24 327.608 226.42 327.968 226.42 328.058C226.42 328.148 226.34 328.208 226.18 328.228C226.02 328.248 225.86 328.258 225.7 328.258H219.86C219.49 328.258 219.31 328.188 219.31 328.048C219.31 327.958 219.46 327.658 219.76 327.148C220.06 326.638 220.28 326.088 220.42 325.488C217.38 327.878 213.79 329.078 209.65 329.078C204.49 329.078 200.3 327.998 197.08 325.828C193.86 323.668 192.25 320.578 192.25 316.578C192.25 313.258 193.33 310.508 195.5 308.328C197.66 306.138 200.61 304.728 204.34 304.078L198.95 295.378C200.28 294.268 202.13 293.248 204.47 292.308L204.46 292.338ZM199.77 324.898C201.52 327.198 204.81 328.348 209.65 328.348C212.5 328.348 214.81 327.808 216.56 326.728C218.31 325.648 219.62 324.028 220.5 321.858C220.55 320.108 220.57 317.028 220.57 312.608C219.92 309.658 218.73 307.568 216.98 306.328C215.23 305.088 212.56 304.468 208.97 304.468C204.5 304.468 201.42 305.568 199.72 307.788C198.02 309.998 197.16 312.948 197.16 316.628C197.16 319.848 198.03 322.618 199.78 324.918L199.77 324.898ZM202.88 299.828C203.34 301.118 203.85 302.518 204.4 304.038C206.01 303.808 207.53 303.688 208.96 303.688C211.31 303.688 213.45 303.908 215.38 304.348C217.31 304.788 219.04 305.628 220.56 306.868C220.51 303.458 220.27 300.698 219.83 298.578C219.39 296.458 218.53 294.778 217.24 293.538C215.95 292.298 214.04 291.678 211.51 291.678C209.58 291.678 207.72 292.378 205.95 293.788C204.18 295.198 203.01 296.768 202.46 298.518L202.87 299.828H202.88Z" fill="#0B2A27"/>
<path d="M252.04 279.25C252.41 279.25 252.59 279.32 252.59 279.46C252.59 279.55 252.57 279.71 252.52 279.94C252.47 280.17 252.45 280.42 252.45 280.7C252.45 281.48 252.66 282.43 253.07 283.53L267.5 320.82L280.48 282.7C280.66 282.1 280.76 281.55 280.76 281.04C280.76 280.67 280.71 280.34 280.62 280.04C280.53 279.74 280.48 279.55 280.48 279.45C280.48 279.35 280.56 279.3 280.72 279.28C280.88 279.26 281.04 279.25 281.2 279.25H283.58C283.95 279.25 284.13 279.32 284.13 279.46C284.13 279.55 283.83 279.85 283.23 280.36C282.63 280.87 282.1 281.79 281.64 283.12L266.24 328.29H264.93L248.15 283.4C247.64 282.11 247.07 281.16 246.42 280.53C245.77 279.91 245.45 279.55 245.45 279.46C245.45 279.37 245.53 279.31 245.69 279.29C245.85 279.27 246.01 279.26 246.17 279.26H252.01L252.04 279.25Z" fill="#0B2A27"/>
<path d="M287.49 326.971C287.88 326.331 288.08 325.501 288.08 324.481V297.341C288.08 296.331 287.88 295.501 287.49 294.851C287.1 294.211 286.9 293.841 286.9 293.751C286.9 293.661 286.98 293.601 287.14 293.581C287.3 293.561 287.46 293.551 287.62 293.551H288.07C288.67 293.551 289.21 293.441 289.69 293.201C290.17 292.971 290.46 292.831 290.55 292.791C291.38 292.281 292.14 292.031 292.83 292.031V324.491C292.83 325.501 293.03 326.331 293.42 326.981C293.81 327.631 294.01 327.991 294.01 328.081C294.01 328.171 293.93 328.231 293.77 328.251C293.61 328.271 293.45 328.281 293.29 328.281H287.45C287.08 328.281 286.9 328.211 286.9 328.071C286.9 327.981 287.1 327.611 287.49 326.971ZM288.01 283.741C288.52 283.231 289.21 282.981 290.08 282.981C290.91 282.981 291.58 283.231 292.08 283.741C292.59 284.251 292.84 284.911 292.84 285.741C292.84 286.061 292.82 286.321 292.77 286.501C293.28 285.761 293.78 284.641 294.29 283.121C294.93 281.281 295.62 279.871 296.36 278.911C297.1 277.941 298.25 277.441 299.81 277.391H300.71C301.31 277.391 301.85 277.281 302.33 277.041C302.81 276.811 303.1 276.671 303.19 276.631C304.02 276.121 304.78 275.871 305.47 275.871V324.491C305.47 325.501 305.67 326.331 306.06 326.981C306.45 327.631 306.65 327.991 306.65 328.081C306.65 328.171 306.57 328.231 306.41 328.251C306.25 328.271 306.09 328.281 305.93 328.281H300.09C299.72 328.281 299.54 328.211 299.54 328.071C299.54 327.981 299.74 327.611 300.13 326.971C300.52 326.331 300.72 325.501 300.72 324.481V281.181C300.72 280.121 300.42 279.111 299.82 278.141C298.58 278.191 297.63 278.661 296.99 279.561C296.35 280.461 295.72 281.741 295.12 283.391C294.48 285.091 293.82 286.381 293.15 287.261C292.48 288.131 291.48 288.571 290.15 288.571C289.27 288.571 288.57 288.321 288.04 287.811C287.51 287.301 287.25 286.611 287.25 285.741C287.25 284.911 287.5 284.241 288.01 283.741Z" fill="#0B2A27"/>
<path d="M319.11 326.969C319.5 327.619 319.7 327.979 319.7 328.069C319.7 328.159 319.62 328.219 319.46 328.239C319.3 328.259 319.14 328.269 318.98 328.269H313.14C312.77 328.269 312.59 328.199 312.59 328.059C312.59 327.969 312.78 327.599 313.18 326.959C313.57 326.319 313.77 325.489 313.77 324.469V281.169C313.77 280.159 313.57 279.329 313.18 278.679C312.79 278.039 312.59 277.669 312.59 277.579C312.59 277.489 312.67 277.429 312.83 277.409C312.99 277.389 313.15 277.379 313.31 277.379H313.76C314.36 277.379 314.9 277.269 315.38 277.029C315.86 276.799 316.15 276.659 316.24 276.619C317.07 276.109 317.83 275.859 318.52 275.859V324.479C318.52 325.489 318.72 326.319 319.11 326.969Z" fill="#0B2A27"/>
<path d="M336.08 292.338C338.43 291.398 340.96 290.918 343.68 290.918C347.41 290.918 350.25 291.678 352.21 293.198C354.17 294.718 355.44 296.618 356.04 298.898C356.64 301.178 356.94 303.878 356.94 307.008V316.188L356.87 324.748C356.92 325.618 357.12 326.368 357.49 326.988C357.86 327.608 358.04 327.968 358.04 328.058C358.04 328.148 357.96 328.208 357.8 328.228C357.64 328.248 357.48 328.258 357.32 328.258H351.48C351.11 328.258 350.93 328.188 350.93 328.048C350.93 327.958 351.08 327.658 351.38 327.148C351.68 326.638 351.9 326.088 352.04 325.488C349 327.878 345.41 329.078 341.27 329.078C336.11 329.078 331.92 327.998 328.7 325.828C325.48 323.668 323.87 320.578 323.87 316.578C323.87 313.258 324.95 310.508 327.12 308.328C329.28 306.138 332.23 304.728 335.96 304.078L330.57 295.378C331.9 294.268 333.75 293.248 336.09 292.308L336.08 292.338ZM331.38 324.898C333.13 327.198 336.42 328.348 341.26 328.348C344.11 328.348 346.42 327.808 348.17 326.728C349.92 325.648 351.23 324.028 352.11 321.858C352.16 320.108 352.18 317.028 352.18 312.608C351.54 309.658 350.34 307.568 348.59 306.328C346.84 305.088 344.17 304.468 340.58 304.468C336.11 304.468 333.03 305.568 331.33 307.788C329.63 309.998 328.77 312.948 328.77 316.628C328.77 319.848 329.64 322.618 331.39 324.918L331.38 324.898ZM334.49 299.828C334.95 301.118 335.46 302.518 336.01 304.038C337.62 303.808 339.14 303.688 340.57 303.688C342.92 303.688 345.06 303.908 346.99 304.348C348.92 304.788 350.65 305.628 352.17 306.868C352.12 303.458 351.88 300.698 351.45 298.578C351.01 296.458 350.15 294.778 348.86 293.538C347.57 292.298 345.66 291.678 343.13 291.678C341.2 291.678 339.34 292.378 337.57 293.788C335.8 295.198 334.63 296.768 334.08 298.518L334.49 299.828Z" fill="#0B2A27"/>
<path d="M364.98 297.831C366.61 295.441 368.76 293.691 371.4 292.581C374.05 291.481 376.89 290.921 379.93 290.921C381.54 290.921 383.27 291.101 385.11 291.471C387.27 288.851 389.69 287.531 392.36 287.531C393.05 287.531 393.86 287.651 394.78 287.881L396.23 292.511C395.86 291.771 395.19 291.211 394.23 290.821C393.26 290.431 392.2 290.231 391.05 290.231C390.08 290.231 389.15 290.361 388.25 290.611C387.35 290.861 386.63 291.241 386.07 291.751C389.43 292.671 392.16 294.391 394.25 296.901C396.34 299.411 397.39 302.711 397.39 306.811C397.39 310.451 396.56 313.451 394.9 315.821C393.24 318.191 391.09 319.921 388.44 321.001C385.79 322.081 382.95 322.621 379.91 322.621C376.87 322.621 373.88 322.071 371.35 320.961C369.46 323.721 367.53 325.721 365.55 326.971C370.89 325.771 375.86 325.171 380.47 325.171C385.08 325.171 389.01 325.941 392 327.481C394.99 329.021 396.49 331.631 396.49 335.321C396.49 339.011 395.15 341.581 392.48 343.051C389.81 344.521 386.96 345.261 383.92 345.261C382.63 345.261 381.49 345.091 380.5 344.741C379.51 344.391 378.39 343.901 377.15 343.251C375.81 342.511 374.85 342.171 374.25 342.211V341.591C374.66 341.541 375.16 341.621 375.73 341.831C376.31 342.041 376.89 342.301 377.49 342.621C378.6 343.131 379.57 343.531 380.43 343.831C381.28 344.131 382.19 344.281 383.16 344.281C384.36 344.281 385.6 344.001 386.89 343.451C388.18 342.901 389.28 341.961 390.21 340.651C391.13 339.341 391.59 337.581 391.59 335.371C391.59 332.381 389.89 330.211 386.48 328.881C383.07 327.551 379 326.881 374.26 326.881C371.77 326.881 369.45 327.041 367.28 327.361C365.11 327.681 363.55 328.071 362.58 328.531L362.3 328.601V327.911C365.34 326.581 368.05 324.111 370.45 320.521C368.01 319.281 366.08 317.521 364.65 315.241C363.22 312.961 362.51 310.141 362.51 306.781C362.51 303.191 363.33 300.201 364.96 297.801L364.98 297.831ZM371.44 319.031C373.19 316.131 375.24 311.781 377.59 305.981C379.15 302.301 380.41 299.481 381.35 297.521C382.29 295.561 383.34 293.831 384.49 292.311C383.2 291.901 381.68 291.691 379.93 291.691C371.6 291.691 367.43 296.731 367.43 306.811C367.43 312.521 368.76 316.591 371.44 319.031ZM379.94 321.861C384.59 321.861 387.85 320.481 389.71 317.721C391.57 314.961 392.51 311.321 392.51 306.811C392.51 299.121 390.12 294.381 385.33 292.581C384.18 293.921 383.15 295.551 382.26 297.481C381.36 299.411 380.18 302.221 378.7 305.911C377.46 309.001 376.36 311.611 375.42 313.751C374.48 315.891 373.43 317.881 372.28 319.721C374.21 321.151 376.77 321.861 379.95 321.861H379.94Z" fill="#0B2A27"/>
<path d="M427.99 326.867C425.41 328.367 422.49 329.107 419.22 329.107C415.95 329.107 412.87 328.318 410.24 326.728C407.62 325.138 405.55 322.897 404.06 319.997C402.56 317.097 401.82 313.757 401.82 309.987C401.82 306.217 402.57 302.947 404.06 300.047C405.56 297.147 407.63 294.898 410.28 293.318C412.93 291.728 415.91 290.938 419.22 290.938C423.04 290.938 426.54 292.007 429.72 294.147C432.9 296.287 434.94 299.917 435.87 305.027L431.59 304.888C426.99 304.888 422.64 305.917 418.54 307.957C414.44 310.007 410.74 312.478 407.42 315.378C408.11 317.768 409.19 319.797 410.67 321.457C412.14 323.117 413.79 324.347 415.61 325.147C417.43 325.957 419.17 326.357 420.82 326.357C423.77 326.357 426.2 325.908 428.11 325.008C430.02 324.108 431.85 322.468 433.6 320.068L434.15 320.617C432.63 323.287 430.58 325.367 428 326.867H427.99ZM407.21 314.467C410.2 311.657 413.74 309.217 417.81 307.147C421.88 305.077 426.45 304.038 431.52 304.038C431.06 299.938 429.89 296.858 428 294.788C426.11 292.718 423.19 291.677 419.23 291.677C415.27 291.677 412.2 293.288 410.01 296.508C407.82 299.728 406.73 304.218 406.73 309.978C406.73 311.358 406.89 312.857 407.21 314.467Z" fill="#0B2A27"/>
</svg>
