<svg width="500" height="500" viewBox="0 0 500 500" fill="none" xmlns="http://www.w3.org/2000/svg">
<rect width="500" height="500" fill="#F0F0F0"/>
<path fill-rule="evenodd" clip-rule="evenodd" d="M261.175 199.083L206.962 248.12V273.949L261.175 225.093V244.494H245.813L226.247 262.362H261.175V272.268H280.641V199.083H261.175ZM292.081 272.268H311.58V216.687H320.283C324.306 216.687 327.075 217.61 328.591 219.44C329.844 220.956 330.47 223.428 330.47 226.874C330.47 229.84 329.481 232.231 327.519 234.06C325.459 235.988 323.052 236.961 320.283 236.961H312.651L351.14 273.455V247.725L341.134 239.038C344.035 236.533 345.948 234.687 346.887 233.5C348.915 230.862 349.92 227.896 349.92 224.616C349.92 215.5 347.431 208.907 342.436 204.819C337.739 200.995 330.387 199.083 320.366 199.083H311.58L292.081 216.687V272.268ZM357.93 272.268V254.664H383.397C384.649 254.664 385.754 254.186 386.71 253.23C387.65 252.274 388.127 251.137 388.127 249.818C388.127 246.258 385.688 244.477 380.826 244.477C374.347 244.477 369.007 242.17 364.788 237.538C360.501 232.989 358.359 227.764 358.359 221.847C358.359 215.895 360.7 210.621 365.364 206.022C370.029 201.391 375.254 199.083 381.007 199.083H425L405.534 216.687H382.919C381.65 216.687 380.529 217.149 379.54 218.088C378.469 219.044 377.941 220.198 377.941 221.516C377.941 225.093 380.446 226.874 385.473 226.874C391.391 226.874 396.484 228.917 400.77 233.005C405.402 237.357 407.709 242.862 407.709 249.521C407.709 256.115 405.352 261.62 400.655 266.037C396.254 270.191 391.045 272.268 385.061 272.268H357.93Z" fill="#3DC0E5"/>
<path fill-rule="evenodd" clip-rule="evenodd" d="M101.047 184V302.787L119.545 297.831V228.712L154.171 261.556L188.052 228.712V289.789L206.951 304.078V187.457L154.401 236.317L101.047 184Z" fill="#0064AB"/>
<path fill-rule="evenodd" clip-rule="evenodd" d="M206.834 213.733C206.834 213.733 257.079 186.306 224.351 225.949C224.351 225.949 164.426 288.87 75 315.836C75 315.836 171.571 270.432 213.288 227.332C213.288 227.332 231.265 209.585 206.834 213.733V213.733Z" fill="#3DC0E5"/>
<path fill-rule="evenodd" clip-rule="evenodd" d="M233.427 301.361C235.797 301.361 237.727 300.615 239.266 299.071C240.928 297.34 241.758 294.597 241.758 292.015C241.758 288.899 240.536 286.13 238.655 284.825C237.385 283.946 235.968 283.52 234.429 283.52C232.547 283.52 231.033 283.946 229.518 284.958C227.514 286.29 225.902 289.086 225.902 292.601C225.902 295.423 226.611 297.527 228.1 299.151C229.298 300.482 231.253 301.361 233.427 301.361V301.361ZM233.94 299.071C233.182 299.071 232.401 298.778 231.717 297.872C230.861 296.727 230.52 294.996 230.52 292.307C230.52 289.778 231.056 287.887 231.765 286.929C232.328 286.183 233.011 285.783 234.013 285.783C234.917 285.783 235.699 286.29 236.187 287.328C236.774 288.553 237.19 290.47 237.19 292.627C237.19 294.837 236.871 296.807 236.016 298.006C235.382 298.937 234.722 299.071 233.94 299.071V299.071ZM267.643 286.058C267.668 285.313 267.668 284.51 267.668 283.791C266.935 283.791 266.055 283.791 265.274 283.791C264.003 283.791 262.659 283.791 261.609 283.791C261.609 284.483 261.584 285.34 261.609 286.085L263.025 286.138C263.075 286.138 263.099 286.218 263.099 286.272C262.879 287.603 261.901 290.981 261.511 292.445C261.169 293.697 260.803 295.055 260.313 296.701H260.143C259.58 294.575 259.141 292.631 258.701 290.821C258.482 289.915 257.943 287.284 257.699 286.138L259.361 286.058C259.386 285.34 259.386 284.483 259.386 283.791C258.091 283.791 256.356 283.791 254.891 283.791C253.84 283.791 252.495 283.791 251.591 283.791C251.591 284.51 251.567 285.313 251.567 286.058L252.764 286.112C252.837 286.112 252.885 286.165 252.885 286.218C253.448 288.242 254.132 290.528 254.718 292.578C255.524 295.347 256.6 298.565 257.552 301.361C259.409 301.361 260.729 301.361 260.973 301.307C262.024 298.592 263.148 295.321 264.076 292.764C264.882 290.607 265.713 288.082 266.373 286.138L267.643 286.058ZM277.797 298.858C277.772 299.577 277.772 300.376 277.772 301.121C278.749 301.121 279.996 301.094 281.12 301.094C284.511 301.094 287.904 301.121 289.125 301.121C289.443 299.55 289.76 297.979 290.029 296.435C289.32 296.275 288.465 296.089 287.635 295.956L286.922 298.086C286.825 298.378 286.702 298.512 286.458 298.592C286.116 298.672 285.504 298.752 284.511 298.752C283.42 298.752 283.249 298.672 283.249 298.166L283.274 293.452C283.979 293.452 284.658 293.479 285.339 293.506C285.554 293.506 285.676 293.666 285.701 294.065L285.823 295.13C286.605 295.13 287.415 295.103 288.124 295.05C288.124 294.358 288.149 293.399 288.149 292.441C288.149 291.482 288.174 290.496 288.174 289.671C287.466 289.645 286.655 289.618 285.874 289.618L285.727 290.63C285.678 290.923 285.556 291.109 285.413 291.136C284.733 291.162 284.029 291.189 283.276 291.189L283.301 286.13C283.374 286.13 283.472 286.13 283.545 286.13C285.048 286.13 285.752 286.236 286.095 286.29C286.436 286.343 286.534 286.502 286.583 286.742L286.978 288.792C287.809 288.712 288.664 288.606 289.372 288.5C289.323 286.929 289.226 285.33 289.128 283.76C288.591 283.76 287.735 283.786 286.706 283.786C286.119 283.786 281.762 283.786 281 283.786C279.974 283.786 278.703 283.786 277.799 283.786C277.774 284.505 277.751 285.305 277.751 286.076L279.168 286.13V298.672C279.168 298.725 279.119 298.778 279.045 298.778L277.797 298.858ZM302.139 286.13L302.114 298.715C302.114 298.742 302.09 298.795 302.041 298.795L300.844 298.875C300.844 299.621 300.844 300.345 300.819 301.09C301.748 301.09 302.896 301.09 303.922 301.09C305.119 301.09 306.463 301.09 307.416 301.09C307.416 300.345 307.416 299.621 307.441 298.875L306.122 298.795L306.147 294.517C306.22 294.491 306.415 294.464 306.709 294.464C307.271 294.464 307.71 294.784 308.028 295.605C308.517 296.856 309.689 299.94 310.325 301.143C310.789 301.143 312.866 301.116 313.403 301.116C313.868 301.116 314.747 301.09 315.187 301.09C315.187 300.345 315.211 299.595 315.211 298.875L314.038 298.715C313.746 298.689 313.574 298.423 313.305 297.757C312.206 295.285 311.62 293.772 310.545 293.212V293.053C312.255 292.281 313.574 290.683 313.574 288.42C313.574 286.715 312.206 284.639 310.08 284.133C308.639 283.76 307.882 283.76 306.489 283.76C304.583 283.76 302.507 283.786 300.846 283.813C300.821 284.559 300.821 285.305 300.821 286.076L302.139 286.13ZM306.195 285.996C306.342 285.943 306.562 285.916 306.977 285.916C308.271 285.916 309.371 287.355 309.371 289.298C309.371 291.056 308.37 292.307 306.732 292.307C306.39 292.307 306.244 292.307 306.146 292.281L306.195 285.996ZM327.804 295.396C326.973 295.503 326.021 295.689 325.238 295.876C325.41 297.5 325.581 299.151 325.776 300.828C326.778 301.227 328.513 301.361 329.539 301.361C331.909 301.361 333.521 300.855 334.694 299.843C335.867 298.831 336.501 297.26 336.501 295.582C336.501 293.053 335.109 291.588 332.397 290.576C330.15 289.725 329.612 289.458 329.612 288.126C329.612 287.381 329.955 286.876 330.271 286.609C330.663 286.29 331.152 286.13 331.738 286.13C332.202 286.13 332.666 286.29 332.96 286.555C333.009 286.609 333.033 286.662 333.057 286.742L333.619 289.219C334.474 289.112 335.378 289.006 336.135 288.872C336.038 287.248 335.916 285.624 335.769 284C335.207 283.733 333.913 283.52 332.52 283.52C330.175 283.52 328.391 284.159 327.316 285.224C326.362 286.156 325.654 287.541 325.654 289.192C325.654 291.801 327.559 293.426 330.027 294.437C331.933 295.21 332.544 295.476 332.544 296.807C332.544 297.447 332.325 297.926 331.958 298.246C331.542 298.618 330.834 298.778 330.248 298.778C329.637 298.778 329.075 298.618 328.635 298.272C328.562 298.246 328.513 298.112 328.488 298.032L327.804 295.396ZM347.438 298.858C347.413 299.577 347.413 300.376 347.413 301.121C348.391 301.121 349.638 301.094 350.761 301.094C354.153 301.094 357.545 301.121 358.767 301.121C359.085 299.55 359.402 297.979 359.671 296.435C358.962 296.275 358.107 296.089 357.276 295.956L356.564 298.086C356.466 298.378 356.344 298.512 356.1 298.592C355.758 298.672 355.146 298.752 354.153 298.752C353.062 298.752 352.891 298.672 352.891 298.166L352.916 293.452C353.62 293.452 354.3 293.479 354.98 293.506C355.196 293.506 355.318 293.666 355.342 294.065L355.465 295.13C356.246 295.13 357.056 295.103 357.765 295.05C357.765 294.358 357.79 293.399 357.79 292.441C357.79 291.482 357.815 290.496 357.815 289.671C357.107 289.645 356.296 289.618 355.515 289.618L355.368 290.63C355.319 290.923 355.197 291.109 355.055 291.136C354.375 291.162 353.67 291.189 352.917 291.189L352.942 286.13C353.015 286.13 353.113 286.13 353.187 286.13C354.69 286.13 355.393 286.236 355.736 286.29C356.078 286.343 356.176 286.502 356.225 286.742L356.619 288.792C357.45 288.712 358.305 288.606 359.013 288.5C358.965 286.929 358.867 285.33 358.77 283.76C358.232 283.76 357.377 283.786 356.347 283.786C355.76 283.786 351.403 283.786 350.641 283.786C349.615 283.786 348.345 283.786 347.441 283.786C347.416 284.505 347.392 285.305 347.392 286.076L348.809 286.13V298.672C348.809 298.725 348.76 298.778 348.687 298.778L347.438 298.858ZM369.484 298.87C369.459 299.584 369.434 300.352 369.434 301.093C370.168 301.093 371.023 301.093 371.828 301.093C373.026 301.093 374.297 301.093 375.274 301.093C375.299 300.352 375.299 299.584 375.299 298.87L373.955 298.79C374.053 298.227 374.248 297.476 374.371 296.886L378.891 296.833C378.988 296.833 379.038 296.86 379.062 296.966C379.208 297.365 379.428 298.218 379.551 298.617C379.576 298.697 379.526 298.751 379.477 298.751L378.28 298.83C378.255 299.584 378.255 300.352 378.255 301.093C379.379 301.093 380.918 301.093 382.188 301.093C383.116 301.093 384.313 301.093 385.121 301.093C385.146 300.352 385.146 299.584 385.146 298.87L383.899 298.763C382.556 294.463 380.625 288.099 379.208 283.625C377.425 283.625 376.301 283.625 375.861 283.679C374.395 288.02 372.245 294.33 370.755 298.657C370.73 298.737 370.657 298.79 370.609 298.79L369.484 298.87ZM376.789 288.579C377.375 290.682 377.962 292.865 378.475 294.623H375.054C374.981 294.623 374.981 294.57 375.005 294.463C375.518 292.652 376.105 290.549 376.666 288.579H376.789ZM397.983 295.395C397.152 295.502 396.199 295.688 395.417 295.875C395.588 297.499 395.759 299.15 395.954 300.827C396.957 301.226 398.691 301.36 399.717 301.36C402.088 301.36 403.7 300.854 404.873 299.842C406.046 298.83 406.68 297.259 406.68 295.581C406.68 293.052 405.288 291.587 402.576 290.575C400.328 289.723 399.791 289.457 399.791 288.126C399.791 287.38 400.133 286.875 400.45 286.608C400.841 286.289 401.33 286.129 401.916 286.129C402.38 286.129 402.845 286.289 403.138 286.554C403.187 286.608 403.211 286.661 403.236 286.741L403.797 289.218C404.653 289.111 405.556 289.005 406.313 288.871C406.217 287.247 406.094 285.623 405.947 283.999C405.386 283.732 404.091 283.519 402.697 283.519C400.352 283.519 398.569 284.158 397.494 285.223C396.541 286.155 395.833 287.54 395.833 289.191C395.833 291.8 397.738 293.425 400.206 294.436C402.112 295.209 402.722 295.475 402.722 296.806C402.722 297.446 402.502 297.925 402.136 298.245C401.72 298.617 401.012 298.777 400.426 298.777C399.815 298.777 399.253 298.617 398.813 298.271C398.74 298.245 398.691 298.111 398.667 298.031L397.983 295.395Z" fill="#1B1918"/>
</svg>
