<svg width="500" height="500" viewBox="0 0 500 500" fill="none" xmlns="http://www.w3.org/2000/svg">
<rect width="500" height="500" fill="#F0F0F0"/>
<path d="M236.894 292.324C236.525 292.324 236.525 292.324 236.156 292.324C226.927 292.693 224.711 302.661 224.711 317.059C224.711 327.766 227.296 339.21 236.525 339.579C245.755 339.579 247.97 327.766 248.339 317.059C248.708 303.03 246.493 293.063 236.894 292.324Z" fill="#E61523"/>
<path d="M297.071 141.334V120.291L283.78 107H216.958L203.299 120.291V141.334H135V392.377H365V141.334H297.071V141.334ZM322.175 198.188H336.942V258.734H322.175V198.188ZM336.942 284.207V294.175H305.562V284.207H336.942ZM216.958 120.291H283.78V141.334H216.958V120.291ZM253.507 197.819V258.734H239.478V197.819H253.507ZM162.319 198.557H173.026L195.915 242.12L218.804 198.557H228.772V258.364H215.482V225.138L197.022 258.734H189.27L172.287 224.769V258.364H162.319V198.557ZM198.499 343.645C188.9 350.66 171.918 349.183 162.319 345.491L164.165 335.892C168.965 338.108 176.717 339.215 183.363 338.846C191.485 338.108 194.807 331.831 191.116 327.401C187.424 322.233 173.764 320.756 166.38 313.003C160.104 306.358 161.95 294.544 168.226 289.376C177.087 281.992 194.807 284.207 202.56 286.422L200.714 295.283C197.392 293.437 176.348 290.114 174.872 299.344C173.764 305.62 183.363 308.573 188.162 310.788C194.438 313.372 200.345 317.064 203.299 321.494C206.252 325.925 207.36 337.369 198.499 343.645ZM236.894 348.445C218.804 348.445 212.528 334.785 211.79 317.064C211.421 304.881 214.374 295.652 220.65 289.745C224.711 285.684 229.88 283.838 236.894 283.838C243.909 283.838 249.077 285.315 253.138 289.745C259.414 295.652 262.368 304.881 261.998 317.064C261.26 334.416 254.615 348.445 236.894 348.445ZM264.213 198.188H271.966L301.87 234.368V198.188H311.838V258.734H305.931L274.181 221.815V258.734H264.213V198.188ZM286.734 290.483C286.734 294.913 283.411 298.236 278.981 298.236C274.92 298.236 271.228 294.913 271.228 290.483C271.228 286.053 274.551 282.73 278.981 282.73C283.042 282.73 286.734 286.053 286.734 290.483ZM303.716 348.445C284.888 348.445 269.382 332.939 269.382 313.372C269.382 313.003 269.382 312.265 269.382 311.896H278.612C278.612 312.265 278.612 313.003 278.612 313.372C278.612 327.401 289.687 338.846 303.716 338.846C317.745 338.846 328.82 327.401 328.82 313.372C328.82 313.003 328.82 312.265 328.82 311.896H338.05C338.05 312.265 338.05 313.003 338.05 313.372C338.05 332.57 322.544 348.445 303.716 348.445Z" fill="#E61523"/>
</svg>
