<svg width="500" height="500" viewBox="0 0 500 500" fill="none" xmlns="http://www.w3.org/2000/svg">
<rect width="500" height="500" fill="#F0F0F0"/>
<path d="M162.24 297.567C166.64 298.067 171.99 297.957 176.91 297.977C177.45 297.984 177.546 298.194 177.2 298.607C175.686 300.387 173.99 301.62 172.11 302.307C148.65 310.837 126.91 294.667 107.77 281.777C91.5896 270.867 64.6096 249.647 91.2196 230.277C103.986 220.984 116.793 211.744 129.64 202.557C135.353 198.47 139.903 195.804 143.29 194.557C153.06 190.967 169.64 190.447 178.65 197.677C184.916 202.71 191.1 207.78 197.2 212.887C197.245 212.929 197.276 212.984 197.287 213.045C197.297 213.106 197.288 213.168 197.259 213.223C197.231 213.278 197.185 213.322 197.129 213.348C197.073 213.374 197.01 213.381 196.95 213.367C169.29 205.717 144.24 210.637 122.5 229.787C105.79 244.517 103.9 260.187 119.51 276.617C130.936 288.657 145.18 295.64 162.24 297.567Z" fill="#65A1DA"/>
<path d="M376.699 215.157C376.741 215.059 376.804 214.971 376.884 214.9C376.964 214.83 377.059 214.778 377.162 214.749C377.265 214.72 377.373 214.715 377.478 214.734C377.583 214.752 377.683 214.795 377.769 214.857C378.083 215.084 378.349 215.467 378.569 216.007C383.289 227.554 388.126 239.054 393.079 250.507C394.239 253.177 396.039 254.347 398.729 254.887C399.009 254.94 399.106 255.104 399.019 255.377C398.839 255.947 384.759 255.707 383.189 255.697C383.098 255.694 383.01 255.659 382.942 255.598C382.874 255.537 382.829 255.454 382.816 255.363C382.803 255.272 382.822 255.18 382.87 255.102C382.919 255.024 382.993 254.966 383.079 254.937L385.629 254.187C385.934 254.098 386.216 253.945 386.457 253.74C386.699 253.534 386.895 253.28 387.032 252.994C387.17 252.707 387.246 252.395 387.256 252.077C387.266 251.759 387.209 251.442 387.089 251.147L383.899 243.237C383.759 242.89 383.503 242.717 383.129 242.717H368.219C367.839 242.717 367.576 242.894 367.429 243.247L363.979 251.637C363.904 251.82 363.877 252.019 363.901 252.213C363.926 252.408 364.001 252.592 364.119 252.747C365.186 254.14 366.629 254.8 368.449 254.727C368.506 254.725 368.562 254.735 368.613 254.758C368.665 254.78 368.711 254.814 368.748 254.857C368.786 254.9 368.813 254.951 368.829 255.006C368.845 255.062 368.848 255.12 368.839 255.177C368.719 255.867 356.789 256.027 356.339 255.527C355.953 255.1 356.039 254.82 356.599 254.687C360.379 253.757 361.129 251.377 362.789 247.497C367.329 236.857 371.966 226.077 376.699 215.157ZM368.769 240.207C368.748 240.258 368.74 240.314 368.745 240.369C368.75 240.425 368.769 240.478 368.8 240.524C368.83 240.571 368.872 240.609 368.921 240.635C368.969 240.662 369.024 240.676 369.079 240.677L382.329 240.747C382.385 240.746 382.44 240.732 382.488 240.705C382.537 240.679 382.579 240.641 382.609 240.594C382.64 240.548 382.658 240.495 382.664 240.439C382.669 240.384 382.661 240.328 382.639 240.277L376.099 224.777C376.075 224.714 376.032 224.66 375.977 224.621C375.921 224.582 375.855 224.561 375.788 224.56C375.72 224.559 375.654 224.578 375.597 224.615C375.54 224.652 375.496 224.705 375.469 224.767L368.769 240.207Z" fill="black"/>
<path d="M306.53 245.298C306.31 237.152 306.243 228.958 306.33 220.718C306.37 217.028 303.59 216.738 300.75 216.548C300.717 216.547 300.685 216.538 300.656 216.522C300.627 216.506 300.602 216.484 300.584 216.457C300.565 216.429 300.553 216.398 300.549 216.365C300.545 216.333 300.549 216.299 300.56 216.268C300.6 216.162 300.64 216.045 300.68 215.918C300.72 215.785 300.806 215.718 300.94 215.718H314.55C314.621 215.719 314.691 215.74 314.751 215.779C314.811 215.818 314.859 215.873 314.889 215.937C314.92 216.002 314.931 216.074 314.922 216.145C314.913 216.216 314.885 216.283 314.84 216.338C314.586 216.652 314.25 216.785 313.83 216.738C309.71 216.248 309.07 219.008 309.08 222.478C309.08 233.618 309.08 244.658 309.08 255.598C309.081 255.756 309.034 255.91 308.943 256.038C308.853 256.167 308.725 256.264 308.576 256.317C308.426 256.369 308.264 256.375 308.111 256.332C307.957 256.289 307.821 256.201 307.72 256.078L281.84 224.498C281.8 224.451 281.747 224.418 281.688 224.401C281.629 224.385 281.566 224.388 281.508 224.409C281.451 224.429 281.401 224.467 281.365 224.517C281.329 224.567 281.31 224.627 281.31 224.688C281.316 232.775 281.333 240.888 281.36 249.028C281.37 253.438 282.07 254.668 286.55 254.858C286.664 254.861 286.772 254.909 286.851 254.991C286.93 255.074 286.972 255.184 286.97 255.298C286.967 255.412 286.919 255.521 286.837 255.6C286.754 255.678 286.644 255.721 286.53 255.718H273.37C272.956 255.718 272.826 255.525 272.98 255.138C273.63 253.468 278.6 256.788 278.59 249.558C278.57 240.158 278.58 230.768 278.62 221.388C278.62 221.042 278.52 220.728 278.32 220.448C276.6 218.068 274.263 216.805 271.31 216.658C271.244 216.655 271.18 216.638 271.121 216.608C271.063 216.578 271.011 216.537 270.97 216.486C270.928 216.435 270.898 216.376 270.881 216.313C270.864 216.25 270.86 216.183 270.87 216.118C270.98 215.448 280.05 215.718 280.96 215.738C281.593 215.745 282.11 215.995 282.51 216.488L306.01 245.498C306.048 245.549 306.101 245.585 306.161 245.602C306.222 245.619 306.286 245.616 306.345 245.594C306.403 245.571 306.453 245.53 306.487 245.477C306.52 245.424 306.535 245.361 306.53 245.298Z" fill="black"/>
<path d="M344.749 235.26C358.759 238.33 353.279 255.07 340.379 255.5C332.626 255.76 324.859 255.813 317.079 255.66C316.946 255.657 316.819 255.602 316.725 255.507C316.632 255.412 316.579 255.284 316.579 255.15C316.579 255.07 316.579 254.987 316.579 254.9C316.579 254.72 316.666 254.647 316.839 254.68C321.189 255.47 322.349 252.95 322.339 249.09C322.319 240.217 322.319 231.35 322.339 222.49C322.349 218.8 321.509 216.13 317.159 216.76C317.053 216.775 316.945 216.752 316.853 216.695C316.762 216.639 316.693 216.552 316.659 216.45C316.626 216.35 316.593 216.253 316.559 216.16C316.547 216.112 316.546 216.063 316.555 216.015C316.564 215.967 316.584 215.921 316.613 215.883C316.642 215.844 316.679 215.813 316.722 215.792C316.765 215.77 316.812 215.759 316.859 215.76C322.499 215.68 340.249 213.87 346.929 218.71C352.189 222.53 352.599 229.19 347.219 233.21C346.519 233.72 345.529 234.05 344.639 234.57C344.086 234.897 344.123 235.127 344.749 235.26ZM328.079 219.6L328.039 232C328.038 232.234 328.083 232.465 328.171 232.682C328.259 232.898 328.389 233.095 328.554 233.262C328.718 233.428 328.914 233.56 329.129 233.651C329.344 233.741 329.576 233.789 329.809 233.79L335.299 233.81C336.546 233.815 337.782 233.617 338.935 233.228C340.088 232.839 341.137 232.266 342.021 231.543C342.905 230.819 343.607 229.959 344.087 229.012C344.568 228.064 344.816 227.047 344.819 226.02V225.7C344.826 223.627 343.833 221.635 342.059 220.163C340.285 218.691 337.875 217.859 335.359 217.85L329.869 217.83C329.636 217.829 329.404 217.873 329.187 217.962C328.971 218.05 328.774 218.18 328.608 218.344C328.442 218.509 328.309 218.704 328.219 218.92C328.128 219.135 328.081 219.366 328.079 219.6ZM328.719 253.14C350.809 258.54 352.519 232.63 328.619 235.87C328.47 235.892 328.333 235.966 328.234 236.08C328.135 236.194 328.08 236.339 328.079 236.49V252.32C328.079 252.76 328.293 253.033 328.719 253.14Z" fill="black"/>
<path d="M236.39 224.66C249.71 236.44 236.38 244.94 225.88 249.23C200.44 259.61 167.52 260.51 144.4 243.64C139.16 239.82 135.46 233.82 138.86 227.2C138.958 227.011 139.104 226.851 139.284 226.738C139.464 226.625 139.671 226.561 139.884 226.554C140.097 226.547 140.308 226.596 140.495 226.697C140.682 226.799 140.839 226.948 140.95 227.13C147.4 237.89 166.01 240.8 177.27 241.45C185.8 241.95 220.48 242.11 219.92 228.17C219.68 222.23 212.41 218.55 207.33 217.42C207.256 217.405 207.189 217.365 207.142 217.307C207.095 217.249 207.07 217.176 207.071 217.1C207.072 217.025 207.1 216.953 207.149 216.896C207.198 216.839 207.265 216.802 207.34 216.79C218.393 214.683 228.076 217.306 236.39 224.66Z" fill="#65A1DA"/>
<path d="M195.14 277.558C206.49 277.398 235.35 276.298 241.24 264.058C241.373 263.778 241.416 263.481 241.37 263.168C240.74 259.158 236.42 257.068 233 255.838C232.934 255.814 232.877 255.771 232.836 255.713C232.796 255.656 232.775 255.588 232.775 255.518C232.775 255.448 232.796 255.379 232.836 255.322C232.877 255.265 232.934 255.221 233 255.198C242.83 251.868 250.68 256.668 256.42 264.398C258.713 267.484 258.67 270.591 256.29 273.718C249.31 282.858 235.89 289.078 224.84 291.238C209.75 294.188 195.41 296.548 180.84 294.178C167.72 292.048 141.17 281.958 141.78 265.138C141.785 264.971 141.835 264.808 141.926 264.668C142.016 264.527 142.143 264.414 142.293 264.339C142.444 264.264 142.612 264.231 142.78 264.243C142.948 264.255 143.111 264.312 143.25 264.408C159.32 275.618 175.62 277.838 195.14 277.558Z" fill="#65A1DA"/>
<path d="M263.8 279.178L262.86 279.328C262.648 279.354 262.434 279.299 262.26 279.174C262.087 279.05 261.967 278.864 261.924 278.655C261.881 278.446 261.919 278.228 262.029 278.045C262.139 277.862 262.314 277.728 262.52 277.668C264.366 277.228 266.156 277.311 267.89 277.918C267.993 277.955 268.083 278.02 268.151 278.106C268.218 278.192 268.26 278.295 268.272 278.403C268.283 278.512 268.264 278.622 268.216 278.72C268.168 278.818 268.093 278.901 268 278.958C267.566 279.218 267.1 279.315 266.6 279.248C266.086 279.175 265.83 279.398 265.83 279.918V289.068C265.829 289.234 265.774 289.396 265.673 289.527C265.571 289.659 265.43 289.754 265.27 289.798C263.63 290.248 264.44 280.898 264.42 279.688C264.418 279.612 264.4 279.537 264.366 279.468C264.333 279.4 264.285 279.339 264.226 279.291C264.168 279.243 264.099 279.207 264.025 279.188C263.952 279.169 263.875 279.165 263.8 279.178Z" fill="black"/>
<path d="M278.39 288.218H280.61C280.712 288.212 280.815 288.226 280.912 288.26C281.008 288.294 281.098 288.346 281.174 288.415C281.251 288.483 281.313 288.565 281.358 288.658C281.403 288.75 281.429 288.85 281.435 288.953C281.44 289.055 281.426 289.158 281.392 289.255C281.359 289.352 281.306 289.441 281.238 289.518C281.17 289.594 281.087 289.657 280.995 289.701C280.902 289.746 280.802 289.772 280.7 289.778C279.473 289.931 278.246 289.941 277.02 289.808C276.56 289.761 276.33 289.505 276.33 289.038L276.34 278.268C276.34 277.928 276.506 277.731 276.84 277.678C278.286 277.451 279.723 277.495 281.15 277.808C281.253 277.828 281.348 277.877 281.423 277.95C281.499 278.022 281.552 278.116 281.576 278.219C281.6 278.322 281.594 278.43 281.56 278.531C281.525 278.632 281.462 278.721 281.38 278.788C280.7 279.321 279.866 279.431 278.88 279.118C278.7 279.059 278.504 279.068 278.328 279.143C278.152 279.218 278.007 279.355 277.92 279.528C277.46 280.428 277.406 281.361 277.76 282.328C277.79 282.414 277.838 282.492 277.9 282.559C277.963 282.626 278.038 282.679 278.123 282.715C278.207 282.752 278.298 282.771 278.39 282.771C278.483 282.772 278.574 282.754 278.66 282.718C279.413 282.391 280.16 282.405 280.9 282.758C281.054 282.835 281.179 282.961 281.253 283.117C281.327 283.273 281.347 283.449 281.309 283.618C281.271 283.786 281.177 283.937 281.043 284.046C280.909 284.155 280.742 284.215 280.57 284.218H278.35C278.255 284.218 278.161 284.237 278.073 284.274C277.986 284.311 277.907 284.365 277.84 284.433C277.774 284.501 277.722 284.582 277.688 284.67C277.653 284.758 277.637 284.853 277.64 284.948L277.69 287.528C277.696 287.988 277.93 288.218 278.39 288.218Z" fill="black"/>
<path d="M292.79 288.217H294.34C294.557 288.205 294.77 288.28 294.933 288.426C295.095 288.571 295.193 288.775 295.205 288.992C295.217 289.21 295.142 289.423 294.996 289.585C294.851 289.748 294.647 289.845 294.43 289.857C287.19 290.657 288.25 277.097 293.99 277.517C294.803 277.577 295.21 278.034 295.21 278.887C295.21 279.254 295.03 279.391 294.67 279.297C289.82 278.057 290.69 285.547 291.89 287.687C292.09 288.041 292.39 288.217 292.79 288.217Z" fill="black"/>
<path d="M304.4 284.949L304.45 289.089C304.451 289.205 304.42 289.319 304.361 289.418C304.303 289.518 304.218 289.6 304.116 289.655C304.015 289.711 303.9 289.738 303.785 289.733C303.669 289.728 303.557 289.693 303.46 289.629C302.82 289.209 302.85 278.009 303.65 277.719C303.763 277.68 303.885 277.669 304.003 277.689C304.122 277.71 304.233 277.76 304.327 277.834C304.421 277.909 304.494 278.007 304.54 278.118C304.586 278.229 304.603 278.35 304.59 278.469L304.24 281.929C304.232 282.017 304.241 282.105 304.269 282.188C304.296 282.271 304.34 282.348 304.398 282.414C304.456 282.48 304.527 282.533 304.607 282.57C304.686 282.607 304.772 282.627 304.86 282.629L307.03 282.679C307.49 282.693 307.697 282.469 307.65 282.009L307.28 278.149C307.27 278.034 307.292 277.919 307.342 277.815C307.392 277.711 307.469 277.622 307.564 277.559C307.66 277.495 307.77 277.459 307.884 277.454C307.997 277.449 308.11 277.475 308.21 277.529L308.62 277.749C308.927 277.916 309.08 278.173 309.08 278.519L309.07 289.049C309.07 289.376 308.913 289.583 308.6 289.669C306.54 290.249 307.39 285.689 307.55 284.779C307.562 284.721 307.56 284.661 307.546 284.603C307.532 284.545 307.506 284.49 307.469 284.444C307.431 284.397 307.385 284.359 307.331 284.332C307.278 284.306 307.219 284.291 307.16 284.289L305.17 284.209C305.069 284.205 304.969 284.221 304.875 284.257C304.781 284.292 304.695 284.346 304.623 284.416C304.551 284.485 304.494 284.568 304.456 284.66C304.417 284.752 304.398 284.85 304.4 284.949Z" fill="black"/>
<path d="M320.949 285.61C320.977 285.69 321.033 285.758 321.106 285.801C321.18 285.845 321.266 285.86 321.35 285.846C321.434 285.832 321.51 285.788 321.565 285.723C321.62 285.657 321.65 285.575 321.649 285.49L321.309 278.33C321.306 278.267 321.316 278.204 321.338 278.146C321.361 278.087 321.395 278.034 321.439 277.99L321.739 277.68C321.828 277.592 321.941 277.532 322.064 277.508C322.186 277.483 322.313 277.495 322.428 277.543C322.543 277.59 322.64 277.67 322.708 277.773C322.776 277.875 322.811 277.996 322.809 278.12L322.829 289.06C322.828 289.315 322.734 289.562 322.565 289.754C322.397 289.947 322.165 290.073 321.912 290.108C321.66 290.143 321.404 290.086 321.192 289.947C320.98 289.807 320.826 289.595 320.759 289.35L318.899 282.75C318.872 282.612 318.79 282.49 318.673 282.413C318.556 282.335 318.412 282.307 318.274 282.335C318.136 282.362 318.015 282.444 317.937 282.561C317.86 282.678 317.832 282.822 317.859 282.96C318.029 284.33 319.019 289.19 317.599 289.85C317.52 289.887 317.433 289.903 317.346 289.897C317.259 289.892 317.174 289.864 317.101 289.817C317.027 289.77 316.966 289.706 316.924 289.629C316.882 289.553 316.86 289.467 316.859 289.38L316.959 278.15C316.956 277.937 317.03 277.731 317.168 277.57C317.306 277.409 317.498 277.304 317.708 277.274C317.918 277.245 318.132 277.293 318.309 277.41C318.486 277.527 318.614 277.705 318.669 277.91L320.949 285.61Z" fill="black"/>
<path d="M333.401 289.998C332.539 289.984 331.723 289.306 331.132 288.114C330.541 286.921 330.224 285.311 330.25 283.637C330.263 282.809 330.36 281.99 330.535 281.227C330.711 280.464 330.961 279.772 331.272 279.191C331.583 278.61 331.948 278.151 332.348 277.84C332.747 277.529 333.172 277.372 333.599 277.379C334.461 277.393 335.277 278.07 335.868 279.263C336.458 280.456 336.776 282.066 336.749 283.739C336.736 284.568 336.639 285.387 336.464 286.15C336.289 286.913 336.038 287.605 335.727 288.186C335.416 288.767 335.051 289.226 334.652 289.537C334.252 289.848 333.827 290.004 333.401 289.998ZM333.471 288.578C333.71 288.581 333.948 288.46 334.172 288.222C334.396 287.984 334.601 287.633 334.775 287.191C334.95 286.748 335.09 286.222 335.189 285.642C335.287 285.062 335.342 284.44 335.35 283.811C335.357 283.182 335.318 282.558 335.233 281.976C335.149 281.394 335.021 280.864 334.858 280.417C334.694 279.97 334.498 279.615 334.28 279.372C334.062 279.128 333.827 279.002 333.588 278.999C333.349 278.996 333.111 279.117 332.887 279.355C332.664 279.593 332.459 279.943 332.284 280.386C332.11 280.829 331.969 281.355 331.871 281.935C331.772 282.515 331.717 283.137 331.71 283.766C331.702 284.395 331.742 285.019 331.826 285.601C331.91 286.183 332.038 286.713 332.201 287.159C332.365 287.606 332.561 287.961 332.779 288.205C332.997 288.448 333.232 288.575 333.471 288.578Z" fill="black"/>
<path d="M360.66 289.947C359.785 289.932 358.958 289.259 358.359 288.076C357.761 286.894 357.441 285.298 357.47 283.641C357.499 281.984 357.874 280.4 358.514 279.239C359.153 278.078 360.004 277.434 360.879 277.449C361.754 277.465 362.581 278.138 363.18 279.321C363.778 280.503 364.098 282.099 364.069 283.756C364.04 285.413 363.665 286.997 363.026 288.158C362.386 289.319 361.536 289.963 360.66 289.947ZM360.727 288.578C361.215 288.583 361.688 288.079 362.041 287.178C362.394 286.277 362.598 285.053 362.609 283.775C362.621 282.496 362.437 281.269 362.1 280.362C361.763 279.455 361.3 278.943 360.812 278.939C360.324 278.934 359.851 279.438 359.498 280.339C359.145 281.24 358.941 282.464 358.93 283.742C358.919 285.021 359.102 286.248 359.439 287.155C359.776 288.062 360.239 288.574 360.727 288.578Z" fill="black"/>
<path d="M375.99 287.538C376.463 285.998 376.033 284.911 374.7 284.278C374.547 284.208 374.421 284.09 374.341 283.943C374.26 283.795 374.23 283.626 374.253 283.46C374.277 283.293 374.353 283.139 374.472 283.02C374.59 282.901 374.743 282.823 374.91 282.798C378.61 282.188 377.68 286.068 377.49 288.388C377.47 288.649 377.394 288.903 377.268 289.133C377.142 289.362 376.968 289.563 376.758 289.721C376.548 289.879 376.307 289.99 376.051 290.048C375.794 290.107 375.528 290.11 375.27 290.058C369.23 288.828 370.46 276.768 375.96 277.678C376.78 277.811 377.336 278.205 377.63 278.858C377.684 278.97 377.7 279.097 377.677 279.22C377.653 279.342 377.591 279.454 377.499 279.538C377.407 279.622 377.29 279.675 377.166 279.687C377.042 279.7 376.917 279.672 376.81 279.608C371.88 276.708 372.74 285.598 373.5 287.618C373.598 287.873 373.774 288.091 374.002 288.242C374.23 288.393 374.5 288.469 374.773 288.461C375.046 288.452 375.31 288.358 375.528 288.193C375.746 288.028 375.907 287.799 375.99 287.538Z" fill="black"/>
<path d="M389.129 288.1L390.429 288.4C390.587 288.428 390.728 288.514 390.825 288.641C390.922 288.768 390.968 288.926 390.954 289.086C390.941 289.245 390.868 289.393 390.75 289.501C390.633 289.609 390.479 289.67 390.319 289.67L385.919 289.89C385.811 289.895 385.702 289.874 385.603 289.829C385.504 289.783 385.418 289.714 385.352 289.629C385.286 289.543 385.242 289.443 385.224 289.337C385.207 289.231 385.215 289.122 385.25 289.02C385.503 288.227 386.066 287.964 386.939 288.23C387.012 288.25 387.087 288.252 387.16 288.236C387.234 288.22 387.302 288.187 387.359 288.138C387.416 288.09 387.46 288.029 387.488 287.959C387.516 287.89 387.527 287.815 387.519 287.74C387.259 285.374 387.263 283.07 387.53 280.83C387.66 279.73 387.3 278.98 386.06 279.24C385.982 279.256 385.902 279.257 385.824 279.242C385.747 279.227 385.673 279.197 385.607 279.153C385.541 279.109 385.484 279.053 385.44 278.987C385.396 278.922 385.365 278.848 385.349 278.77C384.929 276.83 389.279 277.58 390.159 277.77C390.309 277.803 390.443 277.885 390.54 278.004C390.636 278.124 390.689 278.272 390.689 278.425C390.689 278.579 390.636 278.727 390.54 278.846C390.443 278.966 390.309 279.048 390.159 279.08L389.099 279.33C388.653 279.437 388.463 279.717 388.53 280.17C388.87 282.604 388.919 285.04 388.679 287.48C388.639 287.82 388.789 288.027 389.129 288.1Z" fill="black"/>
<path d="M400.05 277.698C401.51 277.311 402.91 277.441 404.25 278.088C404.334 278.129 404.404 278.193 404.453 278.273C404.502 278.353 404.527 278.445 404.525 278.539C404.523 278.633 404.494 278.724 404.441 278.801C404.389 278.879 404.316 278.94 404.23 278.977C403.47 279.297 402.67 279.351 401.83 279.137C401.403 279.031 401.1 279.174 400.92 279.567C400.506 280.461 400.446 281.377 400.74 282.317C400.767 282.407 400.813 282.49 400.875 282.56C400.936 282.63 401.012 282.687 401.097 282.725C401.182 282.764 401.275 282.784 401.368 282.785C401.462 282.785 401.554 282.766 401.64 282.727C402.4 282.387 403.153 282.411 403.9 282.797C404.051 282.873 404.172 282.998 404.243 283.152C404.314 283.305 404.331 283.478 404.292 283.642C404.253 283.807 404.159 283.953 404.026 284.057C403.893 284.162 403.729 284.218 403.56 284.217H401.36C401.171 284.217 400.991 284.293 400.858 284.428C400.724 284.563 400.65 284.747 400.65 284.937V287.497C400.65 287.977 400.886 288.217 401.36 288.217H403.6C403.791 288.211 403.978 288.275 404.125 288.399C404.271 288.523 404.366 288.697 404.391 288.887C404.416 289.077 404.369 289.269 404.26 289.426C404.15 289.584 403.986 289.695 403.8 289.737C402.52 290.077 401.236 290.097 399.95 289.797C399.536 289.697 399.33 289.438 399.33 289.018V278.628C399.33 278.128 399.57 277.818 400.05 277.698Z" fill="black"/>
<path d="M416.77 287.479C416.957 285.746 416.203 284.599 414.51 284.039C414.185 283.935 413.904 283.724 413.71 283.439C410.98 279.449 415.57 275.299 417.75 278.479C417.821 278.581 417.855 278.704 417.849 278.828C417.842 278.952 417.794 279.071 417.713 279.164C417.631 279.258 417.521 279.323 417.399 279.347C417.278 279.371 417.151 279.355 417.04 279.299C416.007 278.793 415.077 278.986 414.25 279.879C414.05 280.097 413.91 280.363 413.845 280.651C413.78 280.939 413.792 281.239 413.879 281.521C413.966 281.803 414.125 282.058 414.341 282.259C414.557 282.461 414.822 282.602 415.11 282.669C418.05 283.349 419.42 287.299 417.07 289.309C416.23 290.039 413.05 290.499 412.69 288.979C412.671 288.897 412.67 288.811 412.688 288.728C412.706 288.646 412.742 288.568 412.794 288.501C412.845 288.434 412.911 288.379 412.987 288.341C413.062 288.303 413.145 288.281 413.23 288.279L415.96 288.219C416.162 288.216 416.355 288.138 416.505 288.002C416.654 287.866 416.748 287.68 416.77 287.479Z" fill="black"/>
<path d="M345.04 278.129C345.04 277.756 345.223 277.609 345.59 277.689C346.53 277.879 346.06 286.389 346.16 287.789C346.193 288.216 346.416 288.386 346.83 288.299C347.743 288.112 348.5 288.092 349.1 288.239C349.3 288.294 349.474 288.419 349.59 288.592C349.705 288.765 349.754 288.974 349.727 289.18C349.7 289.386 349.6 289.576 349.444 289.714C349.288 289.851 349.088 289.928 348.88 289.929L345.98 289.869C345.735 289.861 345.504 289.759 345.334 289.583C345.164 289.408 345.069 289.173 345.07 288.929L345.04 278.129Z" fill="black"/>
<path d="M278.269 301.658C278.336 301.585 278.406 301.515 278.479 301.448C278.546 301.382 278.579 301.302 278.579 301.208V295.988C278.579 295.675 278.736 295.502 279.049 295.468C280.309 295.318 279.849 304.598 279.889 305.668C279.892 305.91 279.807 306.144 279.65 306.328C279.493 306.512 279.275 306.632 279.036 306.668C278.797 306.703 278.553 306.651 278.35 306.52C278.146 306.39 277.997 306.19 277.929 305.958L276.459 300.368C276.438 300.279 276.385 300.2 276.309 300.148C276.233 300.095 276.14 300.073 276.049 300.086C275.957 300.098 275.874 300.144 275.815 300.215C275.756 300.286 275.725 300.376 275.729 300.468C275.729 301.548 276.489 306.498 275.309 306.818C275.222 306.841 275.131 306.844 275.043 306.825C274.955 306.807 274.872 306.768 274.8 306.712C274.729 306.656 274.671 306.584 274.631 306.502C274.591 306.42 274.57 306.33 274.569 306.238C274.583 302.852 274.586 299.468 274.579 296.088C274.58 295.905 274.641 295.728 274.753 295.583C274.865 295.438 275.022 295.335 275.199 295.288C276.899 294.828 277.689 300.448 277.869 301.538C277.923 301.838 278.056 301.878 278.269 301.658Z" fill="black"/>
<path d="M329.22 301.479C329.3 301.479 329.386 301.463 329.48 301.429C329.526 301.416 329.55 301.383 329.55 301.329C329.59 299.503 329.596 297.669 329.57 295.829C329.57 295.643 329.66 295.519 329.84 295.459C329.92 295.433 330.003 295.383 330.09 295.309C330.154 295.248 330.236 295.207 330.324 295.192C330.412 295.177 330.502 295.188 330.584 295.225C330.665 295.261 330.734 295.321 330.781 295.397C330.829 295.472 330.852 295.56 330.85 295.649C330.783 299.083 330.803 302.523 330.91 305.969C330.914 306.197 330.836 306.418 330.691 306.592C330.545 306.766 330.341 306.882 330.116 306.917C329.892 306.953 329.662 306.906 329.469 306.785C329.277 306.664 329.135 306.477 329.07 306.259L327.47 300.609C327.461 300.578 327.445 300.549 327.424 300.524C327.404 300.498 327.378 300.478 327.349 300.463C327.32 300.448 327.288 300.439 327.256 300.437C327.223 300.434 327.19 300.439 327.16 300.449C327.053 300.483 326.943 300.516 326.83 300.549C326.756 300.576 326.723 300.626 326.73 300.699C326.843 302.566 326.92 304.426 326.96 306.279C326.961 306.341 326.95 306.402 326.927 306.458C326.903 306.515 326.868 306.566 326.824 306.608C326.78 306.651 326.727 306.683 326.67 306.704C326.612 306.725 326.551 306.734 326.49 306.729L326.08 306.689C325.746 306.669 325.58 306.493 325.58 306.159L325.59 295.819C325.595 295.611 325.674 295.411 325.813 295.255C325.951 295.1 326.141 294.998 326.348 294.969C326.554 294.941 326.764 294.986 326.941 295.098C327.117 295.21 327.248 295.38 327.31 295.579L329 301.319C329.013 301.368 329.043 301.411 329.083 301.44C329.123 301.469 329.171 301.483 329.22 301.479Z" fill="black"/>
<path d="M354.32 297.849L354.36 306.019C354.359 306.124 354.335 306.228 354.288 306.321C354.241 306.415 354.173 306.496 354.09 306.559L353.74 306.819C353.677 306.862 353.604 306.888 353.527 306.893C353.451 306.898 353.375 306.882 353.307 306.847C353.239 306.812 353.182 306.76 353.142 306.695C353.102 306.63 353.08 306.555 353.08 306.479V297.849C353.08 297.429 352.87 297.219 352.45 297.219H351.58C351.246 297.219 351.08 297.052 351.08 296.719V296.119C351.08 295.719 351.28 295.515 351.68 295.509L355.63 295.399C355.792 295.395 355.954 295.428 356.104 295.493C356.255 295.559 356.389 295.656 356.5 295.779C356.813 296.139 356.773 296.549 356.38 297.009C356.323 297.075 356.254 297.128 356.176 297.164C356.098 297.2 356.014 297.219 355.93 297.219H354.95C354.523 297.219 354.313 297.429 354.32 297.849Z" fill="black"/>
<path d="M393.16 301.98C393.26 301.986 393.373 301.97 393.5 301.93C393.525 301.925 393.547 301.91 393.562 301.888C393.577 301.866 393.583 301.838 393.58 301.81C393.54 300.98 392.97 295.64 393.51 295.36C393.619 295.303 393.742 295.276 393.865 295.28C393.989 295.285 394.109 295.321 394.214 295.385C394.32 295.449 394.407 295.54 394.467 295.647C394.528 295.755 394.56 295.876 394.56 296C394.57 297.05 394.8 306.57 394.26 306.79C394.088 306.859 393.902 306.886 393.715 306.869C393.528 306.852 393.345 306.79 393.179 306.689C393.012 306.588 392.866 306.45 392.75 306.284C392.634 306.119 392.552 305.929 392.51 305.73L391.37 300.39C391.203 299.616 391.023 299.613 390.83 300.38C390.52 301.6 391.22 307.02 389.75 306.7C389.47 306.64 389.33 306.466 389.33 306.18V296.15C389.33 295.922 389.412 295.701 389.561 295.528C389.711 295.354 389.917 295.24 390.142 295.206C390.367 295.172 390.595 295.22 390.786 295.342C390.977 295.464 391.117 295.652 391.18 295.87L392.96 301.83C392.993 301.93 393.06 301.98 393.16 301.98Z" fill="black"/>
<path d="M405.409 304.468L403.889 304.538C403.483 304.551 403.296 304.761 403.329 305.168C403.376 305.855 403.153 306.365 402.659 306.698C402.555 306.767 402.432 306.803 402.307 306.802C402.182 306.802 402.059 306.765 401.955 306.696C401.851 306.627 401.769 306.528 401.72 306.413C401.671 306.298 401.657 306.171 401.679 306.048L403.719 295.648C403.739 295.549 403.783 295.457 403.845 295.378C403.908 295.299 403.988 295.237 404.079 295.196C404.171 295.155 404.27 295.136 404.369 295.142C404.468 295.147 404.564 295.177 404.649 295.228L405.339 295.638C405.679 295.838 405.886 296.131 405.959 296.518L407.769 305.948C407.804 306.121 407.78 306.301 407.702 306.46C407.624 306.618 407.495 306.746 407.336 306.824C407.178 306.902 406.998 306.925 406.824 306.889C406.651 306.854 406.495 306.762 406.379 306.628C406.113 306.335 406.016 305.855 406.089 305.188C406.1 305.094 406.089 305 406.059 304.91C406.029 304.821 405.98 304.739 405.916 304.671C405.851 304.602 405.772 304.549 405.685 304.514C405.597 304.479 405.503 304.463 405.409 304.468ZM404.069 302.658L405.229 302.698C405.289 302.698 405.346 302.675 405.388 302.634C405.431 302.593 405.457 302.537 405.459 302.478L405.469 302.358C405.485 301.891 405.481 301.428 405.458 300.995C405.435 300.563 405.392 300.17 405.334 299.838C405.275 299.507 405.201 299.245 405.116 299.066C405.032 298.888 404.937 298.796 404.839 298.798H404.699C404.504 298.8 404.305 299.168 404.146 299.824C403.987 300.479 403.88 301.368 403.849 302.298L403.839 302.418C403.838 302.449 403.843 302.48 403.854 302.509C403.865 302.538 403.881 302.565 403.903 302.587C403.924 302.61 403.95 302.627 403.979 302.64C404.007 302.652 404.038 302.658 404.069 302.658Z" fill="black"/>
<path d="M419.54 305.028C419.946 305.048 420.136 305.261 420.11 305.668C420.03 307.238 416.83 306.738 415.85 306.738C415.503 306.738 415.33 306.564 415.33 306.218V296.078C415.33 295.838 415.43 295.658 415.63 295.538C417.57 294.338 416.84 303.508 416.86 304.448C416.862 304.575 416.913 304.697 417.002 304.788C417.092 304.879 417.212 304.933 417.34 304.938L419.54 305.028Z" fill="black"/>
<path d="M265.08 297.707V304.477C265.08 304.55 265.097 304.623 265.127 304.689C265.158 304.755 265.203 304.813 265.258 304.86C265.313 304.907 265.378 304.941 265.447 304.959C265.517 304.978 265.589 304.981 265.66 304.967C266.346 304.834 266.833 305.111 267.12 305.797C267.164 305.9 267.181 306.011 267.17 306.122C267.159 306.233 267.121 306.339 267.058 306.431C266.995 306.522 266.91 306.597 266.811 306.647C266.711 306.697 266.601 306.721 266.49 306.717L262.35 306.617C262.164 306.614 261.987 306.543 261.85 306.418C261.713 306.293 261.626 306.122 261.607 305.938C261.587 305.754 261.636 305.569 261.743 305.417C261.85 305.266 262.009 305.159 262.19 305.117L263.25 304.867C263.636 304.774 263.83 304.527 263.83 304.127V298.207C263.831 297.992 263.751 297.785 263.607 297.626C263.462 297.467 263.264 297.367 263.05 297.347C262.396 297.287 262.006 296.884 261.88 296.137C261.82 295.784 261.97 295.601 262.33 295.587L266.42 295.457C266.512 295.454 266.604 295.472 266.689 295.509C266.773 295.546 266.849 295.602 266.909 295.672C266.969 295.742 267.013 295.825 267.038 295.914C267.062 296.003 267.066 296.096 267.05 296.187C266.903 297.014 266.436 297.357 265.65 297.217C265.27 297.157 265.08 297.321 265.08 297.707Z" fill="black"/>
<path d="M290.61 297.679L290.57 306.349C290.57 306.595 290.446 306.719 290.2 306.719H289.83C289.496 306.719 289.33 306.552 289.33 306.219V297.779C289.33 297.641 289.277 297.508 289.182 297.407C289.087 297.307 288.958 297.246 288.82 297.239L287.93 297.199C287.53 297.179 287.33 296.969 287.33 296.569V295.969C287.33 295.635 287.496 295.469 287.83 295.469H292.12C292.322 295.47 292.517 295.542 292.672 295.672C292.826 295.802 292.931 295.982 292.968 296.181C293.004 296.38 292.971 296.585 292.873 296.761C292.774 296.938 292.618 297.075 292.43 297.149C292.07 297.282 291.68 297.292 291.26 297.179C291.184 297.157 291.104 297.154 291.027 297.169C290.95 297.184 290.877 297.217 290.814 297.265C290.751 297.314 290.7 297.376 290.664 297.448C290.629 297.52 290.61 297.599 290.61 297.679Z" fill="black"/>
<path d="M302.08 297.719V299.709C302.08 299.794 302.1 299.878 302.138 299.955C302.176 300.032 302.23 300.099 302.297 300.152C302.365 300.205 302.443 300.242 302.526 300.26C302.61 300.279 302.696 300.278 302.78 300.259C303.493 300.085 304.16 300.165 304.78 300.499C304.863 300.545 304.933 300.613 304.982 300.695C305.031 300.777 305.058 300.87 305.059 300.966C305.06 301.061 305.035 301.156 304.988 301.239C304.941 301.322 304.872 301.391 304.79 301.439C304.183 301.779 303.513 301.859 302.78 301.679C302.696 301.659 302.61 301.659 302.526 301.677C302.443 301.696 302.365 301.733 302.297 301.786C302.23 301.838 302.176 301.906 302.138 301.982C302.1 302.059 302.08 302.143 302.08 302.229V304.349C302.08 304.762 302.29 304.969 302.71 304.969H304.58C304.787 304.965 304.988 305.041 305.142 305.18C305.296 305.319 305.392 305.512 305.41 305.718C305.427 305.925 305.366 306.131 305.238 306.295C305.11 306.458 304.925 306.567 304.72 306.599C303.606 306.805 302.426 306.829 301.18 306.669C301.014 306.647 300.862 306.566 300.752 306.441C300.642 306.316 300.581 306.155 300.58 305.989V296.099C300.58 295.679 300.79 295.469 301.21 295.469H304.45C304.87 295.469 305.08 295.679 305.08 296.099V296.719C305.08 297.052 304.913 297.219 304.58 297.219H302.58C302.246 297.219 302.08 297.385 302.08 297.719Z" fill="black"/>
<path d="M315.53 302.439C315.499 302.32 315.427 302.216 315.326 302.146C315.224 302.077 315.102 302.046 314.98 302.059C313.85 302.189 314.51 305.649 314.36 306.479C314.331 306.637 314.245 306.779 314.117 306.876C313.989 306.973 313.829 307.019 313.669 307.004C313.509 306.989 313.361 306.914 313.254 306.795C313.146 306.675 313.088 306.52 313.09 306.359L313.08 296.209C313.08 296.061 313.13 295.916 313.222 295.799C313.315 295.681 313.444 295.597 313.59 295.559C317.36 294.579 319.22 297.969 317 300.869C316.793 301.129 316.743 301.419 316.85 301.739L318.27 306.149C318.376 306.482 318.256 306.662 317.91 306.689L317.29 306.739C317.11 306.754 316.932 306.703 316.785 306.597C316.639 306.491 316.534 306.336 316.49 306.159L315.53 302.439ZM314.37 297.339L314.35 300.159C314.35 300.239 314.381 300.315 314.437 300.371C314.494 300.428 314.57 300.459 314.65 300.459L314.95 300.469C315.315 300.471 315.667 300.315 315.928 300.033C316.189 299.752 316.337 299.369 316.34 298.969V298.569C316.341 298.371 316.307 298.174 316.239 297.99C316.171 297.806 316.07 297.639 315.943 297.498C315.816 297.357 315.664 297.244 315.497 297.167C315.33 297.09 315.151 297.05 314.97 297.049L314.67 297.039C314.59 297.039 314.514 297.071 314.457 297.127C314.401 297.183 314.37 297.26 314.37 297.339Z" fill="black"/>
<path d="M342.22 304.811C342.122 304.465 341.896 304.17 341.588 303.986C341.28 303.801 340.913 303.741 340.563 303.818C340.212 303.894 339.903 304.101 339.7 304.397C339.497 304.694 339.415 305.056 339.47 305.411C339.556 305.984 339.393 306.404 338.98 306.671C338.866 306.743 338.734 306.781 338.599 306.78C338.464 306.778 338.333 306.737 338.221 306.661C338.109 306.586 338.022 306.479 337.97 306.355C337.919 306.23 337.904 306.093 337.93 305.961L339.82 296.321C339.872 296.045 340.019 295.797 340.235 295.618C340.451 295.44 340.723 295.343 341.004 295.344C341.284 295.345 341.555 295.444 341.77 295.625C341.985 295.805 342.13 296.055 342.18 296.331L344.06 306.131C344.126 306.484 343.98 306.671 343.62 306.691L342.87 306.731C342.788 306.735 342.706 306.721 342.631 306.689C342.555 306.657 342.488 306.609 342.434 306.547C342.38 306.485 342.341 306.412 342.319 306.333C342.298 306.254 342.294 306.171 342.31 306.091C342.376 305.684 342.346 305.257 342.22 304.811ZM340.63 299.551L340.05 301.861C340.024 301.962 340.022 302.069 340.044 302.171C340.066 302.274 340.112 302.371 340.177 302.454C340.243 302.537 340.327 302.604 340.422 302.65C340.518 302.696 340.623 302.72 340.73 302.721H341.17C341.556 302.721 341.736 302.527 341.71 302.141L341.53 299.421C341.516 299.287 341.443 299.221 341.31 299.221C341.216 299.221 341.126 299.221 341.04 299.221C340.945 299.224 340.854 299.258 340.78 299.318C340.706 299.377 340.653 299.459 340.63 299.551Z" fill="black"/>
<path d="M367.08 297.697V304.477C367.08 304.55 367.096 304.622 367.127 304.688C367.158 304.755 367.203 304.813 367.258 304.86C367.313 304.907 367.378 304.94 367.447 304.959C367.517 304.977 367.589 304.98 367.66 304.967C368.346 304.834 368.833 305.11 369.12 305.797C369.163 305.896 369.18 306.004 369.17 306.112C369.16 306.219 369.123 306.323 369.063 306.413C369.002 306.503 368.92 306.577 368.824 306.629C368.727 306.68 368.619 306.707 368.51 306.707L364.38 306.657C364.188 306.656 364.004 306.584 363.863 306.456C363.721 306.328 363.631 306.153 363.61 305.963C363.589 305.773 363.638 305.582 363.749 305.426C363.859 305.27 364.023 305.16 364.21 305.117L365.25 304.867C365.636 304.774 365.83 304.527 365.83 304.127V297.927C365.83 297.54 365.636 297.344 365.25 297.337C364.55 297.33 364.103 297.007 363.91 296.367C363.879 296.261 363.873 296.15 363.892 296.041C363.912 295.933 363.956 295.83 364.022 295.742C364.088 295.654 364.174 295.582 364.272 295.533C364.371 295.483 364.479 295.457 364.59 295.457L368.39 295.477C368.896 295.484 369.103 295.734 369.01 296.227C368.85 297.06 368.406 297.394 367.68 297.227C367.28 297.134 367.08 297.29 367.08 297.697Z" fill="black"/>
<path d="M379.137 307.018C378.333 307.005 377.572 306.371 377.021 305.256C376.471 304.141 376.175 302.635 376.2 301.071C376.212 300.296 376.302 299.53 376.466 298.817C376.629 298.103 376.863 297.457 377.153 296.913C377.442 296.37 377.783 295.94 378.156 295.65C378.528 295.359 378.924 295.213 379.322 295.219C380.125 295.232 380.886 295.865 381.437 296.981C381.988 298.096 382.283 299.601 382.259 301.166C382.247 301.941 382.156 302.706 381.993 303.42C381.829 304.133 381.596 304.78 381.306 305.323C381.016 305.867 380.675 306.296 380.303 306.587C379.931 306.877 379.534 307.024 379.137 307.018ZM379.232 305.058C379.638 305.059 380.028 304.642 380.316 303.9C380.604 303.158 380.767 302.151 380.769 301.101C380.77 300.581 380.731 300.066 380.655 299.585C380.579 299.105 380.467 298.668 380.326 298.3C380.185 297.932 380.016 297.64 379.831 297.441C379.646 297.241 379.447 297.139 379.246 297.138C378.84 297.138 378.451 297.554 378.162 298.296C377.874 299.038 377.711 300.045 377.709 301.096C377.708 301.616 377.747 302.131 377.823 302.611C377.899 303.092 378.011 303.529 378.153 303.896C378.294 304.264 378.462 304.556 378.647 304.756C378.833 304.955 379.031 305.058 379.232 305.058Z" fill="black"/>
</svg>
