<svg width="500" height="500" viewBox="0 0 500 500" fill="none" xmlns="http://www.w3.org/2000/svg">
<rect width="500" height="500" fill="#F0F0F0"/>
<path d="M407.497 142.086C405.434 141.005 402.992 140.717 400.7 141.285C398.409 141.853 396.452 143.232 395.254 145.122L323.693 259.168L252.155 145.122V145.086C252.019 144.87 251.871 144.66 251.712 144.458L251.666 144.402C251.505 144.19 251.321 143.985 251.138 143.787C250.953 143.591 250.756 143.405 250.548 143.23H250.51C250.317 143.065 250.116 142.91 249.906 142.764L249.829 142.707C249.63 142.573 249.431 142.446 249.225 142.326L249.087 142.248C249.026 142.248 248.972 142.171 248.903 142.135C248.834 142.1 248.62 142.001 248.475 141.938L248.314 141.86C248.1 141.768 247.886 141.684 247.664 141.606L247.511 141.549C247.296 141.479 247.074 141.408 246.845 141.352L246.677 141.309C246.462 141.258 246.248 141.215 246.034 141.182L245.797 141.147L245.223 141.076H244.878H243.952H243.608L243.034 141.147L242.797 141.182C242.583 141.215 242.369 141.258 242.154 141.309L241.978 141.352C241.756 141.415 241.542 141.472 241.32 141.549L241.16 141.606C240.945 141.684 240.731 141.768 240.524 141.86L240.348 141.938L239.928 142.135L239.744 142.241L239.606 142.326C239.4 142.446 239.193 142.573 239.002 142.707L238.94 142.75C238.009 143.406 237.229 144.226 236.645 145.164L157.195 271.671C156.607 272.608 156.226 273.644 156.074 274.718C155.923 275.792 156.003 276.883 156.311 277.928C156.62 278.973 157.149 279.952 157.869 280.807C158.59 281.662 159.487 282.377 160.508 282.911C162.57 283.993 165.01 284.283 167.302 283.717C169.593 283.152 171.551 281.776 172.751 279.889L244.343 165.758L315.291 278.865C315.933 280.313 317.007 281.564 318.389 282.471C319.771 283.378 321.403 283.905 323.096 283.991H323.663H324.229C325.941 283.903 327.589 283.364 328.979 282.438C330.369 281.512 331.443 280.238 332.072 278.766L410.803 153.332C411.391 152.395 411.773 151.359 411.925 150.285C412.077 149.211 411.997 148.119 411.69 147.074C411.383 146.028 410.854 145.049 410.134 144.193C409.415 143.337 408.518 142.621 407.497 142.086Z" fill="#8DC63F"/>
<path d="M245.032 188L235 204.215L281.836 279.753C284.278 283.68 289.305 285.21 293.554 282.947C294.562 282.413 295.447 281.698 296.157 280.844C296.868 279.99 297.39 279.013 297.693 277.969C297.997 276.926 298.076 275.837 297.926 274.765C297.776 273.693 297.401 272.659 296.82 271.724L245.032 188Z" fill="#8DC63F"/>
<path d="M227.182 216L217 232.028L247.377 279.789C249.88 283.708 254.979 285.197 259.321 282.943C260.362 282.431 261.281 281.736 262.023 280.898C262.766 280.061 263.318 279.097 263.648 278.064C263.977 277.031 264.077 275.948 263.941 274.879C263.806 273.81 263.438 272.777 262.859 271.838L227.182 216Z" fill="#8DC63F"/>
<path d="M341.793 153.421C342.385 152.478 342.769 151.436 342.923 150.355C343.077 149.274 342.999 148.176 342.692 147.123C342.386 146.07 341.857 145.084 341.136 144.221C340.415 143.358 339.517 142.635 338.493 142.094C336.419 141.005 333.964 140.715 331.66 141.287C329.357 141.86 327.39 143.248 326.185 145.151L296 193.347L306.408 210L341.793 153.421Z" fill="#8DC63F"/>
<path d="M323.187 237L375.687 153.158C378.174 149.208 377.089 144.372 372.761 142.092C370.685 141.005 368.225 140.715 365.918 141.287C363.611 141.858 361.642 143.245 360.441 145.144L313 220.589L323.187 237Z" fill="#8DC63F"/>
<path d="M179.522 142.083C177.465 141.004 175.033 140.717 172.75 141.285C170.468 141.854 168.518 143.231 167.323 145.119L88.1907 271.669C87.6048 272.606 87.2253 273.642 87.0742 274.716C86.9231 275.79 87.0033 276.881 87.3103 277.926C87.6173 278.971 88.1449 279.949 88.8626 280.804C89.5804 281.66 90.4741 282.375 91.492 282.908C93.5456 283.992 95.978 284.283 98.2617 283.718C100.545 283.152 102.496 281.775 103.691 279.886L182.808 153.33C183.394 152.393 183.773 151.357 183.925 150.283C184.077 149.21 183.998 148.119 183.692 147.073C183.387 146.028 182.861 145.049 182.145 144.193C181.43 143.336 180.538 142.619 179.522 142.083Z" fill="#8DC63F"/>
<path d="M214.527 142.086C212.47 141.005 210.037 140.717 207.753 141.285C205.469 141.853 203.519 143.232 202.325 145.122L123.193 271.669C122.606 272.606 122.226 273.641 122.075 274.715C121.923 275.788 122.003 276.879 122.309 277.924C122.615 278.969 123.142 279.948 123.859 280.803C124.577 281.659 125.47 282.374 126.487 282.908C128.541 283.992 130.974 284.283 133.258 283.718C135.542 283.152 137.493 281.775 138.688 279.886L217.806 153.332C218.392 152.395 218.772 151.36 218.924 150.287C219.077 149.213 218.998 148.123 218.694 147.077C218.389 146.032 217.864 145.053 217.149 144.196C216.433 143.34 215.542 142.622 214.527 142.086Z" fill="#8DC63F"/>
<path d="M87 307H96.1432L126.285 342.954V307H136V359H127.725L96.7147 322.011V359H87V307Z" fill="#231F20"/>
<path d="M177.431 358.997C173.337 359.042 169.275 358.328 165.49 356.9C162.043 355.601 158.914 353.687 156.286 351.271C153.658 348.855 151.583 345.985 150.182 342.829C148.718 339.588 147.977 336.114 148.001 332.609V332.504C147.977 328.999 148.719 325.524 150.182 322.284C151.597 319.134 153.678 316.269 156.305 313.853C158.995 311.404 162.175 309.45 165.674 308.1C169.456 306.663 173.519 305.949 177.615 306.003C181.689 305.947 185.734 306.639 189.509 308.037C192.958 309.335 196.088 311.248 198.716 313.664C201.345 316.081 203.419 318.952 204.818 322.109C206.281 325.35 207.023 328.824 206.999 332.329V332.504C207.023 336.009 206.282 339.483 204.818 342.724C203.407 345.874 201.326 348.737 198.695 351.147C196.009 353.598 192.83 355.551 189.333 356.9C185.564 358.334 181.514 359.048 177.431 358.997ZM177.592 350.791C180.244 350.819 182.871 350.331 185.3 349.358C187.574 348.446 189.621 347.122 191.316 345.464C193.006 343.782 194.333 341.822 195.227 339.69C196.179 337.436 196.659 335.039 196.643 332.623V332.504C196.657 330.079 196.176 327.673 195.227 325.409C194.35 323.253 193.008 321.279 191.282 319.604C189.556 317.929 187.48 316.587 185.177 315.657C182.74 314.69 180.112 314.188 177.454 314.182C174.797 314.176 172.166 314.666 169.723 315.622C167.448 316.532 165.403 317.859 163.715 319.523C162.016 321.201 160.686 323.161 159.796 325.297C158.844 327.548 158.363 329.943 158.38 332.357V332.504C158.365 334.931 158.846 337.339 159.796 339.606C160.672 341.762 162.013 343.735 163.739 345.409C165.465 347.083 167.542 348.423 169.846 349.351C172.285 350.333 174.927 350.824 177.592 350.791Z" fill="#231F20"/>
<path d="M218.023 307.004H243.214C246.423 306.954 249.617 307.419 252.654 308.379C255.217 309.19 257.566 310.495 259.545 312.206C261.043 313.633 262.221 315.319 263.014 317.168C263.841 319.159 264.251 321.278 264.224 323.412V323.561C264.253 325.519 263.914 327.466 263.221 329.316C262.579 330.965 261.636 332.499 260.434 333.852C259.23 335.176 257.796 336.304 256.192 337.191C254.492 338.134 252.657 338.85 250.74 339.317L266 359H254.27L240.388 340.876H227.954V359H218L218.023 307.004ZM242.524 332.782C246.098 332.782 248.923 332.002 251 330.443C252.033 329.686 252.856 328.713 253.403 327.604C253.95 326.495 254.205 325.282 254.147 324.064V323.915C254.147 321.08 253.126 318.94 251.085 317.494C249.033 316.026 246.161 315.296 242.44 315.296H227.954V332.754L242.524 332.782Z" fill="#231F20"/>
<path d="M277 307H287.673L304.981 331.604L322.327 307.021H333V359H322.96V321.686L304.965 346.198H304.641L286.808 321.842V358.965H277V307Z" fill="#231F20"/>
</svg>
