<svg width="500" height="500" viewBox="0 0 500 500" fill="none" xmlns="http://www.w3.org/2000/svg">
<rect width="500" height="500" fill="#F0F0F0"/>
<path fill-rule="evenodd" clip-rule="evenodd" d="M0 0H500V500H0V0Z" fill="#FFEC00"/>
<path fill-rule="evenodd" clip-rule="evenodd" d="M149.075 196.223C158.882 196.223 166.834 204.109 166.834 213.837C166.834 223.566 158.882 231.453 149.075 231.453C139.267 231.453 131.315 223.566 131.315 213.837C131.315 204.109 139.267 196.223 149.075 196.223ZM149.075 185C165.132 185 178.149 197.912 178.149 213.837C178.149 229.765 165.132 242.676 149.075 242.676C133.017 242.676 120 229.765 120 213.837C120 197.912 133.017 185 149.075 185ZM238.677 241.881V217.51H254.636V207.425H238.677V195.88H257.68V185.795H227.036V241.881H238.677ZM198.387 241.881V217.51H214.346V207.425H198.387V195.88H217.389V185.795H186.746V241.881H198.387ZM266.803 185.795V241.88H278.442V185.795H266.803ZM348.709 185.795V241.88H379.366V231.795H360.377V217.509H379.366V207.425H360.377V195.88H379.366V185.795H348.709ZM316.64 185C325.967 185 334.266 189.354 339.585 196.127L330.958 203.416C327.726 199.054 322.517 196.223 316.64 196.223C306.831 196.223 298.879 204.109 298.879 213.837C298.879 223.566 306.831 231.453 316.64 231.453C322.517 231.453 327.726 228.622 330.958 224.261L339.585 231.549C334.266 238.32 325.967 242.676 316.64 242.676C300.582 242.676 287.565 229.765 287.565 213.837C287.565 197.912 300.582 185 316.64 185ZM248.324 259.113H333.624V269.197H248.324V259.113ZM248.324 282.119H333.624V292.203H248.324V282.119ZM248.324 305.124H333.624V315.209H248.324V305.124ZM126.783 259.123V315.208H155.812V305.122H138.423V259.123H126.783ZM165.459 259.123V315.208H177.099V259.123H165.459ZM227.038 295.093L198.385 259.123H186.746V315.198H198.387V276.36L227.104 315.208H238.677V259.113H227.038V295.093ZM378.149 266.495C372.388 259.988 364.877 256.345 356.23 259.373C350.581 261.346 346.623 265.916 346.581 272.003C346.659 278.615 350.005 283.065 355.15 286.915C358.847 289.715 364.669 292.946 367.126 296.777C369.224 300.009 368.667 304.048 364.994 305.763C359.725 308.261 354.529 304.16 351.909 299.851L343.272 304.803C347.309 311.792 353.511 315.96 361.756 316C366.601 315.977 371.524 314.824 375.176 311.493C378.521 308.472 379.974 304.399 380 299.975C379.92 293.509 376.36 288.947 371.376 285.163C367.803 282.417 361.901 279.13 359.301 275.689C357.486 273.247 357.568 269.556 360.647 268.234C364.684 266.569 368.227 269.593 370.787 272.379L378.149 266.495Z" fill="#1B1918"/>
</svg>
