<svg width="500" height="500" viewBox="0 0 500 500" fill="none" xmlns="http://www.w3.org/2000/svg">
<rect width="500" height="500" fill="#E5E5E5"/>
<path fill-rule="evenodd" clip-rule="evenodd" d="M0 0H500V500H0V0Z" fill="#F0F0F0"/>
<path d="M118.753 178.43H145.615C150.042 178.43 154.188 178.971 158.066 180.046C161.945 181.121 165.317 182.695 168.177 184.768C171.037 186.84 173.3 189.377 174.965 192.384C176.63 195.391 177.466 198.82 177.466 202.678C177.466 206.535 176.665 209.894 175.063 212.761C173.461 215.621 171.346 217.995 168.732 219.886C166.111 221.776 163.125 223.181 159.774 224.087C156.429 225.001 153.021 225.458 149.578 225.458C148.117 225.458 146.571 225.415 144.948 225.338C143.325 225.254 141.765 225.148 140.261 225.001C138.758 224.86 137.366 224.706 136.088 224.544C134.809 224.382 133.776 224.2 133.01 223.996V265.227H118.753V178.43ZM133.003 219.239C134.591 219.689 136.305 220.11 138.146 220.518C139.994 220.925 141.87 221.129 143.782 221.129C146.866 221.129 149.557 220.673 151.855 219.759C154.145 218.846 156.057 217.588 157.581 215.986C159.106 214.384 160.237 212.515 160.989 210.386C161.741 208.25 162.113 205.973 162.113 203.535C162.113 200.689 161.615 198.104 160.624 195.771C159.626 193.438 158.277 191.457 156.57 189.834C154.862 188.21 152.853 186.953 150.541 186.06C148.222 185.168 145.749 184.718 143.107 184.718H133.003V219.239Z" fill="#003B71"/>
<path d="M183.727 178.43H180.2L175.064 189.328C175.562 190.044 176.033 190.782 176.462 191.548C177.804 193.979 178.654 196.684 178.998 199.621L193.599 231.416H162.353L166.154 223.357C164.292 224.319 162.332 225.148 160.217 225.725C159.381 225.949 158.53 226.069 157.68 226.237L139.327 265.213H146.452L159.851 236.897H196.213L209.184 265.213H223.679L183.727 178.43Z" fill="#003B71"/>
<path d="M330.741 178.43H327.206L289.728 258.025H296.866L306.858 236.897H343.22L356.19 265.213H370.686L330.741 178.43ZM309.359 231.416L325.197 197.858L340.606 231.416H309.359Z" fill="#003B71"/>
<path d="M118.753 322.022V296.727H129.37H130.333C133.186 296.727 135.132 297.275 136.172 298.378C137.212 299.481 137.732 301.533 137.732 304.547C137.732 307.435 137.191 309.409 136.109 310.456C135.027 311.51 132.996 312.03 130.024 312.03L128.914 312.051H121.606V322.022H118.753ZM121.606 309.641H128.373C131.204 309.641 133.017 309.353 133.811 308.77C134.605 308.187 135.006 306.852 135.006 304.765C135.006 302.32 134.739 300.774 134.197 300.12C133.663 299.474 132.385 299.151 130.368 299.151L129.279 299.13H121.606V309.641Z" fill="#00AEEF"/>
<path d="M143.599 296.727V306.493L143.655 306.528C144.308 304.87 146.135 304.048 149.142 304.048C153.59 304.048 155.811 306.023 155.811 309.978V310.702V322.022H153.218V310.702V310.203C153.218 307.533 151.855 306.198 149.121 306.198C146.922 306.198 145.454 306.592 144.709 307.379C143.964 308.166 143.599 309.725 143.599 312.058V322.029H141.006V296.734H143.599V296.727Z" fill="#00AEEF"/>
<path d="M163.224 309.269H160.652C160.652 307.203 161.116 305.819 162.05 305.109C162.985 304.399 164.805 304.041 167.524 304.041C170.475 304.041 172.47 304.477 173.51 305.348C174.55 306.219 175.07 307.877 175.07 310.323V322.015H172.477L172.681 320.103L172.625 320.082C171.634 321.537 169.632 322.268 166.603 322.268C162.127 322.268 159.893 320.469 159.893 316.871C159.893 314.735 160.392 313.26 161.397 312.445C162.394 311.63 164.207 311.222 166.828 311.222C169.941 311.222 171.81 311.833 172.421 313.056L172.477 313.035V310.885C172.477 308.861 172.196 307.547 171.641 306.95C171.086 306.353 169.864 306.051 167.988 306.051C164.798 306.051 163.21 306.95 163.21 308.735C163.21 308.84 163.21 309.016 163.224 309.269ZM167.39 313.253C165.402 313.253 164.109 313.463 163.505 313.885C162.907 314.307 162.605 315.206 162.605 316.59C162.605 318.024 162.9 318.972 163.498 319.436C164.095 319.9 165.296 320.132 167.109 320.132C170.77 320.132 172.597 319.021 172.597 316.794C172.597 315.396 172.238 314.461 171.529 313.976C170.826 313.499 169.442 313.253 167.39 313.253Z" fill="#00AEEF"/>
<path d="M180.122 304.31H182.715L182.455 306.348L182.511 306.404C183.537 304.738 185.23 303.902 187.584 303.902C190.845 303.902 192.475 305.582 192.475 308.94L192.454 310.163H189.896L189.952 309.72C189.987 309.249 190.008 308.933 190.008 308.779C190.008 306.966 189.018 306.052 187.043 306.052C184.155 306.052 182.708 307.837 182.708 311.407V322.023H180.115V304.31H180.122Z" fill="#00AEEF"/>
<path d="M194.99 304.309H197.583L197.527 306.979L197.583 307.035C198.581 305.047 200.513 304.049 203.366 304.049C206.366 304.049 208.193 305.04 208.832 307.035H208.91C210.02 305.047 212.057 304.049 215.008 304.049C219.182 304.049 221.269 306.178 221.269 310.443V322.022H218.676V310.197C218.676 308.644 218.395 307.583 217.84 307.028C217.285 306.473 216.238 306.192 214.692 306.192C212.641 306.192 211.249 306.578 210.519 307.351C209.788 308.124 209.43 309.6 209.43 311.771V322.015H206.837V310.436L206.802 309.621C206.802 307.337 205.495 306.192 202.888 306.192C199.354 306.192 197.59 308.11 197.59 311.954V322.015H194.997V304.309H194.99Z" fill="#00AEEF"/>
<path d="M229.033 309.269H226.461C226.461 307.203 226.925 305.819 227.86 305.109C228.794 304.399 230.614 304.041 233.333 304.041C236.284 304.041 238.28 304.477 239.32 305.348C240.36 306.219 240.88 307.877 240.88 310.323V322.015H238.287L238.491 320.103L238.435 320.082C237.444 321.537 235.441 322.268 232.413 322.268C227.937 322.268 225.703 320.469 225.703 316.871C225.703 314.735 226.202 313.26 227.206 312.445C228.204 311.63 230.017 311.222 232.638 311.222C235.75 311.222 237.619 311.833 238.231 313.056L238.287 313.035V310.885C238.287 308.861 238.006 307.547 237.451 306.95C236.896 306.353 235.673 306.051 233.797 306.051C230.607 306.051 229.019 306.95 229.019 308.735C229.012 308.84 229.019 309.016 229.033 309.269ZM233.2 313.253C231.211 313.253 229.918 313.463 229.314 313.885C228.717 314.307 228.415 315.206 228.415 316.59C228.415 318.024 228.71 318.972 229.307 319.436C229.904 319.9 231.106 320.132 232.919 320.132C236.58 320.132 238.406 319.021 238.406 316.794C238.406 315.396 238.048 314.461 237.338 313.976C236.636 313.499 235.252 313.253 233.2 313.253Z" fill="#00AEEF"/>
<path d="M257.848 315.628H260.441L260.462 316.59C260.462 320.384 257.982 322.282 253.014 322.282C249.831 322.282 247.723 321.684 246.697 320.483C245.672 319.281 245.159 316.815 245.159 313.07C245.159 309.564 245.679 307.182 246.726 305.924C247.773 304.673 249.754 304.041 252.684 304.041C255.565 304.041 257.525 304.463 258.579 305.313C259.626 306.156 260.153 307.751 260.153 310.084H257.56V309.62C257.56 308.25 257.223 307.336 256.541 306.88C255.86 306.423 254.511 306.191 252.48 306.191C250.527 306.191 249.276 306.627 248.721 307.491C248.166 308.355 247.885 310.295 247.885 313.309C247.885 316.246 248.201 318.122 248.841 318.923C249.473 319.724 250.963 320.124 253.295 320.124C255.27 320.124 256.527 319.865 257.054 319.338C257.581 318.818 257.848 317.581 257.848 315.628Z" fill="#00AEEF"/>
<path d="M276.398 316.668H279.047L279.061 317.315C279.061 319.156 278.499 320.441 277.382 321.179C276.265 321.917 274.304 322.282 271.501 322.282C268.241 322.282 266.097 321.685 265.079 320.491C264.06 319.296 263.547 316.795 263.547 312.979C263.547 309.445 264.06 307.07 265.086 305.862C266.112 304.653 268.114 304.049 271.107 304.049C274.368 304.049 276.504 304.576 277.515 305.623C278.527 306.677 279.033 308.883 279.033 312.256V313.647H266.287C266.287 316.436 266.582 318.221 267.187 318.987C267.784 319.753 269.182 320.139 271.381 320.139C273.468 320.139 274.824 319.957 275.45 319.591C276.075 319.226 276.384 318.439 276.384 317.23V316.668H276.398ZM276.398 311.623L276.384 310.787C276.384 308.869 276.068 307.625 275.436 307.056C274.81 306.48 273.447 306.192 271.36 306.192C269.259 306.192 267.896 306.529 267.271 307.204C266.646 307.878 266.336 309.354 266.336 311.623H276.398Z" fill="#00AEEF"/>
<path d="M297.597 304.309V322.022H295.004L295.194 319.703L295.138 319.647C294.238 321.404 292.306 322.282 289.355 322.282C285.216 322.282 283.144 320.216 283.144 316.092V304.309H285.736V316.092C285.736 317.701 286.003 318.769 286.53 319.317C287.064 319.858 288.104 320.132 289.664 320.132C291.702 320.132 293.1 319.725 293.859 318.917C294.618 318.108 294.997 316.619 294.997 314.462V304.309H297.597Z" fill="#00AEEF"/>
<path d="M311.79 304.31V306.46H304.967V317.302C304.967 319.192 305.81 320.14 307.49 320.14C309.155 320.14 309.991 319.297 309.991 317.604L310.005 316.733L310.04 315.749H312.45L312.465 317.063C312.465 320.548 310.806 322.291 307.497 322.291C304.075 322.291 302.368 320.836 302.368 317.934V317.302V306.46H299.922V304.31H302.368V300.045H304.96V304.31H311.79V304.31Z" fill="#00AEEF"/>
<path d="M317.355 296.727V299.635H314.762V296.727H317.355ZM317.355 304.308V322.022H314.762V304.308H317.355Z" fill="#00AEEF"/>
<path d="M334.064 315.628H336.657L336.678 316.59C336.678 320.384 334.198 322.282 329.23 322.282C326.047 322.282 323.939 321.684 322.913 320.483C321.887 319.281 321.375 316.815 321.375 313.07C321.375 309.564 321.894 307.182 322.941 305.924C323.988 304.673 325.97 304.041 328.9 304.041C331.781 304.041 333.741 304.463 334.795 305.313C335.842 306.156 336.369 307.751 336.369 310.084H333.776V309.62C333.776 308.25 333.439 307.336 332.757 306.88C332.076 306.423 330.727 306.191 328.696 306.191C326.743 306.191 325.492 306.627 324.937 307.491C324.382 308.355 324.101 310.295 324.101 313.309C324.101 316.246 324.417 318.122 325.056 318.923C325.689 319.724 327.178 320.124 329.511 320.124C331.486 320.124 332.743 319.865 333.27 319.338C333.804 318.818 334.064 317.581 334.064 315.628Z" fill="#00AEEF"/>
<path d="M343.002 309.269H340.43C340.43 307.203 340.894 305.819 341.828 305.109C342.763 304.399 344.583 304.041 347.302 304.041C350.253 304.041 352.248 304.477 353.288 305.348C354.328 306.219 354.848 307.877 354.848 310.323V322.015H352.248L352.452 320.103L352.396 320.082C351.405 321.537 349.403 322.268 346.374 322.268C341.898 322.268 339.664 320.469 339.664 316.871C339.664 314.735 340.163 313.26 341.168 312.445C342.165 311.63 343.978 311.222 346.599 311.222C349.712 311.222 351.581 311.833 352.192 313.056L352.248 313.035V310.885C352.248 308.861 351.967 307.547 351.412 306.95C350.857 306.353 349.635 306.051 347.758 306.051C344.568 306.051 342.981 306.95 342.981 308.735C342.981 308.84 342.988 309.016 343.002 309.269ZM347.168 313.253C345.18 313.253 343.887 313.463 343.283 313.885C342.685 314.307 342.383 315.206 342.383 316.59C342.383 318.024 342.678 318.972 343.276 319.436C343.873 319.9 345.074 320.132 346.887 320.132C350.548 320.132 352.375 319.021 352.375 316.794C352.375 315.396 352.017 314.461 351.307 313.976C350.597 313.499 349.22 313.253 347.168 313.253Z" fill="#00AEEF"/>
<path d="M362.233 296.727V322.022H359.64V296.727H362.233Z" fill="#00AEEF"/>
<path d="M380.53 308.938H377.937C377.937 307.701 377.684 306.936 377.185 306.64C376.686 306.345 375.4 306.198 373.32 306.198C371.395 306.198 370.173 306.352 369.653 306.669C369.133 306.985 368.873 307.744 368.873 308.938C368.873 310.751 369.744 311.706 371.487 311.791L373.58 311.903L376.229 312.037C379.44 312.198 381.05 313.878 381.05 317.075C381.05 319.063 380.516 320.426 379.455 321.171C378.394 321.916 376.447 322.281 373.616 322.281C370.714 322.281 368.711 321.93 367.622 321.227C366.533 320.525 365.985 319.232 365.985 317.356L366.006 316.393H368.69L368.711 317.229C368.711 318.389 369.006 319.169 369.603 319.555C370.194 319.941 371.36 320.138 373.103 320.138C375.239 320.138 376.644 319.934 377.318 319.527C377.993 319.119 378.33 318.269 378.33 316.969C378.33 315.1 377.487 314.173 375.794 314.173C371.852 314.173 369.259 313.842 368.016 313.175C366.772 312.507 366.154 311.123 366.154 309.022C366.154 307.034 366.645 305.706 367.629 305.045C368.613 304.385 370.566 304.055 373.496 304.055C378.19 304.055 380.537 305.467 380.537 308.299V308.938H380.53Z" fill="#00AEEF"/>
<path d="M380.235 285.823H294.821L282.736 269.781H327.002V259.741H284.31V254.611L267.981 271.96L278.323 285.823H118.753V288.015H381.246L380.235 285.823Z" fill="#003B71"/>
<path d="M261.931 275.437H253.26L285.743 241.457V250.135L261.931 275.437Z" fill="#00AEEF"/>
<path d="M271.985 253.571L284.31 240.678V178.438H270.06V251.013L248.264 222.1C251.349 221.369 254.173 220.322 256.731 218.966C259.289 217.61 261.481 216.001 263.308 214.153C265.135 212.305 266.547 210.239 267.545 207.941C268.543 205.644 269.034 203.178 269.034 200.543C269.034 197.339 268.381 194.38 267.088 191.682C265.781 188.984 263.856 186.651 261.298 184.677C258.748 182.71 255.544 181.178 251.707 180.082C247.871 178.986 243.388 178.438 238.273 178.438H208.923V227.131L223.173 258.089V223.378H233.157L262.837 263.134L271.985 253.571ZM240.254 217.835C237.549 218.685 234.598 219.113 231.394 219.113H223.173V183.728H235.715C238.315 183.728 240.711 184.157 242.903 185.007C245.095 185.857 246.985 187.045 248.566 188.57C250.154 190.087 251.384 191.914 252.283 194.05C253.183 196.186 253.625 198.505 253.625 201.02C253.625 203.782 253.063 206.283 251.946 208.511C250.829 210.745 249.276 212.642 247.288 214.209C245.299 215.776 242.959 216.984 240.254 217.835Z" fill="#003B71"/>
<path d="M363.533 178.43C364.734 178.43 365.908 178.739 367.053 179.357C368.198 179.975 369.091 180.861 369.73 182.006C370.369 183.158 370.686 184.353 370.686 185.604C370.686 186.84 370.369 188.028 369.744 189.166C369.112 190.304 368.233 191.19 367.095 191.822C365.957 192.454 364.769 192.764 363.533 192.764C362.296 192.764 361.102 192.447 359.97 191.822C358.832 191.19 357.947 190.304 357.314 189.166C356.682 188.028 356.366 186.84 356.366 185.604C356.366 184.36 356.689 183.158 357.328 182.006C357.968 180.861 358.867 179.975 360.012 179.357C361.158 178.739 362.331 178.43 363.533 178.43ZM363.533 179.617C362.528 179.617 361.544 179.877 360.596 180.39C359.64 180.91 358.895 181.648 358.361 182.603C357.82 183.559 357.553 184.564 357.553 185.597C357.553 186.63 357.82 187.62 358.347 188.562C358.874 189.51 359.612 190.248 360.56 190.775C361.509 191.302 362.5 191.569 363.533 191.569C364.566 191.569 365.556 191.302 366.505 190.775C367.453 190.248 368.191 189.51 368.718 188.562C369.245 187.613 369.505 186.63 369.505 185.597C369.505 184.557 369.238 183.559 368.704 182.603C368.17 181.648 367.425 180.91 366.47 180.39C365.507 179.877 364.53 179.617 363.533 179.617ZM360.385 189.56V181.845H363.034C363.94 181.845 364.594 181.915 365.001 182.055C365.409 182.196 365.732 182.449 365.971 182.8C366.21 183.158 366.329 183.531 366.329 183.931C366.329 184.493 366.125 184.985 365.725 185.4C365.324 185.821 364.79 186.053 364.123 186.103C364.397 186.215 364.615 186.355 364.776 186.51C365.086 186.812 365.465 187.325 365.915 188.035L366.856 189.545H365.338L364.657 188.33C364.116 187.374 363.687 186.777 363.357 186.538C363.125 186.363 362.795 186.271 362.359 186.271H361.629V189.545H360.385V189.56ZM361.629 185.217H363.139C363.863 185.217 364.355 185.112 364.615 184.894C364.875 184.676 365.008 184.395 365.008 184.037C365.008 183.805 364.945 183.608 364.819 183.425C364.692 183.243 364.516 183.109 364.292 183.018C364.067 182.927 363.652 182.884 363.041 182.884H361.629V185.217V185.217Z" fill="#003B71"/>
</svg>
