<svg width="500" height="500" viewBox="0 0 500 500" fill="none" xmlns="http://www.w3.org/2000/svg">
<rect width="500" height="500" fill="#F0F0F0"/>
<g clip-path="url(#clip0_9163_11)">
<path opacity="0.776" fill-rule="evenodd" clip-rule="evenodd" d="M181.096 137.425C178.771 137.375 176.514 137.698 174.324 138.395C175.109 136.947 176.399 136.301 178.194 136.456C179.38 136.475 180.347 136.798 181.096 137.425Z" fill="#F47E7A"/>
<path fill-rule="evenodd" clip-rule="evenodd" d="M243.016 134.516C243.662 134.516 244.306 134.516 244.951 134.516C254.606 144.513 264.281 154.531 273.976 164.568C268.817 169.415 263.656 174.262 258.496 179.11C253.834 174.923 249.319 170.561 244.951 166.022C244.306 165.376 243.662 165.376 243.016 166.022C226.891 182.179 210.767 198.337 194.641 214.494C201.257 221.93 208.029 229.201 214.959 236.306C214.807 237.637 214.968 238.93 215.442 240.184C220.118 244.869 224.795 249.555 229.471 254.241C230.722 254.716 232.013 254.877 233.341 254.725C236.566 257.793 239.952 260.701 243.5 263.45C250.629 256.144 257.885 249.036 265.269 242.123C268.817 240.507 271.396 237.922 273.009 234.367C275.266 231.459 277.846 228.874 280.749 226.612C283.329 225.965 284.941 224.35 285.586 221.765C287.822 219.198 290.079 216.613 292.359 214.009C288.145 209.465 283.953 204.941 279.781 200.437C280.666 198.252 281.956 196.313 283.651 194.62C285.826 190.981 288.567 187.749 291.875 184.926C301.585 194.493 311.098 204.187 320.416 214.009C320.416 214.979 320.416 215.948 320.416 216.917C295.779 242.089 270.946 267.133 245.919 292.048C244.71 292.766 243.743 292.604 243.016 291.564C242.559 290.201 241.591 289.554 240.114 289.625C217.652 268.575 195.561 246.924 173.84 224.673C170.867 221.22 168.126 217.666 165.616 214.009C166.206 213.145 166.529 212.176 166.584 211.101C188.191 188.804 210.121 166.83 232.374 145.179C236.506 142.658 240.053 139.427 243.016 135.485C243.016 135.162 243.016 134.839 243.016 134.516Z" fill="#E62D2C"/>
<path fill-rule="evenodd" clip-rule="evenodd" d="M369.759 201.406C369.672 203.977 370.316 206.239 371.694 208.192C373.224 217.812 371.451 226.86 366.372 235.336C348.179 254.536 329.636 273.439 310.741 292.048C309.774 292.694 308.806 292.694 307.839 292.048C298.613 282.966 289.583 273.756 280.749 264.419C280.749 263.449 280.749 262.48 280.749 261.511C283.651 258.279 286.554 255.047 289.456 251.816C291.391 250.524 293.326 250.524 295.261 251.816C299.434 255.673 303.626 259.55 307.839 263.449C311.036 261.535 313.939 259.272 316.546 256.663C320.094 255.047 322.673 252.463 324.286 248.908C329.769 242.769 335.574 236.952 341.701 231.458C343.062 231 343.707 230.03 343.636 228.55C344.016 226.821 344.661 225.205 345.571 223.703C347.229 222.602 347.874 220.986 347.506 218.856C348.297 211.358 346.523 204.572 342.185 198.497C330.857 187.309 319.731 175.999 308.806 164.567C282.214 190.729 255.768 217.065 229.471 243.576C228.504 244.223 227.536 244.223 226.569 243.576C222.2 239.361 218.007 234.999 213.991 230.489C214.979 228.852 216.27 227.56 217.861 226.611C219.222 226.152 219.867 225.183 219.796 223.703C232.696 210.131 245.919 196.882 259.464 183.956C262.688 182.663 264.947 180.401 266.236 177.17C268.171 177.17 269.139 176.201 269.139 174.262C271.074 174.262 272.041 173.292 272.041 171.353C277.467 167.535 282.304 163.011 286.554 157.781C293.615 150.221 300.871 142.789 308.322 135.484C311.709 138.231 315.095 140.978 318.481 143.725C331.542 158.104 345.249 171.838 359.6 184.925C362.875 188.529 365.777 192.407 368.307 196.559C369.284 198.037 369.767 199.653 369.759 201.406Z" fill="#E62B2B"/>
<path fill-rule="evenodd" clip-rule="evenodd" d="M181.096 137.423C182.038 137.895 183.005 138.38 183.999 138.877C191.961 146.693 199.701 154.61 207.219 162.628C207.219 163.598 207.219 164.567 207.219 165.537C203.02 170.066 198.828 174.59 194.641 179.109C189.487 175.398 184.972 171.036 181.096 166.021C179.878 165.069 178.588 164.746 177.226 165.052C166.071 175.905 155.267 187.054 144.815 198.497C140.09 204.825 138.316 211.934 139.494 219.825C139.126 221.956 139.771 223.571 141.429 224.672C142.338 226.72 143.467 228.659 144.815 230.489C155.619 241.314 166.422 252.139 177.226 262.965C178.194 263.611 179.161 263.611 180.129 262.965C180.973 261.951 181.941 261.144 183.031 260.541C185.611 259.894 187.223 258.279 187.869 255.694C188.191 254.724 188.836 254.078 189.804 253.755C191.739 253.755 192.706 252.786 192.706 250.847C192.764 250.32 193.086 249.997 193.674 249.877C198.169 252.766 202.039 256.321 205.284 260.541C205.213 262.021 205.858 262.991 207.219 263.449C206.896 264.096 206.573 264.742 206.251 265.388C197.242 275.062 187.889 284.434 178.194 293.502C161.374 277.618 145.249 261.138 129.819 244.061C129.361 242.698 128.393 242.051 126.916 242.122C121.245 237.229 117.537 231.089 115.79 223.703C115.145 217.24 115.145 210.777 115.79 204.314C116.472 201.429 117.601 198.844 119.176 196.558C120.537 196.1 121.182 195.13 121.111 193.65C123.369 190.742 125.949 188.157 128.851 185.895C130.87 184.843 132.16 183.228 132.721 181.048C134.656 181.048 135.624 180.078 135.624 178.139C148.55 164.864 161.45 151.616 174.324 138.392C176.514 137.696 178.771 137.373 181.096 137.423Z" fill="#E62D2C"/>
<path opacity="0.914" fill-rule="evenodd" clip-rule="evenodd" d="M243.016 135.484C240.053 139.426 236.506 142.657 232.374 145.179C235.337 141.237 238.884 138.006 243.016 135.484Z" fill="#F36D64"/>
<path opacity="0.624" fill-rule="evenodd" clip-rule="evenodd" d="M286.554 157.781C282.304 163.011 277.467 167.535 272.041 171.353C276.291 166.124 281.128 161.6 286.554 157.781Z" fill="#F99794"/>
<path opacity="0.671" fill-rule="evenodd" clip-rule="evenodd" d="M207.219 162.629C209.799 163.598 209.799 164.568 207.219 165.537C207.219 164.568 207.219 163.598 207.219 162.629Z" fill="#FBA6A4"/>
<path opacity="0.71" fill-rule="evenodd" clip-rule="evenodd" d="M272.041 171.355C272.041 173.294 271.074 174.264 269.139 174.264C269.784 172.971 270.751 172.002 272.041 171.355Z" fill="#F98E89"/>
<path opacity="0.729" fill-rule="evenodd" clip-rule="evenodd" d="M269.139 174.262C269.139 176.201 268.171 177.17 266.236 177.17C266.882 175.877 267.849 174.908 269.139 174.262Z" fill="#F98F8A"/>
<path opacity="0.737" fill-rule="evenodd" clip-rule="evenodd" d="M135.624 178.141C135.624 180.079 134.656 181.049 132.721 181.049C133.366 179.756 134.334 178.787 135.624 178.141Z" fill="#F98E89"/>
<path opacity="0.753" fill-rule="evenodd" clip-rule="evenodd" d="M266.236 177.172C264.947 180.403 262.689 182.665 259.464 183.958C261.399 181.373 263.656 179.111 266.236 177.172Z" fill="#F88984"/>
<path opacity="0.643" fill-rule="evenodd" clip-rule="evenodd" d="M132.721 181.047C132.16 183.227 130.87 184.843 128.851 185.894C129.412 183.714 130.702 182.098 132.721 181.047Z" fill="#F99895"/>
<path opacity="0.365" fill-rule="evenodd" clip-rule="evenodd" d="M121.111 193.652C121.182 195.133 120.537 196.102 119.176 196.561C119.105 195.08 119.751 194.111 121.111 193.652Z" fill="#F9A5A3"/>
<path opacity="0.655" fill-rule="evenodd" clip-rule="evenodd" d="M283.651 194.621C281.956 196.314 280.666 198.252 279.781 200.438C278.865 197.413 280.156 195.474 283.651 194.621Z" fill="#FAA4A3"/>
<path opacity="0.624" fill-rule="evenodd" clip-rule="evenodd" d="M369.759 201.406C371.136 203.359 371.781 205.621 371.694 208.192C370.316 206.239 369.672 203.977 369.759 201.406Z" fill="#F48584"/>
<path opacity="0.216" fill-rule="evenodd" clip-rule="evenodd" d="M166.584 211.102C166.529 212.177 166.206 213.146 165.616 214.01C164.441 212.77 164.763 211.801 166.584 211.102Z" fill="#FAB4B3"/>
<path opacity="0.678" fill-rule="evenodd" clip-rule="evenodd" d="M320.416 214.008C322.997 214.977 322.997 215.947 320.416 216.916C320.416 215.947 320.416 214.977 320.416 214.008Z" fill="#FBA8A5"/>
<path opacity="0.812" fill-rule="evenodd" clip-rule="evenodd" d="M347.506 218.855C347.874 220.986 347.229 222.602 345.571 223.703C345.858 221.858 346.503 220.242 347.506 218.855Z" fill="#F79693"/>
<path opacity="0.812" fill-rule="evenodd" clip-rule="evenodd" d="M139.494 219.824C140.498 221.211 141.143 222.827 141.429 224.671C139.771 223.571 139.126 221.955 139.494 219.824Z" fill="#F79491"/>
<path opacity="0.69" fill-rule="evenodd" clip-rule="evenodd" d="M219.796 223.703C219.867 225.183 219.221 226.153 217.861 226.611C217.791 225.131 218.436 224.162 219.796 223.703Z" fill="#F99693"/>
<path opacity="0.8" fill-rule="evenodd" clip-rule="evenodd" d="M285.586 221.766C284.941 224.351 283.329 225.966 280.749 226.613C282.038 224.674 283.651 223.058 285.586 221.766Z" fill="#F7807A"/>
<path opacity="0.529" fill-rule="evenodd" clip-rule="evenodd" d="M343.636 228.551C343.707 230.031 343.062 231 341.701 231.459C341.631 229.979 342.276 229.009 343.636 228.551Z" fill="#F6908E"/>
<path opacity="0.784" fill-rule="evenodd" clip-rule="evenodd" d="M273.009 234.367C271.396 237.922 268.817 240.507 265.269 242.123C267.526 239.214 270.106 236.629 273.009 234.367Z" fill="#F67F78"/>
<path fill-rule="evenodd" clip-rule="evenodd" d="M214.959 236.305C221.409 242.121 227.536 248.261 233.341 254.724C232.013 254.876 230.722 254.714 229.471 254.239C224.795 249.554 220.118 244.868 215.443 240.182C214.968 238.929 214.807 237.636 214.959 236.305Z" fill="#EE5247"/>
<path opacity="0.663" fill-rule="evenodd" clip-rule="evenodd" d="M126.916 242.122C128.394 242.052 129.361 242.698 129.819 244.061C128.341 244.132 127.374 243.485 126.916 242.122Z" fill="#F99B99"/>
<path opacity="0.686" fill-rule="evenodd" clip-rule="evenodd" d="M295.261 251.818C293.326 250.526 291.391 250.526 289.456 251.818C291.391 247.941 293.326 247.941 295.261 251.818Z" fill="#FCA39F"/>
<path opacity="0.667" fill-rule="evenodd" clip-rule="evenodd" d="M192.706 250.848C192.706 252.787 191.739 253.756 189.804 253.756C190.449 252.464 191.417 251.494 192.706 250.848Z" fill="#FA9895"/>
<path opacity="0.843" fill-rule="evenodd" clip-rule="evenodd" d="M324.286 248.91C322.674 252.465 320.094 255.05 316.546 256.666C318.804 253.757 321.384 251.172 324.286 248.91Z" fill="#F5756C"/>
<path opacity="0.773" fill-rule="evenodd" clip-rule="evenodd" d="M187.869 255.695C187.223 258.281 185.612 259.896 183.031 260.542C184.321 258.604 185.934 256.988 187.869 255.695Z" fill="#F7827C"/>
<path opacity="0.427" fill-rule="evenodd" clip-rule="evenodd" d="M205.284 260.543C206.644 261.002 207.289 261.971 207.219 263.451C205.858 262.993 205.213 262.023 205.284 260.543Z" fill="#F89B99"/>
<path opacity="0.639" fill-rule="evenodd" clip-rule="evenodd" d="M280.749 261.512C280.749 262.481 280.749 263.451 280.749 264.42C278.168 263.451 278.168 262.481 280.749 261.512Z" fill="#FBAAA8"/>
<path opacity="0.01" fill-rule="evenodd" clip-rule="evenodd" d="M207.219 263.449C208.435 264.538 208.113 265.184 206.251 265.388C206.573 264.741 206.897 264.096 207.219 263.449Z" fill="#FEE4E4"/>
<path opacity="0.714" fill-rule="evenodd" clip-rule="evenodd" d="M240.114 289.626C241.591 289.556 242.559 290.202 243.016 291.565C241.539 291.636 240.571 290.989 240.114 289.626Z" fill="#F99693"/>
<path opacity="0.893" fill-rule="evenodd" clip-rule="evenodd" d="M264.301 309.982C259.464 309.982 254.626 309.982 249.789 309.982C254.626 307.397 259.464 307.397 264.301 309.982Z" fill="#F57E77"/>
<path opacity="0.999" fill-rule="evenodd" clip-rule="evenodd" d="M356.214 307.073C361.248 305.802 364.472 307.579 365.889 312.405C363.199 318.692 359.167 319.823 353.795 315.798C351.778 312.09 352.584 309.182 356.214 307.073Z" fill="#EC493F"/>
<path opacity="0.836" fill-rule="evenodd" clip-rule="evenodd" d="M49.5164 309.011C56.791 308.696 63.8861 309.019 70.8014 309.981C64.0289 309.981 57.2564 309.981 50.4839 309.981C50.4839 324.845 50.4839 339.71 50.4839 354.575C53.3864 354.575 56.2889 354.575 59.1914 354.575C58.8813 349.538 59.2038 344.691 60.1589 340.033C60.1589 345.203 60.1589 350.374 60.1589 355.544C56.6114 355.544 53.0639 355.544 49.5164 355.544C49.5164 340.033 49.5164 324.522 49.5164 309.011Z" fill="#F0615D"/>
<path fill-rule="evenodd" clip-rule="evenodd" d="M70.8011 309.984C74.3465 309.986 77.249 311.279 79.5086 313.862C79.438 315.342 80.083 316.312 81.4436 316.77C85.9266 327.989 82.3791 335.582 70.8011 339.552C67.2682 340.036 63.7207 340.197 60.1586 340.037C59.2036 344.695 58.881 349.542 59.1911 354.578C56.2886 354.578 53.3861 354.578 50.4836 354.578C50.4836 339.714 50.4836 324.849 50.4836 309.984C57.2561 309.984 64.0286 309.984 70.8011 309.984ZM68.8661 330.342C66.0315 331.117 63.129 331.44 60.1586 331.312C60.1586 327.111 60.1586 322.91 60.1586 318.709C63.0789 318.549 65.9814 318.711 68.8661 319.194C72.6238 322.987 72.6238 326.703 68.8661 330.342Z" fill="#E62E2D"/>
<path opacity="0.73" fill-rule="evenodd" clip-rule="evenodd" d="M110.469 309.981C103.696 309.981 96.9238 309.981 90.1513 309.981C90.1513 324.845 90.1513 339.71 90.1513 354.575C93.0538 354.575 95.9563 354.575 98.8588 354.575C98.5471 348.896 98.8696 343.402 99.8263 338.094C99.8263 343.911 99.8263 349.727 99.8263 355.544C96.2788 355.544 92.7314 355.544 89.1838 355.544C89.1838 340.033 89.1838 324.522 89.1838 309.011C96.4586 308.696 103.554 309.019 110.469 309.981Z" fill="#F07171"/>
<path fill-rule="evenodd" clip-rule="evenodd" d="M110.469 309.984C116.914 310.137 120.945 313.368 122.563 319.679C123.161 326.555 120.42 331.726 114.339 335.19C115.33 336.5 116.297 337.793 117.241 339.067C117.171 340.548 117.816 341.517 119.176 341.976C121.27 344.227 122.883 346.812 124.014 349.731C123.943 351.211 124.588 352.181 125.949 352.639C122.868 354.495 119.321 355.141 115.306 354.578C112.107 350.772 109.366 346.571 107.083 341.976C105.261 339.529 102.842 338.236 99.8264 338.098C98.8696 343.406 98.5471 348.899 98.8589 354.578C95.9564 354.578 93.0539 354.578 90.1514 354.578C90.1514 339.714 90.1514 324.849 90.1514 309.984C96.9239 309.984 103.696 309.984 110.469 309.984ZM99.8264 317.74C102.833 317.595 105.735 318.08 108.534 319.194C111.284 322.702 110.962 325.933 107.566 328.888C105.006 329.37 102.426 329.532 99.8264 329.373C99.8264 325.495 99.8264 321.618 99.8264 317.74Z" fill="#E62F2D"/>
<path opacity="0.941" fill-rule="evenodd" clip-rule="evenodd" d="M157.876 309.981C152.036 309.845 146.231 310.168 140.461 310.95C146.158 307.798 151.963 307.476 157.876 309.981Z" fill="#F57E77"/>
<path fill-rule="evenodd" clip-rule="evenodd" d="M157.876 309.983C161.498 310.398 164.401 312.014 166.584 314.83C166.513 316.311 167.158 317.28 168.519 317.739C174.339 326.669 174.823 336.041 169.97 345.852C166.535 351.192 161.858 354.746 155.941 356.516C152.071 356.516 148.201 356.516 144.331 356.516C135.962 354.106 130.64 348.613 128.367 340.036C126.582 331.205 128.194 323.127 133.205 315.8C135.263 313.562 137.682 311.947 140.461 310.953C146.231 310.17 152.036 309.848 157.876 309.983ZM146.266 318.708C153.188 317.406 157.864 319.991 160.295 326.464C161.369 332.208 160.724 337.701 158.36 342.944C149.789 349.022 143.661 347.083 139.977 337.127C138.391 329.536 140.487 323.395 146.266 318.708Z" fill="#E83B35"/>
<path opacity="0.91" fill-rule="evenodd" clip-rule="evenodd" d="M214.959 309.012C213.009 310.392 210.752 311.038 208.186 310.951C210.136 309.57 212.393 308.924 214.959 309.012Z" fill="#F37874"/>
<path fill-rule="evenodd" clip-rule="evenodd" d="M229.471 309.983C230.022 313.695 229.377 316.927 227.536 319.677C209.254 316.834 202.965 324.267 208.67 341.974C210.056 343.854 211.829 345.146 213.991 345.852C216.076 347.824 218.334 348.147 220.764 346.822C223.344 346.175 225.924 345.529 228.504 344.883C229.451 347.912 229.774 351.143 229.471 354.577C227.724 355.085 226.112 355.732 224.634 356.516C220.119 356.516 215.604 356.516 211.089 356.516C205.795 355.309 201.602 352.401 198.511 347.791C198.719 346.163 198.074 345.194 196.576 344.883C192.237 332.87 194.495 322.369 203.349 313.376C204.876 312.316 206.488 311.507 208.186 310.953C210.752 311.04 213.009 310.394 214.959 309.014C219.849 307.956 224.686 308.28 229.471 309.983Z" fill="#E83833"/>
<path opacity="0.999" fill-rule="evenodd" clip-rule="evenodd" d="M249.789 309.984C254.626 309.984 259.464 309.984 264.301 309.984C274.416 313.723 279.576 321.154 279.781 332.281C279.081 344.261 273.276 352.339 262.366 356.517C258.496 356.517 254.626 356.517 250.756 356.517C236.256 350.727 230.935 340.063 234.792 324.526C237.137 316.844 242.136 311.997 249.789 309.984ZM252.691 318.709C260.105 317.329 264.781 320.237 266.72 327.434C267.697 332.828 267.052 337.999 264.785 342.945C260.152 347.298 255.154 347.783 249.789 344.399C245.233 337.467 244.749 330.196 248.337 322.587C249.689 321.065 251.14 319.772 252.691 318.709Z" fill="#E83B35"/>
<path opacity="0.334" fill-rule="evenodd" clip-rule="evenodd" d="M298.164 310.952C294.391 310.051 290.521 309.728 286.554 309.983C286.554 324.847 286.554 339.713 286.554 354.577C286.554 354.9 286.554 355.224 286.554 355.546C285.59 340.205 285.267 324.694 285.586 309.014C290.225 308.435 294.417 309.081 298.164 310.952Z" fill="#F5ADAF"/>
<path fill-rule="evenodd" clip-rule="evenodd" d="M298.164 310.952C298.093 312.433 298.738 313.402 300.099 313.861C302.731 317.151 304.988 320.706 306.871 324.524C306.801 326.005 307.446 326.974 308.806 327.433C308.736 328.913 309.381 329.882 310.741 330.341C310.671 331.821 311.316 332.791 312.676 333.249C314.021 334.605 314.989 336.221 315.579 338.096C315.853 338.861 316.336 339.508 317.03 340.035C317.514 330.023 317.674 320.006 317.514 309.983C320.416 309.983 323.319 309.983 326.221 309.983C326.221 324.847 326.221 339.712 326.221 354.577C322.673 354.577 319.127 354.577 315.579 354.577C308.957 345.183 302.83 335.489 297.196 325.494C296.922 324.729 296.439 324.082 295.745 323.555C295.261 333.89 295.1 344.231 295.261 354.577C292.359 354.577 289.456 354.577 286.554 354.577C286.554 339.712 286.554 324.847 286.554 309.983C290.52 309.728 294.39 310.051 298.164 310.952Z" fill="#E52427"/>
<path opacity="0.255" fill-rule="evenodd" clip-rule="evenodd" d="M327.189 309.983C326.866 309.983 326.543 309.983 326.221 309.983C323.319 309.983 320.416 309.983 317.514 309.983C317.674 320.006 317.514 330.023 317.03 340.035C316.336 339.508 315.852 338.862 315.579 338.097C316.54 328.578 316.862 318.883 316.546 309.014C320.291 308.708 323.839 309.031 327.189 309.983Z" fill="#F7B9BB"/>
<path opacity="0.722" fill-rule="evenodd" clip-rule="evenodd" d="M326.221 309.984C326.543 309.984 326.866 309.984 327.189 309.984C327.189 325.172 327.189 340.36 327.189 355.548C323.123 355.855 319.253 355.531 315.579 354.578C319.126 354.578 322.673 354.578 326.221 354.578C326.221 339.714 326.221 324.849 326.221 309.984Z" fill="#EA5256"/>
<path opacity="0.722" fill-rule="evenodd" clip-rule="evenodd" d="M229.471 309.984C230.146 313.278 230.792 316.671 231.406 320.163C229.891 320.905 228.601 320.743 227.536 319.679C229.376 316.928 230.022 313.696 229.471 309.984Z" fill="#F2797A"/>
<path opacity="0.424" fill-rule="evenodd" clip-rule="evenodd" d="M298.164 310.953C299.524 311.412 300.169 312.381 300.099 313.861C298.738 313.403 298.093 312.433 298.164 310.953Z" fill="#F89F9E"/>
<path opacity="0.51" fill-rule="evenodd" clip-rule="evenodd" d="M79.5086 313.859C80.8692 314.318 81.5143 315.287 81.4436 316.768C80.0831 316.309 79.438 315.34 79.5086 313.859Z" fill="#F79391"/>
<path opacity="0.667" fill-rule="evenodd" clip-rule="evenodd" d="M166.584 314.828C167.944 315.287 168.589 316.256 168.519 317.736C167.159 317.278 166.513 316.308 166.584 314.828Z" fill="#FAA19E"/>
<path opacity="0.584" fill-rule="evenodd" clip-rule="evenodd" d="M424.906 322.585C420.033 322.501 415.196 322.823 410.394 323.554C412.993 322.109 415.895 321.463 419.101 321.616C421.226 321.62 423.161 321.943 424.906 322.585Z" fill="#F38888"/>
<path opacity="0.999" fill-rule="evenodd" clip-rule="evenodd" d="M424.906 322.583C430.237 324.046 434.107 327.277 436.516 332.278C436.516 336.802 436.516 341.325 436.516 345.85C433.882 350.751 430.012 354.306 424.906 356.514C421.036 356.514 417.166 356.514 413.296 356.514C411.592 355.725 409.98 354.756 408.459 353.605C408.001 352.242 407.034 351.596 405.556 351.666C399.297 343.496 399.137 335.094 405.072 326.461C406.757 325.242 408.53 324.272 410.394 323.553C415.195 322.822 420.033 322.499 424.906 322.583ZM416.199 330.339C424.004 330.256 427.068 334.133 425.39 341.972C424.218 347.023 421.155 348.801 416.199 347.304C414.425 346.819 413.296 345.688 412.812 343.911C411.465 338.628 412.594 334.104 416.199 330.339Z" fill="#E83934"/>
<path fill-rule="evenodd" clip-rule="evenodd" d="M353.311 322.586C357.181 322.586 361.051 322.586 364.921 322.586C364.921 333.573 364.921 344.56 364.921 355.547C361.051 355.547 357.181 355.547 353.311 355.547C353.311 344.56 353.311 333.573 353.311 322.586Z" fill="#EB473D"/>
<path fill-rule="evenodd" clip-rule="evenodd" d="M370.726 322.586C380.079 322.586 389.431 322.586 398.784 322.586C398.941 324.551 398.779 326.49 398.3 328.403C393.415 334.423 388.738 340.562 384.271 346.822C388.041 347.792 392.556 348.115 397.816 347.791C397.816 350.053 397.816 352.316 397.816 354.577C388.463 354.577 379.112 354.577 369.759 354.577C369.775 352.575 370.097 350.636 370.726 348.761C372.087 348.302 372.732 347.333 372.661 345.852C373.823 343.517 375.435 341.578 377.499 340.036C378.859 339.577 379.504 338.608 379.434 337.127C380.723 335.189 382.014 333.25 383.304 331.311C384.593 330.988 384.593 330.664 383.304 330.341C379.112 330.341 374.918 330.341 370.726 330.341C370.726 327.756 370.726 325.171 370.726 322.586Z" fill="#E62F2E"/>
<path opacity="0.525" fill-rule="evenodd" clip-rule="evenodd" d="M306.871 324.523C308.231 324.982 308.877 325.951 308.806 327.432C307.446 326.973 306.801 326.004 306.871 324.523Z" fill="#F68D8B"/>
<path opacity="0.639" fill-rule="evenodd" clip-rule="evenodd" d="M297.196 325.494C296.235 335.336 295.911 345.353 296.229 355.546C293.004 355.546 289.778 355.546 286.554 355.546C286.554 355.223 286.554 354.899 286.554 354.577C289.456 354.577 292.359 354.577 295.261 354.577C295.1 344.231 295.261 333.89 295.745 323.555C296.439 324.082 296.922 324.729 297.196 325.494Z" fill="#EB5E62"/>
<path opacity="0.475" fill-rule="evenodd" clip-rule="evenodd" d="M308.806 327.434C310.167 327.892 310.812 328.862 310.741 330.342C309.381 329.883 308.736 328.914 308.806 327.434Z" fill="#F79694"/>
<path opacity="0.018" fill-rule="evenodd" clip-rule="evenodd" d="M370.726 322.586C370.726 325.171 370.726 327.756 370.726 330.341C374.919 330.341 379.112 330.341 383.304 330.341C383.304 330.664 383.304 330.988 383.304 331.311C378.789 331.311 374.274 331.311 369.759 331.311C369.459 328.196 369.781 325.288 370.726 322.586Z" fill="#FEF3F4"/>
<path opacity="0.851" fill-rule="evenodd" clip-rule="evenodd" d="M68.8662 330.34C68.7591 330.938 68.4366 331.423 67.8987 331.794C65.1249 332.571 62.5449 332.409 60.1587 331.309C63.129 331.437 66.0315 331.114 68.8662 330.34Z" fill="#F37D7B"/>
<path opacity="0.427" fill-rule="evenodd" clip-rule="evenodd" d="M310.741 330.34C312.102 330.798 312.747 331.768 312.676 333.248C311.316 332.79 310.671 331.82 310.741 330.34Z" fill="#F89E9D"/>
<path opacity="0.714" fill-rule="evenodd" clip-rule="evenodd" d="M379.434 337.125C379.505 338.605 378.859 339.575 377.499 340.033C377.428 338.553 378.074 337.584 379.434 337.125Z" fill="#F99894"/>
<path opacity="0.467" fill-rule="evenodd" clip-rule="evenodd" d="M117.241 339.066C118.602 339.525 119.247 340.494 119.176 341.975C117.816 341.516 117.171 340.547 117.241 339.066Z" fill="#F89997"/>
<path opacity="0.914" fill-rule="evenodd" clip-rule="evenodd" d="M196.576 344.883C198.074 345.194 198.719 346.163 198.511 347.791C197.639 347.025 196.994 346.056 196.576 344.883Z" fill="#FB9389"/>
<path opacity="0.722" fill-rule="evenodd" clip-rule="evenodd" d="M228.504 344.881C229.23 343.841 230.198 343.679 231.406 344.396C230.792 347.889 230.146 351.282 229.471 354.575C229.774 351.141 229.451 347.91 228.504 344.881Z" fill="#F27A7B"/>
<path opacity="0.706" fill-rule="evenodd" clip-rule="evenodd" d="M213.991 345.852C216.222 346.329 218.479 346.652 220.764 346.821C218.333 348.146 216.076 347.823 213.991 345.852Z" fill="#F37C7B"/>
<path opacity="0.71" fill-rule="evenodd" clip-rule="evenodd" d="M372.661 345.852C372.732 347.332 372.086 348.301 370.726 348.76C370.656 347.28 371.301 346.31 372.661 345.852Z" fill="#F99A96"/>
<path opacity="0.039" fill-rule="evenodd" clip-rule="evenodd" d="M384.271 346.82C389.109 346.82 393.946 346.82 398.784 346.82C399.084 349.935 398.761 352.843 397.816 355.545C397.816 355.222 397.816 354.899 397.816 354.576C397.816 352.314 397.816 350.051 397.816 347.79C392.556 348.114 388.041 347.791 384.271 346.82Z" fill="#FDE6E6"/>
<path opacity="0.482" fill-rule="evenodd" clip-rule="evenodd" d="M124.014 349.73C125.374 350.189 126.019 351.158 125.949 352.639C124.588 352.18 123.943 351.211 124.014 349.73Z" fill="#F79290"/>
<path opacity="0.702" fill-rule="evenodd" clip-rule="evenodd" d="M405.556 351.669C407.034 351.599 408.001 352.245 408.459 353.608C406.981 353.679 406.014 353.032 405.556 351.669Z" fill="#F99A97"/>
<path opacity="0.71" fill-rule="evenodd" clip-rule="evenodd" d="M125.949 352.637C126.895 352.938 127.54 353.585 127.884 354.576C123.546 355.847 119.353 355.847 115.306 354.576C119.32 355.138 122.868 354.492 125.949 352.637Z" fill="#EF696A"/>
<path opacity="0.71" fill-rule="evenodd" clip-rule="evenodd" d="M370.726 348.762C370.097 350.638 369.775 352.576 369.759 354.578C379.112 354.578 388.463 354.578 397.816 354.578C397.816 354.901 397.816 355.225 397.816 355.548C388.141 355.548 378.466 355.548 368.791 355.548C368.635 353.583 368.796 351.644 369.275 349.731C369.646 349.192 370.129 348.869 370.726 348.762Z" fill="#EB585C"/>
</g>
<defs>
<clipPath id="clip0_9163_11">
<rect width="387" height="222" fill="white" transform="translate(50 135)"/>
</clipPath>
</defs>
</svg>
