<svg width="500" height="500" viewBox="0 0 500 500" fill="none" xmlns="http://www.w3.org/2000/svg">
<g clip-path="url(#clip0_2115_28)">
<rect width="500" height="500" fill="#E5E5E5"/>
<path fill-rule="evenodd" clip-rule="evenodd" d="M0 0H500V500H0V0Z" fill="#F0F0F0"/>
<path d="M338 338C336.502 337.678 288.414 327.051 264.278 303.529C261.172 301.401 258.386 298.867 256 296C257.202 296.265 258.426 296.519 259.629 296.768C267.826 298.423 276.378 299.752 285.037 300.712H285.176L285.418 300.743H285.563C289.712 301.144 293.88 301.335 298.049 301.314C305.573 301.308 313.086 300.764 320.526 299.684C319.828 313.176 324.998 326.537 335.724 336.039C336.454 336.703 337.213 337.357 338 338Z" fill="#253A5E"/>
<path d="M339.976 217.036C339.768 230.352 338.093 250.327 331.287 269.612C330.807 269.84 330.322 270.052 329.825 270.255C320.528 274.071 310.201 276 299.128 276C295.885 276 292.508 275.839 289.089 275.513C275.844 274.274 262.758 271.753 250.028 267.988C250.413 266.331 250.912 264.701 251.521 263.109C253.557 257.946 255.162 252.633 256.322 247.221C259.421 231.711 262.147 202.724 251.601 165.762C251.601 165.762 247.985 153.359 242 141.982V141.956C242.001 141.942 242.001 141.928 242 141.914C242.036 141.834 242.077 141.756 242.123 141.681C242.517 140.934 242.939 140.156 243.398 139.358C243.734 138.767 244.091 138.16 244.464 137.543C244.651 137.232 244.843 136.921 245.04 136.604C245.43 135.982 245.835 135.355 246.262 134.717C246.315 134.618 246.379 134.535 246.427 134.437C250.066 128.642 254.767 123.546 260.296 119.399C260.68 119.109 261.059 118.834 261.437 118.543C261.51 118.485 261.587 118.431 261.667 118.383C262.115 118.066 262.579 117.76 263.038 117.439C263.496 117.117 263.96 116.827 264.44 116.526C265.203 116.008 265.993 115.562 266.803 115.111C267.182 114.903 267.577 114.696 267.972 114.473C269.977 113.38 272.045 112.398 274.164 111.533C274.164 111.533 274.196 111.533 274.212 111.533H274.244C274.394 111.481 274.543 111.439 274.677 111.382C274.73 111.363 274.785 111.349 274.842 111.341L276.079 111.004H276.191H276.293H276.325C279.169 110.959 282.005 111.309 284.747 112.041H284.833H284.897C285.803 112.269 286.78 112.559 287.804 112.886L287.974 112.943C296.189 115.79 318.133 126.337 330.743 160.39C331.81 163.356 332.839 166.535 333.821 169.88C335.272 174.821 336.584 180.121 337.608 185.659C337.64 185.851 337.677 186.048 337.709 186.24C338.615 191.238 339.221 196.283 339.523 201.35C339.523 201.35 340.126 207.505 339.976 217.036Z" fill="#253A5E"/>
<path d="M266 316.999H202.141C192.595 317.065 183.33 313.852 175.976 307.924C167.566 301.017 157.949 288.93 150.794 267.752C150.794 267.752 150.329 266.546 149.635 264.112C149.635 264.112 149.635 264.065 149.635 264.044C148.353 259.447 146.308 250.522 145 237L145.294 237.291C148.433 240.412 160.01 251.333 178.667 263.394C199.418 276.807 221.3 286.798 243.85 293.153C248.87 301.147 256.063 310.019 266 316.999Z" fill="#FFD400"/>
<path d="M275 111.057H274.952H274.92H274.819H274.707L273.473 111.395C273.416 111.403 273.36 111.419 273.308 111.442C273.175 111.494 273.026 111.541 272.877 111.587H272.845H272.797C270.682 112.455 268.619 113.439 266.618 114.535C266.224 114.759 265.83 114.967 265.452 115.18C264.643 115.627 263.856 116.095 263.095 116.594C262.616 116.901 262.158 117.202 261.695 117.509C261.232 117.816 260.774 118.138 260.327 118.461C260.246 118.507 260.17 118.561 260.098 118.622L258.96 119.474C253.443 123.632 248.753 128.742 245.122 134.552C245.075 134.65 245.011 134.728 244.957 134.827C244.532 135.467 244.127 136.096 243.739 136.725C243.54 137.037 243.348 137.349 243.164 137.661C242.791 138.279 242.435 138.887 242.099 139.485C241.642 140.281 241.221 141.045 240.828 141.809C240.781 141.885 240.741 141.963 240.705 142.043C240.703 142.066 240.703 142.088 240.705 142.111C239.356 144.682 238.157 147.326 237.113 150.029C236.581 151.526 235.979 152.987 235.367 154.453C227.416 173.544 216.032 213.155 230.349 262C210.327 253.869 191.381 242.447 173.664 227.796C160.673 217.06 151.312 206.381 145 194.959C148.161 163.422 157.837 143.801 159.305 140.972C159.439 140.728 159.502 140.619 159.502 140.619C161.238 137.388 163.194 134.276 165.357 131.302C174.846 118.351 190.423 111 206.724 111L275 111.057Z" fill="#FFD400"/>
<path d="M359.058 268.101C351.877 281.658 337.273 288.058 322.686 290.911C305.346 294.301 288.038 292.679 283.262 292.117H283.176L282.967 292.091C282.796 292.091 282.63 292.055 282.432 292.029L282.035 291.977H281.966C275.159 291.104 268.626 290.012 262.35 288.744C261.129 288.494 259.904 288.233 258.676 287.959C256.042 287.377 253.444 286.749 250.885 286.077C246.729 284.996 242.684 283.812 238.75 282.527C188.267 266.162 156.04 235.555 151.697 231.276C151.461 231.048 151.295 230.886 151.237 230.814L151.204 230.782C148.741 228.235 146.454 225.719 144.366 223.276C143.016 221.706 141.749 220.181 140.564 218.702C136.299 213.4 132.38 207.844 128.831 202.067C128.67 201.797 128.52 201.547 128.386 201.313L128.086 200.793C128.069 200.751 128.044 200.712 128.011 200.679C127.92 200.507 127.829 200.357 127.77 200.227C127.699 200.116 127.634 200.002 127.578 199.884C126.544 198.033 125.971 196.91 125.859 196.635C125.853 196.614 125.853 196.593 125.859 196.572C123.281 190.733 121.497 184.592 120.552 178.305C117.489 158.151 127.246 142.224 148.2 134C146.915 135.435 146.433 136.261 145.721 136.771C129.875 148.139 124.75 164.015 130.775 182.428C133.85 191.743 138.415 200.532 144.302 208.471C151.097 217.761 159.414 225.953 168.523 233.423C188.701 250.011 210.652 262.887 234.471 271.563C239.173 273.296 243.948 274.845 248.796 276.211C261.589 279.855 274.709 282.313 287.98 283.551C301.228 284.809 314.311 283.915 326.863 279.912C328.937 279.246 330.997 278.496 333.043 277.661C352.621 269.64 361.452 252.751 356.921 232.675C356.268 229.717 355.561 226.754 354.683 222.938C363.749 236.246 365.704 254.17 359.058 268.101Z" fill="#121F5E"/>
<path d="M134.887 365.795C134.253 365.116 133.58 364.47 132.87 363.86C132.515 363.553 131.692 362.933 130.401 362C130.934 361.526 131.412 361 131.827 360.433C132.859 358.917 133.382 357.148 133.328 355.353C133.4 353.584 132.971 351.829 132.083 350.264C131.804 349.806 131.385 349.434 130.88 349.197C132.033 350.626 132.611 352.59 132.615 355.09C132.618 357.59 131.994 359.531 130.742 360.914C130.383 361.318 129.983 361.69 129.55 362.025C130.614 362.828 131.483 363.505 132.157 364.054C132.982 364.713 133.736 365.446 134.408 366.241L133.631 367C132.996 366.207 132.262 365.488 131.444 364.857C130.729 364.235 129.968 363.66 129.167 363.136C128.33 363.324 127.473 363.417 126.612 363.414C123.92 363.414 121.727 362.779 120.019 361.509C119.032 360.779 118.245 359.841 117.722 358.773C117.198 357.705 116.953 356.536 117.007 355.363C116.96 353.536 117.585 351.749 118.779 350.299C120.617 348.096 123.395 346.997 127.113 347C130.082 347 132.473 347.703 134.286 349.108C135.366 349.938 136.203 351.01 136.718 352.223C137.103 353.124 137.3 354.086 137.298 355.056C137.298 357.089 136.42 359.05 134.664 360.939L135.43 361.578C136.494 362.395 137.351 362.818 138 362.848L134.887 365.795ZM121.695 361.33C120.998 360.813 120.396 360.193 119.913 359.495C119.136 358.23 118.747 356.79 118.79 355.333C118.773 354.208 119.004 353.092 119.467 352.053C119.93 351.014 120.616 350.074 121.483 349.292C120.702 349.627 120.038 350.159 119.567 350.829C118.729 352.004 118.235 353.363 118.133 354.77C118.032 356.178 118.326 357.586 118.987 358.855C119.561 359.948 120.516 360.828 121.695 361.35V361.33ZM127.07 348.468C126.417 348.47 125.778 348.642 125.223 348.964C124.319 349.46 123.627 350.383 123.169 351.727C122.8 352.821 122.621 353.963 122.637 355.11C122.637 357.57 123.256 359.488 124.494 360.864C124.783 361.189 125.149 361.447 125.562 361.62C125.976 361.792 126.426 361.873 126.878 361.856C127.683 361.85 128.463 361.601 129.103 361.147C130.028 360.465 130.7 359.53 131.024 358.473C131.389 357.411 131.569 356.3 131.556 355.185C131.556 352.764 131.024 350.927 129.959 349.674C129.676 349.33 129.312 349.052 128.895 348.86C128.329 348.597 127.702 348.469 127.07 348.488V348.468Z" fill="#253A5E"/>
<path d="M144.476 363H141C141.663 362.324 142.244 361.579 142.733 360.78C143.293 359.853 143.791 358.892 144.225 357.905L146.647 352.506L146.807 352.084L147.465 350.525C147.61 350.23 147.693 349.911 147.711 349.585C147.711 348.834 147.123 347.972 145.947 347H147.652C148.162 347.638 148.589 348.332 148.925 349.067C149.178 349.623 149.572 350.542 150.107 351.825L153.037 358.835C153.037 358.881 153.102 358.972 153.16 359.104C153.616 360.048 153.948 361.04 154.15 362.06C154.19 362.261 154.211 362.465 154.214 362.67C154.209 362.781 154.196 362.891 154.177 363H153.064C153.085 362.86 153.098 362.72 153.102 362.578C153.102 361.881 152.767 360.777 152.096 359.267L151.562 358.022H145.829L145.075 359.653C144.667 360.447 144.43 361.31 144.38 362.192C144.376 362.464 144.408 362.736 144.476 363ZM146.615 356.397H150.807L148.754 351.465L146.615 356.397ZM154.909 363C154.933 362.852 154.949 362.703 154.957 362.553C154.845 361.378 154.519 360.23 153.995 359.16L150.968 351.988L150.904 351.836C149.834 349.269 149.002 347.657 148.406 347H153.674C153.674 347.371 153.636 347.594 153.636 347.67C153.762 348.988 154.103 350.278 154.647 351.495C154.781 351.836 154.947 352.252 155.155 352.755L156.898 356.991C158.225 360.266 159.258 362.269 160 363H154.909Z" fill="#253A5E"/>
<path d="M165 362.995C165.719 361.671 166.079 359.532 166.079 356.578V354.526V354.294C165.987 351.592 165.933 350.105 165.912 349.843C165.842 349.375 165.726 348.915 165.566 348.467C165.383 347.917 165.205 347.428 165.027 347H166.273C166.527 347.53 166.718 348.085 166.845 348.653C166.921 349.067 167.028 350.509 167.169 352.979V353.336V356.719C167.169 356.764 167.169 356.85 167.169 356.986C167.215 358.042 167.145 359.099 166.958 360.142C166.843 361.127 166.565 362.09 166.133 362.995H165ZM166.937 362.995C167.303 361.967 167.552 360.906 167.681 359.829C167.775 358.895 167.821 357.887 167.821 356.805V353.649V352.681C167.812 351.227 167.666 349.776 167.384 348.346C167.299 347.885 167.152 347.437 166.947 347.01H174.052C175.576 346.981 177.096 347.173 178.557 347.58C179.571 347.885 180.473 348.449 181.162 349.208C181.822 349.903 182.184 350.8 182.182 351.728C182.182 352.972 181.447 354.032 179.976 354.909C179.325 355.292 178.645 355.629 177.942 355.917L180.612 359.204L180.763 359.401C181.762 360.661 182.843 361.863 184 363H178.605C178.62 362.891 178.62 362.781 178.605 362.672C178.515 362.37 178.379 362.081 178.201 361.815C177.824 361.223 177.406 360.653 176.949 360.112C176.777 359.9 175.793 358.774 173.998 356.734C173.942 356.673 173.878 356.617 173.809 356.568C174.548 356.455 175.257 356.215 175.903 355.862C176.632 355.472 177.233 354.904 177.642 354.218C178.051 353.532 178.252 352.755 178.222 351.97C178.271 350.938 177.884 349.93 177.143 349.163C176.809 348.823 176.363 348.598 175.876 348.522C176.294 348.913 176.67 349.342 176.998 349.803C177.393 350.426 177.595 351.14 177.58 351.865C177.617 352.597 177.429 353.324 177.038 353.96C176.647 354.596 176.07 355.114 175.374 355.454C174.527 355.877 173.592 356.123 172.633 356.175C173.054 356.568 173.774 357.347 174.791 358.514C176.28 360.308 177.196 361.454 177.537 361.951C177.774 362.262 177.924 362.622 177.974 363H176.69C176.69 362.698 176.334 362.098 175.611 361.195C174.306 359.586 173.599 358.724 173.491 358.609L171.333 356.361V358.11C171.331 358.967 171.396 359.823 171.528 360.671C171.727 361.911 171.954 362.687 172.202 363L166.937 362.995ZM171.36 355.307C172.388 355.314 173.41 355.164 174.387 354.864C175.119 354.598 175.723 354.093 176.086 353.442C176.399 352.944 176.563 352.377 176.561 351.799C176.569 351.25 176.441 350.707 176.188 350.212C175.934 349.717 175.561 349.284 175.099 348.946C174.278 348.317 173.241 347.986 172.18 348.013H171.641C171.445 349.079 171.354 350.159 171.371 351.239V351.426L171.36 355.307Z" fill="#253A5E"/>
<path d="M190.468 363H187C187.661 362.324 188.24 361.579 188.726 360.78C189.288 359.853 189.787 358.893 190.222 357.905L192.642 352.506L192.803 352.084L193.46 350.525C193.602 350.229 193.685 349.91 193.706 349.585C193.706 348.834 193.116 347.972 191.937 347H193.641C194.153 347.637 194.58 348.331 194.913 349.067C195.17 349.623 195.565 350.542 196.099 351.825L199.027 358.835L199.15 359.104C199.605 360.048 199.937 361.04 200.139 362.06C200.174 362.262 200.194 362.466 200.197 362.67C200.195 362.781 200.182 362.891 200.16 363H199.049C199.072 362.861 199.085 362.72 199.086 362.578C199.086 361.881 198.753 360.777 198.087 359.267L197.553 358.022H191.825L191.071 359.653C190.667 360.447 190.432 361.311 190.382 362.192C190.377 362.464 190.406 362.735 190.468 363ZM192.605 356.397H196.789L194.742 351.465L192.605 356.397ZM200.887 363C200.919 362.771 200.94 362.624 200.94 362.553C200.828 361.377 200.5 360.229 199.973 359.16L196.949 351.988L196.89 351.836C195.821 349.269 194.99 347.657 194.395 347H199.652C199.652 347.371 199.615 347.594 199.615 347.67C199.615 348.48 199.953 349.755 200.63 351.495C200.758 351.836 200.929 352.252 201.165 352.755L202.901 356.991C204.226 360.266 205.259 362.269 206 363H200.887Z" fill="#253A5E"/>
<path d="M211.76 362.98C212.113 362.47 212.383 361.917 212.561 361.338L212.729 360.371L212.858 357.047V356.685V352.822C212.88 352.276 212.799 351.731 212.617 351.21C212.412 350.744 212.108 350.318 211.721 349.956C210.577 348.898 209.332 347.933 208 347.071H209.827C210.91 347.793 211.94 348.579 212.909 349.422C214.37 350.685 215.795 351.999 217.184 353.366L221.494 357.45C222.469 358.42 223.436 359.394 224.396 360.371C225.114 361.174 225.822 361.978 226.52 362.783L226.699 362.98H225.175C225.026 362.731 223.959 361.556 221.976 359.454L221.718 359.213L214.579 352.464V356.921V357.853C214.567 359.154 214.732 360.451 215.072 361.716C215.178 362.167 215.367 362.6 215.632 362.995L211.76 362.98ZM210.959 347.071H217.42C217.386 347.574 218.227 348.581 219.941 350.178L227.226 357.163V351.356C227.239 350.555 227.156 349.755 226.98 348.969C226.833 348.269 226.538 347.6 226.111 347H230C229.646 347.628 229.393 348.297 229.249 348.989C228.975 350.656 228.866 352.341 228.924 354.025V358.09C228.927 359.733 229.066 361.375 229.339 363H227.562C227.114 362.382 226.501 361.634 225.724 360.754C224.861 359.79 224.084 358.983 223.393 358.331L216.596 351.92C216.563 351.88 216.528 351.841 216.49 351.805C215.718 351.019 214.903 350.269 214.046 349.558C213.073 348.675 212.042 347.844 210.959 347.071Z" fill="#253A5E"/>
<path d="M238.674 363C239.335 361.635 239.666 359.693 239.666 357.174C239.666 355.106 239.63 353.167 239.558 351.358C239.526 350.487 239.412 349.621 239.216 348.77C238.326 348.792 237.438 348.865 236.557 348.987C235.641 349.14 234.769 349.484 234 349.996V347H250V349.926C249.31 349.477 248.547 349.15 247.745 348.957C246.863 348.813 245.97 348.743 245.076 348.75C244.795 350.247 244.683 351.769 244.743 353.29V357.371C244.745 358.485 244.808 359.598 244.933 360.705C245.024 361.499 245.243 362.274 245.582 363H240.469C240.739 362.349 240.944 361.673 241.082 360.982C241.312 359.424 241.404 357.85 241.358 356.276C241.358 353.371 241.299 351.299 241.179 350.062C241.149 349.744 241.097 349.32 241.036 348.791H240.412L240.612 350.924C240.714 352.019 240.765 353.759 240.765 356.135C240.819 357.86 240.692 359.586 240.387 361.285C240.241 361.867 240.06 362.44 239.845 363H238.674Z" fill="#253A5E"/>
<path d="M264.097 363C264.724 361.593 265.024 359.164 264.999 355.712V352.84V352.411C264.939 351.018 264.902 350.2 264.875 349.948C264.659 348.454 264.367 347.498 264 347.081H265.285C265.674 347.967 265.918 348.903 266.009 349.857C266.113 350.748 266.172 351.758 266.187 352.885V356.979C266.187 357.66 266.106 358.639 265.998 359.906C265.944 360.962 265.716 362.004 265.323 362.995L264.097 363ZM266.019 363C266.254 362.353 266.434 361.69 266.559 361.016C266.631 360.525 266.719 359.282 266.824 357.286V356.994V352.421C266.824 349.806 266.57 348.026 266.062 347.081H271.051C270.809 347.816 270.655 348.575 270.592 349.342C270.501 350.215 270.458 350.997 270.458 351.699V354.591L270.879 354.253L275.668 360.875L275.781 361.016C276.27 361.603 276.624 362.279 276.818 363H275.484C275.44 362.766 275.374 362.536 275.284 362.314C275.214 362.182 274.966 361.809 274.534 361.158L274.437 361.006L270.787 356.035L270.436 356.277V358.402C270.479 360.778 270.675 362.305 271.024 362.985L266.019 363ZM277.536 363C277.479 362.622 277.347 362.257 277.147 361.925C276.953 361.617 276.721 361.264 276.461 360.865L271.386 353.89L275.09 350.427C276.71 348.974 277.585 347.828 277.676 347H282.266C281.012 347.767 279.85 348.657 278.799 349.655L275.252 352.921L279.534 358.977C280.122 359.765 280.651 360.491 281.116 361.092C281.663 361.788 282.295 362.422 283 362.98L277.536 363Z" fill="#253A5E"/>
<path d="M287 362.995C287.719 361.671 288.079 359.532 288.079 356.578V354.526V354.294C287.988 351.592 287.934 350.105 287.912 349.843C287.842 349.376 287.728 348.915 287.572 348.467C287.389 347.919 287.209 347.43 287.032 347H288.279C288.532 347.53 288.724 348.085 288.851 348.653C288.926 349.067 289.034 350.509 289.175 352.979V353.336V356.719C289.175 356.764 289.175 356.85 289.175 356.986C289.221 358.042 289.151 359.099 288.964 360.142C288.848 361.126 288.571 362.088 288.144 362.995H287ZM288.932 362.995C289.301 361.968 289.55 360.906 289.677 359.829C289.77 358.895 289.817 357.887 289.817 356.805V353.649V352.681C289.807 351.227 289.661 349.776 289.38 348.346C289.294 347.885 289.147 347.437 288.943 347.01H296.055C297.578 346.98 299.096 347.172 300.555 347.58C301.57 347.883 302.473 348.448 303.162 349.208C303.821 349.903 304.184 350.8 304.181 351.728C304.181 352.972 303.446 354.032 301.974 354.909C301.325 355.291 300.647 355.628 299.945 355.917L302.611 359.204L302.762 359.401C303.761 360.662 304.842 361.864 306 363H300.604C300.618 362.891 300.618 362.781 300.604 362.672C300.516 362.369 300.38 362.08 300.199 361.815C299.822 361.224 299.406 360.654 298.953 360.112C298.776 359.9 297.791 358.774 295.995 356.734C295.941 356.671 295.877 356.615 295.807 356.568C296.546 356.454 297.258 356.215 297.906 355.862C298.634 355.471 299.234 354.902 299.642 354.217C300.05 353.531 300.25 352.754 300.221 351.97C300.267 350.939 299.88 349.931 299.141 349.163C298.805 348.823 298.357 348.598 297.868 348.522C298.288 348.912 298.664 349.341 298.99 349.803C299.388 350.426 299.591 351.14 299.579 351.865C299.614 352.597 299.425 353.323 299.034 353.959C298.643 354.595 298.067 355.113 297.372 355.454C296.522 355.876 295.585 356.122 294.625 356.175C295.049 356.568 295.769 357.347 296.783 358.514C298.267 360.308 299.185 361.452 299.525 361.951C299.761 362.262 299.912 362.622 299.962 363H298.677C298.677 362.698 298.321 362.098 297.598 361.195C296.299 359.586 295.594 358.724 295.483 358.609L293.324 356.361V358.11C293.324 358.967 293.391 359.823 293.524 360.671C293.724 361.911 293.945 362.687 294.193 363L288.932 362.995ZM293.357 355.307C294.387 355.313 295.411 355.163 296.389 354.864C297.12 354.597 297.722 354.092 298.084 353.442C298.397 352.944 298.561 352.377 298.559 351.799C298.569 351.25 298.443 350.706 298.189 350.211C297.935 349.715 297.561 349.282 297.096 348.946C296.277 348.317 295.242 347.986 294.182 348.013H293.643C293.442 349.078 293.349 350.158 293.368 351.239V351.426L293.357 355.307Z" fill="#253A5E"/>
<path d="M311 363C311.613 360.988 311.9 358.901 311.851 356.809V355.551V355.409V353.494V353.11C311.779 351.196 311.739 350.13 311.732 349.911C311.695 349.537 311.634 349.166 311.548 348.799C311.439 348.268 311.293 347.672 311.098 347H312.263C312.793 348.796 313.05 350.651 313.028 352.514V353.878V356.354V357.264C313.006 358.734 312.85 360.2 312.562 361.646C312.485 362.107 312.36 362.561 312.187 363H311ZM312.892 363C313.139 362.245 313.321 361.473 313.435 360.69C313.51 360.074 313.577 358.741 313.635 356.693V356.415V353.888C313.628 353.794 313.628 353.699 313.635 353.605C313.725 351.886 313.616 350.163 313.31 348.466C313.201 347.9 313.088 347.419 312.974 347.03L324.062 347.101V347.253V348.188C324.068 348.817 324.126 349.446 324.235 350.068C323.151 349.219 321.476 348.819 319.225 348.865H317.555C317.465 349.131 317.407 349.405 317.382 349.684C317.305 350.218 317.271 350.757 317.279 351.296C317.279 351.387 317.279 351.442 317.279 351.457V353.479H319.99C320.859 353.533 321.731 353.418 322.549 353.14C322.853 353.02 323.139 352.863 323.4 352.675L323.438 356.087C323.069 355.81 322.648 355.599 322.197 355.465C321.524 355.245 320.817 355.128 320.104 355.116H319.562H317.306L317.23 357.967V358.118C317.23 359.255 317.29 359.998 317.333 360.347C317.384 360.643 317.451 360.936 317.534 361.226L320.039 361.262C320.982 361.278 321.922 361.167 322.831 360.933C323.678 360.709 324.434 360.253 325 359.624C324.889 360.586 324.845 361.553 324.87 362.52C324.869 362.67 324.887 362.819 324.924 362.965L312.892 363Z" fill="#253A5E"/>
<path d="M330.005 362.995C330.574 361.675 330.861 359.712 330.864 357.106C330.864 356.945 330.864 356.603 330.864 356.101L330.812 352.121C330.81 351.238 330.751 350.357 330.634 349.482C330.494 348.64 330.282 347.809 330 347H331.152C331.451 347.849 331.662 348.724 331.781 349.613C331.854 350.075 331.918 351.496 331.974 353.874V356.01C332.011 357.638 331.931 359.267 331.733 360.884C331.632 361.605 331.457 362.313 331.21 363L330.005 362.995ZM331.88 362.995C332.419 361.006 332.659 358.954 332.592 356.899V356.457V353.693V353.498C332.493 350.985 332.44 349.593 332.425 349.382C332.395 349.058 332.338 348.737 332.252 348.422C332.137 347.95 331.992 347.485 331.817 347.03L339.039 347.065C340.731 347.062 342.405 347.394 343.957 348.04C345.214 348.56 346.326 349.359 347.198 350.372C348.375 351.727 349.013 353.438 349 355.201C349.01 357.02 348.32 358.779 347.062 360.141C346.255 361.07 345.215 361.788 344.04 362.226C342.668 362.739 340.574 362.995 337.756 362.995H331.88ZM336.358 361.824H336.782C339.055 361.824 340.769 361.104 341.925 359.663C342.943 358.338 343.463 356.721 343.401 355.075C343.408 353.964 343.185 352.863 342.747 351.834C341.699 349.405 339.718 348.191 336.803 348.191H336.279C336.063 349.286 335.954 351.496 335.954 354.819C335.954 357.395 336.003 359.161 336.101 360.116C336.164 360.548 336.242 361.116 336.358 361.824ZM341.275 361.588C341.991 361.376 342.64 360.994 343.161 360.477C343.654 359.996 344.051 359.432 344.334 358.814C344.88 357.663 345.157 356.411 345.145 355.146C345.153 353.869 344.872 352.605 344.323 351.442C343.812 350.198 342.819 349.192 341.553 348.633C342.132 349.193 342.658 349.802 343.124 350.452C344.037 351.832 344.5 353.442 344.454 355.075C344.548 356.33 344.309 357.588 343.76 358.73C343.21 359.872 342.368 360.862 341.312 361.608L341.275 361.588Z" fill="#253A5E"/>
<path d="M355.171 346.093C355.586 347.219 355.836 348.4 355.913 349.599C356.04 350.987 356.098 353.051 356.098 355.801C356.098 358.956 355.818 361.356 355.256 363H354.111C354.511 361.784 354.771 360.524 354.885 359.248C354.959 358.235 354.991 356.675 354.991 354.568C354.991 352.96 354.938 351.416 354.821 349.974C354.738 348.652 354.461 347.349 354 346.109L355.171 346.093ZM355.844 343.949C355.637 343.824 355.466 343.647 355.348 343.434C355.23 343.221 355.169 342.981 355.171 342.737C355.166 342.483 355.225 342.231 355.342 342.006C355.46 341.781 355.633 341.59 355.844 341.451V343.949ZM355.966 363C356.162 362.207 356.316 361.445 356.432 360.706C356.501 360.132 356.581 358.529 356.66 355.881V355.645V354.086C356.66 354.01 356.619 352.76 356.538 350.333C356.507 348.879 356.277 347.436 355.855 346.045H361C360.814 346.593 360.672 347.156 360.576 347.728C360.347 348.861 360.223 350.013 360.205 351.169V352.086V356.139C360.189 357.392 360.246 358.645 360.375 359.891C360.492 360.937 360.669 361.975 360.905 363H355.966ZM356.358 341.237C356.74 341.072 357.152 340.992 357.566 341.001C358.088 340.989 358.601 341.137 359.039 341.424C359.248 341.547 359.421 341.724 359.539 341.937C359.658 342.15 359.717 342.391 359.712 342.636C359.72 342.892 359.663 343.145 359.547 343.373C359.431 343.601 359.26 343.795 359.05 343.938C358.595 344.238 358.061 344.39 357.519 344.372C357.121 344.376 356.726 344.299 356.358 344.147V341.237Z" fill="#253A5E"/>
<path d="M369.966 363C370.665 361.635 371.016 359.693 371.02 357.174C371.02 355.106 370.982 353.167 370.906 351.358C370.869 350.487 370.747 349.621 370.542 348.77C369.596 348.792 368.653 348.865 367.717 348.987C366.744 349.14 365.817 349.484 365 349.996V347H382V349.926C381.266 349.479 380.456 349.152 379.604 348.957C378.667 348.813 377.718 348.743 376.768 348.75C376.467 350.246 376.348 351.769 376.415 353.29V357.371C376.414 358.485 376.481 359.598 376.616 360.705C376.713 361.499 376.946 362.274 377.306 363H371.873C372.157 362.348 372.376 361.672 372.525 360.982C372.766 359.424 372.862 357.85 372.813 356.276C372.813 353.371 372.751 351.299 372.628 350.062C372.595 349.744 372.541 349.32 372.476 348.791H371.808C371.895 349.608 371.965 350.304 372.025 350.924C372.134 352.019 372.188 353.759 372.188 356.135C372.245 357.86 372.11 359.586 371.786 361.285C371.632 361.867 371.439 362.44 371.21 363H369.966Z" fill="#253A5E"/>
<path d="M197.011 377H199.103V386.272H205V388H197L197.011 377Z" fill="#FFD400"/>
<path d="M209 382.497C209 379.337 211.547 377 215.003 377C218.459 377 221 379.32 221 382.497C221 385.674 218.453 388 215.003 388C211.552 388 209 385.663 209 382.497ZM218.916 382.497C218.915 381.754 218.685 381.029 218.254 380.411C217.823 379.794 217.212 379.314 216.497 379.03C215.781 378.747 214.995 378.673 214.236 378.819C213.477 378.964 212.78 379.322 212.234 379.848C211.687 380.374 211.315 381.043 211.164 381.772C211.014 382.5 211.092 383.256 211.388 383.942C211.684 384.628 212.186 385.214 212.829 385.627C213.473 386.04 214.229 386.26 215.003 386.26C215.522 386.276 216.038 386.189 216.521 386.006C217.004 385.822 217.442 385.545 217.809 385.193C218.176 384.84 218.463 384.419 218.654 383.955C218.844 383.492 218.934 382.995 218.916 382.497Z" fill="#FFD400"/>
<path d="M236.268 388V380.708L232.942 386.757H232.104L228.788 380.802V388H227V377H228.533L232.538 384.292L236.467 377H238V388H236.268Z" fill="#FFD400"/>
<path d="M253.997 385.012C253.997 386.902 252.634 388 250.026 388H245V377H249.753C252.192 377 253.498 378.115 253.498 379.86C253.512 380.356 253.396 380.845 253.165 381.273C252.934 381.701 252.597 382.05 252.192 382.28C252.732 382.448 253.205 382.81 253.532 383.306C253.86 383.801 254.024 384.403 253.997 385.012ZM246.862 378.606V381.639H249.532C250.839 381.639 251.59 381.131 251.59 380.128C251.59 379.124 250.854 378.606 249.532 378.606H246.862ZM252.099 384.811C252.099 383.696 251.333 383.222 249.908 383.222H246.862V386.394H249.908C251.333 386.394 252.099 385.909 252.099 384.811Z" fill="#FFD400"/>
<path d="M266.753 385.452H261.213L260.124 388H258L262.972 377H264.994L270 388H267.848L266.753 385.452ZM266.073 383.852L263.983 379.041L261.91 383.852H266.073Z" fill="#FFD400"/>
<path d="M281.88 388L279.743 384.778C279.606 384.786 279.469 384.786 279.332 384.778H276.955V387.983H275V377H279.332C282.104 377 283.818 378.477 283.818 380.903C283.851 381.656 283.65 382.401 283.246 383.026C282.842 383.651 282.256 384.125 281.575 384.376L284 387.989L281.88 388ZM279.209 378.728H276.917V383.111H279.209C280.923 383.111 281.81 382.297 281.81 380.914C281.81 379.531 280.945 378.728 279.23 378.728H279.209Z" fill="#FFD400"/>
<path d="M290 377H294.89C298.521 377 301 379.23 301 382.497C301 385.764 298.521 388 294.89 388H290V377ZM294.799 386.272C297.29 386.272 298.907 384.777 298.907 382.497C298.907 380.217 297.29 378.728 294.799 378.728H292.076V386.272H294.799Z" fill="#FFD400"/>
<path d="M312 370H190V371H312V370Z" fill="#253A5E"/>
</g>
<defs>
<clipPath id="clip0_2115_28">
<rect width="500" height="500" fill="white"/>
</clipPath>
</defs>
</svg>
