<svg width="500" height="500" viewBox="0 0 500 500" fill="none" xmlns="http://www.w3.org/2000/svg">
<rect width="500" height="500" fill="#F0F0F0"/>
<path d="M158.016 250.495C159.293 253.757 160.563 257.021 161.815 260.292C161.871 260.439 161.927 260.586 161.985 260.737C162.07 260.959 162.07 260.959 162.157 261.186C162.273 261.489 162.389 261.792 162.505 262.095C162.563 262.247 162.621 262.399 162.681 262.555C163.388 264.401 164.098 266.246 164.808 268.091C164.872 268.258 164.937 268.425 165.003 268.596C165.995 271.171 166.992 273.743 168.001 276.311C169.138 273.434 170.259 270.55 171.365 267.661C172.269 265.299 173.175 262.938 174.087 260.579C174.139 260.443 174.192 260.308 174.246 260.168C174.459 259.618 174.671 259.069 174.884 258.519C175.479 256.98 176.074 255.441 176.668 253.902C176.948 253.179 177.227 252.456 177.507 251.732C177.6 251.49 177.693 251.249 177.787 251.007C177.852 250.838 177.917 250.669 177.985 250.495C181.329 250.054 184.935 249.647 188.258 250.495C188.48 255.836 188.701 261.177 188.922 266.518C188.948 267.15 188.974 267.782 189 268.414C189.005 268.54 189.011 268.666 189.016 268.795C189.1 270.827 189.184 272.858 189.269 274.89C189.355 276.977 189.442 279.065 189.528 281.152C189.58 282.438 189.634 283.724 189.688 285.01C189.724 285.895 189.761 286.779 189.797 287.663C189.818 288.172 189.839 288.681 189.86 289.189C189.952 291.352 190.02 293.509 189.995 295.673C188.544 295.931 187.128 295.992 185.654 295.996C185.384 295.998 185.384 295.998 185.108 296C184.164 295.997 183.264 295.944 182.33 295.814C182.182 295.794 182.182 295.794 182.031 295.773C181.792 295.741 181.552 295.707 181.313 295.673C181.098 289.251 180.915 282.829 180.745 276.405C180.712 275.17 180.679 273.934 180.646 272.699C180.579 270.174 180.511 267.649 180.445 265.124C180.33 265.396 180.215 265.668 180.1 265.939C180.036 266.091 179.972 266.242 179.906 266.398C179.647 267.024 179.415 267.657 179.188 268.294C179.087 268.573 178.986 268.852 178.886 269.131C178.833 269.277 178.781 269.423 178.727 269.573C177.559 272.822 176.362 276.06 175.154 279.295C175.094 279.456 175.034 279.616 174.972 279.782C174.853 280.1 174.734 280.418 174.615 280.736C174.295 281.593 173.985 282.453 173.686 283.317C173.589 283.596 173.492 283.875 173.394 284.153C173.302 284.419 173.212 284.686 173.123 284.952C173.067 285.112 173.011 285.273 172.953 285.438C172.881 285.651 172.881 285.651 172.806 285.868C172.601 286.266 172.474 286.354 172.052 286.494C171.223 286.632 170.411 286.661 169.571 286.662C169.448 286.662 169.325 286.663 169.198 286.663C168.94 286.664 168.681 286.664 168.422 286.664C168.03 286.665 167.639 286.667 167.247 286.67C166.637 286.673 166.028 286.662 165.418 286.643C165.147 286.638 164.876 286.649 164.605 286.663C164.131 286.653 163.903 286.623 163.515 286.351C163.108 285.66 162.874 284.939 162.635 284.179C162.447 283.598 162.233 283.027 162.02 282.455C161.84 281.97 161.663 281.485 161.487 280.999C161.093 279.915 160.699 278.831 160.303 277.747C160.252 277.606 160.252 277.606 160.2 277.463C159.283 274.95 158.349 272.443 157.415 269.937C156.835 268.383 156.256 266.83 155.701 265.267C155.557 265.868 155.527 266.455 155.513 267.07C155.51 267.178 155.507 267.286 155.504 267.397C155.494 267.759 155.485 268.121 155.476 268.482C155.469 268.742 155.462 269.002 155.455 269.262C155.44 269.821 155.426 270.38 155.412 270.94C155.389 271.827 155.366 272.714 155.342 273.601C155.301 275.167 155.26 276.733 155.22 278.299C155.159 280.649 155.097 282.999 155.035 285.349C155.012 286.228 154.989 287.107 154.967 287.986C154.953 288.537 154.938 289.088 154.924 289.64C154.917 289.892 154.911 290.145 154.904 290.397C154.86 292.158 154.784 293.915 154.688 295.673C153.254 295.908 151.884 296.005 150.429 295.996C150.242 295.997 150.056 295.998 149.863 295.999C148.55 295.997 147.301 295.868 146.006 295.673C145.975 293.628 146.066 291.587 146.151 289.544C146.172 289.027 146.193 288.511 146.214 287.994C146.255 286.986 146.296 285.978 146.338 284.97C146.372 284.151 146.405 283.332 146.439 282.513C146.443 282.396 146.448 282.279 146.453 282.159C146.463 281.921 146.473 281.684 146.482 281.446C146.573 279.224 146.664 277.003 146.756 274.781C146.84 272.748 146.923 270.715 147.005 268.682C147.091 266.592 147.176 264.502 147.262 262.412C147.272 262.176 147.281 261.94 147.291 261.703C147.296 261.587 147.301 261.471 147.306 261.351C147.339 260.532 147.373 259.714 147.406 258.895C147.446 257.898 147.487 256.902 147.529 255.905C147.55 255.397 147.571 254.888 147.591 254.38C147.613 253.829 147.636 253.279 147.659 252.728C147.666 252.567 147.672 252.405 147.679 252.239C147.685 252.092 147.691 251.945 147.698 251.793C147.703 251.666 147.708 251.539 147.714 251.408C147.741 251.089 147.799 250.803 147.887 250.495C151.313 249.875 154.581 250.017 158.016 250.495Z" fill="#2D71B8"/>
<path d="M299.802 254.234C299.894 254.304 299.986 254.375 300.08 254.447C300.888 255.067 301.503 255.84 302.131 256.626C302.217 256.731 302.302 256.836 302.39 256.944C304.786 260.06 305.871 263.818 306.499 267.598C306.518 267.71 306.537 267.822 306.557 267.938C307.636 274.635 306.873 282.911 302.822 288.612C302.12 289.537 301.355 290.407 300.53 291.232C300.426 291.335 300.323 291.439 300.216 291.546C297.849 293.755 294.699 295.02 291.504 295.593C291.332 295.624 291.16 295.656 290.984 295.689C285.463 296.524 279.422 295.746 274.838 292.526C270.158 289.058 267.992 283.716 267.234 278.203C267.094 277.132 267.021 276.075 267.015 274.996C267.014 274.792 267.014 274.792 267.012 274.585C266.979 268.878 266.979 268.878 267.482 266.473C267.511 266.332 267.54 266.19 267.569 266.044C268.637 260.991 270.911 256.087 275.456 253.078C278.009 251.462 280.895 250.464 283.933 250.155C284.184 250.129 284.184 250.129 284.439 250.102C289.968 249.654 295.553 250.614 299.802 254.234ZM280.694 260.684C277.035 265.032 276.982 271.616 277.491 276.918C277.822 279.942 278.563 283.749 281.021 285.886C283.119 287.492 285.354 288.178 288.037 287.917C290.108 287.674 292.064 286.766 293.396 285.183C296.973 280.329 296.991 273.165 296.039 267.515C295.466 264.452 294.425 261.563 291.839 259.557C288.45 257.313 283.523 257.792 280.694 260.684Z" fill="#2C71B8"/>
<path d="M339.953 254.434C342.093 256.516 343.416 259.256 343.563 262.288C343.635 266.803 343.083 270.613 339.909 274.014C339.222 274.722 338.509 275.38 337.724 275.972C337.914 276.601 338.155 277.174 338.442 277.763C338.508 277.898 338.508 277.898 338.575 278.035C338.719 278.331 338.864 278.627 339.009 278.922C339.111 279.131 339.212 279.34 339.314 279.548C339.528 279.986 339.742 280.424 339.957 280.862C340.228 281.414 340.498 281.967 340.768 282.521C342.168 285.393 342.168 285.393 343.615 288.241C344.241 289.449 344.841 290.67 345.439 291.893C345.637 292.296 345.835 292.699 346.034 293.102C346.16 293.36 346.287 293.618 346.413 293.876C346.472 293.995 346.531 294.115 346.592 294.238C346.646 294.349 346.7 294.459 346.755 294.573C346.803 294.67 346.85 294.767 346.899 294.867C347 295.126 347 295.126 347 295.552C343.74 295.93 340.428 296.037 337.17 295.552C337.079 295.539 336.987 295.526 336.893 295.512C336.616 295.41 336.616 295.41 336.457 295.174C336.414 295.071 336.372 294.968 336.328 294.862C336.278 294.745 336.228 294.628 336.177 294.507C336.125 294.379 336.073 294.25 336.02 294.118C335.964 293.985 335.908 293.852 335.851 293.715C335.668 293.279 335.489 292.841 335.31 292.404C335.184 292.101 335.057 291.798 334.931 291.496C334.681 290.896 334.431 290.295 334.183 289.694C333.777 288.712 333.363 287.733 332.947 286.755C332.808 286.427 332.67 286.098 332.531 285.77C331.892 284.259 331.251 282.749 330.611 281.239C330.522 281.03 330.522 281.03 330.432 280.817C330.316 280.544 330.2 280.271 330.084 279.998C329.973 279.735 329.862 279.473 329.751 279.21C329.497 278.61 329.241 278.013 328.975 277.42C328.928 277.315 328.882 277.211 328.834 277.103C328.749 276.91 328.662 276.719 328.574 276.527C328.413 276.164 328.303 275.9 328.341 275.498C328.482 275.187 328.645 275.078 328.924 274.89C331.562 272.949 333.018 269.901 333.665 266.706C333.844 264.547 333.701 262.267 332.324 260.507C331.2 259.211 329.581 258.39 327.894 258.237C326.845 258.176 325.898 258.159 324.881 258.453C324.744 258.492 324.608 258.531 324.468 258.572C324.365 258.602 324.262 258.632 324.156 258.663C324.156 258.741 324.156 258.818 324.156 258.898C324.159 263.499 324.161 268.099 324.163 272.7C324.163 273.251 324.163 273.803 324.163 274.355C324.163 274.465 324.163 274.575 324.163 274.688C324.164 276.469 324.165 278.25 324.166 280.031C324.168 281.858 324.168 283.684 324.169 285.51C324.169 286.638 324.169 287.766 324.171 288.894C324.171 289.757 324.171 290.62 324.171 291.484C324.171 291.839 324.172 292.194 324.172 292.549C324.173 293.032 324.173 293.515 324.172 293.998C324.173 294.14 324.173 294.283 324.173 294.43C324.173 294.558 324.173 294.686 324.173 294.818C324.173 294.93 324.173 295.042 324.173 295.156C324.156 295.41 324.156 295.41 324.017 295.552C321.321 296.149 317.852 296.149 315.156 295.552C315.018 295.41 315.018 295.41 315.001 295.106C315.001 294.971 315.001 294.836 315.001 294.696C315.001 294.541 315 294.386 315 294.225C315 294.052 315.001 293.88 315.001 293.701C315.001 293.519 315.001 293.337 315.001 293.15C315.001 292.642 315.001 292.134 315.002 291.627C315.002 291.08 315.002 290.534 315.002 289.987C315.002 289.04 315.002 288.092 315.003 287.144C315.004 285.774 315.005 284.404 315.005 283.034C315.005 280.811 315.006 278.588 315.007 276.365C315.009 274.205 315.01 272.045 315.01 269.886C315.01 269.753 315.01 269.619 315.01 269.482C315.011 268.815 315.011 268.148 315.011 267.48C315.012 261.94 315.015 256.4 315.018 250.859C315.66 250.781 316.303 250.703 316.945 250.625C317.163 250.598 317.381 250.572 317.599 250.545C320.711 250.165 320.711 250.165 322.04 250.105C322.238 250.096 322.238 250.096 322.44 250.087C322.572 250.082 322.704 250.076 322.84 250.07C322.973 250.064 323.105 250.058 323.241 250.052C328.924 249.803 335.547 250.324 339.953 254.434Z" fill="#2C70B8"/>
<path d="M127.133 250.481C127.187 250.656 127.242 250.831 127.297 251.011C129.019 256.575 130.748 262.137 132.478 267.698C132.534 267.879 132.59 268.059 132.648 268.246C133.261 270.216 133.874 272.187 134.488 274.157C134.84 275.289 135.193 276.422 135.545 277.554C135.596 277.717 135.647 277.881 135.699 278.049C135.954 278.87 136.21 279.691 136.465 280.512C136.938 282.03 137.41 283.548 137.883 285.065C138.102 285.77 138.321 286.474 138.54 287.178C138.643 287.508 138.746 287.838 138.848 288.168C138.897 288.324 138.945 288.479 138.995 288.638C139.066 288.868 139.066 288.868 139.139 289.102C139.233 289.403 139.326 289.704 139.42 290.005C139.669 290.807 139.919 291.608 140.173 292.409C140.226 292.58 140.28 292.751 140.335 292.926C140.439 293.255 140.543 293.583 140.647 293.912C140.717 294.133 140.717 294.133 140.788 294.358C140.829 294.488 140.87 294.618 140.912 294.752C141 295.101 141 295.101 141 295.675C139.262 295.957 137.53 295.993 135.773 295.997C135.607 295.998 135.607 295.998 135.438 296C133.944 296.007 132.51 295.911 131.033 295.675C130.674 294.64 130.373 293.597 130.084 292.541C130.036 292.369 129.989 292.196 129.94 292.018C129.815 291.563 129.69 291.108 129.566 290.653C129.464 290.281 129.361 289.908 129.258 289.536C129.136 289.091 129.014 288.646 128.892 288.201C128.846 288.034 128.8 287.867 128.753 287.695C128.711 287.541 128.669 287.387 128.625 287.229C128.588 287.093 128.551 286.958 128.513 286.818C128.433 286.492 128.433 286.492 128.433 286.205C128.347 286.23 128.26 286.255 128.171 286.28C123.357 287.64 118.661 287.944 113.844 286.349C113.813 286.473 113.782 286.598 113.75 286.726C113.621 287.239 113.492 287.752 113.362 288.265C113.296 288.526 113.231 288.788 113.165 289.05C112.941 289.949 112.711 290.847 112.476 291.744C112.395 292.06 112.314 292.377 112.236 292.693C112.121 293.156 112 293.617 111.878 294.077C111.844 294.219 111.81 294.361 111.775 294.507C111.674 294.877 111.579 295.197 111.389 295.531C110.884 295.76 110.884 295.76 110.378 295.818C110.212 295.847 110.047 295.876 109.877 295.906C108.917 296.01 107.947 295.99 106.983 295.988C106.829 295.988 106.829 295.988 106.671 295.989C102.916 295.986 102.916 295.986 102 295.531C102.084 294.845 102.222 294.216 102.433 293.558C102.462 293.466 102.492 293.374 102.522 293.279C102.619 292.974 102.717 292.67 102.815 292.366C102.885 292.149 102.954 291.931 103.024 291.713C103.173 291.248 103.322 290.782 103.472 290.317C103.709 289.577 103.946 288.837 104.182 288.097C104.222 287.973 104.261 287.849 104.302 287.721C104.383 287.469 104.463 287.217 104.544 286.965C104.665 286.584 104.787 286.204 104.909 285.823C105.608 283.636 106.299 281.446 106.987 279.255C107.251 278.414 107.515 277.572 107.779 276.731C107.809 276.638 107.838 276.545 107.868 276.45C108.569 274.22 109.274 271.991 109.98 269.763C110.278 268.82 110.577 267.876 110.875 266.933C110.908 266.83 110.941 266.726 110.975 266.619C111.723 264.256 112.469 261.894 113.215 259.531C113.34 259.135 113.465 258.739 113.59 258.344C113.679 258.06 113.769 257.777 113.858 257.494C113.973 257.13 114.088 256.766 114.204 256.402C114.468 255.568 114.728 254.733 114.978 253.894C115.094 253.504 115.211 253.115 115.329 252.725C115.411 252.452 115.49 252.178 115.569 251.903C115.619 251.739 115.668 251.576 115.72 251.407C115.762 251.262 115.805 251.118 115.848 250.969C116.011 250.625 116.011 250.625 116.298 250.436C116.624 250.326 116.917 250.278 117.26 250.247C117.392 250.235 117.524 250.223 117.659 250.21C117.871 250.194 117.871 250.194 118.088 250.176C118.309 250.158 118.309 250.158 118.535 250.14C121.362 249.929 124.347 249.895 127.133 250.481ZM121.211 258.229C121.153 258.451 121.153 258.451 121.093 258.679C120.717 260.114 120.34 261.549 119.963 262.984C119.764 263.744 119.565 264.504 119.365 265.263C117.799 271.239 117.799 271.239 117.136 273.698C117.061 273.976 116.986 274.254 116.911 274.532C116.693 275.342 116.474 276.151 116.253 276.96C116.178 277.237 116.103 277.514 116.029 277.791C115.995 277.913 115.961 278.035 115.926 278.161C115.743 278.811 115.743 278.811 115.867 279.462C119.274 281.034 123.242 280.448 126.7 279.462C126.565 278.919 126.431 278.375 126.296 277.831C126.253 277.655 126.209 277.48 126.164 277.299C125.916 276.295 125.667 275.292 125.418 274.289C125.31 273.854 125.202 273.419 125.094 272.984C125.066 272.872 125.039 272.761 125.01 272.646C124.639 271.149 124.269 269.653 123.901 268.156C123.638 267.085 123.374 266.013 123.109 264.942C122.947 264.286 122.786 263.629 122.625 262.973C122.472 262.35 122.319 261.728 122.165 261.106C122.108 260.876 122.051 260.645 121.995 260.414C121.918 260.098 121.84 259.783 121.761 259.467C121.718 259.289 121.674 259.112 121.629 258.929C121.531 258.502 121.531 258.502 121.211 258.229Z" fill="#2D71B8"/>
<path d="M355 250C363.337 250 371.674 250 380.264 250C380.463 251.457 380.587 252.711 380.578 254.153C380.579 254.327 380.58 254.502 380.581 254.681C380.579 255.988 380.432 257.151 380.264 258.47C375.059 258.47 369.854 258.47 364.491 258.47C364.491 261.506 364.491 264.542 364.491 267.67C368.591 267.67 372.69 267.67 376.914 267.67C377.224 269.127 377.36 270.442 377.359 271.923C377.359 272.069 377.359 272.216 377.359 272.367C377.338 275.253 377.338 275.253 376.914 276.14C372.815 276.14 368.715 276.14 364.491 276.14C364.491 279.899 364.491 283.657 364.491 287.53C369.835 287.53 375.178 287.53 380.683 287.53C380.997 289.505 380.997 289.505 380.999 290.441C380.999 290.541 380.999 290.641 381 290.744C381 290.953 380.999 291.161 380.998 291.369C380.997 291.682 380.998 291.995 381 292.307C381 292.513 380.999 292.718 380.999 292.924C380.999 293.104 380.998 293.285 380.998 293.472C380.949 294.32 380.806 295.16 380.683 296C372.207 296 363.732 296 355 296C355 280.82 355 265.64 355 250Z" fill="#2D71B8"/>
<path d="M225.376 251.416C225.074 253.992 224.284 256.467 223.39 258.889C222.638 258.798 222.003 258.549 221.306 258.269C218.071 257.019 214.032 256.338 210.718 257.632C209.483 258.193 208.739 258.907 208.209 260.182C207.83 261.7 208.035 263.133 208.792 264.488C210.127 266.334 213.205 267.151 215.212 267.964C219.677 269.775 224.118 271.592 226.21 276.269C226.861 278.028 227.015 279.781 226.999 281.64C226.998 281.795 226.998 281.795 226.998 281.953C226.975 285.634 225.945 288.791 223.363 291.475C219.474 295.359 213.896 296.028 208.696 295.999C204.631 295.96 200.796 295.118 197 293.666C197.077 292.568 197.274 291.522 197.523 290.451C197.561 290.289 197.598 290.127 197.636 289.96C197.883 288.912 198.152 287.873 198.454 286.84C198.489 286.72 198.524 286.6 198.56 286.476C198.808 285.655 198.808 285.655 199.128 285.331C199.244 285.372 199.359 285.412 199.478 285.454C204.157 287.086 209.419 288.735 214.216 286.544C215.241 285.982 215.882 285.282 216.296 284.182C216.354 284.03 216.413 283.879 216.473 283.723C216.791 282.087 216.587 280.609 215.71 279.188C214.267 277.356 211.572 276.706 209.492 275.928C205.952 274.603 205.952 274.603 204.378 273.691C204.165 273.568 204.165 273.568 203.947 273.443C202.998 272.864 202.188 272.177 201.398 271.392C201.289 271.284 201.179 271.176 201.066 271.065C198.553 268.437 198.194 265.098 198.238 261.595C198.302 258.244 199.636 255.237 201.997 252.889C208.031 247.172 218.383 248.726 225.376 251.416Z" fill="#2D71B8"/>
<path d="M230.476 250C241.427 250 252.378 250 263.66 250C263.997 251.961 263.997 251.961 263.999 252.891C263.999 252.99 263.999 253.089 264 253.192C264 253.399 263.999 253.606 263.998 253.813C263.997 254.123 263.998 254.434 264 254.744C264 254.948 263.999 255.152 263.999 255.356C263.998 255.536 263.998 255.715 263.998 255.9C263.946 256.743 263.792 257.577 263.66 258.411C259.862 258.411 256.064 258.411 252.151 258.411C252.151 270.663 252.151 282.915 252.151 295.538C250.444 295.905 248.87 296.002 247.134 296C247.028 296 246.921 296 246.812 296C242.934 295.998 242.934 295.998 241.986 295.538C241.986 283.286 241.986 271.034 241.986 258.411C238.188 258.411 234.39 258.411 230.476 258.411C230.104 256.965 229.999 255.665 230 254.179C230 254.019 230 253.86 230 253.696C230.02 250.885 230.02 250.885 230.476 250Z" fill="#2D71B8"/>
<path d="M400.025 203.005C400.118 203.003 400.21 203.002 400.306 203C400.714 203.112 400.878 203.326 401.147 203.659C401.249 204.032 401.249 204.032 401.295 204.456C401.323 204.693 401.323 204.693 401.353 204.935C401.372 205.104 401.39 205.274 401.41 205.448C402.395 213.133 406.173 220.119 412.135 224.851C416.461 228.206 421.573 230.276 426.968 230.742C427.451 230.858 427.63 231.01 427.926 231.419C428 231.709 428 231.709 427.996 232C427.998 232.144 427.998 232.144 428 232.291C427.892 232.713 427.684 232.883 427.365 233.163C427.011 233.271 427.011 233.271 426.611 233.321C426.463 233.342 426.315 233.362 426.162 233.383C426.004 233.404 425.845 233.424 425.682 233.444C420.048 234.256 414.984 236.551 410.681 240.43C410.602 240.5 410.524 240.57 410.444 240.643C405.101 245.482 401.782 252.582 401.238 259.899C401.13 260.422 400.999 260.608 400.586 260.923C400.306 261 400.306 261 400.025 260.995C399.887 260.998 399.887 260.998 399.745 261C399.334 260.887 399.174 260.679 398.904 260.341C398.789 259.924 398.789 259.924 398.725 259.438C398.687 259.169 398.687 259.169 398.648 258.895C398.636 258.801 398.623 258.706 398.61 258.609C397.594 251.046 393.937 243.991 388.056 239.294C383.808 235.99 378.892 233.91 373.604 233.312C372.524 233.181 372.524 233.181 372.125 232.727C371.979 232.18 371.942 231.841 372.116 231.301C372.726 230.631 373.875 230.63 374.722 230.504C377.52 230.084 380.074 229.3 382.64 228.076C382.737 228.031 382.833 227.985 382.933 227.939C385.057 226.933 387.042 225.589 388.809 224.006C388.919 223.909 389.028 223.811 389.141 223.711C389.504 223.38 389.858 223.041 390.211 222.698C390.315 222.598 390.315 222.598 390.421 222.496C395.352 217.698 398.141 210.916 398.812 204.001C398.985 203.356 399.376 202.994 400.025 203.005ZM399.885 217.466C399.812 217.607 399.739 217.748 399.663 217.893C398.566 219.977 397.32 221.918 395.819 223.716C395.725 223.829 395.631 223.943 395.534 224.06C394.003 225.867 392.369 227.531 390.492 228.948C390.416 229.005 390.341 229.062 390.263 229.121C388.925 230.128 387.5 231.116 386.005 231.855C386.005 231.951 386.005 232.047 386.005 232.145C386.158 232.228 386.311 232.311 386.468 232.397C392.233 235.585 396.845 240.556 399.885 246.534C400.213 246.22 400.431 245.908 400.651 245.506C400.716 245.389 400.781 245.272 400.848 245.152C400.953 244.964 400.953 244.964 401.059 244.772C402.968 241.411 405.479 238.335 408.437 235.924C408.572 235.811 408.707 235.697 408.847 235.581C410.429 234.277 412.145 233.172 413.905 232.145C413.709 231.536 413.304 231.417 412.784 231.137C407.705 228.288 403.568 223.801 400.726 218.629C400.499 218.236 400.267 217.85 400.025 217.466C399.979 217.466 399.933 217.466 399.885 217.466Z" fill="#FAB427"/>
<path d="M72.3297 250C83.0021 250 93.6745 250 104.67 250C104.856 251.39 105.007 252.658 104.997 254.041C104.998 254.191 104.999 254.34 105 254.494C104.997 255.833 104.83 257.054 104.67 258.409C100.937 258.409 97.2044 258.409 93.3583 258.409C93.3591 259.533 93.3599 260.656 93.3606 261.814C93.363 265.405 93.3646 268.996 93.3657 272.587C93.3659 273.144 93.3661 273.702 93.3663 274.259C93.3664 274.425 93.3664 274.425 93.3664 274.595C93.3671 276.394 93.3682 278.193 93.3695 279.992C93.3709 281.837 93.3717 283.682 93.372 285.526C93.3722 286.665 93.3728 287.805 93.374 288.944C93.3748 289.816 93.3749 290.688 93.3747 291.56C93.3748 291.919 93.3751 292.277 93.3756 292.636C93.3763 293.124 93.3762 293.611 93.3758 294.099C93.3764 294.315 93.3764 294.315 93.3771 294.535C93.3768 294.665 93.3765 294.794 93.3762 294.928C93.3762 295.041 93.3763 295.153 93.3763 295.269C93.3583 295.525 93.3583 295.525 93.2133 295.67C91.7477 295.926 90.286 296.007 88.8006 295.998C88.5 295.997 88.1995 295.998 87.8989 296C86.5153 296.001 85.1512 295.908 83.7867 295.67C83.6417 295.525 83.6417 295.525 83.6236 295.269C83.6237 295.157 83.6238 295.044 83.6238 294.928C83.6235 294.798 83.6232 294.669 83.6229 294.535C83.6234 294.391 83.6238 294.247 83.6242 294.099C83.6241 293.947 83.624 293.795 83.6238 293.639C83.6236 293.127 83.6244 292.614 83.6252 292.102C83.6252 291.736 83.6252 291.37 83.6251 291.005C83.6251 290.215 83.6255 289.426 83.6263 288.636C83.6275 287.495 83.6279 286.353 83.6281 285.212C83.6284 283.36 83.6293 281.508 83.6307 279.657C83.632 277.857 83.6331 276.058 83.6337 274.259C83.6337 274.148 83.6338 274.037 83.6338 273.923C83.634 273.367 83.6342 272.811 83.6344 272.255C83.6359 267.64 83.6385 263.024 83.6417 258.409C79.9087 258.409 76.1758 258.409 72.3297 258.409C72.0028 256.285 72.0028 256.285 72.0011 255.392C72.0009 255.296 72.0006 255.2 72.0003 255.101C72.0001 254.902 72.0006 254.703 72.0018 254.503C72.0034 254.205 72.0018 253.906 72 253.608C72.0002 253.411 72.0006 253.214 72.0011 253.018C72.0015 252.845 72.0018 252.672 72.0021 252.495C72.0536 251.658 72.2021 250.829 72.3297 250Z" fill="#2C70B8"/>
<path d="M399.92 225C400.026 225 400.132 225 400.241 225C400.436 225.28 400.618 225.569 400.795 225.86C402.27 228.189 404.187 229.872 406.722 231.174C406.813 231.232 406.905 231.289 407 231.349C407 231.449 407 231.548 407 231.651C406.609 231.892 406.216 232.118 405.813 232.341C403.419 233.713 401.463 235.604 400.241 238C399.592 237.797 399.428 237.402 399.095 236.876C398.447 235.894 397.734 235.04 396.862 234.221C396.75 234.116 396.638 234.01 396.523 233.902C395.485 232.984 394.275 232.25 393 231.651C393 231.551 393 231.452 393 231.349C393.281 231.181 393.572 231.026 393.865 230.876C394.841 230.355 395.697 229.777 396.54 229.081C396.661 228.983 396.781 228.884 396.905 228.782C398.015 227.809 398.79 226.65 399.598 225.453C399.704 225.304 399.81 225.154 399.92 225Z" fill="#FAB427"/>
<path d="M273.8 253C273.866 253.047 273.932 253.094 274 253.143C273.34 254.086 272.68 255.029 272 256C272 255.402 272.233 255.153 272.506 254.741C272.556 254.665 272.606 254.588 272.657 254.51C273.017 253.965 273.391 253.468 273.8 253Z" fill="#548CC6"/>
</svg>
