<svg width="500" height="500" viewBox="0 0 500 500" fill="none" xmlns="http://www.w3.org/2000/svg">
<rect width="500" height="500" fill="#F0F0F0"/>
<path fill-rule="evenodd" clip-rule="evenodd" d="M146.62 65H353.38C398.274 65 435 101.726 435 146.62V353.38C435 398.274 398.274 435 353.38 435H146.62C101.726 435 65 398.274 65 353.38V146.62C65 101.726 101.726 65 146.62 65Z" fill="white"/>
<path fill-rule="evenodd" clip-rule="evenodd" d="M284.282 126.996H289.353H345.763V182.18H289.353V289.697C289.353 306.976 275.216 321.112 257.937 321.112H226.524V158.412C226.524 141.132 240.659 126.996 257.937 126.996H284.282ZM185.651 126.997H235.399L234.526 127.445L233.048 128.295L231.622 129.214L230.238 130.197L228.909 131.247L227.631 132.356L226.408 133.519L225.237 134.745L224.13 136.02L223.08 137.352L222.1 138.738L221.178 140.166L220.333 141.64L219.543 143.161L218.837 144.718L218.204 146.319L217.65 147.957L217.174 149.625L216.776 151.331L216.464 153.063L216.239 154.821L216.103 156.607L216.059 158.362V182.177H154.237V158.407C154.237 141.132 168.374 126.997 185.651 126.997Z" fill="#183884"/>
<path d="M176.609 354.216H164.965V385.631H155.354V354.216H143.718V346.69H176.609V354.216ZM205.599 385.631H178.646V346.69H205.599V354.216H188.206V360.938H204.344V368.472H188.206V378.096H205.599V385.631ZM248.985 385.631H239.425V359.554L232.514 376.48H225.885L218.974 359.554V385.631H209.918V346.69H221.075L229.464 366.223L237.82 346.69H248.985V385.631ZM285.511 358.983C285.511 360.724 285.221 362.428 284.639 364.089C284.05 365.759 283.222 367.16 282.136 368.294C280.65 369.821 278.993 370.982 277.165 371.767C275.337 372.552 273.064 372.946 270.348 372.946H264.367V385.631H254.756V346.69H270.57C272.944 346.69 274.935 346.904 276.566 347.324C278.19 347.752 279.634 348.395 280.881 349.252C282.384 350.278 283.529 351.59 284.324 353.198C285.119 354.805 285.511 356.733 285.511 358.983ZM275.576 359.215C275.576 358.117 275.293 357.171 274.73 356.376C274.158 355.582 273.499 355.028 272.748 354.715C271.749 354.296 270.774 354.064 269.818 354.02C268.869 353.983 267.605 353.957 266.016 353.957H264.367V365.625H267.118C268.75 365.625 270.1 365.518 271.159 365.313C272.218 365.098 273.107 364.679 273.824 364.054C274.439 363.492 274.892 362.83 275.165 362.054C275.439 361.277 275.576 360.331 275.576 359.215ZM321.208 371.535C321.208 376.347 319.807 380.034 317.005 382.596C314.202 385.158 310.068 386.443 304.618 386.443C299.158 386.443 295.032 385.158 292.238 382.596C289.445 380.034 288.044 376.356 288.044 371.562V346.69H297.706V370.982C297.706 373.686 298.244 375.704 299.33 377.026C300.414 378.355 302.174 379.016 304.618 379.016C307.018 379.016 308.769 378.373 309.88 377.106C310.99 375.829 311.546 373.793 311.546 370.982V346.69H321.208V371.535ZM356.282 373.392C356.282 377.231 354.727 380.346 351.609 382.738C348.498 385.14 344.278 386.337 338.939 386.337C335.846 386.337 333.156 386.051 330.866 385.488C328.568 384.917 326.424 384.202 324.416 383.328V373.99H325.466C327.457 375.65 329.678 376.918 332.138 377.811C334.599 378.703 336.965 379.141 339.238 379.141C339.819 379.141 340.588 379.096 341.536 378.99C342.493 378.882 343.262 378.713 343.868 378.462C344.603 378.15 345.201 377.758 345.679 377.284C346.157 376.82 346.397 376.123 346.397 375.195C346.397 374.338 346.046 373.606 345.355 372.981C344.663 372.365 343.646 371.892 342.313 371.562C340.913 371.213 339.435 370.883 337.871 370.58C336.307 370.276 334.847 369.883 333.48 369.419C330.344 368.348 328.089 366.91 326.705 365.089C325.33 363.268 324.646 361.001 324.646 358.295C324.646 354.671 326.202 351.716 329.311 349.421C332.421 347.127 336.428 345.984 341.314 345.984C343.766 345.984 346.192 346.226 348.583 346.725C350.977 347.225 353.052 347.85 354.803 348.6V357.563H353.778C352.275 356.314 350.438 355.26 348.258 354.412C346.081 353.573 343.86 353.144 341.587 353.144C340.784 353.144 339.99 353.207 339.195 353.314C338.409 353.431 337.64 353.644 336.905 353.957C336.256 354.216 335.701 354.618 335.231 355.144C334.761 355.68 334.531 356.287 334.531 356.965C334.531 357.991 334.906 358.786 335.659 359.331C336.41 359.885 337.829 360.384 339.913 360.839C341.28 361.134 342.596 361.42 343.851 361.696C345.115 361.983 346.465 362.366 347.918 362.848C350.771 363.83 352.882 365.161 354.239 366.839C355.598 368.517 356.282 370.705 356.282 373.392Z" fill="#183884"/>
<path d="M147.965 81.375H352.036H352.044V81.4052C370.379 81.4077 387.029 88.8878 399.072 100.933C411.113 112.975 418.591 129.617 418.595 147.949H418.626V147.966V352.037V352.044H418.595C418.593 370.38 411.113 387.03 399.068 399.073C387.025 411.113 370.384 418.592 352.052 418.596V418.626H352.036H147.965H147.957V418.596C129.619 418.594 112.971 411.113 100.928 399.069C88.886 387.025 81.4089 370.384 81.4046 352.053H81.3738V352.037V147.966V147.958H81.4046C81.4071 129.621 88.886 112.972 100.933 100.928C112.975 88.8854 129.618 81.4095 147.948 81.4052V81.375H147.965ZM352.036 96.8231H147.965H147.948V96.7923C133.921 96.7954 121.141 102.561 111.854 111.849C102.562 121.138 96.7929 133.924 96.7917 147.958H96.8225V147.966V352.037V352.053H96.7917C96.7948 366.08 102.563 378.861 111.848 388.148C121.138 397.439 133.924 403.208 147.957 403.209V403.178H147.965H352.036H352.052V403.209C366.079 403.206 378.86 397.438 388.148 388.152C397.438 378.863 403.207 366.077 403.208 352.044H403.178V352.037V147.966V147.949H403.208C403.205 133.921 397.437 121.14 388.152 111.853C378.862 102.562 366.076 96.7935 352.044 96.7923V96.8231H352.036Z" fill="#00ABD3"/>
</svg>
