<svg width="500" height="500" viewBox="0 0 500 500" fill="none" xmlns="http://www.w3.org/2000/svg">
<rect width="500" height="500" fill="#E5E5E5"/>
<path fill-rule="evenodd" clip-rule="evenodd" d="M0 0H500V500H0V0Z" fill="#F0F0F0"/>
<path d="M203.305 182.905L314.966 247.76V215.11C314.966 199.856 307.99 186.436 296.661 179.837L185 115V147.633C185 162.887 191.976 176.324 203.305 182.905Z" fill="#00A4DE"/>
<path d="M225.774 264.643L315 316.677V284.045C315 268.791 306.893 254.685 293.73 247.007L204.504 194.973V227.606C204.504 242.859 212.594 256.965 225.774 264.643Z" fill="#EE2D34"/>
<path d="M257.31 351.315L314.966 384.942V352.309C314.966 337.055 306.859 322.95 293.696 315.271L236.04 281.645V314.277C236.04 329.531 244.147 343.637 257.31 351.315Z" fill="#4BB148"/>
</svg>
