<svg width="500" height="500" viewBox="0 0 500 500" fill="none" xmlns="http://www.w3.org/2000/svg">
<rect width="500" height="500" fill="#F0F0F0"/>
<path d="M220.495 128.476L206.065 128.426C205.971 128.425 205.878 128.442 205.79 128.477C205.703 128.512 205.624 128.564 205.557 128.63C205.49 128.696 205.436 128.775 205.4 128.862C205.364 128.949 205.345 129.042 205.345 129.136V155.406C205.345 155.538 205.292 155.666 205.199 155.759C205.105 155.853 204.978 155.906 204.845 155.906H178.605C178.258 155.906 178.082 156.079 178.075 156.426L177.795 171.166" stroke="#80C1DF" stroke-width="2"/>
<path d="M177.795 171.164L167.775 181.204C167.522 181.457 167.522 181.707 167.775 181.954L186.285 200.464C186.572 200.757 186.572 201.051 186.285 201.344L167.785 219.844C167.728 219.902 167.682 219.971 167.652 220.046C167.621 220.121 167.605 220.201 167.605 220.282C167.605 220.363 167.621 220.443 167.652 220.517C167.682 220.591 167.728 220.658 167.785 220.714L177.405 230.344C177.785 230.717 178.162 230.717 178.535 230.344L207.545 201.334C207.818 201.054 207.818 200.777 207.545 200.504L178.295 171.234" stroke="#9299BD" stroke-width="2"/>
<path d="M178.295 171.236C179.115 170.106 180.455 170.896 181.415 170.896C194.135 170.923 206.955 170.923 219.875 170.896C220.215 170.89 220.385 170.72 220.385 170.386L220.395 128.906" stroke="#80C1DF" stroke-width="2"/>
<path d="M220.395 128.904C220.955 128.817 221.365 128.961 221.625 129.334C221.918 129.767 222.082 130.001 222.115 130.034C231.335 139.301 240.645 148.607 250.045 157.954C250.298 158.207 250.555 158.207 250.815 157.954C260.688 148.327 270.398 138.601 279.945 128.774C280.032 128.767 280.168 128.677 280.355 128.504" stroke="#C6DBF0" stroke-width="2"/>
<path d="M280.355 128.504L280.605 170.344C280.605 170.704 280.782 170.884 281.135 170.884L322.915 170.894" stroke="#BCE1A7" stroke-width="2"/>
<path d="M322.915 170.895L293.395 200.485C293.109 200.771 293.109 201.058 293.395 201.345L322.415 230.325C322.515 230.418 322.535 230.528 322.475 230.655C322.442 230.728 322.395 230.808 322.335 230.895" stroke="#FED993" stroke-width="2"/>
<path d="M322.335 230.895H281.135C280.992 230.895 280.854 230.951 280.753 231.053C280.652 231.154 280.595 231.291 280.595 231.435V271.655C280.595 271.968 280.492 272.241 280.285 272.475L279.945 272.865" stroke="#F7BD91" stroke-width="2"/>
<path d="M279.945 272.863L250.875 243.803C250.622 243.55 250.368 243.55 250.115 243.803L221.135 272.723" stroke="#F79AA1" stroke-width="2"/>
<path d="M221.135 272.726C221.008 272.7 220.882 272.673 220.755 272.646C220.482 272.6 220.345 272.44 220.345 272.166V231.406C220.345 231.073 220.178 230.906 219.845 230.906H178.595C178.262 230.906 178.095 231.073 178.095 231.406V245.406C178.095 245.74 178.262 245.906 178.595 245.906H204.845C205.178 245.906 205.345 246.073 205.345 246.406V272.686C205.345 272.768 205.361 272.848 205.392 272.924C205.423 272.999 205.469 273.067 205.527 273.125C205.584 273.182 205.652 273.228 205.728 273.259C205.803 273.29 205.884 273.306 205.965 273.306L220.395 273.326" stroke="#D59594" stroke-width="2"/>
<path d="M220.395 273.326L230.635 283.546C230.888 283.799 231.142 283.799 231.395 283.546L250.075 265.026C250.328 264.773 250.582 264.773 250.835 265.026L269.425 283.606C269.712 283.899 269.998 283.899 270.285 283.606L280.345 273.226" stroke="#F79AA1" stroke-width="2"/>
<path d="M280.345 273.226L294.665 273.356C294.787 273.357 294.907 273.334 295.02 273.288C295.133 273.243 295.235 273.175 295.322 273.09C295.408 273.004 295.477 272.902 295.524 272.79C295.571 272.678 295.595 272.557 295.595 272.436V246.406C295.595 246.273 295.648 246.146 295.741 246.052C295.835 245.958 295.962 245.906 296.095 245.906H322.345C322.665 245.906 322.822 245.746 322.815 245.426L322.805 231.016" stroke="#F7BD91" stroke-width="2"/>
<path d="M322.805 231.015L333.175 220.555C333.271 220.457 333.324 220.324 333.323 220.185C333.321 220.047 333.264 219.913 333.165 219.815L314.645 201.375C314.345 201.075 314.345 200.775 314.645 200.475L333.025 181.765C333.278 181.511 333.278 181.258 333.025 181.005L322.915 170.895" stroke="#FED993" stroke-width="2"/>
<path d="M322.915 170.895L322.845 156.405C322.838 156.072 322.668 155.905 322.335 155.905H296.165C295.705 155.905 295.475 155.679 295.475 155.225L295.535 128.885C295.535 128.592 295.388 128.445 295.095 128.445L280.355 128.505" stroke="#BCE1A7" stroke-width="2"/>
<path d="M280.355 128.505L270.195 118.205C269.935 117.945 269.675 117.945 269.415 118.205L250.785 136.845C250.578 137.052 250.368 137.052 250.155 136.845L231.515 118.205C231.242 117.932 230.972 117.932 230.705 118.205L220.495 128.475" stroke="#C6DBF0" stroke-width="2"/>
<path d="M220.395 128.907C220.615 129.153 220.648 129.01 220.495 128.477" stroke="#479DD0" stroke-width="2"/>
<path d="M178.295 171.235C178.082 171.129 177.915 171.105 177.795 171.165" stroke="#135B9D" stroke-width="2"/>
<path d="M322.805 231.015C322.812 230.935 322.655 230.895 322.335 230.895" stroke="#F59725" stroke-width="2"/>
<path d="M280.345 273.226C280.025 272.666 279.892 272.546 279.945 272.866" stroke="#EE5733" stroke-width="2"/>
<path d="M221.135 272.727C220.695 272.92 220.448 273.12 220.395 273.327" stroke="#CD3035" stroke-width="2"/>
<path d="M309.485 329.334C309.485 323.743 307.264 318.381 303.311 314.428C299.358 310.475 293.996 308.254 288.405 308.254C282.814 308.254 277.452 310.475 273.499 314.428C269.546 318.381 267.325 323.743 267.325 329.334C267.325 334.925 269.546 340.286 273.499 344.24C277.452 348.193 282.814 350.414 288.405 350.414C293.996 350.414 299.358 348.193 303.311 344.24C307.264 340.286 309.485 334.925 309.485 329.334Z" stroke="#8F8AA2" stroke-width="2"/>
<path d="M231.595 332.893C235.345 333.233 238.265 338.003 234.815 340.713C229.515 344.873 221.085 341.443 216.465 337.293C216.402 337.24 216.322 337.211 216.241 337.213C216.159 337.214 216.082 337.247 216.025 337.303L211.525 341.883C211.232 342.183 211.208 342.503 211.455 342.843C217.265 350.783 228.795 352.013 237.365 348.623C246.835 344.893 247.655 331.993 239.115 327.433C235.595 325.543 230.615 325.063 226.335 324.433C219.995 323.503 219.645 317.343 225.845 316.223C230.065 315.463 233.838 316.337 237.165 318.843C237.452 319.063 237.732 319.053 238.005 318.813L242.675 314.743C242.73 314.696 242.774 314.639 242.806 314.575C242.838 314.511 242.857 314.441 242.862 314.369C242.867 314.297 242.857 314.225 242.833 314.157C242.81 314.089 242.773 314.027 242.725 313.973C235.715 305.993 214.735 305.833 212.935 318.493C211.205 330.573 222.565 332.063 231.595 332.893Z" stroke="#8F8AA2" stroke-width="2"/>
<path d="M181.235 309.656C181.175 309.656 181.116 309.674 181.066 309.708C181.016 309.742 180.977 309.79 180.955 309.846L170.135 338.176C170.113 338.233 170.075 338.282 170.025 338.316C169.975 338.35 169.916 338.369 169.855 338.369C169.794 338.369 169.735 338.35 169.685 338.316C169.635 338.282 169.597 338.233 169.575 338.176L158.805 309.846C158.783 309.79 158.744 309.742 158.694 309.708C158.644 309.674 158.585 309.656 158.525 309.656H149.305C149.255 309.655 149.205 309.667 149.161 309.691C149.116 309.714 149.078 309.748 149.05 309.79C149.023 309.832 149.006 309.88 149.001 309.93C148.997 309.98 149.005 310.03 149.025 310.076L165.355 349.226C165.379 349.281 165.418 349.327 165.468 349.359C165.518 349.391 165.576 349.407 165.635 349.406H174.235C174.295 349.406 174.354 349.388 174.404 349.355C174.454 349.321 174.493 349.272 174.515 349.216L190.685 310.066C190.703 310.021 190.71 309.971 190.704 309.923C190.699 309.874 190.681 309.828 190.654 309.787C190.626 309.747 190.589 309.714 190.546 309.691C190.502 309.668 190.454 309.656 190.405 309.656H181.235Z" stroke="#8F8AA2" stroke-width="2"/>
<path d="M204.595 309.966C204.595 309.884 204.562 309.805 204.504 309.747C204.446 309.689 204.367 309.656 204.285 309.656H196.165C196.124 309.656 196.084 309.664 196.046 309.68C196.009 309.695 195.975 309.718 195.946 309.747C195.917 309.776 195.894 309.81 195.879 309.848C195.863 309.885 195.855 309.926 195.855 309.966V348.846C195.855 348.887 195.863 348.927 195.879 348.965C195.894 349.002 195.917 349.037 195.946 349.065C195.975 349.094 196.009 349.117 196.046 349.133C196.084 349.148 196.124 349.156 196.165 349.156H204.285C204.367 349.156 204.446 349.124 204.504 349.065C204.562 349.007 204.595 348.928 204.595 348.846V309.966Z" stroke="#8F8AA2" stroke-width="2"/>
<path d="M260.595 309.966C260.595 309.884 260.562 309.805 260.504 309.747C260.446 309.689 260.367 309.656 260.285 309.656H252.165C252.083 309.656 252.004 309.689 251.946 309.747C251.888 309.805 251.855 309.884 251.855 309.966V348.846C251.855 348.928 251.888 349.007 251.946 349.065C252.004 349.124 252.083 349.156 252.165 349.156H260.285C260.367 349.156 260.446 349.124 260.504 349.065C260.562 349.007 260.595 348.928 260.595 348.846V309.966Z" stroke="#8F8AA2" stroke-width="2"/>
<path d="M324.815 324.646C324.814 324.596 324.829 324.547 324.858 324.505C324.887 324.464 324.928 324.433 324.976 324.416C325.023 324.4 325.075 324.398 325.123 324.413C325.172 324.427 325.214 324.456 325.245 324.496L344.075 348.756C344.171 348.881 344.294 348.981 344.434 349.051C344.575 349.12 344.729 349.156 344.885 349.156H351.205C351.612 349.156 351.815 348.953 351.815 348.546L351.935 310.046C351.935 309.943 351.894 309.844 351.821 309.77C351.748 309.697 351.648 309.656 351.545 309.656H343.635C343.162 309.656 342.932 309.893 342.945 310.366L343.595 334.936C343.594 334.965 343.585 334.994 343.568 335.018C343.551 335.043 343.528 335.061 343.501 335.071C343.475 335.081 343.446 335.082 343.42 335.074C343.394 335.066 343.371 335.049 343.355 335.026L324.125 310.146C324.006 309.994 323.855 309.871 323.682 309.786C323.508 309.701 323.318 309.657 323.125 309.656H316.605C316.278 309.656 316.115 309.82 316.115 310.146L316.145 348.676C316.145 348.996 316.305 349.156 316.625 349.156H324.645C325.012 349.156 325.192 348.973 325.185 348.606L324.815 324.646Z" stroke="#8F8AA2" stroke-width="2"/>
<path d="M194.595 381.024C195.125 375.444 200.025 377.924 203.825 377.414C203.978 377.394 204.134 377.422 204.271 377.496C204.409 377.569 204.522 377.684 204.595 377.824C205.142 378.911 205.702 379.981 206.275 381.034C206.562 381.554 206.915 381.774 207.335 381.694C207.444 381.672 207.547 381.626 207.636 381.559C207.725 381.492 207.798 381.406 207.848 381.307C207.899 381.208 207.927 381.099 207.93 380.987C207.933 380.876 207.911 380.765 207.865 380.664L201.275 366.374C201.18 366.168 201.027 365.993 200.836 365.871C200.645 365.749 200.422 365.684 200.195 365.684C199.968 365.684 199.746 365.749 199.554 365.871C199.363 365.993 199.21 366.168 199.115 366.374L192.515 380.694C192.465 380.8 192.443 380.917 192.453 381.034C192.462 381.151 192.502 381.264 192.568 381.361C192.635 381.459 192.726 381.538 192.832 381.591C192.938 381.644 193.056 381.669 193.175 381.664L193.975 381.624C194.133 381.615 194.283 381.549 194.397 381.439C194.51 381.329 194.581 381.182 194.595 381.024Z" stroke="#9299BD" stroke-width="2"/>
<path d="M213.835 366.514C203.435 371.484 211.665 386.314 221.975 380.564C222.725 380.144 223.035 379.294 222.635 378.534C222.612 378.491 222.573 378.459 222.526 378.444C222.48 378.429 222.429 378.433 222.385 378.454C219.165 380.094 216.438 380.344 214.205 379.204C206.205 375.124 213.815 362.984 221.755 368.984C221.83 369.041 221.918 369.08 222.011 369.096C222.104 369.112 222.2 369.106 222.29 369.078C222.381 369.049 222.463 368.999 222.529 368.933C222.596 368.866 222.646 368.784 222.675 368.694L222.845 368.124C222.89 367.979 222.886 367.823 222.834 367.682C222.781 367.541 222.683 367.422 222.555 367.344C219.448 365.497 216.542 365.221 213.835 366.514Z" stroke="#9299BD" stroke-width="2"/>
<path d="M236.175 378.215L237.595 381.205C237.815 381.671 238.169 381.828 238.655 381.675L239.095 381.535C239.542 381.395 239.665 381.111 239.465 380.685L232.875 366.445C232.769 366.218 232.601 366.026 232.389 365.891C232.178 365.757 231.932 365.686 231.682 365.688C231.431 365.689 231.187 365.761 230.976 365.897C230.766 366.033 230.599 366.227 230.495 366.455L223.905 380.865C223.665 381.391 223.835 381.655 224.415 381.655H225.035C225.382 381.655 225.625 381.498 225.765 381.185L227.125 378.135C227.272 377.815 227.522 377.655 227.875 377.655H235.295C235.709 377.655 236.002 377.841 236.175 378.215Z" stroke="#9299BD" stroke-width="2"/>
<path d="M242.085 366.806V380.646C242.085 380.927 242.197 381.197 242.395 381.396C242.594 381.594 242.864 381.706 243.145 381.706H248.905C251.064 381.706 253.134 380.877 254.661 379.401C256.187 377.925 257.045 375.923 257.045 373.836V373.616C257.045 371.529 256.187 369.527 254.661 368.051C253.134 366.575 251.064 365.746 248.905 365.746H243.145C242.864 365.746 242.594 365.858 242.395 366.057C242.197 366.255 242.085 366.525 242.085 366.806Z" stroke="#9299BD" stroke-width="2"/>
<path d="M263.005 374.404L269.995 374.394C270.139 374.395 270.278 374.343 270.386 374.247C270.495 374.152 270.566 374.019 270.585 373.874C270.672 373.201 270.425 372.868 269.845 372.874C266.652 372.901 264.332 372.911 262.885 372.904C262.525 372.904 262.345 372.724 262.345 372.364V368.284C262.345 367.864 262.552 367.654 262.965 367.654H270.625C270.824 367.652 271.017 367.589 271.179 367.474C271.341 367.359 271.464 367.198 271.533 367.011C271.601 366.825 271.611 366.622 271.562 366.43C271.512 366.237 271.405 366.065 271.255 365.934C270.868 365.608 270.358 365.478 269.725 365.544C266.895 365.844 263.945 365.764 261.055 365.944C260.762 365.958 260.615 366.114 260.615 366.414L260.605 380.654C260.605 380.919 260.709 381.174 260.895 381.361C261.081 381.549 261.332 381.654 261.595 381.654H271.305C271.672 381.654 271.852 381.468 271.845 381.094C271.845 380.988 271.848 380.874 271.855 380.754C271.868 380.401 271.698 380.221 271.345 380.214L262.895 380.034C262.522 380.028 262.335 379.838 262.335 379.464L262.355 375.054C262.355 374.884 262.423 374.72 262.545 374.598C262.666 374.477 262.832 374.407 263.005 374.404Z" stroke="#8F8AA2" stroke-width="2"/>
<path d="M301.175 373.977C299.762 371.523 298.308 369.1 296.815 366.707C296.415 366.06 295.955 365.717 295.435 365.677C295.325 365.67 295.214 365.694 295.116 365.746C295.018 365.797 294.936 365.874 294.879 365.969C294.821 366.063 294.79 366.172 294.79 366.282C294.789 366.393 294.819 366.502 294.875 366.597L300.415 375.837C300.59 376.123 300.667 376.459 300.635 376.797C300.495 378.223 300.548 379.673 300.795 381.147C300.822 381.358 300.931 381.549 301.099 381.68C301.266 381.81 301.479 381.868 301.69 381.842C301.901 381.815 302.093 381.706 302.223 381.538C302.353 381.37 302.412 381.158 302.385 380.947C301.885 375.157 305.355 371.187 308.325 366.557C308.382 366.47 308.413 366.368 308.413 366.264C308.414 366.16 308.384 366.058 308.328 365.971C308.272 365.883 308.192 365.813 308.098 365.77C308.003 365.727 307.898 365.712 307.795 365.727C307.568 365.753 307.318 365.86 307.045 366.047C306.838 366.18 306.662 366.383 306.515 366.657C305.115 369.197 303.572 371.65 301.885 374.017C301.632 374.37 301.395 374.357 301.175 373.977Z" stroke="#9299BD" stroke-width="2"/>
<path d="M277.285 370.184C277.284 370.133 277.299 370.083 277.33 370.041C277.36 370 277.404 369.97 277.453 369.956C277.503 369.942 277.555 369.946 277.603 369.965C277.65 369.985 277.69 370.02 277.715 370.064L283.045 379.144C283.121 379.273 283.229 379.379 283.359 379.453C283.489 379.527 283.636 379.566 283.785 379.566C283.934 379.566 284.081 379.527 284.211 379.453C284.341 379.379 284.449 379.273 284.525 379.144L289.705 370.224C289.742 370.166 289.797 370.121 289.862 370.097C289.926 370.072 289.997 370.069 290.064 370.089C290.13 370.108 290.189 370.148 290.23 370.203C290.272 370.258 290.295 370.325 290.295 370.394L290.025 380.844C290.02 381.019 290.072 381.19 290.173 381.332C290.274 381.473 290.419 381.576 290.585 381.624C290.952 381.738 291.245 381.718 291.465 381.564C291.672 381.418 291.792 381.108 291.825 380.634C292.125 376.394 292.098 372.154 291.745 367.914C291.725 367.641 291.792 367.394 291.945 367.174C292.212 366.794 292.122 366.374 291.675 365.914C291.581 365.817 291.467 365.743 291.339 365.698C291.212 365.653 291.076 365.638 290.943 365.655C290.809 365.671 290.681 365.719 290.568 365.793C290.456 365.868 290.362 365.967 290.295 366.084L284.105 376.964C284.076 377.019 284.033 377.064 283.98 377.096C283.927 377.128 283.867 377.144 283.805 377.144C283.743 377.144 283.683 377.128 283.63 377.096C283.577 377.064 283.534 377.019 283.505 376.964L277.335 366.174C277.234 365.994 277.075 365.853 276.884 365.773C276.694 365.693 276.482 365.679 276.282 365.733C276.083 365.787 275.907 365.906 275.783 366.071C275.658 366.236 275.592 366.438 275.595 366.644V380.934C275.595 381.421 275.838 381.638 276.325 381.584L276.975 381.524C277.348 381.484 277.528 381.281 277.515 380.914L277.285 370.184Z" stroke="#9299BD" stroke-width="2"/>
<path d="M301.325 329.324C301.325 327.629 300.991 325.95 300.342 324.384C299.694 322.817 298.743 321.394 297.544 320.195C296.345 318.997 294.922 318.046 293.356 317.397C291.789 316.748 290.11 316.414 288.415 316.414C286.72 316.414 285.041 316.748 283.475 317.397C281.908 318.046 280.485 318.997 279.286 320.195C278.088 321.394 277.137 322.817 276.488 324.384C275.839 325.95 275.505 327.629 275.505 329.324C275.505 332.748 276.865 336.032 279.286 338.453C281.707 340.874 284.991 342.234 288.415 342.234C290.11 342.234 291.789 341.9 293.356 341.251C294.922 340.603 296.345 339.652 297.544 338.453C298.743 337.254 299.694 335.831 300.342 334.264C300.991 332.698 301.325 331.019 301.325 329.324Z" stroke="#8F8AA2" stroke-width="2"/>
<path d="M196.775 375.473C196.753 375.524 196.745 375.579 196.75 375.634C196.755 375.689 196.774 375.742 196.805 375.788C196.835 375.833 196.877 375.871 196.926 375.896C196.975 375.921 197.03 375.934 197.085 375.933L203.265 375.913C203.319 375.913 203.373 375.899 203.42 375.872C203.468 375.846 203.508 375.809 203.538 375.763C203.568 375.718 203.586 375.666 203.59 375.612C203.595 375.557 203.586 375.503 203.565 375.453L200.455 368.493C200.43 368.433 200.388 368.381 200.333 368.345C200.279 368.308 200.215 368.289 200.15 368.289C200.085 368.289 200.021 368.308 199.967 368.345C199.912 368.381 199.87 368.433 199.845 368.493L196.775 375.473Z" stroke="#9299BD" stroke-width="2"/>
<path d="M228.335 375.474C228.313 375.522 228.303 375.575 228.307 375.628C228.311 375.68 228.329 375.731 228.358 375.775C228.387 375.819 228.426 375.855 228.473 375.879C228.52 375.904 228.572 375.916 228.625 375.914L234.715 375.904C234.767 375.904 234.818 375.891 234.863 375.866C234.909 375.841 234.947 375.804 234.975 375.761C235.003 375.717 235.019 375.667 235.023 375.615C235.026 375.563 235.017 375.511 234.995 375.464L231.935 368.664C231.909 368.612 231.868 368.568 231.818 368.537C231.768 368.507 231.711 368.491 231.652 368.492C231.593 368.493 231.536 368.511 231.487 368.543C231.438 368.575 231.399 368.621 231.375 368.674L228.335 375.474Z" stroke="#9299BD" stroke-width="2"/>
<path d="M244.065 368.015L244.105 379.595C244.105 379.717 244.154 379.834 244.24 379.92C244.326 380.007 244.443 380.055 244.565 380.055L248.695 380.035C250.411 380.029 252.054 379.408 253.263 378.307C254.473 377.206 255.15 375.716 255.145 374.165V373.365C255.143 372.597 254.973 371.836 254.646 371.128C254.318 370.419 253.84 369.775 253.237 369.234C252.634 368.692 251.919 368.264 251.133 367.972C250.347 367.681 249.505 367.532 248.655 367.535L244.525 367.555C244.465 367.555 244.405 367.567 244.349 367.59C244.293 367.613 244.243 367.647 244.2 367.69C244.157 367.733 244.123 367.783 244.1 367.839C244.077 367.895 244.065 367.955 244.065 368.015Z" stroke="#9299BD" stroke-width="2"/>
<path d="M280.355 128.505C280.168 128.678 280.032 128.768 279.945 128.775C270.398 138.602 260.688 148.328 250.815 157.955C250.555 158.208 250.298 158.208 250.045 157.955C240.645 148.608 231.335 139.302 222.115 130.035C222.082 130.002 221.918 129.768 221.625 129.335C221.365 128.962 220.955 128.818 220.395 128.905C220.615 129.152 220.648 129.008 220.495 128.475L230.705 118.205C230.972 117.932 231.242 117.932 231.515 118.205L250.155 136.845C250.368 137.052 250.578 137.052 250.785 136.845L269.415 118.205C269.675 117.945 269.935 117.945 270.195 118.205L280.355 128.505Z" fill="#8DB7E1"/>
<path d="M220.495 128.476C220.648 129.009 220.615 129.153 220.395 128.906L220.385 170.386C220.385 170.719 220.215 170.889 219.875 170.896C206.955 170.923 194.135 170.923 181.415 170.896C180.455 170.896 179.115 170.106 178.295 171.236C178.082 171.129 177.915 171.106 177.795 171.166L178.075 156.426C178.082 156.079 178.258 155.906 178.605 155.906H204.845C204.978 155.906 205.105 155.853 205.198 155.759C205.292 155.666 205.345 155.538 205.345 155.406V129.136C205.345 129.042 205.364 128.949 205.4 128.862C205.436 128.775 205.489 128.696 205.556 128.63C205.623 128.564 205.703 128.512 205.79 128.477C205.877 128.442 205.971 128.425 206.065 128.426L220.495 128.476Z" fill="#0183BF"/>
<path d="M322.915 170.895L281.135 170.885C280.781 170.885 280.605 170.705 280.605 170.345L280.355 128.505L295.095 128.445C295.388 128.445 295.535 128.592 295.535 128.885L295.475 155.225C295.475 155.679 295.705 155.905 296.165 155.905H322.335C322.668 155.905 322.838 156.072 322.845 156.405L322.915 170.895Z" fill="#79C24F"/>
<path d="M322.915 170.895L333.025 181.005C333.278 181.258 333.278 181.511 333.025 181.765L314.645 200.475C314.345 200.775 314.345 201.075 314.645 201.375L333.165 219.815C333.264 219.913 333.321 220.047 333.323 220.185C333.324 220.324 333.271 220.457 333.175 220.555L322.805 231.015C322.812 230.935 322.655 230.895 322.335 230.895C322.395 230.808 322.442 230.728 322.475 230.655C322.535 230.528 322.515 230.418 322.415 230.325L293.395 201.345C293.108 201.058 293.108 200.771 293.395 200.485L322.915 170.895Z" fill="#FCB326"/>
<path d="M177.795 171.165C177.915 171.105 178.082 171.129 178.295 171.235L207.545 200.505C207.818 200.779 207.818 201.055 207.545 201.335L178.535 230.345C178.162 230.719 177.785 230.719 177.405 230.345L167.785 220.715C167.728 220.659 167.682 220.592 167.652 220.518C167.621 220.444 167.605 220.364 167.605 220.283C167.605 220.202 167.621 220.122 167.652 220.047C167.682 219.972 167.728 219.903 167.785 219.845L186.285 201.345C186.572 201.052 186.572 200.759 186.285 200.465L167.775 181.955C167.522 181.709 167.522 181.459 167.775 181.205L177.795 171.165Z" fill="#25337A"/>
<path d="M221.135 272.726C220.695 272.92 220.448 273.12 220.395 273.326L205.965 273.306C205.884 273.306 205.803 273.29 205.728 273.259C205.652 273.228 205.584 273.182 205.527 273.125C205.469 273.067 205.423 272.999 205.392 272.924C205.361 272.848 205.345 272.768 205.345 272.686V246.406C205.345 246.073 205.178 245.906 204.845 245.906H178.595C178.262 245.906 178.095 245.74 178.095 245.406V231.406C178.095 231.073 178.262 230.906 178.595 230.906H219.845C220.178 230.906 220.345 231.073 220.345 231.406V272.166C220.345 272.44 220.482 272.6 220.755 272.646C220.882 272.673 221.008 272.7 221.135 272.726Z" fill="#AB2B28"/>
<path d="M322.335 230.895C322.655 230.895 322.812 230.935 322.805 231.015L322.815 245.425C322.822 245.745 322.665 245.905 322.345 245.905H296.095C295.963 245.905 295.835 245.957 295.742 246.051C295.648 246.145 295.595 246.272 295.595 246.405V272.435C295.595 272.556 295.571 272.677 295.524 272.789C295.477 272.901 295.409 273.003 295.322 273.089C295.236 273.174 295.133 273.242 295.02 273.287C294.908 273.333 294.787 273.356 294.665 273.355L280.345 273.225C280.025 272.665 279.892 272.545 279.945 272.865L280.285 272.475C280.492 272.241 280.595 271.968 280.595 271.655V231.435C280.595 231.291 280.652 231.154 280.753 231.053C280.855 230.951 280.992 230.895 281.135 230.895H322.335Z" fill="#EE7A23"/>
<path d="M279.945 272.867C279.892 272.547 280.025 272.667 280.345 273.227L270.285 283.607C269.998 283.901 269.712 283.901 269.425 283.607L250.835 265.027C250.582 264.774 250.328 264.774 250.075 265.027L231.395 283.547C231.142 283.801 230.888 283.801 230.635 283.547L220.395 273.327C220.448 273.121 220.695 272.921 221.135 272.727L250.115 243.807C250.368 243.554 250.622 243.554 250.875 243.807L279.945 272.867Z" fill="#EE3442"/>
<path d="M309.485 329.338C309.485 334.929 307.264 340.29 303.311 344.244C299.358 348.197 293.996 350.418 288.405 350.418C282.814 350.418 277.452 348.197 273.499 344.244C269.546 340.29 267.325 334.929 267.325 329.338C267.325 323.747 269.546 318.385 273.499 314.432C277.452 310.479 282.814 308.258 288.405 308.258C293.996 308.258 299.358 310.479 303.311 314.432C307.264 318.385 309.485 323.747 309.485 329.338ZM301.325 329.328C301.325 327.632 300.991 325.954 300.342 324.387C299.693 322.821 298.743 321.398 297.544 320.199C296.345 319 294.922 318.049 293.355 317.401C291.789 316.752 290.11 316.418 288.415 316.418C286.72 316.418 285.041 316.752 283.475 317.401C281.908 318.049 280.485 319 279.286 320.199C278.087 321.398 277.136 322.821 276.488 324.387C275.839 325.954 275.505 327.632 275.505 329.328C275.505 332.752 276.865 336.035 279.286 338.457C281.707 340.878 284.991 342.238 288.415 342.238C290.11 342.238 291.789 341.904 293.355 341.255C294.922 340.606 296.345 339.655 297.544 338.457C298.743 337.258 299.693 335.835 300.342 334.268C300.991 332.702 301.325 331.023 301.325 329.328Z" fill="#1E1545"/>
<path d="M234.815 340.717C238.265 338.007 235.345 333.237 231.595 332.897C222.565 332.067 211.205 330.577 212.935 318.497C214.735 305.837 235.715 305.997 242.725 313.977C242.773 314.031 242.81 314.093 242.833 314.161C242.857 314.229 242.866 314.301 242.862 314.373C242.857 314.444 242.838 314.515 242.806 314.579C242.774 314.643 242.729 314.7 242.675 314.747L238.005 318.817C237.732 319.057 237.452 319.067 237.165 318.847C233.838 316.341 230.065 315.467 225.845 316.227C219.645 317.347 219.995 323.507 226.335 324.437C230.615 325.067 235.595 325.547 239.115 327.437C247.655 331.997 246.835 344.897 237.365 348.627C228.795 352.017 217.265 350.787 211.455 342.847C211.208 342.507 211.232 342.187 211.525 341.887L216.025 337.307C216.082 337.251 216.159 337.218 216.24 337.217C216.322 337.215 216.402 337.243 216.465 337.297C221.085 341.447 229.515 344.877 234.815 340.717Z" fill="#1E1545"/>
<path d="M181.235 309.656H190.405C190.454 309.656 190.502 309.668 190.546 309.691C190.589 309.714 190.626 309.747 190.654 309.787C190.681 309.828 190.699 309.874 190.704 309.923C190.71 309.971 190.703 310.021 190.685 310.066L174.515 349.216C174.493 349.272 174.454 349.321 174.404 349.355C174.354 349.388 174.295 349.406 174.235 349.406H165.635C165.576 349.407 165.518 349.391 165.468 349.359C165.418 349.327 165.379 349.281 165.355 349.226L149.025 310.076C149.005 310.03 148.997 309.98 149.001 309.93C149.006 309.88 149.023 309.832 149.05 309.79C149.078 309.748 149.116 309.714 149.161 309.691C149.205 309.667 149.255 309.655 149.305 309.656H158.525C158.585 309.656 158.644 309.674 158.694 309.708C158.744 309.742 158.783 309.79 158.805 309.846L169.575 338.176C169.597 338.233 169.635 338.282 169.685 338.316C169.735 338.35 169.794 338.369 169.855 338.369C169.916 338.369 169.975 338.35 170.025 338.316C170.075 338.282 170.113 338.233 170.135 338.176L180.955 309.846C180.977 309.79 181.016 309.742 181.066 309.708C181.116 309.674 181.175 309.656 181.235 309.656Z" fill="#1E1545"/>
<path d="M204.285 309.656H196.165C195.994 309.656 195.855 309.795 195.855 309.966V348.846C195.855 349.017 195.994 349.156 196.165 349.156H204.285C204.456 349.156 204.595 349.017 204.595 348.846V309.966C204.595 309.795 204.456 309.656 204.285 309.656Z" fill="#1E1545"/>
<path d="M260.285 309.656H252.165C251.994 309.656 251.855 309.795 251.855 309.966V348.846C251.855 349.017 251.994 349.156 252.165 349.156H260.285C260.456 349.156 260.595 349.017 260.595 348.846V309.966C260.595 309.795 260.456 309.656 260.285 309.656Z" fill="#1E1545"/>
<path d="M324.815 324.646L325.185 348.606C325.192 348.973 325.012 349.156 324.645 349.156H316.625C316.305 349.156 316.145 348.996 316.145 348.676L316.115 310.146C316.115 309.82 316.278 309.656 316.605 309.656H323.125C323.318 309.657 323.508 309.701 323.682 309.786C323.855 309.871 324.006 309.994 324.125 310.146L343.355 335.026C343.371 335.049 343.394 335.066 343.42 335.074C343.446 335.082 343.475 335.081 343.501 335.071C343.528 335.061 343.551 335.043 343.568 335.018C343.585 334.994 343.594 334.965 343.595 334.936L342.945 310.366C342.932 309.893 343.162 309.656 343.635 309.656H351.545C351.648 309.656 351.748 309.697 351.821 309.77C351.894 309.844 351.935 309.943 351.935 310.046L351.815 348.546C351.815 348.953 351.612 349.156 351.205 349.156H344.885C344.729 349.156 344.575 349.12 344.434 349.051C344.294 348.981 344.171 348.881 344.075 348.756L325.245 324.496C325.214 324.456 325.172 324.427 325.123 324.413C325.075 324.398 325.023 324.4 324.976 324.416C324.928 324.433 324.887 324.464 324.858 324.505C324.829 324.547 324.814 324.596 324.815 324.646Z" fill="#1E1545"/>
<path d="M203.825 377.418C200.025 377.928 195.125 375.448 194.595 381.028C194.581 381.186 194.51 381.333 194.397 381.443C194.283 381.553 194.133 381.619 193.975 381.628L193.175 381.668C193.056 381.673 192.938 381.648 192.832 381.595C192.726 381.542 192.635 381.463 192.568 381.365C192.502 381.268 192.462 381.155 192.453 381.038C192.443 380.921 192.465 380.804 192.515 380.698L199.115 366.378C199.21 366.172 199.363 365.997 199.554 365.875C199.746 365.752 199.968 365.688 200.195 365.688C200.422 365.688 200.645 365.752 200.836 365.875C201.027 365.997 201.18 366.172 201.275 366.378L207.865 380.668C207.911 380.769 207.933 380.88 207.93 380.991C207.927 381.102 207.899 381.212 207.848 381.311C207.798 381.41 207.725 381.496 207.636 381.563C207.547 381.63 207.444 381.676 207.335 381.698C206.915 381.778 206.562 381.558 206.275 381.038C205.702 379.984 205.142 378.914 204.595 377.828C204.522 377.688 204.409 377.573 204.271 377.5C204.134 377.426 203.978 377.398 203.825 377.418ZM196.775 375.478C196.753 375.529 196.745 375.584 196.75 375.639C196.755 375.694 196.774 375.747 196.805 375.792C196.836 375.838 196.877 375.875 196.926 375.901C196.975 375.926 197.03 375.939 197.085 375.938L203.265 375.918C203.319 375.917 203.373 375.903 203.42 375.877C203.468 375.851 203.508 375.814 203.538 375.768C203.568 375.723 203.586 375.67 203.59 375.616C203.595 375.562 203.586 375.508 203.565 375.458L200.455 368.498C200.43 368.437 200.388 368.386 200.334 368.35C200.279 368.313 200.215 368.294 200.15 368.294C200.085 368.294 200.021 368.313 199.967 368.35C199.912 368.386 199.87 368.437 199.845 368.498L196.775 375.478Z" fill="#25337A"/>
<path d="M221.975 380.568C211.665 386.318 203.435 371.488 213.835 366.518C216.542 365.224 219.448 365.501 222.555 367.348C222.683 367.425 222.781 367.544 222.834 367.686C222.886 367.827 222.89 367.983 222.845 368.128L222.675 368.698C222.646 368.788 222.596 368.87 222.529 368.937C222.462 369.003 222.38 369.053 222.29 369.081C222.2 369.11 222.104 369.116 222.011 369.1C221.918 369.084 221.83 369.045 221.755 368.988C213.815 362.988 206.205 375.128 214.205 379.208C216.438 380.348 219.165 380.098 222.385 378.458C222.429 378.436 222.479 378.433 222.526 378.448C222.572 378.463 222.611 378.495 222.635 378.538C223.035 379.298 222.725 380.148 221.975 380.568Z" fill="#25337A"/>
<path d="M235.295 377.655H227.875C227.522 377.655 227.272 377.815 227.125 378.135L225.765 381.185C225.625 381.498 225.382 381.655 225.035 381.655H224.415C223.835 381.655 223.665 381.391 223.905 380.865L230.495 366.455C230.599 366.227 230.766 366.033 230.976 365.897C231.186 365.761 231.431 365.689 231.682 365.688C231.932 365.686 232.178 365.757 232.389 365.891C232.601 366.026 232.769 366.218 232.875 366.445L239.465 380.685C239.665 381.111 239.542 381.395 239.095 381.535L238.655 381.675C238.168 381.828 237.815 381.671 237.595 381.205L236.175 378.215C236.002 377.841 235.708 377.655 235.295 377.655ZM228.335 375.475C228.313 375.523 228.303 375.575 228.307 375.628C228.311 375.681 228.328 375.731 228.357 375.776C228.386 375.82 228.426 375.855 228.473 375.88C228.52 375.904 228.572 375.916 228.625 375.915L234.715 375.905C234.767 375.905 234.818 375.891 234.863 375.866C234.909 375.841 234.947 375.805 234.975 375.761C235.003 375.717 235.019 375.667 235.023 375.616C235.026 375.564 235.017 375.512 234.995 375.465L231.935 368.665C231.909 368.612 231.868 368.568 231.818 368.538C231.768 368.507 231.71 368.492 231.652 368.493C231.593 368.494 231.536 368.511 231.487 368.544C231.438 368.576 231.399 368.621 231.375 368.675L228.335 375.475Z" fill="#25337A"/>
<path d="M242.085 366.806C242.085 366.525 242.197 366.255 242.395 366.057C242.594 365.858 242.864 365.746 243.145 365.746H248.905C251.064 365.746 253.134 366.575 254.661 368.051C256.187 369.527 257.045 371.529 257.045 373.616V373.836C257.045 375.923 256.187 377.925 254.661 379.401C253.134 380.877 251.064 381.706 248.905 381.706H243.145C242.864 381.706 242.594 381.594 242.395 381.396C242.197 381.197 242.085 380.927 242.085 380.646V366.806ZM244.065 368.016L244.105 379.596C244.105 379.718 244.153 379.835 244.24 379.921C244.326 380.008 244.443 380.056 244.565 380.056L248.695 380.036C250.41 380.03 252.054 379.409 253.263 378.308C254.473 377.207 255.15 375.717 255.145 374.166V373.366C255.143 372.598 254.973 371.837 254.646 371.128C254.318 370.42 253.839 369.776 253.237 369.235C252.634 368.693 251.919 368.265 251.133 367.973C250.347 367.682 249.505 367.533 248.655 367.536L244.525 367.556C244.465 367.556 244.405 367.568 244.349 367.591C244.293 367.614 244.242 367.648 244.2 367.691C244.157 367.734 244.123 367.784 244.1 367.84C244.077 367.896 244.065 367.956 244.065 368.016Z" fill="#25337A"/>
<path d="M262.355 375.058L262.335 379.468C262.335 379.842 262.521 380.032 262.895 380.038L271.345 380.218C271.698 380.225 271.868 380.405 271.855 380.758C271.848 380.878 271.845 380.992 271.845 381.098C271.851 381.472 271.671 381.658 271.305 381.658H261.595C261.332 381.658 261.08 381.553 260.895 381.365C260.709 381.178 260.605 380.923 260.605 380.658L260.615 366.418C260.615 366.118 260.761 365.962 261.055 365.948C263.945 365.768 266.895 365.848 269.725 365.548C270.358 365.482 270.868 365.612 271.255 365.938C271.405 366.068 271.512 366.241 271.561 366.434C271.611 366.626 271.601 366.829 271.533 367.015C271.464 367.202 271.341 367.363 271.179 367.478C271.017 367.593 270.823 367.656 270.625 367.658H262.965C262.551 367.658 262.345 367.868 262.345 368.288V372.368C262.345 372.728 262.525 372.908 262.885 372.908C264.331 372.915 266.651 372.905 269.845 372.878C270.425 372.872 270.671 373.205 270.585 373.878C270.565 374.023 270.495 374.155 270.386 374.251C270.277 374.347 270.138 374.399 269.995 374.398L263.005 374.408C262.831 374.411 262.666 374.48 262.545 374.602C262.423 374.724 262.355 374.888 262.355 375.058Z" fill="#25337A"/>
<path d="M301.885 374.017C303.572 371.65 305.115 369.197 306.515 366.657C306.662 366.383 306.838 366.18 307.045 366.047C307.318 365.86 307.568 365.753 307.795 365.727C307.898 365.712 308.003 365.727 308.098 365.77C308.192 365.813 308.272 365.883 308.328 365.971C308.384 366.058 308.414 366.16 308.413 366.264C308.413 366.368 308.382 366.47 308.325 366.557C305.355 371.187 301.885 375.157 302.385 380.947C302.412 381.158 302.353 381.37 302.223 381.538C302.093 381.706 301.901 381.815 301.69 381.842C301.479 381.868 301.266 381.81 301.099 381.68C300.931 381.549 300.822 381.358 300.795 381.147C300.548 379.673 300.495 378.223 300.635 376.797C300.667 376.459 300.59 376.123 300.415 375.837L294.875 366.597C294.819 366.502 294.789 366.393 294.79 366.282C294.79 366.172 294.821 366.063 294.879 365.969C294.936 365.874 295.018 365.797 295.116 365.746C295.214 365.694 295.325 365.67 295.435 365.677C295.955 365.717 296.415 366.06 296.815 366.707C298.308 369.1 299.762 371.523 301.175 373.977C301.395 374.357 301.632 374.37 301.885 374.017Z" fill="#25337A"/>
<path d="M277.285 370.184L277.515 380.914C277.528 381.281 277.348 381.484 276.975 381.524L276.325 381.584C275.838 381.638 275.595 381.421 275.595 380.934V366.644C275.592 366.438 275.658 366.236 275.783 366.071C275.907 365.906 276.083 365.787 276.282 365.733C276.482 365.679 276.694 365.693 276.884 365.773C277.075 365.853 277.234 365.994 277.335 366.174L283.505 376.964C283.534 377.019 283.577 377.064 283.63 377.096C283.683 377.128 283.743 377.144 283.805 377.144C283.867 377.144 283.927 377.128 283.98 377.096C284.033 377.064 284.076 377.019 284.105 376.964L290.295 366.084C290.362 365.967 290.456 365.868 290.568 365.793C290.681 365.719 290.809 365.671 290.943 365.655C291.076 365.638 291.212 365.653 291.339 365.698C291.467 365.743 291.581 365.817 291.675 365.914C292.122 366.374 292.212 366.794 291.945 367.174C291.792 367.394 291.725 367.641 291.745 367.914C292.098 372.154 292.125 376.394 291.825 380.634C291.792 381.108 291.672 381.418 291.465 381.564C291.245 381.718 290.952 381.738 290.585 381.624C290.419 381.576 290.274 381.473 290.173 381.332C290.072 381.19 290.02 381.019 290.025 380.844L290.295 370.394C290.295 370.325 290.272 370.258 290.23 370.203C290.189 370.148 290.13 370.108 290.064 370.089C289.997 370.069 289.926 370.072 289.862 370.097C289.797 370.121 289.742 370.166 289.705 370.224L284.525 379.144C284.449 379.273 284.341 379.379 284.211 379.453C284.081 379.527 283.934 379.566 283.785 379.566C283.636 379.566 283.489 379.527 283.359 379.453C283.229 379.379 283.121 379.273 283.045 379.144L277.715 370.064C277.69 370.02 277.65 369.985 277.603 369.965C277.555 369.946 277.503 369.942 277.453 369.956C277.404 369.97 277.36 370 277.33 370.041C277.299 370.083 277.284 370.133 277.285 370.184Z" fill="#25337A"/>
</svg>
