<svg width="500" height="500" viewBox="0 0 500 500" fill="none" xmlns="http://www.w3.org/2000/svg">
<g clip-path="url(#clip0_1131_2)">
<rect width="500" height="500" fill="#DA1F3D"/>
<path fill-rule="evenodd" clip-rule="evenodd" d="M155.229 169.322H143.606L91.3325 226.268C89.0546 228.634 89.8723 232.021 93.3767 231.934H105.175L156.66 175.863C159.435 173.206 158.967 169.234 155.229 169.322V169.322Z" fill="white"/>
<path fill-rule="evenodd" clip-rule="evenodd" d="M138.701 169.321L112.418 198.028L91.8585 178.17C89.055 175.191 88.8214 169.613 95.4214 169L138.672 169.321H138.701Z" fill="white"/>
<path fill-rule="evenodd" clip-rule="evenodd" d="M110.374 232.021L136.891 203.051L156.72 222.909C159.523 225.888 159.757 231.466 153.157 232.079L110.374 232.021V232.021Z" fill="white"/>
<path fill-rule="evenodd" clip-rule="evenodd" d="M410 309C408.131 309.759 406.349 310.431 404.655 310.956C402.991 311.482 400.917 311.745 398.494 311.745C394.902 311.745 392.361 310.84 390.901 309.029C389.44 307.218 388.71 304.648 388.71 301.348V272.291H380.972V268.115H388.886V254.769H396.8V268.115H409.094V272.291H396.887V296.325C396.887 298.136 396.946 299.625 397.092 300.852C397.238 302.049 397.53 303.101 398.026 304.006C398.494 304.824 399.194 305.495 400.1 305.933C401.005 306.371 402.261 306.576 403.809 306.576C404.539 306.576 405.59 306.488 406.992 306.371C408.393 306.225 409.386 306.079 409.97 305.875V309H410ZM364.18 287.185C361.697 287.915 359.507 288.616 357.638 289.317C355.769 290.018 354.046 290.894 352.44 291.916C350.98 292.909 349.841 294.077 348.994 295.42C348.147 296.763 347.709 298.37 347.709 300.239C347.709 302.633 348.351 304.415 349.607 305.524C350.863 306.663 352.469 307.218 354.426 307.218C356.499 307.218 358.31 306.722 359.857 305.729C361.405 304.736 362.749 303.539 363.829 302.195L364.18 287.214V287.185ZM379.395 310.08C378.022 310.577 376.825 310.986 375.773 311.278C374.722 311.599 373.554 311.745 372.24 311.745C369.962 311.745 368.122 311.219 366.779 310.168C365.406 309.117 364.53 307.569 364.18 305.554H363.917C362.048 307.656 360.033 309.233 357.872 310.314C355.711 311.394 353.111 311.949 350.074 311.949C346.862 311.949 344.234 310.956 342.16 309C340.087 307.043 339.065 304.473 339.065 301.29C339.065 299.655 339.298 298.165 339.766 296.88C340.233 295.566 340.934 294.398 341.868 293.376C342.598 292.529 343.533 291.741 344.73 291.069C345.927 290.397 347.037 289.842 348.089 289.433C349.403 288.937 352.031 288.032 356.032 286.718C360.033 285.403 362.719 284.352 364.092 283.593V279.329C364.092 278.949 364.004 278.219 363.858 277.168C363.683 276.088 363.362 275.095 362.836 274.131C362.252 273.05 361.434 272.145 360.354 271.357C359.273 270.568 357.784 270.159 355.827 270.159C354.484 270.159 353.258 270.393 352.089 270.831C350.95 271.269 350.133 271.736 349.665 272.233C349.665 272.817 349.812 273.664 350.074 274.773C350.366 275.883 350.483 276.934 350.483 277.869C350.483 278.891 350.016 279.796 349.111 280.643C348.205 281.461 346.95 281.899 345.314 281.899C343.883 281.899 342.803 281.373 342.131 280.351C341.459 279.329 341.109 278.19 341.109 276.905C341.109 275.62 341.576 274.306 342.511 273.08C343.474 271.853 344.701 270.772 346.22 269.838C347.534 269.02 349.111 268.349 350.98 267.765C352.819 267.21 354.63 266.918 356.411 266.918C358.835 266.918 360.967 267.093 362.778 267.414C364.588 267.735 366.253 268.465 367.742 269.546C369.203 270.626 370.341 272.057 371.101 273.897C371.86 275.737 372.269 278.103 372.269 280.994C372.269 285.111 372.211 288.791 372.123 291.974C372.035 295.157 371.977 298.662 371.977 302.458C371.977 303.597 372.181 304.473 372.561 305.145C372.941 305.817 373.554 306.371 374.372 306.839C374.81 307.101 375.51 307.248 376.445 307.277C377.379 307.306 378.372 307.335 379.365 307.335V310.109L379.395 310.08ZM291.697 324.857C291.697 323.397 292.106 322.229 292.894 321.294C293.683 320.389 294.676 319.922 295.873 319.922C296.778 319.922 297.596 320.097 298.238 320.447C298.91 320.798 299.494 321.236 300.02 321.791C300.458 322.229 300.925 322.813 301.422 323.572C301.918 324.331 302.298 324.945 302.59 325.441C304.021 324.653 305.773 322.608 307.759 319.308C309.774 316.009 311.205 313.117 312.11 310.606C309.365 303.743 306.883 297.61 304.634 292.208C302.414 286.805 300.078 281.198 297.654 275.416C297.099 274.072 296.165 273.05 294.88 272.291C293.566 271.561 292.281 271.094 290.967 270.889V268.027H310.533V271.065C309.657 271.094 308.606 271.269 307.408 271.59C306.182 271.941 305.568 272.32 305.568 272.758C305.568 272.934 305.627 273.226 305.773 273.605C305.919 274.014 306.065 274.423 306.24 274.861C307.35 277.723 309.014 281.841 311.263 287.214C313.512 292.587 315.264 296.91 316.52 300.122C317.834 297.026 319.177 293.843 320.579 290.543C321.981 287.243 323.558 283.33 325.31 278.833C325.514 278.278 325.806 277.518 326.186 276.555C326.566 275.591 326.741 274.773 326.741 274.072C326.741 273.313 326.098 272.612 324.755 271.97C323.441 271.327 322.185 270.919 320.988 270.773V268.027H336.904V270.685C336.028 270.831 334.889 271.327 333.487 272.174C332.056 273.021 331.005 274.248 330.304 275.795C326.858 283.797 323.791 291.098 321.105 297.669C318.447 304.269 316.374 309.087 315.001 312.183C313.191 316.242 311.555 319.396 310.095 321.674C308.664 323.952 307.291 325.733 305.919 327.018C304.576 328.245 303.378 329.062 302.298 329.471C301.188 329.88 300.078 330.085 298.939 330.085C296.691 330.085 294.909 329.559 293.624 328.478C292.339 327.398 291.697 326.171 291.697 324.77V324.857ZM244.387 310.84H218.747V307.715C219.448 307.656 220.441 307.569 221.755 307.452C223.069 307.335 223.974 307.16 224.441 306.926C225.288 306.576 225.931 306.05 226.34 305.349C226.749 304.648 226.953 303.743 226.953 302.604V280.672H198.012V302.137C198.012 303.159 198.188 304.006 198.509 304.707C198.859 305.408 199.531 306.021 200.524 306.517C201.02 306.78 201.926 307.043 203.181 307.306C204.466 307.569 205.459 307.715 206.189 307.744V310.869H180.549V307.744C181.25 307.686 182.243 307.598 183.557 307.481C184.871 307.364 185.776 307.189 186.243 306.955C187.09 306.605 187.733 306.079 188.142 305.378C188.551 304.678 188.755 303.772 188.755 302.633V258.157C188.755 257.251 188.551 256.404 188.2 255.616C187.82 254.857 187.178 254.243 186.273 253.805C185.484 253.426 184.55 253.104 183.44 252.812C182.33 252.52 181.367 252.345 180.578 252.287V249.162H206.219V252.287C205.401 252.287 204.408 252.462 203.211 252.666C202.013 252.9 201.137 253.134 200.553 253.309C199.56 253.659 198.889 254.243 198.538 255.061C198.188 255.85 198.042 256.755 198.042 257.689V276.818H226.982V258.127C226.982 257.193 226.778 256.346 226.427 255.587C226.048 254.827 225.405 254.214 224.5 253.805C223.711 253.426 222.777 253.104 221.667 252.783C220.557 252.491 219.594 252.316 218.805 252.258V249.133H244.446V252.258C243.628 252.258 242.635 252.433 241.438 252.637C240.241 252.871 239.364 253.104 238.78 253.28C237.787 253.63 237.116 254.214 236.765 255.003C236.415 255.82 236.269 256.696 236.269 257.66V302.079C236.269 303.101 236.444 303.948 236.765 304.648C237.116 305.349 237.787 305.963 238.78 306.459C239.277 306.722 240.182 306.985 241.438 307.248C242.723 307.51 243.716 307.656 244.446 307.686V310.81L244.387 310.84ZM256.799 306.488C258.201 308.182 260.011 309.555 262.231 310.518C264.479 311.511 267.166 312.008 270.291 312.008C273.416 312.008 276.102 311.394 278.526 310.109C280.979 308.854 283.023 307.189 284.688 305.145C286.382 303.013 287.696 300.589 288.572 297.932C289.448 295.274 289.915 292.529 289.915 289.755C289.915 286.659 289.507 283.739 288.66 280.964C287.842 278.19 286.586 275.766 284.892 273.664C283.199 271.59 281.067 269.926 278.468 268.728C275.869 267.502 272.831 266.888 269.385 266.888C265.472 266.888 261.997 267.911 258.96 269.926C255.923 271.97 253.528 274.686 251.717 278.103L254.755 279.972C256.507 276.818 258.317 274.627 260.186 273.43C262.055 272.203 264.304 271.619 266.903 271.619C269.502 271.619 271.634 272.116 273.474 273.08C275.285 274.072 276.803 275.387 277.913 277.051C279.081 278.803 279.928 280.818 280.454 283.096C281.008 285.374 281.271 287.944 281.271 290.748H252.798V293.61C252.798 296.179 253.119 298.574 253.791 300.764C254.433 302.955 255.426 304.882 256.77 306.488H256.799ZM261.88 299.567C261.588 297.727 261.471 296.004 261.471 294.369H281.33C281.154 298.866 280.045 302.371 278.03 304.911C276.015 307.423 273.503 308.708 270.437 308.708C268.626 308.708 267.108 308.299 265.969 307.452C264.801 306.634 263.895 305.525 263.224 304.21C262.61 302.984 262.172 301.436 261.909 299.567H261.88Z" fill="white"/>
<path fill-rule="evenodd" clip-rule="evenodd" d="M345.753 223.961V198.409C345.519 197.708 345.139 196.89 344.555 196.014C344 195.138 343.358 194.349 342.569 193.707C341.752 193.006 340.759 192.422 339.561 191.984C338.364 191.517 337.021 191.283 335.473 191.283C332.056 191.283 329.194 193.035 326.858 196.54C324.522 200.015 323.383 204.833 323.383 210.966C323.383 213.39 323.616 215.609 324.054 217.566C324.493 219.552 325.281 221.392 326.391 223.056C327.442 224.692 328.756 225.977 330.362 226.94C331.969 227.904 334.013 228.4 336.466 228.4C338.569 228.4 340.379 227.962 341.839 227.086C343.329 226.21 344.614 225.159 345.694 223.991L345.753 223.961ZM361.522 251.267H338.364V248.405C339.269 248.346 340.146 248.259 341.022 248.171C341.869 248.083 342.657 247.937 343.358 247.733C344.234 247.441 344.876 246.945 345.227 246.214C345.577 245.484 345.753 244.637 345.753 243.645V227.787L345.49 227.7C345.022 228.225 344.38 228.838 343.504 229.481C342.657 230.153 341.752 230.737 340.817 231.146C339.649 231.759 338.539 232.226 337.459 232.547C336.378 232.898 335.035 233.044 333.4 233.044C330.771 233.044 328.318 232.489 326.011 231.408C323.704 230.328 321.689 228.78 319.966 226.765C318.243 224.808 316.9 222.384 315.878 219.493C314.885 216.602 314.388 213.448 314.388 210.002C314.388 206.731 314.972 203.753 316.14 201.095C317.308 198.409 318.827 196.072 320.754 194.086C322.594 192.188 324.785 190.699 327.354 189.589C329.924 188.479 332.494 187.925 335.006 187.925C336.904 187.925 338.569 188.1 340.029 188.479C341.489 188.83 342.745 189.268 343.796 189.764C344.701 190.144 345.607 190.611 346.512 191.225C347.388 191.809 348.06 192.217 348.439 192.422L352.148 186.786L354.63 187.136C354.514 189.297 354.368 191.925 354.192 195.05C354.017 198.175 353.929 200.92 353.929 203.256V242.885C353.929 243.907 354.134 244.783 354.484 245.514C354.864 246.244 355.448 246.799 356.266 247.178C356.967 247.47 357.843 247.733 358.894 247.937C359.975 248.171 360.821 248.288 361.464 248.346V251.208L361.522 251.267ZM309.161 231.963H288.251V229.101C288.923 229.043 289.624 228.984 290.383 228.897C291.142 228.809 291.756 228.722 292.252 228.576C293.041 228.313 293.654 227.875 294.063 227.203C294.471 226.561 294.676 225.714 294.676 224.662V179.66C294.676 178.609 294.442 177.645 294.004 176.74C293.537 175.834 292.953 175.104 292.252 174.579C291.726 174.228 290.792 173.907 289.39 173.615C288.018 173.323 286.908 173.148 286.061 173.089V170.227L302.269 169.234L302.882 169.877V224.107C302.882 225.1 303.086 225.947 303.437 226.59C303.817 227.232 304.401 227.758 305.218 228.079C305.861 228.371 306.474 228.605 307.087 228.722C307.701 228.868 308.401 228.984 309.19 229.043V231.905L309.161 231.963ZM269.649 208.279C267.166 209.009 264.976 209.71 263.107 210.411C261.238 211.112 259.515 211.988 257.909 213.01C256.449 214.003 255.31 215.171 254.463 216.515C253.616 217.858 253.178 219.464 253.178 221.333C253.178 223.728 253.82 225.509 255.076 226.619C256.332 227.758 257.938 228.313 259.895 228.313C261.968 228.313 263.779 227.816 265.327 226.823C266.903 225.83 268.218 224.633 269.298 223.29L269.649 208.308V208.279ZM284.864 231.175C283.491 231.671 282.294 232.08 281.242 232.372C280.191 232.693 279.023 232.839 277.709 232.839C275.431 232.839 273.591 232.314 272.248 231.262C270.875 230.211 269.999 228.663 269.649 226.648H269.386C267.517 228.751 265.502 230.328 263.341 231.408C261.18 232.489 258.581 233.044 255.543 233.044C252.331 233.044 249.703 232.051 247.629 230.094C245.556 228.138 244.534 225.568 244.534 222.384C244.534 220.749 244.767 219.26 245.235 217.975C245.702 216.661 246.403 215.493 247.337 214.47C248.067 213.623 249.002 212.835 250.199 212.163C251.397 211.492 252.506 210.937 253.558 210.528C254.872 210.031 257.5 209.126 261.501 207.812C265.502 206.498 268.188 205.447 269.561 204.687V200.424C269.561 200.044 269.473 199.314 269.327 198.263C269.152 197.182 268.831 196.189 268.305 195.225C267.721 194.145 266.903 193.24 265.823 192.451C264.742 191.663 263.253 191.254 261.296 191.254C259.953 191.254 258.727 191.487 257.558 191.925C256.419 192.363 255.602 192.831 255.135 193.327C255.135 193.911 255.281 194.758 255.543 195.868C255.835 196.978 255.952 198.029 255.952 198.963C255.952 199.986 255.485 200.891 254.58 201.738C253.674 202.555 252.419 202.993 250.783 202.993C249.352 202.993 248.272 202.468 247.6 201.446C246.928 200.424 246.578 199.285 246.578 198C246.578 196.715 247.045 195.401 247.98 194.174C248.943 192.948 250.17 191.867 251.689 190.932C253.003 190.115 254.58 189.443 256.449 188.859C258.288 188.304 260.099 188.012 261.881 188.012C264.304 188.012 266.436 188.187 268.247 188.509C270.057 188.83 271.722 189.56 273.211 190.64C274.672 191.721 275.811 193.152 276.57 194.992C277.329 196.832 277.738 199.197 277.738 202.088C277.738 206.206 277.68 209.885 277.592 213.069C277.504 216.252 277.446 219.756 277.446 223.553C277.446 224.692 277.65 225.568 278.03 226.239C278.41 226.911 279.023 227.466 279.841 227.933C280.279 228.196 280.98 228.342 281.914 228.371C282.878 228.4 283.841 228.43 284.834 228.43V231.204L284.864 231.175ZM241.117 231.934H212.264V228.809C214.629 228.751 216.528 228.517 217.988 228.138C219.448 227.729 220.178 227.145 220.178 226.327C220.178 225.889 219.828 224.984 219.156 223.64C218.514 222.268 217.637 220.749 216.615 219.085C215.447 217.245 214.075 215.054 212.468 212.543C210.891 210.031 209.285 207.637 207.737 205.359C205.197 208.717 202.276 212.747 199.035 217.508C195.793 222.268 194.158 225.042 194.158 225.889C194.158 226.853 194.596 227.553 195.501 227.992C196.377 228.43 198.363 228.722 201.4 228.838V231.963H178.359V228.838C179.118 228.78 180.082 228.663 181.25 228.517C182.418 228.342 183.382 228.079 184.141 227.729C185.631 226.911 186.857 226.035 187.762 225.1C188.668 224.137 189.602 223.056 190.507 221.771C192.377 219.231 194.742 216.047 197.633 212.251C200.524 208.454 203.065 205.008 205.314 201.855C203.649 199.401 201.459 196.277 198.86 192.48C196.231 188.684 193.457 184.625 190.478 180.302C189.252 178.463 188.288 177.207 187.558 176.448C186.857 175.688 185.923 175.046 184.725 174.491C184.054 174.17 183.09 173.936 181.863 173.732C180.637 173.527 179.673 173.41 178.943 173.352V170.227H207.504V173.352C205.81 173.41 204.029 173.615 202.218 173.965C200.407 174.345 199.502 174.871 199.502 175.63C199.502 176.185 199.853 177.148 200.583 178.521C201.313 179.894 202.16 181.383 203.153 182.931C204.175 184.566 205.314 186.348 206.569 188.333C207.825 190.319 209.344 192.597 211.154 195.167C214.425 190.728 217.258 186.727 219.652 183.164C222.047 179.602 223.215 177.265 223.215 176.214C223.215 175.279 222.66 174.608 221.58 174.17C220.499 173.732 218.66 173.469 216.09 173.352V170.227H239.043V173.352C238.313 173.352 237.379 173.498 236.182 173.673C235.013 173.878 234.02 174.141 233.261 174.462C231.743 175.192 230.633 175.98 229.903 176.798C229.173 177.645 228.18 178.871 226.924 180.448C224.617 183.456 222.456 186.26 220.499 188.888C218.543 191.517 216.206 194.729 213.432 198.496C215.739 201.796 218.338 205.534 221.2 209.739C224.062 213.916 226.807 217.916 229.406 221.742C230.312 223.056 231.334 224.283 232.502 225.451C233.67 226.619 234.605 227.437 235.335 227.875C236.036 228.284 236.97 228.517 238.138 228.634C239.306 228.751 240.299 228.809 241.117 228.838V231.963V231.934Z" fill="white"/>
</g>
<defs>
<clipPath id="clip0_1131_2">
<rect width="500" height="500" fill="white"/>
</clipPath>
</defs>
</svg>
