<svg width="500" height="500" viewBox="0 0 500 500" fill="none" xmlns="http://www.w3.org/2000/svg">
<rect width="500" height="500" fill="#F0F0F0"/>
<path d="M85.238 288.476H109.328C114.31 288.476 116.567 286.104 116.567 283.256C116.567 280.051 113.838 277.917 110.99 276.969C100.312 273.411 95.4443 271.868 91.4102 267.715C87.0191 263.201 85 257.385 85 250.741C85 239.111 91.2871 229.381 103.156 226.89C105.175 226.414 107.428 226.18 115.615 226.18H126.65V245.759H110.867C106.714 245.759 105.171 248.012 105.171 250.86C105.171 253.827 106.833 256.08 110.51 257.147C118.578 259.52 125.103 261.42 129.494 265.216C134.357 269.369 136.733 275.894 136.733 282.895C136.733 297.965 125.46 308.052 111.696 308.052H85.238V288.476Z" fill="#00ADEE"/>
<path d="M197.491 226.18V308.056H177.321V296.192H159.522V308.056H139.352V282.661C139.347 243.621 163.675 226.18 197.491 226.18ZM177.321 276.608V249.789C166.404 254.061 160.946 263.435 159.76 276.608H177.321Z" fill="#00ADEE"/>
<path d="M201.053 226.18H221.223C232.259 226.18 242.937 232.114 247.09 238.044C251.243 232.11 261.921 226.18 272.957 226.18H293.127V308.056H272.957V246.35C265.246 246.707 256.344 252.165 256.344 263.558V308.056H237.832V263.558C237.832 252.165 228.93 246.707 221.219 246.35V308.056H201.049V226.18H201.053Z" fill="#00ADEE"/>
<path d="M295.988 267.118C295.988 255.963 305.004 246.947 316.159 246.947C327.194 246.947 336.329 255.968 336.329 267.118C336.329 278.272 327.194 287.288 316.159 287.288C305.004 287.292 295.988 278.272 295.988 267.118Z" fill="#00ADEE"/>
<path d="M359.352 245.759V257.624H380.713V276.608H359.352V308.052H339.181V226.18H390.8V245.759H359.352Z" fill="#00ADEE"/>
<path d="M394.362 226.18H414.532V308.056H394.362V226.18Z" fill="#00ADEE"/>
<path d="M92.8013 322.946C92.8013 317.114 97.5166 312.395 103.352 312.395C109.122 312.395 113.903 317.11 113.903 322.946C113.903 328.777 109.126 333.497 103.352 333.497C97.5166 333.497 92.8013 328.781 92.8013 322.946Z" fill="#00ADEE"/>
<path d="M393.898 210.229C393.898 204.397 398.613 199.678 404.449 199.678C410.219 199.678 415 204.393 415 210.229C415 216.06 410.223 220.78 404.449 220.78C398.613 220.78 393.898 216.064 393.898 210.229Z" fill="#00ADEE"/>
<path d="M213.582 322.268C212.963 325.382 210.853 327.135 207.919 327.135C204.743 327.135 202.802 325.009 202.802 321.898C202.802 318.287 204.997 314.643 209.22 314.643C212.134 314.643 214.03 316.428 214.079 318.722C214.079 318.771 214.071 318.841 214.071 318.89H211.949C211.851 317.474 210.812 316.526 209.183 316.526C206.31 316.526 205.001 319.231 205.001 321.812C205.001 323.872 206.072 325.255 208.05 325.255C209.725 325.255 211.042 324.184 211.387 322.592L211.444 322.292H208.547L208.9 320.61H213.919L213.582 322.268Z" fill="#00ADEE"/>
<path d="M216.319 323.26C216.311 322.916 216.352 322.551 216.43 322.189L217.973 314.843H220.161L218.626 322.116C218.552 322.452 218.515 322.776 218.527 323.064C218.568 324.373 219.451 325.185 221.068 325.185C222.619 325.185 223.78 324.237 224.133 322.604L225.783 314.848H227.97L226.218 323.068C225.672 325.624 223.772 327.139 220.83 327.139C217.945 327.13 216.328 325.464 216.319 323.26ZM220.678 312.537C220.678 311.975 221.129 311.523 221.7 311.523C222.278 311.523 222.73 311.975 222.73 312.537C222.73 313.099 222.278 313.551 221.7 313.551C221.129 313.555 220.678 313.099 220.678 312.537ZM223.916 312.537C223.916 311.975 224.367 311.523 224.938 311.523C225.508 311.523 225.959 311.975 225.959 312.537C225.959 313.099 225.508 313.551 224.938 313.551C224.371 313.555 223.916 313.099 223.916 312.537Z" fill="#00ADEE"/>
<path d="M238.55 318.833C238.435 317.433 237.303 316.547 235.805 316.547C233.359 316.547 231.676 318.767 231.676 321.833C231.676 323.934 232.809 325.226 234.643 325.226C236.117 325.226 237.315 324.397 237.82 323.031H239.946C239.367 325.51 237.233 327.135 234.549 327.135C231.442 327.135 229.456 325.107 229.456 321.939C229.456 317.692 232.103 314.643 235.932 314.643C238.649 314.643 240.598 316.276 240.709 318.746C240.709 318.898 240.709 318.989 240.701 319.083H238.563C238.558 319.03 238.55 318.964 238.55 318.833Z" fill="#00ADEE"/>
<path d="M242.683 323.26C242.675 322.916 242.716 322.551 242.794 322.189L244.337 314.843H246.524L244.993 322.116C244.92 322.452 244.883 322.776 244.895 323.064C244.936 324.373 245.814 325.185 247.431 325.185C248.982 325.185 250.148 324.237 250.497 322.604L252.146 314.848H254.334L252.581 323.068C252.036 325.624 250.136 327.139 247.193 327.139C244.304 327.13 242.691 325.464 242.683 323.26ZM247.037 312.537C247.037 311.975 247.489 311.523 248.059 311.523C248.638 311.523 249.089 311.975 249.089 312.537C249.089 313.099 248.638 313.551 248.059 313.551C247.489 313.555 247.037 313.099 247.037 312.537ZM250.279 312.537C250.279 311.975 250.731 311.523 251.301 311.523C251.871 311.523 252.323 311.975 252.323 312.537C252.323 313.099 251.871 313.551 251.301 313.551C250.731 313.551 250.279 313.099 250.279 312.537Z" fill="#00ADEE"/>
<path d="M254.978 326.934L257.543 314.844H259.997L261.696 324.118H261.745L267.351 314.844H270.039L267.466 326.934H265.496L267.38 318.156H267.314L261.979 326.876H260.453L258.86 318.156H258.803L256.936 326.934H254.978Z" fill="#00ADEE"/>
<path d="M271.607 323.26C271.599 322.916 271.64 322.551 271.718 322.189L273.261 314.843H275.448L273.913 322.116C273.839 322.452 273.803 322.776 273.815 323.064C273.856 324.373 274.738 325.185 276.355 325.185C277.906 325.185 279.068 324.237 279.421 322.604L281.071 314.848H283.258L281.506 323.068C280.96 325.624 279.06 327.139 276.117 327.139C273.232 327.13 271.615 325.464 271.607 323.26ZM275.965 312.537C275.965 311.975 276.417 311.523 276.987 311.523C277.566 311.523 278.017 311.975 278.017 312.537C278.017 313.099 277.566 313.551 276.987 313.551C276.417 313.555 275.965 313.099 275.965 312.537ZM279.203 312.537C279.203 311.975 279.655 311.523 280.225 311.523C280.796 311.523 281.247 311.975 281.247 312.537C281.247 313.099 280.796 313.551 280.225 313.551C279.659 313.555 279.203 313.099 279.203 312.537Z" fill="#00ADEE"/>
<path d="M283.87 325.456L291.93 316.752L291.938 316.711H285.913L286.307 314.844H295.094L294.786 316.317L286.734 325.021L286.726 325.062H293.066L292.681 326.93H283.558L283.87 325.456Z" fill="#00ADEE"/>
<path d="M300.507 326.934L303.08 314.844H307.787C309.872 314.844 311.189 315.915 311.189 317.474C311.189 319.034 310.048 320.24 308.493 320.61L308.485 320.659C309.798 320.893 310.61 321.874 310.61 323.088C310.61 325.333 308.751 326.934 306.043 326.934H300.507V326.934ZM305.719 325.214C307.319 325.214 308.398 324.328 308.398 323.097C308.398 322.042 307.66 321.48 306.227 321.48H303.823L303.018 325.214H305.719ZM304.167 319.863H306.338C307.922 319.863 308.993 319.05 308.993 317.901C308.993 316.974 308.3 316.477 306.991 316.477H304.89L304.167 319.863Z" fill="#00ADEE"/>
<path d="M312.67 326.934L315.243 314.844H317.431L314.858 326.934H312.67Z" fill="#00ADEE"/>
<path d="M325.245 314.844C327.609 314.844 328.946 316.21 328.946 318.18C328.946 319.998 327.797 321.632 325.823 322.153L327.399 326.938H325.138L323.689 322.407H321.219L320.246 326.938H318.059L320.632 314.848H325.245V314.844ZM324.055 320.684C325.647 320.684 326.726 319.727 326.726 318.381C326.726 317.294 326.012 316.637 324.843 316.637H322.438L321.568 320.684H324.055Z" fill="#00ADEE"/>
<path d="M337.778 326.934H330.062L332.635 314.844H334.823L332.644 325.038H338.163L337.778 326.934Z" fill="#00ADEE"/>
<path d="M340.33 326.934L342.903 314.844H345.091L342.518 326.934H340.33Z" fill="#00ADEE"/>
<path d="M345.719 326.934L348.292 314.844H350.479L349.289 320.388H349.33L355.26 314.844H357.899L352.1 320.347L355.584 326.93H353.147L350.348 321.66L348.706 323.158L347.902 326.93H345.719V326.934Z" fill="#00ADEE"/>
<path d="M364.408 314.844C367.49 314.844 369.427 316.629 369.427 319.662C369.427 323.942 366.804 326.934 362.959 326.934H357.85L360.406 314.844H364.408ZM360.41 325.071H362.713C365.327 325.071 367.202 322.994 367.202 319.933C367.202 317.848 366.07 316.69 363.952 316.69H362.208L360.41 325.071Z" fill="#00ADEE"/>
<path d="M371.733 322.217C371.733 321.622 371.823 321.002 371.959 320.489H380.745C380.778 320.263 380.794 320.062 380.794 319.918C380.876 317.834 379.772 316.533 377.897 316.533C376.522 316.533 375.459 317.103 374.823 318.182H372.554C373.407 315.995 375.492 314.637 378.024 314.637C381.09 314.637 382.965 316.549 382.965 319.68C382.965 324.104 380.392 327.129 376.641 327.129C373.604 327.133 371.733 325.258 371.733 322.217ZM380.437 322.143H373.97C373.953 322.229 373.953 322.27 373.953 322.487C373.953 324.203 375.008 325.245 376.752 325.245C378.512 325.241 379.945 324.043 380.437 322.143Z" fill="#00ADEE"/>
<path d="M391.136 314.844C394.218 314.844 396.155 316.629 396.155 319.662C396.155 323.942 393.533 326.934 389.687 326.934H384.578L387.135 314.844H391.136ZM387.139 325.071H389.441C392.055 325.071 393.931 322.994 393.931 319.933C393.931 317.848 392.798 316.69 390.681 316.69H388.936L387.139 325.071Z" fill="#00ADEE"/>
<path d="M397.645 326.934L400.218 314.844H402.405L399.832 326.934H397.645Z" fill="#00ADEE"/>
<path d="M410.219 314.844C412.583 314.844 413.921 316.21 413.921 318.18C413.921 319.998 412.772 321.632 410.798 322.153L412.374 326.938H410.112L408.664 322.407H406.193L405.221 326.938H403.033L405.606 314.848H410.219V314.844ZM409.029 320.684C410.621 320.684 411.701 319.727 411.701 318.381C411.701 317.294 410.986 316.637 409.817 316.637H407.412L406.542 320.684H409.029Z" fill="#00ADEE"/>
<path opacity="0.7" d="M229.809 184.617C295.471 210.721 349.265 223.382 388.822 194.901C383.257 197.043 377.791 198.804 372.316 200.039C366.846 201.278 361.396 201.997 355.987 202.313C345.165 202.945 334.474 201.89 323.845 200.027C302.591 196.157 281.551 189.135 260.326 181.728C255.015 179.877 249.705 177.968 244.374 176.048L236.363 173.167L234.323 172.445L232.054 171.681C230.54 171.172 229.029 170.672 227.499 170.212C221.339 168.431 214.986 167.151 208.527 166.432C202.042 165.833 195.464 165.821 188.972 166.621C182.483 167.397 176.09 168.96 170.061 171.296C164.028 173.622 158.365 176.7 153.247 180.365C148.114 184.009 143.575 188.327 139.631 192.993C137.665 195.336 135.88 197.807 134.259 200.351C132.671 202.92 131.197 205.551 130.13 208.349C130.13 208.353 164.147 158.512 229.809 184.617Z" fill="#F05A28"/>
<path d="M229.809 184.619C164.147 158.515 130.13 208.352 130.13 208.352C139.356 200.944 149.283 195.478 159.432 191.99C164.5 190.254 169.605 189.019 174.702 188.313C179.799 187.611 184.88 187.422 189.907 187.709C194.939 188.009 199.917 188.744 204.841 189.856C209.766 191.038 214.613 192.597 219.418 194.391C220.617 194.863 221.798 195.4 222.993 195.872L224.782 196.603L226.772 197.452C229.456 198.626 232.169 199.73 234.886 200.842C237.594 201.962 240.356 202.996 243.089 204.072C245.855 205.098 248.609 206.132 251.404 207.108C262.55 211.04 274 214.434 285.782 216.958L290.214 217.873L294.687 218.665C296.173 218.936 297.683 219.153 299.185 219.375C300.687 219.601 302.193 219.806 303.712 219.974C309.765 220.7 315.896 221.152 322.085 221.14C334.421 221.164 347.044 219.51 358.794 215.238C370.506 210.974 381.193 204.059 388.818 194.895C349.269 223.384 295.471 210.728 229.809 184.619Z" fill="#F05A28"/>
<path d="M315.756 312.539C315.756 311.977 316.208 311.525 316.778 311.525C317.348 311.525 317.8 311.977 317.8 312.539C317.8 313.101 317.348 313.553 316.778 313.553C316.212 313.557 315.756 313.101 315.756 312.539Z" fill="#00ADEE"/>
<path d="M343.342 312.539C343.342 311.977 343.794 311.525 344.364 311.525C344.935 311.525 345.386 311.977 345.386 312.539C345.386 313.101 344.935 313.553 344.364 313.553C343.794 313.557 343.342 313.101 343.342 312.539Z" fill="#00ADEE"/>
<path d="M400.747 312.539C400.747 311.977 401.199 311.525 401.769 311.525C402.34 311.525 402.791 311.977 402.791 312.539C402.791 313.101 402.34 313.553 401.769 313.553C401.203 313.557 400.747 313.101 400.747 312.539Z" fill="#00ADEE"/>
</svg>
